<?xml version="1.0" encoding="UTF-8"?>
<!--
  - Copyright (c) 2023. Selldone® Business OS™
  -
  - Author: M.Pajuhaan
  - Web: https://selldone.com
  - ━━━━━━━━━━━━━━━━━━━━━━━━━━━━━━━━━━━━━━━━━━━━━━━━━━━━━━
  -
  - All rights reserved. In the weave of time, where traditions and innovations intermingle, this content was crafted.
  - From the essence of thought, through the corridors of creativity, each word, and sentiment has been molded.
  - Not just to exist, but to inspire. Like an artist's stroke or a sculptor's chisel, every nuance is deliberate.
  - Our journey is not just about reaching a destination, but about creating a masterpiece.
  - Tread carefully, for you're treading on dreams.
  -->

<!DOCTYPE svg PUBLIC "-//W3C//DTD SVG 1.1//EN" "http://www.w3.org/Graphics/SVG/1.1/DTD/svg11.dtd">
<!-- Creator: CorelDRAW 2019 (64-Bit) -->
<svg xmlns="http://www.w3.org/2000/svg" xml:space="preserve" width="593px" height="481px" version="1.1" style="shape-rendering:geometricPrecision; text-rendering:geometricPrecision; image-rendering:optimizeQuality; fill-rule:evenodd; clip-rule:evenodd"
viewBox="0 0 62.86 50.96"
 xmlns:xlink="http://www.w3.org/1999/xlink"
 xmlns:xodm="http://www.corel.com/coreldraw/odm/2003">
 <defs>
  <style type="text/css">
   <![CDATA[
    .fil1 {fill:#FEFEFE;fill-rule:nonzero}
    .fil5 {fill:#FEFEFE;fill-rule:nonzero}
    .fil3 {fill:#FAC02F;fill-rule:nonzero}
    .fil0 {fill:#404241;fill-rule:nonzero}
    .fil4 {fill:#3FA9AE;fill-rule:nonzero}
    .fil2 {fill:white;fill-rule:nonzero}
   ]]>
  </style>
 </defs>
 <g id="Layer_x0020_1">
  <metadata id="CorelCorpID_0Corel-Layer"/>
  <path class="fil0" d="M57.51 27.39c0,2.03 -2.02,3.77 -2.52,5.64 -0.51,1.94 0.35,4.45 -0.63,6.15 -1,1.72 -3.61,2.22 -5.01,3.62 -1.4,1.4 -1.9,4.01 -3.62,5.01 -1.7,0.98 -4.21,0.12 -6.15,0.63 -1.87,0.5 -3.61,2.52 -5.64,2.52 -2.03,0 -3.77,-2.02 -5.64,-2.52 -1.94,-0.51 -4.45,0.35 -6.15,-0.63 -1.72,-1 -2.22,-3.61 -3.62,-5.01 -1.4,-1.4 -4.02,-1.9 -5.01,-3.62 -0.98,-1.7 -0.12,-4.21 -0.64,-6.15 -0.5,-1.87 -2.52,-3.61 -2.52,-5.64 0,-2.03 2.02,-3.77 2.52,-5.64 0.52,-1.94 -0.34,-4.45 0.64,-6.15 0.99,-1.72 3.61,-2.22 5.01,-3.62 1.4,-1.4 1.9,-4.02 3.62,-5.01 1.7,-0.98 4.21,-0.12 6.15,-0.64 1.87,-0.5 3.61,-2.52 5.64,-2.52 2.03,0 3.77,2.02 5.64,2.52 1.94,0.52 4.45,-0.34 6.15,0.64 1.72,1 2.22,3.61 3.62,5.01 1.4,1.4 4.01,1.9 5.01,3.62 0.98,1.7 0.12,4.21 0.63,6.15 0.5,1.87 2.52,3.61 2.52,5.64z"/>
  <path class="fil1" d="M33.94 8.51c-10.41,0 -18.88,8.47 -18.88,18.88 0,10.41 8.47,18.88 18.88,18.88 10.41,0 18.88,-8.47 18.88,-18.88 0,-10.41 -8.47,-18.88 -18.88,-18.88zm0 38.58c-10.87,0 -19.71,-8.84 -19.71,-19.7 0,-10.87 8.84,-19.71 19.71,-19.71 10.86,0 19.7,8.84 19.7,19.71 0,10.86 -8.84,19.7 -19.7,19.7z"/>
  <g>
   <path class="fil2" d="M33.94 9.48c-0.12,0 -0.21,-0.1 -0.21,-0.22 0,-0.12 0.09,-0.22 0.21,-0.22l0 0.44zm0.42 -0.43l0 0.44 -0.42 -0.01 0 -0.44 0.42 0.01zm0 0c0.12,0 0.21,0.1 0.21,0.22 0,0.12 -0.09,0.22 -0.21,0.22l0 -0.44zm1.26 0.51c-0.11,0 -0.2,-0.11 -0.2,-0.23 0.01,-0.12 0.11,-0.21 0.22,-0.21l-0.02 0.44zm0.45 -0.39l-0.04 0.44 -0.29 -0.04 -0.12 -0.01 0.02 -0.44 0.14 0.01 0.29 0.04zm0 0c0.12,0.01 0.21,0.12 0.2,0.24 -0.02,0.12 -0.12,0.21 -0.24,0.2l0.04 -0.44zm1.21 0.63c-0.11,-0.02 -0.19,-0.13 -0.18,-0.25 0.02,-0.12 0.13,-0.2 0.24,-0.19l-0.06 0.44zm0.49 -0.35l-0.08 0.43 -0.2 -0.04 -0.21 -0.04 0.06 -0.44 0.23 0.05 0.2 0.04zm0 0c0.11,0.02 0.19,0.14 0.17,0.26 -0.03,0.12 -0.14,0.2 -0.25,0.17l0.08 -0.43zm1.14 0.75c-0.11,-0.03 -0.18,-0.15 -0.15,-0.27 0.03,-0.12 0.14,-0.19 0.25,-0.16l-0.1 0.43zm0.52 -0.31l-0.12 0.43 -0.13 -0.05 -0.27 -0.07 0.1 -0.43 0.29 0.08 0.13 0.04zm0 0c0.11,0.04 0.18,0.16 0.14,0.28 -0.03,0.12 -0.15,0.18 -0.26,0.15l0.12 -0.43zm1.07 0.86c-0.11,-0.04 -0.17,-0.17 -0.13,-0.28 0.04,-0.12 0.16,-0.18 0.27,-0.14l-0.14 0.42zm0.55 -0.25l-0.16 0.41 -0.09 -0.04 -0.3 -0.12 0.14 -0.42 0.32 0.13 0.09 0.04zm0 0c0.11,0.04 0.16,0.17 0.11,0.28 -0.04,0.12 -0.16,0.17 -0.27,0.13l0.16 -0.41zm0.99 0.95c-0.11,-0.05 -0.16,-0.18 -0.11,-0.29 0.05,-0.11 0.18,-0.16 0.28,-0.11l-0.17 0.4zm0.56 -0.2l-0.19 0.4 -0.07 -0.04 -0.3 -0.16 0.17 -0.4 0.33 0.17 0.06 0.03zm0 0c0.1,0.06 0.15,0.19 0.09,0.3 -0.05,0.11 -0.18,0.15 -0.28,0.1l0.19 -0.4zm0.9 1.05c-0.1,-0.06 -0.14,-0.2 -0.08,-0.3 0.06,-0.11 0.19,-0.14 0.29,-0.08l-0.21 0.38zm0.58 -0.14l-0.23 0.37 -0.06 -0.04 -0.29 -0.19 0.21 -0.38 0.32 0.2 0.05 0.04zm0 0c0.1,0.07 0.13,0.2 0.06,0.31 -0.06,0.1 -0.19,0.13 -0.29,0.06l0.23 -0.37zm0.8 1.13c-0.1,-0.07 -0.12,-0.21 -0.05,-0.31 0.07,-0.1 0.2,-0.12 0.3,-0.05l-0.25 0.36zm0.59 -0.08l-0.26 0.34 -0.06 -0.04 -0.27 -0.22 0.25 -0.36 0.28 0.23 0.06 0.05zm0 0c0.09,0.07 0.11,0.21 0.03,0.31 -0.07,0.09 -0.2,0.11 -0.29,0.03l0.26 -0.34zm0.69 1.2c-0.09,-0.08 -0.1,-0.22 -0.02,-0.31 0.08,-0.09 0.21,-0.1 0.3,-0.02l-0.28 0.33zm0.6 -0.02l-0.3 0.32 -0.06 -0.07 -0.24 -0.23 0.28 -0.33 0.26 0.24 0.06 0.07zm0 0c0.08,0.08 0.08,0.22 0,0.31 -0.08,0.09 -0.21,0.09 -0.3,0.01l0.3 -0.32zm0.57 1.27c-0.08,-0.09 -0.07,-0.23 0.01,-0.31 0.09,-0.09 0.22,-0.08 0.3,0l-0.31 0.31zm0.6 0.03l-0.32 0.29 -0.07 -0.09 -0.21 -0.23 0.31 -0.31 0.22 0.26 0.07 0.08zm0 0c0.08,0.1 0.07,0.24 -0.02,0.31 -0.09,0.08 -0.23,0.07 -0.3,-0.02l0.32 -0.29zm0.46 1.33c-0.08,-0.1 -0.06,-0.24 0.03,-0.31 0.1,-0.08 0.23,-0.06 0.3,0.03l-0.33 0.28zm0.58 0.09l-0.34 0.26 -0.08 -0.12 -0.16 -0.23 0.33 -0.28 0.18 0.26 0.07 0.11zm0 0c0.07,0.1 0.05,0.24 -0.05,0.31 -0.09,0.07 -0.22,0.05 -0.29,-0.05l0.34 -0.26zm0.33 1.36c-0.06,-0.1 -0.03,-0.24 0.07,-0.3 0.1,-0.07 0.23,-0.04 0.29,0.07l-0.36 0.23zm0.58 0.16l-0.37 0.22 -0.07 -0.15 -0.14 -0.23 0.36 -0.23 0.15 0.25 0.07 0.14zm0 0c0.06,0.11 0.02,0.24 -0.08,0.3 -0.1,0.06 -0.23,0.02 -0.29,-0.08l0.37 -0.22zm0.2 1.39c-0.05,-0.11 -0.01,-0.24 0.09,-0.3 0.11,-0.05 0.23,-0.01 0.29,0.1l-0.38 0.2zm0.55 0.22l-0.38 0.17 -0.07 -0.17 -0.1 -0.22 0.38 -0.2 0.11 0.24 0.06 0.18zm0 0c0.05,0.11 0,0.24 -0.1,0.29 -0.11,0.05 -0.24,0 -0.28,-0.12l0.38 -0.17zm0.07 1.4c-0.05,-0.11 0.01,-0.24 0.12,-0.28 0.11,-0.05 0.23,0.01 0.27,0.12l-0.39 0.16zm0.53 0.27l-0.41 0.14 -0.05 -0.19 -0.07 -0.22 0.39 -0.16 0.08 0.24 0.06 0.19zm0 0c0.03,0.12 -0.03,0.25 -0.14,0.28 -0.11,0.04 -0.23,-0.02 -0.27,-0.14l0.41 -0.14zm-0.08 1.41c-0.03,-0.12 0.04,-0.24 0.15,-0.27 0.11,-0.03 0.23,0.04 0.26,0.15l-0.41 0.12zm0.5 0.33l-0.41 0.09 -0.04 -0.19 -0.05 -0.23 0.41 -0.12 0.06 0.25 0.03 0.2zm0 0c0.03,0.12 -0.05,0.23 -0.16,0.26 -0.11,0.02 -0.23,-0.05 -0.25,-0.17l0.41 -0.09zm-0.21 1.39c-0.02,-0.12 0.06,-0.24 0.17,-0.26 0.12,-0.02 0.23,0.07 0.25,0.19l-0.42 0.07zm0.47 0.38l-0.43 0.04 -0.01 -0.17 -0.03 -0.25 0.42 -0.07 0.03 0.28 0.02 0.17zm0 0c0.01,0.12 -0.08,0.23 -0.19,0.24 -0.12,0.01 -0.22,-0.08 -0.24,-0.2l0.43 -0.04zm-0.36 1.35c0,-0.12 0.09,-0.22 0.2,-0.23 0.12,0 0.22,0.09 0.23,0.21l-0.43 0.02zm0.44 0.33l-0.43 0 0 0 -0.01 -0.33 0.43 -0.02 0.01 0.35 0 0zm-0.01 0.1l-0.42 0 0 -0.1 0.43 0 -0.01 0.1zm0 0c0,0.13 -0.09,0.23 -0.21,0.23 -0.12,0 -0.21,-0.1 -0.21,-0.23l0.42 0zm-0.48 1.32c0.01,-0.13 0.11,-0.22 0.22,-0.21 0.12,0 0.21,0.11 0.2,0.23l-0.42 -0.02zm0.39 0.47l-0.43 -0.05 0.01 -0.04 0.03 -0.38 0.42 0.02 -0.03 0.4 0 0.05zm0 0c-0.02,0.12 -0.12,0.21 -0.24,0.2 -0.11,-0.02 -0.2,-0.12 -0.19,-0.25l0.43 0.05zm-0.61 1.25c0.01,-0.12 0.12,-0.2 0.24,-0.18 0.11,0.02 0.19,0.13 0.17,0.25l-0.41 -0.07zm0.33 0.52l-0.41 -0.09 0 -0.03 0.08 -0.4 0.41 0.07 -0.07 0.43 -0.01 0.02zm0 0c-0.02,0.12 -0.13,0.19 -0.25,0.17 -0.11,-0.03 -0.19,-0.15 -0.16,-0.26l0.41 0.09zm-0.73 1.18c0.03,-0.12 0.15,-0.19 0.26,-0.16 0.11,0.03 0.18,0.15 0.15,0.27l-0.41 -0.11zm0.29 0.55l-0.41 -0.14 0.01 -0.02 0.11 -0.39 0.41 0.11 -0.12 0.42 0 0.02zm0 0c-0.04,0.11 -0.16,0.17 -0.27,0.14 -0.11,-0.04 -0.17,-0.16 -0.14,-0.28l0.41 0.14zm-0.85 1.09c0.04,-0.11 0.17,-0.17 0.28,-0.13 0.11,0.05 0.16,0.17 0.12,0.29l-0.4 -0.16zm0.23 0.58l-0.39 -0.18 0.02 -0.03 0.14 -0.37 0.4 0.16 -0.15 0.39 -0.02 0.03zm0 0c-0.04,0.11 -0.17,0.16 -0.28,0.11 -0.1,-0.05 -0.15,-0.18 -0.11,-0.29l0.39 0.18zm-0.94 1c0.05,-0.11 0.18,-0.16 0.28,-0.1 0.11,0.05 0.15,0.18 0.1,0.29l-0.38 -0.19zm0.17 0.59l-0.37 -0.22 0.03 -0.04 0.17 -0.33 0.38 0.19 -0.18 0.36 -0.03 0.04zm0 0c-0.06,0.11 -0.19,0.15 -0.29,0.09 -0.1,-0.06 -0.14,-0.2 -0.08,-0.31l0.37 0.22zm-1.04 0.9c0.06,-0.1 0.19,-0.14 0.29,-0.07 0.1,0.06 0.13,0.2 0.07,0.3l-0.36 -0.23zm0.11 0.61l-0.34 -0.26 0.04 -0.06 0.19 -0.29 0.36 0.23 -0.2 0.31 -0.05 0.07zm0 0c-0.06,0.1 -0.19,0.12 -0.29,0.05 -0.1,-0.07 -0.12,-0.21 -0.05,-0.31l0.34 0.26zm-1.11 0.78c0.07,-0.09 0.2,-0.11 0.29,-0.03 0.1,0.07 0.11,0.21 0.04,0.31l-0.33 -0.28zm0.05 0.62l-0.32 -0.29 0.07 -0.07 0.2 -0.26 0.33 0.28 -0.21 0.26 -0.07 0.08zm0 0c-0.07,0.1 -0.21,0.11 -0.3,0.03 -0.08,-0.08 -0.09,-0.22 -0.02,-0.32l0.32 0.29zm-1.18 0.67c0.08,-0.09 0.21,-0.09 0.3,-0.01 0.08,0.09 0.09,0.23 0.01,0.32l-0.31 -0.31zm0 0.62l-0.3 -0.32 0.09 -0.08 0.21 -0.22 0.31 0.31 -0.22 0.23 -0.09 0.08zm0 0c-0.09,0.09 -0.22,0.08 -0.3,0 -0.09,-0.09 -0.08,-0.23 0,-0.32l0.3 0.32zm-1.25 0.55c0.09,-0.08 0.23,-0.07 0.3,0.02 0.08,0.09 0.07,0.23 -0.02,0.31l-0.28 -0.33zm-0.06 0.62l-0.26 -0.35 0.11 -0.09 0.21 -0.18 0.28 0.33 -0.23 0.2 -0.11 0.09zm0 0c-0.09,0.07 -0.22,0.06 -0.29,-0.04 -0.08,-0.09 -0.06,-0.23 0.03,-0.31l0.26 0.35zm-1.28 0.42c0.09,-0.07 0.23,-0.05 0.29,0.05 0.07,0.1 0.05,0.24 -0.04,0.31l-0.25 -0.36zm-0.12 0.61l-0.23 -0.37 0.12 -0.08 0.23 -0.16 0.25 0.36 -0.24 0.17 -0.13 0.08zm0 0c-0.1,0.06 -0.23,0.04 -0.29,-0.07 -0.06,-0.1 -0.04,-0.24 0.06,-0.3l0.23 0.37zm-1.32 0.29c0.1,-0.06 0.23,-0.02 0.29,0.08 0.06,0.11 0.03,0.24 -0.07,0.3l-0.22 -0.38zm-0.17 0.6l-0.19 -0.4 0.12 -0.06 0.24 -0.14 0.22 0.38 -0.26 0.15 -0.13 0.07zm0 0c-0.1,0.05 -0.23,0.01 -0.28,-0.1 -0.06,-0.11 -0.02,-0.24 0.09,-0.3l0.19 0.4zm-1.34 0.16c0.11,-0.05 0.24,0 0.29,0.11 0.05,0.11 0,0.24 -0.11,0.29l-0.18 -0.4zm-0.22 0.58l-0.16 -0.41 0.11 -0.05 0.27 -0.12 0.18 0.4 -0.29 0.13 -0.11 0.05zm0 0c-0.11,0.04 -0.23,-0.01 -0.27,-0.13 -0.05,-0.11 0,-0.24 0.11,-0.28l0.16 0.41zm-1.35 0.03c0.11,-0.04 0.24,0.02 0.27,0.13 0.04,0.12 -0.01,0.24 -0.13,0.28l-0.14 -0.41zm-0.27 0.55l-0.12 -0.42 0.07 -0.02 0.32 -0.11 0.14 0.41 -0.34 0.12 -0.07 0.02zm0 0c-0.11,0.04 -0.23,-0.03 -0.26,-0.15 -0.04,-0.12 0.03,-0.24 0.14,-0.27l0.12 0.42zm-1.34 -0.1c0.11,-0.03 0.23,0.04 0.25,0.16 0.03,0.12 -0.04,0.24 -0.15,0.27l-0.1 -0.43zm-0.33 0.53l-0.08 -0.44 0.01 0 0.4 -0.09 0.1 0.43 -0.42 0.09 -0.01 0.01zm0 0c-0.11,0.02 -0.22,-0.06 -0.24,-0.18 -0.03,-0.12 0.05,-0.23 0.16,-0.26l0.08 0.44zm-1.32 -0.23c0.11,-0.02 0.22,0.06 0.24,0.18 0.01,0.12 -0.07,0.23 -0.18,0.25l-0.06 -0.43zm-0.36 0.49l-0.06 -0.44 0.42 -0.05 0.06 0.43 -0.42 0.06zm0 0c-0.12,0.01 -0.23,-0.07 -0.24,-0.19 -0.02,-0.12 0.06,-0.23 0.18,-0.25l0.06 0.44zm-1.31 -0.36c0.11,0 0.21,0.09 0.22,0.21 0,0.13 -0.09,0.23 -0.2,0.23l-0.02 -0.44zm-0.41 0.46l-0.02 -0.45 0.43 -0.01 0.02 0.44 -0.43 0.02zm0 0c-0.11,0 -0.21,-0.09 -0.22,-0.21 0,-0.13 0.09,-0.23 0.2,-0.24l0.02 0.45zm-1.27 -0.47c0.12,0 0.21,0.11 0.2,0.23 0,0.12 -0.1,0.21 -0.22,0.21l0.02 -0.44zm-0.44 0.4l0.02 -0.44 0.42 0.04 -0.02 0.44 -0.42 -0.04zm0 0c-0.12,0 -0.21,-0.1 -0.2,-0.23 0,-0.12 0.1,-0.21 0.22,-0.21l-0.02 0.44zm-1.23 -0.58c0.12,0.02 0.2,0.13 0.18,0.25 -0.01,0.12 -0.12,0.21 -0.24,0.19l0.06 -0.44zm-0.47 0.36l0.06 -0.43 0.41 0.07 -0.06 0.44 -0.41 -0.08zm0 0c-0.12,-0.01 -0.2,-0.13 -0.18,-0.25 0.01,-0.12 0.12,-0.2 0.24,-0.18l-0.06 0.43zm-1.18 -0.7c0.12,0.03 0.19,0.14 0.17,0.26 -0.02,0.12 -0.14,0.2 -0.25,0.18l0.08 -0.44zm-0.5 0.32l0.1 -0.43 0.36 0.1 0.04 0.01 -0.08 0.44 -0.06 -0.02 -0.36 -0.1zm0 0c-0.11,-0.03 -0.18,-0.15 -0.16,-0.27 0.03,-0.12 0.15,-0.19 0.26,-0.16l-0.1 0.43zm-1.11 -0.81c0.12,0.03 0.18,0.16 0.15,0.27 -0.04,0.12 -0.15,0.19 -0.27,0.15l0.12 -0.42zm-0.52 0.27l0.14 -0.42 0.3 0.12 0.08 0.03 -0.12 0.42 -0.1 -0.03 -0.3 -0.12zm0 0c-0.12,-0.04 -0.17,-0.17 -0.13,-0.28 0.03,-0.12 0.16,-0.18 0.27,-0.14l-0.14 0.42zm-1.03 -0.92c0.11,0.05 0.16,0.18 0.12,0.29 -0.05,0.11 -0.17,0.17 -0.28,0.12l0.16 -0.41zm-0.55 0.22l0.17 -0.4 0.27 0.13 0.11 0.05 -0.16 0.41 -0.13 -0.06 -0.26 -0.13zm0 0c-0.11,-0.05 -0.16,-0.18 -0.11,-0.29 0.05,-0.12 0.18,-0.16 0.28,-0.11l-0.17 0.4zm-0.94 -1.01c0.1,0.05 0.14,0.19 0.09,0.29 -0.06,0.11 -0.18,0.15 -0.29,0.1l0.2 -0.39zm-0.57 0.16l0.21 -0.38 0.24 0.15 0.12 0.07 -0.2 0.39 -0.14 -0.08 -0.23 -0.15zm0 0c-0.1,-0.06 -0.14,-0.2 -0.08,-0.3 0.06,-0.11 0.19,-0.15 0.29,-0.08l-0.21 0.38zm-0.85 -1.1c0.1,0.06 0.13,0.2 0.07,0.3 -0.07,0.11 -0.2,0.14 -0.3,0.07l0.23 -0.37zm-0.58 0.1l0.25 -0.36 0.22 0.18 0.11 0.08 -0.23 0.37 -0.13 -0.09 -0.22 -0.18zm0 0c-0.09,-0.07 -0.11,-0.21 -0.05,-0.31 0.07,-0.09 0.21,-0.12 0.3,-0.05l-0.25 0.36zm-0.74 -1.18c0.1,0.08 0.11,0.22 0.04,0.31 -0.07,0.1 -0.21,0.12 -0.3,0.04l0.26 -0.35zm-0.58 0.05l0.27 -0.33 0.22 0.2 0.09 0.08 -0.26 0.35 -0.11 -0.1 -0.21 -0.2zm0 0c-0.09,-0.08 -0.1,-0.22 -0.02,-0.31 0.07,-0.09 0.21,-0.1 0.29,-0.02l-0.27 0.33zm-0.63 -1.25c0.08,0.09 0.08,0.23 0,0.32 -0.08,0.09 -0.21,0.09 -0.3,0l0.3 -0.32zm-0.59 -0.01l0.31 -0.3 0.2 0.24 0.08 0.07 -0.3 0.32 -0.09 -0.09 -0.2 -0.24zm0 0c-0.08,-0.09 -0.08,-0.23 0.01,-0.31 0.08,-0.08 0.22,-0.08 0.3,0.01l-0.31 0.3zm-0.51 -1.3c0.07,0.09 0.06,0.23 -0.02,0.31 -0.09,0.08 -0.23,0.07 -0.3,-0.02l0.32 -0.29zm-0.59 -0.07l0.34 -0.28 0.19 0.28 0.06 0.07 -0.32 0.29 -0.07 -0.09 -0.2 -0.27zm0 0c-0.07,-0.1 -0.05,-0.24 0.04,-0.31 0.09,-0.08 0.23,-0.06 0.3,0.03l-0.34 0.28zm-0.38 -1.35c0.06,0.1 0.04,0.23 -0.05,0.3 -0.1,0.07 -0.23,0.05 -0.3,-0.05l0.35 -0.25zm-0.58 -0.14l0.36 -0.23 0.19 0.32 0.03 0.05 -0.35 0.25 -0.04 -0.07 -0.19 -0.32zm0 0c-0.06,-0.1 -0.03,-0.24 0.07,-0.3 0.1,-0.07 0.23,-0.04 0.29,0.07l-0.36 0.23zm-0.25 -1.38c0.06,0.11 0.02,0.24 -0.08,0.3 -0.1,0.06 -0.23,0.02 -0.29,-0.08l0.37 -0.22zm-0.56 -0.19l0.38 -0.2 0.16 0.36 0.02 0.03 -0.37 0.22 -0.03 -0.05 -0.16 -0.36zm0 0c-0.05,-0.11 -0.01,-0.24 0.1,-0.3 0.1,-0.05 0.23,-0.01 0.28,0.1l-0.38 0.2zm-0.12 -1.4c0.05,0.11 0,0.24 -0.11,0.29 -0.1,0.05 -0.23,-0.01 -0.28,-0.12l0.39 -0.17zm-0.53 -0.25l0.39 -0.16 0.13 0.39 0.01 0.02 -0.39 0.17 -0.01 -0.03 -0.13 -0.39zm0 0c-0.05,-0.12 0.01,-0.24 0.12,-0.29 0.11,-0.04 0.23,0.02 0.27,0.13l-0.39 0.16zm0.01 -1.41c0.04,0.11 -0.02,0.24 -0.13,0.27 -0.11,0.04 -0.23,-0.02 -0.27,-0.14l0.4 -0.13zm-0.5 -0.31l0.41 -0.11 0.09 0.41 0 0.01 -0.4 0.13 -0.01 -0.03 -0.09 -0.41zm0 0c-0.03,-0.12 0.03,-0.24 0.15,-0.27 0.11,-0.03 0.23,0.04 0.26,0.16l-0.41 0.11zm0.15 -1.4c0.03,0.12 -0.05,0.24 -0.16,0.26 -0.11,0.03 -0.23,-0.05 -0.25,-0.17l0.41 -0.09zm-0.47 -0.36l0.42 -0.06 0.05 0.4 0 0.02 -0.41 0.09 -0.01 -0.04 -0.05 -0.41zm0 0c-0.02,-0.12 0.06,-0.23 0.18,-0.25 0.11,-0.02 0.22,0.07 0.24,0.19l-0.42 0.06zm0.29 -1.37c0.02,0.12 -0.07,0.23 -0.18,0.24 -0.12,0.01 -0.23,-0.07 -0.24,-0.19l0.42 -0.05zm-0.43 -0.41l0.42 -0.02 0.01 0.36 0 0.07 -0.42 0.05 0 -0.1 -0.01 -0.36zm0 0c-0.01,-0.12 0.08,-0.22 0.2,-0.23 0.11,-0.01 0.21,0.09 0.22,0.21l-0.42 0.02zm0.43 -1.33c0,0.12 -0.1,0.22 -0.22,0.22 -0.11,0 -0.21,-0.1 -0.21,-0.22l0.43 0zm-0.4 -0.46l0.42 0.03 -0.02 0.29 0 0.14 -0.43 0 0.01 -0.16 0.02 -0.3zm0 0c0,-0.12 0.1,-0.21 0.22,-0.21 0.12,0.01 0.21,0.11 0.2,0.24l-0.42 -0.03zm0.56 -1.28c-0.02,0.12 -0.12,0.21 -0.24,0.2 -0.11,-0.02 -0.2,-0.12 -0.19,-0.25l0.43 0.05zm-0.36 -0.49l0.42 0.07 -0.04 0.24 -0.02 0.18 -0.43 -0.05 0.03 -0.2 0.04 -0.24zm0 0c0.02,-0.12 0.13,-0.2 0.25,-0.19 0.11,0.02 0.19,0.14 0.17,0.26l-0.42 -0.07zm0.69 -1.22c-0.03,0.12 -0.14,0.2 -0.25,0.17 -0.12,-0.02 -0.19,-0.14 -0.17,-0.26l0.42 0.09zm-0.3 -0.53l0.4 0.12 -0.06 0.23 -0.04 0.18 -0.42 -0.09 0.05 -0.21 0.07 -0.23zm0 0c0.03,-0.11 0.14,-0.18 0.25,-0.15 0.12,0.03 0.19,0.15 0.15,0.27l-0.4 -0.12zm0.79 -1.13c-0.03,0.11 -0.15,0.18 -0.26,0.14 -0.11,-0.04 -0.18,-0.16 -0.14,-0.28l0.4 0.14zm-0.24 -0.56l0.39 0.16 -0.09 0.22 -0.06 0.18 -0.4 -0.14 0.07 -0.2 0.09 -0.22zm0 0c0.04,-0.11 0.16,-0.17 0.27,-0.13 0.11,0.05 0.16,0.17 0.12,0.29l-0.39 -0.16zm0.9 -1.04c-0.04,0.11 -0.17,0.16 -0.28,0.11 -0.1,-0.05 -0.15,-0.18 -0.11,-0.29l0.39 0.18zm-0.19 -0.59l0.38 0.2 -0.12 0.23 -0.07 0.16 -0.39 -0.18 0.08 -0.18 0.12 -0.23zm0 0c0.05,-0.11 0.18,-0.15 0.29,-0.09 0.1,0.05 0.14,0.18 0.09,0.29l-0.38 -0.2zm1 -0.94c-0.05,0.11 -0.18,0.14 -0.29,0.08 -0.1,-0.06 -0.13,-0.19 -0.08,-0.3l0.37 0.22zm-0.13 -0.6l0.36 0.24 -0.15 0.24 -0.08 0.12 -0.37 -0.22 0.09 -0.14 0.15 -0.24zm0 0c0.06,-0.1 0.19,-0.13 0.29,-0.07 0.1,0.07 0.13,0.2 0.07,0.31l-0.36 -0.24zm1.09 -0.83c-0.07,0.1 -0.2,0.12 -0.3,0.05 -0.09,-0.07 -0.12,-0.21 -0.05,-0.31l0.35 0.26zm-0.08 -0.61l0.33 0.27 -0.19 0.24 -0.06 0.1 -0.35 -0.26 0.08 -0.11 0.19 -0.24zm0 0c0.07,-0.1 0.21,-0.12 0.3,-0.04 0.09,0.07 0.11,0.21 0.03,0.31l-0.33 -0.27zm1.16 -0.72c-0.08,0.09 -0.21,0.1 -0.3,0.02 -0.09,-0.08 -0.1,-0.22 -0.02,-0.31l0.32 0.29zm-0.02 -0.62l0.31 0.31 -0.23 0.24 -0.06 0.07 -0.32 -0.29 0.07 -0.09 0.23 -0.24zm0 0c0.08,-0.09 0.22,-0.09 0.3,-0.01 0.09,0.09 0.09,0.23 0.01,0.32l-0.31 -0.31zm1.22 -0.6c-0.08,0.09 -0.22,0.08 -0.3,-0.01 -0.08,-0.08 -0.07,-0.22 0.01,-0.31l0.29 0.32zm0.04 -0.61l0.28 0.33 -0.26 0.23 -0.06 0.05 -0.29 -0.32 0.07 -0.06 0.26 -0.23zm0 0c0.09,-0.08 0.22,-0.07 0.3,0.02 0.08,0.09 0.07,0.23 -0.02,0.31l-0.28 -0.33zm1.27 -0.48c-0.09,0.08 -0.22,0.06 -0.3,-0.03 -0.07,-0.1 -0.05,-0.24 0.04,-0.31l0.26 0.34zm0.1 -0.6l0.24 0.36 -0.29 0.2 -0.05 0.04 -0.26 -0.34 0.06 -0.06 0.3 -0.2zm0 0c0.09,-0.07 0.22,-0.05 0.29,0.05 0.07,0.1 0.05,0.23 -0.05,0.31l-0.24 -0.36zm1.31 -0.35c-0.1,0.06 -0.23,0.03 -0.3,-0.07 -0.06,-0.1 -0.03,-0.24 0.06,-0.3l0.24 0.37zm0.14 -0.6l0.22 0.39 -0.31 0.17 -0.05 0.04 -0.24 -0.37 0.07 -0.05 0.31 -0.18zm0 0c0.1,-0.06 0.23,-0.02 0.29,0.08 0.06,0.11 0.03,0.24 -0.07,0.31l-0.22 -0.39zm1.34 -0.22c-0.11,0.06 -0.23,0.02 -0.29,-0.09 -0.05,-0.11 -0.01,-0.24 0.09,-0.3l0.2 0.39zm0.2 -0.57l0.18 0.4 -0.31 0.14 -0.07 0.03 -0.2 -0.39 0.09 -0.04 0.31 -0.14zm0 0c0.1,-0.05 0.23,0 0.28,0.11 0.05,0.11 0,0.24 -0.1,0.29l-0.18 -0.4zm1.35 -0.09c-0.11,0.05 -0.24,-0.01 -0.28,-0.12 -0.04,-0.11 0.01,-0.24 0.12,-0.29l0.16 0.41zm0.25 -0.55l0.14 0.41 -0.29 0.1 -0.1 0.04 -0.16 -0.41 0.12 -0.05 0.29 -0.09zm0 0c0.11,-0.04 0.23,0.02 0.27,0.13 0.04,0.12 -0.02,0.24 -0.13,0.28l-0.14 -0.41zm1.35 0.04c-0.11,0.03 -0.23,-0.03 -0.26,-0.15 -0.04,-0.12 0.03,-0.24 0.14,-0.27l0.12 0.42zm0.3 -0.53l0.1 0.43 -0.25 0.06 -0.15 0.04 -0.12 -0.42 0.17 -0.05 0.25 -0.06zm0 0c0.11,-0.03 0.23,0.04 0.26,0.16 0.02,0.12 -0.05,0.24 -0.16,0.27l-0.1 -0.43zm1.34 0.18c-0.12,0.02 -0.23,-0.06 -0.25,-0.18 -0.02,-0.12 0.05,-0.23 0.17,-0.26l0.08 0.44zm0.35 -0.5l0.06 0.43 -0.18 0.02 -0.23 0.05 -0.08 -0.44 0.25 -0.04 0.18 -0.02zm0 0c0.11,-0.02 0.22,0.06 0.24,0.18 0.01,0.12 -0.07,0.23 -0.18,0.25l-0.06 -0.43zm1.31 0.3c-0.11,0.01 -0.22,-0.08 -0.23,-0.2 -0.01,-0.12 0.08,-0.23 0.19,-0.24l0.04 0.44zm0.4 -0.47l0.02 0.44 -0.07 0 -0.35 0.03 -0.04 -0.44 0.37 -0.03 0.07 0zm0 0c0.11,0 0.21,0.09 0.22,0.21 0,0.12 -0.09,0.23 -0.2,0.23l-0.02 -0.44z"/>
  </g>
  <path class="fil3" d="M45.64 27.39c0,6.46 -5.24,11.7 -11.7,11.7 -6.46,0 -11.7,-5.24 -11.7,-11.7 0,-6.46 5.24,-11.7 11.7,-11.7 6.46,0 11.7,5.24 11.7,11.7z"/>
  <path class="fil4" d="M57.69 27.48l2.6 -6.1 -15.84 0c-2.03,-3.72 -5.97,-6.25 -10.51,-6.25 -4.54,0 -8.49,2.53 -10.51,6.25l-15.84 0 2.69 6.1 -2.69 6.11 16.3 0c2.13,3.29 5.84,5.47 10.05,5.47 4.21,0 7.92,-2.18 10.05,-5.47l16.3 0 -2.6 -6.11z"/>
  <path class="fil1" d="M9.61 32.74l-0.59 0c-0.1,0 -0.18,-0.08 -0.18,-0.18 0,-0.09 0.08,-0.17 0.18,-0.17l0.59 0c0.1,0 0.17,0.08 0.17,0.17 0,0.1 -0.07,0.18 -0.17,0.18zm1.88 0l-0.59 0c-0.09,0 -0.17,-0.08 -0.17,-0.18 0,-0.09 0.08,-0.17 0.17,-0.17l0.59 0c0.1,0 0.18,0.08 0.18,0.17 0,0.1 -0.08,0.18 -0.18,0.18zm1.89 0l-0.59 0c-0.1,0 -0.18,-0.08 -0.18,-0.18 0,-0.09 0.08,-0.17 0.18,-0.17l0.59 0c0.1,0 0.18,0.08 0.18,0.17 0,0.1 -0.08,0.18 -0.18,0.18zm1.89 0l-0.59 0c-0.1,0 -0.18,-0.08 -0.18,-0.18 0,-0.09 0.08,-0.17 0.18,-0.17l0.59 0c0.09,0 0.17,0.08 0.17,0.17 0,0.1 -0.08,0.18 -0.17,0.18zm1.88 0l-0.59 0c-0.09,0 -0.17,-0.08 -0.17,-0.18 0,-0.09 0.08,-0.17 0.17,-0.17l0.59 0c0.1,0 0.18,0.08 0.18,0.17 0,0.1 -0.08,0.18 -0.18,0.18zm1.89 0l-0.59 0c-0.1,0 -0.18,-0.08 -0.18,-0.18 0,-0.09 0.08,-0.17 0.18,-0.17l0.59 0c0.1,0 0.17,0.08 0.17,0.17 0,0.1 -0.07,0.18 -0.17,0.18zm1.88 0l-0.59 0c-0.09,0 -0.17,-0.08 -0.17,-0.18 0,-0.09 0.08,-0.17 0.17,-0.17l0.59 0c0.1,0 0.18,0.08 0.18,0.17 0,0.1 -0.08,0.18 -0.18,0.18zm1.89 0l-0.59 0c-0.1,0 -0.18,-0.08 -0.18,-0.18 0,-0.09 0.08,-0.17 0.18,-0.17l0.59 0c0.1,0 0.18,0.08 0.18,0.17 0,0.1 -0.08,0.18 -0.18,0.18zm1.89 0l-0.59 0c-0.1,0 -0.18,-0.08 -0.18,-0.18 0,-0.09 0.08,-0.17 0.18,-0.17l0.59 0c0.09,0 0.17,0.08 0.17,0.17 0,0.1 -0.08,0.18 -0.17,0.18zm19.17 0l-0.59 0c-0.1,0 -0.18,-0.08 -0.18,-0.18 0,-0.09 0.08,-0.17 0.18,-0.17l0.59 0c0.09,0 0.17,0.08 0.17,0.17 0,0.1 -0.08,0.18 -0.17,0.18zm1.88 0l-0.59 0c-0.09,0 -0.17,-0.08 -0.17,-0.18 0,-0.09 0.08,-0.17 0.17,-0.17l0.59 0c0.1,0 0.18,0.08 0.18,0.17 0,0.1 -0.08,0.18 -0.18,0.18zm1.89 0l-0.59 0c-0.1,0 -0.18,-0.08 -0.18,-0.18 0,-0.09 0.08,-0.17 0.18,-0.17l0.59 0c0.1,0 0.18,0.08 0.18,0.17 0,0.1 -0.08,0.18 -0.18,0.18zm1.89 0l-0.59 0c-0.1,0 -0.18,-0.08 -0.18,-0.18 0,-0.09 0.08,-0.17 0.18,-0.17l0.59 0c0.09,0 0.17,0.08 0.17,0.17 0,0.1 -0.08,0.18 -0.17,0.18zm1.88 0l-0.59 0c-0.1,0 -0.18,-0.08 -0.18,-0.18 0,-0.09 0.08,-0.17 0.18,-0.17l0.59 0c0.1,0 0.18,0.08 0.18,0.17 0,0.1 -0.08,0.18 -0.18,0.18zm1.89 0l-0.59 0c-0.1,0 -0.18,-0.08 -0.18,-0.18 0,-0.09 0.08,-0.17 0.18,-0.17l0.59 0c0.09,0 0.17,0.08 0.17,0.17 0,0.1 -0.08,0.18 -0.17,0.18zm1.88 0l-0.59 0c-0.09,0 -0.17,-0.08 -0.17,-0.18 0,-0.09 0.08,-0.17 0.17,-0.17l0.59 0c0.1,0 0.18,0.08 0.18,0.17 0,0.1 -0.08,0.18 -0.18,0.18zm1.89 0l-0.59 0c-0.1,0 -0.18,-0.08 -0.18,-0.18 0,-0.09 0.08,-0.17 0.18,-0.17l0.59 0c0.1,0 0.18,0.08 0.18,0.17 0,0.1 -0.08,0.18 -0.18,0.18zm1.81 0l-0.51 0c-0.1,0 -0.18,-0.08 -0.18,-0.18 0,-0.09 0.08,-0.17 0.18,-0.17l0.51 0c0.09,0 0.17,0.08 0.17,0.17 0,0.1 -0.08,0.18 -0.17,0.18zm-16.92 1.13c-0.04,0 -0.08,-0.02 -0.11,-0.04 -0.08,-0.07 -0.09,-0.18 -0.03,-0.25 0.13,-0.15 0.25,-0.3 0.37,-0.46 0.06,-0.07 0.17,-0.09 0.24,-0.03 0.08,0.06 0.1,0.17 0.04,0.25 -0.12,0.16 -0.25,0.31 -0.37,0.46 -0.04,0.05 -0.09,0.07 -0.14,0.07zm-16.05 0.23c-0.05,0 -0.1,-0.02 -0.14,-0.06 -0.13,-0.14 -0.26,-0.3 -0.38,-0.45 -0.06,-0.08 -0.05,-0.19 0.02,-0.25 0.08,-0.06 0.19,-0.05 0.25,0.03 0.12,0.15 0.25,0.3 0.38,0.44 0.06,0.07 0.06,0.18 -0.02,0.25 -0.03,0.03 -0.07,0.04 -0.11,0.04zm14.72 1.1c-0.05,0 -0.1,-0.02 -0.14,-0.06 -0.06,-0.08 -0.05,-0.19 0.02,-0.25 0.15,-0.13 0.3,-0.26 0.44,-0.39 0.07,-0.06 0.18,-0.06 0.25,0.01 0.06,0.07 0.06,0.18 -0.01,0.25 -0.15,0.14 -0.3,0.27 -0.45,0.4 -0.03,0.03 -0.07,0.04 -0.11,0.04zm-13.36 0.2c-0.03,0 -0.07,-0.01 -0.11,-0.04 -0.15,-0.12 -0.31,-0.25 -0.45,-0.39 -0.08,-0.06 -0.08,-0.17 -0.02,-0.24 0.07,-0.08 0.18,-0.08 0.25,-0.02 0.14,0.13 0.29,0.25 0.44,0.37 0.08,0.06 0.09,0.18 0.03,0.25 -0.03,0.05 -0.08,0.07 -0.14,0.07zm11.82 0.89c-0.06,0 -0.12,-0.03 -0.15,-0.09 -0.05,-0.08 -0.02,-0.19 0.06,-0.24 0.17,-0.1 0.33,-0.2 0.49,-0.31 0.08,-0.05 0.19,-0.03 0.25,0.05 0.05,0.08 0.03,0.19 -0.05,0.25 -0.17,0.11 -0.34,0.21 -0.51,0.31 -0.03,0.02 -0.06,0.03 -0.09,0.03zm-10.25 0.15c-0.03,0 -0.06,0 -0.08,-0.02 -0.18,-0.09 -0.35,-0.2 -0.52,-0.3 -0.08,-0.05 -0.11,-0.16 -0.06,-0.24 0.05,-0.09 0.16,-0.11 0.25,-0.06 0.16,0.1 0.33,0.2 0.5,0.29 0.08,0.05 0.11,0.15 0.07,0.24 -0.04,0.06 -0.1,0.09 -0.16,0.09zm8.55 0.65c-0.07,0 -0.14,-0.04 -0.17,-0.11 -0.03,-0.09 0.02,-0.2 0.11,-0.23 0.18,-0.07 0.36,-0.14 0.53,-0.21 0.09,-0.04 0.2,0 0.24,0.09 0.04,0.09 -0.01,0.19 -0.09,0.23 -0.19,0.08 -0.37,0.15 -0.56,0.22 -0.02,0.01 -0.04,0.01 -0.06,0.01zm-6.82 0.11c-0.02,0 -0.04,-0.01 -0.06,-0.01 -0.19,-0.07 -0.38,-0.14 -0.56,-0.21 -0.09,-0.03 -0.14,-0.14 -0.1,-0.23 0.04,-0.09 0.14,-0.13 0.23,-0.1 0.18,0.07 0.36,0.14 0.54,0.2 0.1,0.03 0.15,0.13 0.11,0.23 -0.02,0.07 -0.09,0.12 -0.16,0.12zm5 0.38c-0.09,0 -0.16,-0.06 -0.18,-0.15 -0.01,-0.09 0.05,-0.18 0.15,-0.2 0.19,-0.03 0.38,-0.07 0.57,-0.12 0.09,-0.02 0.19,0.04 0.21,0.14 0.02,0.09 -0.04,0.19 -0.13,0.21 -0.2,0.04 -0.4,0.08 -0.59,0.12 -0.01,0 -0.02,0 -0.03,0zm-3.17 0.05c-0.01,0 -0.02,0 -0.02,0 -0.2,-0.03 -0.4,-0.06 -0.6,-0.1 -0.09,-0.02 -0.15,-0.12 -0.13,-0.21 0.01,-0.1 0.11,-0.16 0.2,-0.14 0.19,0.04 0.38,0.07 0.57,0.1 0.1,0.01 0.17,0.1 0.15,0.2 -0.01,0.08 -0.08,0.15 -0.17,0.15zm1.43 0.1c-0.05,0 -0.09,0 -0.14,0 -0.1,0 -0.18,-0.08 -0.18,-0.18 0.01,-0.1 0.08,-0.17 0.18,-0.18 0.2,0.01 0.39,0 0.58,0 0.1,-0.01 0.18,0.07 0.19,0.16 0,0.1 -0.07,0.18 -0.17,0.19 -0.15,0.01 -0.31,0.01 -0.46,0.01z"/>
  <path class="fil1" d="M34.52 16.95c0,0 0,0 -0.01,0 -0.19,-0.02 -0.38,-0.02 -0.58,-0.03 -0.09,0 -0.17,-0.08 -0.17,-0.17 0,-0.1 0.08,-0.18 0.18,-0.18 0,0 0,0 0,0 0.2,0 0.4,0.01 0.6,0.02 0.09,0.01 0.17,0.1 0.16,0.19 -0.01,0.1 -0.08,0.17 -0.18,0.17zm-2.46 0.13c-0.09,0 -0.16,-0.06 -0.18,-0.15 -0.01,-0.1 0.05,-0.19 0.15,-0.2 0.19,-0.04 0.39,-0.07 0.59,-0.09 0.1,-0.01 0.19,0.06 0.2,0.16 0.01,0.09 -0.06,0.18 -0.16,0.19 -0.19,0.02 -0.38,0.05 -0.57,0.08 -0.01,0.01 -0.02,0.01 -0.03,0.01zm4.32 0.16c-0.01,0 -0.03,0 -0.04,0 -0.19,-0.05 -0.38,-0.09 -0.56,-0.13 -0.1,-0.02 -0.16,-0.11 -0.14,-0.21 0.01,-0.09 0.11,-0.15 0.2,-0.14 0.2,0.04 0.39,0.09 0.59,0.14 0.09,0.02 0.15,0.12 0.12,0.21 -0.02,0.08 -0.09,0.13 -0.17,0.13zm-6.14 0.33c-0.07,0 -0.14,-0.05 -0.17,-0.12 -0.03,-0.09 0.02,-0.19 0.11,-0.22 0.18,-0.07 0.38,-0.14 0.57,-0.2 0.09,-0.02 0.19,0.03 0.22,0.12 0.03,0.09 -0.03,0.19 -0.12,0.22 -0.18,0.06 -0.37,0.12 -0.55,0.19 -0.02,0 -0.04,0.01 -0.06,0.01zm7.92 0.3c-0.03,0 -0.05,-0.01 -0.07,-0.02 -0.18,-0.08 -0.36,-0.15 -0.54,-0.22 -0.09,-0.04 -0.13,-0.14 -0.1,-0.23 0.04,-0.09 0.14,-0.14 0.23,-0.1 0.19,0.07 0.37,0.15 0.55,0.23 0.09,0.04 0.13,0.15 0.09,0.23 -0.03,0.07 -0.09,0.11 -0.16,0.11zm-9.62 0.51c-0.06,0 -0.12,-0.03 -0.15,-0.09 -0.05,-0.08 -0.03,-0.19 0.06,-0.24 0.17,-0.1 0.35,-0.2 0.52,-0.29 0.09,-0.05 0.2,-0.01 0.24,0.07 0.05,0.09 0.01,0.2 -0.07,0.24 -0.18,0.09 -0.35,0.18 -0.51,0.28 -0.03,0.02 -0.06,0.03 -0.09,0.03zm11.26 0.41c-0.03,0 -0.07,-0.01 -0.1,-0.03 -0.16,-0.11 -0.32,-0.21 -0.49,-0.31 -0.08,-0.05 -0.11,-0.16 -0.06,-0.24 0.05,-0.09 0.16,-0.11 0.25,-0.06 0.17,0.1 0.33,0.21 0.5,0.32 0.08,0.06 0.1,0.17 0.05,0.25 -0.04,0.05 -0.09,0.07 -0.15,0.07zm-12.8 0.68c-0.05,0 -0.1,-0.02 -0.13,-0.06 -0.06,-0.08 -0.06,-0.19 0.02,-0.25 0.15,-0.13 0.31,-0.26 0.47,-0.38 0.07,-0.06 0.18,-0.04 0.24,0.04 0.06,0.07 0.05,0.18 -0.03,0.24 -0.15,0.12 -0.3,0.24 -0.45,0.37 -0.03,0.03 -0.08,0.04 -0.12,0.04zm14.26 0.51c-0.04,0 -0.09,-0.01 -0.12,-0.05 -0.14,-0.13 -0.29,-0.26 -0.43,-0.39 -0.07,-0.06 -0.08,-0.17 -0.02,-0.25 0.07,-0.07 0.18,-0.08 0.25,-0.02 0.15,0.13 0.3,0.27 0.44,0.41 0.07,0.07 0.07,0.18 0.01,0.25 -0.04,0.03 -0.08,0.05 -0.13,0.05zm-15.58 0.83c-0.04,0 -0.08,-0.02 -0.12,-0.04 -0.07,-0.07 -0.08,-0.18 -0.02,-0.25 0.13,-0.16 0.26,-0.31 0.4,-0.45 0.06,-0.07 0.18,-0.08 0.25,-0.01 0.07,0.06 0.07,0.18 0.01,0.25 -0.13,0.14 -0.26,0.28 -0.39,0.43 -0.03,0.05 -0.08,0.07 -0.13,0.07zm16.82 0.59c-0.05,0 -0.11,-0.02 -0.14,-0.07 -0.12,-0.16 -0.24,-0.31 -0.36,-0.46 -0.06,-0.08 -0.05,-0.19 0.03,-0.25 0.07,-0.06 0.18,-0.05 0.24,0.03 0.13,0.15 0.25,0.31 0.37,0.47 0.06,0.08 0.04,0.19 -0.04,0.25 -0.03,0.02 -0.06,0.03 -0.1,0.03zm-17.9 0.95c-0.03,0 -0.06,-0.01 -0.09,-0.02 -0.09,-0.05 -0.12,-0.16 -0.07,-0.25 0.1,-0.17 0.21,-0.34 0.32,-0.51 0.05,-0.08 0.16,-0.1 0.24,-0.05 0.08,0.06 0.11,0.17 0.05,0.25 -0.1,0.16 -0.2,0.32 -0.3,0.49 -0.03,0.06 -0.09,0.09 -0.15,0.09zm19.19 0.15l-0.58 0c-0.07,0 -0.12,-0.04 -0.15,-0.09 -0.01,0 -0.01,-0.01 -0.01,-0.02 -0.05,-0.08 -0.02,-0.19 0.07,-0.23 0.04,-0.03 0.09,-0.03 0.14,-0.02l0.53 0c0.1,0 0.17,0.08 0.17,0.18 0,0.1 -0.07,0.18 -0.17,0.18zm1.88 0l-0.59 0c-0.09,0 -0.17,-0.08 -0.17,-0.18 0,-0.1 0.08,-0.18 0.17,-0.18l0.59 0c0.1,0 0.18,0.08 0.18,0.18 0,0.1 -0.08,0.18 -0.18,0.18zm1.89 0l-0.59 0c-0.1,0 -0.18,-0.08 -0.18,-0.18 0,-0.1 0.08,-0.18 0.18,-0.18l0.59 0c0.1,0 0.18,0.08 0.18,0.18 0,0.1 -0.08,0.18 -0.18,0.18zm1.89 0l-0.59 0c-0.1,0 -0.18,-0.08 -0.18,-0.18 0,-0.1 0.08,-0.18 0.18,-0.18l0.59 0c0.09,0 0.17,0.08 0.17,0.18 0,0.1 -0.08,0.18 -0.17,0.18zm1.88 0l-0.59 0c-0.1,0 -0.17,-0.08 -0.17,-0.18 0,-0.1 0.07,-0.18 0.17,-0.18l0.59 0c0.1,0 0.18,0.08 0.18,0.18 0,0.1 -0.08,0.18 -0.18,0.18zm1.89 0l-0.59 0c-0.1,0 -0.18,-0.08 -0.18,-0.18 0,-0.1 0.08,-0.18 0.18,-0.18l0.59 0c0.09,0 0.17,0.08 0.17,0.18 0,0.1 -0.08,0.18 -0.17,0.18zm1.88 0l-0.59 0c-0.09,0 -0.17,-0.08 -0.17,-0.18 0,-0.1 0.08,-0.18 0.17,-0.18l0.59 0c0.1,0 0.18,0.08 0.18,0.18 0,0.1 -0.08,0.18 -0.18,0.18zm1.89 0l-0.59 0c-0.1,0 -0.18,-0.08 -0.18,-0.18 0,-0.1 0.08,-0.18 0.18,-0.18l0.59 0c0.1,0 0.18,0.08 0.18,0.18 0,0.1 -0.08,0.18 -0.18,0.18zm1.89 0l-0.59 0c-0.1,0 -0.18,-0.08 -0.18,-0.18 0,-0.1 0.08,-0.18 0.18,-0.18l0.59 0c0.09,0 0.17,0.08 0.17,0.18 0,0.1 -0.08,0.18 -0.17,0.18zm-48.63 0.11l-0.59 0c-0.1,0 -0.18,-0.08 -0.18,-0.18 0,-0.1 0.08,-0.18 0.18,-0.18l0.59 0c0.1,0 0.18,0.08 0.18,0.18 0,0.1 -0.08,0.18 -0.18,0.18zm1.88 0l-0.59 0c-0.09,0 -0.17,-0.08 -0.17,-0.18 0,-0.1 0.08,-0.18 0.17,-0.18l0.59 0c0.1,0 0.18,0.08 0.18,0.18 0,0.1 -0.08,0.18 -0.18,0.18zm1.89 0l-0.59 0c-0.1,0 -0.18,-0.08 -0.18,-0.18 0,-0.1 0.08,-0.18 0.18,-0.18l0.59 0c0.1,0 0.18,0.08 0.18,0.18 0,0.1 -0.08,0.18 -0.18,0.18zm1.89 0l-0.59 0c-0.1,0 -0.18,-0.08 -0.18,-0.18 0,-0.1 0.08,-0.18 0.18,-0.18l0.59 0c0.09,0 0.17,0.08 0.17,0.18 0,0.1 -0.08,0.18 -0.17,0.18zm1.88 0l-0.59 0c-0.09,0 -0.17,-0.08 -0.17,-0.18 0,-0.1 0.08,-0.18 0.17,-0.18l0.59 0c0.1,0 0.18,0.08 0.18,0.18 0,0.1 -0.08,0.18 -0.18,0.18zm1.89 0l-0.59 0c-0.1,0 -0.18,-0.08 -0.18,-0.18 0,-0.1 0.08,-0.18 0.18,-0.18l0.59 0c0.1,0 0.18,0.08 0.18,0.18 0,0.1 -0.08,0.18 -0.18,0.18zm1.88 0l-0.58 0c-0.1,0 -0.18,-0.08 -0.18,-0.18 0,-0.1 0.08,-0.18 0.18,-0.18l0.58 0c0.1,0 0.18,0.08 0.18,0.18 0,0.1 -0.08,0.18 -0.18,0.18zm1.89 0l-0.59 0c-0.1,0 -0.18,-0.08 -0.18,-0.18 0,-0.1 0.08,-0.18 0.18,-0.18l0.59 0c0.1,0 0.18,0.08 0.18,0.18 0,0.1 -0.08,0.18 -0.18,0.18z"/>
  <path class="fil1" d="M24.36 39.04l0.24 -0.28 0.72 0.64 -0.59 0.65c-0.12,0 -0.28,-0.03 -0.45,-0.09 -0.18,-0.07 -0.34,-0.16 -0.47,-0.28 -0.17,-0.15 -0.29,-0.32 -0.35,-0.51 -0.07,-0.18 -0.07,-0.37 -0.01,-0.56 0.05,-0.19 0.15,-0.37 0.29,-0.52 0.15,-0.18 0.32,-0.29 0.51,-0.36 0.19,-0.07 0.38,-0.08 0.59,-0.03 0.15,0.04 0.3,0.13 0.46,0.27 0.2,0.18 0.32,0.37 0.36,0.55 0.04,0.19 0.01,0.37 -0.09,0.55l-0.39 -0.23c0.05,-0.1 0.07,-0.2 0.04,-0.31 -0.02,-0.1 -0.08,-0.19 -0.17,-0.28 -0.15,-0.13 -0.3,-0.18 -0.47,-0.17 -0.17,0.02 -0.33,0.12 -0.49,0.3 -0.17,0.19 -0.26,0.37 -0.26,0.55 0,0.17 0.07,0.32 0.21,0.45 0.07,0.06 0.15,0.11 0.24,0.14 0.1,0.04 0.19,0.06 0.27,0.06l0.19 -0.21 -0.38 -0.33z"/>
  <path class="fil1" d="M26.31 38.89l0.37 0.24 -0.62 1c-0.1,0.16 -0.16,0.27 -0.19,0.32 -0.03,0.09 -0.03,0.17 0.01,0.26 0.03,0.08 0.1,0.16 0.2,0.22 0.11,0.07 0.2,0.1 0.28,0.09 0.08,-0.01 0.15,-0.05 0.2,-0.1 0.05,-0.06 0.12,-0.16 0.21,-0.31l0.65 -1.03 0.37 0.24 -0.61 0.97c-0.14,0.23 -0.25,0.38 -0.32,0.46 -0.08,0.08 -0.17,0.13 -0.26,0.16 -0.1,0.03 -0.2,0.04 -0.32,0.02 -0.11,-0.02 -0.24,-0.08 -0.39,-0.17 -0.18,-0.11 -0.3,-0.21 -0.36,-0.31 -0.07,-0.1 -0.11,-0.2 -0.12,-0.3 -0.01,-0.1 -0.01,-0.19 0.02,-0.27 0.04,-0.12 0.13,-0.29 0.26,-0.5l0.62 -0.99z"/>
  <path class="fil1" d="M29.23 42.81l-0.45 -0.18 0.01 -0.53 -0.81 -0.34 -0.35 0.4 -0.44 -0.18 1.63 -1.71 0.43 0.18 -0.02 2.36zm-0.43 -1.11l0.03 -0.87 -0.58 0.64 0.55 0.23z"/>
  <path class="fil1" d="M29.65 42.92l0.49 -2.13 0.91 0.2c0.22,0.05 0.39,0.11 0.48,0.17 0.1,0.07 0.16,0.15 0.2,0.27 0.04,0.11 0.05,0.23 0.02,0.35 -0.04,0.16 -0.11,0.29 -0.23,0.37 -0.12,0.08 -0.28,0.12 -0.47,0.1 0.08,0.08 0.14,0.15 0.19,0.23 0.05,0.08 0.1,0.22 0.17,0.4l0.16 0.48 -0.51 -0.12 -0.21 -0.53c-0.07,-0.19 -0.12,-0.32 -0.15,-0.37 -0.04,-0.05 -0.07,-0.09 -0.11,-0.12 -0.05,-0.02 -0.12,-0.05 -0.22,-0.07l-0.08 -0.02 -0.21 0.89 -0.43 -0.1zm0.71 -1.13l0.32 0.07c0.21,0.05 0.34,0.07 0.4,0.06 0.05,0 0.1,-0.02 0.14,-0.06 0.04,-0.04 0.06,-0.09 0.08,-0.15 0.01,-0.07 0.01,-0.13 -0.02,-0.19 -0.03,-0.05 -0.08,-0.09 -0.14,-0.12 -0.04,-0.01 -0.14,-0.04 -0.32,-0.08l-0.33 -0.07 -0.13 0.54z"/>
  <path class="fil1" d="M34.04 43.55l-0.48 -0.03 -0.16 -0.51 -0.88 -0.06 -0.21 0.49 -0.47 -0.03 1 -2.14 0.47 0.04 0.73 2.24zm-0.76 -0.92l-0.25 -0.83 -0.35 0.79 0.6 0.04z"/>
  <polygon class="fil1" points="34.49,43.54 34.25,41.36 34.68,41.32 35.73,42.67 35.57,41.22 35.98,41.17 36.22,43.35 35.78,43.4 34.74,42.08 34.9,43.5 "/>
  <polygon class="fil1" points="37.81,43.02 37.31,41.27 36.69,41.44 36.59,41.09 38.26,40.61 38.36,40.97 37.74,41.15 38.23,42.9 "/>
  <polygon class="fil1" points="39.46,42.49 38.57,40.49 40.05,39.83 40.2,40.16 39.12,40.65 39.32,41.09 40.32,40.64 40.47,40.98 39.47,41.43 39.72,41.97 40.83,41.47 40.99,41.81 "/>
  <polygon class="fil1" points="41.36,41.59 40.19,39.74 41.57,38.87 41.76,39.18 40.76,39.82 41.02,40.23 41.95,39.64 42.15,39.95 41.22,40.54 41.54,41.04 42.58,40.39 42.77,40.7 "/>
  <path class="fil1" d="M41.7 38.79l0.61 -0.54c0.13,-0.12 0.25,-0.2 0.34,-0.24 0.12,-0.06 0.25,-0.08 0.38,-0.07 0.13,0.01 0.26,0.06 0.39,0.13 0.13,0.07 0.26,0.19 0.4,0.34 0.12,0.13 0.2,0.27 0.26,0.39 0.06,0.16 0.09,0.31 0.08,0.45 -0.01,0.11 -0.05,0.22 -0.12,0.34 -0.05,0.08 -0.14,0.18 -0.26,0.29l-0.63 0.55 -1.45 -1.64zm0.58 -0.01l0.96 1.08 0.25 -0.22c0.09,-0.08 0.15,-0.14 0.18,-0.19 0.05,-0.06 0.07,-0.12 0.08,-0.19 0,-0.06 -0.01,-0.14 -0.06,-0.23 -0.04,-0.09 -0.12,-0.2 -0.23,-0.33 -0.11,-0.13 -0.21,-0.22 -0.29,-0.26 -0.08,-0.05 -0.16,-0.08 -0.24,-0.08 -0.07,0 -0.14,0.02 -0.22,0.06 -0.05,0.03 -0.15,0.1 -0.28,0.22l-0.15 0.14z"/>
  <polygon class="fil5" points="30.84,29.92 29.7,29.92 28.03,26.21 28.03,29.92 26.89,29.92 26.89,24.27 28.03,24.27 29.7,27.98 29.7,24.27 30.84,24.27 "/>
  <polygon id="1" class="fil5" points="34.67,27.48 32.89,27.48 32.89,28.97 35,28.97 35,29.92 31.75,29.92 31.75,24.27 34.99,24.27 34.99,25.22 32.89,25.22 32.89,26.56 34.67,26.56 "/>
  <polygon id="2" class="fil5" points="39.33,27.82 39.86,24.27 40.99,24.27 39.99,29.92 38.84,29.92 38.18,26.59 37.53,29.92 36.38,29.92 35.37,24.27 36.51,24.27 37.04,27.82 37.7,24.27 38.66,24.27 "/>
 </g>
</svg>
