<?xml version="1.0" encoding="UTF-8"?>
<!DOCTYPE svg PUBLIC "-//W3C//DTD SVG 1.1//EN" "http://www.w3.org/Graphics/SVG/1.1/DTD/svg11.dtd">
<!-- Creator: CorelDRAW 2019 (64-Bit) -->
<svg xmlns="http://www.w3.org/2000/svg" xml:space="preserve" width="521px" height="509px" version="1.1" style="shape-rendering:geometricPrecision; text-rendering:geometricPrecision; image-rendering:optimizeQuality; fill-rule:evenodd; clip-rule:evenodd"
viewBox="0 0 48.16 46.98"
 xmlns:xlink="http://www.w3.org/1999/xlink"
 xmlns:xodm="http://www.corel.com/coreldraw/odm/2003">
 <defs>
  <style type="text/css">
   <![CDATA[
    .fil1 {fill:#FEFEFE;fill-rule:nonzero}
    .fil5 {fill:#FEFEFE;fill-rule:nonzero}
    .fil4 {fill:#F5874F;fill-rule:nonzero}
    .fil3 {fill:#FAC02F;fill-rule:nonzero}
    .fil0 {fill:#404241;fill-rule:nonzero}
    .fil2 {fill:white;fill-rule:nonzero}
   ]]>
  </style>
 </defs>
 <g id="Layer_x0020_1">
  <metadata id="CorelCorpID_0Corel-Layer"/>
  <path class="fil0" d="M43.5 26.44c0,1.77 -1.76,3.28 -2.2,4.91 -0.45,1.69 0.3,3.88 -0.55,5.36 -0.87,1.5 -3.15,1.94 -4.37,3.15 -1.21,1.22 -1.65,3.5 -3.15,4.37 -1.48,0.85 -3.67,0.1 -5.36,0.55 -1.63,0.44 -3.14,2.2 -4.91,2.2 -1.77,0 -3.29,-1.76 -4.92,-2.2 -1.69,-0.45 -3.87,0.3 -5.35,-0.55 -1.5,-0.87 -1.94,-3.15 -3.16,-4.37 -1.21,-1.21 -3.49,-1.65 -4.36,-3.15 -0.86,-1.48 -0.1,-3.67 -0.56,-5.36 -0.43,-1.63 -2.19,-3.14 -2.19,-4.91 0,-1.77 1.76,-3.28 2.19,-4.92 0.46,-1.68 -0.3,-3.87 0.56,-5.35 0.87,-1.5 3.15,-1.94 4.36,-3.16 1.22,-1.21 1.66,-3.49 3.16,-4.36 1.48,-0.86 3.66,-0.1 5.35,-0.55 1.63,-0.44 3.15,-2.2 4.92,-2.2 1.77,0 3.28,1.76 4.91,2.2 1.69,0.45 3.88,-0.31 5.36,0.55 1.5,0.87 1.94,3.15 3.15,4.36 1.22,1.22 3.5,1.66 4.37,3.16 0.85,1.48 0.1,3.67 0.55,5.35 0.44,1.64 2.2,3.15 2.2,4.92z"/>
  <path class="fil1" d="M22.96 9.99c-9.07,0 -16.45,7.38 -16.45,16.45 0,9.07 7.38,16.45 16.45,16.45 9.07,0 16.45,-7.38 16.45,-16.45 0,-9.07 -7.38,-16.45 -16.45,-16.45zm0 33.62c-9.47,0 -17.17,-7.71 -17.17,-17.17 0,-9.47 7.7,-17.17 17.17,-17.17 9.46,0 17.16,7.7 17.16,17.17 0,9.46 -7.7,17.17 -17.16,17.17z"/>
  <g>
   <path class="fil2" d="M34.27 36.75l-3.08 -2.59 3.89 -1.51 -0.81 4.1zm-11.4 3.54l0 -0.77 0 0 0.35 0 0.36 -0.02 0.35 -0.02 0.34 -0.04 0.35 -0.04 0.34 -0.05 0.35 -0.06 0.34 -0.07 0.33 -0.08 0.34 -0.09 0.33 -0.1 0.33 -0.11 0.33 -0.11 0.32 -0.13 0.32 -0.13 0.31 -0.14 0.31 -0.15 0.31 -0.16 0.3 -0.17 0.3 -0.17 0.29 -0.19 0.29 -0.19 0.28 -0.2 0.28 -0.2 0.27 -0.22 0.27 -0.22 0.26 -0.23 0.26 -0.24 0.25 -0.24 0.24 -0.26 0.24 -0.26 0.23 -0.26 0.59 0.49 -0.25 0.28 -0.25 0.28 -0.25 0.27 -0.27 0.26 -0.27 0.25 -0.28 0.24 -0.28 0.24 -0.29 0.23 -0.3 0.22 -0.3 0.21 -0.3 0.2 -0.31 0.19 -0.32 0.19 -0.32 0.18 -0.32 0.16 -0.33 0.16 -0.34 0.15 -0.34 0.15 -0.34 0.13 -0.34 0.12 -0.35 0.11 -0.35 0.11 -0.36 0.09 -0.36 0.09 -0.36 0.07 -0.36 0.07 -0.36 0.05 -0.37 0.05 -0.37 0.03 -0.37 0.03 -0.37 0.02 -0.38 0 0 0zm-10.36 -4.83l0.59 -0.49 0.23 0.26 0.24 0.26 0.24 0.26 0.25 0.24 0.26 0.24 0.26 0.23 0.27 0.22 0.27 0.22 0.28 0.2 0.28 0.2 0.29 0.19 0.3 0.19 0.29 0.17 0.31 0.17 0.3 0.16 0.31 0.15 0.32 0.14 0.32 0.13 0.32 0.13 0.32 0.11 0.33 0.11 0.33 0.1 0.34 0.09 0.34 0.08 0.34 0.07 0.34 0.06 0.34 0.05 0.35 0.04 0.35 0.04 0.35 0.02 0.35 0.02 0.35 0 0 0.77 -0.37 0 -0.38 -0.02 -0.37 -0.03 -0.37 -0.03 -0.36 -0.05 -0.37 -0.05 -0.36 -0.07 -0.36 -0.07 -0.36 -0.09 -0.35 -0.09 -0.36 -0.11 -0.34 -0.11 -0.35 -0.12 -0.34 -0.13 -0.34 -0.15 -0.33 -0.15 -0.33 -0.16 -0.33 -0.16 -0.32 -0.18 -0.31 -0.19 -0.31 -0.19 -0.31 -0.2 -0.3 -0.21 -0.3 -0.22 -0.29 -0.23 -0.28 -0.24 -0.28 -0.24 -0.27 -0.25 -0.26 -0.26 -0.26 -0.27 -0.25 -0.28 -0.25 -0.28z"/>
  </g>
  <g>
   <path class="fil2" d="M22.87 10.84c-0.1,0 -0.18,-0.09 -0.18,-0.19 0,-0.11 0.08,-0.2 0.18,-0.2l0 0.39zm0.37 -0.38l0 0.39 -0.37 -0.01 0 -0.39 0.37 0.01zm0 0c0.1,0 0.19,0.09 0.19,0.2 0,0.1 -0.09,0.19 -0.19,0.19l0 -0.39zm1.1 0.45c-0.1,-0.01 -0.18,-0.1 -0.18,-0.2 0.01,-0.11 0.09,-0.19 0.2,-0.18l-0.02 0.38zm0.39 -0.34l-0.03 0.38 -0.26 -0.03 -0.1 -0.01 0.02 -0.38 0.12 0 0.25 0.04zm0 0c0.1,0.01 0.18,0.1 0.17,0.21 -0.01,0.1 -0.1,0.18 -0.2,0.17l0.03 -0.38zm1.05 0.55c-0.1,-0.02 -0.17,-0.12 -0.15,-0.22 0.01,-0.11 0.11,-0.18 0.21,-0.16l-0.06 0.38zm0.43 -0.31l-0.07 0.38 -0.17 -0.04 -0.19 -0.03 0.06 -0.38 0.2 0.03 0.17 0.04zm0 0c0.1,0.02 0.16,0.12 0.14,0.23 -0.02,0.1 -0.11,0.17 -0.21,0.15l0.07 -0.38zm1 0.65c-0.1,-0.02 -0.16,-0.13 -0.14,-0.23 0.02,-0.1 0.12,-0.17 0.22,-0.14l-0.08 0.37zm0.45 -0.26l-0.11 0.37 -0.11 -0.04 -0.23 -0.07 0.08 -0.37 0.25 0.07 0.12 0.04zm0 0c0.09,0.03 0.15,0.14 0.12,0.24 -0.03,0.1 -0.13,0.16 -0.23,0.13l0.11 -0.37zm0.93 0.74c-0.1,-0.03 -0.15,-0.14 -0.11,-0.24 0.03,-0.1 0.14,-0.16 0.23,-0.12l-0.12 0.36zm0.47 -0.22l-0.13 0.36 -0.08 -0.03 -0.26 -0.11 0.12 -0.36 0.28 0.11 0.07 0.03zm0 0c0.1,0.04 0.14,0.16 0.11,0.25 -0.04,0.1 -0.15,0.15 -0.24,0.11l0.13 -0.36zm0.87 0.84c-0.1,-0.05 -0.14,-0.16 -0.09,-0.26 0.04,-0.1 0.15,-0.14 0.24,-0.09l-0.15 0.35zm0.49 -0.18l-0.17 0.34 -0.06 -0.03 -0.26 -0.13 0.15 -0.35 0.28 0.14 0.06 0.03zm0 0c0.09,0.05 0.12,0.17 0.08,0.26 -0.05,0.1 -0.16,0.13 -0.25,0.08l0.17 -0.34zm0.78 0.92c-0.09,-0.06 -0.12,-0.18 -0.07,-0.27 0.05,-0.09 0.17,-0.12 0.26,-0.07l-0.19 0.34zm0.51 -0.13l-0.2 0.32 -0.05 -0.03 -0.26 -0.16 0.19 -0.34 0.27 0.18 0.05 0.03zm0 0c0.08,0.06 0.11,0.18 0.05,0.27 -0.05,0.09 -0.17,0.11 -0.25,0.05l0.2 -0.32zm0.69 0.99c-0.08,-0.06 -0.1,-0.18 -0.04,-0.27 0.06,-0.09 0.17,-0.11 0.26,-0.04l-0.22 0.31zm0.52 -0.08l-0.23 0.31 -0.05 -0.04 -0.24 -0.19 0.22 -0.31 0.25 0.19 0.05 0.04zm0 0c0.08,0.07 0.09,0.19 0.03,0.27 -0.07,0.09 -0.18,0.1 -0.26,0.04l0.23 -0.31zm0.6 1.06c-0.08,-0.07 -0.08,-0.2 -0.02,-0.28 0.07,-0.08 0.19,-0.08 0.26,-0.01l-0.24 0.29zm0.52 -0.03l-0.26 0.28 -0.05 -0.05 -0.21 -0.2 0.24 -0.29 0.23 0.21 0.05 0.05zm0 0c0.07,0.08 0.08,0.2 0,0.28 -0.07,0.07 -0.18,0.07 -0.26,0l0.26 -0.28zm0.5 1.11c-0.07,-0.08 -0.06,-0.2 0.01,-0.27 0.07,-0.08 0.19,-0.07 0.26,0l-0.27 0.27zm0.52 0.03l-0.28 0.25 -0.06 -0.07 -0.18 -0.21 0.27 -0.27 0.19 0.23 0.06 0.07zm0 0c0.07,0.08 0.06,0.2 -0.02,0.27 -0.08,0.07 -0.19,0.06 -0.26,-0.02l0.28 -0.25zm0.4 1.15c-0.06,-0.08 -0.05,-0.2 0.03,-0.27 0.08,-0.06 0.2,-0.05 0.26,0.04l-0.29 0.23zm0.51 0.09l-0.3 0.22 -0.07 -0.1 -0.14 -0.21 0.29 -0.23 0.16 0.22 0.06 0.1zm0 0c0.06,0.08 0.04,0.2 -0.04,0.26 -0.09,0.07 -0.2,0.04 -0.26,-0.04l0.3 -0.22zm0.29 1.18c-0.06,-0.09 -0.03,-0.21 0.06,-0.26 0.08,-0.06 0.2,-0.03 0.25,0.06l-0.31 0.2zm0.5 0.14l-0.32 0.19 -0.07 -0.13 -0.11 -0.2 0.31 -0.2 0.12 0.21 0.07 0.13zm0 0c0.05,0.09 0.02,0.21 -0.07,0.26 -0.09,0.05 -0.2,0.02 -0.25,-0.07l0.32 -0.19zm0.17 1.21c-0.04,-0.09 -0.01,-0.21 0.08,-0.26 0.1,-0.04 0.21,-0.01 0.25,0.09l-0.33 0.17zm0.49 0.19l-0.34 0.15 -0.06 -0.15 -0.09 -0.19 0.33 -0.17 0.1 0.21 0.06 0.15zm0 0c0.04,0.1 0,0.21 -0.1,0.25 -0.09,0.04 -0.2,0 -0.24,-0.1l0.34 -0.15zm0.05 1.22c-0.04,-0.1 0.01,-0.21 0.11,-0.25 0.09,-0.03 0.2,0.02 0.24,0.12l-0.35 0.13zm0.46 0.24l-0.35 0.12 -0.05 -0.17 -0.06 -0.19 0.35 -0.13 0.07 0.2 0.04 0.17zm0 0c0.03,0.1 -0.02,0.21 -0.12,0.24 -0.09,0.04 -0.2,-0.02 -0.23,-0.12l0.35 -0.12zm-0.06 1.22c-0.03,-0.1 0.03,-0.2 0.13,-0.23 0.1,-0.03 0.2,0.03 0.22,0.13l-0.35 0.1zm0.43 0.29l-0.36 0.08 -0.03 -0.17 -0.04 -0.2 0.35 -0.1 0.05 0.22 0.03 0.17zm0 0c0.03,0.1 -0.04,0.21 -0.14,0.23 -0.1,0.02 -0.2,-0.05 -0.22,-0.15l0.36 -0.08zm-0.18 1.21c-0.02,-0.1 0.05,-0.2 0.15,-0.22 0.1,-0.02 0.2,0.05 0.21,0.16l-0.36 0.06zm0.4 0.33l-0.36 0.04 -0.01 -0.14 -0.03 -0.23 0.36 -0.06 0.03 0.25 0.01 0.14zm0 0c0.01,0.11 -0.06,0.2 -0.16,0.21 -0.1,0.01 -0.19,-0.06 -0.2,-0.17l0.36 -0.04zm-0.3 1.18c-0.01,-0.1 0.07,-0.19 0.17,-0.2 0.1,0 0.19,0.08 0.2,0.18l-0.37 0.02zm0.37 0.28l-0.37 0 0 0 0 -0.28 0.37 -0.02 0 0.3 0 0zm0 0.1l-0.37 0 0 -0.1 0.37 0 0 0.1zm0 0c0,0.11 -0.08,0.19 -0.18,0.19 -0.11,0 -0.19,-0.08 -0.19,-0.19l0.37 0zm-0.42 1.14c0.01,-0.1 0.09,-0.19 0.19,-0.18 0.11,0.01 0.18,0.1 0.18,0.2l-0.37 -0.02zm0.34 0.42l-0.37 -0.04 0.01 -0.05 0.02 -0.33 0.37 0.02 -0.03 0.35 0 0.05zm0 0c-0.01,0.1 -0.1,0.18 -0.21,0.17 -0.1,-0.01 -0.17,-0.11 -0.16,-0.21l0.37 0.04zm-0.53 1.09c0.01,-0.11 0.11,-0.18 0.21,-0.16 0.1,0.01 0.17,0.11 0.15,0.22l-0.36 -0.06zm0.29 0.44l-0.36 -0.08 0 -0.01 0.07 -0.35 0.36 0.06 -0.07 0.37 0 0.01zm0 0c-0.02,0.11 -0.12,0.17 -0.22,0.15 -0.1,-0.02 -0.16,-0.12 -0.14,-0.23l0.36 0.08zm-0.64 1.03c0.03,-0.1 0.13,-0.16 0.23,-0.13 0.1,0.02 0.16,0.13 0.13,0.23l-0.36 -0.1zm0.25 0.48l-0.35 -0.12 0 -0.01 0.1 -0.35 0.36 0.1 -0.1 0.36 -0.01 0.02zm0 0c-0.03,0.1 -0.13,0.16 -0.23,0.12 -0.1,-0.03 -0.15,-0.14 -0.12,-0.24l0.35 0.12zm-0.73 0.95c0.03,-0.1 0.14,-0.15 0.23,-0.11 0.1,0.04 0.15,0.15 0.11,0.25l-0.34 -0.14zm0.2 0.5l-0.34 -0.15 0.01 -0.03 0.13 -0.32 0.34 0.14 -0.13 0.34 -0.01 0.02zm0 0c-0.05,0.1 -0.15,0.15 -0.25,0.1 -0.09,-0.04 -0.13,-0.15 -0.09,-0.25l0.34 0.15zm-0.83 0.88c0.05,-0.1 0.16,-0.14 0.25,-0.09 0.09,0.05 0.13,0.16 0.08,0.26l-0.33 -0.17zm0.15 0.52l-0.32 -0.19 0.02 -0.04 0.15 -0.29 0.33 0.17 -0.16 0.3 -0.02 0.05zm0 0c-0.05,0.09 -0.16,0.12 -0.25,0.07 -0.09,-0.05 -0.12,-0.17 -0.07,-0.26l0.32 0.19zm-0.9 0.78c0.05,-0.09 0.17,-0.12 0.25,-0.06 0.09,0.05 0.11,0.17 0.06,0.26l-0.31 -0.2zm0.1 0.53l-0.31 -0.22 0.04 -0.06 0.17 -0.25 0.31 0.2 -0.17 0.27 -0.04 0.06zm0 0c-0.06,0.09 -0.18,0.11 -0.26,0.04 -0.08,-0.06 -0.1,-0.18 -0.05,-0.26l0.31 0.22zm-0.98 0.68c0.07,-0.08 0.18,-0.1 0.26,-0.03 0.08,0.06 0.1,0.19 0.03,0.27l-0.29 -0.24zm0.05 0.54l-0.28 -0.25 0.06 -0.07 0.17 -0.22 0.29 0.24 -0.18 0.23 -0.06 0.07zm0 0c-0.06,0.08 -0.18,0.09 -0.26,0.02 -0.08,-0.07 -0.09,-0.19 -0.02,-0.27l0.28 0.25zm-1.03 0.58c0.07,-0.07 0.19,-0.08 0.26,0 0.07,0.07 0.08,0.19 0.01,0.27l-0.27 -0.27zm0 0.55l-0.26 -0.28 0.08 -0.08 0.18 -0.19 0.27 0.27 -0.19 0.2 -0.08 0.08zm0 0c-0.08,0.07 -0.19,0.07 -0.26,-0.01 -0.07,-0.08 -0.07,-0.2 0,-0.27l0.26 0.28zm-1.09 0.47c0.08,-0.07 0.2,-0.06 0.27,0.02 0.06,0.08 0.05,0.2 -0.02,0.27l-0.25 -0.29zm-0.05 0.54l-0.23 -0.3 0.1 -0.08 0.18 -0.16 0.25 0.29 -0.2 0.17 -0.1 0.08zm0 0c-0.08,0.07 -0.19,0.05 -0.26,-0.03 -0.06,-0.08 -0.05,-0.21 0.03,-0.27l0.23 0.3zm-1.12 0.37c0.09,-0.06 0.2,-0.04 0.26,0.04 0.06,0.09 0.04,0.21 -0.04,0.27l-0.22 -0.31zm-0.1 0.53l-0.2 -0.32 0.11 -0.07 0.19 -0.14 0.22 0.31 -0.21 0.15 -0.11 0.07zm0 0c-0.08,0.06 -0.2,0.03 -0.25,-0.06 -0.06,-0.09 -0.03,-0.21 0.05,-0.26l0.2 0.32zm-1.15 0.25c0.09,-0.05 0.2,-0.02 0.26,0.07 0.05,0.1 0.02,0.21 -0.07,0.27l-0.19 -0.34zm-0.14 0.52l-0.18 -0.34 0.11 -0.05 0.21 -0.13 0.19 0.34 -0.23 0.13 -0.1 0.05zm0 0c-0.09,0.05 -0.21,0.01 -0.25,-0.08 -0.05,-0.09 -0.02,-0.21 0.07,-0.26l0.18 0.34zm-1.17 0.14c0.09,-0.04 0.2,0 0.24,0.1 0.05,0.09 0.01,0.21 -0.09,0.25l-0.15 -0.35zm-0.2 0.51l-0.13 -0.36 0.09 -0.04 0.24 -0.11 0.15 0.35 -0.25 0.12 -0.1 0.04zm0 0c-0.09,0.04 -0.2,-0.01 -0.24,-0.11 -0.03,-0.1 0.01,-0.21 0.11,-0.25l0.13 0.36zm-1.17 0.02c0.1,-0.03 0.2,0.02 0.24,0.12 0.03,0.1 -0.02,0.21 -0.12,0.25l-0.12 -0.37zm-0.24 0.49l-0.1 -0.37 0.06 -0.02 0.28 -0.1 0.12 0.37 -0.3 0.1 -0.06 0.02zm0 0c-0.1,0.03 -0.2,-0.03 -0.23,-0.13 -0.03,-0.11 0.03,-0.21 0.13,-0.24l0.1 0.37zm-1.17 -0.09c0.1,-0.03 0.2,0.04 0.22,0.14 0.03,0.1 -0.03,0.21 -0.13,0.23l-0.09 -0.37zm-0.28 0.46l-0.07 -0.38 0.01 0 0.34 -0.08 0.09 0.37 -0.36 0.08 -0.01 0.01zm0 0c-0.1,0.02 -0.2,-0.05 -0.22,-0.16 -0.02,-0.1 0.05,-0.2 0.15,-0.22l0.07 0.38zm-1.16 -0.2c0.1,-0.02 0.2,0.05 0.21,0.16 0.02,0.1 -0.05,0.2 -0.15,0.22l-0.06 -0.38zm-0.31 0.42l-0.05 -0.38 0.36 -0.04 0.06 0.38 -0.37 0.04zm0 0c-0.1,0.02 -0.19,-0.05 -0.21,-0.16 -0.01,-0.11 0.06,-0.2 0.16,-0.22l0.05 0.38zm-1.14 -0.3c0.1,-0.01 0.19,0.07 0.19,0.18 0.01,0.1 -0.07,0.19 -0.17,0.2l-0.02 -0.38zm-0.35 0.39l-0.02 -0.39 0.37 0 0.02 0.38 -0.37 0.01zm0 0c-0.1,0 -0.19,-0.08 -0.2,-0.18 0,-0.11 0.08,-0.2 0.18,-0.21l0.02 0.39zm-1.11 -0.41c0.1,0.01 0.18,0.1 0.17,0.2 0,0.11 -0.09,0.19 -0.19,0.18l0.02 -0.38zm-0.39 0.36l0.02 -0.39 0.37 0.03 -0.02 0.38 -0.37 -0.02zm0 0c-0.1,-0.01 -0.18,-0.1 -0.17,-0.2 0,-0.11 0.09,-0.19 0.19,-0.19l-0.02 0.39zm-1.06 -0.51c0.1,0.01 0.17,0.11 0.15,0.22 -0.01,0.1 -0.11,0.17 -0.21,0.16l0.06 -0.38zm-0.42 0.31l0.05 -0.38 0.37 0.07 -0.06 0.38 -0.36 -0.07zm0 0c-0.1,-0.01 -0.17,-0.11 -0.16,-0.21 0.02,-0.11 0.11,-0.18 0.21,-0.17l-0.05 0.38zm-1.02 -0.61c0.1,0.02 0.16,0.13 0.14,0.23 -0.02,0.1 -0.11,0.17 -0.21,0.15l0.07 -0.38zm-0.44 0.28l0.09 -0.37 0.31 0.09 0.04 0 -0.07 0.38 -0.06 -0.01 -0.31 -0.09zm0 0c-0.1,-0.03 -0.16,-0.13 -0.14,-0.23 0.03,-0.11 0.13,-0.17 0.23,-0.14l-0.09 0.37zm-0.96 -0.71c0.09,0.03 0.15,0.14 0.12,0.24 -0.03,0.1 -0.13,0.16 -0.23,0.13l0.11 -0.37zm-0.46 0.24l0.12 -0.37 0.26 0.11 0.08 0.02 -0.11 0.37 -0.09 -0.03 -0.26 -0.1zm0 0c-0.1,-0.04 -0.15,-0.15 -0.12,-0.25 0.04,-0.1 0.14,-0.15 0.24,-0.12l-0.12 0.37zm-0.9 -0.8c0.1,0.04 0.14,0.15 0.1,0.25 -0.04,0.1 -0.14,0.15 -0.24,0.11l0.14 -0.36zm-0.48 0.19l0.16 -0.35 0.22 0.11 0.1 0.05 -0.14 0.36 -0.11 -0.06 -0.23 -0.11zm0 0c-0.09,-0.05 -0.13,-0.16 -0.09,-0.26 0.04,-0.09 0.15,-0.14 0.25,-0.09l-0.16 0.35zm-0.82 -0.88c0.09,0.05 0.13,0.16 0.08,0.26 -0.05,0.09 -0.16,0.13 -0.25,0.08l0.17 -0.34zm-0.49 0.14l0.18 -0.34 0.21 0.14 0.1 0.06 -0.17 0.34 -0.12 -0.07 -0.2 -0.13zm0 0c-0.09,-0.06 -0.12,-0.17 -0.07,-0.27 0.05,-0.09 0.16,-0.12 0.25,-0.07l-0.18 0.34zm-0.74 -0.96c0.09,0.06 0.11,0.18 0.06,0.26 -0.06,0.09 -0.17,0.12 -0.26,0.06l0.2 -0.32zm-0.51 0.09l0.22 -0.31 0.19 0.15 0.1 0.07 -0.2 0.32 -0.11 -0.08 -0.2 -0.15zm0 0c-0.08,-0.06 -0.1,-0.18 -0.04,-0.27 0.06,-0.08 0.18,-0.1 0.26,-0.04l-0.22 0.31zm-0.64 -1.03c0.08,0.07 0.09,0.19 0.03,0.27 -0.06,0.09 -0.18,0.1 -0.26,0.04l0.23 -0.31zm-0.51 0.04l0.24 -0.29 0.19 0.18 0.08 0.07 -0.23 0.31 -0.1 -0.09 -0.18 -0.18zm0 0c-0.08,-0.07 -0.09,-0.19 -0.02,-0.27 0.07,-0.08 0.18,-0.09 0.26,-0.02l-0.24 0.29zm-0.55 -1.08c0.07,0.07 0.08,0.19 0.01,0.27 -0.07,0.08 -0.19,0.08 -0.27,0.01l0.26 -0.28zm-0.51 -0.01l0.27 -0.27 0.17 0.21 0.07 0.07 -0.26 0.28 -0.07 -0.09 -0.18 -0.2zm0 0c-0.07,-0.08 -0.07,-0.2 0,-0.27 0.08,-0.08 0.2,-0.07 0.27,0l-0.27 0.27zm-0.45 -1.14c0.07,0.08 0.06,0.2 -0.02,0.27 -0.07,0.07 -0.19,0.06 -0.26,-0.02l0.28 -0.25zm-0.51 -0.06l0.3 -0.24 0.17 0.24 0.04 0.06 -0.28 0.25 -0.06 -0.07 -0.17 -0.24zm0 0c-0.06,-0.09 -0.04,-0.21 0.04,-0.27 0.08,-0.07 0.19,-0.05 0.26,0.03l-0.3 0.24zm-0.33 -1.18c0.06,0.09 0.04,0.21 -0.05,0.27 -0.08,0.06 -0.2,0.04 -0.25,-0.05l0.3 -0.22zm-0.5 -0.11l0.31 -0.21 0.16 0.28 0.03 0.04 -0.3 0.22 -0.04 -0.06 -0.16 -0.27zm0 0c-0.06,-0.09 -0.03,-0.21 0.06,-0.27 0.08,-0.05 0.2,-0.03 0.25,0.06l-0.31 0.21zm-0.22 -1.21c0.05,0.09 0.01,0.21 -0.07,0.26 -0.09,0.06 -0.21,0.02 -0.26,-0.07l0.33 -0.19zm-0.49 -0.16l0.33 -0.18 0.14 0.31 0.02 0.03 -0.33 0.19 -0.02 -0.04 -0.14 -0.31zm0 0c-0.05,-0.1 -0.01,-0.22 0.08,-0.26 0.09,-0.05 0.2,-0.01 0.25,0.08l-0.33 0.18zm-0.1 -1.23c0.04,0.1 -0.01,0.21 -0.1,0.26 -0.09,0.04 -0.2,-0.01 -0.24,-0.1l0.34 -0.16zm-0.47 -0.21l0.34 -0.14 0.12 0.34 0.01 0.01 -0.34 0.16 -0.02 -0.04 -0.11 -0.33zm0 0c-0.04,-0.1 0.01,-0.21 0.11,-0.25 0.09,-0.04 0.2,0.01 0.23,0.11l-0.34 0.14zm0.01 -1.23c0.04,0.1 -0.02,0.21 -0.11,0.24 -0.1,0.03 -0.21,-0.02 -0.24,-0.12l0.35 -0.12zm-0.44 -0.27l0.36 -0.1 0.08 0.36 0 0.01 -0.35 0.12 -0.01 -0.03 -0.08 -0.36zm0 0c-0.02,-0.1 0.03,-0.21 0.13,-0.23 0.1,-0.03 0.2,0.03 0.23,0.13l-0.36 0.1zm0.14 -1.22c0.02,0.11 -0.04,0.21 -0.14,0.23 -0.1,0.02 -0.2,-0.04 -0.22,-0.15l0.36 -0.08zm-0.41 -0.31l0.36 -0.06 0.05 0.35 0 0.02 -0.36 0.08 -0.01 -0.04 -0.04 -0.35zm0 0c-0.02,-0.1 0.05,-0.2 0.15,-0.22 0.1,-0.02 0.19,0.06 0.21,0.16l-0.36 0.06zm0.25 -1.2c0.01,0.11 -0.06,0.2 -0.16,0.21 -0.1,0.01 -0.19,-0.06 -0.2,-0.17l0.36 -0.04zm-0.38 -0.35l0.37 -0.02 0.01 0.31 0 0.06 -0.36 0.04 -0.01 -0.08 -0.01 -0.31zm0 0c0,-0.11 0.07,-0.2 0.18,-0.2 0.1,-0.01 0.19,0.07 0.19,0.18l-0.37 0.02zm0.38 -1.17c0,0.11 -0.09,0.2 -0.19,0.2 -0.1,0 -0.18,-0.09 -0.18,-0.2l0.37 0zm-0.35 -0.39l0.37 0.02 -0.02 0.25 0 0.12 -0.37 0 0 -0.14 0.02 -0.25zm0 0c0,-0.11 0.09,-0.19 0.19,-0.18 0.1,0 0.18,0.09 0.18,0.2l-0.37 -0.02zm0.49 -1.12c-0.02,0.11 -0.11,0.18 -0.21,0.17 -0.1,-0.01 -0.17,-0.1 -0.16,-0.21l0.37 0.04zm-0.31 -0.43l0.36 0.06 -0.03 0.22 -0.02 0.15 -0.37 -0.04 0.02 -0.17 0.04 -0.22zm0 0c0.01,-0.1 0.11,-0.17 0.21,-0.16 0.1,0.02 0.17,0.12 0.15,0.22l-0.36 -0.06zm0.59 -1.06c-0.02,0.11 -0.12,0.17 -0.22,0.15 -0.1,-0.02 -0.16,-0.12 -0.14,-0.23l0.36 0.08zm-0.26 -0.46l0.36 0.1 -0.06 0.2 -0.04 0.16 -0.36 -0.08 0.04 -0.18 0.06 -0.2zm0 0c0.03,-0.1 0.13,-0.16 0.23,-0.13 0.1,0.02 0.15,0.13 0.13,0.23l-0.36 -0.1zm0.7 -0.99c-0.03,0.11 -0.14,0.16 -0.24,0.13 -0.09,-0.03 -0.15,-0.14 -0.11,-0.24l0.35 0.11zm-0.22 -0.48l0.35 0.13 -0.08 0.2 -0.05 0.15 -0.35 -0.11 0.05 -0.18 0.08 -0.19zm0 0c0.04,-0.1 0.14,-0.15 0.24,-0.11 0.09,0.03 0.14,0.15 0.11,0.24l-0.35 -0.13zm0.79 -0.91c-0.04,0.09 -0.15,0.14 -0.24,0.1 -0.1,-0.05 -0.14,-0.16 -0.1,-0.26l0.34 0.16zm-0.17 -0.51l0.33 0.17 -0.1 0.2 -0.06 0.14 -0.34 -0.16 0.07 -0.15 0.1 -0.2zm0 0c0.05,-0.09 0.16,-0.13 0.25,-0.08 0.09,0.04 0.13,0.16 0.08,0.25l-0.33 -0.17zm0.88 -0.82c-0.05,0.09 -0.17,0.12 -0.25,0.07 -0.09,-0.05 -0.12,-0.17 -0.07,-0.26l0.32 0.19zm-0.12 -0.52l0.31 0.2 -0.13 0.21 -0.06 0.11 -0.32 -0.19 0.07 -0.13 0.13 -0.2zm0 0c0.05,-0.09 0.17,-0.12 0.25,-0.06 0.09,0.05 0.12,0.17 0.06,0.26l-0.31 -0.2zm0.95 -0.73c-0.06,0.09 -0.18,0.11 -0.26,0.05 -0.08,-0.07 -0.1,-0.19 -0.04,-0.27l0.3 0.22zm-0.07 -0.53l0.29 0.24 -0.16 0.21 -0.06 0.08 -0.3 -0.22 0.06 -0.1 0.17 -0.21zm0 0c0.06,-0.09 0.18,-0.1 0.26,-0.03 0.08,0.06 0.09,0.18 0.03,0.27l-0.29 -0.24zm1.01 -0.63c-0.06,0.08 -0.18,0.09 -0.26,0.02 -0.08,-0.07 -0.09,-0.19 -0.02,-0.27l0.28 0.25zm-0.02 -0.53l0.27 0.26 -0.2 0.21 -0.05 0.06 -0.28 -0.25 0.07 -0.08 0.19 -0.2zm0 0c0.07,-0.08 0.19,-0.08 0.27,-0.01 0.07,0.07 0.07,0.19 0,0.27l-0.27 -0.26zm1.07 -0.53c-0.07,0.08 -0.19,0.07 -0.26,0 -0.07,-0.08 -0.07,-0.2 0,-0.28l0.26 0.28zm0.03 -0.53l0.24 0.29 -0.22 0.2 -0.05 0.04 -0.26 -0.28 0.06 -0.05 0.23 -0.2zm0 0c0.08,-0.07 0.2,-0.06 0.26,0.02 0.07,0.08 0.06,0.2 -0.02,0.27l-0.24 -0.29zm1.11 -0.42c-0.08,0.07 -0.2,0.05 -0.26,-0.03 -0.06,-0.08 -0.05,-0.2 0.03,-0.27l0.23 0.3zm0.08 -0.52l0.22 0.31 -0.26 0.18 -0.04 0.03 -0.23 -0.3 0.06 -0.04 0.25 -0.18zm0 0c0.08,-0.07 0.2,-0.05 0.26,0.04 0.06,0.09 0.04,0.21 -0.04,0.27l-0.22 -0.31zm1.14 -0.31c-0.08,0.06 -0.2,0.03 -0.25,-0.06 -0.06,-0.08 -0.03,-0.2 0.05,-0.26l0.2 0.32zm0.13 -0.52l0.19 0.34 -0.27 0.15 -0.05 0.03 -0.2 -0.32 0.06 -0.04 0.27 -0.16zm0 0c0.09,-0.05 0.2,-0.02 0.25,0.07 0.05,0.1 0.02,0.21 -0.06,0.27l-0.19 -0.34zm1.16 -0.19c-0.09,0.05 -0.2,0.02 -0.25,-0.08 -0.04,-0.09 -0.01,-0.21 0.08,-0.26l0.17 0.34zm0.18 -0.5l0.15 0.35 -0.27 0.12 -0.06 0.03 -0.17 -0.34 0.08 -0.04 0.27 -0.12zm0 0c0.09,-0.04 0.2,0 0.24,0.1 0.05,0.09 0.01,0.21 -0.09,0.25l-0.15 -0.35zm1.17 -0.08c-0.09,0.04 -0.2,0 -0.24,-0.1 -0.04,-0.1 0.01,-0.21 0.1,-0.25l0.14 0.35zm0.22 -0.48l0.13 0.36 -0.26 0.09 -0.09 0.03 -0.14 -0.35 0.11 -0.04 0.25 -0.09zm0 0c0.1,-0.03 0.2,0.02 0.24,0.12 0.03,0.1 -0.02,0.21 -0.11,0.24l-0.13 -0.36zm1.18 0.04c-0.1,0.03 -0.2,-0.03 -0.23,-0.13 -0.03,-0.1 0.03,-0.21 0.12,-0.24l0.11 0.37zm0.26 -0.46l0.09 0.37 -0.22 0.05 -0.13 0.04 -0.11 -0.37 0.15 -0.04 0.22 -0.05zm0 0c0.1,-0.03 0.2,0.04 0.22,0.14 0.03,0.1 -0.03,0.21 -0.13,0.23l-0.09 -0.37zm1.17 0.15c-0.1,0.02 -0.2,-0.05 -0.22,-0.15 -0.02,-0.1 0.05,-0.21 0.15,-0.23l0.07 0.38zm0.3 -0.43l0.05 0.38 -0.15 0.02 -0.2 0.03 -0.07 -0.38 0.22 -0.04 0.15 -0.01zm0 0c0.1,-0.02 0.2,0.05 0.21,0.16 0.02,0.1 -0.05,0.2 -0.16,0.22l-0.05 -0.38zm1.15 0.26c-0.1,0.01 -0.19,-0.07 -0.2,-0.17 -0.01,-0.11 0.06,-0.2 0.16,-0.21l0.04 0.38zm0.34 -0.41l0.02 0.39 -0.06 0 -0.3 0.02 -0.04 -0.38 0.32 -0.03 0.06 0zm0 0c0.1,0 0.19,0.08 0.19,0.19 0.01,0.1 -0.07,0.19 -0.17,0.2l-0.02 -0.39z"/>
  </g>
  <path class="fil3" d="M33.15 26.44c0,5.63 -4.56,10.19 -10.19,10.19 -5.63,0 -10.2,-4.56 -10.2,-10.19 0,-5.63 4.57,-10.19 10.2,-10.19 5.63,0 10.19,4.56 10.19,10.19z"/>
  <path class="fil4" d="M43.65 26.52l2.27 -5.32 -13.8 0c-1.77,-3.24 -5.21,-5.44 -9.16,-5.44 -3.95,0 -7.39,2.2 -9.16,5.44l-13.8 0 2.35 5.32 -2.35 5.32 14.2 0c1.86,2.87 5.09,4.77 8.76,4.77 3.67,0 6.9,-1.9 8.75,-4.77l14.21 0 -2.27 -5.32z"/>
  <g>
   <path class="fil2" d="M11.47 16.2l3.08 2.59 -3.89 1.51 0.81 -4.1zm11.4 -3.54l0 0.77 0 0 -0.35 0.01 -0.35 0.01 -0.35 0.03 -0.35 0.03 -0.35 0.04 -0.34 0.06 -0.34 0.06 -0.34 0.07 -0.34 0.08 -0.34 0.09 -0.33 0.1 -0.33 0.1 -0.32 0.12 -0.32 0.12 -0.32 0.14 -0.32 0.14 -0.31 0.15 -0.3 0.16 -0.31 0.16 -0.29 0.18 -0.3 0.18 -0.29 0.19 -0.28 0.2 -0.28 0.21 -0.27 0.21 -0.27 0.23 -0.26 0.23 -0.26 0.23 -0.25 0.25 -0.24 0.25 -0.24 0.26 -0.23 0.27 -0.59 -0.5 0.25 -0.28 0.25 -0.28 0.26 -0.26 0.26 -0.26 0.27 -0.26 0.28 -0.24 0.28 -0.24 0.29 -0.22 0.3 -0.22 0.3 -0.21 0.31 -0.21 0.31 -0.19 0.31 -0.19 0.32 -0.17 0.33 -0.17 0.33 -0.16 0.33 -0.15 0.34 -0.14 0.34 -0.13 0.35 -0.13 0.34 -0.11 0.36 -0.1 0.35 -0.1 0.36 -0.08 0.36 -0.08 0.36 -0.06 0.37 -0.06 0.36 -0.05 0.37 -0.03 0.37 -0.03 0.38 -0.01 0.37 -0.01 0 0zm10.36 4.83l-0.59 0.5 -0.23 -0.27 -0.24 -0.26 -0.24 -0.25 -0.25 -0.25 -0.26 -0.23 -0.26 -0.23 -0.27 -0.23 -0.27 -0.21 -0.28 -0.21 -0.28 -0.2 -0.29 -0.19 -0.29 -0.18 -0.3 -0.18 -0.3 -0.16 -0.31 -0.16 -0.31 -0.15 -0.31 -0.14 -0.32 -0.14 -0.32 -0.12 -0.33 -0.12 -0.33 -0.1 -0.33 -0.1 -0.34 -0.09 -0.33 -0.08 -0.34 -0.07 -0.35 -0.06 -0.34 -0.06 -0.35 -0.04 -0.34 -0.03 -0.35 -0.03 -0.36 -0.01 -0.35 -0.01 0 -0.77 0.38 0.01 0.37 0.01 0.37 0.03 0.37 0.03 0.37 0.05 0.36 0.06 0.36 0.06 0.36 0.08 0.36 0.08 0.36 0.1 0.35 0.1 0.35 0.11 0.34 0.13 0.34 0.13 0.34 0.14 0.34 0.15 0.33 0.16 0.32 0.17 0.32 0.17 0.32 0.19 0.31 0.19 0.3 0.21 0.3 0.21 0.3 0.22 0.29 0.22 0.28 0.24 0.28 0.24 0.27 0.26 0.27 0.26 0.25 0.26 0.25 0.28 0.25 0.28z"/>
  </g>
  <path class="fil1" d="M1.76 31.1l-0.51 0c-0.09,0 -0.16,-0.07 -0.16,-0.15 0,-0.09 0.07,-0.16 0.16,-0.16l0.51 0c0.09,0 0.15,0.07 0.15,0.16 0,0.08 -0.06,0.15 -0.15,0.15zm1.64 0l-0.51 0c-0.08,0 -0.15,-0.07 -0.15,-0.15 0,-0.09 0.07,-0.16 0.15,-0.16l0.51 0c0.09,0 0.16,0.07 0.16,0.16 0,0.08 -0.07,0.15 -0.16,0.15zm1.65 0l-0.52 0c-0.08,0 -0.15,-0.07 -0.15,-0.15 0,-0.09 0.07,-0.16 0.15,-0.16l0.52 0c0.08,0 0.15,0.07 0.15,0.16 0,0.08 -0.07,0.15 -0.15,0.15zm1.64 0l-0.51 0c-0.09,0 -0.16,-0.07 -0.16,-0.15 0,-0.09 0.07,-0.16 0.16,-0.16l0.51 0c0.09,0 0.15,0.07 0.15,0.16 0,0.08 -0.06,0.15 -0.15,0.15zm1.64 0l-0.51 0c-0.09,0 -0.15,-0.07 -0.15,-0.15 0,-0.09 0.06,-0.16 0.15,-0.16l0.51 0c0.09,0 0.16,0.07 0.16,0.16 0,0.08 -0.07,0.15 -0.16,0.15zm1.65 0l-0.52 0c-0.08,0 -0.15,-0.07 -0.15,-0.15 0,-0.09 0.07,-0.16 0.15,-0.16l0.52 0c0.08,0 0.15,0.07 0.15,0.16 0,0.08 -0.07,0.15 -0.15,0.15zm1.64 0l-0.51 0c-0.09,0 -0.16,-0.07 -0.16,-0.15 0,-0.09 0.07,-0.16 0.16,-0.16l0.51 0c0.08,0 0.15,0.07 0.15,0.16 0,0.08 -0.07,0.15 -0.15,0.15zm1.64 0l-0.51 0c-0.09,0 -0.15,-0.07 -0.15,-0.15 0,-0.09 0.06,-0.16 0.15,-0.16l0.51 0c0.09,0 0.16,0.07 0.16,0.16 0,0.08 -0.07,0.15 -0.16,0.15zm1.65 0l-0.52 0c-0.08,0 -0.15,-0.07 -0.15,-0.15 0,-0.09 0.07,-0.16 0.15,-0.16l0.52 0c0.08,0 0.15,0.07 0.15,0.16 0,0.08 -0.07,0.15 -0.15,0.15zm16.7 0l-0.52 0c-0.08,0 -0.15,-0.07 -0.15,-0.15 0,-0.09 0.07,-0.16 0.15,-0.16l0.52 0c0.08,0 0.15,0.07 0.15,0.16 0,0.08 -0.07,0.15 -0.15,0.15zm1.64 0l-0.51 0c-0.09,0 -0.16,-0.07 -0.16,-0.15 0,-0.09 0.07,-0.16 0.16,-0.16l0.51 0c0.09,0 0.15,0.07 0.15,0.16 0,0.08 -0.06,0.15 -0.15,0.15zm1.64 0l-0.51 0c-0.08,0 -0.15,-0.07 -0.15,-0.15 0,-0.09 0.07,-0.16 0.15,-0.16l0.51 0c0.09,0 0.16,0.07 0.16,0.16 0,0.08 -0.07,0.15 -0.16,0.15zm1.65 0l-0.52 0c-0.08,0 -0.15,-0.07 -0.15,-0.15 0,-0.09 0.07,-0.16 0.15,-0.16l0.52 0c0.08,0 0.15,0.07 0.15,0.16 0,0.08 -0.07,0.15 -0.15,0.15zm1.64 0l-0.51 0c-0.09,0 -0.16,-0.07 -0.16,-0.15 0,-0.09 0.07,-0.16 0.16,-0.16l0.51 0c0.09,0 0.15,0.07 0.15,0.16 0,0.08 -0.06,0.15 -0.15,0.15zm1.64 0l-0.51 0c-0.09,0 -0.15,-0.07 -0.15,-0.15 0,-0.09 0.06,-0.16 0.15,-0.16l0.51 0c0.09,0 0.16,0.07 0.16,0.16 0,0.08 -0.07,0.15 -0.16,0.15zm1.65 0l-0.52 0c-0.08,0 -0.15,-0.07 -0.15,-0.15 0,-0.09 0.07,-0.16 0.15,-0.16l0.52 0c0.08,0 0.15,0.07 0.15,0.16 0,0.08 -0.07,0.15 -0.15,0.15zm1.64 0l-0.51 0c-0.09,0 -0.16,-0.07 -0.16,-0.15 0,-0.09 0.07,-0.16 0.16,-0.16l0.51 0c0.08,0 0.15,0.07 0.15,0.16 0,0.08 -0.07,0.15 -0.15,0.15zm1.57 0l-0.44 0c-0.09,0 -0.16,-0.07 -0.16,-0.15 0,-0.09 0.07,-0.16 0.16,-0.16l0.44 0c0.09,0 0.16,0.07 0.16,0.16 0,0.08 -0.07,0.15 -0.16,0.15zm-14.73 0.98c-0.04,0 -0.07,-0.01 -0.1,-0.03 -0.07,-0.06 -0.08,-0.16 -0.02,-0.22 0.11,-0.13 0.21,-0.26 0.31,-0.39 0.06,-0.07 0.15,-0.09 0.22,-0.03 0.07,0.05 0.08,0.14 0.03,0.21 -0.1,0.14 -0.21,0.28 -0.33,0.41 -0.03,0.03 -0.07,0.05 -0.11,0.05zm-13.99 0.21c-0.04,0 -0.08,-0.02 -0.12,-0.05 -0.11,-0.13 -0.22,-0.27 -0.33,-0.4 -0.06,-0.07 -0.04,-0.16 0.02,-0.22 0.07,-0.05 0.17,-0.04 0.22,0.03 0.1,0.13 0.21,0.26 0.32,0.38 0.06,0.07 0.06,0.16 -0.01,0.22 -0.03,0.03 -0.06,0.04 -0.1,0.04zm12.83 0.95c-0.05,0 -0.09,-0.01 -0.12,-0.05 -0.06,-0.07 -0.05,-0.16 0.02,-0.22 0.13,-0.11 0.25,-0.22 0.37,-0.33 0.07,-0.06 0.16,-0.06 0.22,0 0.06,0.07 0.06,0.16 0,0.22 -0.13,0.12 -0.26,0.24 -0.39,0.35 -0.03,0.02 -0.07,0.03 -0.1,0.03zm-11.64 0.18c-0.03,0 -0.07,-0.01 -0.09,-0.04 -0.14,-0.1 -0.27,-0.22 -0.4,-0.33 -0.07,-0.06 -0.07,-0.16 -0.02,-0.22 0.06,-0.06 0.16,-0.07 0.22,-0.01 0.13,0.11 0.26,0.22 0.39,0.32 0.06,0.06 0.08,0.15 0.02,0.22 -0.03,0.04 -0.07,0.06 -0.12,0.06zm10.3 0.77c-0.06,0 -0.11,-0.02 -0.14,-0.07 -0.04,-0.08 -0.01,-0.17 0.06,-0.21 0.14,-0.09 0.29,-0.18 0.43,-0.27 0.07,-0.05 0.16,-0.03 0.21,0.04 0.05,0.07 0.03,0.17 -0.04,0.22 -0.15,0.09 -0.3,0.18 -0.45,0.27 -0.02,0.02 -0.05,0.02 -0.07,0.02zm-8.93 0.14c-0.03,0 -0.05,-0.01 -0.08,-0.02 -0.15,-0.09 -0.3,-0.17 -0.45,-0.27 -0.07,-0.04 -0.09,-0.13 -0.05,-0.21 0.05,-0.07 0.14,-0.09 0.22,-0.05 0.14,0.09 0.28,0.18 0.43,0.26 0.08,0.04 0.1,0.13 0.06,0.21 -0.03,0.05 -0.08,0.08 -0.13,0.08zm7.44 0.56c-0.06,0 -0.12,-0.03 -0.14,-0.1 -0.03,-0.08 0.01,-0.17 0.09,-0.19 0.16,-0.06 0.32,-0.13 0.47,-0.19 0.08,-0.04 0.17,0 0.2,0.08 0.04,0.08 0,0.17 -0.08,0.2 -0.16,0.07 -0.32,0.13 -0.48,0.19 -0.02,0.01 -0.04,0.01 -0.06,0.01zm-5.94 0.09c-0.02,0 -0.03,0 -0.05,0 -0.16,-0.06 -0.33,-0.12 -0.49,-0.18 -0.08,-0.04 -0.12,-0.12 -0.08,-0.2 0.03,-0.08 0.12,-0.12 0.2,-0.09 0.15,0.06 0.31,0.12 0.47,0.17 0.08,0.03 0.12,0.12 0.1,0.2 -0.02,0.06 -0.08,0.1 -0.15,0.1zm4.36 0.34c-0.08,0 -0.14,-0.05 -0.15,-0.13 -0.02,-0.08 0.04,-0.16 0.12,-0.18 0.17,-0.03 0.33,-0.06 0.5,-0.1 0.08,-0.02 0.16,0.03 0.18,0.12 0.02,0.08 -0.03,0.16 -0.11,0.18 -0.17,0.04 -0.35,0.08 -0.52,0.11 0,0 -0.01,0 -0.02,0zm-2.76 0.04c-0.01,0 -0.02,0 -0.02,0 -0.18,-0.03 -0.35,-0.06 -0.52,-0.09 -0.08,-0.02 -0.14,-0.1 -0.12,-0.18 0.02,-0.08 0.1,-0.14 0.18,-0.12 0.17,0.03 0.33,0.06 0.5,0.08 0.08,0.02 0.14,0.09 0.13,0.18 -0.01,0.07 -0.08,0.13 -0.15,0.13zm1.24 0.09c-0.04,0 -0.08,0 -0.12,0 -0.08,0 -0.15,-0.07 -0.15,-0.16 0,-0.08 0.07,-0.15 0.15,-0.15 0.17,0 0.34,0 0.51,-0.01 0.08,0 0.16,0.06 0.16,0.15 0,0.08 -0.06,0.15 -0.15,0.16 -0.13,0 -0.26,0.01 -0.4,0.01z"/>
  <path class="fil1" d="M23.47 17.34c0,0 -0.01,0 -0.01,0 -0.17,-0.01 -0.34,-0.02 -0.51,-0.02 -0.08,0 -0.15,-0.07 -0.15,-0.15 0,-0.09 0.07,-0.16 0.16,-0.16 0,0 0,0 0,0 0.17,0.01 0.35,0.01 0.52,0.03 0.08,0 0.15,0.07 0.14,0.16 0,0.08 -0.07,0.14 -0.15,0.14zm-2.15 0.12c-0.07,0 -0.14,-0.06 -0.15,-0.13 -0.02,-0.09 0.04,-0.17 0.12,-0.18 0.17,-0.03 0.35,-0.06 0.52,-0.08 0.08,0 0.16,0.06 0.17,0.14 0.01,0.08 -0.05,0.16 -0.13,0.17 -0.17,0.02 -0.34,0.04 -0.5,0.07 -0.01,0 -0.02,0.01 -0.03,0.01zm3.77 0.14c-0.01,0 -0.03,0 -0.04,0 -0.16,-0.05 -0.33,-0.08 -0.49,-0.11 -0.09,-0.02 -0.14,-0.1 -0.12,-0.18 0.01,-0.09 0.09,-0.14 0.18,-0.13 0.17,0.04 0.34,0.07 0.51,0.12 0.08,0.02 0.13,0.1 0.11,0.18 -0.02,0.07 -0.08,0.12 -0.15,0.12zm-5.35 0.28c-0.07,0 -0.13,-0.03 -0.15,-0.1 -0.03,-0.08 0.01,-0.17 0.09,-0.2 0.16,-0.06 0.33,-0.11 0.5,-0.16 0.08,-0.03 0.16,0.02 0.19,0.1 0.02,0.08 -0.02,0.17 -0.1,0.19 -0.16,0.05 -0.32,0.11 -0.48,0.16 -0.02,0.01 -0.04,0.01 -0.05,0.01zm6.9 0.26c-0.03,0 -0.05,0 -0.07,-0.01 -0.15,-0.07 -0.31,-0.13 -0.46,-0.2 -0.08,-0.03 -0.12,-0.12 -0.09,-0.19 0.03,-0.08 0.12,-0.12 0.2,-0.09 0.16,0.06 0.32,0.13 0.48,0.2 0.08,0.04 0.11,0.13 0.08,0.2 -0.03,0.06 -0.09,0.09 -0.14,0.09zm-8.39 0.45c-0.05,0 -0.1,-0.03 -0.13,-0.08 -0.04,-0.07 -0.02,-0.17 0.06,-0.21 0.14,-0.09 0.3,-0.17 0.45,-0.25 0.08,-0.04 0.17,-0.01 0.21,0.06 0.04,0.08 0.01,0.17 -0.07,0.21 -0.15,0.08 -0.29,0.16 -0.44,0.25 -0.02,0.01 -0.05,0.02 -0.08,0.02zm9.81 0.36c-0.03,0 -0.06,-0.01 -0.08,-0.03 -0.14,-0.09 -0.28,-0.18 -0.43,-0.27 -0.07,-0.04 -0.09,-0.14 -0.05,-0.21 0.05,-0.07 0.14,-0.1 0.21,-0.05 0.15,0.09 0.3,0.18 0.44,0.28 0.07,0.05 0.09,0.14 0.04,0.21 -0.03,0.05 -0.08,0.07 -0.13,0.07zm-11.14 0.59c-0.05,0 -0.09,-0.02 -0.12,-0.05 -0.06,-0.07 -0.05,-0.17 0.02,-0.22 0.13,-0.11 0.27,-0.22 0.4,-0.33 0.07,-0.05 0.17,-0.04 0.22,0.03 0.05,0.07 0.04,0.16 -0.03,0.22 -0.13,0.1 -0.27,0.2 -0.39,0.31 -0.03,0.03 -0.07,0.04 -0.1,0.04zm12.42 0.45c-0.04,0 -0.08,-0.02 -0.11,-0.05 -0.12,-0.11 -0.25,-0.23 -0.37,-0.34 -0.07,-0.05 -0.07,-0.15 -0.02,-0.21 0.06,-0.07 0.15,-0.08 0.22,-0.02 0.13,0.11 0.26,0.23 0.38,0.35 0.06,0.06 0.07,0.16 0.01,0.22 -0.03,0.03 -0.07,0.05 -0.11,0.05zm-13.58 0.71c-0.03,0 -0.07,-0.01 -0.1,-0.03 -0.06,-0.06 -0.07,-0.15 -0.02,-0.22 0.11,-0.13 0.23,-0.26 0.35,-0.39 0.06,-0.06 0.15,-0.07 0.22,-0.01 0.06,0.06 0.06,0.16 0,0.22 -0.11,0.12 -0.22,0.25 -0.33,0.38 -0.03,0.04 -0.07,0.05 -0.12,0.05zm14.66 0.52c-0.05,0 -0.1,-0.02 -0.13,-0.06 -0.1,-0.14 -0.2,-0.27 -0.31,-0.4 -0.05,-0.07 -0.04,-0.16 0.02,-0.22 0.07,-0.05 0.17,-0.04 0.22,0.03 0.11,0.13 0.22,0.27 0.32,0.41 0.05,0.07 0.04,0.16 -0.03,0.21 -0.03,0.02 -0.06,0.03 -0.09,0.03zm-15.6 0.83c-0.03,0 -0.05,-0.01 -0.08,-0.02 -0.07,-0.05 -0.1,-0.14 -0.05,-0.21 0.08,-0.15 0.18,-0.3 0.27,-0.45 0.05,-0.07 0.14,-0.09 0.21,-0.04 0.07,0.05 0.09,0.14 0.05,0.21 -0.09,0.14 -0.18,0.29 -0.27,0.43 -0.03,0.05 -0.08,0.08 -0.13,0.08zm16.72 0.13l-0.51 0c-0.05,0 -0.1,-0.03 -0.13,-0.08 0,0 -0.01,-0.01 -0.01,-0.01 -0.04,-0.08 -0.01,-0.17 0.07,-0.21 0.04,-0.02 0.08,-0.02 0.12,-0.01l0.46 0c0.08,0 0.15,0.07 0.15,0.15 0,0.09 -0.07,0.16 -0.15,0.16zm1.64 0l-0.51 0c-0.09,0 -0.16,-0.07 -0.16,-0.16 0,-0.08 0.07,-0.15 0.16,-0.15l0.51 0c0.09,0 0.16,0.07 0.16,0.15 0,0.09 -0.07,0.16 -0.16,0.16zm1.64 0l-0.51 0c-0.08,0 -0.15,-0.07 -0.15,-0.16 0,-0.08 0.07,-0.15 0.15,-0.15l0.51 0c0.09,0 0.16,0.07 0.16,0.15 0,0.09 -0.07,0.16 -0.16,0.16zm1.65 0l-0.52 0c-0.08,0 -0.15,-0.07 -0.15,-0.16 0,-0.08 0.07,-0.15 0.15,-0.15l0.52 0c0.08,0 0.15,0.07 0.15,0.15 0,0.09 -0.07,0.16 -0.15,0.16zm1.64 0l-0.51 0c-0.09,0 -0.16,-0.07 -0.16,-0.16 0,-0.08 0.07,-0.15 0.16,-0.15l0.51 0c0.09,0 0.15,0.07 0.15,0.15 0,0.09 -0.06,0.16 -0.15,0.16zm1.64 0l-0.51 0c-0.08,0 -0.15,-0.07 -0.15,-0.16 0,-0.08 0.07,-0.15 0.15,-0.15l0.51 0c0.09,0 0.16,0.07 0.16,0.15 0,0.09 -0.07,0.16 -0.16,0.16zm1.65 0l-0.52 0c-0.08,0 -0.15,-0.07 -0.15,-0.16 0,-0.08 0.07,-0.15 0.15,-0.15l0.52 0c0.08,0 0.15,0.07 0.15,0.15 0,0.09 -0.07,0.16 -0.15,0.16zm1.64 0l-0.51 0c-0.09,0 -0.16,-0.07 -0.16,-0.16 0,-0.08 0.07,-0.15 0.16,-0.15l0.51 0c0.09,0 0.15,0.07 0.15,0.15 0,0.09 -0.06,0.16 -0.15,0.16zm1.64 0l-0.51 0c-0.09,0 -0.15,-0.07 -0.15,-0.16 0,-0.08 0.06,-0.15 0.15,-0.15l0.51 0c0.09,0 0.16,0.07 0.16,0.15 0,0.09 -0.07,0.16 -0.16,0.16zm-42.36 0.09l-0.51 0c-0.09,0 -0.16,-0.07 -0.16,-0.15 0,-0.09 0.07,-0.16 0.16,-0.16l0.51 0c0.08,0 0.15,0.07 0.15,0.16 0,0.08 -0.07,0.15 -0.15,0.15zm1.64 0l-0.51 0c-0.09,0 -0.16,-0.07 -0.16,-0.15 0,-0.09 0.07,-0.16 0.16,-0.16l0.51 0c0.09,0 0.16,0.07 0.16,0.16 0,0.08 -0.07,0.15 -0.16,0.15zm1.65 0l-0.52 0c-0.08,0 -0.15,-0.07 -0.15,-0.15 0,-0.09 0.07,-0.16 0.15,-0.16l0.52 0c0.08,0 0.15,0.07 0.15,0.16 0,0.08 -0.07,0.15 -0.15,0.15zm1.64 0l-0.52 0c-0.08,0 -0.15,-0.07 -0.15,-0.15 0,-0.09 0.07,-0.16 0.15,-0.16l0.52 0c0.08,0 0.15,0.07 0.15,0.16 0,0.08 -0.07,0.15 -0.15,0.15zm1.64 0l-0.51 0c-0.09,0 -0.16,-0.07 -0.16,-0.15 0,-0.09 0.07,-0.16 0.16,-0.16l0.51 0c0.09,0 0.16,0.07 0.16,0.16 0,0.08 -0.07,0.15 -0.16,0.15zm1.64 0l-0.51 0c-0.08,0 -0.15,-0.07 -0.15,-0.15 0,-0.09 0.07,-0.16 0.15,-0.16l0.51 0c0.09,0 0.16,0.07 0.16,0.16 0,0.08 -0.07,0.15 -0.16,0.15zm1.65 0l-0.52 0c-0.08,0 -0.15,-0.07 -0.15,-0.15 0,-0.09 0.07,-0.16 0.15,-0.16l0.52 0c0.08,0 0.15,0.07 0.15,0.16 0,0.08 -0.07,0.15 -0.15,0.15zm1.64 0l-0.51 0c-0.09,0 -0.16,-0.07 -0.16,-0.15 0,-0.09 0.07,-0.16 0.16,-0.16l0.51 0c0.09,0 0.15,0.07 0.15,0.16 0,0.08 -0.06,0.15 -0.15,0.15z"/>
  <path class="fil5" d="M5.03 26.85l-0.5 0 0 1.8 -0.99 0 0 -4.93 1.58 0c0.25,0 0.47,0.03 0.66,0.1 0.2,0.06 0.36,0.16 0.49,0.28 0.14,0.13 0.24,0.28 0.31,0.47 0.07,0.18 0.11,0.4 0.11,0.64 0,0.18 -0.02,0.34 -0.05,0.48 -0.04,0.14 -0.08,0.27 -0.14,0.38 -0.07,0.12 -0.14,0.21 -0.23,0.3 -0.09,0.08 -0.19,0.15 -0.3,0.21l0.87 2.02 0 0.05 -1.07 0 -0.74 -1.8zm-0.5 -0.83l0.57 0c0.2,0 0.34,-0.07 0.44,-0.2 0.1,-0.13 0.15,-0.31 0.15,-0.53 0,-0.11 -0.01,-0.21 -0.03,-0.3 -0.02,-0.1 -0.06,-0.17 -0.1,-0.24 -0.05,-0.06 -0.11,-0.11 -0.18,-0.15 -0.07,-0.03 -0.16,-0.05 -0.26,-0.05l-0.59 0 0 1.47z"/>
  <polygon id="1" class="fil5" points="9.91,26.51 8.36,26.51 8.36,27.82 10.2,27.82 10.2,28.65 7.37,28.65 7.37,23.72 10.19,23.72 10.19,24.55 8.36,24.55 8.36,25.71 9.91,25.71 "/>
  <polygon id="2" class="fil5" points="13.31,26.64 11.76,26.64 11.76,28.65 10.77,28.65 10.77,23.72 13.49,23.72 13.49,24.55 11.76,24.55 11.76,25.81 13.31,25.81 "/>
  <path id="3" class="fil5" d="M17.27 23.72l0 3.38c0,0.29 -0.04,0.53 -0.12,0.74 -0.08,0.2 -0.2,0.37 -0.34,0.5 -0.14,0.13 -0.31,0.22 -0.51,0.28 -0.2,0.06 -0.42,0.09 -0.65,0.09 -0.24,0 -0.46,-0.03 -0.66,-0.09 -0.2,-0.06 -0.37,-0.15 -0.51,-0.28 -0.15,-0.13 -0.26,-0.3 -0.34,-0.5 -0.08,-0.21 -0.12,-0.45 -0.12,-0.74l0 -3.38 1 0 0 3.38c0,0.17 0.02,0.3 0.04,0.4 0.03,0.1 0.07,0.18 0.12,0.24 0.06,0.05 0.12,0.09 0.2,0.12 0.08,0.02 0.17,0.03 0.27,0.03 0.1,0 0.19,-0.01 0.27,-0.03 0.08,-0.03 0.14,-0.07 0.19,-0.12 0.05,-0.06 0.09,-0.14 0.12,-0.24 0.03,-0.1 0.04,-0.23 0.04,-0.4l0 -3.38 1 0z"/>
  <path id="4" class="fil5" d="M19.51 26.85l-0.49 0 0 1.8 -1 0 0 -4.93 1.59 0c0.25,0 0.47,0.03 0.66,0.1 0.19,0.06 0.35,0.16 0.49,0.28 0.13,0.13 0.23,0.28 0.31,0.47 0.07,0.18 0.1,0.4 0.1,0.64 0,0.18 -0.01,0.34 -0.05,0.48 -0.03,0.14 -0.08,0.27 -0.14,0.38 -0.06,0.12 -0.14,0.21 -0.22,0.3 -0.09,0.08 -0.19,0.15 -0.3,0.21l0.86 2.02 0 0.05 -1.07 0 -0.74 -1.8zm-0.49 -0.83l0.56 0c0.2,0 0.35,-0.07 0.45,-0.2 0.1,-0.13 0.15,-0.31 0.15,-0.53 0,-0.11 -0.01,-0.21 -0.03,-0.3 -0.02,-0.1 -0.06,-0.17 -0.11,-0.24 -0.04,-0.06 -0.1,-0.11 -0.17,-0.15 -0.07,-0.03 -0.16,-0.05 -0.26,-0.05l-0.59 0 0 1.47z"/>
  <path id="5" class="fil5" d="M21.86 28.65l0 -4.93 1.52 0c0.24,0 0.46,0.03 0.66,0.08 0.19,0.06 0.36,0.14 0.49,0.25 0.14,0.11 0.24,0.25 0.31,0.42 0.07,0.17 0.11,0.37 0.11,0.6 0,0.11 -0.01,0.22 -0.04,0.33 -0.02,0.1 -0.06,0.2 -0.11,0.29 -0.05,0.09 -0.11,0.17 -0.19,0.24 -0.08,0.07 -0.17,0.14 -0.28,0.18 0.13,0.04 0.23,0.09 0.32,0.17 0.09,0.07 0.16,0.16 0.22,0.25 0.05,0.1 0.09,0.2 0.11,0.32 0.03,0.11 0.04,0.23 0.04,0.35 0,0.48 -0.13,0.84 -0.39,1.08 -0.27,0.24 -0.65,0.37 -1.14,0.37l-1.63 0zm0.99 -2.14l0 1.31 0.64 0c0.09,0 0.18,-0.02 0.24,-0.05 0.07,-0.03 0.13,-0.07 0.17,-0.13 0.05,-0.06 0.08,-0.13 0.1,-0.2 0.02,-0.08 0.03,-0.16 0.03,-0.26 0,-0.2 -0.04,-0.37 -0.12,-0.49 -0.07,-0.12 -0.21,-0.18 -0.39,-0.18l-0.67 0zm0 -0.73l0.52 0c0.2,0 0.34,-0.05 0.44,-0.15 0.09,-0.11 0.14,-0.26 0.14,-0.45 0,-0.23 -0.04,-0.39 -0.13,-0.48 -0.09,-0.1 -0.24,-0.15 -0.44,-0.15l-0.53 0 0 1.23z"/>
  <polygon id="6" class="fil5" points="26.78,28.65 25.79,28.65 25.79,23.72 26.78,23.72 "/>
  <path id="7" class="fil5" d="M29.7 27.35c0,-0.08 -0.01,-0.16 -0.03,-0.23 -0.01,-0.06 -0.05,-0.13 -0.1,-0.19 -0.05,-0.06 -0.12,-0.12 -0.22,-0.17 -0.09,-0.06 -0.21,-0.12 -0.37,-0.18 -0.18,-0.07 -0.36,-0.15 -0.53,-0.24 -0.17,-0.09 -0.31,-0.2 -0.44,-0.32 -0.13,-0.12 -0.23,-0.26 -0.31,-0.43 -0.07,-0.16 -0.11,-0.35 -0.11,-0.56 0,-0.21 0.04,-0.39 0.12,-0.56 0.07,-0.17 0.18,-0.32 0.32,-0.44 0.14,-0.12 0.3,-0.21 0.49,-0.28 0.19,-0.06 0.4,-0.1 0.63,-0.1 0.24,0 0.45,0.04 0.64,0.12 0.2,0.07 0.36,0.18 0.49,0.31 0.14,0.14 0.24,0.3 0.31,0.48 0.07,0.19 0.11,0.39 0.11,0.62l-0.99 0c0,-0.11 -0.01,-0.2 -0.03,-0.29 -0.02,-0.09 -0.06,-0.16 -0.1,-0.22 -0.05,-0.06 -0.11,-0.11 -0.18,-0.15 -0.08,-0.03 -0.16,-0.05 -0.26,-0.05 -0.1,0 -0.18,0.01 -0.25,0.04 -0.07,0.03 -0.12,0.07 -0.17,0.12 -0.04,0.05 -0.08,0.11 -0.1,0.18 -0.02,0.07 -0.03,0.15 -0.03,0.23 0,0.08 0.01,0.15 0.05,0.22 0.03,0.06 0.08,0.12 0.15,0.18 0.06,0.06 0.14,0.11 0.23,0.16 0.09,0.05 0.19,0.1 0.3,0.14 0.23,0.09 0.43,0.18 0.61,0.28 0.17,0.1 0.31,0.22 0.42,0.35 0.12,0.13 0.21,0.27 0.26,0.43 0.06,0.16 0.09,0.34 0.09,0.55 0,0.21 -0.04,0.41 -0.11,0.58 -0.07,0.16 -0.17,0.31 -0.3,0.42 -0.14,0.12 -0.3,0.21 -0.48,0.27 -0.19,0.06 -0.4,0.09 -0.64,0.09 -0.21,0 -0.42,-0.03 -0.62,-0.09 -0.2,-0.07 -0.39,-0.17 -0.55,-0.3 -0.16,-0.13 -0.29,-0.3 -0.38,-0.5 -0.1,-0.21 -0.15,-0.45 -0.15,-0.73l1 0c0,0.15 0.01,0.28 0.04,0.38 0.03,0.11 0.07,0.19 0.13,0.25 0.06,0.07 0.14,0.11 0.23,0.14 0.08,0.03 0.19,0.04 0.3,0.04 0.1,0 0.18,-0.01 0.25,-0.04 0.06,-0.03 0.12,-0.06 0.16,-0.11 0.04,-0.05 0.07,-0.11 0.09,-0.18 0.02,-0.06 0.03,-0.14 0.03,-0.22z"/>
  <polygon id="8" class="fil5" points="34.81,28.65 33.82,28.65 33.82,26.54 32.35,26.54 32.35,28.65 31.36,28.65 31.36,23.72 32.35,23.72 32.35,25.71 33.82,25.71 33.82,23.72 34.81,23.72 "/>
  <polygon id="9" class="fil5" points="38.15,26.51 36.6,26.51 36.6,27.82 38.43,27.82 38.43,28.65 35.61,28.65 35.61,23.72 38.43,23.72 38.43,24.55 36.6,24.55 36.6,25.71 38.15,25.71 "/>
  <path id="10" class="fil5" d="M39.01 28.65l0 -4.93 1.3 0c0.28,0 0.54,0.05 0.77,0.14 0.24,0.1 0.44,0.23 0.6,0.41 0.17,0.17 0.3,0.39 0.39,0.65 0.09,0.26 0.13,0.55 0.13,0.88l0 0.77c0,0.33 -0.04,0.62 -0.13,0.88 -0.09,0.26 -0.22,0.48 -0.39,0.65 -0.16,0.18 -0.36,0.31 -0.6,0.41 -0.23,0.09 -0.49,0.14 -0.78,0.14l-1.29 0zm0.99 -4.1l0 3.27 0.3 0c0.17,0 0.32,-0.02 0.44,-0.07 0.11,-0.05 0.21,-0.12 0.28,-0.22 0.07,-0.1 0.12,-0.23 0.15,-0.39 0.03,-0.16 0.04,-0.35 0.04,-0.57l0 -0.77c0,-0.23 -0.01,-0.42 -0.04,-0.58 -0.03,-0.16 -0.08,-0.28 -0.15,-0.38 -0.07,-0.1 -0.16,-0.17 -0.28,-0.22 -0.12,-0.05 -0.26,-0.07 -0.43,-0.07l-0.31 0z"/>
 </g>
</svg>
