<?xml version="1.0" encoding="UTF-8"?>
<!DOCTYPE svg PUBLIC "-//W3C//DTD SVG 1.1//EN" "http://www.w3.org/Graphics/SVG/1.1/DTD/svg11.dtd">
<!-- Creator: CorelDRAW 2019 (64-Bit) -->
<svg xmlns="http://www.w3.org/2000/svg" xml:space="preserve" width="448px" height="448px" version="1.1" style="shape-rendering:geometricPrecision; text-rendering:geometricPrecision; image-rendering:optimizeQuality; fill-rule:evenodd; clip-rule:evenodd"
viewBox="0 0 26.83 26.83"
 xmlns:xlink="http://www.w3.org/1999/xlink"
 xmlns:xodm="http://www.corel.com/coreldraw/odm/2003">
 <defs>
  <style type="text/css">
   <![CDATA[
    .fil5 {fill:#FEFEFE}
    .fil2 {fill:#FEFEFE;fill-rule:nonzero}
    .fil3 {fill:#373435;fill-rule:nonzero}
    .fil1 {fill:#FAC02F;fill-rule:nonzero}
    .fil0 {fill:#404241;fill-rule:nonzero}
    .fil4 {fill:white;fill-rule:nonzero}
   ]]>
  </style>
 </defs>
 <g id="Layer_x0020_1">
  <metadata id="CorelCorpID_0Corel-Layer"/>
  <path class="fil0" d="M26.83 13.41c0,7.41 -6.01,13.42 -13.41,13.42 -7.41,0 -13.42,-6.01 -13.42,-13.42 0,-7.4 6.01,-13.41 13.42,-13.41 7.4,0 13.41,6.01 13.41,13.41z"/>
  <path class="fil1" d="M21.37 13.41c0,4.4 -3.56,7.96 -7.95,7.96 -4.4,0 -7.96,-3.56 -7.96,-7.96 0,-4.39 3.56,-7.95 7.96,-7.95 4.39,0 7.95,3.56 7.95,7.95z"/>
  <polygon class="fil0" points="13.53,6.32 13.8,7.17 14.69,7.17 13.97,7.69 14.25,8.54 13.53,8.02 12.8,8.54 13.08,7.69 12.36,7.17 13.25,7.17 "/>
  <path class="fil2" d="M2.63 11.32c-0.01,0 -0.02,-0.01 -0.03,-0.01 -0.07,-0.01 -0.11,-0.08 -0.1,-0.15 0.28,-1.35 0.8,-2.62 1.55,-3.78 0.04,-0.06 0.12,-0.08 0.18,-0.04 0.06,0.04 0.08,0.12 0.04,0.19 -0.73,1.13 -1.24,2.37 -1.51,3.68 -0.01,0.06 -0.07,0.11 -0.13,0.11z"/>
  <path class="fil2" d="M4.18 19.55c-0.04,0 -0.09,-0.03 -0.11,-0.07 -0.71,-1.09 -1.22,-2.28 -1.51,-3.55 -0.02,-0.07 0.03,-0.14 0.1,-0.16 0.07,-0.01 0.14,0.03 0.16,0.1 0.28,1.24 0.78,2.4 1.47,3.47 0.04,0.06 0.02,0.14 -0.04,0.18 -0.02,0.02 -0.04,0.03 -0.07,0.03z"/>
  <path class="fil2" d="M22.65 19.55c-0.02,0 -0.05,-0.01 -0.07,-0.03 -0.06,-0.04 -0.08,-0.12 -0.04,-0.18 0.7,-1.07 1.19,-2.24 1.48,-3.48 0.01,-0.08 0.09,-0.12 0.16,-0.11 0.07,0.02 0.11,0.09 0.1,0.16 -0.29,1.28 -0.8,2.48 -1.52,3.57 -0.02,0.04 -0.07,0.07 -0.11,0.07z"/>
  <path class="fil2" d="M24.2 11.32c-0.06,0 -0.12,-0.05 -0.13,-0.11 -0.27,-1.31 -0.78,-2.55 -1.51,-3.68 -0.04,-0.07 -0.02,-0.15 0.04,-0.19 0.06,-0.04 0.14,-0.02 0.18,0.04 0.75,1.16 1.27,2.43 1.55,3.78 0.01,0.07 -0.03,0.14 -0.1,0.15 -0.01,0 -0.02,0.01 -0.03,0.01z"/>
  <path class="fil3" d="M10.87 11.82l0 2.19c0,0.19 -0.03,0.35 -0.08,0.48 -0.05,0.13 -0.12,0.24 -0.22,0.32 -0.09,0.09 -0.2,0.15 -0.33,0.19 -0.13,0.04 -0.27,0.06 -0.42,0.06 -0.15,0 -0.3,-0.02 -0.43,-0.06 -0.12,-0.04 -0.24,-0.1 -0.33,-0.19 -0.09,-0.08 -0.16,-0.19 -0.22,-0.32 -0.05,-0.13 -0.07,-0.29 -0.07,-0.48l0 -2.19 0.65 0 0 2.19c0,0.11 0,0.19 0.02,0.26 0.02,0.06 0.05,0.12 0.08,0.15 0.03,0.04 0.08,0.07 0.13,0.08 0.05,0.01 0.11,0.02 0.17,0.02 0.07,0 0.12,-0.01 0.18,-0.02 0.05,-0.01 0.09,-0.04 0.12,-0.08 0.04,-0.03 0.06,-0.09 0.08,-0.15 0.02,-0.07 0.02,-0.15 0.02,-0.26l0 -2.19 0.65 0z"/>
  <path id="1" class="fil3" d="M12.71 14.17c0,-0.05 -0.01,-0.1 -0.02,-0.14 -0.01,-0.05 -0.03,-0.09 -0.06,-0.13 -0.03,-0.04 -0.08,-0.08 -0.14,-0.11 -0.06,-0.04 -0.14,-0.08 -0.25,-0.12 -0.11,-0.04 -0.23,-0.1 -0.34,-0.15 -0.11,-0.06 -0.2,-0.13 -0.29,-0.21 -0.08,-0.08 -0.14,-0.17 -0.19,-0.28 -0.05,-0.1 -0.08,-0.22 -0.08,-0.36 0,-0.14 0.03,-0.26 0.08,-0.37 0.05,-0.11 0.12,-0.2 0.21,-0.28 0.09,-0.08 0.19,-0.14 0.32,-0.18 0.12,-0.04 0.26,-0.07 0.41,-0.07 0.15,0 0.29,0.03 0.41,0.08 0.13,0.05 0.23,0.11 0.32,0.2 0.09,0.09 0.15,0.19 0.2,0.31 0.05,0.12 0.07,0.26 0.07,0.4l-0.64 0c0,-0.07 -0.01,-0.13 -0.02,-0.18 -0.02,-0.06 -0.04,-0.11 -0.07,-0.15 -0.03,-0.04 -0.07,-0.07 -0.11,-0.09 -0.05,-0.03 -0.11,-0.04 -0.17,-0.04 -0.07,0 -0.12,0.01 -0.16,0.03 -0.05,0.02 -0.08,0.05 -0.11,0.08 -0.03,0.03 -0.06,0.07 -0.07,0.12 -0.01,0.04 -0.02,0.09 -0.02,0.14 0,0.05 0.01,0.1 0.03,0.14 0.02,0.05 0.06,0.09 0.1,0.12 0.04,0.04 0.09,0.07 0.15,0.11 0.06,0.03 0.13,0.06 0.2,0.09 0.15,0.05 0.28,0.11 0.39,0.18 0.11,0.07 0.2,0.14 0.28,0.22 0.07,0.09 0.13,0.18 0.16,0.29 0.04,0.1 0.06,0.22 0.06,0.35 0,0.14 -0.03,0.26 -0.07,0.37 -0.05,0.11 -0.11,0.21 -0.2,0.28 -0.08,0.08 -0.19,0.14 -0.31,0.18 -0.12,0.04 -0.26,0.06 -0.41,0.06 -0.14,0 -0.27,-0.02 -0.4,-0.07 -0.14,-0.04 -0.26,-0.1 -0.36,-0.19 -0.1,-0.09 -0.19,-0.19 -0.25,-0.33 -0.06,-0.13 -0.1,-0.28 -0.1,-0.47l0.65 0c0,0.1 0.01,0.18 0.03,0.25 0.02,0.07 0.05,0.12 0.09,0.16 0.04,0.05 0.08,0.08 0.14,0.09 0.06,0.02 0.12,0.03 0.2,0.03 0.06,0 0.11,-0.01 0.16,-0.03 0.04,-0.01 0.08,-0.04 0.1,-0.07 0.03,-0.03 0.05,-0.07 0.06,-0.11 0.01,-0.05 0.02,-0.09 0.02,-0.15z"/>
  <polygon id="2" class="fil3" points="15.43,13.63 14.43,13.63 14.43,14.48 15.62,14.48 15.62,15.01 13.78,15.01 13.78,11.82 15.61,11.82 15.61,12.36 14.43,12.36 14.43,13.11 15.43,13.11 "/>
  <path id="3" class="fil3" d="M15.99 15.01l0 -3.19 0.84 0c0.19,0 0.36,0.03 0.51,0.09 0.15,0.06 0.28,0.15 0.39,0.26 0.1,0.12 0.19,0.26 0.25,0.43 0.05,0.16 0.08,0.35 0.08,0.57l0 0.5c0,0.21 -0.03,0.4 -0.08,0.57 -0.06,0.16 -0.15,0.3 -0.25,0.42 -0.11,0.11 -0.24,0.2 -0.39,0.26 -0.16,0.06 -0.33,0.09 -0.51,0.09l-0.84 0zm0.64 -2.65l0 2.12 0.2 0c0.11,0 0.21,-0.02 0.28,-0.05 0.08,-0.03 0.14,-0.08 0.18,-0.14 0.05,-0.07 0.08,-0.15 0.1,-0.25 0.02,-0.11 0.03,-0.23 0.03,-0.37l0 -0.51c0,-0.14 -0.01,-0.27 -0.03,-0.37 -0.02,-0.1 -0.05,-0.18 -0.1,-0.25 -0.04,-0.06 -0.1,-0.11 -0.18,-0.14 -0.07,-0.03 -0.17,-0.04 -0.28,-0.04l-0.2 0z"/>
  <g>
   <path class="fil4" d="M13.42 4.87c-0.07,0 -0.12,-0.05 -0.12,-0.12 0,-0.07 0.05,-0.13 0.12,-0.13l0 0.25zm0.23 -0.24l0 0.25 -0.23 -0.01 0 -0.25 0.23 0.01zm0 0c0.07,0 0.12,0.06 0.12,0.12 0,0.07 -0.05,0.13 -0.12,0.13l0 -0.25zm0.71 0.3c-0.07,-0.01 -0.11,-0.07 -0.11,-0.14 0.01,-0.07 0.07,-0.12 0.13,-0.11l-0.02 0.25zm0.26 -0.22l-0.02 0.25 -0.24 -0.03 0.02 -0.25 0.24 0.03zm0 0c0.07,0 0.12,0.07 0.11,0.13 -0.01,0.07 -0.07,0.12 -0.13,0.12l0.02 -0.25zm0.67 0.37c-0.06,-0.01 -0.1,-0.08 -0.09,-0.14 0.01,-0.07 0.08,-0.12 0.14,-0.1l-0.05 0.24zm0.28 -0.19l-0.04 0.25 -0.24 -0.06 0.05 -0.24 0.23 0.05zm0 0c0.07,0.01 0.11,0.08 0.1,0.15 -0.01,0.07 -0.08,0.11 -0.14,0.1l0.04 -0.25zm0.64 0.45c-0.07,-0.02 -0.1,-0.09 -0.08,-0.15 0.02,-0.07 0.08,-0.11 0.15,-0.09l-0.07 0.24zm0.3 -0.15l-0.08 0.23 -0.07 -0.03 -0.15 -0.05 0.07 -0.24 0.15 0.06 0.08 0.03zm0 0c0.06,0.02 0.09,0.09 0.07,0.15 -0.02,0.07 -0.09,0.1 -0.15,0.08l0.08 -0.23zm0.58 0.51c-0.06,-0.03 -0.09,-0.1 -0.07,-0.16 0.03,-0.07 0.1,-0.1 0.16,-0.07l-0.09 0.23zm0.31 -0.12l-0.1 0.23 -0.18 -0.09 -0.03 -0.02 0.09 -0.23 0.04 0.02 0.18 0.09zm0 0c0.06,0.03 0.09,0.1 0.06,0.17 -0.03,0.06 -0.1,0.09 -0.16,0.06l0.1 -0.23zm0.52 0.58c-0.06,-0.04 -0.08,-0.11 -0.04,-0.17 0.03,-0.06 0.1,-0.08 0.16,-0.05l-0.12 0.22zm0.33 -0.09l-0.12 0.22 -0.21 -0.13 0.12 -0.22 0.21 0.13zm0 0c0.05,0.04 0.07,0.11 0.04,0.17 -0.03,0.06 -0.11,0.08 -0.16,0.05l0.12 -0.22zm0.46 0.64c-0.06,-0.04 -0.07,-0.12 -0.03,-0.18 0.04,-0.05 0.11,-0.06 0.17,-0.02l-0.14 0.2zm0.33 -0.05l-0.15 0.2 -0.04 -0.03 -0.14 -0.12 0.14 -0.2 0.15 0.12 0.04 0.03zm0 0c0.05,0.04 0.06,0.12 0.02,0.18 -0.04,0.05 -0.12,0.06 -0.17,0.02l0.15 -0.2zm0.39 0.69c-0.05,-0.05 -0.06,-0.13 -0.01,-0.18 0.04,-0.05 0.12,-0.06 0.17,-0.01l-0.16 0.19zm0.33 -0.01l-0.17 0.18 -0.13 -0.14 -0.03 -0.03 0.16 -0.19 0.04 0.04 0.13 0.14zm0 0c0.05,0.04 0.05,0.12 0,0.17 -0.04,0.05 -0.12,0.05 -0.17,0.01l0.17 -0.18zm0.31 0.72c-0.04,-0.05 -0.04,-0.13 0.01,-0.18 0.06,-0.04 0.13,-0.04 0.17,0.02l-0.18 0.16zm0.34 0.03l-0.19 0.16 -0.15 -0.19 0.18 -0.16 0.16 0.19zm0 0c0.04,0.05 0.03,0.13 -0.02,0.18 -0.05,0.04 -0.12,0.04 -0.17,-0.02l0.19 -0.16zm0.23 0.76c-0.04,-0.06 -0.03,-0.13 0.03,-0.17 0.05,-0.04 0.13,-0.03 0.16,0.03l-0.19 0.14zm0.33 0.07l-0.21 0.13 -0.03 -0.06 -0.09 -0.14 0.19 -0.14 0.1 0.14 0.04 0.07zm0 0c0.03,0.06 0.02,0.14 -0.04,0.17 -0.06,0.04 -0.13,0.02 -0.17,-0.04l0.21 -0.13zm0.14 0.78c-0.03,-0.06 -0.01,-0.13 0.05,-0.17 0.06,-0.03 0.13,-0.01 0.16,0.05l-0.21 0.12zm0.32 0.11l-0.22 0.11 -0.09 -0.21 -0.01 -0.01 0.21 -0.12 0.01 0.02 0.1 0.21zm0 0c0.03,0.06 0,0.14 -0.06,0.17 -0.05,0.03 -0.13,0 -0.16,-0.06l0.22 -0.11zm0.06 0.79c-0.03,-0.06 0,-0.14 0.06,-0.16 0.07,-0.03 0.14,0.01 0.16,0.07l-0.22 0.09zm0.3 0.15l-0.23 0.09 -0.07 -0.24 0.22 -0.09 0.08 0.24zm0 0c0.02,0.06 -0.01,0.13 -0.07,0.16 -0.06,0.02 -0.13,-0.01 -0.16,-0.07l0.23 -0.09zm-0.04 0.79c-0.01,-0.06 0.03,-0.13 0.09,-0.15 0.06,-0.02 0.13,0.02 0.15,0.09l-0.24 0.06zm0.29 0.19l-0.24 0.05 -0.01 -0.09 -0.04 -0.15 0.24 -0.06 0.03 0.16 0.02 0.09zm0 0c0.01,0.07 -0.03,0.13 -0.09,0.15 -0.07,0.01 -0.13,-0.03 -0.15,-0.1l0.24 -0.05zm-0.13 0.78c-0.01,-0.06 0.04,-0.13 0.1,-0.14 0.07,-0.01 0.13,0.04 0.14,0.11l-0.24 0.03zm0.26 0.22l-0.24 0.03 -0.01 -0.22 -0.01 -0.03 0.24 -0.03 0.01 0.04 0.01 0.21zm0 0c0.01,0.07 -0.04,0.13 -0.1,0.14 -0.07,0.01 -0.13,-0.04 -0.14,-0.11l0.24 -0.03zm-0.21 0.76c0,-0.07 0.05,-0.12 0.12,-0.12 0.07,0 0.12,0.05 0.12,0.12l-0.24 0zm0.23 0.25l-0.24 0 0.01 -0.25 0.24 0 -0.01 0.25zm0 0c0,0.07 -0.05,0.13 -0.12,0.13 -0.06,0 -0.12,-0.06 -0.12,-0.13l0.24 0zm-0.3 0.73c0.01,-0.06 0.07,-0.11 0.14,-0.11 0.06,0.01 0.11,0.07 0.1,0.14l-0.24 -0.03zm0.21 0.28l-0.24 -0.03 0.03 -0.25 0.24 0.03 -0.03 0.25zm0 0c-0.01,0.07 -0.06,0.12 -0.13,0.11 -0.07,-0.01 -0.11,-0.07 -0.11,-0.14l0.24 0.03zm-0.38 0.69c0.01,-0.07 0.08,-0.11 0.14,-0.09 0.07,0.01 0.11,0.08 0.09,0.14l-0.23 -0.05zm0.17 0.3l-0.23 -0.06 0.03 -0.13 0.03 -0.11 0.23 0.05 -0.02 0.12 -0.04 0.13zm0 0c-0.02,0.07 -0.08,0.11 -0.15,0.09 -0.06,-0.02 -0.1,-0.09 -0.08,-0.15l0.23 0.06zm-0.45 0.63c0.02,-0.06 0.09,-0.09 0.15,-0.07 0.06,0.03 0.09,0.1 0.07,0.16l-0.22 -0.09zm0.13 0.32l-0.23 -0.09 0.1 -0.23 0.22 0.09 -0.09 0.23zm0 0c-0.03,0.07 -0.09,0.1 -0.16,0.08 -0.06,-0.03 -0.09,-0.1 -0.07,-0.17l0.23 0.09zm-0.53 0.58c0.03,-0.06 0.1,-0.09 0.16,-0.06 0.06,0.04 0.09,0.11 0.06,0.17l-0.22 -0.11zm0.1 0.33l-0.21 -0.11 0.11 -0.22 0.22 0.11 -0.12 0.22zm0 0c-0.03,0.06 -0.1,0.09 -0.16,0.06 -0.06,-0.03 -0.08,-0.11 -0.05,-0.17l0.21 0.11zm-0.59 0.51c0.04,-0.06 0.11,-0.07 0.17,-0.04 0.05,0.04 0.07,0.12 0.04,0.18l-0.21 -0.14zm0.06 0.34l-0.19 -0.14 0.08 -0.12 0.05 -0.08 0.21 0.14 -0.06 0.08 -0.09 0.12zm0 0c-0.03,0.06 -0.11,0.07 -0.16,0.04 -0.06,-0.04 -0.07,-0.12 -0.03,-0.18l0.19 0.14zm-0.63 0.44c0.04,-0.05 0.12,-0.06 0.17,-0.02 0.05,0.05 0.05,0.13 0.01,0.18l-0.18 -0.16zm0.02 0.35l-0.18 -0.17 0.16 -0.18 0.18 0.16 -0.16 0.19zm0 0c-0.04,0.05 -0.12,0.05 -0.17,0.01 -0.05,-0.05 -0.06,-0.13 -0.01,-0.18l0.18 0.17zm-0.68 0.35c0.04,-0.05 0.12,-0.04 0.16,0.01 0.05,0.05 0.05,0.12 0,0.17l-0.16 -0.18zm-0.02 0.35l-0.16 -0.18 0.02 -0.02 0.16 -0.15 0.16 0.18 -0.16 0.15 -0.02 0.02zm0 0c-0.05,0.05 -0.13,0.04 -0.17,-0.01 -0.04,-0.05 -0.04,-0.13 0.01,-0.17l0.16 0.18zm-0.72 0.28c0.06,-0.05 0.13,-0.04 0.17,0.02 0.04,0.05 0.03,0.13 -0.02,0.17l-0.15 -0.19zm-0.05 0.34l-0.14 -0.2 0.14 -0.1 0.05 -0.04 0.15 0.19 -0.06 0.05 -0.14 0.1zm0 0c-0.05,0.04 -0.13,0.03 -0.17,-0.03 -0.03,-0.05 -0.02,-0.13 0.03,-0.17l0.14 0.2zm-0.74 0.19c0.06,-0.03 0.14,-0.01 0.17,0.05 0.03,0.06 0.01,0.13 -0.04,0.17l-0.13 -0.22zm-0.08 0.34l-0.13 -0.22 0.21 -0.12 0.13 0.22 -0.21 0.12zm0 0c-0.06,0.03 -0.13,0.01 -0.17,-0.05 -0.03,-0.06 -0.01,-0.13 0.04,-0.17l0.13 0.22zm-0.76 0.1c0.06,-0.03 0.13,0 0.16,0.06 0.03,0.07 0,0.14 -0.06,0.17l-0.1 -0.23zm-0.13 0.33l-0.09 -0.23 0.01 0 0.21 -0.1 0.1 0.23 -0.22 0.1 -0.01 0zm0 0c-0.06,0.03 -0.13,0 -0.15,-0.07 -0.03,-0.06 0,-0.13 0.06,-0.16l0.09 0.23zm-0.76 0.02c0.06,-0.02 0.13,0.01 0.15,0.07 0.03,0.07 -0.01,0.14 -0.07,0.16l-0.08 -0.23zm-0.15 0.31l-0.07 -0.24 0.12 -0.04 0.1 -0.03 0.08 0.23 -0.11 0.04 -0.12 0.04zm0 0c-0.07,0.02 -0.13,-0.02 -0.15,-0.09 -0.02,-0.06 0.01,-0.13 0.08,-0.15l0.07 0.24zm-0.76 -0.07c0.06,-0.01 0.12,0.03 0.14,0.09 0.02,0.07 -0.02,0.14 -0.09,0.15l-0.05 -0.24zm-0.19 0.29l-0.05 -0.25 0.23 -0.04 0.01 0 0.05 0.24 -0.02 0.01 -0.22 0.04zm0 0c-0.06,0.01 -0.13,-0.03 -0.14,-0.1 -0.01,-0.07 0.03,-0.13 0.09,-0.15l0.05 0.25zm-0.75 -0.15c0.07,-0.01 0.13,0.04 0.13,0.11 0.01,0.07 -0.04,0.13 -0.1,0.14l-0.03 -0.25zm-0.21 0.27l-0.03 -0.25 0.24 -0.02 0.03 0.25 -0.24 0.02zm0 0c-0.07,0 -0.13,-0.05 -0.13,-0.12 -0.01,-0.06 0.04,-0.13 0.1,-0.13l0.03 0.25zm-0.73 -0.24c0.06,0 0.12,0.06 0.12,0.13 0,0.07 -0.06,0.12 -0.12,0.12l0 -0.25zm-0.24 0.25l0 -0.25 0.24 0 0 0.25 -0.24 0zm0 0c-0.07,0 -0.12,-0.06 -0.12,-0.13 0,-0.07 0.05,-0.12 0.12,-0.12l0 0.25zm-0.71 -0.31c0.07,0 0.12,0.06 0.11,0.13 0,0.07 -0.06,0.12 -0.13,0.11l0.02 -0.24zm-0.26 0.21l0.03 -0.24 0.02 0 0.21 0.03 -0.02 0.24 -0.22 -0.02 -0.02 -0.01zm0 0c-0.07,-0.01 -0.11,-0.07 -0.1,-0.14 0.01,-0.07 0.07,-0.11 0.13,-0.1l-0.03 0.24zm-0.67 -0.39c0.07,0.02 0.11,0.08 0.1,0.15 -0.02,0.07 -0.08,0.11 -0.14,0.1l0.04 -0.25zm-0.28 0.19l0.06 -0.24 0.11 0.03 0.11 0.02 -0.04 0.25 -0.13 -0.03 -0.11 -0.03zm0 0c-0.07,-0.02 -0.11,-0.09 -0.09,-0.15 0.02,-0.07 0.08,-0.11 0.15,-0.09l-0.06 0.24zm-0.63 -0.46c0.07,0.02 0.1,0.09 0.08,0.16 -0.02,0.06 -0.08,0.1 -0.15,0.08l0.07 -0.24zm-0.3 0.15l0.08 -0.23 0.21 0.08 0.01 0 -0.07 0.24 -0.01 -0.01 -0.22 -0.08zm0 0c-0.06,-0.02 -0.09,-0.09 -0.07,-0.16 0.02,-0.06 0.09,-0.1 0.15,-0.07l-0.08 0.23zm-0.57 -0.52c0.06,0.03 0.09,0.1 0.06,0.16 -0.03,0.06 -0.1,0.09 -0.16,0.06l0.1 -0.22zm-0.31 0.11l0.1 -0.22 0.21 0.11 -0.1 0.22 -0.21 -0.11zm0 0c-0.06,-0.03 -0.09,-0.1 -0.06,-0.16 0.03,-0.07 0.1,-0.09 0.16,-0.06l-0.1 0.22zm-0.52 -0.59c0.06,0.04 0.08,0.11 0.05,0.17 -0.04,0.06 -0.11,0.08 -0.17,0.05l0.12 -0.22zm-0.32 0.08l0.13 -0.21 0.04 0.04 0.15 0.09 -0.12 0.22 -0.16 -0.1 -0.04 -0.04zm0 0c-0.06,-0.04 -0.08,-0.11 -0.04,-0.17 0.04,-0.06 0.11,-0.07 0.17,-0.04l-0.13 0.21zm-0.45 -0.64c0.05,0.04 0.06,0.12 0.02,0.17 -0.03,0.06 -0.11,0.07 -0.16,0.03l0.14 -0.2zm-0.33 0.04l0.15 -0.19 0.15 0.13 0.03 0.02 -0.14 0.2 -0.04 -0.03 -0.15 -0.13zm0 0c-0.05,-0.04 -0.06,-0.12 -0.02,-0.17 0.04,-0.06 0.11,-0.07 0.17,-0.02l-0.15 0.19zm-0.38 -0.69c0.05,0.05 0.05,0.13 0,0.18 -0.04,0.05 -0.12,0.05 -0.16,0l0.16 -0.18zm-0.33 0l0.16 -0.18 0.17 0.18 -0.16 0.18 -0.17 -0.18zm0 0c-0.05,-0.04 -0.05,-0.12 -0.01,-0.17 0.05,-0.05 0.12,-0.05 0.17,-0.01l-0.16 0.18zm-0.31 -0.73c0.05,0.05 0.04,0.13 -0.01,0.18 -0.05,0.04 -0.12,0.04 -0.17,-0.02l0.18 -0.16zm-0.33 -0.04l0.19 -0.15 0.04 0.06 0.1 0.13 -0.18 0.16 -0.1 -0.13 -0.05 -0.07zm0 0c-0.04,-0.05 -0.03,-0.13 0.02,-0.17 0.05,-0.04 0.13,-0.03 0.17,0.02l-0.19 0.15zm-0.22 -0.76c0.04,0.06 0.03,0.14 -0.03,0.18 -0.05,0.04 -0.13,0.02 -0.17,-0.03l0.2 -0.15zm-0.32 -0.07l0.2 -0.14 0.11 0.2 0.01 0.01 -0.2 0.15 -0.01 -0.02 -0.11 -0.2zm0 0c-0.04,-0.06 -0.02,-0.14 0.03,-0.17 0.06,-0.04 0.13,-0.02 0.17,0.03l-0.2 0.14zm-0.13 -0.78c0.03,0.06 0,0.13 -0.06,0.16 -0.06,0.03 -0.13,0.01 -0.16,-0.05l0.22 -0.11zm-0.32 -0.12l0.21 -0.11 0.11 0.23 -0.22 0.11 -0.1 -0.23zm0 0c-0.03,-0.06 -0.01,-0.13 0.05,-0.16 0.06,-0.04 0.13,-0.01 0.16,0.05l-0.21 0.11zm-0.04 -0.79c0.02,0.06 -0.01,0.13 -0.07,0.16 -0.06,0.02 -0.13,-0.01 -0.16,-0.08l0.23 -0.08zm-0.3 -0.16l0.22 -0.08 0.03 0.1 0.05 0.14 -0.23 0.08 -0.05 -0.14 -0.02 -0.1zm0 0c-0.02,-0.06 0.01,-0.13 0.07,-0.16 0.07,-0.02 0.13,0.02 0.15,0.08l-0.22 0.08zm0.04 -0.79c0.02,0.06 -0.02,0.13 -0.08,0.15 -0.07,0.02 -0.13,-0.02 -0.15,-0.09l0.23 -0.06zm-0.28 -0.19l0.24 -0.05 0.04 0.24 0 0 -0.23 0.06 0 -0.01 -0.05 -0.24zm0 0c-0.01,-0.07 0.03,-0.13 0.1,-0.15 0.06,-0.01 0.13,0.03 0.14,0.1l-0.24 0.05zm0.14 -0.78c0.01,0.07 -0.04,0.13 -0.1,0.14 -0.07,0 -0.13,-0.05 -0.14,-0.11l0.24 -0.03zm-0.25 -0.22l0.23 -0.03 0.02 0.25 -0.24 0.03 -0.01 -0.25zm0 0c-0.01,-0.07 0.04,-0.13 0.1,-0.14 0.07,-0.01 0.13,0.04 0.13,0.11l-0.23 0.03zm0.22 -0.76c0,0.06 -0.05,0.12 -0.12,0.12 -0.06,0 -0.12,-0.06 -0.12,-0.12l0.24 0zm-0.23 -0.26l0.24 0.01 0 0.04 -0.01 0.21 -0.24 0 0.01 -0.23 0 -0.03zm0 0c0.01,-0.07 0.06,-0.12 0.13,-0.12 0.06,0.01 0.11,0.06 0.11,0.13l-0.24 -0.01zm0.31 -0.73c0,0.07 -0.06,0.12 -0.13,0.12 -0.06,-0.01 -0.11,-0.07 -0.1,-0.14l0.23 0.02zm-0.19 -0.27l0.23 0.03 -0.02 0.15 -0.02 0.09 -0.23 -0.02 0.01 -0.1 0.03 -0.15zm0 0c0.01,-0.07 0.07,-0.12 0.13,-0.11 0.07,0.01 0.11,0.08 0.1,0.14l-0.23 -0.03zm0.39 -0.68c-0.02,0.06 -0.09,0.1 -0.15,0.09 -0.06,-0.02 -0.1,-0.09 -0.09,-0.16l0.24 0.07zm-0.17 -0.31l0.23 0.07 -0.06 0.24 -0.24 -0.07 0.07 -0.24zm0 0c0.02,-0.06 0.09,-0.1 0.15,-0.09 0.06,0.02 0.1,0.09 0.08,0.16l-0.23 -0.07zm0.47 -0.63c-0.02,0.07 -0.09,0.1 -0.15,0.08 -0.07,-0.03 -0.1,-0.1 -0.07,-0.16l0.22 0.08zm-0.13 -0.32l0.22 0.1 0 0 -0.09 0.22 -0.22 -0.08 0.09 -0.24 0 0zm0 0c0.03,-0.06 0.1,-0.09 0.16,-0.06 0.06,0.02 0.09,0.1 0.06,0.16l-0.22 -0.1zm0.54 -0.56c-0.03,0.06 -0.1,0.08 -0.16,0.05 -0.06,-0.03 -0.09,-0.11 -0.06,-0.17l0.22 0.12zm-0.09 -0.34l0.2 0.12 -0.07 0.14 -0.04 0.08 -0.22 -0.12 0.05 -0.09 0.08 -0.13zm0 0c0.03,-0.06 0.1,-0.08 0.16,-0.05 0.06,0.04 0.08,0.11 0.04,0.17l-0.2 -0.12zm0.59 -0.49c-0.04,0.05 -0.12,0.07 -0.17,0.03 -0.05,-0.04 -0.07,-0.12 -0.03,-0.18l0.2 0.15zm-0.06 -0.35l0.2 0.15 -0.14 0.2 -0.2 -0.15 0.14 -0.2zm0 0c0.04,-0.05 0.12,-0.07 0.17,-0.03 0.06,0.04 0.07,0.12 0.03,0.18l-0.2 -0.15zm0.65 -0.42c-0.04,0.05 -0.12,0.06 -0.17,0.01 -0.05,-0.04 -0.05,-0.12 -0.01,-0.17l0.18 0.16zm-0.01 -0.35l0.17 0.17 -0.02 0.02 -0.14 0.16 -0.18 -0.16 0.14 -0.17 0.03 -0.02zm0 0c0.04,-0.05 0.12,-0.05 0.16,-0.01 0.05,0.05 0.05,0.13 0.01,0.18l-0.17 -0.17zm0.68 -0.35c-0.04,0.05 -0.12,0.05 -0.17,0 -0.04,-0.05 -0.04,-0.13 0.01,-0.18l0.16 0.18zm0.02 -0.34l0.16 0.19 -0.13 0.11 -0.05 0.04 -0.16 -0.18 0.05 -0.04 0.13 -0.12zm0 0c0.05,-0.05 0.13,-0.04 0.17,0.01 0.05,0.05 0.04,0.13 -0.01,0.18l-0.16 -0.19zm0.72 -0.26c-0.05,0.04 -0.13,0.02 -0.17,-0.03 -0.03,-0.06 -0.02,-0.14 0.03,-0.18l0.14 0.21zm0.06 -0.35l0.14 0.21 -0.2 0.14 -0.14 -0.21 0.2 -0.14zm0 0c0.05,-0.04 0.13,-0.02 0.17,0.03 0.04,0.06 0.02,0.14 -0.03,0.18l-0.14 -0.21zm0.74 -0.17c-0.05,0.03 -0.13,0.01 -0.16,-0.05 -0.03,-0.06 -0.01,-0.14 0.04,-0.17l0.12 0.22zm0.1 -0.34l0.11 0.22 -0.03 0.01 -0.18 0.11 -0.12 -0.22 0.19 -0.11 0.03 -0.01zm0 0c0.06,-0.03 0.13,-0.01 0.16,0.05 0.03,0.06 0.01,0.14 -0.05,0.17l-0.11 -0.22zm0.76 -0.09c-0.06,0.03 -0.13,0 -0.16,-0.06 -0.03,-0.07 0,-0.14 0.06,-0.17l0.1 0.23zm0.12 -0.32l0.09 0.23 -0.14 0.05 -0.07 0.04 -0.1 -0.23 0.08 -0.04 0.14 -0.05zm0 0c0.07,-0.03 0.14,0 0.16,0.06 0.02,0.07 0,0.14 -0.07,0.17l-0.09 -0.23zm0.76 -0.01c-0.06,0.02 -0.13,-0.02 -0.15,-0.09 -0.01,-0.06 0.02,-0.13 0.08,-0.15l0.07 0.24zm0.17 -0.31l0.06 0.24 -0.23 0.07 -0.07 -0.24 0.24 -0.07zm0 0c0.06,-0.02 0.13,0.02 0.14,0.09 0.02,0.06 -0.01,0.13 -0.08,0.15l-0.06 -0.24zm0.75 0.08c-0.06,0.02 -0.12,-0.03 -0.14,-0.1 -0.01,-0.06 0.03,-0.13 0.1,-0.14l0.04 0.24zm0.19 -0.28l0.05 0.24 -0.24 0.04 -0.04 -0.24 0.23 -0.04zm0 0c0.07,-0.02 0.13,0.03 0.14,0.09 0.02,0.07 -0.02,0.14 -0.09,0.15l-0.05 -0.24zm0.75 0.16c-0.06,0.01 -0.12,-0.04 -0.13,-0.11 0,-0.07 0.04,-0.13 0.11,-0.14l0.02 0.25zm0.22 -0.27l0.02 0.25 -0.03 0 -0.21 0.02 -0.02 -0.25 0.22 -0.02 0.02 0zm0 0c0.07,0 0.13,0.05 0.13,0.12 0,0.07 -0.05,0.13 -0.11,0.13l-0.02 -0.25z"/>
  </g>
  <g>
   <g id="_1643770440384">
    <path class="fil5" d="M25.44 14.88l-2.28 0c-0.19,0 -0.37,-0.11 -0.47,-0.28 -0.1,-0.17 -0.1,-0.38 0,-0.55l1.14 -1.97c0.1,-0.17 0.27,-0.27 0.47,-0.27 0.2,0 0.38,0.1 0.48,0.27l1.14 1.97c0.1,0.17 0.1,0.38 0,0.55 -0.1,0.17 -0.28,0.28 -0.48,0.28zm-1.14 -2.92c-0.14,0 -0.27,0.08 -0.34,0.2l-1.14 1.97c-0.07,0.12 -0.07,0.27 0,0.39 0.08,0.13 0.2,0.2 0.34,0.2l2.28 0c0.14,0 0.27,-0.07 0.34,-0.2 0.07,-0.12 0.07,-0.27 0,-0.39l-1.14 -1.97c-0.07,-0.12 -0.2,-0.2 -0.34,-0.2zm1.38 2.18l-1.1 -1.9c-0.06,-0.1 -0.16,-0.16 -0.28,-0.16 -0.11,0 -0.22,0.06 -0.28,0.16l-1.09 1.9c-0.06,0.1 -0.06,0.22 0,0.32 0.05,0.1 0.16,0.16 0.27,0.16l2.2 0c0.12,0 0.22,-0.06 0.28,-0.16 0.06,-0.1 0.06,-0.22 0,-0.32zm-1.58 -1.31c0,-0.11 0.09,-0.2 0.2,-0.2 0.11,0 0.2,0.09 0.2,0.2l0 0.65c0,0.11 -0.09,0.2 -0.2,0.2 -0.11,0 -0.2,-0.09 -0.2,-0.2l0 -0.65zm0.2 1.43c-0.11,0 -0.2,-0.09 -0.2,-0.2 0,-0.11 0.09,-0.2 0.2,-0.2 0.11,0 0.21,0.09 0.21,0.2 0,0.11 -0.1,0.2 -0.21,0.2z"/>
   </g>
   <g id="_1643770438912">
   </g>
   <g id="_1643770438080">
   </g>
   <g id="_1643770438656">
   </g>
   <g id="_1643770439936">
   </g>
   <g id="_1643770436448">
   </g>
   <g id="_1643770437088">
   </g>
   <g id="_1643770437472">
   </g>
   <g id="_1643770437440">
   </g>
   <g id="_1643770434208">
   </g>
   <g id="_1643770435392">
   </g>
   <g id="_1643770435808">
   </g>
   <g id="_1643770433760">
   </g>
   <g id="_1643770432160">
   </g>
   <g id="_1643770431936">
   </g>
   <g id="_1643770433376">
   </g>
  </g>
  <g>
   <g id="_1643770448896">
    <path class="fil5" d="M3.62 14.88l-2.28 0c-0.2,0 -0.38,-0.11 -0.48,-0.28 -0.1,-0.17 -0.1,-0.38 0,-0.55l1.14 -1.97c0.1,-0.17 0.28,-0.27 0.48,-0.27 0.2,0 0.37,0.1 0.47,0.27l1.14 1.97c0.1,0.17 0.1,0.38 0,0.55 -0.1,0.17 -0.28,0.28 -0.47,0.28zm-1.14 -2.92c-0.14,0 -0.27,0.08 -0.34,0.2l-1.14 1.97c-0.07,0.12 -0.07,0.27 0,0.39 0.07,0.13 0.2,0.2 0.34,0.2l2.28 0c0.14,0 0.26,-0.07 0.34,-0.2 0.07,-0.12 0.07,-0.27 0,-0.39l-1.14 -1.97c-0.07,-0.12 -0.2,-0.2 -0.34,-0.2zm1.37 2.18l-1.09 -1.9c-0.06,-0.1 -0.17,-0.16 -0.28,-0.16 -0.12,0 -0.22,0.06 -0.28,0.16l-1.1 1.9c-0.06,0.1 -0.06,0.22 0,0.32 0.06,0.1 0.16,0.16 0.28,0.16l2.2 0c0.11,0 0.22,-0.06 0.27,-0.16 0.06,-0.1 0.06,-0.22 0,-0.32zm-1.57 -1.31c0,-0.11 0.09,-0.2 0.2,-0.2 0.11,0 0.2,0.09 0.2,0.2l0 0.65c0,0.11 -0.09,0.2 -0.2,0.2 -0.11,0 -0.2,-0.09 -0.2,-0.2l0 -0.65zm0.2 1.43c-0.11,0 -0.21,-0.09 -0.21,-0.2 0,-0.11 0.1,-0.2 0.21,-0.2 0.11,0 0.2,0.09 0.2,0.2 0,0.11 -0.09,0.2 -0.2,0.2z"/>
   </g>
   <g id="_1643770448288">
   </g>
   <g id="_1643770446656">
   </g>
   <g id="_1643770448096">
   </g>
   <g id="_1643770447840">
   </g>
   <g id="_1643770446592">
   </g>
   <g id="_1643770444256">
   </g>
   <g id="_1643770445920">
   </g>
   <g id="_1643770444352">
   </g>
   <g id="_1643770445088">
   </g>
   <g id="_1643770442400">
   </g>
   <g id="_1643770443616">
   </g>
   <g id="_1643770443968">
   </g>
   <g id="_1643770440192">
   </g>
   <g id="_1643770440800">
   </g>
   <g id="_1643770440832">
   </g>
  </g>
 </g>
</svg>
