<?xml version="1.0" encoding="UTF-8"?>
<!DOCTYPE svg PUBLIC "-//W3C//DTD SVG 1.1//EN" "http://www.w3.org/Graphics/SVG/1.1/DTD/svg11.dtd">
<!-- Creator: CorelDRAW 2019 (64-Bit) -->
<svg xmlns="http://www.w3.org/2000/svg" xml:space="preserve" width="448px" height="448px" version="1.1" style="shape-rendering:geometricPrecision; text-rendering:geometricPrecision; image-rendering:optimizeQuality; fill-rule:evenodd; clip-rule:evenodd"
viewBox="0 0 26.62 26.62"
 xmlns:xlink="http://www.w3.org/1999/xlink"
 xmlns:xodm="http://www.corel.com/coreldraw/odm/2003">
 <defs>
  <style type="text/css">
   <![CDATA[
    .fil5 {fill:#FEFEFE}
    .fil2 {fill:#FEFEFE;fill-rule:nonzero}
    .fil3 {fill:#373435;fill-rule:nonzero}
    .fil1 {fill:#FAC02F;fill-rule:nonzero}
    .fil0 {fill:#404241;fill-rule:nonzero}
    .fil4 {fill:white;fill-rule:nonzero}
   ]]>
  </style>
 </defs>
 <g id="Layer_x0020_1">
  <metadata id="CorelCorpID_0Corel-Layer"/>
  <path class="fil0" d="M26.62 13.31c0,7.35 -5.96,13.31 -13.31,13.31 -7.35,0 -13.31,-5.96 -13.31,-13.31 0,-7.35 5.96,-13.31 13.31,-13.31 7.35,0 13.31,5.96 13.31,13.31z"/>
  <path class="fil1" d="M21.2 13.31c0,4.36 -3.53,7.89 -7.89,7.89 -4.36,0 -7.89,-3.53 -7.89,-7.89 0,-4.36 3.53,-7.89 7.89,-7.89 4.36,0 7.89,3.53 7.89,7.89z"/>
  <polygon class="fil0" points="10.54,6.93 10.81,7.77 11.7,7.77 10.98,8.29 11.26,9.13 10.54,8.61 9.83,9.13 10.1,8.29 9.38,7.77 10.27,7.77 "/>
  <polygon class="fil0" points="16.29,6.93 16.57,7.77 17.45,7.77 16.74,8.29 17.01,9.13 16.29,8.61 15.58,9.13 15.85,8.29 15.14,7.77 16.02,7.77 "/>
  <polygon class="fil0" points="13.42,6.27 13.69,7.11 14.57,7.11 13.86,7.63 14.13,8.47 13.42,7.95 12.7,8.47 12.98,7.63 12.26,7.11 13.14,7.11 "/>
  <path class="fil2" d="M2.61 11.23c-0.01,0 -0.02,-0.01 -0.03,-0.01 -0.07,-0.01 -0.11,-0.08 -0.1,-0.15 0.28,-1.34 0.79,-2.6 1.53,-3.75 0.04,-0.06 0.12,-0.08 0.19,-0.04 0.06,0.04 0.07,0.12 0.04,0.19 -0.73,1.12 -1.23,2.35 -1.5,3.65 -0.01,0.06 -0.07,0.11 -0.13,0.11z"/>
  <path class="fil2" d="M4.15 19.39c-0.05,0 -0.09,-0.02 -0.11,-0.06 -0.71,-1.08 -1.21,-2.27 -1.5,-3.52 -0.02,-0.07 0.03,-0.14 0.1,-0.16 0.07,-0.02 0.14,0.03 0.16,0.1 0.28,1.22 0.77,2.38 1.46,3.44 0.04,0.06 0.02,0.14 -0.04,0.18 -0.02,0.01 -0.05,0.02 -0.07,0.02z"/>
  <path class="fil2" d="M22.47 19.39c-0.02,0 -0.05,-0.01 -0.07,-0.02 -0.06,-0.04 -0.08,-0.12 -0.04,-0.18 0.69,-1.07 1.18,-2.23 1.47,-3.46 0.01,-0.07 0.08,-0.12 0.15,-0.1 0.08,0.02 0.12,0.09 0.1,0.16 -0.29,1.26 -0.79,2.45 -1.5,3.54 -0.02,0.04 -0.07,0.06 -0.11,0.06z"/>
  <path class="fil2" d="M24.01 11.23c-0.07,0 -0.12,-0.05 -0.13,-0.11 -0.27,-1.3 -0.77,-2.53 -1.5,-3.65 -0.04,-0.07 -0.02,-0.15 0.04,-0.19 0.06,-0.04 0.14,-0.02 0.18,0.04 0.74,1.15 1.26,2.41 1.54,3.75 0.01,0.07 -0.04,0.14 -0.11,0.15 -0.01,0 -0.02,0.01 -0.02,0.01z"/>
  <path class="fil3" d="M10.78 11.72l0 2.18c0,0.18 -0.02,0.34 -0.07,0.47 -0.06,0.13 -0.13,0.24 -0.22,0.32 -0.09,0.09 -0.2,0.15 -0.33,0.19 -0.13,0.04 -0.27,0.06 -0.42,0.06 -0.15,0 -0.29,-0.02 -0.42,-0.06 -0.13,-0.04 -0.24,-0.1 -0.33,-0.19 -0.09,-0.08 -0.16,-0.19 -0.22,-0.32 -0.05,-0.13 -0.07,-0.29 -0.07,-0.47l0 -2.18 0.64 0 0 2.18c0,0.1 0.01,0.19 0.03,0.26 0.01,0.06 0.04,0.11 0.07,0.15 0.04,0.04 0.08,0.06 0.13,0.07 0.05,0.02 0.11,0.03 0.17,0.03 0.07,0 0.13,-0.01 0.18,-0.03 0.05,-0.01 0.09,-0.03 0.12,-0.07 0.03,-0.04 0.06,-0.09 0.08,-0.15 0.01,-0.07 0.02,-0.16 0.02,-0.26l0 -2.18 0.64 0z"/>
  <path id="1" class="fil3" d="M12.61 14.06c0,-0.05 -0.01,-0.1 -0.02,-0.15 -0.01,-0.04 -0.03,-0.08 -0.06,-0.12 -0.03,-0.04 -0.08,-0.08 -0.14,-0.11 -0.06,-0.04 -0.14,-0.08 -0.24,-0.12 -0.12,-0.04 -0.23,-0.09 -0.34,-0.15 -0.11,-0.06 -0.21,-0.13 -0.29,-0.21 -0.08,-0.08 -0.14,-0.17 -0.19,-0.27 -0.05,-0.11 -0.08,-0.23 -0.08,-0.36 0,-0.14 0.03,-0.26 0.08,-0.37 0.05,-0.11 0.12,-0.2 0.21,-0.28 0.08,-0.07 0.19,-0.13 0.31,-0.18 0.13,-0.04 0.26,-0.06 0.41,-0.06 0.15,0 0.29,0.02 0.41,0.07 0.12,0.05 0.23,0.12 0.31,0.21 0.09,0.08 0.16,0.19 0.2,0.3 0.05,0.13 0.07,0.26 0.07,0.4l-0.63 0c0,-0.07 -0.01,-0.13 -0.03,-0.18 -0.01,-0.06 -0.03,-0.11 -0.06,-0.15 -0.03,-0.04 -0.07,-0.07 -0.11,-0.09 -0.05,-0.02 -0.11,-0.03 -0.17,-0.03 -0.06,0 -0.12,0 -0.16,0.02 -0.04,0.02 -0.08,0.05 -0.11,0.08 -0.03,0.03 -0.05,0.07 -0.06,0.12 -0.02,0.04 -0.03,0.09 -0.03,0.14 0,0.05 0.01,0.1 0.04,0.14 0.02,0.04 0.05,0.08 0.09,0.12 0.04,0.04 0.09,0.07 0.15,0.1 0.06,0.03 0.13,0.06 0.2,0.1 0.15,0.05 0.27,0.11 0.39,0.17 0.1,0.07 0.2,0.14 0.27,0.23 0.07,0.08 0.13,0.17 0.17,0.28 0.03,0.1 0.05,0.22 0.05,0.35 0,0.14 -0.02,0.26 -0.07,0.37 -0.04,0.11 -0.11,0.2 -0.19,0.27 -0.09,0.08 -0.19,0.14 -0.31,0.18 -0.12,0.04 -0.26,0.06 -0.41,0.06 -0.13,0 -0.27,-0.02 -0.4,-0.07 -0.13,-0.04 -0.25,-0.1 -0.35,-0.19 -0.1,-0.08 -0.19,-0.19 -0.25,-0.32 -0.06,-0.13 -0.09,-0.29 -0.09,-0.47l0.64 0c0,0.1 0.01,0.18 0.03,0.25 0.01,0.06 0.04,0.12 0.08,0.16 0.04,0.04 0.09,0.07 0.14,0.09 0.06,0.02 0.13,0.03 0.2,0.03 0.06,0 0.11,-0.01 0.16,-0.03 0.04,-0.02 0.07,-0.04 0.1,-0.08 0.03,-0.03 0.05,-0.06 0.06,-0.11 0.01,-0.04 0.02,-0.09 0.02,-0.14z"/>
  <polygon id="2" class="fil3" points="15.31,13.52 14.31,13.52 14.31,14.36 15.49,14.36 15.49,14.89 13.68,14.89 13.68,11.72 15.49,11.72 15.49,12.26 14.31,12.26 14.31,13.01 15.31,13.01 "/>
  <path id="3" class="fil3" d="M15.86 14.89l0 -3.17 0.84 0c0.18,0 0.35,0.03 0.5,0.09 0.15,0.06 0.28,0.15 0.38,0.27 0.11,0.11 0.19,0.25 0.25,0.42 0.06,0.16 0.09,0.35 0.09,0.56l0 0.5c0,0.21 -0.03,0.4 -0.09,0.56 -0.05,0.17 -0.14,0.31 -0.25,0.42 -0.1,0.12 -0.23,0.2 -0.38,0.26 -0.15,0.06 -0.32,0.09 -0.51,0.09l-0.83 0zm0.64 -2.63l0 2.1 0.19 0c0.12,0 0.21,-0.01 0.29,-0.04 0.07,-0.03 0.13,-0.08 0.18,-0.15 0.04,-0.06 0.07,-0.14 0.09,-0.25 0.02,-0.1 0.03,-0.22 0.03,-0.36l0 -0.5c0,-0.14 -0.01,-0.27 -0.03,-0.37 -0.02,-0.1 -0.05,-0.18 -0.09,-0.25 -0.05,-0.06 -0.11,-0.11 -0.18,-0.14 -0.08,-0.03 -0.17,-0.04 -0.28,-0.04l-0.2 0z"/>
  <g>
   <path class="fil4" d="M13.31 4.83c-0.07,0 -0.12,-0.05 -0.12,-0.12 0,-0.07 0.05,-0.12 0.12,-0.12l0 0.24zm0.24 -0.24l0 0.25 -0.24 -0.01 0 -0.24 0.24 0zm0 0c0.06,0 0.11,0.06 0.11,0.13 0,0.06 -0.05,0.12 -0.11,0.12l0 -0.25zm0.7 0.3c-0.07,-0.01 -0.12,-0.07 -0.11,-0.14 0.01,-0.07 0.06,-0.12 0.13,-0.11l-0.02 0.25zm0.25 -0.22l-0.02 0.25 -0.23 -0.03 0.02 -0.25 0.23 0.03zm0 0c0.07,0.01 0.12,0.07 0.11,0.14 0,0.06 -0.06,0.11 -0.13,0.11l0.02 -0.25zm0.67 0.37c-0.06,-0.01 -0.1,-0.08 -0.09,-0.14 0.01,-0.07 0.07,-0.11 0.14,-0.1l-0.05 0.24zm0.28 -0.19l-0.05 0.25 -0.23 -0.06 0.05 -0.24 0.23 0.05zm0 0c0.06,0.02 0.11,0.08 0.09,0.15 -0.01,0.07 -0.07,0.11 -0.14,0.1l0.05 -0.25zm0.63 0.45c-0.06,-0.02 -0.1,-0.09 -0.08,-0.15 0.02,-0.07 0.08,-0.11 0.15,-0.09l-0.07 0.24zm0.3 -0.16l-0.08 0.24 -0.07 -0.03 -0.15 -0.05 0.07 -0.24 0.15 0.06 0.08 0.02zm0 0c0.06,0.03 0.09,0.1 0.07,0.16 -0.02,0.07 -0.09,0.1 -0.15,0.08l0.08 -0.24zm0.57 0.52c-0.06,-0.03 -0.09,-0.1 -0.06,-0.17 0.02,-0.06 0.09,-0.09 0.15,-0.06l-0.09 0.23zm0.31 -0.12l-0.1 0.22 -0.17 -0.09 -0.04 -0.01 0.09 -0.23 0.05 0.02 0.17 0.09zm0 0c0.06,0.02 0.09,0.1 0.06,0.16 -0.03,0.06 -0.1,0.09 -0.16,0.06l0.1 -0.22zm0.52 0.57c-0.06,-0.04 -0.08,-0.11 -0.04,-0.17 0.03,-0.06 0.1,-0.08 0.16,-0.05l-0.12 0.22zm0.32 -0.09l-0.12 0.22 -0.2 -0.13 0.12 -0.22 0.2 0.13zm0 0c0.06,0.04 0.08,0.11 0.04,0.17 -0.03,0.06 -0.1,0.08 -0.16,0.05l0.12 -0.22zm0.46 0.64c-0.06,-0.04 -0.07,-0.12 -0.03,-0.18 0.04,-0.05 0.11,-0.07 0.17,-0.03l-0.14 0.21zm0.33 -0.05l-0.15 0.19 -0.04 -0.03 -0.14 -0.11 0.14 -0.21 0.15 0.13 0.04 0.03zm0 0c0.05,0.04 0.06,0.12 0.02,0.17 -0.04,0.06 -0.12,0.07 -0.17,0.02l0.15 -0.19zm0.38 0.68c-0.05,-0.05 -0.05,-0.13 -0.01,-0.18 0.05,-0.05 0.12,-0.05 0.17,-0.01l-0.16 0.19zm0.33 -0.01l-0.16 0.18 -0.13 -0.14 -0.04 -0.03 0.16 -0.19 0.04 0.04 0.13 0.14zm0 0c0.05,0.05 0.05,0.12 0.01,0.17 -0.05,0.05 -0.12,0.05 -0.17,0.01l0.16 -0.18zm0.31 0.72c-0.04,-0.06 -0.03,-0.13 0.02,-0.18 0.04,-0.04 0.12,-0.04 0.16,0.01l-0.18 0.17zm0.33 0.03l-0.18 0.16 -0.15 -0.19 0.18 -0.17 0.15 0.2zm0 0c0.05,0.05 0.04,0.13 -0.01,0.17 -0.05,0.04 -0.12,0.04 -0.17,-0.01l0.18 -0.16zm0.23 0.75c-0.03,-0.06 -0.02,-0.13 0.03,-0.17 0.06,-0.04 0.13,-0.03 0.17,0.03l-0.2 0.14zm0.33 0.07l-0.2 0.13 -0.04 -0.06 -0.09 -0.14 0.2 -0.14 0.09 0.14 0.04 0.07zm0 0c0.04,0.06 0.02,0.13 -0.04,0.17 -0.05,0.04 -0.13,0.02 -0.16,-0.04l0.2 -0.13zm0.15 0.77c-0.04,-0.06 -0.02,-0.13 0.04,-0.16 0.06,-0.04 0.13,-0.02 0.16,0.04l-0.2 0.12zm0.31 0.11l-0.21 0.11 -0.1 -0.2 0 -0.02 0.2 -0.12 0.01 0.03 0.1 0.2zm0 0c0.03,0.06 0,0.14 -0.06,0.17 -0.05,0.03 -0.13,0 -0.15,-0.06l0.21 -0.11zm0.05 0.79c-0.02,-0.07 0.01,-0.14 0.07,-0.16 0.06,-0.03 0.13,0 0.16,0.07l-0.23 0.09zm0.31 0.14l-0.23 0.09 -0.08 -0.23 0.23 -0.09 0.08 0.23zm0 0c0.02,0.07 -0.01,0.14 -0.07,0.16 -0.06,0.03 -0.13,-0.01 -0.16,-0.07l0.23 -0.09zm-0.04 0.79c-0.02,-0.06 0.02,-0.13 0.09,-0.15 0.06,-0.02 0.12,0.02 0.14,0.09l-0.23 0.06zm0.28 0.19l-0.23 0.05 -0.01 -0.09 -0.04 -0.15 0.23 -0.06 0.04 0.16 0.01 0.09zm0 0c0.02,0.06 -0.02,0.13 -0.09,0.14 -0.06,0.02 -0.13,-0.03 -0.14,-0.09l0.23 -0.05zm-0.12 0.78c-0.01,-0.07 0.03,-0.14 0.1,-0.15 0.06,-0.01 0.12,0.04 0.14,0.11l-0.24 0.04zm0.26 0.21l-0.24 0.03 -0.02 -0.22 0 -0.02 0.24 -0.04 0 0.04 0.02 0.21zm0 0c0,0.07 -0.04,0.13 -0.11,0.14 -0.06,0 -0.12,-0.05 -0.13,-0.11l0.24 -0.03zm-0.21 0.75c0,-0.06 0.05,-0.12 0.11,-0.12 0.07,0 0.12,0.06 0.12,0.12l-0.23 0zm0.23 0.25l-0.24 0 0.01 -0.25 0.23 0 0 0.25zm0 0c0,0.07 -0.06,0.13 -0.12,0.13 -0.07,0 -0.12,-0.06 -0.12,-0.13l0.24 0zm-0.3 0.73c0.01,-0.07 0.07,-0.12 0.13,-0.11 0.07,0.01 0.11,0.07 0.11,0.13l-0.24 -0.02zm0.21 0.27l-0.24 -0.03 0.03 -0.24 0.24 0.02 -0.03 0.25zm0 0c-0.01,0.07 -0.07,0.12 -0.13,0.11 -0.07,-0.01 -0.12,-0.07 -0.11,-0.14l0.24 0.03zm-0.38 0.69c0.01,-0.07 0.07,-0.11 0.14,-0.1 0.06,0.02 0.1,0.08 0.09,0.15l-0.23 -0.05zm0.17 0.29l-0.23 -0.06 0.03 -0.12 0.03 -0.11 0.23 0.05 -0.03 0.12 -0.03 0.12zm0 0c-0.02,0.07 -0.09,0.11 -0.15,0.09 -0.06,-0.02 -0.1,-0.08 -0.08,-0.15l0.23 0.06zm-0.46 0.63c0.03,-0.06 0.1,-0.09 0.16,-0.07 0.06,0.03 0.09,0.1 0.07,0.16l-0.23 -0.09zm0.14 0.32l-0.23 -0.09 0.09 -0.23 0.23 0.09 -0.09 0.23zm0 0c-0.03,0.06 -0.1,0.1 -0.16,0.07 -0.06,-0.02 -0.09,-0.09 -0.07,-0.16l0.23 0.09zm-0.53 0.57c0.03,-0.06 0.11,-0.08 0.16,-0.05 0.06,0.03 0.09,0.1 0.06,0.16l-0.22 -0.11zm0.11 0.33l-0.22 -0.11 0.11 -0.22 0.22 0.11 -0.11 0.22zm0 0c-0.03,0.06 -0.11,0.09 -0.16,0.06 -0.06,-0.03 -0.09,-0.11 -0.06,-0.17l0.22 0.11zm-0.59 0.51c0.03,-0.06 0.11,-0.08 0.16,-0.04 0.06,0.04 0.08,0.11 0.04,0.17l-0.2 -0.13zm0.06 0.34l-0.2 -0.14 0.09 -0.13 0.05 -0.07 0.2 0.13 -0.05 0.09 -0.09 0.12zm0 0c-0.04,0.05 -0.11,0.07 -0.17,0.03 -0.05,-0.04 -0.06,-0.12 -0.03,-0.17l0.2 0.14zm-0.63 0.43c0.04,-0.05 0.12,-0.06 0.17,-0.02 0.05,0.05 0.05,0.13 0.01,0.18l-0.18 -0.16zm0.02 0.34l-0.18 -0.16 0.16 -0.18 0.18 0.16 -0.16 0.18zm0 0c-0.04,0.05 -0.12,0.06 -0.17,0.02 -0.05,-0.05 -0.05,-0.13 -0.01,-0.18l0.18 0.16zm-0.68 0.36c0.05,-0.05 0.12,-0.05 0.17,0 0.05,0.05 0.04,0.13 0,0.17l-0.17 -0.17zm-0.01 0.35l-0.16 -0.19 0.02 -0.02 0.15 -0.14 0.17 0.17 -0.16 0.16 -0.02 0.02zm0 0c-0.05,0.04 -0.13,0.03 -0.17,-0.02 -0.04,-0.05 -0.04,-0.13 0.01,-0.17l0.16 0.19zm-0.71 0.27c0.05,-0.05 0.12,-0.04 0.16,0.02 0.04,0.05 0.03,0.13 -0.02,0.17l-0.14 -0.19zm-0.06 0.34l-0.13 -0.2 0.13 -0.1 0.06 -0.04 0.14 0.19 -0.06 0.05 -0.14 0.1zm0 0c-0.05,0.04 -0.12,0.02 -0.16,-0.03 -0.04,-0.06 -0.03,-0.13 0.03,-0.17l0.13 0.2zm-0.73 0.19c0.06,-0.04 0.13,-0.02 0.17,0.04 0.03,0.06 0.01,0.14 -0.05,0.17l-0.12 -0.21zm-0.09 0.33l-0.12 -0.21 0.21 -0.12 0.12 0.21 -0.21 0.12zm0 0c-0.05,0.03 -0.12,0.01 -0.16,-0.05 -0.03,-0.05 -0.01,-0.13 0.04,-0.16l0.12 0.21zm-0.75 0.1c0.06,-0.02 0.13,0 0.16,0.06 0.03,0.07 0,0.14 -0.06,0.17l-0.1 -0.23zm-0.12 0.33l-0.09 -0.23 0.01 0 0.2 -0.1 0.1 0.23 -0.21 0.1 -0.01 0zm0 0c-0.06,0.03 -0.13,-0.01 -0.15,-0.07 -0.03,-0.06 0,-0.13 0.06,-0.16l0.09 0.23zm-0.76 0.02c0.07,-0.03 0.13,0.01 0.16,0.07 0.02,0.07 -0.02,0.14 -0.08,0.16l-0.08 -0.23zm-0.15 0.3l-0.07 -0.23 0.12 -0.04 0.1 -0.03 0.08 0.23 -0.11 0.04 -0.12 0.03zm0 0c-0.06,0.02 -0.13,-0.02 -0.15,-0.08 -0.02,-0.07 0.02,-0.14 0.08,-0.15l0.07 0.23zm-0.76 -0.06c0.07,-0.02 0.13,0.02 0.15,0.09 0.01,0.07 -0.02,0.13 -0.09,0.15l-0.06 -0.24zm-0.18 0.28l-0.04 -0.24 0.22 -0.04 0 0 0.06 0.24 -0.02 0 -0.22 0.04zm0 0c-0.06,0.02 -0.13,-0.03 -0.14,-0.09 -0.01,-0.07 0.03,-0.14 0.1,-0.15l0.04 0.24zm-0.74 -0.15c0.07,0 0.12,0.05 0.13,0.12 0.01,0.06 -0.04,0.12 -0.11,0.13l-0.02 -0.25zm-0.21 0.27l-0.03 -0.25 0.24 -0.02 0.02 0.25 -0.23 0.02zm0 0c-0.07,0.01 -0.13,-0.04 -0.13,-0.11 -0.01,-0.07 0.04,-0.13 0.1,-0.14l0.03 0.25zm-0.73 -0.23c0.07,0 0.12,0.05 0.12,0.12 0,0.07 -0.05,0.13 -0.12,0.13l0 -0.25zm-0.24 0.24l0 -0.25 0.24 0.01 0 0.25 -0.24 -0.01zm0 0c-0.06,0 -0.11,-0.05 -0.11,-0.12 0,-0.07 0.05,-0.13 0.11,-0.13l0 0.25zm-0.69 -0.31c0.06,0.01 0.11,0.07 0.1,0.14 0,0.06 -0.06,0.11 -0.13,0.11l0.03 -0.25zm-0.27 0.22l0.04 -0.25 0.02 0.01 0.21 0.02 -0.03 0.25 -0.22 -0.03 -0.02 0zm0 0c-0.06,-0.01 -0.11,-0.08 -0.1,-0.14 0.01,-0.07 0.07,-0.12 0.14,-0.11l-0.04 0.25zm-0.66 -0.39c0.07,0.02 0.11,0.08 0.1,0.15 -0.02,0.06 -0.08,0.11 -0.14,0.09l0.04 -0.24zm-0.28 0.18l0.06 -0.24 0.11 0.04 0.11 0.02 -0.04 0.24 -0.13 -0.02 -0.11 -0.04zm0 0c-0.06,-0.01 -0.1,-0.08 -0.09,-0.15 0.02,-0.06 0.08,-0.1 0.15,-0.09l-0.06 0.24zm-0.62 -0.45c0.06,0.02 0.1,0.09 0.08,0.15 -0.02,0.07 -0.09,0.11 -0.15,0.09l0.07 -0.24zm-0.3 0.15l0.08 -0.23 0.21 0.08 0.01 0 -0.07 0.24 -0.02 -0.01 -0.21 -0.08zm0 0c-0.06,-0.02 -0.09,-0.09 -0.07,-0.16 0.02,-0.06 0.09,-0.1 0.15,-0.07l-0.08 0.23zm-0.56 -0.52c0.06,0.03 0.08,0.1 0.06,0.16 -0.03,0.07 -0.1,0.09 -0.16,0.06l0.1 -0.22zm-0.32 0.11l0.1 -0.22 0.22 0.11 -0.1 0.22 -0.22 -0.11zm0 0c-0.06,-0.02 -0.08,-0.1 -0.05,-0.16 0.02,-0.06 0.09,-0.09 0.15,-0.06l-0.1 0.22zm-0.51 -0.58c0.06,0.03 0.08,0.11 0.05,0.17 -0.04,0.06 -0.11,0.08 -0.17,0.04l0.12 -0.21zm-0.32 0.08l0.13 -0.21 0.05 0.03 0.14 0.1 -0.12 0.21 -0.15 -0.1 -0.05 -0.03zm0 0c-0.06,-0.04 -0.07,-0.12 -0.04,-0.17 0.04,-0.06 0.11,-0.08 0.17,-0.04l-0.13 0.21zm-0.45 -0.64c0.06,0.04 0.07,0.12 0.03,0.17 -0.04,0.06 -0.11,0.07 -0.17,0.03l0.14 -0.2zm-0.32 0.04l0.14 -0.19 0.15 0.13 0.03 0.02 -0.14 0.2 -0.03 -0.03 -0.15 -0.13zm0 0c-0.06,-0.04 -0.06,-0.12 -0.02,-0.17 0.04,-0.06 0.11,-0.07 0.16,-0.02l-0.14 0.19zm-0.38 -0.68c0.05,0.04 0.05,0.12 0.01,0.17 -0.05,0.05 -0.12,0.05 -0.17,0.01l0.16 -0.18zm-0.33 0l0.17 -0.18 0.16 0.18 -0.16 0.18 -0.17 -0.18zm0 0c-0.05,-0.05 -0.05,-0.13 0,-0.17 0.04,-0.05 0.12,-0.06 0.17,-0.01l-0.17 0.18zm-0.3 -0.73c0.04,0.06 0.04,0.13 -0.01,0.18 -0.05,0.04 -0.13,0.04 -0.17,-0.01l0.18 -0.17zm-0.33 -0.03l0.19 -0.16 0.04 0.07 0.1 0.12 -0.18 0.17 -0.11 -0.14 -0.04 -0.06zm0 0c-0.04,-0.06 -0.03,-0.14 0.02,-0.18 0.05,-0.04 0.13,-0.03 0.17,0.02l-0.19 0.16zm-0.22 -0.76c0.04,0.06 0.03,0.13 -0.03,0.17 -0.05,0.04 -0.12,0.03 -0.16,-0.03l0.19 -0.14zm-0.32 -0.07l0.2 -0.14 0.12 0.2 0 0.01 -0.19 0.14 -0.02 -0.02 -0.11 -0.19zm0 0c-0.03,-0.06 -0.02,-0.14 0.04,-0.17 0.05,-0.04 0.13,-0.02 0.16,0.03l-0.2 0.14zm-0.13 -0.78c0.03,0.06 0.01,0.14 -0.05,0.17 -0.06,0.03 -0.13,0 -0.16,-0.06l0.21 -0.11zm-0.31 -0.11l0.21 -0.11 0.1 0.22 -0.21 0.11 -0.1 -0.22zm0 0c-0.03,-0.06 -0.01,-0.14 0.05,-0.17 0.06,-0.03 0.13,0 0.16,0.06l-0.21 0.11zm-0.05 -0.79c0.03,0.06 0,0.13 -0.06,0.16 -0.07,0.02 -0.13,-0.01 -0.16,-0.07l0.22 -0.09zm-0.29 -0.16l0.22 -0.07 0.03 0.1 0.04 0.13 -0.22 0.09 -0.05 -0.15 -0.02 -0.1zm0 0c-0.02,-0.06 0.01,-0.13 0.07,-0.15 0.06,-0.02 0.13,0.01 0.15,0.08l-0.22 0.07zm0.04 -0.78c0.02,0.06 -0.02,0.13 -0.08,0.15 -0.07,0.02 -0.13,-0.02 -0.15,-0.09l0.23 -0.06zm-0.27 -0.19l0.23 -0.05 0.04 0.24 0 0 -0.23 0.06 0 -0.01 -0.04 -0.24zm0 0c-0.02,-0.07 0.02,-0.13 0.09,-0.15 0.06,-0.01 0.13,0.03 0.14,0.1l-0.23 0.05zm0.13 -0.77c0.01,0.06 -0.04,0.13 -0.1,0.13 -0.07,0.01 -0.13,-0.04 -0.13,-0.11l0.23 -0.02zm-0.25 -0.22l0.24 -0.03 0.01 0.25 -0.23 0.02 -0.02 -0.24zm0 0c-0.01,-0.07 0.04,-0.13 0.1,-0.14 0.07,-0.01 0.13,0.04 0.14,0.11l-0.24 0.03zm0.22 -0.76c0,0.07 -0.05,0.12 -0.11,0.12 -0.07,0 -0.12,-0.05 -0.12,-0.12l0.23 0zm-0.22 -0.25l0.23 0.01 0 0.03 -0.01 0.21 -0.23 0 0 -0.22 0.01 -0.03zm0 0c0,-0.07 0.05,-0.12 0.12,-0.12 0.07,0 0.12,0.06 0.11,0.13l-0.23 -0.01zm0.31 -0.72c-0.01,0.07 -0.07,0.11 -0.14,0.11 -0.06,-0.01 -0.11,-0.07 -0.1,-0.14l0.24 0.03zm-0.2 -0.28l0.23 0.04 -0.02 0.15 -0.01 0.09 -0.24 -0.03 0.01 -0.1 0.03 -0.15zm0 0c0.01,-0.07 0.07,-0.11 0.13,-0.1 0.07,0.01 0.11,0.07 0.1,0.14l-0.23 -0.04zm0.39 -0.67c-0.02,0.06 -0.09,0.1 -0.15,0.09 -0.06,-0.02 -0.1,-0.09 -0.08,-0.16l0.23 0.07zm-0.17 -0.3l0.23 0.06 -0.06 0.24 -0.23 -0.07 0.06 -0.23zm0 0c0.02,-0.07 0.09,-0.11 0.15,-0.09 0.06,0.02 0.1,0.08 0.08,0.15l-0.23 -0.06zm0.47 -0.63c-0.03,0.07 -0.09,0.1 -0.16,0.07 -0.06,-0.02 -0.09,-0.09 -0.06,-0.16l0.22 0.09zm-0.13 -0.32l0.22 0.1 -0.01 0 -0.08 0.22 -0.22 -0.09 0.09 -0.23 0 0zm0 0c0.02,-0.06 0.09,-0.09 0.15,-0.06 0.06,0.02 0.09,0.1 0.07,0.16l-0.22 -0.1zm0.53 -0.56c-0.03,0.06 -0.1,0.09 -0.16,0.06 -0.06,-0.04 -0.08,-0.11 -0.05,-0.17l0.21 0.11zm-0.09 -0.33l0.21 0.12 -0.08 0.13 -0.04 0.08 -0.21 -0.11 0.04 -0.09 0.08 -0.13zm0 0c0.03,-0.06 0.1,-0.08 0.16,-0.05 0.06,0.04 0.08,0.11 0.05,0.17l-0.21 -0.12zm0.59 -0.49c-0.04,0.05 -0.11,0.07 -0.17,0.03 -0.05,-0.04 -0.06,-0.12 -0.03,-0.17l0.2 0.14zm-0.06 -0.34l0.2 0.14 -0.14 0.2 -0.2 -0.14 0.14 -0.2zm0 0c0.04,-0.06 0.12,-0.07 0.17,-0.03 0.05,0.04 0.07,0.11 0.03,0.17l-0.2 -0.14zm0.65 -0.42c-0.05,0.05 -0.12,0.05 -0.17,0.01 -0.05,-0.04 -0.06,-0.12 -0.01,-0.17l0.18 0.16zm-0.02 -0.35l0.17 0.17 -0.02 0.02 -0.13 0.16 -0.18 -0.16 0.14 -0.17 0.02 -0.02zm0 0c0.05,-0.05 0.12,-0.05 0.17,-0.01 0.05,0.05 0.05,0.13 0,0.18l-0.17 -0.17zm0.68 -0.34c-0.04,0.05 -0.12,0.04 -0.17,-0.01 -0.04,-0.04 -0.04,-0.12 0.01,-0.17l0.16 0.18zm0.02 -0.35l0.16 0.19 -0.13 0.12 -0.05 0.04 -0.16 -0.18 0.05 -0.05 0.13 -0.12zm0 0c0.05,-0.04 0.13,-0.03 0.17,0.02 0.04,0.05 0.04,0.13 -0.01,0.17l-0.16 -0.19zm0.71 -0.25c-0.05,0.04 -0.12,0.02 -0.16,-0.03 -0.04,-0.06 -0.03,-0.14 0.03,-0.18l0.13 0.21zm0.06 -0.35l0.14 0.21 -0.2 0.14 -0.13 -0.21 0.19 -0.14zm0 0c0.06,-0.04 0.13,-0.02 0.17,0.03 0.04,0.06 0.02,0.14 -0.03,0.18l-0.14 -0.21zm0.74 -0.17c-0.06,0.03 -0.13,0.01 -0.16,-0.05 -0.03,-0.06 -0.01,-0.13 0.04,-0.17l0.12 0.22zm0.1 -0.34l0.11 0.22 -0.04 0.02 -0.17 0.1 -0.12 -0.22 0.19 -0.1 0.03 -0.02zm0 0c0.05,-0.03 0.13,-0.01 0.16,0.06 0.03,0.06 0,0.13 -0.05,0.16l-0.11 -0.22zm0.75 -0.09c-0.06,0.03 -0.13,0 -0.16,-0.06 -0.03,-0.06 0,-0.13 0.06,-0.16l0.1 0.22zm0.12 -0.32l0.09 0.23 -0.14 0.06 -0.07 0.03 -0.1 -0.22 0.08 -0.04 0.14 -0.06zm0 0c0.06,-0.02 0.13,0.01 0.16,0.07 0.02,0.06 -0.01,0.14 -0.07,0.16l-0.09 -0.23zm0.76 0c-0.07,0.02 -0.13,-0.02 -0.15,-0.09 -0.02,-0.06 0.02,-0.13 0.08,-0.15l0.07 0.24zm0.16 -0.31l0.07 0.24 -0.23 0.07 -0.07 -0.24 0.23 -0.07zm0 0c0.06,-0.02 0.13,0.02 0.15,0.09 0.01,0.06 -0.02,0.13 -0.08,0.15l-0.07 -0.24zm0.75 0.08c-0.06,0.02 -0.13,-0.03 -0.14,-0.09 -0.01,-0.07 0.03,-0.14 0.09,-0.15l0.05 0.24zm0.19 -0.28l0.04 0.24 -0.23 0.04 -0.05 -0.24 0.24 -0.04zm0 0c0.06,-0.01 0.13,0.03 0.14,0.1 0.01,0.06 -0.03,0.13 -0.1,0.14l-0.04 -0.24zm0.74 0.16c-0.06,0.01 -0.12,-0.04 -0.13,-0.11 0,-0.07 0.04,-0.13 0.11,-0.14l0.02 0.25zm0.22 -0.26l0.01 0.24 -0.02 0.01 -0.21 0.01 -0.02 -0.25 0.22 -0.01 0.02 0zm0 0c0.07,-0.01 0.12,0.05 0.13,0.11 0,0.07 -0.05,0.13 -0.12,0.13l-0.01 -0.24z"/>
  </g>
  <g>
   <g id="_1643951923104">
    <path class="fil5" d="M25.24 14.76l-2.26 0c-0.2,0 -0.37,-0.1 -0.47,-0.27 -0.1,-0.17 -0.1,-0.38 0,-0.55l1.13 -1.96c0.1,-0.17 0.27,-0.27 0.47,-0.27 0.2,0 0.37,0.1 0.47,0.27l1.13 1.96c0.1,0.17 0.1,0.38 0,0.55 -0.1,0.17 -0.27,0.27 -0.47,0.27zm-1.13 -2.89c-0.14,0 -0.27,0.07 -0.34,0.19l-1.13 1.96c-0.07,0.12 -0.07,0.27 0,0.39 0.07,0.12 0.2,0.19 0.34,0.19l2.26 0c0.14,0 0.26,-0.07 0.33,-0.19 0.07,-0.12 0.07,-0.27 0,-0.39l-1.13 -1.96c-0.07,-0.12 -0.19,-0.19 -0.33,-0.19zm1.36 2.16l-1.08 -1.89c-0.06,-0.1 -0.17,-0.16 -0.28,-0.16 -0.12,0 -0.22,0.06 -0.28,0.16l-1.09 1.89c-0.05,0.1 -0.05,0.22 0,0.32 0.06,0.1 0.16,0.16 0.28,0.16l2.18 0c0.11,0 0.22,-0.06 0.27,-0.16 0.06,-0.1 0.06,-0.22 0,-0.32zm-1.56 -1.3c0,-0.11 0.09,-0.2 0.2,-0.2 0.11,0 0.2,0.09 0.2,0.2l0 0.64c0,0.11 -0.09,0.2 -0.2,0.2 -0.11,0 -0.2,-0.09 -0.2,-0.2l0 -0.64zm0.2 1.42c-0.11,0 -0.2,-0.09 -0.2,-0.2 0,-0.11 0.09,-0.2 0.2,-0.2 0.11,0 0.2,0.09 0.2,0.2 0,0.11 -0.09,0.2 -0.2,0.2z"/>
   </g>
   <g id="_1643951923424">
   </g>
   <g id="_1643951920224">
   </g>
   <g id="_1643951920128">
   </g>
   <g id="_1643951920032">
   </g>
   <g id="_1643951917664">
   </g>
   <g id="_1643951916288">
   </g>
   <g id="_1643951914848">
   </g>
   <g id="_1643951914944">
   </g>
   <g id="_1643951912128">
   </g>
   <g id="_1643951912192">
   </g>
   <g id="_1643951905408">
   </g>
   <g id="_1643951902176">
   </g>
   <g id="_1641882201328">
   </g>
   <g id="_1641882261264">
   </g>
   <g id="_1641882254480">
   </g>
  </g>
  <g>
   <g id="_1643951893632">
    <path class="fil5" d="M3.59 14.76l-2.26 0c-0.2,0 -0.37,-0.1 -0.47,-0.27 -0.1,-0.17 -0.1,-0.38 0,-0.55l1.13 -1.96c0.1,-0.17 0.27,-0.27 0.47,-0.27 0.2,0 0.37,0.1 0.47,0.27l1.13 1.96c0.1,0.17 0.1,0.38 0,0.55 -0.1,0.17 -0.28,0.27 -0.47,0.27zm-1.13 -2.89c-0.14,0 -0.27,0.07 -0.34,0.19l-1.13 1.96c-0.07,0.12 -0.07,0.27 0,0.39 0.07,0.12 0.2,0.19 0.34,0.19l2.26 0c0.14,0 0.26,-0.07 0.33,-0.19 0.07,-0.12 0.07,-0.27 0,-0.39l-1.13 -1.96c-0.07,-0.12 -0.19,-0.19 -0.33,-0.19zm1.36 2.16l-1.09 -1.89c-0.05,-0.1 -0.16,-0.16 -0.27,-0.16 -0.12,0 -0.22,0.06 -0.28,0.16l-1.09 1.89c-0.06,0.1 -0.06,0.22 0,0.32 0.06,0.1 0.16,0.16 0.28,0.16l2.18 0c0.11,0 0.22,-0.06 0.27,-0.16 0.06,-0.1 0.06,-0.22 0,-0.32zm-1.56 -1.3c0,-0.11 0.09,-0.2 0.2,-0.2 0.11,0 0.2,0.09 0.2,0.2l0 0.64c0,0.11 -0.09,0.2 -0.2,0.2 -0.11,0 -0.2,-0.09 -0.2,-0.2l0 -0.64zm0.2 1.42c-0.11,0 -0.2,-0.09 -0.2,-0.2 0,-0.11 0.09,-0.2 0.2,-0.2 0.11,0 0.2,0.09 0.2,0.2 0,0.11 -0.09,0.2 -0.2,0.2z"/>
   </g>
   <g id="_1643951891200">
   </g>
   <g id="_1643951891488">
   </g>
   <g id="_1643951889824">
   </g>
   <g id="_1643951890336">
   </g>
   <g id="_1643951888192">
   </g>
   <g id="_1643951886784">
   </g>
   <g id="_1643951880160">
   </g>
   <g id="_1643951943520">
   </g>
   <g id="_1643951938496">
   </g>
   <g id="_1643951936992">
   </g>
   <g id="_1643951937696">
   </g>
   <g id="_1643951936032">
   </g>
   <g id="_1643951928960">
   </g>
   <g id="_1643951927392">
   </g>
   <g id="_1643951924896">
   </g>
  </g>
 </g>
</svg>
