<?xml version="1.0" encoding="UTF-8"?>
<!DOCTYPE svg PUBLIC "-//W3C//DTD SVG 1.1//EN" "http://www.w3.org/Graphics/SVG/1.1/DTD/svg11.dtd">
<!-- Creator: CorelDRAW 2019 (64-Bit) -->
<svg xmlns="http://www.w3.org/2000/svg" xml:space="preserve" width="448px" height="448px" version="1.1" style="shape-rendering:geometricPrecision; text-rendering:geometricPrecision; image-rendering:optimizeQuality; fill-rule:evenodd; clip-rule:evenodd"
viewBox="0 0 23.21 23.21"
 xmlns:xlink="http://www.w3.org/1999/xlink"
 xmlns:xodm="http://www.corel.com/coreldraw/odm/2003">
 <defs>
  <style type="text/css">
   <![CDATA[
    .fil5 {fill:#FEFEFE}
    .fil2 {fill:#FEFEFE;fill-rule:nonzero}
    .fil3 {fill:#373435;fill-rule:nonzero}
    .fil1 {fill:#FAC02F;fill-rule:nonzero}
    .fil0 {fill:#404241;fill-rule:nonzero}
    .fil4 {fill:white;fill-rule:nonzero}
   ]]>
  </style>
 </defs>
 <g id="Layer_x0020_1">
  <metadata id="CorelCorpID_0Corel-Layer"/>
  <path class="fil0" d="M23.21 11.61c0,6.41 -5.19,11.6 -11.6,11.6 -6.41,0 -11.61,-5.19 -11.61,-11.6 0,-6.41 5.2,-11.61 11.61,-11.61 6.41,0 11.6,5.2 11.6,11.61z"/>
  <path class="fil1" d="M18.49 11.61c0,3.8 -3.08,6.88 -6.88,6.88 -3.8,0 -6.88,-3.08 -6.88,-6.88 0,-3.8 3.08,-6.88 6.88,-6.88 3.8,0 6.88,3.08 6.88,6.88z"/>
  <path class="fil2" d="M2.28 9.79c-0.01,0 -0.02,0 -0.03,0 -0.06,-0.01 -0.1,-0.08 -0.09,-0.14 0.24,-1.16 0.69,-2.26 1.34,-3.26 0.03,-0.06 0.11,-0.07 0.16,-0.04 0.05,0.04 0.07,0.11 0.03,0.16 -0.63,0.98 -1.07,2.05 -1.3,3.19 -0.01,0.05 -0.06,0.09 -0.11,0.09z"/>
  <path class="fil2" d="M3.62 16.91c-0.04,0 -0.08,-0.02 -0.1,-0.05 -0.61,-0.95 -1.05,-1.98 -1.31,-3.07 -0.01,-0.06 0.03,-0.13 0.09,-0.14 0.06,-0.02 0.12,0.02 0.14,0.09 0.24,1.06 0.67,2.07 1.27,2.99 0.04,0.06 0.02,0.13 -0.03,0.16 -0.02,0.02 -0.04,0.02 -0.06,0.02z"/>
  <path class="fil2" d="M19.6 16.91c-0.02,0 -0.05,0 -0.07,-0.02 -0.05,-0.03 -0.06,-0.1 -0.03,-0.16 0.6,-0.92 1.03,-1.94 1.28,-3.01 0.01,-0.06 0.08,-0.1 0.14,-0.09 0.06,0.02 0.1,0.08 0.09,0.14 -0.26,1.1 -0.7,2.14 -1.32,3.09 -0.02,0.03 -0.05,0.05 -0.09,0.05z"/>
  <path class="fil2" d="M20.94 9.79c-0.06,0 -0.1,-0.04 -0.12,-0.09 -0.23,-1.14 -0.67,-2.21 -1.3,-3.19 -0.03,-0.05 -0.02,-0.12 0.03,-0.16 0.06,-0.03 0.13,-0.02 0.16,0.04 0.65,1 1.1,2.1 1.34,3.26 0.01,0.06 -0.03,0.13 -0.09,0.14 -0.01,0 -0.01,0 -0.02,0z"/>
  <path class="fil3" d="M9.4 10.23l0 1.89c0,0.16 -0.02,0.3 -0.06,0.42 -0.05,0.11 -0.11,0.2 -0.19,0.28 -0.08,0.07 -0.18,0.12 -0.29,0.16 -0.11,0.03 -0.23,0.05 -0.36,0.05 -0.14,0 -0.26,-0.02 -0.37,-0.05 -0.11,-0.04 -0.21,-0.09 -0.29,-0.16 -0.08,-0.08 -0.14,-0.17 -0.19,-0.28 -0.04,-0.12 -0.06,-0.26 -0.06,-0.42l0 -1.89 0.56 0 0 1.89c0,0.09 0,0.17 0.02,0.23 0.01,0.05 0.04,0.1 0.07,0.13 0.03,0.03 0.06,0.05 0.11,0.07 0.04,0.01 0.09,0.01 0.15,0.01 0.05,0 0.1,0 0.15,-0.01 0.04,-0.02 0.08,-0.04 0.11,-0.07 0.03,-0.03 0.05,-0.08 0.06,-0.13 0.02,-0.06 0.03,-0.14 0.03,-0.23l0 -1.89 0.55 0z"/>
  <path id="1" class="fil3" d="M11 12.26c0,-0.04 -0.01,-0.09 -0.02,-0.12 -0.01,-0.04 -0.03,-0.08 -0.05,-0.11 -0.03,-0.04 -0.07,-0.07 -0.13,-0.1 -0.05,-0.03 -0.12,-0.06 -0.21,-0.1 -0.1,-0.04 -0.2,-0.08 -0.29,-0.14 -0.1,-0.05 -0.18,-0.11 -0.25,-0.17 -0.07,-0.07 -0.13,-0.15 -0.17,-0.24 -0.04,-0.09 -0.07,-0.2 -0.07,-0.32 0,-0.12 0.03,-0.22 0.07,-0.32 0.04,-0.09 0.1,-0.17 0.18,-0.24 0.08,-0.07 0.17,-0.12 0.28,-0.16 0.1,-0.03 0.22,-0.05 0.35,-0.05 0.13,0 0.25,0.02 0.36,0.06 0.11,0.04 0.2,0.1 0.27,0.18 0.08,0.07 0.14,0.16 0.18,0.27 0.04,0.1 0.06,0.22 0.06,0.34l-0.56 0c0,-0.06 0,-0.11 -0.02,-0.16 -0.01,-0.05 -0.03,-0.09 -0.05,-0.12 -0.03,-0.04 -0.06,-0.07 -0.1,-0.09 -0.04,-0.02 -0.09,-0.02 -0.15,-0.02 -0.05,0 -0.1,0 -0.14,0.02 -0.03,0.02 -0.07,0.04 -0.09,0.07 -0.03,0.03 -0.05,0.06 -0.06,0.1 -0.01,0.04 -0.02,0.08 -0.02,0.12 0,0.05 0.01,0.09 0.03,0.13 0.02,0.03 0.05,0.07 0.09,0.1 0.03,0.03 0.08,0.06 0.13,0.09 0.05,0.03 0.1,0.05 0.17,0.08 0.13,0.05 0.24,0.1 0.33,0.16 0.1,0.05 0.18,0.12 0.25,0.19 0.06,0.07 0.11,0.15 0.14,0.24 0.03,0.09 0.05,0.2 0.05,0.31 0,0.12 -0.02,0.23 -0.06,0.32 -0.04,0.1 -0.1,0.18 -0.17,0.24 -0.08,0.07 -0.17,0.12 -0.27,0.15 -0.11,0.04 -0.22,0.06 -0.36,0.06 -0.12,0 -0.23,-0.02 -0.35,-0.06 -0.11,-0.03 -0.21,-0.09 -0.3,-0.16 -0.09,-0.08 -0.17,-0.17 -0.22,-0.29 -0.06,-0.11 -0.08,-0.25 -0.08,-0.4l0.56 0c0,0.08 0,0.15 0.02,0.21 0.02,0.06 0.04,0.11 0.08,0.14 0.03,0.04 0.07,0.06 0.12,0.08 0.05,0.02 0.11,0.02 0.17,0.02 0.06,0 0.1,0 0.14,-0.02 0.04,-0.02 0.07,-0.04 0.09,-0.07 0.02,-0.02 0.04,-0.05 0.05,-0.09 0.01,-0.04 0.02,-0.08 0.02,-0.13z"/>
  <polygon id="2" class="fil3" points="13.35,11.79 12.48,11.79 12.48,12.53 13.51,12.53 13.51,12.99 11.93,12.99 11.93,10.23 13.51,10.23 13.51,10.69 12.48,10.69 12.48,11.34 13.35,11.34 "/>
  <path id="3" class="fil3" d="M13.83 12.99l0 -2.76 0.74 0c0.15,0 0.3,0.02 0.43,0.07 0.13,0.06 0.24,0.13 0.34,0.23 0.09,0.1 0.16,0.22 0.21,0.37 0.05,0.14 0.08,0.31 0.08,0.49l0 0.43c0,0.19 -0.03,0.35 -0.08,0.5 -0.05,0.14 -0.12,0.26 -0.21,0.36 -0.1,0.1 -0.21,0.18 -0.34,0.23 -0.13,0.05 -0.28,0.08 -0.44,0.08l-0.73 0zm0.56 -2.3l0 1.84 0.17 0c0.1,0 0.18,-0.02 0.25,-0.04 0.06,-0.03 0.11,-0.07 0.15,-0.13 0.04,-0.05 0.07,-0.13 0.09,-0.22 0.01,-0.08 0.02,-0.19 0.02,-0.32l0 -0.43c0,-0.13 -0.01,-0.23 -0.02,-0.32 -0.02,-0.09 -0.05,-0.16 -0.09,-0.22 -0.04,-0.05 -0.09,-0.09 -0.15,-0.12 -0.07,-0.03 -0.15,-0.04 -0.24,-0.04l-0.18 0z"/>
  <g>
   <path class="fil4" d="M11.61 4.22c-0.06,0 -0.11,-0.05 -0.11,-0.11 0,-0.06 0.05,-0.11 0.11,-0.11l0 0.22zm0.2 -0.21l0 0.21 -0.2 0 0 -0.22 0.2 0.01zm0 0c0.06,0 0.11,0.04 0.11,0.1 0,0.06 -0.05,0.11 -0.11,0.11l0 -0.21zm0.61 0.25c-0.05,0 -0.09,-0.06 -0.09,-0.12 0.01,-0.06 0.06,-0.1 0.11,-0.09l-0.02 0.21zm0.23 -0.19l-0.02 0.22 -0.21 -0.03 0.02 -0.21 0.21 0.02zm0 0c0.06,0.01 0.1,0.06 0.09,0.12 0,0.06 -0.05,0.1 -0.11,0.1l0.02 -0.22zm0.58 0.33c-0.05,-0.01 -0.09,-0.07 -0.08,-0.13 0.01,-0.06 0.07,-0.1 0.12,-0.08l-0.04 0.21zm0.25 -0.17l-0.04 0.21 -0.21 -0.04 0.04 -0.21 0.21 0.04zm0 0c0.05,0.01 0.09,0.07 0.08,0.13 -0.01,0.06 -0.07,0.1 -0.12,0.08l0.04 -0.21zm0.54 0.39c-0.05,-0.02 -0.08,-0.08 -0.07,-0.13 0.02,-0.06 0.08,-0.09 0.13,-0.08l-0.06 0.21zm0.26 -0.13l-0.07 0.2 -0.06 -0.02 -0.13 -0.05 0.06 -0.21 0.14 0.05 0.06 0.03zm0 0c0.06,0.02 0.09,0.08 0.07,0.13 -0.02,0.06 -0.08,0.09 -0.14,0.07l0.07 -0.2zm0.51 0.44c-0.06,-0.02 -0.08,-0.08 -0.06,-0.14 0.02,-0.05 0.08,-0.08 0.13,-0.06l-0.07 0.2zm0.27 -0.1l-0.09 0.19 -0.16 -0.07 -0.02 -0.02 0.07 -0.2 0.04 0.02 0.16 0.08zm0 0c0.05,0.02 0.07,0.09 0.05,0.14 -0.03,0.06 -0.09,0.08 -0.14,0.05l0.09 -0.19zm0.45 0.5c-0.05,-0.03 -0.07,-0.1 -0.04,-0.15 0.03,-0.05 0.09,-0.07 0.14,-0.04l-0.1 0.19zm0.28 -0.08l-0.11 0.19 -0.17 -0.11 0.1 -0.19 0.18 0.11zm0 0c0.05,0.03 0.06,0.1 0.03,0.15 -0.02,0.05 -0.09,0.07 -0.14,0.04l0.11 -0.19zm0.39 0.55c-0.04,-0.03 -0.05,-0.1 -0.02,-0.15 0.03,-0.04 0.1,-0.06 0.15,-0.02l-0.13 0.17zm0.29 -0.04l-0.12 0.17 -0.04 -0.02 -0.13 -0.11 0.13 -0.17 0.13 0.11 0.03 0.02zm0 0c0.05,0.04 0.06,0.11 0.02,0.16 -0.03,0.04 -0.1,0.05 -0.14,0.01l0.12 -0.17zm0.34 0.6c-0.04,-0.04 -0.05,-0.11 -0.01,-0.16 0.04,-0.04 0.1,-0.05 0.15,-0.01l-0.14 0.17zm0.29 -0.01l-0.15 0.15 -0.11 -0.12 -0.03 -0.02 0.14 -0.17 0.03 0.04 0.12 0.12zm0 0c0.04,0.04 0.04,0.11 0,0.15 -0.04,0.04 -0.1,0.05 -0.15,0l0.15 -0.15zm0.27 0.62c-0.04,-0.04 -0.04,-0.11 0.01,-0.15 0.04,-0.04 0.11,-0.03 0.14,0.01l-0.15 0.14zm0.29 0.03l-0.16 0.14 -0.13 -0.17 0.15 -0.14 0.14 0.17zm0 0c0.03,0.05 0.03,0.11 -0.02,0.15 -0.04,0.04 -0.1,0.04 -0.14,-0.01l0.16 -0.14zm0.2 0.66c-0.04,-0.05 -0.03,-0.12 0.02,-0.15 0.05,-0.04 0.11,-0.03 0.15,0.02l-0.17 0.13zm0.28 0.06l-0.17 0.11 -0.04 -0.05 -0.07 -0.12 0.17 -0.13 0.08 0.13 0.03 0.06zm0 0c0.03,0.05 0.02,0.12 -0.03,0.15 -0.05,0.03 -0.11,0.01 -0.14,-0.04l0.17 -0.11zm0.13 0.67c-0.03,-0.05 -0.01,-0.11 0.04,-0.14 0.05,-0.03 0.11,-0.01 0.14,0.04l-0.18 0.1zm0.27 0.1l-0.18 0.09 -0.09 -0.18 0 -0.01 0.18 -0.1 0.01 0.02 0.08 0.18zm0 0c0.03,0.05 0.01,0.12 -0.05,0.14 -0.05,0.03 -0.11,0.01 -0.13,-0.05l0.18 -0.09zm0.05 0.68c-0.02,-0.05 0.01,-0.12 0.06,-0.14 0.05,-0.02 0.11,0.01 0.13,0.07l-0.19 0.07zm0.26 0.13l-0.19 0.08 -0.07 -0.21 0.19 -0.07 0.07 0.2zm0 0c0.02,0.05 0,0.12 -0.06,0.14 -0.05,0.02 -0.11,-0.01 -0.13,-0.06l0.19 -0.08zm-0.03 0.69c-0.01,-0.06 0.02,-0.12 0.08,-0.13 0.05,-0.02 0.11,0.02 0.12,0.07l-0.2 0.06zm0.25 0.16l-0.2 0.04 -0.02 -0.07 -0.03 -0.13 0.2 -0.06 0.04 0.14 0.01 0.08zm0 0c0.01,0.06 -0.02,0.11 -0.08,0.13 -0.06,0.01 -0.11,-0.03 -0.12,-0.09l0.2 -0.04zm-0.11 0.68c-0.01,-0.06 0.03,-0.12 0.09,-0.13 0.05,0 0.11,0.04 0.12,0.09l-0.21 0.04zm0.22 0.19l-0.2 0.02 -0.02 -0.19 0 -0.02 0.21 -0.04 0 0.04 0.01 0.19zm0 0c0.01,0.05 -0.03,0.11 -0.09,0.11 -0.05,0.01 -0.11,-0.03 -0.11,-0.09l0.2 -0.02zm-0.18 0.65c0,-0.06 0.05,-0.1 0.1,-0.1 0.06,0 0.11,0.04 0.11,0.1l-0.21 0zm0.2 0.22l-0.2 0 0 -0.22 0.21 0 -0.01 0.22zm0 0c0,0.06 -0.04,0.11 -0.1,0.11 -0.06,0 -0.1,-0.05 -0.1,-0.11l0.2 0zm-0.26 0.63c0.01,-0.06 0.06,-0.1 0.12,-0.09 0.06,0 0.1,0.06 0.09,0.12l-0.21 -0.03zm0.18 0.24l-0.2 -0.02 0.02 -0.22 0.21 0.03 -0.03 0.21zm0 0c0,0.06 -0.05,0.1 -0.11,0.1 -0.06,-0.01 -0.1,-0.06 -0.09,-0.12l0.2 0.02zm-0.33 0.6c0.01,-0.06 0.07,-0.1 0.12,-0.08 0.06,0.01 0.1,0.07 0.08,0.13l-0.2 -0.05zm0.15 0.26l-0.2 -0.06 0.03 -0.11 0.02 -0.09 0.2 0.05 -0.02 0.1 -0.03 0.11zm0 0c-0.02,0.06 -0.07,0.09 -0.13,0.08 -0.05,-0.02 -0.09,-0.08 -0.07,-0.14l0.2 0.06zm-0.39 0.55c0.02,-0.06 0.08,-0.09 0.13,-0.07 0.05,0.03 0.08,0.09 0.06,0.14l-0.19 -0.07zm0.11 0.27l-0.19 -0.07 0.08 -0.2 0.19 0.07 -0.08 0.2zm0 0c-0.02,0.06 -0.08,0.09 -0.13,0.07 -0.06,-0.02 -0.08,-0.09 -0.06,-0.14l0.19 0.07zm-0.45 0.5c0.02,-0.05 0.08,-0.07 0.14,-0.05 0.05,0.03 0.07,0.1 0.04,0.15l-0.18 -0.1zm0.08 0.29l-0.18 -0.1 0.1 -0.19 0.18 0.1 -0.1 0.19zm0 0c-0.02,0.05 -0.08,0.07 -0.13,0.05 -0.06,-0.03 -0.08,-0.09 -0.05,-0.15l0.18 0.1zm-0.51 0.44c0.03,-0.05 0.1,-0.06 0.15,-0.03 0.04,0.03 0.06,0.1 0.03,0.15l-0.18 -0.12zm0.06 0.3l-0.17 -0.13 0.07 -0.1 0.04 -0.07 0.18 0.12 -0.05 0.07 -0.07 0.11zm0 0c-0.04,0.05 -0.1,0.06 -0.15,0.02 -0.05,-0.03 -0.06,-0.1 -0.02,-0.15l0.17 0.13zm-0.56 0.37c0.04,-0.04 0.11,-0.05 0.15,-0.01 0.04,0.04 0.05,0.11 0.01,0.15l-0.16 -0.14zm0.02 0.3l-0.15 -0.14 0.13 -0.16 0.16 0.14 -0.14 0.16zm0 0c-0.03,0.05 -0.1,0.05 -0.14,0.01 -0.05,-0.03 -0.05,-0.1 -0.01,-0.15l0.15 0.14zm-0.59 0.31c0.04,-0.04 0.11,-0.04 0.15,0 0.04,0.05 0.04,0.12 0,0.16l-0.15 -0.16zm-0.01 0.31l-0.14 -0.17 0.02 -0.01 0.13 -0.13 0.15 0.16 -0.14 0.13 -0.02 0.02zm0 0c-0.04,0.04 -0.11,0.03 -0.15,-0.01 -0.04,-0.05 -0.03,-0.12 0.01,-0.16l0.14 0.17zm-0.62 0.23c0.04,-0.03 0.11,-0.03 0.14,0.02 0.04,0.05 0.03,0.12 -0.01,0.15l-0.13 -0.17zm-0.05 0.3l-0.12 -0.18 0.12 -0.08 0.05 -0.04 0.13 0.17 -0.06 0.04 -0.12 0.09zm0 0c-0.04,0.03 -0.11,0.02 -0.14,-0.03 -0.03,-0.04 -0.02,-0.11 0.02,-0.15l0.12 0.18zm-0.63 0.16c0.05,-0.03 0.11,-0.01 0.14,0.04 0.03,0.05 0.01,0.12 -0.04,0.15l-0.1 -0.19zm-0.08 0.3l-0.1 -0.19 0.18 -0.11 0.1 0.19 -0.18 0.11zm0 0c-0.05,0.03 -0.11,0.01 -0.14,-0.04 -0.03,-0.05 -0.01,-0.12 0.04,-0.15l0.1 0.19zm-0.66 0.09c0.06,-0.03 0.12,0 0.14,0.05 0.03,0.05 0,0.12 -0.05,0.14l-0.09 -0.19zm-0.1 0.28l-0.08 -0.2 0.01 0 0.17 -0.08 0.09 0.19 -0.18 0.09 -0.01 0zm0 0c-0.06,0.02 -0.12,0 -0.14,-0.06 -0.02,-0.05 0.01,-0.12 0.06,-0.14l0.08 0.2zm-0.66 0.02c0.05,-0.02 0.11,0.01 0.13,0.06 0.02,0.06 -0.01,0.12 -0.06,0.14l-0.07 -0.2zm-0.14 0.26l-0.06 -0.2 0.11 -0.03 0.09 -0.03 0.07 0.2 -0.1 0.03 -0.11 0.03zm0 0c-0.05,0.02 -0.11,-0.01 -0.13,-0.07 -0.01,-0.06 0.02,-0.12 0.07,-0.13l0.06 0.2zm-0.66 -0.05c0.06,-0.02 0.12,0.02 0.13,0.08 0.01,0.05 -0.02,0.11 -0.08,0.13l-0.05 -0.21zm-0.16 0.24l-0.04 -0.21 0.2 -0.03 0 0 0.05 0.21 -0.01 0 -0.2 0.03zm0 0c-0.05,0.02 -0.11,-0.02 -0.12,-0.08 -0.01,-0.06 0.03,-0.12 0.08,-0.13l0.04 0.21zm-0.64 -0.12c0.06,-0.01 0.11,0.03 0.11,0.09 0.01,0.06 -0.03,0.11 -0.09,0.12l-0.02 -0.21zm-0.19 0.23l-0.02 -0.22 0.21 -0.01 0.02 0.21 -0.21 0.02zm0 0c-0.06,0 -0.11,-0.04 -0.11,-0.1 -0.01,-0.06 0.03,-0.11 0.09,-0.12l0.02 0.22zm-0.63 -0.2c0.06,0 0.1,0.04 0.1,0.1 0,0.06 -0.04,0.11 -0.1,0.11l0 -0.21zm-0.21 0.21l0 -0.22 0.21 0.01 0 0.21 -0.21 0zm0 0c-0.05,0 -0.1,-0.05 -0.1,-0.11 0,-0.06 0.05,-0.11 0.1,-0.11l0 0.22zm-0.61 -0.27c0.06,0 0.1,0.06 0.1,0.11 -0.01,0.06 -0.06,0.11 -0.12,0.1l0.02 -0.21zm-0.23 0.18l0.03 -0.21 0.02 0 0.18 0.03 -0.02 0.21 -0.19 -0.02 -0.02 -0.01zm0 0c-0.05,0 -0.09,-0.06 -0.08,-0.12 0,-0.06 0.06,-0.1 0.11,-0.09l-0.03 0.21zm-0.57 -0.33c0.05,0.01 0.09,0.07 0.08,0.13 -0.01,0.05 -0.07,0.09 -0.12,0.08l0.04 -0.21zm-0.25 0.16l0.05 -0.21 0.1 0.03 0.1 0.02 -0.04 0.21 -0.11 -0.02 -0.1 -0.03zm0 0c-0.05,-0.02 -0.09,-0.08 -0.07,-0.13 0.01,-0.06 0.07,-0.1 0.12,-0.08l-0.05 0.21zm-0.54 -0.4c0.06,0.02 0.09,0.08 0.07,0.14 -0.02,0.05 -0.07,0.09 -0.13,0.07l0.06 -0.21zm-0.26 0.13l0.07 -0.2 0.18 0.07 0.01 0 -0.06 0.21 -0.02 -0.01 -0.18 -0.07zm0 0c-0.05,-0.02 -0.08,-0.08 -0.06,-0.14 0.02,-0.05 0.08,-0.08 0.13,-0.06l-0.07 0.2zm-0.49 -0.45c0.05,0.02 0.07,0.09 0.05,0.14 -0.03,0.05 -0.09,0.08 -0.14,0.05l0.09 -0.19zm-0.27 0.1l0.08 -0.2 0.19 0.1 -0.09 0.19 -0.18 -0.09zm0 0c-0.06,-0.03 -0.08,-0.09 -0.06,-0.15 0.03,-0.05 0.09,-0.07 0.14,-0.05l-0.08 0.2zm-0.45 -0.51c0.05,0.03 0.07,0.09 0.04,0.15 -0.03,0.05 -0.1,0.06 -0.14,0.03l0.1 -0.18zm-0.28 0.07l0.11 -0.18 0.04 0.03 0.13 0.08 -0.1 0.18 -0.14 -0.08 -0.04 -0.03zm0 0c-0.05,-0.04 -0.07,-0.1 -0.03,-0.15 0.03,-0.05 0.09,-0.07 0.14,-0.03l-0.11 0.18zm-0.39 -0.56c0.04,0.03 0.06,0.1 0.02,0.15 -0.03,0.05 -0.1,0.06 -0.14,0.03l0.12 -0.18zm-0.29 0.04l0.13 -0.17 0.13 0.11 0.03 0.02 -0.12 0.18 -0.04 -0.03 -0.13 -0.11zm0 0c-0.04,-0.04 -0.05,-0.11 -0.01,-0.16 0.03,-0.04 0.1,-0.05 0.14,-0.01l-0.13 0.17zm-0.32 -0.6c0.04,0.04 0.04,0.11 0,0.15 -0.04,0.05 -0.11,0.05 -0.15,0.01l0.15 -0.16zm-0.29 0l0.14 -0.15 0.15 0.15 -0.15 0.16 -0.14 -0.16zm0 0c-0.04,-0.04 -0.05,-0.11 -0.01,-0.15 0.04,-0.04 0.11,-0.04 0.15,0l-0.14 0.15zm-0.26 -0.63c0.03,0.04 0.03,0.11 -0.01,0.15 -0.05,0.04 -0.11,0.03 -0.15,-0.01l0.16 -0.14zm-0.29 -0.03l0.16 -0.14 0.04 0.06 0.09 0.11 -0.16 0.14 -0.09 -0.12 -0.04 -0.05zm0 0c-0.04,-0.05 -0.03,-0.12 0.02,-0.16 0.04,-0.03 0.11,-0.02 0.14,0.02l-0.16 0.14zm-0.19 -0.66c0.03,0.05 0.02,0.11 -0.03,0.15 -0.04,0.03 -0.11,0.02 -0.14,-0.03l0.17 -0.12zm-0.28 -0.07l0.17 -0.11 0.1 0.17 0.01 0.01 -0.17 0.12 -0.01 -0.02 -0.1 -0.17zm0 0c-0.03,-0.05 -0.02,-0.11 0.03,-0.15 0.05,-0.03 0.11,-0.01 0.14,0.04l-0.17 0.11zm-0.12 -0.67c0.03,0.05 0.01,0.11 -0.04,0.14 -0.05,0.03 -0.12,0.01 -0.14,-0.05l0.18 -0.09zm-0.27 -0.1l0.19 -0.1 0.08 0.2 -0.18 0.09 -0.09 -0.19zm0 0c-0.03,-0.06 -0.01,-0.12 0.05,-0.15 0.05,-0.02 0.11,0 0.14,0.05l-0.19 0.1zm-0.04 -0.69c0.02,0.05 0,0.12 -0.06,0.14 -0.05,0.02 -0.11,-0.01 -0.13,-0.07l0.19 -0.07zm-0.26 -0.14l0.2 -0.06 0.02 0.08 0.04 0.12 -0.19 0.07 -0.04 -0.12 -0.03 -0.09zm0 0c-0.02,-0.05 0.01,-0.11 0.07,-0.13 0.05,-0.02 0.11,0.01 0.13,0.07l-0.2 0.06zm0.04 -0.68c0.02,0.05 -0.02,0.11 -0.07,0.13 -0.06,0.01 -0.11,-0.02 -0.13,-0.08l0.2 -0.05zm-0.24 -0.16l0.21 -0.05 0.03 0.21 0 0 -0.2 0.05 0 -0.01 -0.04 -0.2zm0 0c-0.01,-0.06 0.03,-0.12 0.08,-0.13 0.06,-0.02 0.11,0.02 0.13,0.08l-0.21 0.05zm0.12 -0.68c0.01,0.06 -0.03,0.11 -0.09,0.12 -0.06,0 -0.11,-0.04 -0.11,-0.1l0.2 -0.02zm-0.22 -0.19l0.21 -0.03 0.01 0.22 -0.2 0.02 -0.02 -0.21zm0 0c-0.01,-0.06 0.03,-0.12 0.09,-0.12 0.06,-0.01 0.11,0.04 0.12,0.09l-0.21 0.03zm0.2 -0.66c0,0.06 -0.05,0.11 -0.11,0.11 -0.05,0 -0.1,-0.05 -0.1,-0.11l0.21 0zm-0.2 -0.22l0.2 0.01 0 0.03 0 0.18 -0.21 0 0 -0.19 0.01 -0.03zm0 0c0,-0.06 0.05,-0.11 0.11,-0.11 0.05,0.01 0.1,0.06 0.09,0.12l-0.2 -0.01zm0.27 -0.63c-0.01,0.06 -0.06,0.1 -0.12,0.1 -0.05,-0.01 -0.1,-0.06 -0.09,-0.12l0.21 0.02zm-0.17 -0.24l0.2 0.03 -0.02 0.13 -0.01 0.08 -0.21 -0.02 0.01 -0.09 0.03 -0.13zm0 0c0,-0.06 0.06,-0.1 0.11,-0.09 0.06,0.01 0.1,0.06 0.09,0.12l-0.2 -0.03zm0.33 -0.59c-0.01,0.06 -0.07,0.09 -0.12,0.08 -0.06,-0.02 -0.09,-0.08 -0.08,-0.13l0.2 0.05zm-0.14 -0.26l0.2 0.05 -0.06 0.21 -0.2 -0.05 0.06 -0.21zm0 0c0.02,-0.06 0.07,-0.09 0.13,-0.08 0.05,0.02 0.09,0.08 0.07,0.13l-0.2 -0.05zm0.41 -0.55c-0.02,0.06 -0.08,0.09 -0.14,0.07 -0.05,-0.02 -0.08,-0.09 -0.06,-0.14l0.2 0.07zm-0.12 -0.28l0.19 0.09 0 0 -0.07 0.19 -0.2 -0.07 0.08 -0.21 0 0zm0 0c0.03,-0.05 0.09,-0.08 0.14,-0.05 0.05,0.02 0.08,0.09 0.05,0.14l-0.19 -0.09zm0.47 -0.48c-0.03,0.05 -0.09,0.07 -0.14,0.04 -0.05,-0.02 -0.07,-0.09 -0.05,-0.14l0.19 0.1zm-0.08 -0.29l0.18 0.1 -0.07 0.12 -0.03 0.07 -0.19 -0.1 0.04 -0.08 0.07 -0.11zm0 0c0.03,-0.06 0.09,-0.07 0.14,-0.04 0.05,0.02 0.07,0.09 0.04,0.14l-0.18 -0.1zm0.51 -0.43c-0.03,0.05 -0.1,0.06 -0.14,0.02 -0.05,-0.03 -0.06,-0.1 -0.03,-0.15l0.17 0.13zm-0.05 -0.3l0.17 0.12 -0.12 0.18 -0.17 -0.13 0.12 -0.17zm0 0c0.04,-0.05 0.1,-0.06 0.15,-0.03 0.05,0.04 0.06,0.11 0.02,0.15l-0.17 -0.12zm0.56 -0.37c-0.03,0.05 -0.1,0.05 -0.14,0.02 -0.04,-0.04 -0.05,-0.11 -0.01,-0.16l0.15 0.14zm-0.01 -0.3l0.15 0.15 -0.02 0.02 -0.12 0.13 -0.15 -0.14 0.12 -0.14 0.02 -0.02zm0 0c0.04,-0.04 0.11,-0.05 0.15,0 0.04,0.04 0.04,0.11 0,0.15l-0.15 -0.15zm0.6 -0.3c-0.05,0.04 -0.11,0.04 -0.15,0 -0.04,-0.04 -0.04,-0.11 0,-0.15l0.15 0.15zm0.01 -0.3l0.14 0.17 -0.12 0.1 -0.03 0.03 -0.15 -0.15 0.05 -0.04 0.11 -0.11zm0 0c0.05,-0.04 0.11,-0.03 0.15,0.01 0.04,0.05 0.03,0.12 -0.01,0.16l-0.14 -0.17zm0.62 -0.22c-0.04,0.03 -0.11,0.02 -0.14,-0.03 -0.03,-0.05 -0.02,-0.11 0.02,-0.15l0.12 0.18zm0.05 -0.3l0.13 0.18 -0.18 0.12 -0.12 -0.18 0.17 -0.12zm0 0c0.05,-0.03 0.12,-0.02 0.15,0.03 0.03,0.04 0.02,0.11 -0.02,0.15l-0.13 -0.18zm0.65 -0.15c-0.05,0.03 -0.11,0.01 -0.14,-0.04 -0.03,-0.05 -0.01,-0.12 0.03,-0.15l0.11 0.19zm0.08 -0.3l0.1 0.2 -0.03 0.01 -0.15 0.09 -0.11 -0.19 0.16 -0.09 0.03 -0.02zm0 0c0.05,-0.02 0.11,0 0.14,0.05 0.03,0.05 0.01,0.12 -0.04,0.15l-0.1 -0.2zm0.66 -0.08c-0.06,0.03 -0.12,0.01 -0.14,-0.05 -0.02,-0.05 0,-0.12 0.05,-0.14l0.09 0.19zm0.11 -0.27l0.07 0.2 -0.12 0.05 -0.06 0.02 -0.09 -0.19 0.07 -0.03 0.13 -0.05zm0 0c0.05,-0.03 0.11,0 0.13,0.06 0.02,0.05 0,0.11 -0.06,0.14l-0.07 -0.2zm0.65 -0.01c-0.05,0.02 -0.11,-0.01 -0.13,-0.07 -0.01,-0.06 0.02,-0.12 0.07,-0.14l0.06 0.21zm0.14 -0.26l0.06 0.2 -0.2 0.06 -0.06 -0.21 0.2 -0.05zm0 0c0.06,-0.02 0.12,0.01 0.13,0.07 0.02,0.06 -0.01,0.12 -0.07,0.13l-0.06 -0.2zm0.66 0.07c-0.06,0.01 -0.11,-0.03 -0.12,-0.09 -0.01,-0.06 0.02,-0.11 0.08,-0.13l0.04 0.22zm0.17 -0.25l0.04 0.21 -0.21 0.04 -0.04 -0.22 0.21 -0.03zm0 0c0.05,-0.01 0.11,0.02 0.12,0.08 0.01,0.06 -0.03,0.12 -0.08,0.13l-0.04 -0.21zm0.64 0.14c-0.05,0.01 -0.1,-0.04 -0.11,-0.1 -0.01,-0.06 0.04,-0.11 0.09,-0.12l0.02 0.22zm0.19 -0.23l0.02 0.22 -0.02 0 -0.19 0.01 -0.02 -0.22 0.2 -0.01 0.01 0zm0 0c0.06,0 0.11,0.04 0.11,0.1 0.01,0.06 -0.04,0.11 -0.09,0.12l-0.02 -0.22z"/>
  </g>
  <g>
   <g id="_1643770395328">
    <path class="fil5" d="M22.01 12.87l-1.97 0c-0.17,0 -0.32,-0.09 -0.41,-0.24 -0.09,-0.14 -0.09,-0.32 0,-0.47l0.99 -1.71c0.08,-0.15 0.24,-0.23 0.41,-0.23 0.17,0 0.32,0.08 0.41,0.23l0.98 1.71c0.09,0.15 0.09,0.33 0,0.47 -0.08,0.15 -0.24,0.24 -0.41,0.24zm-0.98 -2.52c-0.13,0 -0.23,0.07 -0.3,0.17l-0.98 1.71c-0.06,0.1 -0.06,0.23 0,0.34 0.06,0.1 0.17,0.17 0.29,0.17l1.97 0c0.12,0 0.23,-0.07 0.3,-0.17 0.06,-0.11 0.06,-0.24 0,-0.34l-0.99 -1.71c-0.06,-0.1 -0.17,-0.17 -0.29,-0.17zm1.19 1.89l-0.95 -1.65c-0.05,-0.09 -0.14,-0.14 -0.24,-0.14 -0.1,0 -0.19,0.05 -0.24,0.14l-0.95 1.65c-0.05,0.08 -0.05,0.19 0,0.27 0.05,0.09 0.14,0.14 0.24,0.14l1.9 0c0.1,0 0.19,-0.05 0.24,-0.14 0.05,-0.08 0.05,-0.19 0,-0.27zm-1.36 -1.14c0,-0.09 0.07,-0.17 0.17,-0.17 0.09,0 0.17,0.08 0.17,0.17l0 0.56c0,0.1 -0.08,0.17 -0.17,0.17 -0.1,0 -0.17,-0.07 -0.17,-0.17l0 -0.56zm0.17 1.24c-0.1,0 -0.18,-0.08 -0.18,-0.18 0,-0.09 0.08,-0.17 0.18,-0.17 0.09,0 0.17,0.08 0.17,0.17 0,0.1 -0.08,0.18 -0.17,0.18z"/>
   </g>
   <g id="_1643770396928">
   </g>
   <g id="_1643770393792">
   </g>
   <g id="_1643770393280">
   </g>
   <g id="_1643770394400">
   </g>
   <g id="_1643770394112">
   </g>
   <g id="_1643770391808">
   </g>
   <g id="_1643770392032">
   </g>
   <g id="_1643770392512">
   </g>
   <g id="_1643770392384">
   </g>
   <g id="_1643770389888">
   </g>
   <g id="_1643770390208">
   </g>
   <g id="_1643770389760">
   </g>
   <g id="_1643770457120">
   </g>
   <g id="_1643770457248">
   </g>
   <g id="_1643770457952">
   </g>
  </g>
  <g>
   <g id="_1643770403552">
    <path class="fil5" d="M3.13 12.87l-1.97 0c-0.17,0 -0.33,-0.09 -0.41,-0.24 -0.09,-0.14 -0.09,-0.32 0,-0.47l0.98 -1.71c0.09,-0.15 0.24,-0.23 0.41,-0.23 0.18,0 0.33,0.08 0.42,0.23l0.98 1.71c0.09,0.15 0.09,0.33 0,0.47 -0.09,0.15 -0.24,0.24 -0.41,0.24zm-0.99 -2.52c-0.12,0 -0.23,0.07 -0.29,0.17l-0.98 1.71c-0.07,0.1 -0.07,0.23 0,0.34 0.06,0.1 0.17,0.17 0.29,0.17l1.97 0c0.12,0 0.23,-0.07 0.29,-0.17 0.06,-0.11 0.06,-0.24 0,-0.34l-0.98 -1.71c-0.06,-0.1 -0.17,-0.17 -0.3,-0.17zm1.2 1.89l-0.95 -1.65c-0.06,-0.09 -0.15,-0.14 -0.25,-0.14 -0.1,0 -0.19,0.05 -0.24,0.14l-0.95 1.65c-0.05,0.08 -0.05,0.19 0,0.27 0.05,0.09 0.14,0.14 0.24,0.14l1.9 0c0.1,0 0.19,-0.05 0.25,-0.14 0.05,-0.08 0.05,-0.19 0,-0.27zm-1.37 -1.14c0,-0.09 0.08,-0.17 0.17,-0.17 0.1,0 0.18,0.08 0.18,0.17l0 0.56c0,0.1 -0.08,0.17 -0.18,0.17 -0.09,0 -0.17,-0.07 -0.17,-0.17l0 -0.56zm0.17 1.24c-0.09,0 -0.17,-0.08 -0.17,-0.18 0,-0.09 0.08,-0.17 0.17,-0.17 0.1,0 0.18,0.08 0.18,0.17 0,0.1 -0.08,0.18 -0.18,0.18z"/>
   </g>
   <g id="_1643770405056">
   </g>
   <g id="_1643770403360">
   </g>
   <g id="_1643770402944">
   </g>
   <g id="_1643770402496">
   </g>
   <g id="_1643770401312">
   </g>
   <g id="_1643770401920">
   </g>
   <g id="_1643770401120">
   </g>
   <g id="_1643770400224">
   </g>
   <g id="_1643770400608">
   </g>
   <g id="_1643770399904">
   </g>
   <g id="_1643770398368">
   </g>
   <g id="_1643770397088">
   </g>
   <g id="_1643770397248">
   </g>
   <g id="_1643770398208">
   </g>
   <g id="_1643770396032">
   </g>
  </g>
 </g>
</svg>
