<svg height="512pt" viewBox="0 -10 512 512" width="512pt" xmlns="http://www.w3.org/2000/svg"><path d="m512 315.101562c0-17.285156-5.734375-34.398437-16.144531-48.195312l-55.886719-74.050781c-11.277344-14.9375-29.179688-23.855469-47.894531-23.855469h-40.074219v-40.101562c0-33.082032-26.914062-60-60-60h-12v40h12c11.027344 0 20 8.972656 20 20v283.101562h-120.441406c-8.253906-23.277344-30.484375-40-56.558594-40s-48.304688 16.722656-56.558594 40h-18.441406c-11.027344 0-20-8.972656-20-20v-202h-40v202c0 33.085938 26.914062 60 60 60h18.441406c8.253906 23.277344 30.484375 40 56.558594 40s48.304688-16.722656 56.558594-40h123.882812c8.253906 23.277344 30.484375 40 56.558594 40s48.304688-16.722656 56.558594-40h83.441406zm-119.925781-106.101562c6.238281 0 12.207031 2.972656 15.964843 7.953125l50.601563 67.046875h-106.640625v-75zm-257.074219 243c-11.027344 0-20-8.972656-20-20s8.972656-20 20-20 20 8.972656 20 20-8.972656 20-20 20zm237 0c-11.027344 0-20-8.972656-20-20s8.972656-20 20-20 20 8.972656 20 20-8.972656 20-20 20zm56.558594-40c-8.253906-23.277344-30.484375-40-56.558594-40-7.011719 0-13.738281 1.21875-20 3.441406v-51.441406h120v88zm-298.558594-362v-50h40v50c0 5.515625 4.484375 10 10 10h20v-60h40v150h-40v-50h-20c-27.570312 0-50-22.429688-50-50zm-28 100h-102v-30.207031l5.765625-5.84375c.132813-.132813 13.246094-13.441407 26.910156-28.933594 20.742188-23.515625 26.460938-33.570313 27.902344-36.601563-.785156-4.699218-4.984375-8.414062-9.867187-8.414062h-50.710938v-40h50.710938c27.570312 0 50 22.429688 50 50 0 10.683594-5.996094 24.6875-35.269532 58.316406-.492187.566406-.980468 1.125-1.46875 1.683594h38.027344zm0 0"/></svg>