<?xml version="1.0"?>


<svg xmlns="http://www.w3.org/2000/svg" id="Layer_1" data-name="Layer 1" viewBox="0 0 64 64" width="512" height="512"><path d="M63,37a2,2,0,0,0-2-2H59.41l2.64-3a3,3,0,0,0-2.25-5H50l3-4h9a2,2,0,0,0,0-4H52a2,2,0,0,0-1.6.8L45,27H40.54L33.1,22.66a10,10,0,0,0-10.19.06l-.05,0L27.24,14H33a2,2,0,0,0,0-4H26a2,2,0,0,0-1.79,1.11l-.72,1.43-1.8-.9a6,6,0,1,0-5.38,10.72l1.82.91L16.2,27.12a18.07,18.07,0,0,0-12.35,0,2,2,0,0,0,1.36,3.76,14,14,0,0,1,9.18-.1l-1.8,3.61A10,10,0,1,0,20,44a10,10,0,0,0-3.84-7.86L18.22,32l9.1,14.06A2,2,0,0,0,29,47H44.46a10,10,0,1,0,17.86-8.51A2,2,0,0,0,63,37ZM10,50a6,6,0,1,1,.74-12L8.21,43.11a2,2,0,0,0,3.58,1.78l2.53-5A6,6,0,0,1,10,50Zm8.1-31.21a2,2,0,1,1,1.8-3.58l1.78.9-1.79,3.57ZM30.09,43,20.8,28.65,25,26.15a6,6,0,0,1,6.11,0L36,29a12,12,0,0,1-7,2,2,2,0,0,0,0,4,15.24,15.24,0,0,0,10.87-4H57.59l-3.5,4H42a2,2,0,0,0,0,4h8.59l-3.5,4ZM54,50a6,6,0,0,1-5.28-3.14,2,2,0,0,0,.78-.54L55.91,39H57.3A6,6,0,0,1,54,50Z"/><path d="M46,56a2,2,0,0,0,2,2H59a2,2,0,0,0,0-4H48A2,2,0,0,0,46,56Z"/><circle cx="40" cy="56" r="2"/><path d="M0,56a2,2,0,0,0,2,2H17a2,2,0,0,0,0-4H2A2,2,0,0,0,0,56Z"/></svg>
