<svg height="512pt" viewBox="0 -39 512 511" width="512pt" xmlns="http://www.w3.org/2000/svg"><path d="m450.808594 204.425781-11.453125-58.265625c-3.132813-16.351562-8.542969-28.839844-16.539063-38.171875-10.308594-12.027343-24.765625-18.386719-41.785156-18.386719l-63-.101562c-.011719 0-.019531 0-.03125 0-5.300781 0-10.382812 2.101562-14.132812 5.847656-3.757813 3.75-5.867188 8.84375-5.867188 14.152344v94.066406l-52.460938-.011718c2.234376-6.273438 3.460938-13.023438 3.460938-20.054688v-73c11.046875 0 20-8.953125 20-20v-70c0-11.046875-8.953125-20-20-20h-229c-11.046875 0-20 8.953125-20 20v70c0 11.046875 8.953125 20 20 20v73c0 7.011719 1.21875 13.742188 3.441406 20h-3.4375s0 0-.003906 0c-5.304688 0-10.390625 2.105469-14.140625 5.855469s-5.859375 8.839843-5.859375 14.144531v90.101562c0 43.585938 35.039062 79.117188 78.425781 79.960938 8.246094 23.296875 30.488281 40.039062 56.574219 40.039062 26.074219 0 48.304688-16.722656 56.558594-40h123.882812c8.253906 23.277344 30.484375 40 56.558594 40s48.304688-16.722656 56.558594-40h63.441406c11.046875 0 20-8.953124 20-20v-93c0-37.242187-26.234375-68.46875-61.191406-76.175781zm-410.808594-163.925781h189v30h-189zm74 70v10c0 11.046875 8.953125 20 20 20s20-8.953125 20-20v-10h55v73c0 11.027344-8.972656 20-20 20h-109c-11.027344 0-20-8.972656-20-20v-73zm224 19h43c6.105469 0 14.464844.101562 19.082031 24.234375.003907.035156.011719.066406.019531.101563l9.78125 49.757812-71.882812-.015625zm-203 264.101562c-11.027344 0-20-8.972656-20-20 0-11.03125 8.972656-20 20-20s20 8.96875 20 20c0 11.027344-8.972656 20-20 20zm237 0c-11.027344 0-20-8.972656-20-20 0-11.03125 8.972656-20 20-20s20 8.96875 20 20c0 11.027344-8.972656 20-20 20zm100-40h-43.441406c-8.253906-23.28125-30.484375-40-56.558594-40s-48.304688 16.71875-56.558594 40h-123.882812c-8.253906-23.28125-30.484375-40-56.558594-40-26.058594 0-48.277344 16.703126-56.546875 39.960938-21.339844-.816406-38.453125-18.425781-38.453125-39.960938v-70.101562h398c18.914062 2.164062 34 17.617188 34 37.101562zm0 0"/></svg>