<!--
  - Copyright (c) 2023. Selldone® Business OS™
  -
  - Author: M.Pajuhaan
  - Web: https://selldone.com
  - ━━━━━━━━━━━━━━━━━━━━━━━━━━━━━━━━━━━━━━━━━━━━━━━━━━━━━━
  -
  - All rights reserved. In the weave of time, where traditions and innovations intermingle, this content was crafted.
  - From the essence of thought, through the corridors of creativity, each word, and sentiment has been molded.
  - Not just to exist, but to inspire. Like an artist's stroke or a sculptor's chisel, every nuance is deliberate.
  - Our journey is not just about reaching a destination, but about creating a masterpiece.
  - Tread carefully, for you're treading on dreams.
  -->

<svg id="Layer_1" enable-background="new 0 0 512.007 512.007" height="512" viewBox="0 0 512.007 512.007" width="512" xmlns="http://www.w3.org/2000/svg"><path d="m496.193 225.914c-15.242-19.599-41.117-23.793-60.467-23.793-.284 0-.57.001-.851.002-4.824.03-9.478.327-13.76.759-1.774-8.588-4.23-16.88-7.351-24.823 18.439-7.034 37.706-16.998 48.418-27.709 14.984-14.983 21.86-36.142 19.36-59.577-1.836-17.217-8.764-34.479-17.239-42.954s-25.737-15.402-42.954-17.238c-23.433-2.497-44.593 4.377-59.577 19.361-10.535 10.535-20.769 29.748-27.983 48.309-7.863-3.072-16.068-5.491-24.561-7.245.466-4.621.779-9.673.771-14.911-.041-27.286-8.268-48.091-23.791-60.164-12.513-9.732-32.535-15.493-54.931-15.805-21.869-.314-46.159 3.993-68.447 12.101-25.676 9.338-49.184 24.236-66.83 41.882-.648.694-6.345 6.877-11.154 14.747-14.431 23.614-4.494 37.659.448 42.602 11.134 11.135 28.468 10.516 54.707 9.579 7.122-.254 14.952-.531 22.963-.528-17.33 10.52-33.727 23.375-48.678 38.326-27.67 27.67-48.18 60.282-59.925 94.626-15.198 8.103-32.41 18.502-43.536 29.021-10.93 10.334-14.13 22.639-7.071 29.698 12.249 12.249 27.044 17.557 39.709 19.676 2.099 30.028 11.878 57.301 28.711 79.808l-26.477 26.477 28.284 28.285 26.476-26.476c22.264 16.653 49.19 26.404 78.836 28.644 2.137 12.63 7.451 27.353 19.65 39.551 7.059 7.059 19.365 3.859 29.699-7.071 10.358-10.956 20.599-27.812 28.646-42.836 34.849-11.664 67.961-32.362 96-60.401 14.951-14.951 27.806-31.348 38.326-48.678.003 8.011-.273 15.841-.528 22.963-.937 26.237-1.556 43.571 9.578 54.706 3.036 3.035 9.506 7.956 19.519 7.956 6.288 0 13.974-1.941 23.083-7.508 7.87-4.809 14.039-10.52 14.734-11.168 39.954-39.954 54.404-96.064 53.999-134.696-.237-22.66-5.999-42.89-15.806-55.498zm-357.62-144.852c-4.146.148-8.901.318-13.373.391 31.372-31.145 76.395-41.765 105.521-41.332 15.079.21 26.4 3.859 30.93 7.383 5.129 3.989 8.328 14.967 8.348 28.648.006 4.034-.254 7.955-.631 11.513-5.752.173-11.582.601-17.483 1.315-6.787.821-13.557 2.005-20.29 3.515-28.944-13.711-65.335-12.424-93.022-11.433zm114.231 48.062-18.516 69.103-41.268 11.058-35.677-35.677c29.511-24.672 63.151-39.745 95.461-44.484zm-123.742 72.772 35.265 35.265-11.356 42.383-68.475 18.348c4.65-32.473 19.76-66.322 44.566-95.996zm43.752 225.752c-22.673-3.501-43.196-13.078-59.206-29.075l-.058-.058c-15.997-16.01-25.574-36.533-29.075-59.207l78.849-21.127 30.619 30.618zm18.793-137.752 11.208-41.825 41.826-11.208 30.618 30.619-11.207 41.825-41.826 11.208zm22.624 137.731 18.348-68.475 42.384-11.356 35.264 35.265c-29.673 24.806-63.523 39.916-95.996 44.566zm124.28-72.851-35.672-35.673 11.058-41.269 69.101-18.516c-4.74 32.309-19.818 65.949-44.487 95.458zm-34.968-115.578-30.619-30.619 21.34-79.642c22.884 3.439 43.6 13.06 59.73 29.189 16.131 16.132 25.74 36.85 29.179 59.734zm90.189-96.395c-3.528-4.527-7.346-8.853-11.453-12.961-4.187-4.187-8.604-8.07-13.226-11.654 6.163-17.386 15.307-34.266 21.004-39.964 14.986-14.985 40.841-5.369 45.912-2.071 3.298 5.07 12.914 30.927-2.071 45.912-5.672 5.672-22.047 14.492-40.166 20.738zm36.937 244.12c.073-4.471.243-9.227.391-13.372.989-27.687 2.278-64.079-11.434-93.023 1.51-6.733 2.694-13.503 3.515-20.29.714-5.905 1.143-11.738 1.315-17.494 3.307-.35 6.928-.597 10.668-.621.193-.002.384-.002.576-.002 13.848 0 24.898 3.183 28.917 8.351 3.559 4.575 7.222 16.047 7.382 31.361.306 29.011-10.346 73.88-41.33 105.09z"/></svg>