

<svg id="Line" enable-background="new 0 0 32 32" height="512" viewBox="0 0 32 32" width="512" xmlns="http://www.w3.org/2000/svg"><path id="XMLID_234_" d="m23.566 7.044c-1.99-3.114-4.847-4.719-8.969-5-.65-.053-1.236.34-1.456.958-.221.618-.011 1.288.522 1.666 2.78 1.979 4.94 4.035 5.784 5.475-.371.929-.528 1.988-.402 3.024-2.022-.301-4.398-.119-6.471.543-2.95.943-4.738 3.149-5.69 5.581-.433-.187-.903-.291-1.384-.291-1.93 0-3.5 1.57-3.5 3.5s1.57 3.5 3.5 3.5c.169 0 .335-.015.5-.038v.038c0 2.206 1.794 4 4 4h7c.552 0 1-.448 1-1 0-.741-.106-1.491-.304-2.213 1.178-.534 2.274-1.236 3.233-2.092l.714 1.072c1.121 1.682 3.66 1.653 4.704-.146.501-.864.504-1.897.008-2.766l-2.085-3.629c.078-.422.107-.834.096-1.232.045 0 .089.006.134.006 3.187 0 5.5-2.103 5.5-5 0-3.009-3.03-6.243-6.434-5.956zm-17.563 16.862c-.161.058-.329.094-.503.094-.827 0-1.5-.673-1.5-1.5s.673-1.5 1.5-1.5c.287 0 .562.089.8.239-.196.913-.291 1.818-.297 2.667zm10.552-19.568c2.166.5 3.778 1.57 5.026 3.312-.338.193-.649.422-.93.692-.901-1.209-2.309-2.588-4.096-4.004zm8.064 19.51c.198.347.064.653-.002.768-.293.506-1.001.504-1.309.042l-1.385-2.08c-.171-.256-.45-.419-.756-.443-.311-.029-.607.095-.814.323-.953 1.044-2.13 1.879-3.426 2.475-.993-1.7-2.651-2.933-4.927-2.933-.552 0-1 .448-1 1s.448 1 1 1c2.476 0 3.621 2.128 3.919 4h-5.919c-1.103 0-2-.897-2-2v-2c0-3.104 1.357-7.163 5.183-8.385 2.167-.693 4.782-.776 6.639-.237.587.951 1.453 1.712 2.486 2.164.097.47.079 1.017-.068 1.608-.062.25-.025.515.104.739zm-.119-7.848c-1.93 0-3.5-1.57-3.5-3.5 0-1.742.928-3.5 3-3.5 1.944 0 4 2.056 4 4 0 2.072-1.758 3-3.5 3z"/><path id="XMLID_244_" d="m25 12c0 .552-.448 1-1 1s-1-.448-1-1 .448-1 1-1 1 .448 1 1z"/></svg>