<!--
  - Copyright (c) 2023. Selldone® Business OS™
  -
  - Author: M.Pajuhaan
  - Web: https://selldone.com
  - ━━━━━━━━━━━━━━━━━━━━━━━━━━━━━━━━━━━━━━━━━━━━━━━━━━━━━━
  -
  - All rights reserved. In the weave of time, where traditions and innovations intermingle, this content was crafted.
  - From the essence of thought, through the corridors of creativity, each word, and sentiment has been molded.
  - Not just to exist, but to inspire. Like an artist's stroke or a sculptor's chisel, every nuance is deliberate.
  - Our journey is not just about reaching a destination, but about creating a masterpiece.
  - Tread carefully, for you're treading on dreams.
  -->

<svg id="svg5" height="64" viewBox="0 0 16.933331 16.933332" width="64" xmlns="http://www.w3.org/2000/svg" xmlns:svg="http://www.w3.org/2000/svg"><g id="layer1" transform="translate(-49.191 -7.971)"><path id="path6223" d="m52.894338 8.2353446c-.7492-.0000003-1.444958.3892639-1.837614 1.0273275l-1.485181 2.4132889h.621668l-.000517.001h5.632731l.223242-2.9124827h-.0031l.03979-.5291667zm6.330879 0 .04082.5291667.223242 2.9124827h5.632731l-.000517-.001h.621151l-1.484659-2.4133219c-.392661-.6380632-1.088927-1.0273275-1.838131-1.0273275zm-9.769946 3.9677154v5.028634 6.085933c0 .727487.594396 1.321883 1.321883 1.321883h13.759884c.727487 0 1.3224-.594396 1.3224-1.321883v-11.114567h-6.349483v.001 3.7052a.26460996.26460996 0 0 1 -.382923.236161.26460996.26460996 0 0 0 .01447.0036.26460996.26460996 0 0 1 -.01447-.0047l-1.468644-.734322-1.470711.734322a.26460996.26460996 0 0 1 -.01499.0052.26460996.26460996 0 0 0 .01499-.0041.26460996.26460996 0 0 1 -.382923-.236161v-3.7052-.001zm1.5875 8.997384h1.299146.265617.263549 2.670122a.26460996.26460996 0 0 1 .263549.265617v1.5875a.26460996.26460996 0 0 1 -.263549.264066h-4.498434a.26460996.26460996 0 0 1 -.265617-.264066v-1.5875a.26460996.26460996 0 0 1 .265617-.265617z" stroke-linecap="square" stroke-linejoin="round"/></g></svg>