<svg height="512" viewBox="0 0 32 32" width="512" xmlns="http://www.w3.org/2000/svg"><g id="costumer_support"><path d="m31 13.5v5c0 1.3789063-1.1210938 2.5-2.5 2.5h-.6806641c-.9560546 5.6660156-5.8847656 10-11.8193359 10-.5527344 0-1-.4472656-1-1s.4472656-1 1-1c5.5136719 0 10-4.4863281 10-10v-6c0-5.5136719-4.4863281-10-10-10s-10 4.4863281-10 10v7c0 .5527344-.4472656 1-1 1h-1.5c-1.3789062 0-2.5-1.1210937-2.5-2.5v-5c0-1.3789062 1.1210938-2.5 2.5-2.5h.6806641c.9560547-5.6660156 5.8847656-10 11.8193359-10s10.8632813 4.3339844 11.8193359 10h.6806641c1.3789063 0 2.5 1.1210938 2.5 2.5zm-15-8.5c-4.4111328 0-8 3.5888672-8 8v5c0 4.4111328 3.5888672 8 8 8s8-3.5888672 8-8v-5c0-4.4111328-3.5888672-8-8-8z"/></g></svg>