

<svg id="svg27573" height="12.7mm" viewBox="0 0 12.7 12.699997" width="12.7mm" xmlns="http://www.w3.org/2000/svg" xmlns:svg="http://www.w3.org/2000/svg"><g id="layer1" stroke-linecap="round" stroke-linejoin="round" transform="translate(-114.464 -88.036)"><path id="path27746" d="m115.92188 92.128906a.39687499.39687499 0 0 0 -.39649.396485.39687499.39687499 0 0 0 .39649.396484h2.9082a.39687499.39687499 0 0 0 .39648-.396484.39687499.39687499 0 0 0 -.39648-.396485z"/><path id="path27749" d="m116.97656 93.988281a.39687499.39687499 0 0 0 -.39843.396485.39687499.39687499 0 0 0 .39843.398437h1.85157a.39687499.39687499 0 0 0 .39843-.398437.39687499.39687499 0 0 0 -.39843-.396485z"/><path id="path27752" d="m117.76758 95.849609a.39687499.39687499 0 0 0 -.39649.396485.39687499.39687499 0 0 0 .39649.396484h1.0625a.39687499.39687499 0 0 0 .39648-.396484.39687499.39687499 0 0 0 -.39648-.396485z"/><path id="path27755" d="m120.96795 91.307493c-.66632 0-1.21336.551984-1.21336 1.21853v3.719153c0 .666543.54704 1.21853 1.21336 1.21853h3.92534c.66631 0 1.2113-.551987 1.2113-1.21853v-3.719153c0-.666546-.54499-1.21853-1.2113-1.21853h-.49163a.14864443.14864443 0 0 0 -.14864.148644v1.607573c-.00058.145313-.11824.262969-.26355.26355h-2.1177c-.14612.000557-.26503-.11743-.26562-.26355v-1.607573a.14864443.14864443 0 0 0 -.14864-.148644zm1.16789.148644v1.193312a.14864443.14864443 0 0 0 .14864.148644h1.29021a.14864443.14864443 0 0 0 .14865-.148644v-1.193312a.14864443.14864443 0 0 0 -.14865-.148644h-1.29021a.14864443.14864443 0 0 0 -.14864.148644zm1.72198 4.25289h.79272c.21878.000285.39607.177573.39636.396358 0 .218986-.17738.396589-.39636.396875h-.79272c-.21999.0011-.39894-.176877-.39894-.396875.00028-.219796.17915-.397503.39894-.396358z"/></g></svg>