<!--
  - Copyright (c) 2023. Selldone® Business OS™
  -
  - Author: M.Pajuhaan
  - Web: https://selldone.com
  - ━━━━━━━━━━━━━━━━━━━━━━━━━━━━━━━━━━━━━━━━━━━━━━━━━━━━━━
  -
  - All rights reserved. In the weave of time, where traditions and innovations intermingle, this content was crafted.
  - From the essence of thought, through the corridors of creativity, each word, and sentiment has been molded.
  - Not just to exist, but to inspire. Like an artist's stroke or a sculptor's chisel, every nuance is deliberate.
  - Our journey is not just about reaching a destination, but about creating a masterpiece.
  - Tread carefully, for you're treading on dreams.
  -->

<svg height="512" viewBox="0 0 59 59" width="512" xmlns="http://www.w3.org/2000/svg"><g id="Page-1" fill="none" fill-rule="evenodd"><g id="036---Clapping" fill-rule="nonzero"><path id="Shape" d="m51.18 33.41c-.0063904 1.0597407-.4261813 2.0751324-1.17 2.83l-8.49 8.48c-6.71 6.71-12.67 9.69-16.41 11.01-1.6438325.5591844-3.1384225 1.4860354-4.37 2.71l-.16.15c-.2577846.2638863-.6110977.4126599-.98.4126599s-.7222154-.1487736-.98-.4126599l-15.01-15.01c-.54009834-.5417111-.54009834-1.4182889 0-1.96.38509779-.3779409.73954718-.7858921 1.06-1.22.52750222-.6880919.97692553-1.4326589 1.34-2.22.59213649-1.2800635.95432936-2.6543654 1.07-4.06l1.22-14.89c.18580388-2.1989641 2.1095305-3.8370329 4.31-3.67.0673921.0043545.1342963.0143901.2.03.3475898.0425661.6875365.1334429 1.01.27.4825059.2033127.920696.4988362 1.29.87.8362639.8249924 1.2614819 1.979679 1.16 3.15l-.4 4.85.2.19 10.96-10.96 3.88-3.88c.7489618-.75357224 1.767543-1.17731445 2.83-1.17731445s2.0810382.42374221 2.83 1.17731445c.4950112.4915694.8504784 1.1058719 1.03 1.78.0994358.3377187.1499495.6879469.15 1.04-.0025945 1.0107122-.3885691 1.9827964-1.08 2.72l-.01.02 2.74-2.74c1.5642825-1.5597839 4.0957175-1.5597839 5.66 0 .4921662.5016275.8468859 1.1215261 1.03 1.8.0912685.3357825.1383325.6820387.14 1.03-.0070515 1.012822-.3922319 1.9864725-1.08 2.73l-.74.75-2.18 2.18c1.5642825-1.5597839 4.0957175-1.5597839 5.66 0 .4943005.4944526.8465932 1.1126918 1.02 1.79.0994358.3377187.1499495.6879469.15 1.04-.0091405.9979096-.382548 1.9581004-1.05 2.7l-3.08 3.08-.58.58c1.5642825-1.5597839 4.0957175-1.5597839 5.66 0 .7438187.7548676 1.1636096 1.7702593 1.17 2.83z" fill="#26b99a"/><g fill="#33907c"><path id="Shape" d="m42.34 8.31c-.0036199 1.06029767-.4238263 2.0766945-1.17 2.83l-1.77 1.76-2.83 2.83c.7549613-.7461851 1.1798397-1.7635111 1.1798397-2.825s-.4248784-2.0788149-1.1798397-2.825c-.7489618-.75357224-1.767543-1.17731445-2.83-1.17731445s-2.0810382.42374221-2.83 1.17731445l2.13-2.13 2.47-2.47c1.1440463-1.14532076 2.8656305-1.48816028 4.3611605-.86848972 1.49553.61967055 2.4701135 2.07966299 2.4688395 3.69848972z"/><path id="Shape" d="m34.21 5.13c-.0068859 1.02741896-.4036222 2.01389842-1.11 2.76l-.06.06-2.13 2.13-3.88 3.88-10.96 10.96-.2-.19.4-4.85c.1014819-1.170321-.3237361-2.3250076-1.16-3.15-.369304-.3711638-.8074941-.6666873-1.29-.87l13.56-13.56c.7489618-.75357224 1.767543-1.17731445 2.83-1.17731445s2.0810382.42374221 2.83 1.17731445c.7438187.75486756 1.1636096 1.77025926 1.17 2.83z"/><path id="Shape" d="m13.07 12.44-.26 3.15c-.0657037-.0156099-.1326079-.0256455-.2-.03-2.2004695-.1670329-4.12419612 1.4710359-4.31 3.67l-1.22 14.89c-.11567064 1.4056346-.47786351 2.7799365-1.07 4.06-.36307447.7873411-.81249778 1.5319081-1.34 2.22l-4.27-4.27c-.53026847-.5418521-.53026847-1.4081479 0-1.95 1.00126953-.9944283 1.81735491-2.159297 2.41-3.44.59096008-1.2840038.95306974-2.6613741 1.07-4.07l1.22-14.89c.08217351-1.4516082.94554111-2.74431764 2.25494001-3.37629336 1.30939889-.63197571 2.85860609-.50368503 4.04621299.33506909 1.187607.83875411 1.8265723 2.25587257 1.668847 3.70122427z"/></g><path id="Shape" d="m58 11h-4c-.5522847 0-1-.4477153-1-1 0-.55228475.4477153-1 1-1h4c.5522847 0 1 .44771525 1 1 0 .5522847-.4477153 1-1 1z" fill="#f0c419"/><path id="Shape" d="m48 6c-.5522847 0-1-.44771525-1-1v-4c0-.55228475.4477153-1 1-1s1 .44771525 1 1v4c0 .55228475-.4477153 1-1 1z" fill="#f0c419"/><path id="Shape" d="m52 7c-.4043959-.00008635-.7689341-.2437275-.923678-.61734544s-.0692299-.80366031.216678-1.08965456l3-3c.2510745-.25995658.6228779-.3642126.9725073-.27269716.3496295.09151544.6226744.3645604.7141899.71418984.0915154.34962943-.0127406.72143285-.2726972.97250732l-3 3c-.1874927.18754937-.4418052.29294336-.707.293z" fill="#f0c419"/><path id="Shape" d="m46.23 15.73c-.0070515 1.012822-.3922319 1.9864725-1.08 2.73l-.74.75-1.4 1.39-11.32 11.31c-.3900375.3877236-1.0199625.3877236-1.41 0-.1931743-.1854846-.3016446-.4421976-.3-.71.0025188-.1273428.029686-.2529913.08-.37.0482082-.1248219.1233214-.2374917.22-.33l15.81-15.8c.0912685.3357825.1383325.6820387.14 1.03z" fill="#14a085"/><path id="Shape" d="m49.06 24.22c-.0091405.9979096-.382548 1.9581004-1.05 2.7l-3.08 3.08-.58.58-7 6.99c-.3900375.3877236-1.0199625.3877236-1.41 0-.3877236-.3900375-.3877236-1.0199625 0-1.41l7.78-7.78 5.19-5.2c.0994358.3377187.1499495.6879469.15 1.04z" fill="#14a085"/><path id="Shape" d="m37.75 12.9c-.0025945 1.0107122-.3885691 1.9827964-1.08 2.72l-.01.02-10.62 10.62c-.3900375.3877236-1.0199625.3877236-1.41 0-.3905035-.3872819-.3949712-1.0172183-.01-1.41l11.32-11.32v-.01l1.66-1.66c.0994358.3377187.1499495.6879469.15 1.04z" fill="#14a085"/></g></g></svg>