

<svg id="flat" height="512" viewBox="0 0 128 128" width="512" xmlns="http://www.w3.org/2000/svg"><g fill="#f6ba5b"><path d="m63.722 8.835a.991.991 0 0 1 -.992-.992v-7.351a.992.992 0 1 1 1.984 0v7.351a.992.992 0 0 1 -.992.992z"/><path d="m49.671 11.041a.993.993 0 0 1 -.944-.686l-2.272-6.991a.993.993 0 0 1 1.888-.614l2.271 6.992a.993.993 0 0 1 -.943 1.3z"/><path d="m36.989 17.48a.99.99 0 0 1 -.8-.409l-4.321-5.947a.992.992 0 0 1 1.602-1.167l4.321 5.948a.991.991 0 0 1 -.8 1.575z"/><path d="m26.917 27.523a.989.989 0 0 1 -.583-.189l-5.947-4.321a.992.992 0 0 1 1.166-1.606l5.947 4.321a.992.992 0 0 1 -.584 1.795z"/><path d="m20.443 40.188a.984.984 0 0 1 -.306-.049l-6.992-2.272a.993.993 0 0 1 .613-1.888l6.991 2.272a.993.993 0 0 1 -.306 1.937z"/><path d="m114.554 70.766a1.022 1.022 0 0 1 -.306-.048l-6.991-2.272a.992.992 0 1 1 .612-1.888l6.991 2.272a.992.992 0 0 1 -.306 1.936z"/><path d="m18.2 54.232h-7.353a.993.993 0 0 1 0-1.985h7.353a.993.993 0 0 1 0 1.985z"/><path d="m117.153 54.232h-7.353a.993.993 0 0 1 0-1.985h7.351a.993.993 0 0 1 0 1.985z"/><path d="m13.412 70.555a.993.993 0 0 1 -.306-1.937l6.994-2.271a.992.992 0 1 1 .612 1.887l-6.991 2.272a.988.988 0 0 1 -.309.049z"/><path d="m107.524 39.976a.992.992 0 0 1 -.306-1.936l6.991-2.272a.993.993 0 0 1 .613 1.888l-6.992 2.271a.984.984 0 0 1 -.306.049z"/><path d="m100.953 27.121a.992.992 0 0 1 -.585-1.795l5.948-4.321a.993.993 0 0 1 1.167 1.606l-5.948 4.321a.988.988 0 0 1 -.582.189z"/><path d="m90.729 16.927a.993.993 0 0 1 -.8-1.576l4.319-5.951a.992.992 0 1 1 1.6 1.167l-4.321 5.947a.99.99 0 0 1 -.798.413z"/><path d="m77.857 10.391a.994.994 0 0 1 -.944-1.3l2.271-6.991a.993.993 0 0 1 1.888.613l-2.272 6.987a.992.992 0 0 1 -.943.691z"/></g><path d="m63.732 113.425c-4.866 0-8.811 3.15-8.811 7.037s3.945 7.038 8.811 7.038 8.81-3.151 8.81-7.038-3.942-7.037-8.81-7.037z" fill="#384868"/><path d="m49.107 97.034h29.249a0 0 0 0 1 0 0v21.857a3.473 3.473 0 0 1 -3.473 3.473h-22.3a3.473 3.473 0 0 1 -3.473-3.473v-21.857a0 0 0 0 1 -.003 0z" fill="#43567c"/><path d="m61.552 13.513a40.279 40.279 0 0 0 -24.833 70.1c7.039 6.524 7.814 14.1 8.567 20.339a2.763 2.763 0 0 0 2.747 2.428h31.4a2.762 2.762 0 0 0 2.746-2.428c.754-6.237 1.016-13.782 8.57-20.342a39.38 39.38 0 0 0 13.265-29.874 40.283 40.283 0 0 0 -42.462-40.223z" fill="#f9c87e"/><path d="m104.006 53.736a40 40 0 0 1 -13.249 29.878c-6.979 6.261-7.823 14.1-8.571 20.336a2.778 2.778 0 0 1 -2.752 2.437h-7.41a2.749 2.749 0 0 0 2.752-2.437c.766-6.231 3.852-16.07 8.57-20.336a40.27 40.27 0 0 0 -23.333-69.979q.767-.088 1.533-.118a40.288 40.288 0 0 1 42.46 40.219z" fill="#f6ba5b"/><path d="m78.582 109.474h-29.7a1.51 1.51 0 0 0 0 3.019h29.7a1.51 1.51 0 1 0 0-3.019z" fill="#384868"/><path d="m78.582 115.266h-29.7a1.51 1.51 0 0 0 0 3.019h29.7a1.51 1.51 0 1 0 0-3.019z" fill="#384868"/><path d="m58.721 105.059s.253-33.406-9.346-48.174" fill="none" stroke="#f6ba5b" stroke-linecap="round" stroke-linejoin="round" stroke-width="2"/><path d="m69.279 105.059s-.253-33.406 9.346-48.174" fill="none" stroke="#f6ba5b" stroke-linecap="round" stroke-linejoin="round" stroke-width="2"/><path d="m64 105.059v-50.263" fill="none" stroke="#f6ba5b" stroke-linecap="round" stroke-linejoin="round" stroke-width="2"/><path d="m49.375 56.885 7.76 1.208 6.865-3.853 6.456 4.349 8.169-1.704" fill="none" stroke="#f6ba5b" stroke-linecap="round" stroke-linejoin="round" stroke-width="2"/></svg>