<!--
  - Copyright (c) 2023. Selldone® Business OS™
  -
  - Author: M.Pajuhaan
  - Web: https://selldone.com
  - ━━━━━━━━━━━━━━━━━━━━━━━━━━━━━━━━━━━━━━━━━━━━━━━━━━━━━━
  -
  - All rights reserved. In the weave of time, where traditions and innovations intermingle, this content was crafted.
  - From the essence of thought, through the corridors of creativity, each word, and sentiment has been molded.
  - Not just to exist, but to inspire. Like an artist's stroke or a sculptor's chisel, every nuance is deliberate.
  - Our journey is not just about reaching a destination, but about creating a masterpiece.
  - Tread carefully, for you're treading on dreams.
  -->

<svg id="Layer_1" height="512" viewBox="0 0 512 512" width="512" xmlns="http://www.w3.org/2000/svg"><g><g><g fill="#4b8c41"><path d="m144 200v-8c0-4.418-3.582-8-8-8h-8c-26.468 0-48 21.532-48 48v8c0 4.418 3.582 8 8 8h8c26.468 0 48-21.532 48-48z"/><path d="m106.508 162.928 6.928 4c7.54 4.354 15.78 6.422 23.919 6.422 16.602 0 32.771-8.609 41.651-23.99l4-6.929c2.209-3.826.897-8.72-2.929-10.929l-6.929-3.999c-22.92-13.236-52.335-5.353-65.568 17.569l-4 6.928c-2.21 3.826-.898 8.719 2.928 10.928z"/><path d="m165.359 316.994-6.929-4c-3.827-2.208-8.719-.898-10.929 2.929l-3.999 6.929c-13.234 22.921-5.353 52.335 17.569 65.568l6.928 4c1.26.728 2.635 1.073 3.992 1.073 2.765 0 5.454-1.435 6.936-4.001l4-6.928c13.235-22.92 5.353-52.335-17.568-65.57z"/><path d="m139.006 261.359-4-6.929c-2.21-3.825-7.101-5.136-10.929-2.929l-6.929 4.001c-22.921 13.233-30.803 42.647-17.568 65.569l4 6.928c1.481 2.566 4.17 4.001 6.936 4.001 1.356 0 2.732-.346 3.992-1.073l6.928-4c11.104-6.41 19.046-16.761 22.365-29.146 3.318-12.384 1.615-25.319-4.795-36.422z"/></g><path d="m325.657 442.343-9.373-9.373c-16.102-16.102-37.512-24.97-60.284-24.97-92.636 0-168-75.364-168-168 0-57.007 28.549-109.656 76.369-140.836l-8.738-13.402c-52.367 34.144-83.631 91.803-83.631 154.238 0 101.458 82.542 184 184 184 18.499 0 35.89 7.203 48.97 20.284l9.373 9.373c1.563 1.562 3.609 2.343 5.657 2.343s4.095-.781 5.657-2.343c3.124-3.125 3.124-8.189 0-11.314z" fill="#4b8c41"/><g fill="#82aa41"><path d="m72 248h8c4.418 0 8-3.582 8-8v-8c0-30.879-25.121-56-56-56h-8c-4.418 0-8 3.582-8 8v8c0 30.879 25.121 56 56 56z"/><path d="m92.651 154.928 6.928 4c1.26.728 2.635 1.073 3.992 1.073 2.765 0 5.454-1.435 6.936-4.001l4.001-6.928c15.438-26.742 6.244-61.059-20.497-76.498l-6.929-4c-3.827-2.207-8.719-.898-10.928 2.929l-4 6.928c-7.479 12.954-9.467 28.045-5.595 42.494 3.872 14.448 13.138 26.524 26.092 34.003z"/><path d="m172 385.493-6.928-4.001c-26.744-15.439-61.059-6.243-76.498 20.497l-4 6.929c-2.209 3.826-.897 8.719 2.929 10.928l6.928 4c8.629 4.982 18.205 7.527 27.909 7.527 4.863 0 9.761-.64 14.585-1.933 14.448-3.871 26.524-13.138 34.003-26.092l4-6.928c2.21-3.825.898-8.718-2.928-10.927z"/><path d="m107.579 334.928c3.826-2.209 5.138-7.102 2.928-10.928l-3.999-6.928c-7.479-12.954-19.556-22.221-34.004-26.092-14.448-3.872-29.538-1.885-42.493 5.594l-6.929 4c-1.837 1.062-3.179 2.809-3.728 4.858s-.262 4.233.8 6.07l4 6.928c7.479 12.954 19.555 22.221 34.003 26.092 4.825 1.293 9.721 1.933 14.585 1.933 9.704 0 19.281-2.545 27.909-7.527z"/><path d="m192.594 56.068-9.337-.817c-10.647-.929-21.014 2.339-29.198 9.207l-4.206 3.529c-8.185 6.868-13.205 16.512-14.136 27.154l-.817 9.337c-.385 4.401 2.871 8.281 7.272 8.667l9.337.817c1.189.104 2.375.155 3.555.155 9.38 0 18.374-3.262 25.643-9.361l4.207-3.529c8.185-6.869 13.205-16.514 14.136-27.155l.817-9.337c.384-4.401-2.872-8.281-7.273-8.667z"/></g></g><g><g fill="#4b8c41"><path d="m384 184h-8c-4.418 0-8 3.582-8 8v8c0 26.468 21.532 48 48 48h8c4.418 0 8-3.582 8-8v-8c0-26.468-21.532-48-48-48z"/><path d="m332.995 149.359c8.881 15.382 25.048 23.99 41.649 23.99 8.138 0 16.381-2.068 23.92-6.422l6.928-4c3.826-2.209 5.138-7.102 2.928-10.928l-4-6.928c-13.234-22.922-42.648-30.802-65.568-17.57l-6.929 4c-3.826 2.209-5.138 7.103-2.929 10.929z"/><path d="m364.498 315.923c-2.21-3.825-7.1-5.137-10.929-2.929l-6.929 4.001c-22.921 13.233-30.803 42.648-17.568 65.569l4 6.928c1.481 2.566 4.17 4.001 6.936 4.001 1.356 0 2.732-.346 3.992-1.073l6.928-4c22.922-13.233 30.804-42.647 17.57-65.568z"/><path d="m394.852 255.502-6.929-4c-3.826-2.207-8.719-.898-10.929 2.929l-3.999 6.929c-6.411 11.103-8.114 24.038-4.796 36.423 3.319 12.385 11.262 22.735 22.365 29.146l6.928 4c1.26.728 2.635 1.073 3.992 1.073 2.765 0 5.454-1.435 6.936-4.001l4-6.928c13.234-22.923 5.352-52.337-17.568-65.571z"/></g><path d="m356.369 85.762-8.738 13.402c47.82 31.18 76.369 83.829 76.369 140.836 0 92.636-75.364 168-168 168-22.772 0-44.182 8.868-60.284 24.97l-9.373 9.373c-3.124 3.125-3.124 8.189 0 11.314 1.563 1.562 3.609 2.343 5.657 2.343s4.095-.781 5.657-2.343l9.373-9.373c13.08-13.081 30.471-20.284 48.97-20.284 101.458 0 184-82.542 184-184 0-62.435-31.264-120.094-83.631-154.238z" fill="#4b8c41"/><g fill="#82aa41"><path d="m488 176h-8c-30.879 0-56 25.121-56 56v8c0 4.418 3.582 8 8 8h8c30.879 0 56-25.121 56-56v-8c0-4.418-3.582-8-8-8z"/><path d="m401.493 156c1.481 2.566 4.17 4.001 6.936 4.001 1.356 0 2.732-.346 3.992-1.073l6.928-4c12.954-7.479 22.221-19.555 26.092-34.003 3.872-14.449 1.885-29.54-5.595-42.494l-4-6.928c-2.209-3.825-7.099-5.138-10.928-2.929l-6.929 4.001c-26.741 15.438-35.936 49.755-20.496 76.497z"/><path d="m423.425 401.989c-15.438-26.74-49.755-35.937-76.497-20.496l-6.928 4c-3.826 2.209-5.138 7.102-2.928 10.928l4 6.928c7.479 12.954 19.555 22.221 34.003 26.092 4.825 1.293 9.721 1.933 14.585 1.933 9.704 0 19.281-2.545 27.909-7.527l6.928-4c3.826-2.209 5.138-7.102 2.929-10.928z"/><path d="m488.918 300.574-6.929-3.999c-12.953-7.479-28.045-9.469-42.493-5.595-14.448 3.871-26.524 13.138-34.003 26.092l-4 6.928c-2.21 3.826-.898 8.719 2.928 10.928l6.928 4c8.629 4.982 18.205 7.527 27.909 7.527 4.863 0 9.761-.64 14.585-1.933 14.448-3.871 26.524-13.138 34.003-26.092l4-6.928c1.062-1.837 1.349-4.021.8-6.07s-1.891-3.796-3.728-4.858z"/><path d="m360.491 113.963 9.337-.817c4.401-.386 7.657-4.266 7.272-8.667l-.817-9.337c-.931-10.643-5.951-20.286-14.136-27.154l-4.206-3.529c-8.185-6.868-18.563-10.138-29.198-9.207l-9.337.817c-4.401.386-7.657 4.266-7.272 8.667l.817 9.337c.931 10.642 5.951 20.286 14.137 27.156l4.205 3.527c7.27 6.102 16.263 9.362 25.645 9.362 1.178 0 2.365-.052 3.553-.155z"/></g></g></g></svg>