

<svg id="Capa_1" enable-background="new 0 0 510 510" height="512" viewBox="0 0 510 510" width="512" xmlns="http://www.w3.org/2000/svg" xmlns:xlink="http://www.w3.org/1999/xlink"><linearGradient id="SVGID_1_" gradientUnits="userSpaceOnUse" x1="280.511" x2="167.039" y1="169.611" y2="422.277"><stop offset="0" stop-color="#8a7889"/><stop offset="1" stop-color="#6e566e"/></linearGradient><linearGradient id="lg1"><stop offset="0" stop-color="#6e566e" stop-opacity="0"/><stop offset=".2191" stop-color="#685168" stop-opacity=".219"/><stop offset="1" stop-color="#564357"/></linearGradient><linearGradient id="SVGID_2_" gradientUnits="userSpaceOnUse" x1="240.055" x2="84.216" xlink:href="#lg1" y1="236.581" y2="135.21"/><linearGradient id="SVGID_3_" gradientUnits="userSpaceOnUse" x1="58.663" x2="164.761" y1="90.184" y2="90.184"><stop offset="0" stop-color="#ff7044"/><stop offset="1" stop-color="#f82814"/></linearGradient><linearGradient id="lg2"><stop offset="0" stop-color="#f82814" stop-opacity="0"/><stop offset="1" stop-color="#c0272d"/></linearGradient><linearGradient id="SVGID_4_" gradientUnits="userSpaceOnUse" x1="158.802" x2="96.643" xlink:href="#lg2" y1="74.712" y2="41.3"/><linearGradient id="SVGID_5_" gradientUnits="userSpaceOnUse" x1="87.491" x2="157.468" xlink:href="#lg2" y1="143.782" y2="170.07"/><linearGradient id="SVGID_6_" gradientUnits="userSpaceOnUse" x1="183.126" x2="146.806" xlink:href="#lg1" y1="229.124" y2="192.804"/><linearGradient id="SVGID_7_" gradientUnits="userSpaceOnUse" x1="277.121" x2="196.932" xlink:href="#lg1" y1="323.119" y2="242.93"/><linearGradient id="SVGID_8_" gradientUnits="userSpaceOnUse" x1="345.206" x2="271.443" xlink:href="#lg1" y1="391.204" y2="317.441"/><linearGradient id="SVGID_9_" gradientUnits="userSpaceOnUse" x1="399.107" x2="329.962" xlink:href="#lg1" y1="445.105" y2="375.96"/><linearGradient id="lg3"><stop offset="0" stop-color="#f8f6fb"/><stop offset="1" stop-color="#efdcfb"/></linearGradient><linearGradient id="SVGID_10_" gradientTransform="matrix(.707 .707 -.707 .707 -169.495 942.528)" gradientUnits="userSpaceOnUse" x1="-288.792" x2="-277.745" xlink:href="#lg3" y1="-775.087" y2="-675.664"/><linearGradient id="SVGID_11_" gradientTransform="matrix(.707 .707 -.707 .707 -169.495 942.528)" gradientUnits="userSpaceOnUse" x1="-205.407" x2="-194.36" xlink:href="#lg3" y1="-784.352" y2="-684.929"/><linearGradient id="SVGID_12_" gradientTransform="matrix(.707 .707 -.707 .707 -169.495 942.528)" gradientUnits="userSpaceOnUse" x1="-114.201" x2="-103.154" xlink:href="#lg3" y1="-794.486" y2="-695.063"/><linearGradient id="SVGID_13_" gradientTransform="matrix(.707 .707 -.707 .707 -169.495 942.528)" gradientUnits="userSpaceOnUse" x1="-28.924" x2="-17.877" xlink:href="#lg3" y1="-803.961" y2="-704.538"/><linearGradient id="SVGID_14_" gradientUnits="userSpaceOnUse" x1="175.636" x2="141.593" y1="206.056" y2="130.405"><stop offset="0" stop-color="#efdcfb" stop-opacity="0"/><stop offset=".2889" stop-color="#c7b6df" stop-opacity=".289"/><stop offset=".5915" stop-color="#a495c7" stop-opacity=".592"/><stop offset=".8395" stop-color="#8e80b7" stop-opacity=".84"/><stop offset="1" stop-color="#8679b2"/></linearGradient><g><g><g><path d="m460.407 331.046-233.002-233.017c-5.038-5.023-11.847-7.837-18.958-7.837h-141.178c-12.24 0-22.181 9.925-22.181 22.166v141.178c0 7.111 2.829 13.935 7.852 18.958l233.017 233.002c6.007 6.007 15.75 6.007 21.757 0l152.692-152.692c6.007-6.007 6.007-15.751.001-21.758zm-347.067-150.679c-13.541 0-24.51-10.984-24.51-24.541s10.969-24.526 24.51-24.526c13.557 0 24.556 10.969 24.556 24.526 0 13.556-11 24.541-24.556 24.541z" fill="url(#SVGID_1_)"/></g><g><path d="m464.129 337.068c-.726-2.209-1.967-4.282-3.722-6.022l-233.002-233.017c-2.103-2.088-4.493-3.783-7.096-5.053-3.646-1.816-7.701-2.784-11.862-2.784h-141.178c-3.041 0-5.946.62-8.594 1.725.333 35.964 11.317 64.938 28.308 79.054l277.636 277.636 95.788-95.803c4.251-4.252 5.492-10.395 3.722-15.736zm-350.789-156.701c-13.541 0-24.51-10.984-24.51-24.541s10.969-24.526 24.51-24.526c13.557 0 24.556 10.969 24.556 24.526 0 13.556-11 24.541-24.556 24.541z" fill="url(#SVGID_2_)"/></g><g><g><g><path d="m111.712 180.368c-30.738 0-53.049-37.927-53.049-90.183s22.311-90.185 53.049-90.185 53.049 37.929 53.049 90.185h-41.881c0-21.832-5.309-37.066-9.61-44.284-.701-1.177-2.414-1.177-3.115 0-4.301 7.217-9.611 22.451-9.611 44.284 0 24.502 6.688 40.693 11.133 46.568 2.773-3.685 7.675-5.035 11.868-3.127 21.775 9.905 17.819 42.263-5.771 46.232-2.24.377-4.287.51-6.062.51z" fill="url(#SVGID_3_)"/></g><path d="m131.71 27.59c-12.83 0-21.555 18.312-21.555 18.312.701-1.177 2.413-1.177 3.115 0 4.301 7.217 9.61 22.451 9.61 44.284h40.012v-.001c0-34.571-13.961-62.595-31.182-62.595z" fill="url(#SVGID_4_)"/><path d="m123.545 133.626c-4.194-1.908-9.095-.557-11.868 3.127-2.25-2.974-5.073-8.603-7.315-16.606h-43.02c6.783 36.169 25.899 60.221 50.37 60.221 1.775 0 3.822-.133 6.062-.51 23.59-3.969 27.546-36.327 5.771-46.232z" fill="url(#SVGID_5_)"/></g></g><path d="m425 388.21-240.987-240.987c-3.851-3.851-9.513-5.889-13.137-2.265l-71.916 71.916c-3.624 3.624-1.019 9.853 3.398 14.27l240.078 239.63z" fill="url(#SVGID_6_)"/><path d="m425 388.21-182.888-182.888c-3.851-3.851-9.513-5.889-13.137-2.265l-71.916 71.916c-3.624 3.624-1.019 9.853 3.398 14.27l181.979 181.532z" fill="url(#SVGID_7_)"/><path d="m425 388.21-116.607-116.607c-3.851-3.851-9.514-5.889-13.138-2.266l-71.916 71.916c-3.624 3.624-1.019 9.853 3.398 14.27l115.698 115.251z" fill="url(#SVGID_8_)"/><path d="m425 388.21-55.563-55.563c-3.851-3.851-9.513-5.889-13.137-2.265l-71.916 71.916c-3.624 3.624-1.019 9.853 3.398 14.27l54.654 54.207z" fill="url(#SVGID_9_)"/><g><path d="m170.876 144.958c3.624-3.624 9.287-1.585 13.137 2.265l39.299 39.299c3.737 3.737 1.359 9.287-2.265 12.911-4.19 4.19-9.74 5.889-13.137 2.491l-29.333-29.333-19.14 19.14 17.101 17.101c3.398 3.398 2.039 8.607-1.585 12.231-3.058 3.058-8.268 5.097-12.005 1.359l-17.101-17.101-29.219 29.219c-3.624 3.624-9.853 1.019-14.27-3.398s-7.022-10.646-3.398-14.27z" fill="url(#SVGID_10_)"/><path d="m229.317 203.172c2.831-2.831 7.475-3.171 10.759.113l23.444 23.443c15.516 15.516 22.084 33.636 3.624 52.097-12.684 12.684-25.708 14.157-36.694 9.287l-11.212 38.846c-.226 1.133-.906 2.039-1.473 2.605-4.417 4.417-15.062 3.284-20.272-1.925-2.265-2.265-3.511-5.323-2.378-8.947l14.609-45.641-7.475-7.475-27.294 27.294c-3.624 3.624-9.853 1.019-14.27-3.397-4.417-4.417-7.022-10.646-3.398-14.27zm7.588 27.747-21.065 21.065 11.212 11.212c6.342 6.342 12.798 7.588 20.725-.34 7.928-7.928 6.682-14.383.34-20.726z" fill="url(#SVGID_11_)"/><path d="m283.907 316.201 16.988 16.988c3.398 3.398 2.039 8.607-1.585 12.232-3.058 3.058-8.268 5.096-12.005 1.359l-16.988-16.988-19.253 19.253 30.352 30.352c3.398 3.398 1.699 8.947-2.491 13.137-3.624 3.624-9.173 6.002-12.911 2.265l-40.318-40.318c-3.851-3.851-5.889-9.513-2.265-13.137l71.916-71.916c3.624-3.624 9.287-1.586 13.138 2.265l40.318 40.318c3.738 3.738 1.359 9.287-2.265 12.911-4.19 4.19-9.739 5.889-13.137 2.491l-30.352-30.352z" fill="url(#SVGID_12_)"/><path d="m344.952 377.246 16.988 16.988c3.398 3.398 2.039 8.607-1.586 12.232-3.058 3.058-8.268 5.096-12.005 1.359l-16.988-16.988-19.253 19.253 30.352 30.352c3.398 3.398 1.699 8.947-2.491 13.137-3.624 3.624-9.173 6.003-12.911 2.265l-40.318-40.318c-3.851-3.851-5.889-9.513-2.265-13.138l71.916-71.916c3.624-3.624 9.287-1.586 13.138 2.265l40.318 40.318c3.738 3.738 1.359 9.287-2.265 12.911-4.19 4.19-9.74 5.889-13.137 2.491l-30.352-30.352z" fill="url(#SVGID_13_)"/></g></g><path d="m145.847 205.322 17.101 17.101c3.738 3.738 8.947 1.699 12.005-1.359 3.624-3.624 4.983-8.834 1.585-12.231l-17.101-17.101 19.14-19.14 29.333 29.333c3.398 3.397 8.947 1.699 13.137-2.491 3.624-3.624 6.002-9.174 2.265-12.911l-39.299-39.299c-3.851-3.851-9.513-5.889-13.137-2.265l-54.953 54.953 17.668 17.668z" fill="url(#SVGID_14_)"/></g></svg>