<svg id="Master_flat" viewBox="0 0 32 32" xmlns="http://www.w3.org/2000/svg" data-name="Master flat"><path d="m13.9873 20.7646a10.8484 10.8484 0 0 1 -2.8486-5.7446 1.0007 1.0007 0 0 0 -1.6387-.61 9.9542 9.9542 0 0 0 -2.4458 12.0343 1.0009 1.0009 0 0 0 1.7915.001 8.06 8.06 0 0 1 4.7021-4.0645 1.0008 1.0008 0 0 0 .4395-1.6162z" fill="#303f9f"/><path d="m16.6 2.2a1.087 1.087 0 0 0 -1.2 0c-.26.19-6.4 4.85-6.4 10.8a13.3315 13.3315 0 0 0 3.21 9.19c.6491.7141 1.3038.0284 2.89-.13a7.5161 7.5161 0 0 1 1.8 0c1.5861.1584 2.2408.8441 2.89.13a13.3315 13.3315 0 0 0 3.21-9.19c0-5.95-6.14-10.61-6.4-10.8z" fill="#2979ff"/><path d="m22.51 14.42a1 1 0 0 0 -1.6406.6289 10.5379 10.5379 0 0 1 -2.5762 5.8174 1 1 0 0 0 .4082 1.6045 8.0682 8.0682 0 0 1 4.4521 3.9727 1 1 0 0 0 1.792.001 9.9491 9.9491 0 0 0 -2.4355-12.0245z" fill="#1a237e"/><path d="m22.51 14.42a1 1 0 0 0 -1.6406.6289c-.03.2252-.089.4291-.1291.6467a9.8889 9.8889 0 0 1 1.6943 9.58 7.8471 7.8471 0 0 1 .7189 1.1677 1 1 0 0 0 1.792.001 9.9474 9.9474 0 0 0 -2.4355-12.0243z" fill="#303f9f"/><path d="m23 13a13.3315 13.3315 0 0 1 -3.21 9.19c-.65.7149-1.3009.0287-2.89-.13a13.4278 13.4278 0 0 0 3.1-9.06c0-4.65-3.73-8.49-5.5-10.05.0228-.02.871-.75.9-.75a.99.99 0 0 1 1.2 0c.26.19 6.4 4.85 6.4 10.8z" fill="#304ffe"/><circle cx="16" cy="12.5" fill="#4fc3f7" r="3.5"/><path d="m16.47 29.88a.9807.9807 0 0 1 -.94 0c-4.0982-2.3439-3.25-5.5391-2.25-6.15a5.5177 5.5177 0 0 1 5.44 0c1 .6109 1.7584 3.9517-2.25 6.15z" fill="#fb8c00"/><path d="m17.5 26c0 1.7-1.62 2.99-2.5 3.56-3.4251-2.2513-2.72-5.2191-1.72-5.83a4.9532 4.9532 0 0 1 1.96-.66 5.1917 5.1917 0 0 1 1.48.66c.5821.3556.78 1.5962.78 2.27z" fill="#ff9800"/></svg>