<?xml version="1.0" encoding="iso-8859-1"?>
<!-- Generator: Adobe Illustrator 19.0.0, SVG Export Plug-In . SVG Version: 6.00 Build 0)  -->
<svg version="1.1" id="Layer_1" xmlns="http://www.w3.org/2000/svg" xmlns:xlink="http://www.w3.org/1999/xlink" x="0px" y="0px"
	 viewBox="0 0 481.882 481.882" style="enable-background:new 0 0 481.882 481.882;" xml:space="preserve">
<path style="fill:#2979FF;" d="M60.235,28.913C60.235,12.943,73.178,0,89.148,0h212.028l120.471,101.195v351.774
	c0,15.97-12.943,28.913-28.913,28.913H89.148c-15.97,0-28.913-12.943-28.913-28.913V28.913z"/>
<path style="fill:#2962FF;" d="M301.176,0v72.282c0,15.97,12.943,28.913,28.913,28.913h91.558"/>
<g>
	<path style="fill:#FFFFFF;" d="M169.276,296.192l27.256,43.987h-28.009l-22.438-39.763h-7.078v39.763h-25.005v-104.38h32.986
		c28.469,0,43.076,10.089,43.076,31.782C190.065,282.488,180.872,291.531,169.276,296.192z M146.982,253.267H139v29.982h9.035
		c10.541,0,16.271-4.683,16.271-15.676C164.307,257.634,158.434,253.267,146.982,253.267z"/>
	<path style="fill:#FFFFFF;" d="M255.864,317.734h-30.276l-5.421,22.438h-26.21l31.932-104.388h30.276l31.94,104.388h-26.82
		L255.864,317.734z M229.504,299.656h22.287l-10.692-44.122h-0.753L229.504,299.656z"/>
	<path style="fill:#FFFFFF;" d="M349.982,296.192l27.249,43.987h-28.009l-22.43-39.763h-7.078v39.763h-25.005v-104.38h32.986
		c28.469,0,43.083,10.089,43.083,31.782C370.771,282.488,361.57,291.531,349.982,296.192z M327.688,253.267h-7.989v29.982h9.035
		c10.534,0,16.271-4.683,16.271-15.676C345.013,257.634,339.14,253.267,327.688,253.267z"/>
</g>
<g>
</g>
<g>
</g>
<g>
</g>
<g>
</g>
<g>
</g>
<g>
</g>
<g>
</g>
<g>
</g>
<g>
</g>
<g>
</g>
<g>
</g>
<g>
</g>
<g>
</g>
<g>
</g>
<g>
</g>
</svg>
