

<svg id="Icons" height="512" viewBox="0 0 60 60" width="512" xmlns="http://www.w3.org/2000/svg"><path d="m52 43v14a2.006 2.006 0 0 1 -2 2h-40a2.006 2.006 0 0 1 -2-2v-14l1-1h42z" fill="#2579f2"/><path d="m52 14v29h-44v-40a2.006 2.006 0 0 1 2-2h29a1.275 1.275 0 0 1 .2.01 4.511 4.511 0 0 1 3.2 1.39l8.2 8.2a4.511 4.511 0 0 1 1.39 3.2 1.275 1.275 0 0 1 .01.2z" fill="#e8edf3"/><path d="m51.99 13.8a2.006 2.006 0 0 0 -1.99-1.8h-6a3 3 0 0 1 -3-3v-6a2.006 2.006 0 0 0 -1.8-1.99 4.511 4.511 0 0 1 3.2 1.39l8.2 8.2a4.511 4.511 0 0 1 1.39 3.2z" fill="#bfcedd"/><circle cx="30" cy="25" fill="#2579f2" r="14"/><g fill="#fff"><path d="m45 46h-3a1 1 0 0 0 -1 1v8a1 1 0 0 0 2 0v-3h2a3 3 0 0 0 0-6zm0 4h-2v-2h2a1 1 0 0 1 0 2z"/><path d="m20 46a1 1 0 0 0 -1 1v5l-1.2-1.6a1.036 1.036 0 0 0 -1.6 0l-1.2 1.6v-5a1 1 0 0 0 -2 0v8a1 1 0 0 0 1.8.6l2.2-2.933 2.2 2.933a1 1 0 0 0 .8.4 1 1 0 0 0 1-1v-8a1 1 0 0 0 -1-1z"/><path d="m29 48a1 1 0 0 0 0-2h-5a1 1 0 0 0 -1 1v8a1 1 0 0 0 1 1h5a1 1 0 0 0 0-2h-4v-2h2a1 1 0 0 0 0-2h-2v-2z"/><path d="m36 46h-3a1 1 0 0 0 -1 1v8a1 1 0 0 0 1 1h3a3 3 0 0 0 2.234-5 3 3 0 0 0 -2.234-5zm0 8h-2v-2h2a1 1 0 0 1 0 2zm0-4h-2v-2h2a1 1 0 0 1 0 2z"/></g><path d="m30 10a15 15 0 1 0 15 15 15.017 15.017 0 0 0 -15-15zm-12.949 16h4.975a26.847 26.847 0 0 0 .62 5h-4.167a12.892 12.892 0 0 1 -1.428-5zm13.949-9v-4.79c1.394.559 2.743 2.256 3.689 4.79zm4.3 2a24.414 24.414 0 0 1 .671 5h-4.971v-5zm-6.3-6.79v4.79h-3.689c.946-2.534 2.295-4.231 3.689-4.79zm0 6.79v5h-4.975a24.414 24.414 0 0 1 .671-5zm-6.974 5h-4.975a12.892 12.892 0 0 1 1.428-5h4.167a26.847 26.847 0 0 0 -.62 5zm2 2h4.974v5h-4.3a24.414 24.414 0 0 1 -.675-5zm4.974 7v4.79c-1.394-.559-2.743-2.256-3.689-4.79zm2 4.79v-4.79h3.689c-.946 2.534-2.295 4.231-3.689 4.79zm0-6.79v-5h4.975a24.414 24.414 0 0 1 -.671 5zm6.974-5h4.975a12.892 12.892 0 0 1 -1.428 5h-4.167a26.847 26.847 0 0 0 .62-5zm0-2a26.847 26.847 0 0 0 -.62-5h4.167a12.892 12.892 0 0 1 1.428 5zm2.252-7h-3.432a15.039 15.039 0 0 0 -2.007-4.075 13.043 13.043 0 0 1 5.439 4.075zm-15.013-4.075a15.039 15.039 0 0 0 -2.007 4.075h-3.432a13.043 13.043 0 0 1 5.439-4.075zm-5.438 20.075h3.431a15.039 15.039 0 0 0 2.007 4.075 13.039 13.039 0 0 1 -5.438-4.075zm15.012 4.075a15.039 15.039 0 0 0 2.007-4.075h3.431a13.039 13.039 0 0 1 -5.438 4.075z" fill="#165eb5"/></svg>