<?xml version="1.0" encoding="iso-8859-1"?>
<!-- Generator: Adobe Illustrator 19.0.0, SVG Export Plug-In . SVG Version: 6.00 Build 0)  -->
<svg version="1.1" id="Capa_1" xmlns="http://www.w3.org/2000/svg" xmlns:xlink="http://www.w3.org/1999/xlink" x="0px" y="0px"
	 viewBox="0 0 490.667 490.667" style="enable-background:new 0 0 490.667 490.667;" xml:space="preserve">
<path style="fill:#F6B445;" d="M469.333,128H384c-23.573,0-42.667-19.093-42.667-42.667V0L469.333,128z"/>
<path style="fill:#FED049;" d="M469.333,128v320c0,23.573-19.093,42.667-42.667,42.667H64C21.333,490.667,21.333,448,21.333,448
	V42.667C21.333,19.093,40.427,0,64,0h277.333v85.333C341.333,108.907,360.427,128,384,128H469.333z"/>
<path style="fill:#A4B0C0;" d="M128,288h64v21.333c0,21.333-21.333,21.333-21.333,21.333s0,0-21.333,0S128,309.333,128,309.333V288z
	"/>
<path style="fill:#D0D7DF;" d="M192,256v32h-64v-53.333h42.667C192,234.667,192,256,192,256z"/>
<g>
	<path style="fill:#768BA0;" d="M156.683,222.123c5.899-5.6,13.984-13.28,13.984-27.989c0-14.773-8.085-22.475-13.995-28.107
		c-5.088-4.843-7.339-7.211-7.339-12.533c0-5.323,2.251-7.691,7.339-12.533c5.909-5.611,13.995-13.28,13.995-28
		c0-14.656-8.075-22.304-13.973-27.893c-5.109-4.843-7.36-7.2-7.36-12.533c0-5.323,2.251-7.691,7.339-12.533
		c5.909-5.6,13.995-13.28,13.995-28V0h-21.333v32c0,5.333-2.251,7.701-7.349,12.544C136.085,50.144,128,57.824,128,72.533
		c0,14.741,8.107,22.421,14.016,28.021c5.077,4.8,7.317,7.157,7.317,12.405c0,5.333-2.251,7.701-7.349,12.544
		c-5.899,5.6-13.984,13.28-13.984,27.989c0,14.699,8.064,22.379,13.952,27.989c5.12,4.875,7.381,7.243,7.381,12.651
		c0,5.323-2.251,7.691-7.339,12.533c-5.909,5.6-13.995,13.28-13.995,28h21.333C149.333,229.333,151.584,226.965,156.683,222.123
		L156.683,222.123z"/>
	<path style="fill:#768BA0;" d="M128,277.333h64v21.333h-64V277.333z"/>
</g>
<g>
</g>
<g>
</g>
<g>
</g>
<g>
</g>
<g>
</g>
<g>
</g>
<g>
</g>
<g>
</g>
<g>
</g>
<g>
</g>
<g>
</g>
<g>
</g>
<g>
</g>
<g>
</g>
<g>
</g>
</svg>
