<svg height="512pt" viewBox="0 -31 512 512" width="512pt" xmlns="http://www.w3.org/2000/svg">
    <path d="m412 45c0-24.8125-20.1875-45-45-45h-322c-24.8125 0-45 20.1875-45 45v55h412zm-195 20c-8.285156 0-15-6.714844-15-15s6.714844-15 15-15 15 6.714844 15 15-6.714844 15-15 15zm60 0c-8.285156 0-15-6.714844-15-15s6.714844-15 15-15 15 6.714844 15 15-6.714844 15-15 15zm60 0c-8.285156 0-15-6.714844-15-15s6.714844-15 15-15 15 6.714844 15 15-6.714844 15-15 15zm0 0"/>
    <path d="m402 230c-60.652344 0-110 49.347656-110 110s49.347656 110 110 110 110-49.347656 110-110-49.347656-110-110-110zm50 125h-35v35c0 8.285156-6.714844 15-15 15s-15-6.714844-15-15v-35h-35c-8.285156 0-15-6.714844-15-15s6.714844-15 15-15h35v-35c0-8.285156 6.714844-15 15-15s15 6.714844 15 15v35h35c8.285156 0 15 6.714844 15 15s-6.714844 15-15 15zm0 0"/>
    <path d="m402 200c3.363281 0 6.695312.128906 10 .359375v-70.359375h-412v195c0 24.8125 20.1875 45 45 45h220.246094c-2.117188-9.667969-3.246094-19.703125-3.246094-30 0-77.195312 62.804688-140 140-140zm-167 50h-160c-8.285156 0-15-6.714844-15-15s6.714844-15 15-15h160c8.285156 0 15 6.714844 15 15s-6.714844 15-15 15zm0-60h-160c-8.285156 0-15-6.714844-15-15s6.714844-15 15-15h160c8.285156 0 15 6.714844 15 15s-6.714844 15-15 15zm0 0"/>
</svg>