<svg id="Layer_1" enable-background="new 0 0 468 468" height="512" viewBox="0 0 468 468" width="512"
     xmlns="http://www.w3.org/2000/svg">
    <g>
        <g>
            <path d="m88.133 314.204 126.38 61.007.125-129.967-126.505-69.691z"/>
            <path d="m252.124 245.263-.05 129.993 127.054-61.069v-138.687z"/>
            <path d="m110.154 144.586 123.177 67.806 123.596-67.806-123.597-59.33z"/>
        </g>
        <g>
            <path d="m233.595 30.129c44.929 0 88.301 14.953 123.512 41.871h-17.978v32h57.637c9.356 0 16.911-8.164 15.99-17.482l-5.759-58.109-31.979 3.096 1.746 17.603c-40.665-31.56-91.003-49.108-143.169-49.108-127.438 0-233.574 106.483-233.574 233.855 0 35.714 7.837 70.003 23.292 101.914l27.113-13.134c-13.456-27.783-20.279-57.653-20.279-88.78 0-112.335 91.266-203.726 203.448-203.726z"/>
            <path d="m444.687 132.231-27.113 13.134c13.457 27.783 20.279 57.653 20.279 88.78 0 112.335-91.267 203.726-203.448 203.726-44.929 0-88.301-14.953-123.512-41.871h18.239v-32h-57.898c-9.356 0-16.91 8.132-15.989 17.45l5.759 58.076 31.979-3.03-1.745-17.603c40.663 31.559 91.001 49.107 143.167 49.107 127.438 0 233.574-106.483 233.574-233.855 0-35.713-7.837-70.002-23.292-101.914z"/>
        </g>
    </g>
</svg>