<svg height="512" viewBox="0 0 56 56" width="512" xmlns="http://www.w3.org/2000/svg">
    <g id="Page-1" fill="none" fill-rule="evenodd">
        <g id="005---Drop-Shipping" fill="rgb(0,0,0)" fill-rule="nonzero">
            <path id="Shape" d="m25 43 2.105-1.053c.5634632-.2800112 1.2255368-.2800112 1.789 0l2.106 1.053v-7h-6z"/>
            <path id="Shape"
                  d="m28 24c5.17 0 8.263 1.083 9.973 2.022-.389-15.649-5.337-26.022-9.973-26.022s-9.584 10.373-9.973 26.022c1.71-.939 4.803-2.022 9.973-2.022z"/>
            <path id="Shape"
                  d="m55.64 23.52c-1.9293401-11.7720424-11.0905494-21.03753873-22.84-23.1 3.97 4.23 6.78 13.6 7.15 24.95l-.88 1.36-6.03 9.27-.04.07v6.93c-.0027483 1.1034291-.8965709 1.9972517-2 2-.3088821-.0005105-.6134697-.0723795-.89-.21l-2.11-1.06-2.11 1.06c-.6197845.3079786-1.3547444.2736415-1.9431146-.0907815-.5883701-.3644231-.9465182-1.0071322-.9468854-1.6992185v-6.97l-.02-.03-6.03-9.27-.9-1.38v-.1c.39-11.3 3.19-20.62 7.15-24.83-11.7494506 2.06246127-20.91065994 11.3279576-22.84 23.1-.13114198.7411307-.22127906 1.4889346-.27 2.24l.03.02 16.88 11.67v17.55c0 .5522847.4477153 1 1 1h20c.5522847 0 1-.4477153 1-1v-17.55l16.88-11.67.03-.02c-.0487209-.7510654-.138858-1.4988693-.27-2.24zm-50.52-7.86c1.99866495-3.6844901 4.85177866-6.83594619 8.32-9.19.2200282-.14885336.4902421-.20404171.7510177-.15338746s.4906795.20298778.6389823.42338746c.1486166.21836954.2037041.48711578.1529853.74634495-.0507187.25922917-.2030286.48739768-.4229853.63365505-3.2007681 2.1766496-5.83411476 5.0877321-7.68 8.49-.17734011.3200807-.51407608.5190611-.88.52-.16779058.0030986-.33340763-.0383057-.48-.12-.48122663-.2639697-.65974882-.8664821-.4-1.35zm-2.87 9.17c1.85934793-.5850158 3.80111011-.865305 5.75-.83 1.76635488-.0270558 3.5275059.1985601 5.23.67l7.36 11.33h-2.18zm18.75 28.17c0 .5522847-.4477153 1-1 1s-1-.4477153-1-1v-2c0-.5522847.4477153-1 1-1s1 .4477153 1 1zm4 0c0 .5522847-.4477153 1-1 1s-1-.4477153-1-1v-2c0-.5522847.4477153-1 1-1s1 .4477153 1 1zm12.59-17h-2.16l7.36-11.33.01-.01c1.693929-.462147 3.444328-.6843131 5.2-.66 1.9488899-.035305 3.8906521.2449842 5.75.83z"/>
        </g>
    </g>
</svg>