<svg id="Layer_1" enable-background="new 0 0 512.004 512.004" height="512" viewBox="0 0 512.004 512.004" width="512"
     xmlns="http://www.w3.org/2000/svg">
    <g>
        <path d="m500.144 86.093-5.265-2.695c.929-4.486 1.298-9.058 1.1-13.634l5.628-1.817c7.884-2.545 12.212-10.999 9.667-18.882-2.545-7.884-11.002-12.21-18.882-9.667l-5.629 1.817c-2.515-3.829-5.487-7.322-8.864-10.418l2.696-5.265c3.775-7.374.857-16.412-6.517-20.188s-16.412-.858-20.188 6.517l-2.704 5.282c-4.525-.927-9.094-1.278-13.615-1.082l-1.828-5.663c-2.544-7.884-10.999-12.212-18.882-9.667-7.884 2.545-12.211 10.999-9.667 18.882l1.828 5.662c-3.782 2.484-7.284 5.441-10.413 8.839l-5.282-2.704c-7.374-3.774-16.412-.858-20.188 6.517-3.775 7.374-.857 16.412 6.517 20.188l5.265 2.695c-.929 4.486-1.297 9.057-1.099 13.634l-5.629 1.817c-7.883 2.544-12.211 10.999-9.667 18.882 2.051 6.353 7.938 10.396 14.271 10.396 1.527 0 3.08-.235 4.611-.729l5.628-1.817c2.515 3.829 5.487 7.322 8.863 10.418l-2.696 5.266c-3.775 7.374-.857 16.412 6.517 20.187 2.188 1.121 4.522 1.651 6.823 1.651 5.451 0 10.71-2.982 13.364-8.168l2.698-5.271c3.701.766 7.458 1.175 11.231 1.175.801 0 1.602-.021 2.403-.056l1.813 5.616c2.051 6.353 7.938 10.396 14.271 10.396 1.527 0 3.08-.235 4.611-.729 7.884-2.545 12.211-10.999 9.667-18.883l-1.817-5.628c3.829-2.515 7.322-5.487 10.418-8.863l5.266 2.696c2.188 1.121 4.522 1.651 6.823 1.651 5.451 0 10.71-2.982 13.364-8.168 3.781-7.377.863-16.415-6.511-20.19zm-83.492-25.893c4.618-9.02 13.793-14.213 23.292-14.213 4.001 0 8.06.922 11.86 2.867 12.819 6.563 17.909 22.332 11.346 35.151s-22.33 17.911-35.151 11.346c-12.82-6.562-17.91-22.331-11.347-35.151z"/>
        <path d="m245.089 290.504c0-13.007-10.582-23.588-23.588-23.588s-23.589 10.582-23.589 23.588 10.582 23.589 23.589 23.589 23.588-10.582 23.588-23.589z"/>
        <path d="m221.501 203.297c-48.086 0-87.207 39.121-87.207 87.207 0 22.667 8.696 43.341 22.923 58.865 6.405-9.503 14.751-17.369 24.369-23.155-8.496-9.486-13.675-22.003-13.675-35.709 0-29.549 24.04-53.588 53.589-53.588s53.588 24.04 53.588 53.588c0 13.722-5.19 26.252-13.703 35.742 2.221 1.344 4.394 2.791 6.499 4.369 6.962 5.218 13 11.618 17.86 18.796 14.25-15.529 22.962-36.219 22.962-58.907.002-48.087-39.119-87.208-87.205-87.208z"/>
        <path d="m221.5 345.135c-16.639 0-31.831 8.677-40.446 22.609 12.096 6.36 25.857 9.966 40.446 9.966 14.579 0 28.33-3.601 40.421-9.953-8.579-13.725-23.882-22.622-40.421-22.622z"/>
        <path d="m408.567 245.763c-9.403-2.502-16.172-8.642-19.577-17.756-1.471-3.94-3.106-7.882-4.858-11.715-4.05-8.858-3.608-17.996 1.278-26.423 10.524-18.151 7.528-41.175-7.286-55.988-14.814-14.815-37.838-17.811-55.989-7.286-8.427 4.886-17.563 5.328-26.422 1.279-3.828-1.75-7.77-3.384-11.714-4.857-9.115-3.403-15.255-10.173-17.758-19.578-5.394-20.274-23.792-34.434-44.741-34.434s-39.348 14.16-44.741 34.434c-2.502 9.404-8.643 16.173-17.757 19.577-3.941 1.472-7.883 3.105-11.715 4.857-8.857 4.05-17.994 3.608-26.422-1.279-18.151-10.525-41.175-7.528-55.989 7.287-18.048 18.047-18.048 47.413 0 65.46l1.806 1.806c-7.854 13.553-13.831 27.968-17.86 43.069h-2.534c-25.523 0-46.288 20.764-46.288 46.288 0 20.949 14.16 39.347 34.433 44.741 9.403 2.502 16.173 8.643 19.577 17.757 1.472 3.94 3.106 7.882 4.858 11.715 4.05 8.858 3.608 17.995-1.278 26.422-10.524 18.151-7.528 41.174 7.287 55.988 14.814 14.814 37.839 17.811 55.989 7.286 8.428-4.887 17.564-5.329 26.423-1.279 3.831 1.751 7.772 3.385 11.714 4.857 9.115 3.403 15.255 10.173 17.757 19.577 5.394 20.274 23.792 34.435 44.741 34.435s39.348-14.16 44.741-34.434c2.502-9.404 8.643-16.174 17.759-19.578 3.95-1.476 7.892-3.11 11.712-4.857 8.858-4.048 17.995-3.607 26.422 1.279 18.152 10.523 41.174 7.528 55.988-7.286 14.815-14.813 17.812-37.837 7.287-55.988-4.886-8.428-5.328-17.565-1.278-26.423 1.752-3.833 3.387-7.774 4.858-11.716 3.404-9.114 10.173-15.254 19.576-17.756 20.274-5.394 34.434-23.792 34.434-44.739 0-20.95-14.16-39.348-34.433-44.742zm-115.23 137.287c-1.828 2.495-4.428 4.458-7.607 5.45-.005.002-.011.003-.016.004-18.456 12.134-40.523 19.206-64.213 19.206-64.628 0-117.207-52.579-117.207-117.207s52.579-117.207 117.207-117.207 117.207 52.579 117.207 117.207c0 37.581-17.783 71.084-45.371 92.547z"/>
    </g>
</svg>