<svg id="Capa_1" enable-background="new 0 0 512 512" height="512" viewBox="0 0 512 512" width="512"
     xmlns="http://www.w3.org/2000/svg">
    <g>
        <path d="m263.895 233.805h-87.734l-16.479 41.133h-159.682v190.859h299.065v-190.859h-18.692z"/>
        <path d="m493.308 90.162-16.479-41.133h-87.733l-16.479 41.133h-159.681v113.643h71.257l16.479 41.133h28.393v36.083h182.935v-190.859z"/>
        <path d="m482 401.521h-72.389l14.64-14.639-21.213-21.213-50.852 50.852 50.852 50.853 21.213-21.213-14.64-14.64h102.389v-94.774h-30z"/>
        <path d="m30 110.479h72.389l-14.64 14.639 21.213 21.213 50.852-50.852-50.852-50.853-21.213 21.213 14.64 14.64h-102.389v94.774h30z"/>
    </g>
</svg>