<svg enable-background="new 0 0 32 32" height="512" viewBox="0 0 32 32" width="512" xmlns="http://www.w3.org/2000/svg">
    <g id="_x30_9_camera_photography">
        <g>
            <path d="m16 13c-2.757 0-5 2.243-5 5s2.243 5 5 5 5-2.243 5-5-2.243-5-5-5zm3 6c-.553 0-1-.448-1-1 0-1.103-.897-2-2-2-.553 0-1-.448-1-1s.447-1 1-1c2.206 0 4 1.794 4 4 0 .552-.447 1-1 1z"/>
            <g>
                <path d="m21.53 7-.56-2.243c-.112-.444-.511-.757-.97-.757h-8c-.459 0-.858.313-.97.757l-.56 2.243z"/>
                <path d="m28 8h-6.22-11.56-6.22c-1.654 0-3 1.346-3 3v14c0 1.654 1.346 3 3 3h24c1.654 0 3-1.346 3-3v-14c0-1.654-1.346-3-3-3zm-22 6c-.553 0-1-.448-1-1s.447-1 1-1 1 .448 1 1-.447 1-1 1zm10 11c-3.859 0-7-3.14-7-7s3.141-7 7-7 7 3.14 7 7-3.141 7-7 7z"/>
            </g>
        </g>
    </g>
</svg>