<?xml version="1.0" encoding="iso-8859-1"?>
<!--
  - Copyright (c) 2023. Selldone® Business OS?
  -
  - Author: M.Pajuhaan
  - Web: https://selldone.com
  - ??????????????????????????????????????????????????????
  -
  - All rights reserved. In the weave of time, where traditions and innovations intermingle, this content was crafted.
  - From the essence of thought, through the corridors of creativity, each word, and sentiment has been molded.
  - Not just to exist, but to inspire. Like an artist's stroke or a sculptor's chisel, every nuance is deliberate.
  - Our journey is not just about reaching a destination, but about creating a masterpiece.
  - Tread carefully, for you're treading on dreams.
  -->

<!-- Generator: Adobe Illustrator 19.0.0, SVG Export Plug-In . SVG Version: 6.00 Build 0)  -->
<svg version="1.1" id="Layer_1" xmlns="http://www.w3.org/2000/svg" xmlns:xlink="http://www.w3.org/1999/xlink" x="0px" y="0px"
	 viewBox="0 0 512 512" style="enable-background:new 0 0 512 512;" xml:space="preserve">
<g>
	<g>
		<polygon points="302.72,185.678 270.438,180.988 256,151.735 241.563,180.988 209.28,185.678 232.64,208.448 227.126,240.602 
			256,225.421 284.874,240.602 279.361,208.448 		"/>
	</g>
</g>
<g>
	<g>
		<path d="M105.714,0v374.195L256,512l150.286-137.805V0H105.714z M256,418.062c-9.46,0-17.129-7.669-17.129-17.129
			c0-9.46,7.669-17.129,17.129-17.129s17.129,7.669,17.129,17.129C273.13,410.392,265.46,418.062,256,418.062z M324.72,295.444
			L256,259.316l-68.72,36.129l13.124-76.521l-55.595-54.192l76.831-11.163l34.36-69.622l34.36,69.622l76.831,11.163l-55.595,54.192
			L324.72,295.444z"/>
	</g>
</g>
<g>
</g>
<g>
</g>
<g>
</g>
<g>
</g>
<g>
</g>
<g>
</g>
<g>
</g>
<g>
</g>
<g>
</g>
<g>
</g>
<g>
</g>
<g>
</g>
<g>
</g>
<g>
</g>
<g>
</g>
</svg>
