<?xml version="1.0" encoding="iso-8859-1"?>



<svg version="1.1" id="Capa_1" xmlns="http://www.w3.org/2000/svg" xmlns:xlink="http://www.w3.org/1999/xlink" x="0px" y="0px"
	 viewBox="0 0 511.692 511.692" style="enable-background:new 0 0 511.692 511.692;" xml:space="preserve">
<g>
	<g>
		<g>
			<path d="M121.305,283.275H75.567l9.125,18.179l41.84,0.082C124.365,295.578,122.618,289.476,121.305,283.275z"/>
			<path d="M118.54,255.846c0-3.086,0.262-6.107,0.463-9.143H37.781l9.125,18.179l13.375,0.107h58.722
				C118.802,261.954,118.54,258.932,118.54,255.846z"/>
			<path d="M126.542,210.132H0l9.121,18.179l13.379,0.107h98.805C122.62,222.207,124.37,216.097,126.542,210.132z"/>
			<path d="M270.009,234.743l-14.326-30.522l-14.326,30.522c-1.297,2.76-3.883,4.693-6.897,5.157l-32.946,5.031l24.143,24.746
				c2.027,2.077,2.947,4.993,2.478,7.857l-5.603,34.344l28.728-15.875c2.753-1.524,6.096-1.524,8.848,0l28.728,15.875l-5.603-34.344
				c-0.469-2.864,0.451-5.78,2.478-7.857l24.143-24.746l-32.946-5.031C273.892,239.436,271.306,237.503,270.009,234.743z"/>
			<path d="M113.353,319.846l9.121,18.179l23.72,0.058c-4.378-5.761-8.294-11.859-11.712-18.237H113.353z"/>
			<path d="M384.821,210.125c2.173,5.967,3.924,12.08,5.24,18.293H501.92l9.773-18.393L384.821,210.125z"/>
			<path d="M392.826,255.846c0,3.086-0.262,6.107-0.463,9.143h71.776l9.711-18.286h-81.487
				C392.564,249.739,392.826,252.76,392.826,255.846z"/>
			<path d="M384.824,301.56h41.529l9.711-18.286h-46.002C388.746,289.485,386.996,295.595,384.824,301.56z"/>
			<path d="M365.136,338.132h23.431l9.715-18.286h-21.398C373.457,326.242,369.529,332.357,365.136,338.132z"/>
			<path d="M255.683,136.989c-65.643,0-118.857,53.214-118.857,118.857s53.214,118.857,118.857,118.857
				S374.54,321.489,374.54,255.846C374.467,190.233,321.296,137.062,255.683,136.989z M335.371,244.962L335.371,244.962
				l-33.348,34.178l7.888,48.375c0.565,3.456-0.894,6.931-3.756,8.948c-2.863,2.017-6.626,2.221-9.69,0.525l-40.781-22.54
				l-40.781,22.54c-3.064,1.695-6.827,1.491-9.69-0.525c-2.863-2.017-4.322-5.492-3.756-8.948l7.888-48.375l-33.348-34.179
				c-2.392-2.454-3.212-6.039-2.124-9.288c1.088-3.249,3.902-5.618,7.289-6.136l45.714-6.982l20.531-43.737
				c1.506-3.209,4.732-5.259,8.277-5.259s6.771,2.049,8.277,5.259l20.531,43.737l45.714,6.982c3.387,0.518,6.201,2.886,7.289,6.136
				S337.763,242.509,335.371,244.962z"/>
		</g>
	</g>
</g>
<g>
</g>
<g>
</g>
<g>
</g>
<g>
</g>
<g>
</g>
<g>
</g>
<g>
</g>
<g>
</g>
<g>
</g>
<g>
</g>
<g>
</g>
<g>
</g>
<g>
</g>
<g>
</g>
<g>
</g>
</svg>
