<?xml version="1.0" encoding="iso-8859-1"?>
<!-- Generator: Adobe Illustrator 19.0.0, SVG Export Plug-In . SVG Version: 6.00 Build 0)  -->
<svg version="1.1" id="Capa_1" xmlns="http://www.w3.org/2000/svg" xmlns:xlink="http://www.w3.org/1999/xlink" x="0px" y="0px"
	 viewBox="0 0 512.002 512.002" style="enable-background:new 0 0 512.002 512.002;" xml:space="preserve">
<g>
	<g>
		<path d="M499.644,207.617c-3.718-2.259-8.384-1.819-11.612,1.089c-8.537,7.689-17.201,14.77-26.158,21.398
			c1.969-6.464,3.67-12.815,5.11-19.03c15.102-8.63,27.192-22.759,35.096-41.084c7.274-16.862,10.74-36.822,9.759-56.205
			c-0.221-4.354-3.219-7.963-7.46-8.981c-4.249-1.018-8.573,0.839-10.754,4.631c-5.795,10.081-11.926,19.599-18.502,28.759
			c-0.044-7.929-0.389-15.619-1.034-23.015c-0.002-0.148,0-0.295-0.011-0.444c-1.716-22.852-5.929-45.76-12.52-68.087
			c-1.175-3.979-5.355-6.252-9.331-5.077c-3.979,1.174-6.253,5.352-5.078,9.331c4.195,14.212,7.357,28.667,9.499,43.184
			c-8.216-7.938-16.686-15.349-25.594-22.386c-3.317-2.621-7.916-2.812-11.444-0.48c-3.526,2.33-5.15,6.631-4.042,10.702
			c9.008,33.111,24.067,61.348,43.624,81.957c-0.485,6.31-1.225,12.811-2.222,19.47c-5.461-9.656-11.301-18.88-17.646-27.855
			c-2.414-3.411-6.732-4.909-10.742-3.726c-4.004,1.18-6.814,4.77-6.991,8.938c-0.985,23.341,1.333,57.403,17.545,88.99
			c-2.272,5.751-4.827,11.606-7.657,17.535c-2.434-10.761-5.356-21.211-8.835-31.561c-1.327-3.946-5.019-6.619-9.188-6.653
			c-0.026,0-0.053,0-0.079,0c-4.126,0-7.815,2.599-9.193,6.49c-10.759,30.375-13.88,62.086-8.931,89.767
			c-3.872,4.881-8.046,9.775-12.509,14.655c0.844-11.032,1.117-21.914,0.813-32.867c-0.116-4.165-2.87-7.801-6.85-9.049
			c-3.973-1.246-8.299,0.167-10.765,3.511c-19.249,26.097-31.736,55.769-35.422,83.934c-20.015,15.067-30.583,19.066-41.74,23.285
			c-9.194,3.476-18.579,7.033-32.779,16.499c-14.2-9.466-23.585-13.024-32.779-16.499c-11.157-4.218-21.725-8.218-41.74-23.285
			c-3.686-28.165-16.173-57.836-35.422-83.933c-2.467-3.344-6.792-4.758-10.765-3.511c-3.981,1.247-6.734,4.884-6.85,9.051
			c-0.304,10.952-0.031,21.833,0.813,32.865c-4.463-4.881-8.637-9.774-12.509-14.655c4.949-27.681,1.828-59.392-8.931-89.767
			c-1.378-3.89-5.066-6.489-9.193-6.489c-0.026,0-0.053,0-0.079,0c-4.168,0.034-7.861,2.707-9.189,6.655
			c-3.479,10.349-6.4,20.799-8.834,31.559c-2.83-5.929-5.385-11.783-7.657-17.535c16.212-31.587,18.53-65.649,17.545-88.993
			c-0.177-4.165-2.987-7.756-6.991-8.935c-4.013-1.181-8.33,0.315-10.742,3.727c-6.346,8.975-12.185,18.199-17.646,27.855
			c-0.997-6.66-1.737-13.16-2.222-19.47c19.557-20.609,34.616-48.846,43.623-81.956c1.109-4.072-0.515-8.373-4.041-10.703
			c-3.529-2.332-8.128-2.14-11.444,0.48C72.041,78.74,63.57,86.152,55.354,94.089c2.142-14.517,5.304-28.973,9.499-43.184
			c1.175-3.979-1.099-8.156-5.078-9.331c-3.975-1.176-8.156,1.098-9.331,5.077c-6.591,22.327-10.803,45.235-12.52,68.087
			c-0.011,0.149-0.008,0.296-0.011,0.444c-0.646,7.397-0.99,15.086-1.034,23.015c-6.576-9.16-12.707-18.679-18.503-28.761
			c-2.179-3.789-6.5-5.647-10.753-4.629c-4.241,1.018-7.238,4.628-7.46,8.982c-0.981,19.381,2.485,39.342,9.759,56.204
			c7.905,18.324,19.995,32.454,35.096,41.084c1.439,6.215,3.141,12.567,5.11,19.03c-8.957-6.629-17.621-13.709-26.158-21.398
			c-3.23-2.909-7.897-3.346-11.612-1.089c-3.708,2.252-5.465,6.585-4.375,10.782c8.684,33.386,33.876,69.874,71,78.168
			c3.172,5.5,6.628,11.051,10.367,16.629c-10.472-3.711-20.803-7.928-31.197-12.752c-3.935-1.827-8.522-0.877-11.41,2.365
			c-2.88,3.235-3.295,7.888-1.032,11.578c17.157,27.98,49.509,54.335,85.399,54.335c1.761,0,3.533-0.072,5.31-0.202
			c3.203,2.992,6.529,5.967,10.006,8.915c7.296,6.186,15.176,12.259,23.556,18.153c23.319,17.901,35.828,22.632,47.927,27.206
			c7.528,2.846,14.857,5.622,25.002,11.862c-7.767,5.953-16.764,13.423-27.437,22.973c-3.092,2.766-3.356,7.515-0.589,10.606
			c1.484,1.658,3.538,2.503,5.6,2.503c1.783,0,3.573-0.631,5.006-1.914c12.377-11.075,22.27-19.169,30.508-25.256
			c8.238,6.087,18.131,14.181,30.508,25.256c1.433,1.283,3.223,1.914,5.006,1.914c2.063,0,4.117-0.845,5.6-2.503
			c2.767-3.091,2.503-7.84-0.589-10.606c-10.673-9.551-19.669-17.02-27.437-22.973c10.145-6.24,17.474-9.016,25.002-11.862
			c12.099-4.574,24.608-9.305,47.927-27.206c8.38-5.894,16.26-11.966,23.556-18.153c3.476-2.947,6.803-5.923,10.006-8.915
			c1.777,0.13,3.547,0.202,5.31,0.202c35.886,0,68.243-26.357,85.399-54.334c2.263-3.691,1.848-8.344-1.032-11.579
			c-2.888-3.242-7.474-4.194-11.41-2.365c-10.393,4.824-20.725,9.041-31.197,12.752c3.739-5.577,7.195-11.128,10.367-16.629
			c37.124-8.294,62.317-44.783,71-78.169C505.109,214.202,503.351,209.869,499.644,207.617z M471.551,187.366
			c0.206-1.326,0.412-2.652,0.599-3.967c0.115-0.807,0.218-1.607,0.325-2.41c0.166-1.233,0.329-2.463,0.478-3.686
			c0.1-0.821,0.191-1.636,0.283-2.452c0.135-1.196,0.265-2.388,0.384-3.572c0.081-0.81,0.157-1.616,0.23-2.42
			c0.108-1.185,0.208-2.364,0.3-3.538c0.034-0.43,0.079-0.869,0.11-1.298c7.857-9.615,15.098-19.516,21.882-29.93
			c-2.448,20.436-10.365,41.226-24.873,55.136C471.371,188.604,471.454,187.989,471.551,187.366z M15.862,134.093
			c6.784,10.415,14.025,20.316,21.882,29.93c0.031,0.429,0.076,0.867,0.11,1.298c0.091,1.173,0.191,2.352,0.3,3.538
			c0.073,0.805,0.149,1.61,0.23,2.42c0.119,1.185,0.249,2.377,0.384,3.572c0.092,0.816,0.183,1.631,0.283,2.452
			c0.149,1.222,0.312,2.453,0.478,3.686c0.108,0.803,0.211,1.603,0.325,2.41c0.187,1.315,0.393,2.641,0.599,3.967
			c0.097,0.623,0.18,1.238,0.281,1.863C26.227,175.32,18.31,154.529,15.862,134.093z M75.376,178.526
			c-0.826,18.08-4.183,35.295-9.84,50.521c-0.183-0.578-0.361-1.153-0.539-1.728c-0.321-1.034-0.642-2.067-0.949-3.095
			c-0.24-0.802-0.469-1.6-0.701-2.399c-0.291-1.004-0.579-2.006-0.856-3.004c-0.224-0.809-0.44-1.613-0.656-2.417
			c-0.261-0.975-0.519-1.948-0.767-2.917c-0.208-0.811-0.409-1.619-0.607-2.425c-0.234-0.951-0.462-1.898-0.683-2.842
			c-0.096-0.41-0.187-0.818-0.28-1.227C64.438,197.016,69.692,187.594,75.376,178.526z M51.917,136.527
			c0.01-0.848,0.028-1.688,0.045-2.53c0.022-1.087,0.046-2.172,0.08-3.248c0.027-0.849,0.061-1.692,0.096-2.534
			c0.043-1.047,0.09-2.091,0.144-3.127c0.045-0.853,0.095-1.7,0.148-2.546c0.063-1.004,0.131-2.003,0.205-2.996
			c0.034-0.453,0.072-0.901,0.108-1.351c7.75-8.336,15.652-16.056,23.883-23.321c-6.385,17.778-14.734,33.602-24.722,46.867
			c-0.004-0.624-0.002-1.243-0.002-1.864C51.904,138.756,51.904,137.637,51.917,136.527z M28.953,232.718
			c9.519,7.705,19.294,14.817,29.536,21.498c0.157,0.401,0.329,0.808,0.488,1.211c0.414,1.046,0.838,2.095,1.27,3.148
			c0.315,0.768,0.633,1.537,0.958,2.308c0.439,1.043,0.89,2.089,1.347,3.137c0.337,0.775,0.673,1.55,1.02,2.328
			c0.477,1.071,0.969,2.146,1.464,3.221c0.348,0.756,0.69,1.511,1.046,2.269c0.542,1.155,1.103,2.315,1.665,3.475
			c0.276,0.57,0.538,1.137,0.818,1.708C50.828,268.179,37.27,251.066,28.953,232.718z M98.609,256.795
			c4.414,17.299,6.167,34.639,5.155,50.877c-0.354-0.516-0.704-1.032-1.053-1.548c-0.578-0.853-1.156-1.706-1.721-2.557
			c-0.483-0.728-0.954-1.455-1.427-2.182c-0.546-0.839-1.089-1.677-1.621-2.514c-0.463-0.729-0.917-1.456-1.369-2.183
			c-0.52-0.836-1.037-1.671-1.543-2.504c-0.437-0.72-0.867-1.438-1.294-2.156c-0.499-0.839-0.992-1.677-1.476-2.513
			c-0.208-0.359-0.41-0.716-0.615-1.074C93.487,277.521,95.79,267.047,98.609,256.795z M69.88,321.897
			c11.338,4.569,22.737,8.508,34.451,11.911c0.281,0.357,0.579,0.714,0.863,1.071c0.687,0.863,1.382,1.727,2.087,2.59
			c0.539,0.66,1.08,1.321,1.629,1.981c0.724,0.871,1.459,1.741,2.201,2.611c0.552,0.648,1.102,1.296,1.663,1.943
			c0.781,0.902,1.579,1.802,2.378,2.703c0.544,0.612,1.082,1.225,1.635,1.837c0.891,0.987,1.801,1.972,2.713,2.957
			c0.405,0.438,0.796,0.877,1.206,1.314C101.128,349.466,83.166,337.022,69.88,321.897z M162.246,370.992
			c-0.836-0.67-1.671-1.341-2.492-2.014c-0.667-0.547-1.322-1.096-1.98-1.645c-0.802-0.67-1.603-1.341-2.39-2.014
			c-0.649-0.554-1.288-1.11-1.927-1.666c-0.773-0.673-1.541-1.346-2.299-2.021c-0.624-0.556-1.241-1.113-1.855-1.671
			c-0.751-0.681-1.494-1.364-2.229-2.047c-0.307-0.286-0.609-0.572-0.913-0.858c-1.481-11.036-2.371-21.784-2.686-32.471
			c9.373,15.379,16.266,31.595,20.237,47.578C163.22,371.775,162.733,371.383,162.246,370.992z M365.843,357.058
			c-0.304,0.286-0.606,0.572-0.913,0.858c-0.735,0.683-1.479,1.366-2.229,2.047c-0.614,0.557-1.231,1.115-1.855,1.671
			c-0.758,0.675-1.526,1.348-2.299,2.021c-0.639,0.556-1.278,1.112-1.927,1.666c-0.788,0.673-1.588,1.343-2.39,2.014
			c-0.657,0.549-1.313,1.098-1.98,1.645c-0.821,0.673-1.656,1.344-2.492,2.014c-0.487,0.391-0.973,0.782-1.466,1.172
			c3.972-15.983,10.864-32.198,20.237-47.578C368.215,335.275,367.324,346.021,365.843,357.058z M413.395,256.795
			c2.819,10.253,5.122,20.725,6.965,31.646c-0.205,0.358-0.408,0.716-0.616,1.075c-0.484,0.835-0.976,1.671-1.474,2.508
			c-0.428,0.72-0.859,1.441-1.298,2.162c-0.506,0.832-1.022,1.666-1.541,2.501c-0.452,0.726-0.905,1.453-1.368,2.181
			c-0.532,0.837-1.076,1.676-1.622,2.516c-0.473,0.728-0.945,1.455-1.429,2.184c-0.563,0.85-1.14,1.701-1.717,2.552
			c-0.35,0.517-0.7,1.033-1.055,1.55C407.228,291.434,408.981,274.094,413.395,256.795z M442.125,321.897
			c-13.288,15.127-31.247,27.57-50.826,30.92c0.429-0.458,0.838-0.918,1.262-1.376c0.891-0.962,1.78-1.925,2.65-2.889
			c0.559-0.619,1.103-1.238,1.653-1.858c0.795-0.895,1.587-1.79,2.364-2.686c0.563-0.65,1.115-1.299,1.668-1.949
			c0.74-0.869,1.475-1.738,2.198-2.608c0.549-0.661,1.09-1.321,1.629-1.982c0.704-0.864,1.4-1.727,2.087-2.59
			c0.284-0.357,0.582-0.714,0.863-1.071C419.387,330.405,430.787,326.466,442.125,321.897z M435.377,94.873
			c8.23,7.265,16.133,14.985,23.883,23.321c0.036,0.45,0.074,0.899,0.108,1.351c0.074,0.994,0.142,1.993,0.205,2.998
			c0.053,0.843,0.103,1.689,0.148,2.54c0.055,1.039,0.102,2.085,0.145,3.135c0.034,0.84,0.069,1.681,0.095,2.529
			c0.034,1.077,0.058,2.162,0.08,3.249c0.017,0.842,0.036,1.682,0.046,2.53c0.013,1.109,0.013,2.229,0.014,3.349
			c0,0.621,0.002,1.24-0.002,1.864C450.11,128.475,441.761,112.652,435.377,94.873z M436.628,178.526
			c5.685,9.068,10.938,18.491,15.878,28.468c-0.093,0.409-0.184,0.817-0.28,1.227c-0.221,0.944-0.449,1.891-0.683,2.842
			c-0.198,0.806-0.399,1.614-0.607,2.425c-0.248,0.968-0.506,1.942-0.767,2.917c-0.216,0.804-0.432,1.609-0.656,2.417
			c-0.277,0.997-0.566,2-0.856,3.004c-0.231,0.799-0.461,1.596-0.701,2.399c-0.307,1.027-0.628,2.061-0.949,3.095
			c-0.179,0.576-0.356,1.151-0.539,1.728C440.811,213.821,437.453,196.605,436.628,178.526z M443.441,277.02
			c0.281-0.571,0.542-1.138,0.818-1.708c0.562-1.16,1.123-2.319,1.665-3.475c0.356-0.758,0.698-1.513,1.046-2.269
			c0.494-1.075,0.987-2.15,1.464-3.221c0.347-0.778,0.683-1.553,1.02-2.328c0.456-1.048,0.907-2.094,1.347-3.137
			c0.325-0.771,0.642-1.54,0.958-2.308c0.432-1.052,0.855-2.101,1.27-3.148c0.159-0.402,0.332-0.809,0.488-1.211
			c10.242-6.681,20.017-13.792,29.536-21.497C474.734,251.067,461.176,268.179,443.441,277.02z"/>
	</g>
</g>
<g>
	<g>
		<path d="M330.786,259.011c-3.689-1.899-8.217-0.448-10.116,3.241c-3.707,7.2-8.606,13.345-14.561,18.264
			c-6.399,5.288-13.978,9.319-22.525,11.981c-8.735,2.719-18.015,4.098-27.581,4.098c-10.219,0-19.294-1.155-26.973-3.431
			c-7.5-2.222-14.164-5.582-19.808-9.986c-5.669-4.425-10.615-10.084-14.702-16.82c-3.375-5.56-6.469-11.987-9.203-19.12
			l23.858-9.924c2.075,3.59,8.91,15.369,10.906,18.207c2.631,3.743,5.635,7.041,8.923,9.796c3.448,2.896,7.398,5.169,11.734,6.753
			c4.347,1.594,9.328,2.403,14.803,2.403c6.848,0,12.972-1.173,18.195-3.483c5.187-2.289,9.624-5.351,13.187-9.099
			c3.568-3.752,6.286-8.067,8.081-12.83c1.759-4.677,2.651-9.414,2.651-14.082c0-5.592-0.519-10.761-1.542-15.363
			c-1.227-5.519-4.073-10.268-8.46-14.118c-4.118-3.609-10.02-6.372-17.544-8.21c-5.662-1.382-12.933-2.215-21.622-2.48v-17.107
			c7.013-0.295,13.093-1.098,18.088-2.389c6.852-1.773,12.409-4.376,16.515-7.737c4.35-3.559,7.404-7.941,9.074-13.022
			c1.495-4.544,2.254-9.533,2.254-14.829c0-11.489-3.2-20.549-9.513-26.932c-6.332-6.392-15.174-9.633-26.282-9.633
			c-4.808,0-9.33,0.714-13.443,2.125c-4.076,1.4-7.796,3.357-11.057,5.817c-3.258,2.46-6.089,5.386-8.413,8.694
			c-2.307,3.279-4.046,6.901-5.171,10.767c-0.647,1.772-1.354,4.16-2.164,6.901l-0.146,0.491c-0.136,0.457-0.273,0.921-0.413,1.39
			l-26.822-4.612c1.637-7.518,4.112-14.319,7.364-20.23c1.819-3.307,3.874-6.415,6.108-9.238c2.574-3.252,2.025-7.977-1.228-10.551
			c-3.251-2.575-7.977-2.025-10.551,1.228c-2.751,3.475-5.271,7.284-7.491,11.32c-4.142,7.528-7.222,16.136-9.155,25.58
			c-0.767,3.736-0.008,7.522,2.139,10.667c2.129,3.115,5.349,5.182,9.067,5.823l29.044,4.994c0.778,0.134,1.571,0.202,2.357,0.202
			c6.056,0,11.506-4.049,13.253-9.849c0.25-0.831,0.495-1.656,0.732-2.458l0.148-0.495c0.742-2.512,1.445-4.883,1.93-6.17
			c0.076-0.202,0.144-0.407,0.202-0.615c0.659-2.341,1.697-4.529,3.087-6.504c1.427-2.03,3.168-3.829,5.175-5.344
			c1.992-1.504,4.309-2.715,6.882-3.598c2.538-0.87,5.42-1.312,8.567-1.312c6.951,0,12.202,1.743,15.605,5.179
			c3.429,3.467,5.168,8.972,5.168,16.364c0,3.697-0.505,7.105-1.502,10.133c-0.774,2.355-2.186,4.346-4.317,6.09
			c-2.379,1.946-6.101,3.613-10.763,4.819c-4.202,1.086-9.578,1.747-15.976,1.963c-7.499,0.25-13.373,6.327-13.373,13.835v19.387
			c0,7.573,5.946,13.654,13.542,13.844c8.109,0.2,14.683,0.901,19.538,2.086c6.418,1.568,9.637,3.538,11.203,4.911
			c1.962,1.722,3.173,3.712,3.7,6.084c0.786,3.533,1.184,7.605,1.184,12.102c0,2.854-0.568,5.813-1.688,8.789
			c-1.081,2.868-2.732,5.482-4.908,7.771c-2.19,2.303-5.005,4.223-8.371,5.709c-3.303,1.461-7.382,2.202-12.125,2.202
			c-3.705,0-6.945-0.499-9.639-1.487c-2.696-0.985-5.131-2.381-7.241-4.155c-2.294-1.921-4.408-4.251-6.289-6.927
			c-1.087-1.544-5.684-9.266-10.695-17.961c-2.466-4.278-7.063-6.936-12.001-6.936c-1.836,0-3.626,0.358-5.316,1.063L178.503,233.8
			c-6.924,2.879-10.285,10.635-7.654,17.656c3.159,8.429,6.802,16.066,10.827,22.695c5.034,8.298,11.192,15.319,18.302,20.868
			c7.133,5.567,15.472,9.789,24.782,12.547c9.065,2.688,19.577,4.051,31.243,4.051c11.081,0,21.863-1.607,32.047-4.777
			c10.421-3.247,19.716-8.207,27.627-14.743c7.533-6.222,13.706-13.95,18.349-22.97C335.925,265.439,334.474,260.91,330.786,259.011
			z"/>
	</g>
</g>
<g>
	<g>
		<path d="M314.908,182.103c4.878-3.264,9.071-7.273,12.471-11.924c3.523-4.822,6.202-10.493,7.961-16.861
			c1.686-6.114,2.541-13.176,2.541-20.991c0-9.181-1.833-17.924-5.449-25.987c-3.611-8.05-8.851-15.183-15.576-21.202
			c-6.651-5.95-14.829-10.687-24.312-14.079c-9.363-3.347-19.998-5.044-31.611-5.044c-10.883,0-21.204,1.506-30.673,4.475
			c-2.139,0.67-4.261,1.429-6.309,2.256c-3.847,1.554-5.705,5.932-4.151,9.778c1.553,3.845,5.927,5.705,9.778,4.15
			c1.676-0.677,3.417-1.3,5.175-1.85c8.015-2.513,16.823-3.787,26.18-3.787c9.885,0,18.819,1.402,26.553,4.166
			c7.644,2.735,14.156,6.48,19.353,11.129c5.144,4.605,9.145,10.041,11.887,16.155c2.742,6.116,4.133,12.791,4.133,19.839
			c0,6.465-0.673,12.183-2,16.993c-1.273,4.609-3.16,8.645-5.608,11.995c-2.448,3.348-5.504,6.228-9.084,8.558
			c-3.143,2.045-6.771,3.845-10.781,5.351c-2.941,1.105-4.884,3.923-4.871,7.065c0.013,3.142,1.982,5.944,4.933,7.022
			c20.599,7.527,30.916,21.346,31.541,42.245c0.122,4.07,3.459,7.287,7.505,7.287c0.075,0,0.153-0.001,0.229-0.003
			c4.146-0.124,7.407-3.586,7.283-7.732C341.36,209.523,332.062,192.831,314.908,182.103z"/>
	</g>
</g>
<g>
</g>
<g>
</g>
<g>
</g>
<g>
</g>
<g>
</g>
<g>
</g>
<g>
</g>
<g>
</g>
<g>
</g>
<g>
</g>
<g>
</g>
<g>
</g>
<g>
</g>
<g>
</g>
<g>
</g>
</svg>
