<svg xmlns="http://www.w3.org/2000/svg" viewBox="0 0 486.516 486.516" style="enable-background:new 0 0 486.516 486.516" xml:space="preserve"><path style="fill:#9e2d00" d="M64.516 449.928V184.554L370.945 7.637v265.376z"/><path style="fill:#ffa511" d="M128.347 486.516 51.74 442.287l306.428-176.913 76.608 44.228z"/><path style="fill:#88abbf" d="M77.353 428.895V186.994l12.6 7.278v241.899z"/><path style="fill:#d6d6d6" d="M77.353 186.994 355.818 25.092l13.458 7.413L89.953 194.272z"/><path style="fill:#fff" d="m89.953 436.171 279.323-161.268V32.505L89.953 194.272z"/><path style="fill:#88abbf" d="M95.627 439.212V197.31l12.601 7.278v241.896z"/><path style="fill:#d6d6d6" d="M95.627 197.31 374.094 35.403l13.455 7.417-279.321 161.768z"/><path style="fill:#fff" d="m108.228 446.484 279.321-161.265V42.82L108.228 204.588z"/><path style="fill:#88abbf" d="M113.659 448.786V206.889l12.6 7.278v241.897z"/><path style="fill:#d6d6d6" d="M113.659 206.889 392.124 44.981l13.457 7.414-279.322 161.772z"/><path style="fill:#fff" d="m126.259 456.064 279.322-161.267V52.395L126.259 214.167z"/><path style="fill:#ffa511" d="M128.347 486.516V309.602l153.216-88.457v-88.46l153.213-89.01v265.927z"/><path style="fill:#eb6b24" d="m421.962 36.83-152.811 88.688v88.459L116.19 302.581v161.824l-51.674-29.493V184.291L370.945 7.637 358.168 0 51.74 176.915v265.372l76.607 44.229V309.602l153.216-88.457v-88.46l153.213-89.01z"/><path style="fill:#ffdc13" d="m269.151 125.518 12.412 7.167 153.213-89.01-12.814-6.845z"/><path style="fill:#eb6b24" d="m269.151 213.977 12.412 7.168v-88.46l-12.412-7.167z"/><path style="fill:#ffdc13" d="m116.19 302.581 12.157 7.021 153.216-88.457-12.412-7.168zM51.74 176.915l12.776 7.376L370.945 7.637 358.168 0z"/><path style="fill:#304e75" d="M159.17 180.427v-76.549l33.157-19.143 3.723 2.792v71.484l-33.158 19.252z"/><path style="fill:#3ca5af" d="M162.892 178.263V106.67l33.158-19.143v71.458z"/></svg>