<svg xmlns="http://www.w3.org/2000/svg" viewBox="0 0 512 512" style="enable-background:new 0 0 512 512" xml:space="preserve"><linearGradient id="a" gradientUnits="userSpaceOnUse" x1="236.935" y1="438.418" x2="236.935" y2="35.358" gradientTransform="matrix(1.0667 0 0 -1.0667 3.267 557.533)"><stop offset="0" style="stop-color:#1aceb8"/><stop offset="1" style="stop-color:#0bbfba"/></linearGradient><path style="fill:url(#a)" d="M457.118 512H54.876c-16.796 0-30.412-13.616-30.412-30.412V70.028c0-16.796 13.616-30.412 30.412-30.412h402.242c16.796 0 30.412 13.616 30.412 30.412v411.561c0 16.795-13.616 30.411-30.412 30.411z"/><linearGradient id="b" gradientUnits="userSpaceOnUse" x1="364.41" y1="332" x2="82.35" y2="614.06" gradientTransform="matrix(1.0667 0 0 -1.0667 3.267 557.533)"><stop offset="0" style="stop-color:#1aceb8;stop-opacity:0"/><stop offset="1" style="stop-color:#04959c"/></linearGradient><path style="fill:url(#b)" d="M487.53 70.028c0-16.796-13.616-30.412-30.412-30.412H54.876c-.095 0-.189.006-.284.007v67.927l404.387 404.386c15.929-.962 28.551-14.179 28.551-30.35V70.028z"/><path style="fill:#07adb5" d="M457.118 39.616H54.876c-16.796 0-30.412 13.616-30.412 30.412v7.106c0 16.796 13.616 30.412 30.412 30.412h402.242c16.796 0 30.412-13.616 30.412-30.412v-7.106c0-16.796-13.616-30.412-30.412-30.412z"/><linearGradient id="c" gradientUnits="userSpaceOnUse" x1="111.056" y1="472.928" x2="111.056" y2="430.827" gradientTransform="matrix(1.0667 0 0 -1.0667 3.267 557.533)"><stop offset="0" style="stop-color:#ffcf95"/><stop offset=".427" style="stop-color:#ffc954"/><stop offset="1" style="stop-color:#ffc200"/></linearGradient><path style="fill:url(#c)" d="M188.861 11.69v95.861H54.592V11.69c0-6.449 5.239-11.687 11.689-11.687h110.893c6.447-.002 11.687 5.238 11.687 11.687z"/><linearGradient id="d" gradientUnits="userSpaceOnUse" x1="111.056" y1="533.737" x2="111.056" y2="482.231" gradientTransform="matrix(1.0667 0 0 -1.0667 3.267 557.533)"><stop offset="0" style="stop-color:#ffcf95"/><stop offset=".427" style="stop-color:#ffc954"/><stop offset="1" style="stop-color:#ffc200"/></linearGradient><path style="fill:url(#d)" d="M177.169 0H66.284c-6.458 0-11.693 5.235-11.693 11.693v31.379c0 6.458 5.235 11.693 11.693 11.693h110.885c6.458 0 11.693-5.235 11.693-11.693V11.693C188.862 5.235 183.627 0 177.169 0z"/><linearGradient id="e" gradientUnits="userSpaceOnUse" x1="362.813" y1="472.928" x2="362.813" y2="430.827" gradientTransform="matrix(1.0667 0 0 -1.0667 3.267 557.533)"><stop offset="0" style="stop-color:#c2d600"/><stop offset="1" style="stop-color:#7bd101"/></linearGradient><path style="fill:url(#e)" d="M457.402 11.69v95.861H323.133V11.69c0-6.449 5.239-11.687 11.689-11.687h110.893c6.447-.002 11.687 5.238 11.687 11.687z"/><linearGradient id="f" gradientUnits="userSpaceOnUse" x1="362.813" y1="533.737" x2="362.813" y2="482.231" gradientTransform="matrix(1.0667 0 0 -1.0667 3.267 557.533)"><stop offset="0" style="stop-color:#c2d600"/><stop offset="1" style="stop-color:#7bd101"/></linearGradient><path style="fill:url(#f)" d="M445.71 0H334.825c-6.458 0-11.693 5.235-11.693 11.693v31.379c0 6.458 5.235 11.693 11.693 11.693H445.71c6.458 0 11.693-5.235 11.693-11.693V11.693C457.403 5.235 452.168 0 445.71 0z"/><linearGradient id="g" gradientUnits="userSpaceOnUse" x1="236.934" y1="460.774" x2="236.934" y2="428.697" gradientTransform="matrix(1.0667 0 0 -1.0667 3.267 557.533)"><stop offset="0" style="stop-color:#b761c6"/><stop offset="1" style="stop-color:#9c44b3"/></linearGradient><path style="fill:url(#g)" d="M323.131 37.285v70.266H188.862V37.285c0-6.449 5.239-11.687 11.689-11.687h110.893c6.448 0 11.687 5.238 11.687 11.687z"/><linearGradient id="h" gradientUnits="userSpaceOnUse" x1="236.934" y1="509.743" x2="236.934" y2="458.238" gradientTransform="matrix(1.0667 0 0 -1.0667 3.267 557.533)"><stop offset="0" style="stop-color:#b761c6"/><stop offset="1" style="stop-color:#9c44b3"/></linearGradient><path style="fill:url(#h)" d="M311.44 25.597H200.554c-6.458 0-11.693 5.235-11.693 11.693v31.38c0 6.458 5.235 11.693 11.693 11.693h110.885c6.458 0 11.693-5.235 11.693-11.693V37.289c0-6.458-5.234-11.692-11.692-11.692z"/><linearGradient id="i" gradientUnits="userSpaceOnUse" x1="189.208" y1="269.817" x2="55.947" y2="403.077" gradientTransform="matrix(1.0667 0 0 -1.0667 3.267 557.533)"><stop offset="0" style="stop-color:#1aceb8;stop-opacity:0"/><stop offset="1" style="stop-color:#04959c"/></linearGradient><circle style="fill:url(#i)" cx="114.517" cy="179.157" r="23.801"/><linearGradient id="j" gradientUnits="userSpaceOnUse" x1="454.483" y1="269.813" x2="321.223" y2="403.072" gradientTransform="matrix(1.0667 0 0 -1.0667 3.267 557.533)"><stop offset="0" style="stop-color:#1aceb8;stop-opacity:0"/><stop offset="1" style="stop-color:#04959c"/></linearGradient><circle style="fill:url(#j)" cx="397.472" cy="179.157" r="23.801"/><linearGradient id="k" gradientUnits="userSpaceOnUse" x1="307.198" y1="231.698" x2="136.878" y2="402.018" gradientTransform="matrix(1.0667 0 0 -1.0667 3.267 557.533)"><stop offset="0" style="stop-color:#1aceb8;stop-opacity:0"/><stop offset="1" style="stop-color:#04959c"/></linearGradient><path style="fill:url(#k)" d="M487.536 248.342v233.246c0 16.793-13.619 30.412-30.412 30.412H313.475L147.188 345.714c-30.505-29.287-49.518-70.635-49.518-116.199v-48.037c0-9.137 7.391-16.528 16.528-16.528 5.792 0 10.895 2.988 13.844 7.51 0 0 174.854 174.577 175.278 174.921 45.684-18.71 77.947-63.653 77.947-116.001v-49.902c0-9.137 7.405-16.528 16.528-16.528 5.805 0 10.895 2.988 13.844 7.51l75.897 75.882z"/><linearGradient id="l" gradientUnits="userSpaceOnUse" x1="236.934" y1="375.808" x2="236.934" y2="80.737" gradientTransform="matrix(1.0667 0 0 -1.0667 3.267 557.533)"><stop offset="0" style="stop-color:#fff"/><stop offset="1" style="stop-color:#e8efee"/></linearGradient><path style="fill:url(#l)" d="M258.837 389.691c-88.839 1.571-161.173-71.322-161.173-160.174v-48.045c0-9.129 7.399-16.528 16.528-16.528 9.129 0 16.528 7.399 16.528 16.528v48.186c0 70.343 57.196 128.228 127.527 126.982 68.043-1.205 123.025-56.932 123.025-125.257v-49.911c0-9.129 7.399-16.528 16.528-16.528 9.129 0 16.528 7.399 16.528 16.528v49.911c.002 86.356-69.492 156.788-155.491 158.308z"/><linearGradient id="m" gradientUnits="userSpaceOnUse" x1="447.967" y1="90.718" x2="258.308" y2="280.377" gradientTransform="matrix(1.0667 0 0 -1.0667 3.267 557.533)"><stop offset="0" style="stop-color:#1aceb8;stop-opacity:0"/><stop offset="1" style="stop-color:#04959c"/></linearGradient><path style="fill:url(#m)" d="M487.53 481.588V248.341l-75.851-75.838a16.405 16.405 0 0 1 2.644 8.965v49.915c0 86.356-69.485 156.793-155.484 158.314-43.171.754-82.443-16.065-111.413-43.754L313.473 512h143.645c16.796 0 30.412-13.616 30.412-30.412z"/><linearGradient id="n" gradientUnits="userSpaceOnUse" x1="236.935" y1="127.897" x2="236.935" y2="30.918" gradientTransform="matrix(1.0667 0 0 -1.0667 3.267 557.533)"><stop offset="0" style="stop-color:#1aceb8;stop-opacity:0"/><stop offset=".769" style="stop-color:#04959c"/></linearGradient><path style="fill:url(#n)" d="M24.464 397.315v82.95c0 16.796 13.616 30.412 30.412 30.412h402.242c16.796 0 30.412-13.616 30.412-30.412v-82.95H24.464z"/></svg>