<svg xmlns="http://www.w3.org/2000/svg" xml:space="preserve" viewBox="0 0 512 512"><linearGradient id="a" x1="236.935" x2="236.935" y1="438.418" y2="35.358" gradientTransform="matrix(1.0667 0 0 -1.0667 3.267 557.533)" gradientUnits="userSpaceOnUse"><stop offset="0" style="stop-color:#1aceb8"/><stop offset="1" style="stop-color:#0bbfba"/></linearGradient><path d="M457.118 512H54.876c-16.796 0-30.412-13.616-30.412-30.412V70.028c0-16.796 13.616-30.412 30.412-30.412h402.242c16.796 0 30.412 13.616 30.412 30.412v411.561c0 16.795-13.616 30.411-30.412 30.411" style="fill:url(#a)"/><linearGradient id="b" x1="364.41" x2="82.35" y1="332" y2="614.06" gradientTransform="matrix(1.0667 0 0 -1.0667 3.267 557.533)" gradientUnits="userSpaceOnUse"><stop offset="0" style="stop-color:#1aceb8;stop-opacity:0"/><stop offset="1" style="stop-color:#04959c"/></linearGradient><path d="M487.53 70.028c0-16.796-13.616-30.412-30.412-30.412H54.876c-.095 0-.189.006-.284.007v67.927l404.387 404.386c15.929-.962 28.551-14.179 28.551-30.35z" style="fill:url(#b)"/><path d="M457.118 39.616H54.876c-16.796 0-30.412 13.616-30.412 30.412v7.106c0 16.796 13.616 30.412 30.412 30.412h402.242c16.796 0 30.412-13.616 30.412-30.412v-7.106c0-16.796-13.616-30.412-30.412-30.412" style="fill:#07adb5"/><linearGradient id="c" x1="111.056" x2="111.056" y1="472.928" y2="430.827" gradientTransform="matrix(1.0667 0 0 -1.0667 3.267 557.533)" gradientUnits="userSpaceOnUse"><stop offset="0" style="stop-color:#ffcf95"/><stop offset=".427" style="stop-color:#ffc954"/><stop offset="1" style="stop-color:#ffc200"/></linearGradient><path d="M188.861 11.69v95.861H54.592V11.69c0-6.449 5.239-11.687 11.689-11.687h110.893c6.447-.002 11.687 5.238 11.687 11.687" style="fill:url(#c)"/><linearGradient id="d" x1="111.056" x2="111.056" y1="533.737" y2="482.231" gradientTransform="matrix(1.0667 0 0 -1.0667 3.267 557.533)" gradientUnits="userSpaceOnUse"><stop offset="0" style="stop-color:#ffcf95"/><stop offset=".427" style="stop-color:#ffc954"/><stop offset="1" style="stop-color:#ffc200"/></linearGradient><path d="M177.169 0H66.284c-6.458 0-11.693 5.235-11.693 11.693v31.379c0 6.458 5.235 11.693 11.693 11.693h110.885c6.458 0 11.693-5.235 11.693-11.693V11.693C188.862 5.235 183.627 0 177.169 0" style="fill:url(#d)"/><linearGradient id="e" x1="362.813" x2="362.813" y1="472.928" y2="430.827" gradientTransform="matrix(1.0667 0 0 -1.0667 3.267 557.533)" gradientUnits="userSpaceOnUse"><stop offset="0" style="stop-color:#c2d600"/><stop offset="1" style="stop-color:#7bd101"/></linearGradient><path d="M457.402 11.69v95.861H323.133V11.69c0-6.449 5.239-11.687 11.689-11.687h110.893c6.447-.002 11.687 5.238 11.687 11.687" style="fill:url(#e)"/><linearGradient id="f" x1="362.813" x2="362.813" y1="533.737" y2="482.231" gradientTransform="matrix(1.0667 0 0 -1.0667 3.267 557.533)" gradientUnits="userSpaceOnUse"><stop offset="0" style="stop-color:#c2d600"/><stop offset="1" style="stop-color:#7bd101"/></linearGradient><path d="M445.71 0H334.825c-6.458 0-11.693 5.235-11.693 11.693v31.379c0 6.458 5.235 11.693 11.693 11.693H445.71c6.458 0 11.693-5.235 11.693-11.693V11.693C457.403 5.235 452.168 0 445.71 0" style="fill:url(#f)"/><linearGradient id="g" x1="236.934" x2="236.934" y1="460.774" y2="428.697" gradientTransform="matrix(1.0667 0 0 -1.0667 3.267 557.533)" gradientUnits="userSpaceOnUse"><stop offset="0" style="stop-color:#b761c6"/><stop offset="1" style="stop-color:#9c44b3"/></linearGradient><path d="M323.131 37.285v70.266H188.862V37.285c0-6.449 5.239-11.687 11.689-11.687h110.893c6.448 0 11.687 5.238 11.687 11.687" style="fill:url(#g)"/><linearGradient id="h" x1="236.934" x2="236.934" y1="509.743" y2="458.238" gradientTransform="matrix(1.0667 0 0 -1.0667 3.267 557.533)" gradientUnits="userSpaceOnUse"><stop offset="0" style="stop-color:#b761c6"/><stop offset="1" style="stop-color:#9c44b3"/></linearGradient><path d="M311.44 25.597H200.554c-6.458 0-11.693 5.235-11.693 11.693v31.38c0 6.458 5.235 11.693 11.693 11.693h110.885c6.458 0 11.693-5.235 11.693-11.693V37.289c0-6.458-5.234-11.692-11.692-11.692" style="fill:url(#h)"/><linearGradient id="i" x1="189.208" x2="55.947" y1="269.817" y2="403.077" gradientTransform="matrix(1.0667 0 0 -1.0667 3.267 557.533)" gradientUnits="userSpaceOnUse"><stop offset="0" style="stop-color:#1aceb8;stop-opacity:0"/><stop offset="1" style="stop-color:#04959c"/></linearGradient><circle cx="114.517" cy="179.157" r="23.801" style="fill:url(#i)"/><linearGradient id="j" x1="454.483" x2="321.223" y1="269.813" y2="403.072" gradientTransform="matrix(1.0667 0 0 -1.0667 3.267 557.533)" gradientUnits="userSpaceOnUse"><stop offset="0" style="stop-color:#1aceb8;stop-opacity:0"/><stop offset="1" style="stop-color:#04959c"/></linearGradient><circle cx="397.472" cy="179.157" r="23.801" style="fill:url(#j)"/><linearGradient id="k" x1="307.198" x2="136.878" y1="231.698" y2="402.018" gradientTransform="matrix(1.0667 0 0 -1.0667 3.267 557.533)" gradientUnits="userSpaceOnUse"><stop offset="0" style="stop-color:#1aceb8;stop-opacity:0"/><stop offset="1" style="stop-color:#04959c"/></linearGradient><path d="M487.536 248.342v233.246c0 16.793-13.619 30.412-30.412 30.412H313.475L147.188 345.714c-30.505-29.287-49.518-70.635-49.518-116.199v-48.037c0-9.137 7.391-16.528 16.528-16.528 5.792 0 10.895 2.988 13.844 7.51 0 0 174.854 174.577 175.278 174.921 45.684-18.71 77.947-63.653 77.947-116.001v-49.902c0-9.137 7.405-16.528 16.528-16.528 5.805 0 10.895 2.988 13.844 7.51z" style="fill:url(#k)"/><linearGradient id="l" x1="236.934" x2="236.934" y1="375.808" y2="80.737" gradientTransform="matrix(1.0667 0 0 -1.0667 3.267 557.533)" gradientUnits="userSpaceOnUse"><stop offset="0" style="stop-color:#fff"/><stop offset="1" style="stop-color:#e8efee"/></linearGradient><path d="M258.837 389.691c-88.839 1.571-161.173-71.322-161.173-160.174v-48.045c0-9.129 7.399-16.528 16.528-16.528s16.528 7.399 16.528 16.528v48.186c0 70.343 57.196 128.228 127.527 126.982 68.043-1.205 123.025-56.932 123.025-125.257v-49.911c0-9.129 7.399-16.528 16.528-16.528s16.528 7.399 16.528 16.528v49.911c.002 86.356-69.492 156.788-155.491 158.308" style="fill:url(#l)"/><linearGradient id="m" x1="447.967" x2="258.308" y1="90.718" y2="280.377" gradientTransform="matrix(1.0667 0 0 -1.0667 3.267 557.533)" gradientUnits="userSpaceOnUse"><stop offset="0" style="stop-color:#1aceb8;stop-opacity:0"/><stop offset="1" style="stop-color:#04959c"/></linearGradient><path d="M487.53 481.588V248.341l-75.851-75.838a16.4 16.4 0 0 1 2.644 8.965v49.915c0 86.356-69.485 156.793-155.484 158.314-43.171.754-82.443-16.065-111.413-43.754L313.473 512h143.645c16.796 0 30.412-13.616 30.412-30.412" style="fill:url(#m)"/><linearGradient id="n" x1="236.935" x2="236.935" y1="127.897" y2="30.918" gradientTransform="matrix(1.0667 0 0 -1.0667 3.267 557.533)" gradientUnits="userSpaceOnUse"><stop offset="0" style="stop-color:#1aceb8;stop-opacity:0"/><stop offset=".769" style="stop-color:#04959c"/></linearGradient><path d="M24.464 397.315v82.95c0 16.796 13.616 30.412 30.412 30.412h402.242c16.796 0 30.412-13.616 30.412-30.412v-82.95z" style="fill:url(#n)"/></svg>