<svg xmlns="http://www.w3.org/2000/svg" viewBox="0 0 392.152 392.152" style="enable-background:new 0 0 392.152 392.152" xml:space="preserve"><path style="fill:#77b8e8" d="M298.526 153.455c-13.935 0-25.231-11.296-25.231-25.231 0-42.878-34.884-77.761-77.762-77.761-42.877 0-77.76 34.883-77.76 77.761 0 13.936-11.297 25.231-25.231 25.231-13.936 0-25.231-11.296-25.231-25.231C67.311 57.521 124.831 0 195.533 0c70.704 0 128.225 57.521 128.225 128.224 0 13.935-11.296 25.231-25.232 25.231z"/><path style="fill:#009bde" d="M293.493 45.588c-18.048-12.438-39.901-19.731-63.431-19.731-41.618 0-78.01 22.807-97.336 56.577 14.156-19.365 37.036-31.971 62.807-31.971 42.878 0 77.762 34.883 77.762 77.761 0 13.936 11.297 25.231 25.231 25.231 13.936 0 25.231-11.296 25.231-25.231.001-31.459-11.395-60.302-30.264-82.636z"/><path style="fill:#333e48" d="M282.882 128.224c-37.75 0-68.354 30.603-68.354 68.355v54.957c0 37.752 30.604 68.355 68.354 68.355h25.582c37.752 0 68.355-30.604 68.355-68.355v-54.957c0-37.752-30.604-68.355-68.355-68.355h-25.582z"/><path style="fill:#3e4a57" d="M351.239 251.535c0 37.752-30.605 68.355-68.357 68.355-37.75 0-68.354-30.604-68.354-68.355v-54.957c0-37.752 30.604-68.355 68.354-68.355 37.752 0 68.357 30.603 68.357 68.355v54.957z"/><path style="fill:#333e48" d="M328.809 243.823c0 27.157-22.015 49.172-49.173 49.172-27.157 0-49.171-22.015-49.171-49.172V204.29c0-27.156 22.014-49.17 49.171-49.17 27.158 0 49.173 22.014 49.173 49.17v39.533zM83.687 128.224c-37.75 0-68.354 30.603-68.354 68.355v54.957c0 37.752 30.604 68.355 68.354 68.355h25.583c37.751 0 68.355-30.604 68.355-68.355v-54.957c0-37.752-30.605-68.355-68.355-68.355H83.687z"/><path style="fill:#3e4a57" d="M152.044 251.535c0 37.752-30.606 68.355-68.357 68.355-37.75 0-68.354-30.604-68.354-68.355v-54.957c0-37.752 30.604-68.355 68.354-68.355 37.752 0 68.357 30.603 68.357 68.355v54.957z"/><path style="fill:#009bde" d="M129.614 243.823c0 27.157-22.016 49.172-49.173 49.172-27.158 0-49.171-22.015-49.171-49.172V204.29c0-27.156 22.013-49.17 49.171-49.17 27.157 0 49.173 22.014 49.173 49.17v39.533z"/><circle style="fill:#fff" cx="80.441" cy="224.058" r="29.713"/><path style="fill:#77b8e8" d="M137.988 392.152c-34.173 0-61.974-27.801-61.974-61.973v-37.185a4.426 4.426 0 1 1 8.853 0v37.185c0 29.29 23.829 53.12 53.121 53.12 29.289 0 53.12-23.83 53.12-53.12a4.427 4.427 0 1 1 8.854 0c0 34.173-27.802 61.973-61.974 61.973z"/><path style="fill:#333e48" d="M187.409 292.11h16.251v43.608h-16.251z"/><path style="fill:#ffa400" d="M195.535 271.458a5.438 5.438 0 0 0-5.439 5.437v15.216h10.874v-15.216a5.434 5.434 0 0 0-5.435-5.437z"/><path style="fill:#3e4a57" d="M187.409 297.569h16.251v4.684h-16.251zM187.409 306.57h16.251v4.684h-16.251z"/></svg>