<svg height="512" viewBox="0 0 510 510" width="512" xmlns="http://www.w3.org/2000/svg" xmlns:xlink="http://www.w3.org/1999/xlink"><linearGradient id="a"><stop offset="0" stop-color="#00adfb"/><stop offset="1" stop-color="#3f3ced"/></linearGradient><linearGradient id="d" gradientUnits="userSpaceOnUse" x1="255" x2="255" xlink:href="#a" y1="10.085" y2="130.605"/><linearGradient id="b"><stop offset="0" stop-color="#00adfb" stop-opacity="0"/><stop offset="1" stop-color="#18cefb"/></linearGradient><linearGradient id="e" gradientUnits="userSpaceOnUse" x1="255" x2="255" xlink:href="#b" y1="63.125" y2="-10.223"/><linearGradient id="c"><stop offset="0" stop-color="#3f3ced" stop-opacity="0"/><stop offset="1" stop-color="#2f43bb"/></linearGradient><linearGradient id="f" gradientUnits="userSpaceOnUse" x1="178.637" x2="102.098" xlink:href="#c" y1="118.746" y2="69.178"/><linearGradient id="g" gradientUnits="userSpaceOnUse" x1="220.912" x2="339.777" xlink:href="#a" y1="258.656" y2="427.81"/><linearGradient id="h" gradientUnits="userSpaceOnUse" x1="249.593" x2="152.108" xlink:href="#b" y1="296.402" y2="241.641"/><linearGradient id="i" gradientUnits="userSpaceOnUse" x1="209.477" x2="241.949" xlink:href="#c" y1="323.025" y2="295.049"/><linearGradient id="j" gradientUnits="userSpaceOnUse" x1="299.549" x2="271.224" xlink:href="#c" y1="223.853" y2="250.672"/><linearGradient id="k" gradientUnits="userSpaceOnUse" x1="97.376" x2="589.731" xlink:href="#a" y1="164.911" y2="493.148"/><linearGradient id="l" gradientUnits="userSpaceOnUse" x1="291.3" x2="-56.477" xlink:href="#b" y1="297.828" y2="123.939"/><path d="M349.476 24.538c-58.735-32.717-130.216-32.717-188.951 0a69.262 69.262 0 0 0-35.557 60.507v38.531l35.557-19.806c58.735-32.717 130.216-32.717 188.951 0l35.557 19.806V85.045a69.262 69.262 0 0 0-35.557-60.507z" fill="url(#d)"/><path d="M349.476 36.89c-58.735-32.717-130.217-32.717-188.952 0a69.262 69.262 0 0 0-35.557 60.507v26.179l35.557-19.806c58.735-32.717 130.216-32.717 188.951 0l35.557 19.806V97.398a69.261 69.261 0 0 0-35.556-60.508z" fill="url(#e)"/><path d="M134.254 50.415a69.21 69.21 0 0 0-9.287 34.63v38.531l35.557-19.806a194.513 194.513 0 0 1 18.183-8.902z" fill="url(#f)"/><path d="m107.536 507.024 225.24-254.423c18.465-20.857 35.799-44.941 48.067-70.775 18.991-39.991 18.458-86.68-2.025-125.929a98.041 98.041 0 0 0-3.068-5.488 20.218 20.218 0 0 1-3.21 21.774L66.891 419.335a8.802 8.802 0 0 0-1.684 8.819l27.456 76.031c2.27 6.288 10.446 7.848 14.873 2.839z" fill="url(#g)"/><path d="M332.776 252.602c18.465-20.857 35.799-44.941 48.067-70.775 15.939-33.564 18.118-71.845 6.299-106.486A20.211 20.211 0 0 1 382.22 90.8L76.57 437.95a8.802 8.802 0 0 0-1.684 8.819l22.569 62.499c3.297 1.41 7.382.809 10.08-2.243z" fill="url(#h)"/><path d="m259.381 335.516-27.752 31.339-59.754-66.759 27.676-31.435z" fill="url(#i)"/><path d="M336.99 247.754a266.562 266.562 0 0 1-4.209 4.852l-23.499 26.541-59.969-67.006 27.676-31.436z" fill="url(#j)"/><path d="m402.464 507.024-225.24-254.423c-18.465-20.857-35.799-44.941-48.067-70.775-18.991-39.991-18.458-86.68 2.025-125.929a98.682 98.682 0 0 1 3.068-5.488 20.218 20.218 0 0 0 3.21 21.774l305.65 347.151a8.802 8.802 0 0 1 1.684 8.819l-27.456 76.031c-2.271 6.289-10.447 7.849-14.874 2.84z" fill="url(#k)"/><path d="M443.109 419.335 144.619 80.316c-12.093 34.829-9.99 73.406 6.059 107.2 12.268 25.834 29.602 49.918 48.067 70.775l218.293 246.576c.103-.225.213-.444.299-.683l27.456-76.031a8.8 8.8 0 0 0-1.684-8.818z" fill="url(#l)"/></svg>