<svg xmlns="http://www.w3.org/2000/svg" xmlns:xlink="http://www.w3.org/1999/xlink" width="512" height="512" viewBox="0 0 510 510"><linearGradient id="a"><stop offset="0" stop-color="#00adfb"/><stop offset="1" stop-color="#3f3ced"/></linearGradient><linearGradient xlink:href="#a" id="d" x1="255" x2="255" y1="10.085" y2="130.605" gradientUnits="userSpaceOnUse"/><linearGradient id="b"><stop offset="0" stop-color="#00adfb" stop-opacity="0"/><stop offset="1" stop-color="#18cefb"/></linearGradient><linearGradient xlink:href="#b" id="e" x1="255" x2="255" y1="63.125" y2="-10.223" gradientUnits="userSpaceOnUse"/><linearGradient id="c"><stop offset="0" stop-color="#3f3ced" stop-opacity="0"/><stop offset="1" stop-color="#2f43bb"/></linearGradient><linearGradient xlink:href="#c" id="f" x1="178.637" x2="102.098" y1="118.746" y2="69.178" gradientUnits="userSpaceOnUse"/><linearGradient xlink:href="#a" id="g" x1="220.912" x2="339.777" y1="258.656" y2="427.81" gradientUnits="userSpaceOnUse"/><linearGradient xlink:href="#b" id="h" x1="249.593" x2="152.108" y1="296.402" y2="241.641" gradientUnits="userSpaceOnUse"/><linearGradient xlink:href="#c" id="i" x1="209.477" x2="241.949" y1="323.025" y2="295.049" gradientUnits="userSpaceOnUse"/><linearGradient xlink:href="#c" id="j" x1="299.549" x2="271.224" y1="223.853" y2="250.672" gradientUnits="userSpaceOnUse"/><linearGradient xlink:href="#a" id="k" x1="97.376" x2="589.731" y1="164.911" y2="493.148" gradientUnits="userSpaceOnUse"/><linearGradient xlink:href="#b" id="l" x1="291.3" x2="-56.477" y1="297.828" y2="123.939" gradientUnits="userSpaceOnUse"/><path fill="url(#d)" d="M349.476 24.538c-58.735-32.717-130.216-32.717-188.951 0a69.26 69.26 0 0 0-35.557 60.507v38.531l35.557-19.806c58.735-32.717 130.216-32.717 188.951 0l35.557 19.806V85.045a69.26 69.26 0 0 0-35.557-60.507"/><path fill="url(#e)" d="M349.476 36.89c-58.735-32.717-130.217-32.717-188.952 0a69.26 69.26 0 0 0-35.557 60.507v26.179l35.557-19.806c58.735-32.717 130.216-32.717 188.951 0l35.557 19.806V97.398a69.26 69.26 0 0 0-35.556-60.508"/><path fill="url(#f)" d="M134.254 50.415a69.2 69.2 0 0 0-9.287 34.63v38.531l35.557-19.806a195 195 0 0 1 18.183-8.902z"/><path fill="url(#g)" d="m107.536 507.024 225.24-254.423c18.465-20.857 35.799-44.941 48.067-70.775 18.991-39.991 18.458-86.68-2.025-125.929a98 98 0 0 0-3.068-5.488 20.22 20.22 0 0 1-3.21 21.774L66.891 419.335a8.8 8.8 0 0 0-1.684 8.819l27.456 76.031c2.27 6.288 10.446 7.848 14.873 2.839"/><path fill="url(#h)" d="M332.776 252.602c18.465-20.857 35.799-44.941 48.067-70.775 15.939-33.564 18.118-71.845 6.299-106.486A20.21 20.21 0 0 1 382.22 90.8L76.57 437.95a8.8 8.8 0 0 0-1.684 8.819l22.569 62.499c3.297 1.41 7.382.809 10.08-2.243z"/><path fill="url(#i)" d="m259.381 335.516-27.752 31.339-59.754-66.759 27.676-31.435z"/><path fill="url(#j)" d="M336.99 247.754a267 267 0 0 1-4.209 4.852l-23.499 26.541-59.969-67.006 27.676-31.436z"/><path fill="url(#k)" d="m402.464 507.024-225.24-254.423c-18.465-20.857-35.799-44.941-48.067-70.775-18.991-39.991-18.458-86.68 2.025-125.929a99 99 0 0 1 3.068-5.488 20.22 20.22 0 0 0 3.21 21.774l305.65 347.151a8.8 8.8 0 0 1 1.684 8.819l-27.456 76.031c-2.271 6.289-10.447 7.849-14.874 2.84"/><path fill="url(#l)" d="M443.109 419.335 144.619 80.316c-12.093 34.829-9.99 73.406 6.059 107.2 12.268 25.834 29.602 49.918 48.067 70.775l218.293 246.576c.103-.225.213-.444.299-.683l27.456-76.031a8.8 8.8 0 0 0-1.684-8.818"/></svg>