<svg xmlns="http://www.w3.org/2000/svg" xml:space="preserve" viewBox="0 0 512.001 512.001"><linearGradient id="a" x1="250.596" x2="250.596" y1="-20.782" y2="513.243" gradientTransform="matrix(1.0667 0 0 -1.0667 3.267 557.534)" gradientUnits="userSpaceOnUse"><stop offset="0" style="stop-color:#fff"/><stop offset="1" style="stop-color:#e8efee"/></linearGradient><circle cx="270.569" cy="256" r="224.672" style="fill:url(#a)"/><linearGradient id="b" x1="250.596" x2="250.596" y1="466.014" y2="79.058" gradientTransform="matrix(1.0667 0 0 -1.0667 3.267 557.534)" gradientUnits="userSpaceOnUse"><stop offset="0" style="stop-color:#fff"/><stop offset="1" style="stop-color:#e8efee"/></linearGradient><circle cx="270.569" cy="256" r="218.485" style="fill:url(#b)"/><radialGradient id="c" cx="232.846" cy="308.978" r="244.78" gradientTransform="matrix(1.0667 0 0 -1.0667 3.267 557.534)" gradientUnits="userSpaceOnUse"><stop offset="0" style="stop-color:#fff;stop-opacity:0"/><stop offset=".482" style="stop-color:#fdfdfd;stop-opacity:.482"/><stop offset=".656" style="stop-color:#f6f7f7;stop-opacity:.655"/><stop offset=".779" style="stop-color:#ebedec;stop-opacity:.779"/><stop offset=".879" style="stop-color:#dadddd;stop-opacity:.879"/><stop offset=".964" style="stop-color:#c4cac9;stop-opacity:.964"/><stop offset="1" style="stop-color:#b8bfbe"/></radialGradient><path d="M347.357 51.4c8.97 23.889 13.889 49.761 13.889 76.784 0 120.669-97.821 218.49-218.49 218.49-27.023 0-52.895-4.919-76.784-13.889 31.083 82.784 110.955 141.705 204.6 141.705 120.669 0 218.49-97.821 218.49-218.49-.001-93.644-58.92-173.516-141.705-204.6" style="fill:url(#c)"/><radialGradient id="d" cx="177.196" cy="373.838" r="269.2" gradientTransform="matrix(1.0667 0 0 -1.0667 3.267 557.534)" gradientUnits="userSpaceOnUse"><stop offset="0" style="stop-color:#00a6f9"/><stop offset=".253" style="stop-color:#00a0f7"/><stop offset=".575" style="stop-color:#0091f0"/><stop offset=".932" style="stop-color:#0077e4"/><stop offset="1" style="stop-color:#0071e2"/></radialGradient><path d="M185.982 133.495c3.135-10.175 6.679-19.815 10.618-28.807 7.853-17.93 16.959-32.513 26.969-43.463-36.029 8.663-68.265 27.058-93.772 52.256 16.61 8.385 35.583 15.118 56.185 20.014" style="fill:url(#d)"/><radialGradient id="e" cx="177.196" cy="373.838" r="269.2" gradientTransform="matrix(1.0667 0 0 -1.0667 3.267 557.534)" gradientUnits="userSpaceOnUse"><stop offset="0" style="stop-color:#00a6f9"/><stop offset=".253" style="stop-color:#00a0f7"/><stop offset=".575" style="stop-color:#0091f0"/><stop offset=".932" style="stop-color:#0077e4"/><stop offset="1" style="stop-color:#0071e2"/></radialGradient><path d="M411.345 113.48c-9.045 4.566-18.79 8.652-29.124 12.192-8.63 2.982-17.676 5.594-27.06 7.822-3.135-10.171-6.675-19.817-10.619-28.807-7.855-17.927-16.955-32.511-26.961-43.457l.262.065c35.919 8.684 68.059 27.048 93.502 52.185" style="fill:url(#e)"/><radialGradient id="f" cx="177.196" cy="373.838" r="269.2" gradientTransform="matrix(1.0667 0 0 -1.0667 3.267 557.534)" gradientUnits="userSpaceOnUse"><stop offset="0" style="stop-color:#00a6f9"/><stop offset=".253" style="stop-color:#00a0f7"/><stop offset=".575" style="stop-color:#0091f0"/><stop offset=".932" style="stop-color:#0077e4"/><stop offset="1" style="stop-color:#0071e2"/></radialGradient><path d="M351.188 266.405H189.956c.682 31.237 4.433 61.114 10.914 87.799 22.166-3.936 45.643-5.991 69.701-5.991 24.059 0 47.535 2.055 69.701 5.991 6.483-26.686 10.234-56.562 10.916-87.799" style="fill:url(#f)"/><radialGradient id="g" cx="177.196" cy="373.838" r="269.2" gradientTransform="matrix(1.0667 0 0 -1.0667 3.267 557.534)" gradientUnits="userSpaceOnUse"><stop offset="0" style="stop-color:#00a6f9"/><stop offset=".253" style="stop-color:#00a0f7"/><stop offset=".575" style="stop-color:#0091f0"/><stop offset=".932" style="stop-color:#0077e4"/><stop offset="1" style="stop-color:#0071e2"/></radialGradient><path d="M340.274 157.797c-22.166 3.936-45.643 5.991-69.701 5.991-24.059 0-47.535-2.055-69.701-5.991-6.481 26.686-10.233 56.562-10.914 87.799h161.231c-.683-31.237-4.434-61.113-10.915-87.799" style="fill:url(#g)"/><radialGradient id="h" cx="177.196" cy="373.838" r="269.2" gradientTransform="matrix(1.0667 0 0 -1.0667 3.267 557.534)" gradientUnits="userSpaceOnUse"><stop offset="0" style="stop-color:#00a6f9"/><stop offset=".253" style="stop-color:#00a0f7"/><stop offset=".575" style="stop-color:#0091f0"/><stop offset=".932" style="stop-color:#0077e4"/><stop offset="1" style="stop-color:#0071e2"/></radialGradient><path d="M206.472 374.328c2.748 8.683 5.811 16.926 9.188 24.637 15.23 34.773 35.245 54.717 54.912 54.717s39.682-19.943 54.912-54.717c3.377-7.711 6.441-15.954 9.188-24.637-20.366-3.49-41.946-5.307-64.1-5.307s-43.735 1.817-64.1 5.307" style="fill:url(#h)"/><radialGradient id="i" cx="177.196" cy="373.838" r="269.2" gradientTransform="matrix(1.0667 0 0 -1.0667 3.267 557.534)" gradientUnits="userSpaceOnUse"><stop offset="0" style="stop-color:#00a6f9"/><stop offset=".253" style="stop-color:#00a0f7"/><stop offset=".575" style="stop-color:#0091f0"/><stop offset=".932" style="stop-color:#0077e4"/><stop offset="1" style="stop-color:#0071e2"/></radialGradient><path d="M334.672 137.673c-2.748-8.683-5.811-16.926-9.188-24.637-15.23-34.773-35.245-54.717-54.912-54.717s-39.682 19.943-54.912 54.717c-3.377 7.711-6.441 15.954-9.188 24.637 20.366 3.49 41.946 5.307 64.1 5.307s43.734-1.817 64.1-5.307" style="fill:url(#i)"/><radialGradient id="j" cx="177.196" cy="373.838" r="269.2" gradientTransform="matrix(1.0667 0 0 -1.0667 3.267 557.534)" gradientUnits="userSpaceOnUse"><stop offset="0" style="stop-color:#00a6f9"/><stop offset=".253" style="stop-color:#00a0f7"/><stop offset=".575" style="stop-color:#0091f0"/><stop offset=".932" style="stop-color:#0077e4"/><stop offset="1" style="stop-color:#0071e2"/></radialGradient><path d="M180.5 153.562c-3.047 12.716-5.539 26.087-7.385 39.94-2.251 16.769-3.595 34.237-3.977 52.099H70.501c2.174-42.387 17.511-81.278 42.016-112.697.917-1.18 1.857-2.349 2.797-3.507 1.115.601 2.207 1.202 3.354 1.792 18.254 9.416 39.175 16.932 61.832 22.373" style="fill:url(#j)"/><radialGradient id="k" cx="177.196" cy="373.838" r="269.2" gradientTransform="matrix(1.0667 0 0 -1.0667 3.267 557.534)" gradientUnits="userSpaceOnUse"><stop offset="0" style="stop-color:#00a6f9"/><stop offset=".253" style="stop-color:#00a0f7"/><stop offset=".575" style="stop-color:#0091f0"/><stop offset=".932" style="stop-color:#0077e4"/><stop offset="1" style="stop-color:#0071e2"/></radialGradient><path d="M355.161 378.506c-3.135 10.175-6.679 19.815-10.618 28.807-7.853 17.93-16.959 32.513-26.969 43.463 36.029-8.663 68.265-27.058 93.772-52.256-16.609-8.385-35.582-15.118-56.185-20.014" style="fill:url(#k)"/><radialGradient id="l" cx="177.196" cy="373.838" r="269.2" gradientTransform="matrix(1.0667 0 0 -1.0667 3.267 557.534)" gradientUnits="userSpaceOnUse"><stop offset="0" style="stop-color:#00a6f9"/><stop offset=".253" style="stop-color:#00a0f7"/><stop offset=".575" style="stop-color:#0091f0"/><stop offset=".932" style="stop-color:#0077e4"/><stop offset="1" style="stop-color:#0071e2"/></radialGradient><path d="M422.481 131.187c-18.26 9.421-39.175 16.938-61.842 22.373 6.77 28.138 10.675 59.443 11.361 92.036h98.641c-2.25-43.973-18.685-84.195-44.81-116.195-1.109.598-2.212 1.199-3.35 1.786" style="fill:url(#l)"/><radialGradient id="m" cx="177.196" cy="373.838" r="269.2" gradientTransform="matrix(1.0667 0 0 -1.0667 3.267 557.534)" gradientUnits="userSpaceOnUse"><stop offset="0" style="stop-color:#00a6f9"/><stop offset=".253" style="stop-color:#00a0f7"/><stop offset=".575" style="stop-color:#0091f0"/><stop offset=".932" style="stop-color:#0077e4"/><stop offset="1" style="stop-color:#0071e2"/></radialGradient><path d="M372.001 266.405c-.685 32.592-4.59 63.899-11.361 92.036 22.667 5.436 43.582 12.953 61.842 22.373 1.137.587 2.24 1.188 3.35 1.787 26.125-32.001 42.56-72.223 44.81-116.195z" style="fill:url(#m)"/><radialGradient id="n" cx="177.196" cy="373.838" r="269.2" gradientTransform="matrix(1.0667 0 0 -1.0667 3.267 557.534)" gradientUnits="userSpaceOnUse"><stop offset="0" style="stop-color:#00a6f9"/><stop offset=".253" style="stop-color:#00a0f7"/><stop offset=".575" style="stop-color:#0091f0"/><stop offset=".932" style="stop-color:#0077e4"/><stop offset="1" style="stop-color:#0071e2"/></radialGradient><path d="M180.5 358.439c-9.69 2.326-19.053 5.025-28.032 8.095-12.028 4.118-23.345 8.881-33.801 14.278-1.147.59-2.239 1.19-3.354 1.792-22.067-27.027-37.219-59.909-42.748-95.971A199 199 0 0 1 70.5 266.4h98.637c.69 32.599 4.6 63.909 11.363 92.039" style="fill:url(#n)"/><radialGradient id="o" cx="177.196" cy="373.838" r="269.2" gradientTransform="matrix(1.0667 0 0 -1.0667 3.267 557.534)" gradientUnits="userSpaceOnUse"><stop offset="0" style="stop-color:#00a6f9"/><stop offset=".253" style="stop-color:#00a0f7"/><stop offset=".575" style="stop-color:#0091f0"/><stop offset=".932" style="stop-color:#0077e4"/><stop offset="1" style="stop-color:#0071e2"/></radialGradient><path d="M196.599 407.313c-3.938-8.992-7.483-18.631-10.618-28.807-20.602 4.896-39.575 11.628-56.187 20.015 25.508 25.198 57.743 43.591 93.772 52.256-10.008-10.95-19.114-25.534-26.967-43.464" style="fill:url(#o)"/><linearGradient id="p" x1="183.682" x2="67.063" y1="339.014" y2="455.634" gradientTransform="matrix(1.0667 0 0 -1.0667 3.267 557.534)" gradientUnits="userSpaceOnUse"><stop offset="0" style="stop-color:#008bf2;stop-opacity:0"/><stop offset="1" style="stop-color:#0046e2"/></linearGradient><path d="M180.5 153.562c-3.047 12.716-5.539 26.087-7.385 39.94l-60.598-60.598c.917-1.18 1.857-2.349 2.797-3.507 1.115.601 2.207 1.202 3.354 1.792 18.254 9.416 39.175 16.932 61.832 22.373" style="fill:url(#p)"/><linearGradient id="q" x1="162.109" x2="58.762" y1="211.581" y2="314.931" gradientTransform="matrix(1.0667 0 0 -1.0667 3.267 557.534)" gradientUnits="userSpaceOnUse"><stop offset="0" style="stop-color:#008bf2;stop-opacity:0"/><stop offset="1" style="stop-color:#0046e2"/></linearGradient><path d="M180.5 358.439c-9.69 2.326-19.053 5.025-28.032 8.095l-79.902-79.902a199 199 0 0 1-2.065-20.233h98.637c.689 32.6 4.599 63.91 11.362 92.04" style="fill:url(#q)"/><linearGradient id="r" x1="354.584" x2="283.994" y1="389.206" y2="459.792" gradientTransform="matrix(1.0667 0 0 -1.0667 3.267 557.534)" gradientUnits="userSpaceOnUse"><stop offset="0" style="stop-color:#008bf2;stop-opacity:0"/><stop offset="1" style="stop-color:#0046e2"/></linearGradient><path d="M382.22 125.672c-8.63 2.982-17.676 5.594-27.06 7.822-3.135-10.171-6.675-19.817-10.619-28.807-7.855-17.927-16.955-32.511-26.961-43.457l.262.065z" style="fill:url(#r)"/><linearGradient id="s" x1="457.137" x2="363.687" y1="266.639" y2="360.089" gradientTransform="matrix(1.0667 0 0 -1.0667 3.267 557.534)" gradientUnits="userSpaceOnUse"><stop offset="0" style="stop-color:#c2cece;stop-opacity:0"/><stop offset=".179" style="stop-color:#afbcbc;stop-opacity:.179"/><stop offset="1" style="stop-color:#5b6a6a"/></linearGradient><path d="M489.061 256c0-33.41-7.504-65.063-20.912-93.377-8.909 8.097-21.555 18.171-39.326 30.324-16.448 11.252-28.441 23.381-49.057 35.181-5.826 3.334-7.815 10.784-4.46 16.598a12.1 12.1 0 0 0 3.091 3.535l93.278 93.278c11.19-26.271 17.386-55.18 17.386-85.539" style="fill:url(#s)"/><linearGradient id="t" x1="467.485" x2="376.205" y1="208.877" y2="300.147" gradientTransform="matrix(1.0667 0 0 -1.0667 3.267 557.534)" gradientUnits="userSpaceOnUse"><stop offset="0" style="stop-color:#008bf2;stop-opacity:0"/><stop offset="1" style="stop-color:#0046e2"/></linearGradient><path d="M396.544 266.408h74.092c-1.093 21.471-5.574 42.031-12.91 61.183z" style="fill:url(#t)"/><linearGradient id="u" x1="465.066" x2="383.966" y1="246.398" y2="327.498" gradientTransform="matrix(1.0667 0 0 -1.0667 3.267 557.534)" gradientUnits="userSpaceOnUse"><stop offset="0" style="stop-color:#008bf2;stop-opacity:0"/><stop offset="1" style="stop-color:#0046e2"/></linearGradient><path d="M470.636 245.593h-94.773a8 8 0 0 1-.559-.862c-3.351-5.817-1.36-13.274 4.457-16.602 20.621-11.804 32.62-23.924 49.062-35.182 9.776-6.691 17.998-12.739 24.908-18.204 9.715 21.836 15.617 45.735 16.905 70.85" style="fill:url(#u)"/><linearGradient id="v" x1="412.099" x2="412.099" y1="396.288" y2="315.698" gradientTransform="matrix(1.0667 0 0 -1.0667 3.267 557.534)" gradientUnits="userSpaceOnUse"><stop offset="0" style="stop-color:#ffcf95"/><stop offset=".427" style="stop-color:#ffc954"/><stop offset="1" style="stop-color:#ffc200"/></linearGradient><path d="M509.97 128.9c-7.53-16.298-30.773-15.727-38.412-15.545-7.347.182-15.812 1.044-25.332 2.587a222 222 0 0 1 15.775 22.406c8.355-.862 14.439-.886 18.678-.498 3.716.327 5.611 4.578 3.461 7.627-2.295 3.243-5.89 7.481-11.269 12.715-8.962 8.743-22.88 20.281-44.047 34.756-16.448 11.252-28.441 23.381-49.057 35.181-5.826 3.334-7.815 10.784-4.46 16.598 3.351 5.808 10.767 7.787 16.586 4.455 24.051-13.767 38.906-27.846 57.443-40.908 13.213-9.302 24.41-18.046 33.482-26.134 5.477-4.882 10.189-9.521 14.099-13.905 4.129-4.614 15.084-16.88 15.084-30.033-.002-3.085-.597-6.206-2.031-9.302" style="fill:url(#v)"/><linearGradient id="w" x1="320.425" x2="191.115" y1="114.967" y2="244.277" gradientTransform="matrix(1.0667 0 0 -1.0667 3.267 557.534)" gradientUnits="userSpaceOnUse"><stop offset="0" style="stop-color:#c2cece;stop-opacity:0"/><stop offset=".179" style="stop-color:#afbcbc;stop-opacity:.179"/><stop offset="1" style="stop-color:#5b6a6a"/></linearGradient><path d="M466.554 352.656c-35.667 72.186-110.027 121.83-195.983 121.83-77.735 0-145.985-40.598-184.689-101.744a213 213 0 0 1-12.338-22.224c6.813-1.372 14.451-3.121 23.001-5.343 1.033-.267 2.065-.534 3.121-.814 1.227-.316 2.465-.656 3.728-.996 47.824-13.03 107.513-35.606 168.076-63.599a1483 1483 0 0 0 26.329-12.496l-12.606-25.066c-2.562-5.065 1.786-10.869 7.372-9.849l64.607 11.828c.206.036.425.085.62.146.206.049.401.122.595.194.182.061.352.133.523.219.145.073.291.146.437.23.109.061.219.133.327.207.122.073.243.158.352.243.231.158.449.34.656.559.097.085.194.194.291.291.316.34.595.704.837 1.105.207.34.377.692.523 1.057z" style="fill:url(#w)"/><linearGradient id="x" x1="377.136" x2="222.376" y1="110.358" y2="265.118" gradientTransform="matrix(1.0667 0 0 -1.0667 3.267 557.534)" gradientUnits="userSpaceOnUse"><stop offset="0" style="stop-color:#008bf2;stop-opacity:0"/><stop offset="1" style="stop-color:#0046e2"/></linearGradient><path d="M270.572 348.212c24.058 0 47.533 2.052 69.696 5.987 6.484-26.681 10.238-56.556 10.917-87.79h-53.823l.437.862a1466 1466 0 0 1-26.329 12.496c-26.511 12.254-52.851 23.462-78.099 33.299 1.822 14.331 4.336 28.114 7.505 41.133 22.164-3.935 45.638-5.987 69.696-5.987" style="fill:url(#x)"/><linearGradient id="y" x1="337.514" x2="182.754" y1="70.746" y2="225.506" gradientTransform="matrix(1.0667 0 0 -1.0667 3.267 557.534)" gradientUnits="userSpaceOnUse"><stop offset="0" style="stop-color:#008bf2;stop-opacity:0"/><stop offset="1" style="stop-color:#0046e2"/></linearGradient><path d="M334.669 374.333c-20.366-3.498-41.946-5.307-64.097-5.307s-43.731 1.809-64.097 5.307c2.745 8.671 5.805 16.917 9.181 24.628 15.229 34.781 35.254 54.722 54.916 54.722s39.687-19.94 54.916-54.722c3.376-7.71 6.436-15.957 9.181-24.628" style="fill:url(#y)"/><linearGradient id="z" x1="364.986" x2="210.226" y1="98.208" y2="252.968" gradientTransform="matrix(1.0667 0 0 -1.0667 3.267 557.534)" gradientUnits="userSpaceOnUse"><stop offset="0" style="stop-color:#008bf2;stop-opacity:0"/><stop offset="1" style="stop-color:#0046e2"/></linearGradient><path d="M344.542 407.317c-7.845 17.925-16.954 32.51-26.972 43.465 36.032-8.671 68.275-27.057 93.777-52.257-16.613-8.391-35.582-15.12-56.191-20.014-3.133 10.165-6.679 19.807-10.614 28.806" style="fill:url(#z)"/><linearGradient id="A" x1="420.415" x2="265.655" y1="153.637" y2="308.397" gradientTransform="matrix(1.0667 0 0 -1.0667 3.267 557.534)" gradientUnits="userSpaceOnUse"><stop offset="0" style="stop-color:#008bf2;stop-opacity:0"/><stop offset="1" style="stop-color:#0046e2"/></linearGradient><path d="M380.307 266.408h-8.306c-.681 32.595-4.591 63.89-11.355 92.029 22.661 5.441 43.573 12.958 61.839 22.382 1.13.583 2.235 1.178 3.351 1.786a200.3 200.3 0 0 0 27.093-43.573z" style="fill:url(#A)"/><linearGradient id="B" x1="285.096" x2="130.336" y1="18.318" y2="173.078" gradientTransform="matrix(1.0667 0 0 -1.0667 3.267 557.534)" gradientUnits="userSpaceOnUse"><stop offset="0" style="stop-color:#008bf2;stop-opacity:0"/><stop offset="1" style="stop-color:#0046e2"/></linearGradient><path d="M185.988 378.511c-20.609 4.894-39.578 11.622-56.191 20.014 25.503 25.199 57.745 43.585 93.777 52.257-10.019-10.954-19.127-25.539-26.972-43.465-3.936-8.999-7.481-18.641-10.614-28.806" style="fill:url(#B)"/><linearGradient id="C" x1="296.044" x2="141.284" y1="29.276" y2="184.036" gradientTransform="matrix(1.0667 0 0 -1.0667 3.267 557.534)" gradientUnits="userSpaceOnUse"><stop offset="0" style="stop-color:#008bf2;stop-opacity:0"/><stop offset="1" style="stop-color:#0046e2"/></linearGradient><path d="M180.499 358.437a341 341 0 0 1-2.951-13.443c-1.615-7.918-2.988-16.043-4.141-24.362-25.054 9.23-48.71 16.929-70.011 22.734a501 501 0 0 1-11.646 3.024 196 196 0 0 0 12.825 21.798 201 201 0 0 0 10.735 14.415c1.117-.595 2.21-1.202 3.364-1.786 10.444-5.404 21.762-10.164 33.797-14.282 8.973-3.07 18.336-5.767 28.028-8.098" style="fill:url(#C)"/><linearGradient id="D" x1="111.295" x2="-1.498" y1="158.187" y2="270.977" gradientTransform="matrix(1.0667 0 0 -1.0667 3.267 557.534)" gradientUnits="userSpaceOnUse"><stop offset="0" style="stop-color:#c2cece;stop-opacity:0"/><stop offset=".179" style="stop-color:#afbcbc;stop-opacity:.179"/><stop offset="1" style="stop-color:#5b6a6a"/></linearGradient><path d="M55.181 320.039a223.3 223.3 0 0 0 16.222 39.985c17.106-3.194 33.952-9.647 33.952-9.647l-56.206-56.206a223 223 0 0 0 6.032 25.868" style="fill:url(#D)"/><linearGradient id="E" x1="102.466" x2="59.586" y1="181.348" y2="224.228" gradientTransform="matrix(1.0667 0 0 -1.0667 3.267 557.534)" gradientUnits="userSpaceOnUse"><stop offset="0" style="stop-color:#008bf2;stop-opacity:0"/><stop offset="1" style="stop-color:#0046e2"/></linearGradient><path d="M95.677 353.72c5.852-1.878 9.678-3.343 9.678-3.343L83.988 329.01a199 199 0 0 0 11.689 24.71" style="fill:url(#E)"/><linearGradient id="F" x1="145.179" x2="186.929" y1="287.839" y2="191.439" gradientTransform="matrix(1.0667 0 0 -1.0667 3.267 557.534)" gradientUnits="userSpaceOnUse"><stop offset="0" style="stop-color:#ffcf95"/><stop offset=".427" style="stop-color:#ffc954"/><stop offset="1" style="stop-color:#ffc200"/></linearGradient><path d="m357.173 244.181-64.607-11.824c-5.585-1.022-9.932 4.783-7.378 9.854l12.617 25.058a1475 1475 0 0 1-26.334 12.498c-60.563 27.993-120.252 50.569-168.076 63.599-14.245 3.874-26.195 6.558-36.141 8.343-17.718 3.206-29.122 3.619-35.886 3.024-3.692-.327-5.696-4.53-3.558-7.554 4.068-5.793 12.277-14.719 27.422-26.948a221 221 0 0 1-6.096-26.074c-14.585 11.051-26.001 21.167-34.052 30.178-5.101 5.696-20.585 23.038-13.055 39.336 6.558 14.209 25.077 15.594 34.781 15.594 1.421 0 2.659-.025 3.631-.049 10.699-.255 23.754-1.967 38.995-5.101 6.995-1.434 14.451-3.17 22.346-5.198 50.46-12.982 114.337-36.81 179.879-67.109a1500 1500 0 0 0 27.068-12.846l12.091 24.014c2.554 5.071 9.805 5.037 12.31-.059l28.976-58.943c2.01-4.091-.448-8.973-4.933-9.793" style="fill:url(#F)"/><linearGradient id="G" x1="25.333" x2="38.996" y1="223.088" y2="209.988" gradientTransform="matrix(1.0667 0 0 -1.0667 3.267 557.534)" gradientUnits="userSpaceOnUse"><stop offset="0" style="stop-color:#ffc200;stop-opacity:0"/><stop offset=".203" style="stop-color:#fb0;stop-opacity:.203"/><stop offset=".499" style="stop-color:#ffa700;stop-opacity:.499"/><stop offset=".852" style="stop-color:#f80;stop-opacity:.852"/><stop offset="1" style="stop-color:#ff7800"/></linearGradient><path d="m29.459 354.166.009-.004c-2.402-1.309-3.39-4.532-1.658-6.982 4.068-5.793 12.277-14.719 27.422-26.948a221 221 0 0 1-4.617-18.331c-10.119 8.817-32.221 28.692-33.856 35.466-2.126 8.804 12.7 16.799 12.7 16.799" style="fill:url(#G)"/></svg>