<!--
  - Copyright (c) 2023. Selldone® Business OS™
  -
  - Author: M.Pajuhaan
  - Web: https://selldone.com
  - ━━━━━━━━━━━━━━━━━━━━━━━━━━━━━━━━━━━━━━━━━━━━━━━━━━━━━━
  -
  - All rights reserved. In the weave of time, where traditions and innovations intermingle, this content was crafted.
  - From the essence of thought, through the corridors of creativity, each word, and sentiment has been molded.
  - Not just to exist, but to inspire. Like an artist's stroke or a sculptor's chisel, every nuance is deliberate.
  - Our journey is not just about reaching a destination, but about creating a masterpiece.
  - Tread carefully, for you're treading on dreams.
  -->

<svg xmlns="http://www.w3.org/2000/svg" xmlns:xlink="http://www.w3.org/1999/xlink" width="820" height="1120" viewBox="0 0 25.73 35.14"  shape-rendering="geometricPrecision" image-rendering="optimizeQuality" fill-rule="evenodd" xmlns:v="https://vecta.io/nano"><defs><linearGradient id="A" x1="1.02" y1="8.9" x2="24.71" y2="26.24" xlink:href="#H"><stop offset="0" stop-color="#e6e7e8"/><stop offset="1" stop-color="#fafafa"/></linearGradient><linearGradient id="B" x1="8.94" y1="7.54" x2="17.16" y2="15.7" xlink:href="#H"><stop offset="0" stop-color="#738611"/><stop offset="1" stop-color="#4c6606"/></linearGradient><linearGradient id="C" x1="14.74" y1="14.38" x2="10.92" y2="10.56" xlink:href="#H"><stop offset="0" stop-opacity="0" stop-color="#8cc63f"/><stop offset="1" stop-color="#738611"/></linearGradient><linearGradient id="D" x1="10.25" y1="9.86" x2="11.54" y2="11.15" xlink:href="#H"><stop offset="0" stop-color="#654e48"/><stop offset="1" stop-color="#503837"/></linearGradient><linearGradient id="E" xlink:href="#B"  x1="14.13" y1="7.13" x2="19.78" y2="7.13"/><linearGradient id="F" x1="17.04" y1="12.34" x2="8.94" y2="4.28" xlink:href="#H"><stop offset="0" stop-opacity="0" stop-color="#4c6606"/><stop offset="1" stop-color="#4c6606"/></linearGradient><radialGradient id="G" gradientTransform="matrix(0.659588 0.000375316 0.000527682 -0.924327 4 46)" cx="11.02" cy="24" r="31.59" fx="11.02" fy="24" xlink:href="#H"><stop offset="0" stop-color="#ffe7a5"/><stop offset=".18" stop-color="#fae4a0"/><stop offset=".4" stop-color="#eadc90"/><stop offset=".639" stop-color="#d0cf76"/><stop offset=".91" stop-color="#acbd52"/><stop offset="1" stop-color="#9eb644"/></radialGradient><linearGradient id="H" gradientUnits="userSpaceOnUse"/></defs><path d="M25.71 30.35L23.84 9.78c-.05-.56-.53-1-1.1-1h-3.29V6.59a6.5 6.5 0 0 0-1.93-4.66C16.3.7 14.6 0 12.86 0 9.23 0 6.27 2.96 6.27 6.59v2.19H2.98a1.1 1.1 0 0 0-1.09 1L.02 30.35a4.42 4.42 0 0 0 1.13 3.36 4.39 4.39 0 0 0 3.24 1.43h16.94c1.23 0 2.42-.52 3.25-1.43a4.42 4.42 0 0 0 1.13-3.36zM17.25 8.78H8.47V6.59c0-2.42 1.97-4.39 4.39-4.39 1.17 0 2.3.46 3.11 1.28.83.82 1.28 1.93 1.28 3.11v2.19z" fill="url(#A)"/><path d="M18.41 25.59c.03-.03.06-.07.09-.1l.09-.12.09-.11c.03-.04.06-.08.08-.12l.08-.13c.03-.04.05-.08.08-.12l.07-.13c.02-.05.04-.09.06-.13 0-.01.01-.01.01-.02l.06-.12c.01-.05.03-.09.05-.13 0-.01 0-.02.01-.02.01-.04.03-.09.04-.13l.05-.14a1.13 1.13 0 0 0 .04-.15l.03-.14c.01 0 .01-.01.01-.02l.03-.13c0-.05.01-.1.02-.15l.02-.16.02-.42a4.04 4.04 0 0 0-.67-2.23c-.57-.85-.85-1.86-.84-2.88v-.07c-.01-1.36-1.12-2.47-2.48-2.49-1.41-.01-2.56 1.12-2.56 2.53v.06c.03 1.02-.29 2.02-.85 2.87a4.09 4.09 0 0 0-.66 2.19 4.05 4.05 0 0 0 4 4.05c.99 0 1.9-.34 2.6-.93l.11-.09.11-.1.1-.11c.04-.03.07-.07.1-.1z" fill="url(#E)"/><path d="M12.88 18.21c-.05.88-.35 1.74-.84 2.48a4.09 4.09 0 0 0-.66 2.19 4.05 4.05 0 0 0 4 4.05c.99 0 1.9-.34 2.6-.93l.11-.09.11-.1.1-.11c.04-.03.07-.07.1-.1l.1-.11.09-.12.09-.11c.03-.04.06-.08.08-.12l.08-.13c.03-.04.05-.08.08-.12l.07-.13c.02-.05.04-.09.06-.13 0-.01.01-.01.01-.02l.06-.12c0-.02.01-.03.01-.04l-6.25-6.24z" fill="url(#F)"/><path d="M13.54 19.93v-.06a2.54 2.54 0 0 0-2.49-2.49A2.51 2.51 0 0 0 8.5 19.9v.06c.02 1.03-.3 2.02-.86 2.88a3.99 3.99 0 0 0-.65 2.18c-.01 2.21 1.78 4.03 4 4.05 2.24.02 4.06-1.79 4.06-4.03 0-.82-.25-1.59-.67-2.23-.57-.85-.85-1.85-.84-2.88z" fill="url(#B)"/><path d="M13.34 20.09v-.07c-.02-1.29-1.04-2.35-2.29-2.37-1.3-.02-2.35 1.06-2.35 2.4v.07c.02.97-.27 1.92-.79 2.74a3.84 3.84 0 0 0-.6 2.08c-.01 2.11 1.64 3.84 3.68 3.86 2.06.02 3.74-1.71 3.74-3.84a3.94 3.94 0 0 0-.62-2.13c-.52-.81-.78-1.77-.77-2.74z" fill="url(#G)"/><path d="M15.03 25.46l-2.59-2.58c-.37-.39-.87-.63-1.42-.63-1.16 0-2.09 1.05-2.09 2.36 0 .73.29 1.38.75 1.81l2.48 2.49c1.54-.46 2.69-1.81 2.87-3.45z" fill="url(#C)"/><ellipse cx="11.02" cy="24.61" rx="2.09" ry="2.36" fill="url(#D)"/></svg>