<?xml version="1.0" encoding="UTF-8"?>
<!--
  - Copyright (c) 2023. Selldone® Business OS™
  -
  - Author: M.Pajuhaan
  - Web: https://selldone.com
  - ━━━━━━━━━━━━━━━━━━━━━━━━━━━━━━━━━━━━━━━━━━━━━━━━━━━━━━
  -
  - All rights reserved. In the weave of time, where traditions and innovations intermingle, this content was crafted.
  - From the essence of thought, through the corridors of creativity, each word, and sentiment has been molded.
  - Not just to exist, but to inspire. Like an artist's stroke or a sculptor's chisel, every nuance is deliberate.
  - Our journey is not just about reaching a destination, but about creating a masterpiece.
  - Tread carefully, for you're treading on dreams.
  -->

<!DOCTYPE svg PUBLIC "-//W3C//DTD SVG 1.1//EN" "http://www.w3.org/Graphics/SVG/1.1/DTD/svg11.dtd">
<!-- Creator: CorelDRAW 2021 (64-Bit) -->
<svg xmlns="http://www.w3.org/2000/svg" xml:space="preserve" width="1180px" height="1180px" version="1.1" style="shape-rendering:geometricPrecision; text-rendering:geometricPrecision; image-rendering:optimizeQuality; fill-rule:evenodd; clip-rule:evenodd"
viewBox="0 0 42.86 42.86"
 xmlns:xlink="http://www.w3.org/1999/xlink"
 xmlns:xodm="http://www.corel.com/coreldraw/odm/2003">
 <defs>
  <style type="text/css">
   <![CDATA[
    .fil1 {fill:none}
    .fil0 {fill:url(#id0)}
    .fil2 {fill:url(#id1);fill-rule:nonzero}
    .fil3 {fill:url(#id2);fill-rule:nonzero}
    .fil9 {fill:url(#id3);fill-rule:nonzero}
    .fil8 {fill:url(#id4);fill-rule:nonzero}
    .fil4 {fill:url(#id5);fill-rule:nonzero}
    .fil7 {fill:url(#id6);fill-rule:nonzero}
    .fil6 {fill:url(#id7);fill-rule:nonzero}
    .fil5 {fill:url(#id8);fill-rule:nonzero}
    .fil10 {fill:url(#id9);fill-rule:nonzero}
   ]]>
  </style>
  <linearGradient id="id0" gradientUnits="userSpaceOnUse" x1="7.74" y1="11.31" x2="35.16" y2="31.39">
   <stop offset="0" style="stop-opacity:1; stop-color:#E6E7E8"/>
   <stop offset="1" style="stop-opacity:1; stop-color:#FAFAFA"/>
  </linearGradient>
  <linearGradient id="id1" gradientUnits="userSpaceOnUse" x1="21.73" y1="18.04" x2="21.73" y2="21.85">
   <stop offset="0" style="stop-opacity:1; stop-color:#00ADFB"/>
   <stop offset="1" style="stop-opacity:1; stop-color:#3F3CED"/>
  </linearGradient>
  <linearGradient id="id2" gradientUnits="userSpaceOnUse" x1="21.73" y1="19.74" x2="21.73" y2="17.44">
   <stop offset="0" style="stop-opacity:0; stop-color:#00ADFB"/>
   <stop offset="1" style="stop-opacity:1; stop-color:#18CEFB"/>
  </linearGradient>
  <linearGradient id="id3" gradientUnits="userSpaceOnUse" xlink:href="#id1" x1="16.56" y1="23" x2="32.94" y2="34.1">
  </linearGradient>
  <linearGradient id="id4" gradientUnits="userSpaceOnUse" x1="23.22" y1="25.02" x2="22.27" y2="25.93">
   <stop offset="0" style="stop-opacity:0; stop-color:#3F3CED"/>
   <stop offset="1" style="stop-opacity:1; stop-color:#2F43BB"/>
  </linearGradient>
  <linearGradient id="id5" gradientUnits="userSpaceOnUse" xlink:href="#id4" x1="19.12" y1="21.46" x2="16.54" y2="19.8">
  </linearGradient>
  <linearGradient id="id6" gradientUnits="userSpaceOnUse" xlink:href="#id4" x1="20.17" y1="28.41" x2="21.25" y2="27.46">
  </linearGradient>
  <linearGradient id="id7" gradientUnits="userSpaceOnUse" xlink:href="#id2" x1="21.45" y1="27.48" x2="18.22" y2="25.62">
  </linearGradient>
  <linearGradient id="id8" gradientUnits="userSpaceOnUse" xlink:href="#id1" x1="20.47" y1="26.17" x2="24.43" y2="31.87">
  </linearGradient>
  <linearGradient id="id9" gradientUnits="userSpaceOnUse" xlink:href="#id2" x1="23.01" y1="27.53" x2="11.44" y2="21.63">
  </linearGradient>
 </defs>
 <g id="Layer_x0020_1">
  <metadata id="CorelCorpID_0Corel-Layer"/>
  <path class="fil0" d="M36.32 36.15l-2.17 -23.82c-0.05,-0.65 -0.6,-1.15 -1.26,-1.15l-3.82 0 0 -2.54c0,-2.05 -0.79,-3.97 -2.22,-5.4 -1.42,-1.42 -3.39,-2.23 -5.4,-2.23 -4.21,0 -7.63,3.42 -7.63,7.63l0 2.54 -3.81 0c-0.66,0 -1.21,0.5 -1.27,1.15l-2.16 23.81c-0.13,1.42 0.34,2.84 1.31,3.89 0.96,1.06 2.32,1.66 3.75,1.66l19.62 0c1.42,0 2.79,-0.6 3.75,-1.65 0.96,-1.06 1.44,-2.48 1.31,-3.89zm-9.79 -24.97l-10.17 0 0 -2.54c0,-2.81 2.28,-5.09 5.09,-5.09 1.34,0 2.66,0.54 3.6,1.48 0.96,0.96 1.48,2.24 1.48,3.61l0 2.54z"/>
  <rect class="fil1" width="42.86" height="42.86"/>
  <g id="_2501496641312">
   <path class="fil2" d="M24.93 18.3c-1.99,-1.11 -4.41,-1.11 -6.4,0 -0.75,0.41 -1.21,1.19 -1.21,2.04l0 1.31 1.21 -0.67c1.99,-1.11 4.41,-1.11 6.4,0l1.2 0.67 0 -1.31c0,-0.85 -0.46,-1.63 -1.2,-2.04z"/>
   <path class="fil3" d="M24.93 18.71c-1.99,-1.1 -4.41,-1.1 -6.4,0 -0.75,0.42 -1.21,1.2 -1.21,2.05l0 0.89 1.21 -0.67c1.99,-1.11 4.41,-1.11 6.4,0l1.2 0.67 0 -0.89c0,-0.85 -0.46,-1.63 -1.2,-2.05z"/>
   <path class="fil4" d="M17.64 19.17c-0.21,0.35 -0.32,0.76 -0.32,1.17l0 1.31 1.21 -0.67c0.2,-0.11 0.4,-0.21 0.61,-0.3l-1.5 -1.51z"/>
   <path class="fil5" d="M16.73 34.64l7.63 -8.62c0.63,-0.71 1.22,-1.52 1.63,-2.4 0.64,-1.35 0.63,-2.93 -0.07,-4.26 -0.03,-0.07 -0.07,-0.13 -0.1,-0.19 0.11,0.25 0.07,0.54 -0.11,0.74l-10.36 11.76c-0.07,0.08 -0.09,0.2 -0.05,0.3l0.93 2.57c0.07,0.22 0.35,0.27 0.5,0.1l0 0z"/>
   <path class="fil6" d="M24.36 26.02c0.63,-0.71 1.22,-1.52 1.63,-2.4 0.54,-1.13 0.61,-2.43 0.21,-3.6 0.02,0.18 -0.03,0.37 -0.16,0.52l-10.36 11.76c-0.07,0.08 -0.09,0.2 -0.05,0.3l0.76 2.12c0.11,0.04 0.25,0.02 0.34,-0.08l7.63 -8.62z"/>
   <polygon class="fil7" points="21.88,28.83 20.94,29.89 18.91,27.63 19.85,26.57 "/>
   <path class="fil8" d="M24.51 25.86c-0.05,0.05 -0.1,0.11 -0.15,0.16l-0.79 0.9 -2.04 -2.27 0.94 -1.06 2.04 2.27z"/>
   <path class="fil9" d="M26.72 34.64l-7.63 -8.62c-0.62,-0.71 -1.21,-1.52 -1.63,-2.4 -0.64,-1.35 -0.62,-2.93 0.07,-4.26 0.04,-0.07 0.07,-0.13 0.11,-0.19 -0.12,0.25 -0.07,0.54 0.11,0.74l10.35 11.76c0.07,0.08 0.09,0.2 0.06,0.3l-0.93 2.57c-0.08,0.22 -0.36,0.27 -0.51,0.1l0 0z"/>
   <path class="fil10" d="M28.1 31.67l-10.11 -11.49c-0.41,1.18 -0.34,2.49 0.2,3.64 0.42,0.87 1.01,1.69 1.63,2.39l7.4 8.36c0,-0.01 0,-0.02 0.01,-0.03l0.93 -2.57c0.03,-0.1 0.01,-0.22 -0.06,-0.3l0 0z"/>
  </g>
 </g>
</svg>
