<?xml version="1.0" encoding="UTF-8"?>


<!DOCTYPE svg PUBLIC "-//W3C//DTD SVG 1.0//EN" "http://www.w3.org/TR/2001/REC-SVG-20010904/DTD/svg10.dtd">

<svg xmlns="http://www.w3.org/2000/svg" xml:space="preserve" width="1180px" height="1180px" version="1.0" style="shape-rendering:geometricPrecision; text-rendering:geometricPrecision; image-rendering:optimizeQuality; fill-rule:evenodd; clip-rule:evenodd"
viewBox="0 0 46.88 46.88"
 xmlns:xlink="http://www.w3.org/1999/xlink"
 xmlns:xodm="http://www.corel.com/coreldraw/odm/2003">
 <defs>
  <style type="text/css">
   <![CDATA[
    .fil1 {fill:none}
    .fil8 {fill:#FEFEFE}
    .fil7 {fill:#FDB62F}
    .fil0 {fill:url(#id0)}
    .fil9 {fill:url(#id1)}
    .fil6 {fill:url(#id2)}
    .fil5 {fill:url(#id3)}
    .fil2 {fill:url(#id4)}
    .fil4 {fill:url(#id5)}
    .fil3 {fill:url(#id6)}
   ]]>
  </style>
  <linearGradient id="id0" gradientUnits="userSpaceOnUse" x1="8.46" y1="12.37" x2="38.46" y2="34.33">
   <stop offset="0" style="stop-opacity:1; stop-color:#E6E7E8"/>
   <stop offset="1" style="stop-opacity:1; stop-color:#FAFAFA"/>
  </linearGradient>
  <linearGradient id="id1" gradientUnits="userSpaceOnUse" x1="19.71" y1="26.97" x2="19.68" y2="25.86">
   <stop offset="0" style="stop-opacity:0; stop-color:#F92814"/>
   <stop offset="1" style="stop-opacity:1; stop-color:#C1272D"/>
  </linearGradient>
  <linearGradient id="id2" gradientUnits="userSpaceOnUse" x1="23.02" y1="28.27" x2="25.02" y2="31.36">
   <stop offset="0" style="stop-opacity:1; stop-color:#F9F7FC"/>
   <stop offset="1" style="stop-opacity:1; stop-color:#F0DDFC"/>
  </linearGradient>
  <linearGradient id="id3" gradientUnits="userSpaceOnUse" xlink:href="#id1" x1="28.77" y1="31.43" x2="25.1" y2="29.17">
  </linearGradient>
  <linearGradient id="id4" gradientUnits="userSpaceOnUse" x1="19.85" y1="25.51" x2="33.15" y2="38.77">
   <stop offset="0" style="stop-opacity:1; stop-color:#FF7044"/>
   <stop offset="1" style="stop-opacity:1; stop-color:#F92814"/>
  </linearGradient>
  <linearGradient id="id5" gradientUnits="userSpaceOnUse" xlink:href="#id4" x1="45.37" y1="645.17" x2="36.98" y2="636.81">
  </linearGradient>
  <linearGradient id="id6" gradientUnits="userSpaceOnUse" x1="22.44" y1="28.13" x2="17.77" y2="23.41">
   <stop offset="0" style="stop-opacity:0; stop-color:#FF7044"/>
   <stop offset="1" style="stop-opacity:1; stop-color:#FFA425"/>
  </linearGradient>
 </defs>
 <g id="Layer_x0020_1">
  <metadata id="CorelCorpID_0Corel-Layer"/>
  <g id="_2202367375872">
   <g>
    <g>
     <path class="fil0" d="M39.73 39.54l-2.37 -26.05c-0.06,-0.71 -0.66,-1.26 -1.38,-1.26l-4.18 0 0 -2.78c0,-2.24 -0.86,-4.34 -2.43,-5.91 -1.55,-1.55 -3.7,-2.44 -5.91,-2.44 -4.6,0 -8.34,3.75 -8.34,8.35l0 2.78 -4.17 0c-0.73,0 -1.33,0.55 -1.39,1.26l-2.37 26.05c-0.14,1.55 0.38,3.1 1.44,4.25 1.05,1.15 2.54,1.81 4.1,1.81l21.46 0c1.56,0 3.05,-0.66 4.11,-1.81 1.05,-1.15 1.57,-2.7 1.43,-4.25zm-10.71 -27.31l-11.12 0 0 -2.78c0,-3.07 2.49,-5.57 5.56,-5.57 1.47,0 2.91,0.59 3.94,1.63 1.05,1.04 1.62,2.44 1.62,3.94l0 2.78z"/>
    </g>
   </g>
   <g>
   </g>
   <g>
   </g>
   <g>
   </g>
   <g>
   </g>
   <g>
   </g>
   <g>
   </g>
   <g>
   </g>
   <g>
   </g>
   <g>
   </g>
   <g>
   </g>
   <g>
   </g>
   <g>
   </g>
   <g>
   </g>
   <g>
   </g>
   <g>
   </g>
  </g>
  <rect class="fil1" width="46.88" height="46.88"/>
  <g id="_2202367383232">
   <path class="fil2" d="M30.55 29.56c0,-3.69 -2.99,-6.68 -6.68,-6.68 -3.67,0 -6.64,2.94 -6.68,6.61 -0.03,2.78 1.64,5.17 4.02,6.2 0.4,0.18 0.75,0.46 0.99,0.82l1.2 1.76c0.23,0.34 0.72,0.34 0.95,0l1.19 -1.76c0.25,-0.36 0.59,-0.64 0.99,-0.82 2.37,-1.02 4.02,-3.38 4.02,-6.13l0 0z"/>
   <path class="fil3" d="M23.87 38.19c-0.04,0 -0.13,-0.01 -0.2,-0.11l-1.19 -1.76c-0.28,-0.41 -0.68,-0.73 -1.13,-0.93 -2.35,-1.02 -3.85,-3.33 -3.83,-5.89 0.02,-1.69 0.69,-3.27 1.88,-4.46 1.2,-1.18 2.78,-1.83 4.47,-1.83l0 0c3.5,0 6.35,2.85 6.35,6.35 0,2.53 -1.5,4.82 -3.83,5.83 -0.45,0.2 -0.84,0.52 -1.12,0.93l-1.2 1.76c-0.06,0.1 -0.16,0.11 -0.2,0.11l0 0z"/>
   <circle class="fil4" cx="23.87" cy="29.56" r="4.2"/>
   <path class="fil5" d="M30.55 29.56c0,2.75 -1.65,5.11 -4.02,6.13 -0.3,0.13 -0.56,0.32 -0.78,0.56l-4.2 -4.21c-0.62,-0.58 -1.02,-1.38 -1.07,-2.28l0 -2.61c0,0 -0.01,-0.01 -0.01,-0.01l0 -3.34c1,-0.58 2.16,-0.92 3.4,-0.92 3.69,0 6.68,2.99 6.68,6.68z"/>
   <circle class="fil6" cx="23.87" cy="29.56" r="3.4"/>
   <path class="fil7" d="M28.21 25.82c-0.26,0 -0.49,0.1 -0.66,0.27 -0.17,0.17 -0.28,0.41 -0.28,0.67l0 3c-0.1,1.79 -1.58,3.2 -3.4,3.2 -1.81,0 -3.29,-1.41 -3.39,-3.2l0 -3c0,-0.52 -0.43,-0.94 -0.95,-0.94 -0.57,0 -0.94,-0.47 -0.94,-0.95 0,-0.24 0.08,-0.47 0.27,-0.67l4.34 -4.34c0.37,-0.37 0.97,-0.37 1.34,0l4.34 4.34c0.6,0.6 0.18,1.62 -0.67,1.62l0 0z"/>
   <path class="fil8" d="M23.87 31.63c-1.24,0 -2.28,-1.01 -2.36,-2.29l0 -2.7c0,-0.81 -0.64,-1.48 -1.43,-1.48 -0.16,0 -0.22,-0.14 -0.22,-0.23 0,-0.06 0.03,-0.11 0.07,-0.15l3.79 -3.93c0.05,-0.06 0.12,-0.07 0.15,-0.07 0.04,0 0.1,0.01 0.16,0.07l3.79 3.93c0.09,0.09 0.06,0.19 0.04,0.24 -0.02,0.05 -0.07,0.14 -0.2,0.14 -0.38,0 -0.74,0.16 -1.01,0.44 -0.27,0.28 -0.42,0.65 -0.42,1.04l0 2.7c-0.08,1.28 -1.11,2.29 -2.36,2.29l0 0z"/>
   <path class="fil9" d="M20.48 26.76l0 0.39c0,0 -0.01,-0.01 -0.01,-0.01l-1.52 -1.52c0.15,0.12 0.35,0.2 0.58,0.2 0.52,0 0.95,0.42 0.95,0.94z"/>
  </g>
 </g>
</svg>
