<?xml version="1.0" encoding="UTF-8"?>
<!DOCTYPE svg PUBLIC "-//W3C//DTD SVG 1.1//EN" "http://www.w3.org/Graphics/SVG/1.1/DTD/svg11.dtd">
<!-- Creator: CorelDRAW 2019 (64-Bit) -->
<svg xmlns="http://www.w3.org/2000/svg" xml:space="preserve" width="820px" height="1120px" version="1.1" style="shape-rendering:geometricPrecision; text-rendering:geometricPrecision; image-rendering:optimizeQuality; fill-rule:evenodd; clip-rule:evenodd"
viewBox="0 0 41.72 56.98"
 xmlns:xlink="http://www.w3.org/1999/xlink"
 xmlns:xodm="http://www.corel.com/coreldraw/odm/2003">
 <defs>
  <style type="text/css">
   <![CDATA[
    .fil8 {fill:#304E75}
    .fil9 {fill:#3CA5AF}
    .fil3 {fill:#88ABBF}
    .fil1 {fill:#9E2D00}
    .fil4 {fill:#D6D6D6}
    .fil6 {fill:#EB6B24}
    .fil2 {fill:#FFA511}
    .fil7 {fill:#FFDC13}
    .fil5 {fill:white}
    .fil0 {fill:url(#id0)}
   ]]>
  </style>
  <linearGradient id="id0" gradientUnits="userSpaceOnUse" x1="1.66" y1="14.43" x2="40.07" y2="42.55">
   <stop offset="0" style="stop-opacity:1; stop-color:#E6E7E8"/>
   <stop offset="1" style="stop-opacity:1; stop-color:#FAFAFA"/>
  </linearGradient>
 </defs>
 <g id="Layer_x0020_1">
  <metadata id="CorelCorpID_0Corel-Layer"/>
  <g id="_2608087870144">
   <g>
    <g>
     <path class="fil0" d="M41.7 49.22l-3.04 -33.35c-0.08,-0.92 -0.85,-1.62 -1.77,-1.62l-5.35 0 0 -3.57c0,-2.86 -1.11,-5.54 -3.12,-7.56 -1.98,-1.98 -4.74,-3.12 -7.56,-3.12 -5.89,0 -10.68,4.79 -10.68,10.68l0 3.57 -5.35 0c-0.92,0 -1.69,0.7 -1.77,1.62l-3.03 33.34c-0.18,1.99 0.49,3.98 1.83,5.45 1.35,1.48 3.27,2.32 5.26,2.32l27.48 0c1.99,0 3.91,-0.84 5.26,-2.31 1.35,-1.48 2.01,-3.47 1.84,-5.45zm-13.72 -34.97l-14.24 0 0 -3.57c0,-3.92 3.19,-7.12 7.12,-7.12 1.89,0 3.72,0.76 5.04,2.08 1.35,1.34 2.08,3.13 2.08,5.04l0 3.57z"/>
    </g>
   </g>
   <g>
   </g>
   <g>
   </g>
   <g>
   </g>
   <g>
   </g>
   <g>
   </g>
   <g>
   </g>
   <g>
   </g>
   <g>
   </g>
   <g>
   </g>
   <g>
   </g>
   <g>
   </g>
   <g>
   </g>
   <g>
   </g>
   <g>
   </g>
   <g>
   </g>
  </g>
  <g id="_2608087876608">
   <polygon class="fil1" points="12.87,44.8 12.87,32.94 26.57,25.03 26.57,36.89 "/>
   <polygon class="fil2" points="15.73,46.43 12.3,44.46 26,36.55 29.42,38.53 "/>
   <polygon class="fil3" points="13.45,43.86 13.45,33.05 14.01,33.37 14.01,44.18 "/>
   <polygon class="fil4" points="13.45,33.05 25.89,25.81 26.5,26.14 14.01,33.37 "/>
   <polygon class="fil5" points="14.01,44.18 26.5,36.98 26.5,26.14 14.01,33.37 "/>
   <polygon class="fil3" points="14.26,44.32 14.26,33.51 14.83,33.83 14.83,44.64 "/>
   <polygon class="fil4" points="14.26,33.51 26.71,26.27 27.31,26.6 14.83,33.83 "/>
   <polygon class="fil5" points="14.83,44.64 27.31,37.44 27.31,26.6 14.83,33.83 "/>
   <polygon class="fil3" points="15.07,44.75 15.07,33.94 15.63,34.26 15.63,45.07 "/>
   <polygon class="fil4" points="15.07,33.94 27.52,26.7 28.12,27.03 15.63,34.26 "/>
   <polygon class="fil5" points="15.63,45.07 28.12,37.86 28.12,27.03 15.63,34.26 "/>
   <polygon class="fil2" points="15.73,46.43 15.73,38.53 22.57,34.57 22.57,30.62 29.42,26.64 29.42,38.53 "/>
   <polygon class="fil6" points="28.85,26.33 22.02,30.3 22.02,34.25 15.18,38.21 15.18,45.45 12.87,44.13 12.87,32.92 26.57,25.03 26,24.69 12.3,32.6 12.3,44.46 15.73,46.43 15.73,38.53 22.57,34.57 22.57,30.62 29.42,26.64 "/>
   <polygon class="fil7" points="22.02,30.3 22.57,30.62 29.42,26.64 28.85,26.33 "/>
   <polygon class="fil6" points="22.02,34.25 22.57,34.57 22.57,30.62 22.02,30.3 "/>
   <g>
    <polygon class="fil7" points="15.18,38.21 15.73,38.53 22.57,34.57 22.02,34.25 "/>
    <polygon class="fil7" points="12.3,32.6 12.87,32.92 26.57,25.03 26,24.69 "/>
   </g>
   <polygon class="fil8" points="17.1,32.75 17.1,29.33 18.59,28.47 18.75,28.6 18.75,31.79 17.27,32.66 "/>
   <polygon class="fil9" points="17.27,32.66 17.27,29.46 18.75,28.6 18.75,31.79 "/>
   <g>
   </g>
   <g>
   </g>
   <g>
   </g>
   <g>
   </g>
   <g>
   </g>
   <g>
   </g>
   <g>
   </g>
   <g>
   </g>
   <g>
   </g>
   <g>
   </g>
   <g>
   </g>
   <g>
   </g>
   <g>
   </g>
   <g>
   </g>
   <g>
   </g>
  </g>
 </g>
</svg>
