<?xml version="1.0" encoding="UTF-8"?>


<!DOCTYPE svg PUBLIC "-//W3C//DTD SVG 1.1//EN" "http://www.w3.org/Graphics/SVG/1.1/DTD/svg11.dtd">

<svg xmlns="http://www.w3.org/2000/svg" xml:space="preserve" width="820px" height="1120px" version="1.1" style="shape-rendering:geometricPrecision; text-rendering:geometricPrecision; image-rendering:optimizeQuality; fill-rule:evenodd; clip-rule:evenodd"
viewBox="0 0 29 39.61"
 xmlns:xlink="http://www.w3.org/1999/xlink"
 xmlns:xodm="http://www.corel.com/coreldraw/odm/2003"
 xmlns:svgjs="http://svgjs.com/svgjs">
 <defs>
  <style type="text/css">
   <![CDATA[
    .fil2 {fill:#689F38}
    .fil1 {fill:#8BC34A}
    .fil3 {fill:#FE9000}
    .fil4 {fill:#FEC007}
    .fil0 {fill:url(#id0)}
   ]]>
  </style>
  <linearGradient id="id0" gradientUnits="userSpaceOnUse" x1="1.15" y1="10.03" x2="27.85" y2="29.58">
   <stop offset="0" style="stop-opacity:1; stop-color:#E6E7E8"/>
   <stop offset="1" style="stop-opacity:1; stop-color:#FAFAFA"/>
  </linearGradient>
 </defs>
 <g id="Layer_x0020_1">
  <metadata id="CorelCorpID_0Corel-Layer"/>
  <g id="_2304914156896">
   <g>
    <g>
     <path class="fil0" d="M28.98 34.21l-2.11 -23.18c-0.05,-0.64 -0.59,-1.13 -1.23,-1.13l-3.71 0 0 -2.47c0,-1.99 -0.78,-3.86 -2.17,-5.26 -1.38,-1.38 -3.3,-2.17 -5.26,-2.17 -4.09,0 -7.43,3.33 -7.43,7.43l0 2.47 -3.71 0c-0.64,0 -1.18,0.49 -1.23,1.13l-2.11 23.18c-0.13,1.38 0.34,2.76 1.28,3.79 0.93,1.02 2.26,1.61 3.65,1.61l19.1 0c1.39,0 2.72,-0.59 3.65,-1.61 0.94,-1.03 1.41,-2.41 1.28,-3.79zm-9.53 -24.31l-9.9 0 0 -2.47c0,-2.73 2.22,-4.95 4.95,-4.95 1.31,0 2.59,0.52 3.51,1.44 0.93,0.93 1.44,2.18 1.44,3.51l0 2.47z"/>
    </g>
   </g>
   <g>
   </g>
   <g>
   </g>
   <g>
   </g>
   <g>
   </g>
   <g>
   </g>
   <g>
   </g>
   <g>
   </g>
   <g>
   </g>
   <g>
   </g>
   <g>
   </g>
   <g>
   </g>
   <g>
   </g>
   <g>
   </g>
   <g>
   </g>
   <g>
   </g>
  </g>
  <g id="_2304914165088">
   <g>
    <path class="fil1" d="M22.05 24.6c0,-4 -3.26,-7.26 -7.27,-7.26 -4,0 -7.26,3.26 -7.26,7.26 0,0.01 0,0.01 0,0.02 0,0.13 0.05,0.27 0.16,0.36l3.19 2.86c0.09,0.08 0.21,0.12 0.32,0.12 0.13,0 0.26,-0.05 0.35,-0.16 0.18,-0.2 0.16,-0.5 -0.03,-0.67l-3.02 -2.7c0.08,-0.59 0.59,-1.05 1.2,-1.05 0.68,0 1.22,0.55 1.22,1.22 0,0.26 0.22,0.48 0.48,0.48 0.26,0 0.48,-0.22 0.48,-0.48 0,-0.67 0.54,-1.22 1.22,-1.22 0.67,0 1.22,0.55 1.22,1.22 0,0.26 0.21,0.48 0.47,0.48 0.27,0 0.48,-0.22 0.48,-0.48 0,-0.67 0.55,-1.22 1.22,-1.22 0.67,0 1.22,0.55 1.22,1.22 0,0.26 0.22,0.48 0.48,0.48 0.26,0 0.48,-0.22 0.48,-0.48 0,-0.67 0.54,-1.22 1.22,-1.22 0.61,0 1.11,0.46 1.2,1.05l-3.02 2.7c-0.2,0.17 -0.21,0.47 -0.04,0.67 0.09,0.11 0.22,0.16 0.36,0.16 0.11,0 0.22,-0.04 0.31,-0.12l3.2 -2.86c0.1,-0.09 0.16,-0.23 0.15,-0.36 0,-0.01 0.01,-0.01 0.01,-0.02z" data-original="#fe5722"/>
    <path class="fil2" d="M14.78 17.34c-0.3,0 -0.6,0.02 -0.89,0.05 3.19,0.4 5.75,2.87 6.27,6.03 0.48,0.11 0.85,0.51 0.92,1.01l-3.02 2.7c-0.2,0.17 -0.21,0.47 -0.04,0.67 0.09,0.11 0.23,0.16 0.36,0.16 0.11,0 0.22,-0.04 0.31,-0.12l3.2 -2.86c0.1,-0.09 0.16,-0.23 0.15,-0.36 0,-0.01 0.01,-0.01 0.01,-0.02 0,-4 -3.26,-7.26 -7.27,-7.26z" data-original="#e54a19"/>
    <path class="fil2" d="M18.65 24.59c0,-4.07 -1.7,-7.25 -3.87,-7.25 -2.17,0 -3.87,3.19 -3.87,7.26 0,0.02 0,0.03 0.01,0.05 0,0.07 0.02,0.14 0.05,0.21l1.61 2.86c0.09,0.15 0.25,0.24 0.42,0.24 0.08,0 0.16,-0.02 0.23,-0.06 0.23,-0.13 0.31,-0.42 0.18,-0.65l-1.54 -2.73c0.05,-0.64 0.57,-1.14 1.21,-1.14 0.68,0 1.23,0.55 1.23,1.22 0,0.01 0,0.02 0,0.03 0,0 0,0 0,0l0 2.85c0,0.27 0.21,0.48 0.47,0.48 0.27,0 0.48,-0.21 0.48,-0.48l0 -2.85c0,-0.01 0,-0.02 0,-0.03 0,0 0,0 0,0 0,-0.67 0.55,-1.22 1.22,-1.22 0.65,0 1.17,0.51 1.21,1.14l-1.56 2.73c-0.13,0.22 -0.05,0.52 0.17,0.65 0.08,0.04 0.16,0.06 0.24,0.06 0.17,0 0.33,-0.09 0.42,-0.24l1.63 -2.85c0.05,-0.09 0.07,-0.19 0.06,-0.28z" data-original="#d74315"/>
    <path class="fil3" d="M18.38 27.01l-1.84 0c-0.26,0 -0.47,0.21 -0.47,0.47l0 4.56c0,0.26 0.21,0.47 0.47,0.47l1.84 0c0.26,0 0.47,-0.21 0.47,-0.47l0 -4.56c0,-0.26 -0.21,-0.47 -0.47,-0.47z" data-original="#fe9000"/>
    <path class="fil4" d="M16.88 27.15c-0.09,-0.09 -0.21,-0.14 -0.34,-0.14l-5.35 0c-0.26,0 -0.48,0.21 -0.48,0.47l0 4.56c0,0.26 0.22,0.47 0.48,0.47l5.35 0c0.26,0 0.48,-0.21 0.48,-0.47l0 -4.56c0,-0.12 -0.05,-0.24 -0.14,-0.33z" data-original="#fec007"/>
    <g>
    </g>
    <g>
    </g>
    <g>
    </g>
    <g>
    </g>
    <g>
    </g>
    <g>
    </g>
    <g>
    </g>
    <g>
    </g>
    <g>
    </g>
    <g>
    </g>
    <g>
    </g>
    <g>
    </g>
    <g>
    </g>
    <g>
    </g>
    <g>
    </g>
   </g>
  </g>
 </g>
</svg>
