<?xml version="1.0" encoding="UTF-8"?>
<!DOCTYPE svg PUBLIC "-//W3C//DTD SVG 1.1//EN" "http://www.w3.org/Graphics/SVG/1.1/DTD/svg11.dtd">
<!-- Creator: CorelDRAW 2019 (64-Bit) -->
<svg xmlns="http://www.w3.org/2000/svg" xml:space="preserve" width="820px" height="1120px" version="1.1" style="shape-rendering:geometricPrecision; text-rendering:geometricPrecision; image-rendering:optimizeQuality; fill-rule:evenodd; clip-rule:evenodd"
viewBox="0 0 56.28 76.86"
 xmlns:xlink="http://www.w3.org/1999/xlink"
 xmlns:xodm="http://www.corel.com/coreldraw/odm/2003"
 enable-background="new 0 0 50 50">
 <defs>
  <style type="text/css">
   <![CDATA[
    .fil2 {fill:#40545D}
    .fil1 {fill:#485F69}
    .fil6 {fill:#4BB5E7}
    .fil8 {fill:#56707B}
    .fil4 {fill:#778C95}
    .fil5 {fill:#CB4844}
    .fil3 {fill:#EE5550}
    .fil7 {fill:#F17572}
    .fil10 {fill:#FED44C}
    .fil9 {fill:#FEE182}
    .fil0 {fill:url(#id0)}
   ]]>
  </style>
  <linearGradient id="id0" gradientUnits="userSpaceOnUse" x1="2.23" y1="19.46" x2="54.05" y2="57.4">
   <stop offset="0" style="stop-opacity:1; stop-color:#E6E7E8"/>
   <stop offset="1" style="stop-opacity:1; stop-color:#FAFAFA"/>
  </linearGradient>
 </defs>
 <g id="Layer_x0020_1">
  <metadata id="CorelCorpID_0Corel-Layer"/>
  <g id="_2608096683056">
   <g>
    <g>
     <path class="fil0" d="M56.24 66.39l-4.1 -44.99c-0.11,-1.24 -1.14,-2.19 -2.39,-2.19l-7.2 0 0 -4.8c0,-3.86 -1.5,-7.48 -4.22,-10.2 -2.67,-2.67 -6.38,-4.21 -10.19,-4.21 -7.95,0 -14.41,6.47 -14.41,14.41l0 4.8 -7.21 0c-1.24,0 -2.28,0.95 -2.39,2.19l-4.09 44.98c-0.25,2.69 0.66,5.36 2.47,7.35 1.82,1.99 4.4,3.13 7.1,3.13l37.06 0c2.69,0 5.27,-1.14 7.09,-3.12 1.82,-1.99 2.72,-4.67 2.48,-7.35zm-18.5 -47.18l-19.21 0 0 -4.8c0,-5.3 4.31,-9.61 9.61,-9.61 2.54,0 5.02,1.02 6.8,2.8 1.81,1.82 2.8,4.23 2.8,6.81l0 4.8z"/>
    </g>
   </g>
   <g>
   </g>
   <g>
   </g>
   <g>
   </g>
   <g>
   </g>
   <g>
   </g>
   <g>
   </g>
   <g>
   </g>
   <g>
   </g>
   <g>
   </g>
   <g>
   </g>
   <g>
   </g>
   <g>
   </g>
   <g>
   </g>
   <g>
   </g>
   <g>
   </g>
  </g>
  <g id="_2608096679408">
   <g>
    <g>
     <g enable-background="new">
      <g>
       <path class="fil1" d="M33.8 61.28l-2.69 -1.85c-0.02,-0.01 -0.04,-0.03 -0.05,-0.04 -0.94,-0.81 -0.08,-3.18 -0.04,-3.3l2.69 1.84c-0.04,0.13 -0.9,2.5 0.04,3.3 0.02,0.02 0.03,0.03 0.05,0.05l0 0z"/>
      </g>
      <g>
       <path class="fil1" d="M30.85 53.64l2.69 1.85c0.44,0.3 0.85,1.02 0.17,2.44l-2.69 -1.84c0.68,-1.43 0.27,-2.15 -0.17,-2.45z"/>
      </g>
      <g>
       <path class="fil1" d="M32.87 55.24l-2.69 -1.85c-0.37,-0.25 -0.82,-1.15 -0.79,-2.03 0.01,-0.34 -0.1,-0.53 -0.26,-0.64l2.69 1.85c0.16,0.11 0.27,0.3 0.26,0.64 -0.02,0.87 0.42,1.78 0.79,2.03l0 0z"/>
      </g>
      <g>
       <path class="fil2" d="M28.26 50.65c-0.01,-0.02 -0.03,-0.03 -0.04,-0.05l2.69 1.85c0.01,0.01 0.03,0.03 0.04,0.05 -0.8,-0.56 -1.93,-1.2 -2.69,-1.85z"/>
      </g>
      <g>
       <path class="fil2" d="M28.22 50.6c0.14,-0.56 0.01,-1.34 -0.55,-2.02 0.89,0.61 1.79,1.23 2.69,1.84 0.56,0.69 0.69,1.46 0.55,2.03 -0.81,-0.56 -1.89,-1.29 -2.69,-1.85l0 0z"/>
      </g>
      <g>
       <path class="fil2" d="M27.67 48.58c-0.08,-0.1 -0.17,-0.17 -0.25,-0.23l2.69 1.84c0.09,0.06 0.17,0.14 0.25,0.23 -0.45,-0.3 -0.9,-0.61 -1.35,-0.92 -0.23,-0.16 -0.46,-0.32 -0.7,-0.48 -0.16,-0.11 -0.33,-0.22 -0.49,-0.34 -0.05,-0.03 -0.11,-0.06 -0.15,-0.1l0 0z"/>
      </g>
      <g>
       <path class="fil3" d="M29.68 53.12l-2.69 -1.85c-0.44,-0.3 -0.22,-1.12 -0.59,-1.46 -0.03,-0.02 -0.05,-0.04 -0.08,-0.06l2.69 1.85c0.03,0.02 0.06,0.04 0.08,0.06 0.38,0.34 0.15,1.15 0.59,1.46z"/>
      </g>
      <g>
       <polygon class="fil4" points="29.22,50.02 26.52,48.17 35.15,42.29 37.85,44.13 "/>
      </g>
      <g>
       <path class="fil3" d="M27.42 48.35l2.69 1.84c-0.27,-0.18 -0.58,-0.22 -0.89,-0.17 -0.52,0.07 -1.05,0.36 -1.44,0.63l-2.7 -1.85c0.4,-0.27 0.93,-0.56 1.44,-0.63 0.32,-0.05 0.63,-0.01 0.9,0.18l0 0z"/>
      </g>
      <g>
       <path class="fil2" d="M37.85 44.13c-0.17,1.96 0.15,3.49 0.38,3.67 0.35,0.28 0.56,1.89 0.73,4.58 0.17,2.69 -0.5,4.07 -1.34,5.39 -0.59,0.92 -1.79,2.65 -2.78,3.32 -0.42,0.29 -0.81,0.39 -1.09,0.14 -0.94,-0.8 -0.08,-3.17 -0.04,-3.3 0.96,-2.01 -0.26,-2.62 -0.65,-2.62 -0.39,0 -1.01,-1.07 -0.98,-2.1 0.04,-1.03 -1.07,-0.73 -1.13,-0.71 -0.01,-0.02 -0.03,-0.04 -0.04,-0.05 0.14,-0.57 0.01,-1.34 -0.55,-2.03 -0.31,-0.37 -0.72,-0.46 -1.14,-0.4l8.63 -5.89z"/>
      </g>
      <g>
       <path class="fil3" d="M27.15 51.14l-2.69 -1.85c0.01,-0.01 0.25,-0.23 0.62,-0.49l2.7 1.85c-0.38,0.26 -0.62,0.48 -0.63,0.49z"/>
      </g>
      <g>
       <path class="fil5" d="M27.78 50.65c0.39,-0.27 0.92,-0.56 1.44,-0.63 0.42,-0.06 0.83,0.03 1.14,0.4 0.56,0.69 0.69,1.46 0.55,2.03 -0.07,0.29 -0.22,0.53 -0.42,0.66 -0.13,0.09 -0.28,0.13 -0.45,0.12 -0.91,-0.07 -0.5,-1.16 -0.95,-1.57 -0.45,-0.41 -1.87,-0.52 -1.94,-0.52 0.01,-0.01 0.25,-0.23 0.63,-0.49z"/>
      </g>
     </g>
    </g>
    <g>
     <g>
      <path class="fil6" d="M26.37 52.72c0.06,0.15 0.09,0.3 0.09,0.42 0,0.17 -0.06,0.3 -0.15,0.36 -0.1,0.07 -0.25,0.05 -0.41,-0.04l-8.26 -4.76c-0.16,-0.1 -0.31,-0.26 -0.41,-0.44 -0.1,-0.18 -0.16,-0.37 -0.15,-0.53 0,-0.12 0.03,-0.23 0.08,-0.3 0.42,-0.53 0.63,-1.15 0.63,-1.89 0,-0.69 -0.18,-1.49 -0.57,-2.44 -0.07,-0.15 -0.1,-0.29 -0.1,-0.42 0,-0.16 0.06,-0.29 0.16,-0.35 0.09,-0.07 0.24,-0.06 0.4,0.03l8.27 4.77c0.15,0.09 0.3,0.26 0.4,0.43 0.1,0.18 0.16,0.38 0.16,0.54 0,0.12 -0.03,0.23 -0.1,0.31 -0.4,0.51 -0.61,1.14 -0.62,1.88 0,0.7 0.18,1.49 0.58,2.43l0 0z"/>
     </g>
     <path class="fil4" d="M28.76 51.33l-8.26 -4.77c-0.05,-0.02 -0.08,-0.07 -0.11,-0.12 0,-0.01 0,-0.02 -0.01,-0.03 -0.91,0.49 -2.08,1.12 -2.89,1.55l0 0c0,0.05 0.01,0.11 0.04,0.15 0.03,0.05 0.06,0.08 0.11,0.12l8.26 4.76c0.04,0.03 0.08,0.03 0.1,0.01l2.87 -1.66c-0.03,0.01 -0.06,0.01 -0.11,-0.01l0 0z"/>
     <g>
      <path class="fil2" d="M20.35 46.3l0.03 -0.08c0.44,-0.56 0.69,-1.25 0.69,-2.1 0,-0.79 -0.22,-1.71 -0.64,-2.73l-0.04 -0.13c0,-0.04 0.02,-0.07 0.05,-0.09l-2.87 1.66c-0.02,0.02 -0.04,0.05 -0.04,0.1l0.03 0.12c0.43,1.03 0.64,1.94 0.64,2.73 0,0.84 -0.24,1.54 -0.69,2.1l-0.02 0.09c0.81,-0.44 1.98,-1.06 2.89,-1.55 -0.01,-0.04 -0.03,-0.08 -0.03,-0.12l0 0z"/>
     </g>
     <g>
      <g enable-background="new">
       <g>
        <path class="fil7" d="M26.33 53.48l-0.02 0.02c-0.01,0 -0.01,0 -0.02,0l0.04 -0.02z"/>
       </g>
       <g>
        <g>
         <path class="fil8" d="M25.79 50.29c0,0.69 0.18,1.49 0.58,2.44 0.06,0.14 0.09,0.29 0.09,0.41 0,0.17 -0.06,0.3 -0.15,0.36 -0.1,0.07 -0.25,0.06 -0.41,-0.03l-8.26 -4.77c-0.17,-0.1 -0.31,-0.26 -0.41,-0.44 -0.1,-0.18 -0.15,-0.37 -0.15,-0.54 0,-0.11 0.03,-0.22 0.09,-0.29 0.41,-0.53 0.62,-1.15 0.62,-1.89 0,-0.69 -0.18,-1.49 -0.57,-2.43 -0.07,-0.16 -0.1,-0.3 -0.1,-0.42 0,-0.17 0.06,-0.3 0.16,-0.36 0.09,-0.07 0.24,-0.06 0.4,0.03l8.27 4.77c0.16,0.1 0.3,0.26 0.4,0.44 0.1,0.17 0.15,0.37 0.15,0.53 0,0.12 -0.02,0.23 -0.08,0.3 -0.41,0.53 -0.63,1.15 -0.63,1.89l0 0zm0.22 2.71c0.02,-0.01 0.04,-0.05 0.04,-0.1l-0.03 -0.12c-0.43,-1.03 -0.64,-1.94 -0.64,-2.73 0,-0.84 0.25,-1.54 0.69,-2.1l0.02 -0.08c0,-0.05 -0.01,-0.1 -0.04,-0.15 -0.03,-0.05 -0.06,-0.09 -0.11,-0.11l-8.26 -4.77c-0.05,-0.03 -0.08,-0.03 -0.1,-0.01 -0.03,0.01 -0.05,0.05 -0.05,0.09l0.03 0.13c0.43,1.02 0.64,1.94 0.64,2.73 0,0.84 -0.24,1.53 -0.69,2.1l-0.02 0.08c0,0.05 0.02,0.11 0.04,0.15 0.03,0.04 0.06,0.09 0.11,0.11l8.26 4.77c0.05,0.03 0.08,0.03 0.11,0.01l0 0zm0 0l0 0 0 0z"/>
        </g>
       </g>
      </g>
     </g>
     <g>
      <path class="fil1" d="M39.2 40.38c0.01,1.86 -2.42,7.17 -6.53,9.55 -1.3,0.75 -2.66,1.66 -4.02,2.21l0 -0.01 -2.32 1.35c0.08,-0.07 0.13,-0.19 0.13,-0.34 0,-0.12 -0.03,-0.27 -0.09,-0.42 -0.4,-0.94 -0.58,-1.73 -0.58,-2.43 0,-0.74 0.22,-1.37 0.63,-1.88 0.06,-0.08 0.09,-0.18 0.09,-0.31 0,-0.16 -0.06,-0.36 -0.16,-0.54 -0.1,-0.16 -0.25,-0.34 -0.41,-0.43l2.87 -1.67c1.35,-0.54 2.53,-1 3.84,-1.76 4.11,-2.38 6.54,-5.06 6.54,-6.91l0.01 3.59z"/>
     </g>
    </g>
    <g>
     <path class="fil4" d="M32.65 43.7c-1.3,0.76 -2.67,1.4 -4.02,1.96l-2.68 1.47 -8.27 -4.77c-0.15,-0.09 -0.3,-0.09 -0.4,-0.04 0,0 4.82,-3.25 6.12,-4 5.6,-3.24 12.23,-4.66 14.78,-3.17 2.56,1.48 0.08,5.31 -5.53,8.55z"/>
     <path class="fil8" d="M18.87 42.17c1.51,-1.01 4.04,-2.69 4.91,-3.19 3.85,-2.22 8.38,-3.66 11.55,-3.66 1.06,0 1.92,0.17 2.46,0.49 0.57,0.33 0.63,0.72 0.63,0.98 0,1.3 -1.92,3.81 -6.15,6.25 -1.19,0.69 -2.52,1.33 -3.93,1.91l-0.04 0.01 -2.34 1.29 -7.09 -4.08z"/>
    </g>
    <g>
     <g>
      <g enable-background="new">
       <g>
        <path class="fil4" d="M26.64 50.39c0,0.22 0.08,0.38 0.2,0.45l0.17 0.1c-0.13,-0.08 -0.21,-0.24 -0.21,-0.46 0,-0.44 0.32,-0.99 0.7,-1.21 0.2,-0.12 0.38,-0.13 0.51,-0.05l-0.16 -0.1c-0.13,-0.07 -0.31,-0.06 -0.51,0.05 -0.39,0.23 -0.71,0.77 -0.7,1.22l0 0z"/>
       </g>
       <g>
        <path class="fil8" d="M27.5 49.27c-0.38,0.22 -0.7,0.77 -0.7,1.21 0,0.45 0.32,0.63 0.71,0.41 0.39,-0.23 0.71,-0.77 0.7,-1.22 0,-0.45 -0.31,-0.63 -0.71,-0.4z"/>
       </g>
      </g>
     </g>
     <g>
      <g enable-background="new">
       <g>
        <path class="fil9" d="M26.94 50.45c0,0.19 0.07,0.32 0.18,0.39l0.32 0.18c-0.11,-0.06 -0.17,-0.19 -0.17,-0.38 -0.01,-0.38 0.26,-0.84 0.59,-1.03 0.17,-0.1 0.32,-0.11 0.43,-0.04l-0.32 -0.19c-0.11,-0.07 -0.26,-0.06 -0.43,0.04 -0.33,0.19 -0.6,0.65 -0.6,1.03l0 0z"/>
       </g>
       <g>
        <path class="fil10" d="M27.86 49.61c-0.33,0.19 -0.6,0.65 -0.59,1.03 0,0.38 0.27,0.53 0.6,0.34 0.33,-0.19 0.59,-0.65 0.59,-1.03 0,-0.38 -0.27,-0.54 -0.6,-0.34z"/>
       </g>
      </g>
     </g>
    </g>
    <g>
     <g>
      <g enable-background="new">
       <g>
        <path class="fil4" d="M28.87 49.28c0,0.23 0.07,0.38 0.2,0.45l0.16 0.1c-0.12,-0.07 -0.2,-0.23 -0.2,-0.45 -0.01,-0.45 0.31,-1 0.7,-1.22 0.2,-0.12 0.38,-0.13 0.51,-0.05l-0.17 -0.1c-0.13,-0.07 -0.31,-0.06 -0.5,0.05 -0.39,0.23 -0.71,0.77 -0.7,1.22l0 0z"/>
       </g>
       <g>
        <path class="fil8" d="M29.73 48.16c-0.39,0.22 -0.7,0.77 -0.7,1.22 0,0.44 0.32,0.62 0.71,0.4 0.39,-0.23 0.7,-0.77 0.7,-1.22 0,-0.45 -0.32,-0.63 -0.71,-0.4z"/>
       </g>
      </g>
     </g>
     <g>
      <g enable-background="new">
       <g>
        <path class="fil9" d="M29.17 49.34c0,0.19 0.07,0.33 0.17,0.39l0.33 0.19c-0.11,-0.07 -0.18,-0.2 -0.18,-0.39 0,-0.38 0.27,-0.84 0.6,-1.03 0.17,-0.1 0.32,-0.11 0.43,-0.04l-0.33 -0.19c-0.11,-0.06 -0.26,-0.05 -0.42,0.04 -0.33,0.19 -0.6,0.66 -0.6,1.03l0 0z"/>
       </g>
       <g>
        <path class="fil10" d="M30.09 48.5c-0.33,0.19 -0.6,0.65 -0.6,1.03 0,0.38 0.27,0.53 0.6,0.34 0.33,-0.19 0.6,-0.65 0.6,-1.03 0,-0.38 -0.27,-0.53 -0.6,-0.34z"/>
       </g>
      </g>
     </g>
    </g>
   </g>
  </g>
 </g>
</svg>
