<svg xmlns="http://www.w3.org/2000/svg" xml:space="preserve" width="464" height="464" style="shape-rendering:geometricPrecision;text-rendering:geometricPrecision;image-rendering:optimizeQuality;fill-rule:evenodd;clip-rule:evenodd" viewBox="0 0 8.72 8.72"><path d="M1.31 4.42c0-.09 0-.2.01-.28.01-.06.01-.12.02-.17.01-.11.03-.22.05-.32.11-.4.2-.6.4-.93.02-.03.05-.07.07-.11.12-.16.28-.37.44-.5l.07-.07c.2-.17.43-.31.66-.42.02-.02.04-.02.07-.03l.41-.16.47-.09c.11-.02.29-.03.42-.03.06 0 .13 0 .18.01.06.01.11.01.17.02.05 0 .11.01.16.02.03.01.06.01.08.02.38.09.55.15.89.34.1.05.2.11.29.18l.16.13c.07.06.13.12.2.18.21.22.39.46.53.73.06.1.1.19.14.3l.07.2c.02.05.03.1.05.15.03.12.06.27.07.4.02.14.02.25.02.39 0 .04.01.08 0 .12v.12c-.03.17-.03.25-.07.43-.04.17-.08.32-.14.48l-.25.5-.24.38c-.1.14-.21.28-.33.41-.03.05-.09.09-.12.13-.06.08-.23.23-.31.31l-.1.09-.03.03-.34.28c-.05.03-.09.07-.14.1l-.14.11q-.3.21-.6.39c-.11.06-.21.13-.32.18l-.16.09c-.07.03-.27.14-.34.16v-.84c0-.14 0-.21-.08-.34-.02-.04-.06-.08-.09-.12-.1-.09-.22-.13-.35-.18l-.22-.09-.27-.15c-.11-.07-.21-.14-.31-.22l-.12-.1c-.04-.03-.17-.16-.21-.2-.02-.03-.03-.04-.05-.06l-.1-.12c-.03-.03-.06-.07-.09-.11-.01-.03-.03-.04-.04-.07-.02-.02-.03-.03-.04-.06l-.08-.13q-.12-.195-.21-.42c-.02-.06-.04-.1-.06-.16-.01-.03-.01-.05-.02-.08-.01-.01-.01-.03-.01-.04l-.06-.21-.03-.18c-.02-.12-.03-.27-.03-.39M4.17 0h.32c.17.01.34.02.47.04l.22.03c.08.02.15.03.22.05.12.03.24.06.35.1.02.01.03.01.05.02.16.05.31.12.46.19l.17.09c.08.04.16.09.24.14l.24.16c.02.01.05.03.07.05l.29.23.13.13c.01.01.02.01.03.03.01.01.02.02.04.03l.18.2c.07.07.18.21.23.29a3.29 3.29 0 0 1 .39.64c.21.4.38.93.42 1.39.01.03.02.07.02.11 0 .03 0 .09.01.15v.59c-.01.06-.01.12-.01.15 0 .04-.01.08-.02.11 0 .05 0 .07-.01.12-.03.13-.05.28-.09.41l-.04.15c0 .02 0 .03-.01.05-.03.09-.06.18-.1.27-.05.15-.12.3-.19.44-.07.13-.15.27-.23.39l-.32.43c-.04.05-.08.09-.11.14l-.09.09h-.01c-.01.02-.01.02-.02.03l-.06.06s-.01 0-.01.01c-.07.05-.13.12-.2.17l-.13.12c-.09.07-.17.12-.26.18l-.35.22c-.18.11-.39.19-.6.27l-.18.06c-.02.01-.03.01-.05.02-.02 0-.02.01-.04.01-.04.01-.07.02-.1.03l-.11.02c-.07.02-.13.03-.2.05l-.32.05c-.05 0-.08.01-.12.01h-.75c-.1 0-.5-.06-.62-.1l-.25-.07c-.06-.02-.13-.03-.2-.06l-.18-.07c-.16-.06-.3-.13-.44-.2a3.3 3.3 0 0 1-.55-.36c-.05-.03-.1-.07-.15-.11l-.13-.12c-.03-.02-.05-.04-.07-.06-.03-.02-.05-.04-.07-.06-.13-.13-.26-.26-.37-.4-.06-.09-.13-.17-.19-.26-.01-.02-.02-.02-.02-.04L.6 6.58C.51 6.44.45 6.3.38 6.15c-.01-.01-.01-.01-.01-.02l-.03-.07c-.05-.12-.1-.25-.14-.38-.06-.16-.09-.34-.13-.51-.02-.09-.05-.36-.06-.45C0 4.57 0 4.41 0 4.26c0-.12 0-.21.02-.32l.02-.18c.02-.14.04-.25.07-.39s.08-.28.12-.42c.01-.02.01-.03.02-.05.06-.19.15-.37.24-.55.06-.12.13-.23.19-.34l.17-.23c.05-.07.18-.24.23-.3l.13-.13c.05-.06.11-.12.17-.17l.17-.16c.03-.02.05-.04.07-.06l.23-.17c.03-.02.05-.03.08-.05.14-.09.27-.18.42-.25l.04-.02c.07-.04.15-.08.23-.11l.19-.08c.08-.03.16-.05.24-.08.09-.03.22-.07.31-.09l.28-.05c.12-.03.23-.04.35-.05.06 0 .12-.01.18-.01" style="fill:#5ec9f1"/></svg>