<svg xmlns="http://www.w3.org/2000/svg" xml:space="preserve" viewBox="0 0 512.007 512.007"><path d="M64.004 192.007c-17.664 0-32 14.336-32 32v128c0 17.664 14.336 32 32 32s32-14.336 32-32v-128c0-17.664-14.336-32-32-32M448.004 192.007c-17.664 0-32 14.336-32 32v128c0 17.664 14.336 32 32 32s32-14.336 32-32v-128c0-17.664-14.336-32-32-32M128.004 385.863c0 17.664 14.336 32 32 32v62.144c0 17.664 14.336 32 32 32s32-14.336 32-32v-62.144h64v62.144c0 17.664 14.336 32 32 32s32-14.336 32-32v-62.144c17.664 0 32-14.336 32-32v-192h-256zM335.876 60.711l28.48-34.528c5.632-6.816 4.672-16.896-2.144-22.528-6.848-5.6-16.896-4.672-22.528 2.144l-31.136 37.728c-16.064-7.264-33.76-11.52-52.544-11.52-19.04 0-36.96 4.416-53.184 11.904L172.516 6.023c-5.536-6.88-15.584-8.032-22.496-2.496-6.88 5.536-8 15.584-2.496 22.496l28.096 35.136c-28.832 23.456-47.616 58.784-47.616 98.848h256c0-40.32-19.008-75.84-48.128-99.296m-111.872 51.296c-8.832 0-16-7.168-16-16s7.168-16 16-16 16 7.168 16 16-7.168 16-16 16m64 0c-8.832 0-16-7.168-16-16s7.168-16 16-16 16 7.168 16 16-7.168 16-16 16" style="fill:#8bc34a"/></svg>