<svg xmlns="http://www.w3.org/2000/svg" xmlns:xlink="http://www.w3.org/1999/xlink" width="256" height="256" preserveAspectRatio="xMidYMid"><defs><linearGradient id="h" x1="24.691%" x2="74.734%" y1="26.425%" y2="80.127%"><stop offset="0%" stop-color="#1A237E" stop-opacity=".2"/><stop offset="100%" stop-color="#1A237E" stop-opacity=".02"/></linearGradient><linearGradient id="j" x1="24.155%" x2="76.174%" y1="24.155%" y2="76.174%"><stop offset="0%" stop-color="#FFF" stop-opacity=".1"/><stop offset="100%" stop-color="#FFF" stop-opacity="0"/></linearGradient><linearGradient id="k" x1="41.172%" x2="58.444%" y1="30.969%" y2="47.661%"><stop offset="0%" stop-opacity=".2"/><stop offset="100%" stop-color="#D8D8D8" stop-opacity="0"/></linearGradient><linearGradient id="l" x1="41.172%" x2="63.155%" y1="30.969%" y2="52.181%"><stop offset="0%" stop-opacity=".2"/><stop offset="100%" stop-color="#D8D8D8" stop-opacity="0"/></linearGradient><path id="a" d="M250.874 115.64 140.36 5.126c-6.834-6.835-17.886-6.835-24.72 0L5.126 115.64c-6.835 6.834-6.835 17.886 0 24.72L115.64 250.874c6.834 6.835 17.886 6.835 24.72 0L250.874 140.36c6.835-6.834 6.835-17.886 0-24.72M128 157.083 98.917 128 128 98.917 157.083 128z"/><path id="c" d="M250.58 115.781 140.414 5.617c-6.812-6.812-17.829-6.812-24.641 0L5.609 115.781c-6.812 6.813-6.812 17.83 0 24.642l110.165 110.164c6.812 6.813 17.829 6.813 24.641 0L250.58 140.423c6.813-6.812 6.813-17.829 0-24.642m-122.486 41.312-28.99-28.99 28.99-28.991 28.991 28.99z"/><path id="e" d="M250.58 115.781 140.414 5.617c-6.812-6.812-17.829-6.812-24.641 0L5.609 115.781c-6.812 6.813-6.812 17.83 0 24.642l110.165 110.164c6.812 6.813 17.829 6.813 24.641 0L250.58 140.423c6.813-6.812 6.813-17.829 0-24.642m-122.486 41.312-28.99-28.99 28.99-28.991 28.991 28.99z"/><path id="g" d="M250.58 115.781 140.414 5.617c-6.812-6.812-17.829-6.812-24.641 0L5.609 115.781c-6.812 6.813-6.812 17.83 0 24.642l110.165 110.164c6.812 6.813 17.829 6.813 24.641 0L250.58 140.423c6.813-6.812 6.813-17.829 0-24.642m-122.486 41.312-28.99-28.99 28.99-28.991 28.991 28.99z"/></defs><g fill="none"><mask id="b" fill="#fff"><use xlink:href="#a"/></mask><g mask="url(#b)"><path fill="#4285F4" d="m250.58 115.781-40.587-40.586-28.99-28.99-52.909 52.907 28.991 28.99-28.99 28.99-52.908 52.909 40.587 40.586c6.812 6.813 17.829 6.813 24.641 0l40.587-40.586 28.99-28.99 40.587-40.588c6.813-6.812 6.813-17.829 0-24.642"/><path fill="#4FC3F7" d="M181.002 46.204 140.415 5.617c-6.812-6.812-17.829-6.812-24.641 0L75.187 46.204l-28.99 28.99-40.588 40.587c-6.812 6.813-6.812 17.83 0 24.642l40.587 40.587L75.186 210l52.908-52.907-28.99-28.99 28.99-28.991z"/><mask id="d" fill="#fff"><use xlink:href="#c"/></mask><path fill="#FFF" d="M115.774 7.067c6.812-6.813 17.829-6.813 24.641 0L250.58 117.23c3.19 3.189 4.929 7.392 5.074 11.596.145-4.638-1.45-9.422-5.074-13.046L140.415 5.617c-6.812-6.812-17.829-6.812-24.641 0L5.609 115.781C1.986 119.405.391 124.19.536 128.827c.145-4.204 1.885-8.407 5.073-11.596z" mask="url(#d)" opacity=".2"/><mask id="f" fill="#fff"><use xlink:href="#e"/></mask><path fill="#1A237E" d="M250.58 138.974 140.414 249.138c-6.812 6.813-17.829 6.813-24.641 0L5.609 138.974c-3.188-3.19-4.928-7.393-5.073-11.596-.145 4.638 1.45 9.422 5.073 13.045l110.165 110.164c6.812 6.813 17.829 6.813 24.641 0L250.58 140.423c3.624-3.623 5.219-8.262 5.074-13.045-.145 4.203-1.885 8.407-5.074 11.596" mask="url(#f)" opacity=".2"/><mask id="i" fill="#fff"><use xlink:href="#g"/></mask><path fill="url(#h)" d="M128.094 157.093 75.187 210l40.587 40.586c6.812 6.813 17.829 6.813 24.641 0l40.587-40.586z" mask="url(#i)"/><path fill="url(#j)" d="M250.58 115.781 140.414 5.617c-6.812-6.812-17.829-6.812-24.641 0L5.609 115.781c-6.812 6.813-6.812 17.83 0 24.642l110.165 110.164c6.812 6.813 17.829 6.813 24.641 0L250.58 140.423c6.813-6.812 6.813-17.829 0-24.642m-122.486 41.312-28.99-28.99 28.99-28.991 28.991 28.99z" mask="url(#i)"/><path d="M-11.06-11.052h278.309v278.309H-11.06z" mask="url(#i)"/><path fill="url(#k)" fill-opacity=".8" d="m128.582 157.33 22.256 22.225-54.861 50.975-20.292-20.293z" mask="url(#i)"/><path fill="url(#l)" fill-opacity=".8" d="m180.991 46.465 22.257 22.224-54.862 50.975-20.292-20.293z" mask="url(#i)"/></g></g></svg>