<svg xmlns="http://www.w3.org/2000/svg" xml:space="preserve" viewBox="0 0 494.046 494.046"><path d="M238.989 84.018c4.537-3.758 5.169-10.482 1.411-15.019a10.67 10.67 0 0 0-9.731-3.755C128.216 82.808 53.915 172.514 55.736 276.445c.04 8.742.653 17.472 1.835 26.133a10.67 10.67 0 0 0 9.28 9.195q.66.048 1.323 0a10.67 10.67 0 0 0 9.92-6.741 545.5 545.5 0 0 1 65.493-117.781 567.5 567.5 0 0 1 95.402-103.233M458.424 242.845c-10.537-76.605-62.266-141.247-134.699-168.32a10.67 10.67 0 0 0-10.56 1.92 570.5 570.5 0 0 0-55.253 55.019 10.668 10.668 0 0 0 7.019 17.707c38.101 3.456 71.317 37.525 83.904 84.523H183.352a10.67 10.67 0 0 0-8.768 4.587c-13.675 19.712-26.624 39.467-38.4 58.709a482 482 0 0 0-45.355 91.733 10.67 10.67 0 0 0 1.536 9.621q.263.392.576.747c36.517 56.005 98.648 90.01 165.504 90.581 84.889-.929 160.139-54.835 188.331-134.912 2.074-5.514-.715-11.665-6.229-13.739a10.7 10.7 0 0 0-3.755-.683h-88.533a10.67 10.67 0 0 0-9.557 5.931c-13.387 33.157-44.575 55.723-80.256 58.069-41.045 0-76.608-34.603-90.048-85.333h279.467a10.67 10.67 0 0 0 10.667-9.152 234 234 0 0 0 2.667-33.515 233 233 0 0 0-2.775-33.493" style="fill:#2196f3"/><path d="M399.522 10.312C364.514-14.947 297.805 6.984 225.4 67.485a589 589 0 0 0-99.115 107.221 567.6 567.6 0 0 0-68.032 122.453 9 9 0 0 0-.363 1.088c-34.133 85.547-33.323 157.056 2.133 182.336a75.84 75.84 0 0 0 39.403 13.461c2.392.019 4.78-.209 7.125-.683a22.38 22.38 0 0 0 15.424-10.389c2.997-5.024 1.389-11.524-3.605-14.571-6.571-4.011-26.56-16.256-7.403-72.811a467.3 467.3 0 0 1 43.349-87.467c11.669-18.944 24.405-38.4 37.824-57.728l15.083-21.205a1055 1055 0 0 1 66.709-83.627 549 549 0 0 1 53.141-52.971c40.299-34.539 58.048-33.813 63.787-32s9.728 8.107 12.096 18.539a10.517 10.517 0 0 0 11.371 8.256 10.67 10.67 0 0 0 9.664-10.091c1.558-39.486-12.437-58.174-24.469-66.984" style="fill:#ffc107"/></svg>