<svg xmlns="http://www.w3.org/2000/svg" xml:space="preserve" viewBox="0 0 512 512"><circle cx="256" cy="256" r="256" style="fill:#1da2f8"/><path d="M256 37.89a3.12 3.12 0 0 1-3.122-3.122V20.482a3.122 3.122 0 0 1 6.244 0v14.286A3.12 3.12 0 0 1 256 37.89M256 494.64a3.12 3.12 0 0 1-3.122-3.122v-14.286a3.122 3.122 0 0 1 6.244 0v14.286A3.12 3.12 0 0 1 256 494.64M217.58 41.252a3.12 3.12 0 0 1-3.072-2.581l-2.481-14.069a3.121 3.121 0 1 1 6.149-1.083l2.481 14.069a3.12 3.12 0 0 1-3.077 3.664M296.894 491.063a3.12 3.12 0 0 1-3.072-2.581l-2.481-14.069a3.12 3.12 0 0 1 2.532-3.616 3.12 3.12 0 0 1 3.617 2.533l2.481 14.068a3.12 3.12 0 0 1-3.077 3.665M180.334 51.232a3.12 3.12 0 0 1-2.933-2.055l-4.887-13.424a3.125 3.125 0 0 1 1.867-4.002 3.123 3.123 0 0 1 4 1.866l4.886 13.424a3.122 3.122 0 0 1-2.933 4.191M336.552 480.437a3.12 3.12 0 0 1-2.933-2.055l-4.886-13.424a3.122 3.122 0 0 1 5.866-2.136l4.887 13.424a3.125 3.125 0 0 1-2.934 4.191M145.387 67.53a3.12 3.12 0 0 1-2.707-1.562l-7.143-12.372a3.12 3.12 0 0 1 1.143-4.264 3.12 3.12 0 0 1 4.265 1.142l7.143 12.372a3.122 3.122 0 0 1-2.701 4.684M373.762 463.087a3.12 3.12 0 0 1-2.707-1.562l-7.143-12.372a3.12 3.12 0 0 1 1.143-4.264 3.12 3.12 0 0 1 4.265 1.142l7.143 12.372a3.122 3.122 0 0 1-2.701 4.684M113.796 89.648c-.89 0-1.776-.379-2.393-1.115L102.22 77.59a3.123 3.123 0 0 1 4.784-4.014l9.183 10.943a3.121 3.121 0 0 1-2.391 5.129M407.389 439.539c-.89 0-1.776-.379-2.393-1.115l-9.182-10.943a3.121 3.121 0 1 1 4.784-4.014l9.181 10.943a3.121 3.121 0 0 1-2.39 5.129M86.525 116.917a3.1 3.1 0 0 1-2.004-.73l-10.943-9.183a3.122 3.122 0 1 1 4.012-4.784l10.943 9.183a3.122 3.122 0 0 1-2.008 5.514M436.415 410.51a3.1 3.1 0 0 1-2.006-.73l-10.942-9.183a3.123 3.123 0 0 1 4.014-4.784l10.942 9.183a3.125 3.125 0 0 1 .385 4.399 3.12 3.12 0 0 1-2.393 1.115M64.404 148.506a3.1 3.1 0 0 1-1.558-.419l-12.372-7.143a3.122 3.122 0 1 1 3.122-5.406l12.372 7.143a3.122 3.122 0 0 1-1.564 5.825M459.961 376.881a3.1 3.1 0 0 1-1.558-.419l-12.371-7.143a3.122 3.122 0 1 1 3.122-5.406l12.371 7.143a3.122 3.122 0 0 1-1.564 5.825M48.11 183.457c-.355 0-.715-.061-1.067-.189l-13.425-4.886a3.122 3.122 0 0 1 2.134-5.868l13.425 4.886a3.122 3.122 0 0 1-1.067 6.057M477.315 339.674c-.355 0-.715-.061-1.069-.189l-13.424-4.886a3.122 3.122 0 0 1 2.138-5.868l13.424 4.886a3.122 3.122 0 0 1-1.069 6.057M38.131 220.706q-.27 0-.545-.048l-14.069-2.481a3.122 3.122 0 0 1 1.085-6.149l14.069 2.481a3.122 3.122 0 0 1-.54 6.197M487.942 300.02q-.27 0-.545-.048l-14.068-2.481a3.122 3.122 0 0 1 1.085-6.149l14.069 2.481a3.122 3.122 0 0 1-.541 6.197M34.767 259.122H20.482a3.122 3.122 0 0 1 0-6.244h14.285a3.122 3.122 0 0 1 0 6.244M491.519 259.122h-14.287a3.122 3.122 0 0 1 0-6.244h14.287a3.122 3.122 0 0 1 0 6.244M24.057 300.02a3.123 3.123 0 0 1-.54-6.197l14.069-2.481a3.121 3.121 0 1 1 1.085 6.149l-14.069 2.481a3 3 0 0 1-.545.048M473.867 220.706a3.123 3.123 0 0 1-.54-6.197l14.069-2.481a3.121 3.121 0 1 1 1.085 6.149l-14.068 2.481a3 3 0 0 1-.546.048M34.684 339.674a3.123 3.123 0 0 1-1.067-6.057l13.425-4.886a3.122 3.122 0 0 1 2.134 5.868l-13.425 4.886a3.1 3.1 0 0 1-1.067.189M463.891 183.457a3.123 3.123 0 0 1-1.069-6.057l13.424-4.886a3.123 3.123 0 0 1 2.138 5.868l-13.424 4.886a3.1 3.1 0 0 1-1.069.189M52.038 376.881a3.122 3.122 0 0 1-1.564-5.826l12.372-7.143a3.122 3.122 0 1 1 3.122 5.406l-12.372 7.143a3.1 3.1 0 0 1-1.558.42M447.597 148.506a3.122 3.122 0 0 1-1.564-5.826l12.371-7.143a3.122 3.122 0 1 1 3.122 5.406l-12.371 7.143a3.1 3.1 0 0 1-1.558.42M75.584 410.51a3.121 3.121 0 0 1-2.007-5.514l10.943-9.183a3.123 3.123 0 0 1 4.012 4.784l-10.943 9.183a3.1 3.1 0 0 1-2.005.73M425.476 116.917a3.122 3.122 0 0 1-2.008-5.514l10.942-9.183a3.124 3.124 0 0 1 4.014 4.784l-10.942 9.183c-.586.49-1.297.73-2.006.73M104.61 439.539a3.122 3.122 0 0 1-2.39-5.129l9.183-10.943a3.123 3.123 0 0 1 4.784 4.014l-9.183 10.943a3.12 3.12 0 0 1-2.394 1.115M398.204 89.648a3.122 3.122 0 0 1-2.39-5.129l9.182-10.943a3.123 3.123 0 0 1 4.784 4.014l-9.181 10.943a3.12 3.12 0 0 1-2.395 1.115M138.238 463.087a3.122 3.122 0 0 1-2.701-4.683l7.143-12.372a3.12 3.12 0 0 1 4.265-1.142 3.12 3.12 0 0 1 1.143 4.264l-7.143 12.372a3.12 3.12 0 0 1-2.707 1.561M366.613 67.53a3.122 3.122 0 0 1-2.701-4.683l7.143-12.372a3.117 3.117 0 0 1 4.265-1.142 3.12 3.12 0 0 1 1.143 4.264l-7.143 12.372a3.12 3.12 0 0 1-2.707 1.561M175.449 480.437a3.123 3.123 0 0 1-2.934-4.191l4.887-13.424a3.122 3.122 0 1 1 5.866 2.136l-4.886 13.424a3.12 3.12 0 0 1-2.933 2.055M331.666 51.232a3.122 3.122 0 0 1-2.933-4.191l4.886-13.424a3.122 3.122 0 0 1 5.867 2.136l-4.887 13.424a3.12 3.12 0 0 1-2.933 2.055M215.106 491.063q-.27 0-.545-.048a3.12 3.12 0 0 1-2.532-3.616l2.481-14.068a3.122 3.122 0 0 1 6.149 1.083l-2.481 14.069a3.125 3.125 0 0 1-3.072 2.58M294.42 41.252q-.27 0-.545-.048a3.12 3.12 0 0 1-2.532-3.616l2.481-14.069a3.122 3.122 0 0 1 6.149 1.083l-2.481 14.069a3.125 3.125 0 0 1-3.072 2.581M238.735 61.821a3.12 3.12 0 0 1-3.106-2.849l-3.265-37.321a3.12 3.12 0 0 1 2.838-3.382 3.115 3.115 0 0 1 3.381 2.838l3.265 37.321a3.12 3.12 0 0 1-3.113 3.393M276.523 493.744a3.12 3.12 0 0 1-3.106-2.849l-3.265-37.321a3.12 3.12 0 0 1 2.838-3.382 3.11 3.11 0 0 1 3.381 2.838l3.265 37.321a3.12 3.12 0 0 1-3.113 3.393M204.738 67.817c-1.379 0-2.64-.92-3.013-2.314l-9.697-36.187a3.12 3.12 0 0 1 2.207-3.823 3.114 3.114 0 0 1 3.823 2.207l9.697 36.187a3.12 3.12 0 0 1-3.017 3.93M316.955 486.615c-1.379 0-2.64-.92-3.013-2.314l-9.696-36.187a3.12 3.12 0 0 1 2.207-3.823 3.115 3.115 0 0 1 3.823 2.207l9.696 36.187a3.12 3.12 0 0 1-3.017 3.93M172.301 79.624a3.12 3.12 0 0 1-2.831-1.803l-15.833-33.954a3.122 3.122 0 1 1 5.658-2.638l15.833 33.954a3.122 3.122 0 0 1-2.827 4.441M355.536 472.574a3.12 3.12 0 0 1-2.831-1.803l-15.832-33.954a3.122 3.122 0 1 1 5.658-2.638l15.832 33.954a3.122 3.122 0 0 1-2.827 4.441M142.404 96.885a3.12 3.12 0 0 1-2.561-1.331l-21.489-30.689a3.122 3.122 0 1 1 5.116-3.581l21.489 30.689a3.124 3.124 0 0 1-2.555 4.912M391.091 452.047a3.12 3.12 0 0 1-2.561-1.331l-21.488-30.689a3.122 3.122 0 1 1 5.116-3.581l21.487 30.689a3.124 3.124 0 0 1-2.554 4.912M115.954 119.077a3.11 3.11 0 0 1-2.207-.914L87.256 91.671a3.122 3.122 0 0 1 4.415-4.415l26.491 26.491a3.122 3.122 0 0 1-2.208 5.33M422.537 425.658a3.11 3.11 0 0 1-2.207-.914l-26.491-26.491a3.122 3.122 0 0 1 4.415-4.415l26.491 26.491a3.122 3.122 0 0 1-2.208 5.329M93.76 145.523a3.1 3.1 0 0 1-1.788-.565L61.284 123.47a3.123 3.123 0 0 1 3.582-5.115l30.688 21.487a3.124 3.124 0 0 1-1.794 5.681M448.923 394.21a3.1 3.1 0 0 1-1.788-.565l-30.689-21.487a3.124 3.124 0 0 1-.767-4.348 3.124 3.124 0 0 1 4.349-.767l30.689 21.488a3.124 3.124 0 0 1 .767 4.348 3.12 3.12 0 0 1-2.561 1.331M76.5 175.421c-.442 0-.89-.094-1.317-.294L41.23 159.295a3.12 3.12 0 1 1 2.637-5.658l33.954 15.832a3.12 3.12 0 0 1-1.321 5.952M469.45 358.657c-.442 0-.891-.094-1.319-.294l-33.953-15.832a3.12 3.12 0 1 1 2.64-5.658l33.953 15.832a3.12 3.12 0 0 1 1.509 4.148 3.12 3.12 0 0 1-2.83 1.804M64.696 207.863a3 3 0 0 1-.81-.108l-36.188-9.696a3.12 3.12 0 0 1-2.207-3.823 3.115 3.115 0 0 1 3.823-2.207l36.188 9.696a3.12 3.12 0 0 1 2.207 3.823 3.125 3.125 0 0 1-3.013 2.315M483.494 320.079a3 3 0 0 1-.81-.108l-36.188-9.697a3.12 3.12 0 0 1-2.207-3.823 3.117 3.117 0 0 1 3.823-2.207l36.188 9.697a3.12 3.12 0 0 1 2.207 3.823 3.12 3.12 0 0 1-3.013 2.315M58.701 241.86q-.137 0-.276-.013l-37.321-3.265a3.12 3.12 0 0 1-2.837-3.382 3.12 3.12 0 0 1 3.382-2.838l37.321 3.265a3.12 3.12 0 0 1 2.837 3.382 3.12 3.12 0 0 1-3.106 2.851M490.626 279.649q-.136 0-.275-.013l-37.322-3.265a3.12 3.12 0 0 1-2.838-3.382 3.114 3.114 0 0 1 3.381-2.838l37.322 3.265a3.12 3.12 0 0 1 2.838 3.382 3.12 3.12 0 0 1-3.106 2.851M21.375 279.649a3.121 3.121 0 0 1-.269-6.231l37.321-3.265a3.107 3.107 0 0 1 3.382 2.838 3.12 3.12 0 0 1-2.837 3.382l-37.321 3.265a4 4 0 0 1-.276.011M453.298 241.86a3.12 3.12 0 0 1-.268-6.231l37.322-3.265c1.728-.162 3.23 1.122 3.381 2.838a3.12 3.12 0 0 1-2.838 3.382l-37.322 3.265a4 4 0 0 1-.275.011M28.505 320.079a3.12 3.12 0 0 1-.806-6.137l36.188-9.697a3.12 3.12 0 0 1 3.823 2.207 3.12 3.12 0 0 1-2.207 3.823l-36.188 9.697a3 3 0 0 1-.81.107M447.304 207.863a3.122 3.122 0 0 1-.806-6.137l36.188-9.696a3.12 3.12 0 0 1 3.823 2.207 3.12 3.12 0 0 1-2.207 3.823l-36.188 9.696a3.2 3.2 0 0 1-.81.107M42.549 358.657a3.12 3.12 0 0 1-1.32-5.952l33.954-15.832a3.12 3.12 0 1 1 2.637 5.658l-33.954 15.832a3.1 3.1 0 0 1-1.317.294M435.5 175.421a3.122 3.122 0 0 1-1.322-5.951l33.953-15.832a3.122 3.122 0 0 1 2.64 5.658l-33.953 15.832a3.1 3.1 0 0 1-1.318.293M63.078 394.21a3.122 3.122 0 0 1-1.794-5.679l30.688-21.488a3.122 3.122 0 1 1 3.582 5.115l-30.688 21.487a3.1 3.1 0 0 1-1.788.565M418.239 145.523a3.122 3.122 0 0 1-1.794-5.679l30.689-21.487a3.122 3.122 0 1 1 3.582 5.115l-30.689 21.487a3.1 3.1 0 0 1-1.788.564M89.464 425.658a3.122 3.122 0 0 1-2.207-5.329l26.491-26.491a3.122 3.122 0 0 1 4.415 4.415l-26.491 26.491c-.61.609-1.41.914-2.208.914M396.047 119.077a3.122 3.122 0 0 1-2.207-5.329l26.491-26.491a3.122 3.122 0 0 1 4.415 4.415l-26.491 26.491a3.13 3.13 0 0 1-2.208.914M120.909 452.047a3.124 3.124 0 0 1-2.555-4.913l21.489-30.689a3.124 3.124 0 0 1 4.349-.767 3.124 3.124 0 0 1 .767 4.348l-21.489 30.689a3.12 3.12 0 0 1-2.561 1.332M369.596 96.885a3.124 3.124 0 0 1-2.555-4.913l21.488-30.689a3.123 3.123 0 0 1 5.116 3.581l-21.487 30.689a3.12 3.12 0 0 1-2.562 1.332M156.464 472.574a3.12 3.12 0 0 1-2.828-4.442l15.833-33.954a3.12 3.12 0 1 1 5.658 2.638l-15.833 33.954a3.12 3.12 0 0 1-2.83 1.804M339.701 79.624a3.12 3.12 0 0 1-2.828-4.442l15.832-33.954a3.122 3.122 0 0 1 5.658 2.638L342.531 77.82a3.12 3.12 0 0 1-2.83 1.804M195.045 486.615a3.12 3.12 0 0 1-3.017-3.931l9.697-36.187a3.12 3.12 0 0 1 3.823-2.207 3.12 3.12 0 0 1 2.207 3.823l-9.697 36.187a3.12 3.12 0 0 1-3.013 2.315M307.263 67.817a3.12 3.12 0 0 1-3.017-3.931l9.696-36.187a3.11 3.11 0 0 1 3.823-2.207 3.12 3.12 0 0 1 2.207 3.823l-9.696 36.187a3.124 3.124 0 0 1-3.013 2.315M235.476 493.744q-.136 0-.275-.013a3.12 3.12 0 0 1-2.838-3.382l3.265-37.321a3.116 3.116 0 0 1 3.381-2.838 3.12 3.12 0 0 1 2.838 3.382l-3.265 37.321a3.12 3.12 0 0 1-3.106 2.851M273.264 61.821q-.136 0-.275-.013a3.12 3.12 0 0 1-2.838-3.382l3.265-37.321a3.106 3.106 0 0 1 3.381-2.838 3.12 3.12 0 0 1 2.838 3.382L276.37 58.97a3.12 3.12 0 0 1-3.106 2.851" style="fill:#f2f2f2"/><path d="M286.928 286.928 424.877 87.123 225.072 225.072 87.123 424.877z" style="fill:#f2f2f2"/><path d="M286.928 286.928 424.877 87.123 87.123 424.877z" style="fill:#ccc"/><path d="M286.928 286.928 424.877 87.123 225.072 225.072z" style="fill:#ff525d"/><path d="M286.928 286.928 424.877 87.123 256 256z" style="fill:#ef4152"/></svg>