<svg id="Layer_1" enable-background="new 0 0 512 512" height="512" viewBox="0 0 512 512" width="512" xmlns="http://www.w3.org/2000/svg"><g fill="#231f20"><path d="m256 68.5c-103.55 0-187.5 83.95-187.5 187.5s83.95 187.5 187.5 187.5 187.5-83.95 187.5-187.5-83.95-187.5-187.5-187.5zm-144.47 131.49c26.06 4.68 52.86-2.51 73.08-19.58 2.77-2.41 12.22 7.53 8.84 10.46-23.35 19.71-54.27 27.99-84.32 22.59-4.4-.84-1.21-14.17 2.4-13.47zm41.33 106.01c-17.26 0-31.25-13.99-31.25-31.25s13.99-31.25 31.25-31.25 31.25 13.99 31.25 31.25-13.99 31.25-31.25 31.25zm134.74 69.15c-33.18-8.76-65.23 1.03-85.38 15.2-7.49 5.47-21.61-14.27-14.08-19.7 30.51-21.51 69.77-28.52 105.81-18.84 9.5 2.66 2.54 25.7-6.35 23.34zm9.01-69.15c-17.26 0-31.25-13.99-31.25-31.25s13.99-31.25 31.25-31.25 31.25 13.99 31.25 31.25-13.99 31.25-31.25 31.25zm43.78-93.48c-30.07 5.4-61-2.89-84.32-22.59-3.39-2.93 6.06-12.89 8.82-10.46 20.23 17.08 47.02 24.26 73.07 19.58 3.62-.72 6.82 12.63 2.43 13.47z"/><path d="m354.05 291.03c0 53.6 72.85 53.61 72.84 0 0-39.15-36.41-77.34-36.41-77.34s-36.43 38.21-36.43 77.34z" stroke="#fff" stroke-linecap="round" stroke-linejoin="round" stroke-miterlimit="10" stroke-width="5"/></g></svg>