<svg id="Layer_1" enable-background="new 0 0 512 512" height="512" viewBox="0 0 512 512" width="512" xmlns="http://www.w3.org/2000/svg"><g fill="#231f20"><path d="m343.51 195.92c-3.02 4.49-4.8 9.89-4.8 15.71 0 15.54 12.6 28.12 28.12 28.12 15.54 0 28.12-12.59 28.12-28.12 0-2.26-.33-4.44-.84-6.55-14.97-5.52-32.18-8.82-50.6-9.16z"/><path d="m174.76 195.92c-3.02 4.49-4.8 9.89-4.8 15.71 0 15.54 12.6 28.12 28.12 28.12 15.54 0 28.12-12.59 28.12-28.12 0-2.26-.34-4.44-.84-6.55-14.97-5.52-32.18-8.82-50.6-9.16z"/><path d="m256 68.5c-103.55 0-187.5 83.95-187.5 187.5s83.95 187.5 187.5 187.5 187.5-83.95 187.5-187.5-83.95-187.5-187.5-187.5zm-153.12 168.75c0-10.23 2.29-19.91 6.31-28.64 17.62-8.01 39.14-12.77 62.44-12.77s44.82 4.76 62.45 12.77c4.01 8.72 6.3 18.41 6.3 28.64 0 37.97-30.77 68.75-68.75 68.75s-68.75-30.78-68.75-68.75zm196.38 136.4c-31.12-14.47-64.4-10.47-86.72-.06-8.33 4.06-18.76-17.84-10.39-21.88 33.81-15.8 73.71-15.79 107.48.08 8.86 4.28-2.03 25.73-10.37 21.86zm41.12-67.65c-37.98 0-68.75-30.78-68.75-68.75 0-10.23 2.29-19.91 6.31-28.64 17.62-8.01 39.14-12.77 62.44-12.77s44.82 4.76 62.45 12.77c4.01 8.72 6.3 18.41 6.3 28.64-.01 37.97-30.78 68.75-68.75 68.75z"/></g></svg>