<svg id="Layer_1" enable-background="new 0 0 512 512" height="512" viewBox="0 0 512 512" width="512" xmlns="http://www.w3.org/2000/svg"><path d="m256 68.5c-103.55 0-187.5 83.95-187.5 187.5s83.95 187.5 187.5 187.5 187.5-83.95 187.5-187.5-83.95-187.5-187.5-187.5zm73.97 109.38c17.26 0 31.25 13.99 31.25 31.25s-13.99 31.25-31.25 31.25-31.25-13.99-31.25-31.25 13.99-31.25 31.25-31.25zm-143.75 0c17.26 0 31.25 13.99 31.25 31.25s-13.99 31.25-31.25 31.25-31.25-13.99-31.25-31.25 13.99-31.25 31.25-31.25zm71.87 207.13c-71.18 0-106.25-45.75-106.25-91.19 0-5.02 2.95-11.3 11.39-12.91 21.64-4.14 53.64-8.39 94.86-8.39 41.24 0 73.22 4.26 94.88 8.39 8.42 1.61 11.39 7.89 11.39 12.91-.01 45.44-35.09 91.19-106.27 91.19z" fill="#231f20"/></svg>