<svg xmlns="http://www.w3.org/2000/svg" xml:space="preserve" viewBox="0 0 426.667 426.667"><path d="M261.333 245.333v-64c11.396 0 22.114-4.437 30.17-12.497 8.06-8.064 12.497-18.773 12.497-30.17s-4.437-22.114-12.501-30.174C283.443 100.437 272.73 96 261.333 96H58.667V32h202.667c28.493 0 55.279 11.098 75.422 31.241C356.907 83.392 368 110.178 368 138.667s-11.098 55.275-31.241 75.422c-20.147 20.147-46.933 31.244-75.426 31.244" style="fill:#fac917"/><path d="M261.333 394.667H58.667v-64h202.667c11.396 0 22.114-4.437 30.17-12.497C299.563 310.106 304 299.396 304 288s-4.437-22.114-12.501-30.174c-8.055-8.055-18.769-12.493-30.165-12.493H112v-64h149.333c28.493 0 55.279 11.098 75.422 31.241C356.907 232.725 368 259.511 368 288s-11.098 55.275-31.241 75.422c-20.147 20.147-46.933 31.245-75.426 31.245" style="fill:#fac917"/><path d="M80 64h64v298.667H80zM108.437 0h64v64h-64zM200.875 0h64v64h-64zM108.437 362.667h64v64h-64zM200.875 362.667h64v64h-64z" style="fill:#fac917"/></svg>