<svg xmlns="http://www.w3.org/2000/svg" xml:space="preserve" width="717" height="717" style="shape-rendering:geometricPrecision;text-rendering:geometricPrecision;image-rendering:optimizeQuality;fill-rule:evenodd;clip-rule:evenodd" version="1.0" viewBox="0 0 27.52 27.52"><defs><style>.fil0,.fil1{fill:#373435}.fil0{fill-rule:nonzero}</style></defs><g id="Layer_x0020_1"><g id="_2097110716672"><path d="M12.37 18.46a8.22 8.22 0 0 1-3.84-5.01c-.55-2.03-.31-4.28.83-6.25a8.18 8.18 0 0 1 5-3.85c2.04-.54 4.29-.31 6.26.83a8.23 8.23 0 0 1 3.02 11.26l-3.36-1.94a4.353 4.353 0 0 0-1.6-5.96 4.3 4.3 0 0 0-3.31-.44c-1.08.29-2.05.99-2.65 2.04a4.3 4.3 0 0 0-.44 3.31c.29 1.08.99 2.05 2.04 2.65z" class="fil0"/><path d="M15.74 9.19a8.24 8.24 0 0 1 3.84 5.01c.55 2.03.31 4.28-.82 6.25a8.22 8.22 0 0 1-5.01 3.85c-2.04.54-4.29.31-6.26-.83a8.24 8.24 0 0 1-3.85-5c-.54-2.04-.31-4.29.83-6.26l3.36 1.94a4.353 4.353 0 0 0 1.6 5.96c1.04.61 2.23.73 3.31.44s2.05-.99 2.65-2.04c.61-1.04.73-2.23.44-3.31a4.35 4.35 0 0 0-2.03-2.65z" class="fil0"/><path d="m19.798.203 1.252.723-2.35 4.071-1.252-.723zM21.684 1.292l1.252.723-2.35 4.07-1.252-.722zM7.603 21.326l1.252.723-2.35 4.07-1.252-.722zM9.49 22.415l1.25.723-2.35 4.07-1.251-.722z" class="fil1"/></g><path d="M0 0h27.52v27.52H0z" style="fill:none"/></g></svg>