<svg xmlns="http://www.w3.org/2000/svg" xmlns:xlink="http://www.w3.org/1999/xlink" xml:space="preserve" width="820" height="1120" style="shape-rendering:geometricPrecision;text-rendering:geometricPrecision;image-rendering:optimizeQuality;fill-rule:evenodd;clip-rule:evenodd" viewBox="0 0 36.95 50.46"><defs><linearGradient id="f" x1="1.47" x2="35.48" y1="12.78" y2="37.68" gradientUnits="userSpaceOnUse"><stop offset="0" style="stop-opacity:1;stop-color:#e6e7e8"/><stop offset="1" style="stop-opacity:1;stop-color:#fafafa"/></linearGradient><linearGradient id="d" x1="12.5" x2="7.99" y1="12.97" y2="8.46" gradientUnits="userSpaceOnUse"><stop offset="0" style="stop-opacity:0;stop-color:#c2cece"/><stop offset=".18" style="stop-opacity:.180392;stop-color:#afbcbc"/><stop offset="1" style="stop-opacity:1;stop-color:#5b6a6a"/></linearGradient><linearGradient id="a" x1="18.1" x2="18.1" y1="20.15" y2="-1.33" gradientUnits="userSpaceOnUse"><stop offset="0" style="stop-opacity:1;stop-color:white"/><stop offset="1" style="stop-opacity:1;stop-color:#e8efee"/></linearGradient><linearGradient id="H" x1="9.07" x2="9.57" y1="10.36" y2="10.92" gradientUnits="userSpaceOnUse"><stop offset="0" style="stop-opacity:0;stop-color:#ffc200"/><stop offset=".2" style="stop-opacity:.203922;stop-color:#fb0"/><stop offset=".502" style="stop-opacity:.498039;stop-color:#ffa700"/><stop offset=".851" style="stop-opacity:.85098;stop-color:#f80"/><stop offset="1" style="stop-opacity:1;stop-color:#ff7800"/></linearGradient><linearGradient id="b" x1="15.4" x2="10.73" y1="5.68" y2="1.01" gradientUnits="userSpaceOnUse"><stop offset="0" style="stop-opacity:0;stop-color:#008bf2"/><stop offset="1" style="stop-opacity:1;stop-color:#0046e2"/></linearGradient><linearGradient id="c" x1="24.69" x2="24.69" y1="3.8" y2="7" gradientUnits="userSpaceOnUse"><stop offset="0" style="stop-opacity:1;stop-color:#ffcf95"/><stop offset=".431" style="stop-opacity:1;stop-color:#ffc954"/><stop offset="1" style="stop-opacity:1;stop-color:#ffc200"/></linearGradient><linearGradient xlink:href="#a" id="g" x1="18.1" x2="18.1" y1=".57" y2="16.16" gradientUnits="userSpaceOnUse"/><linearGradient xlink:href="#b" id="x" x1="26.78" x2="23.53" y1="9.43" y2="6.17" gradientUnits="userSpaceOnUse"/><linearGradient xlink:href="#b" id="E" x1="19.95" x2="13.71" y1="18.17" y2="11.93" gradientUnits="userSpaceOnUse"/><linearGradient xlink:href="#b" id="D" x1="19.51" x2="13.27" y1="18.62" y2="12.37" gradientUnits="userSpaceOnUse"/><linearGradient xlink:href="#c" id="G" x1="13.98" x2="15.61" y1="7.95" y2="11.8" gradientUnits="userSpaceOnUse"/><linearGradient xlink:href="#b" id="t" x1="14.55" x2="10.36" y1="10.84" y2="6.69" gradientUnits="userSpaceOnUse"/><linearGradient xlink:href="#b" id="w" x1="26.84" x2="23.18" y1="10.96" y2="7.25" gradientUnits="userSpaceOnUse"/><linearGradient xlink:href="#b" id="z" x1="23.22" x2="16.97" y1="14.91" y2="8.66" gradientUnits="userSpaceOnUse"/><linearGradient xlink:href="#b" id="A" x1="21.61" x2="15.36" y1="16.52" y2="10.28" gradientUnits="userSpaceOnUse"/><linearGradient xlink:href="#d" id="y" x1="20.92" x2="15.72" y1="14.84" y2="9.63" gradientUnits="userSpaceOnUse"/><linearGradient xlink:href="#b" id="F" x1="12.14" x2="10.4" y1="12.05" y2="10.31" gradientUnits="userSpaceOnUse"/><linearGradient xlink:href="#b" id="C" x1="24.95" x2="18.7" y1="13.18" y2="6.93" gradientUnits="userSpaceOnUse"/><linearGradient xlink:href="#b" id="u" x1="22.29" x2="19.43" y1="3.67" y2=".85" gradientUnits="userSpaceOnUse"/><linearGradient xlink:href="#d" id="v" x1="26.47" x2="22.74" y1="8.62" y2="4.84" gradientUnits="userSpaceOnUse"/><linearGradient xlink:href="#b" id="B" x1="22.69" x2="16.49" y1="15.39" y2="9.19" gradientUnits="userSpaceOnUse"/><radialGradient id="e" cx="19.1" cy="35.2" r="10.52" fx="19.1" fy="35.2" gradientTransform="matrix(6.11992 0 0 -6.12007 -98 251)" gradientUnits="userSpaceOnUse"><stop offset="0" style="stop-opacity:1;stop-color:#00a6f9"/><stop offset=".251" style="stop-opacity:1;stop-color:#00a0f7"/><stop offset=".58" style="stop-opacity:1;stop-color:#0091f0"/><stop offset=".929" style="stop-opacity:1;stop-color:#0077e4"/><stop offset="1" style="stop-opacity:1;stop-color:#0071e2"/></radialGradient><radialGradient xlink:href="#e" id="s" cx="15.71" cy="35.2" r="10.52" fx="15.71" fy="35.2" gradientTransform="matrix(6.12 0 0 -6.12005 -80 251)" gradientUnits="userSpaceOnUse"/><radialGradient xlink:href="#e" id="i" cx="15.71" cy="27.34" r="10.52" fx="15.71" fy="27.34" gradientTransform="matrix(6.12 0 0 -6.12007 -80 195)" gradientUnits="userSpaceOnUse"/><radialGradient id="h" cx="18.31" cy="30.33" r="47.47" fx="18.31" fy="30.33" gradientTransform="matrix(1.23035 0 0 -1.23035 -4 68)" gradientUnits="userSpaceOnUse"><stop offset="0" style="stop-opacity:0;stop-color:white"/><stop offset=".478" style="stop-opacity:.482353;stop-color:#fdfdfd"/><stop offset=".651" style="stop-opacity:.654902;stop-color:#f6f7f7"/><stop offset=".78" style="stop-opacity:.780392;stop-color:#ebedec"/><stop offset=".878" style="stop-opacity:.878431;stop-color:#dadddd"/><stop offset=".961" style="stop-opacity:.964706;stop-color:#c4cac9"/><stop offset="1" style="stop-opacity:1;stop-color:#b8bfbe"/></radialGradient><radialGradient xlink:href="#e" id="p" cx="20.61" cy="27.4" r="13.04" fx="20.61" fy="27.4" gradientTransform="matrix(4.93897 0 0 -4.93898 -81 163)" gradientUnits="userSpaceOnUse"/><radialGradient xlink:href="#e" id="q" cx="20.61" cy="29.44" r="13.04" fx="20.61" fy="29.44" gradientTransform="matrix(4.93893 0 0 -4.93893 -81 175)" gradientUnits="userSpaceOnUse"/><radialGradient xlink:href="#e" id="l" cx="15.77" cy="27.38" r="18.09" fx="15.77" fy="27.38" gradientTransform="matrix(3.55941 0 0 -3.55942 -40 125)" gradientUnits="userSpaceOnUse"/><radialGradient xlink:href="#e" id="k" cx="15.77" cy="30.05" r="18.09" fx="15.77" fy="30.05" gradientTransform="matrix(3.55938 0 0 -3.55939 -40 137)" gradientUnits="userSpaceOnUse"/><radialGradient xlink:href="#e" id="r" cx="15.7" cy="29.44" r="13.04" fx="15.7" fy="29.44" gradientTransform="matrix(4.93862 0 0 -4.93861 -62 175)" gradientUnits="userSpaceOnUse"/><radialGradient xlink:href="#e" id="j" cx="19.11" cy="27.34" r="10.52" fx="19.11" fy="27.34" gradientTransform="matrix(6.12049 0 0 -6.1206 -98 195)" gradientUnits="userSpaceOnUse"/><radialGradient xlink:href="#e" id="n" cx="15.74" cy="27.32" r="14.38" fx="15.74" fy="27.32" gradientTransform="matrix(4.47647 0 0 -4.47651 -55 150)" gradientUnits="userSpaceOnUse"/><radialGradient xlink:href="#e" id="m" cx="15.74" cy="34.53" r="14.38" fx="15.74" fy="34.53" gradientTransform="matrix(4.47647 0 0 -4.47651 -55 189)" gradientUnits="userSpaceOnUse"/><radialGradient xlink:href="#e" id="o" cx="15.7" cy="27.4" r="13.04" fx="15.7" fy="27.4" gradientTransform="matrix(4.93861 0 0 -4.93861 -62 163)" gradientUnits="userSpaceOnUse"/></defs><path d="m36.92 43.58-2.69-29.53c-.07-.81-.75-1.44-1.57-1.44h-4.73V9.46a9.4 9.4 0 0 0-2.76-6.69A9.54 9.54 0 0 0 18.47 0c-5.21 0-9.46 4.24-9.46 9.46v3.15H4.28c-.82 0-1.5.63-1.57 1.44L.03 43.58a6.31 6.31 0 0 0 6.28 6.88h24.33c1.76 0 3.46-.75 4.65-2.05a6.32 6.32 0 0 0 1.63-4.83M24.78 12.61H12.16V9.46c0-3.48 2.83-6.31 6.31-6.31 1.67 0 3.3.67 4.47 1.84a6.28 6.28 0 0 1 1.84 4.47z" style="fill:url(#f)"/><circle cx="19.1" cy="31.49" r="9.66" style="fill:url(#a)"/><circle cx="19.1" cy="31.49" r="9.39" style="fill:url(#g)"/><path d="M22.4 22.7c.39 1.02.6 2.13.6 3.3 0 5.18-4.21 9.39-9.39 9.39-1.16 0-2.28-.22-3.3-.6a9.385 9.385 0 0 0 8.79 6.09c5.19 0 9.39-4.21 9.39-9.39 0-4.03-2.53-7.46-6.09-8.79" style="fill:url(#h)"/><path d="M15.46 26.22c.14-.43.29-.85.46-1.23.34-.77.73-1.4 1.16-1.87a8.6 8.6 0 0 0-4.03 2.24c.71.36 1.53.65 2.41.86" style="fill:url(#i)"/><path d="M25.15 25.36c-.39.2-.81.38-1.25.53q-.555.195-1.17.33c-.13-.43-.28-.85-.45-1.23-.34-.77-.73-1.4-1.16-1.87h.01c1.54.37 2.93 1.16 4.02 2.24" style="fill:url(#j)"/><path d="M22.56 31.94h-6.92c.02 1.34.19 2.62.46 3.77.96-.17 1.97-.26 3-.26s2.04.09 3 .26c.27-1.15.43-2.43.46-3.77" style="fill:url(#k)"/><path d="M22.1 27.27c-.96.17-1.97.26-3 .26s-2.04-.09-3-.26c-.27 1.15-.44 2.43-.46 3.77h6.92c-.03-1.34-.19-2.62-.46-3.77" style="fill:url(#l)"/><path d="M16.34 36.57c.12.38.25.73.4 1.06.65 1.5 1.51 2.35 2.36 2.35.84 0 1.7-.85 2.36-2.35.14-.33.28-.68.39-1.06-.87-.15-1.8-.22-2.75-.22s-1.88.07-2.76.22" style="fill:url(#m)"/><path d="M21.85 26.4c-.11-.37-.25-.72-.39-1.06-.66-1.49-1.52-2.35-2.36-2.35-.85 0-1.71.86-2.36 2.35-.15.34-.28.69-.4 1.06.88.15 1.81.23 2.76.23s1.88-.08 2.75-.23" style="fill:url(#n)"/><path d="M15.23 27.09c-.13.54-.24 1.12-.32 1.71-.1.72-.15 1.47-.17 2.24H10.5c.09-1.82.75-3.49 1.81-4.84l.12-.15c.05.02.09.05.14.08.79.4 1.68.72 2.66.96" style="fill:url(#o)"/><path d="M22.73 36.75c-.13.44-.28.86-.45 1.24-.34.77-.73 1.4-1.16 1.87a8.53 8.53 0 0 0 4.03-2.25c-.71-.36-1.53-.65-2.42-.86" style="fill:url(#e)"/><path d="M25.63 26.12c-.79.41-1.69.73-2.66.97.29 1.21.46 2.55.49 3.95h4.24a8.6 8.6 0 0 0-1.93-4.99c-.05.02-.09.05-.14.07" style="fill:url(#p)"/><path d="M23.46 31.94c-.03 1.4-.2 2.74-.49 3.95.97.24 1.87.56 2.66.96.05.03.09.05.14.08a8.6 8.6 0 0 0 1.93-4.99z" style="fill:url(#q)"/><path d="M15.23 35.89c-.42.1-.82.22-1.21.35-.51.18-1 .38-1.45.61-.05.03-.09.05-.14.08a8.56 8.56 0 0 1-1.84-4.12q-.06-.435-.09-.87h4.24c.03 1.4.2 2.74.49 3.95" style="fill:url(#r)"/><path d="M15.92 37.99c-.17-.38-.32-.8-.46-1.24-.88.21-1.7.5-2.41.86a8.53 8.53 0 0 0 4.03 2.25c-.43-.47-.82-1.1-1.16-1.87" style="fill:url(#s)"/><path d="M15.23 27.09c-.13.54-.24 1.12-.32 1.71l-2.6-2.6.12-.15c.05.02.09.05.14.08.79.4 1.68.72 2.66.96" style="fill:url(#b)"/><path d="M15.23 35.89c-.42.1-.82.22-1.21.35l-3.43-3.43q-.06-.435-.09-.87h4.24c.03 1.4.2 2.74.49 3.95" style="fill:url(#t)"/><path d="M23.9 25.89q-.555.195-1.17.33c-.13-.43-.28-.85-.45-1.23-.34-.77-.73-1.4-1.16-1.87h.01z" style="fill:url(#u)"/><path d="M28.49 31.49c0-1.44-.32-2.8-.9-4.01-.38.34-.93.78-1.69 1.3-.71.48-1.22 1-2.11 1.51a.52.52 0 0 0-.19.71c.04.07.08.12.13.16l4.01 4.01c.48-1.13.75-2.38.75-3.68" style="fill:url(#v)"/><path d="M24.51 31.94h3.19c-.05.92-.24 1.8-.56 2.63z" style="fill:url(#w)"/><path d="M27.7 31.04h-4.08c0-.01-.01-.02-.02-.04a.52.52 0 0 1 .19-.71c.89-.51 1.4-1.03 2.11-1.51.42-.29.77-.55 1.07-.78.42.94.67 1.96.73 3.04" style="fill:url(#x)"/><path d="M29.39 26.03c-.33-.7-1.32-.68-1.65-.67-.32.01-.68.04-1.09.11.24.31.47.63.68.96.36-.03.62-.04.8-.02.16.02.24.2.15.33-.1.14-.26.32-.49.55-.38.37-.98.87-1.89 1.49-.71.48-1.22 1-2.11 1.51a.52.52 0 0 0-.19.71c.14.25.46.34.71.2 1.04-.6 1.68-1.2 2.47-1.76.57-.4 1.05-.78 1.44-1.13.24-.21.44-.4.61-.59.17-.2.65-.73.65-1.29 0-.14-.03-.27-.09-.4" style="fill:url(#c)"/><path d="M27.52 35.64a9.38 9.38 0 0 1-8.42 5.24c-3.34 0-6.27-1.75-7.94-4.37-.19-.31-.37-.63-.53-.96.29-.06.62-.13.99-.23l.13-.03c.06-.02.11-.03.16-.05 2.06-.56 4.63-1.53 7.23-2.73.38-.18.76-.36 1.13-.54l-.54-1.07c-.11-.22.07-.47.31-.43l2.78.51c.01 0 .02 0 .03.01.01 0 .02 0 .02.01.01 0 .02 0 .03.01h.01c.01.01.01.01.02.01 0 .01.01.01.01.01l.03.03c.01 0 .01.01.01.01.02.02.03.03.04.05.01.01.02.03.02.04z" style="fill:url(#y)"/><path d="M19.1 35.45c1.03 0 2.04.09 2.99.26.28-1.15.44-2.43.47-3.77h-2.31l.02.03c-.37.18-.75.36-1.13.54-1.14.53-2.27 1.01-3.36 1.43.08.62.19 1.21.32 1.77.96-.17 1.97-.26 3-.26" style="fill:url(#z)"/><path d="M21.85 36.57c-.87-.15-1.8-.22-2.75-.22s-1.88.07-2.76.22c.12.38.25.73.4 1.06.65 1.5 1.51 2.35 2.36 2.35.84 0 1.71-.85 2.36-2.35.14-.33.28-.68.39-1.06" style="fill:url(#A)"/><path d="M22.28 37.99c-.34.77-.73 1.4-1.16 1.87a8.53 8.53 0 0 0 4.03-2.25c-.71-.36-1.53-.65-2.42-.86-.13.44-.28.86-.45 1.24" style="fill:url(#B)"/><path d="M23.82 31.94h-.36c-.03 1.4-.2 2.74-.49 3.95.97.24 1.87.56 2.66.96.05.03.09.05.14.08.47-.57.86-1.2 1.17-1.87z" style="fill:url(#C)"/><path d="M15.46 36.75c-.88.21-1.7.5-2.41.86a8.53 8.53 0 0 0 4.03 2.25c-.43-.47-.82-1.1-1.16-1.87-.17-.38-.32-.8-.46-1.24" style="fill:url(#D)"/><path d="M15.23 35.89a17 17 0 0 1-.31-1.62c-1.07.39-2.09.72-3 .97-.18.05-.35.09-.51.13.17.33.35.64.56.94.14.21.29.42.46.62.05-.03.09-.05.14-.08.45-.23.94-.43 1.45-.61.39-.13.79-.25 1.21-.35" style="fill:url(#E)"/><path d="M9.84 34.24c.18.6.42 1.18.7 1.72.74-.14 1.46-.42 1.46-.42l-2.42-2.41c.07.38.16.75.26 1.11" style="fill:url(#d)"/><path d="M11.58 35.69c.25-.08.42-.15.42-.15l-.92-.91c.14.36.31.72.5 1.06" style="fill:url(#F)"/><path d="m22.82 30.98-2.78-.51a.297.297 0 0 0-.31.43l.54 1.07c-.37.18-.75.36-1.13.54-2.6 1.2-5.17 2.17-7.23 2.73-.61.17-1.12.29-1.55.36-.76.14-1.25.16-1.54.13a.2.2 0 0 1-.15-.32c.17-.25.52-.64 1.18-1.16-.11-.37-.2-.74-.27-1.12-.62.47-1.11.91-1.46 1.3-.22.24-.88.99-.56 1.69.28.61 1.08.67 1.49.67.06 0 .12 0 .16-.01q.69-.015 1.68-.21c.3-.07.62-.14.96-.23 2.16-.56 4.91-1.58 7.73-2.88.39-.18.78-.37 1.16-.55l.52 1.03c.11.22.42.21.53-.01l1.24-2.53c.09-.17-.02-.38-.21-.42" style="fill:url(#G)"/><path d="M8.74 35.71c-.11-.06-.15-.2-.07-.3.17-.25.52-.64 1.18-1.16-.08-.26-.15-.52-.2-.79-.44.38-1.39 1.23-1.46 1.53-.09.37.55.72.55.72" style="fill:url(#H)"/></svg>