<svg xmlns="http://www.w3.org/2000/svg" xmlns:xlink="http://www.w3.org/1999/xlink" xml:space="preserve" width="820" height="1120" style="shape-rendering:geometricPrecision;text-rendering:geometricPrecision;image-rendering:optimizeQuality;fill-rule:evenodd;clip-rule:evenodd" viewBox="0 0 33.15 45.27"><defs><linearGradient id="e" x1="1.32" x2="31.83" y1="11.46" y2="33.81" gradientUnits="userSpaceOnUse"><stop offset="0" style="stop-opacity:1;stop-color:#e6e7e8"/><stop offset="1" style="stop-opacity:1;stop-color:#fafafa"/></linearGradient><linearGradient id="d" x1="12.03" x2="12.03" y1="2.7" y2="4.26" gradientUnits="userSpaceOnUse"><stop offset="0" style="stop-opacity:1;stop-color:#ffcf95"/><stop offset=".431" style="stop-opacity:1;stop-color:#ffc954"/><stop offset="1" style="stop-opacity:1;stop-color:#ffc200"/></linearGradient><linearGradient id="b" x1="15.86" x2="15.86" y1="3.43" y2="4.99" gradientUnits="userSpaceOnUse"><stop offset="0" style="stop-opacity:1;stop-color:#b761c6"/><stop offset="1" style="stop-opacity:1;stop-color:#9c44b3"/></linearGradient><linearGradient id="a" x1="19.72" x2="19.72" y1="4.57" y2="5.85" gradientUnits="userSpaceOnUse"><stop offset="0" style="stop-opacity:1;stop-color:#c2d600"/><stop offset="1" style="stop-opacity:1;stop-color:#7bd101"/></linearGradient><linearGradient id="c" x1="18.04" x2="12.8" y1="11.95" y2="6.71" gradientUnits="userSpaceOnUse"><stop offset="0" style="stop-opacity:0;stop-color:#1aceb8"/><stop offset="1" style="stop-opacity:1;stop-color:#04959c"/></linearGradient><linearGradient xlink:href="#a" id="i" x1="19.72" x2="19.72" y1="2.7" y2="4.26" gradientUnits="userSpaceOnUse"/><linearGradient xlink:href="#b" id="j" x1="15.86" x2="15.86" y1="4.93" y2="5.91" gradientUnits="userSpaceOnUse"/><linearGradient xlink:href="#c" id="k" x1="14.42" x2="10.32" y1="10.78" y2="6.68" gradientUnits="userSpaceOnUse"/><linearGradient id="m" x1="15.86" x2="15.86" y1="7.66" y2="16.63" gradientUnits="userSpaceOnUse"><stop offset="0" style="stop-opacity:1;stop-color:white"/><stop offset="1" style="stop-opacity:1;stop-color:#e8efee"/></linearGradient><linearGradient xlink:href="#c" id="l" x1="22.54" x2="18.47" y1="10.78" y2="6.68" gradientUnits="userSpaceOnUse"/><linearGradient xlink:href="#c" id="n" x1="22.32" x2="16.54" y1="16.26" y2="10.44" gradientUnits="userSpaceOnUse"/><linearGradient id="o" x1="15.86" x2="15.86" y1="15.13" y2="18.1" gradientUnits="userSpaceOnUse"><stop offset="0" style="stop-opacity:0;stop-color:#1aceb8"/><stop offset=".769" style="stop-opacity:1;stop-color:#04959c"/><stop offset="1" style="stop-opacity:1;stop-color:#04959c"/></linearGradient><linearGradient id="f" x1="15.86" x2="15.86" y1="5.61" y2="17.95" gradientUnits="userSpaceOnUse"><stop offset="0" style="stop-opacity:1;stop-color:#1aceb8"/><stop offset="1" style="stop-opacity:1;stop-color:#0bbfba"/></linearGradient><linearGradient xlink:href="#d" id="h" x1="12.03" x2="12.03" y1="4.57" y2="5.85" gradientUnits="userSpaceOnUse"/><linearGradient xlink:href="#c" id="g" x1="19.78" x2="11.15" y1="8.88" y2=".22" gradientUnits="userSpaceOnUse"/></defs><path d="m33.13 39.1-2.41-26.49c-.07-.73-.68-1.29-1.41-1.29h-4.25V8.49c0-2.28-.88-4.41-2.48-6.01A8.56 8.56 0 0 0 16.57 0c-4.68 0-8.49 3.81-8.49 8.49v2.83H3.84c-.73 0-1.34.56-1.41 1.29L.02 39.1c-.14 1.58.39 3.16 1.46 4.33a5.67 5.67 0 0 0 4.18 1.84h21.83c1.58 0 3.11-.67 4.18-1.84a5.69 5.69 0 0 0 1.46-4.33m-10.9-27.78H10.91V8.49c0-3.12 2.54-5.66 5.66-5.66 1.5 0 2.96.6 4.01 1.65a5.62 5.62 0 0 1 1.65 4.01z" style="fill:url(#e)"/><path d="M23.15 36.62H10.01c-.55 0-1-.45-1-1V22.18c0-.55.45-.99 1-.99h13.14c.54 0 .99.44.99.99v13.44a1 1 0 0 1-.99 1" style="fill:url(#f)"/><path d="M24.14 22.18c0-.55-.45-.99-.99-.99H10v2.21l13.21 13.21c.52-.03.93-.46.93-.99z" style="fill:url(#g)"/><path d="M23.15 21.19H10.01c-.55 0-1 .44-1 .99v.23c0 .55.45.99 1 .99h13.14c.54 0 .99-.44.99-.99v-.23c0-.55-.45-.99-.99-.99" style="fill:#07adb5"/><path d="M14.38 20.27v3.13H10v-3.13c0-.21.17-.38.38-.38H14c.21 0 .38.17.38.38" style="fill:url(#h)"/><path d="M14 19.89h-3.62a.38.38 0 0 0-.38.38v1.03c0 .21.17.38.38.38H14c.21 0 .38-.17.38-.38v-1.03a.38.38 0 0 0-.38-.38" style="fill:url(#d)"/><path d="M23.15 20.27v3.13h-4.38v-3.13c0-.21.17-.38.38-.38h3.62c.21 0 .38.17.38.38" style="fill:url(#a)"/><path d="M22.77 19.89h-3.62a.38.38 0 0 0-.38.38v1.03c0 .21.17.38.38.38h3.62c.21 0 .38-.17.38-.38v-1.03a.38.38 0 0 0-.38-.38" style="fill:url(#i)"/><path d="M18.77 21.11v2.29h-4.39v-2.29c0-.21.17-.38.38-.38h3.63c.21 0 .38.17.38.38" style="fill:url(#j)"/><path d="M18.39 20.73h-3.63a.38.38 0 0 0-.38.38v1.02c0 .22.17.39.38.39h3.63c.21 0 .38-.17.38-.39v-1.02a.38.38 0 0 0-.38-.38" style="fill:url(#b)"/><circle cx="11.95" cy="25.74" r=".78" style="fill:url(#k)"/><circle cx="21.2" cy="25.74" r=".78" style="fill:url(#l)"/><path d="M24.14 28v7.62a1 1 0 0 1-.99 1h-4.7l-5.43-5.44c-1-.95-1.62-2.3-1.62-3.79v-1.57c0-.3.24-.54.54-.54.19 0 .36.1.46.24l5.72 5.72a4.11 4.11 0 0 0 2.55-3.79v-1.63c0-.3.24-.54.54-.54.19 0 .35.1.45.24z" style="fill:url(#c)"/><path d="M16.67 32.62c-2.9.05-5.27-2.33-5.27-5.23v-1.57c0-.3.24-.54.54-.54s.54.24.54.54v1.57c0 2.3 1.87 4.19 4.17 4.15a4.1 4.1 0 0 0 4.02-4.09v-1.63c0-.3.24-.54.54-.54s.54.24.54.54v1.63c0 2.82-2.27 5.12-5.08 5.17" style="fill:url(#m)"/><path d="M24.14 35.62V28l-2.48-2.47c.06.08.09.18.09.29v1.63c0 2.82-2.27 5.12-5.08 5.17-1.41.03-2.69-.52-3.64-1.43l5.42 5.43h4.7a1 1 0 0 0 .99-1" style="fill:url(#n)"/><path d="M9.01 32.87v2.71c0 .55.45.99 1 .99h13.14c.54 0 .99-.44.99-.99v-2.71z" style="fill:url(#o)"/></svg>