<svg xmlns="http://www.w3.org/2000/svg" xmlns:xlink="http://www.w3.org/1999/xlink" xml:space="preserve" width="1180" height="1180" style="shape-rendering:geometricPrecision;text-rendering:geometricPrecision;image-rendering:optimizeQuality;fill-rule:evenodd;clip-rule:evenodd" viewBox="0 0 42.86 42.86"><defs><linearGradient id="d" x1="7.74" x2="35.16" y1="11.31" y2="31.39" gradientUnits="userSpaceOnUse"><stop offset="0" style="stop-opacity:1;stop-color:#e6e7e8"/><stop offset="1" style="stop-opacity:1;stop-color:#fafafa"/></linearGradient><linearGradient id="a" x1="21.73" x2="21.73" y1="18.04" y2="21.85" gradientUnits="userSpaceOnUse"><stop offset="0" style="stop-opacity:1;stop-color:#00adfb"/><stop offset="1" style="stop-opacity:1;stop-color:#3f3ced"/></linearGradient><linearGradient id="c" x1="21.73" x2="21.73" y1="19.74" y2="17.44" gradientUnits="userSpaceOnUse"><stop offset="0" style="stop-opacity:0;stop-color:#00adfb"/><stop offset="1" style="stop-opacity:1;stop-color:#18cefb"/></linearGradient><linearGradient xlink:href="#a" id="i" x1="16.56" x2="32.94" y1="23" y2="34.1" gradientUnits="userSpaceOnUse"/><linearGradient id="b" x1="23.22" x2="22.27" y1="25.02" y2="25.93" gradientUnits="userSpaceOnUse"><stop offset="0" style="stop-opacity:0;stop-color:#3f3ced"/><stop offset="1" style="stop-opacity:1;stop-color:#2f43bb"/></linearGradient><linearGradient xlink:href="#b" id="e" x1="19.12" x2="16.54" y1="21.46" y2="19.8" gradientUnits="userSpaceOnUse"/><linearGradient xlink:href="#b" id="h" x1="20.17" x2="21.25" y1="28.41" y2="27.46" gradientUnits="userSpaceOnUse"/><linearGradient xlink:href="#c" id="g" x1="21.45" x2="18.22" y1="27.48" y2="25.62" gradientUnits="userSpaceOnUse"/><linearGradient xlink:href="#a" id="f" x1="20.47" x2="24.43" y1="26.17" y2="31.87" gradientUnits="userSpaceOnUse"/><linearGradient xlink:href="#c" id="j" x1="23.01" x2="11.44" y1="27.53" y2="21.63" gradientUnits="userSpaceOnUse"/></defs><path d="m36.32 36.15-2.17-23.82c-.05-.65-.6-1.15-1.26-1.15h-3.82V8.64c0-2.05-.79-3.97-2.22-5.4a7.69 7.69 0 0 0-5.4-2.23c-4.21 0-7.63 3.42-7.63 7.63v2.54h-3.81c-.66 0-1.21.5-1.27 1.15L6.58 36.14c-.13 1.42.34 2.84 1.31 3.89a5.05 5.05 0 0 0 3.75 1.66h19.62c1.42 0 2.79-.6 3.75-1.65a5.12 5.12 0 0 0 1.31-3.89m-9.79-24.97H16.36V8.64c0-2.81 2.28-5.09 5.09-5.09 1.34 0 2.66.54 3.6 1.48.96.96 1.48 2.24 1.48 3.61z" style="fill:url(#d)"/><path d="M0 0h42.86v42.86H0z" style="fill:none"/><path d="M24.93 18.3a6.57 6.57 0 0 0-6.4 0 2.32 2.32 0 0 0-1.21 2.04v1.31l1.21-.67a6.57 6.57 0 0 1 6.4 0l1.2.67v-1.31c0-.85-.46-1.63-1.2-2.04" style="fill:url(#a);fill-rule:nonzero"/><path d="M24.93 18.71a6.62 6.62 0 0 0-6.4 0c-.75.42-1.21 1.2-1.21 2.05v.89l1.21-.67a6.57 6.57 0 0 1 6.4 0l1.2.67v-.89c0-.85-.46-1.63-1.2-2.05" style="fill:url(#c);fill-rule:nonzero"/><path d="M17.64 19.17c-.21.35-.32.76-.32 1.17v1.31l1.21-.67c.2-.11.4-.21.61-.3z" style="fill:url(#e);fill-rule:nonzero"/><path d="m16.73 34.64 7.63-8.62c.63-.71 1.22-1.52 1.63-2.4.64-1.35.63-2.93-.07-4.26-.03-.07-.07-.13-.1-.19.11.25.07.54-.11.74L15.35 31.67c-.07.08-.09.2-.05.3l.93 2.57c.07.22.35.27.5.1" style="fill:url(#f);fill-rule:nonzero"/><path d="M24.36 26.02c.63-.71 1.22-1.52 1.63-2.4.54-1.13.61-2.43.21-3.6.02.18-.03.37-.16.52L15.68 32.3c-.07.08-.09.2-.05.3l.76 2.12c.11.04.25.02.34-.08z" style="fill:url(#g);fill-rule:nonzero"/><path d="m21.88 28.83-.94 1.06-2.03-2.26.94-1.06z" style="fill:url(#h);fill-rule:nonzero"/><path d="M24.51 25.86c-.05.05-.1.11-.15.16l-.79.9-2.04-2.27.94-1.06z" style="fill:url(#b);fill-rule:nonzero"/><path d="m26.72 34.64-7.63-8.62c-.62-.71-1.21-1.52-1.63-2.4-.64-1.35-.62-2.93.07-4.26.04-.07.07-.13.11-.19a.67.67 0 0 0 .11.74L28.1 31.67c.07.08.09.2.06.3l-.93 2.57c-.08.22-.36.27-.51.1" style="fill:url(#i);fill-rule:nonzero"/><path d="M28.1 31.67 17.99 20.18a4.84 4.84 0 0 0 .2 3.64c.42.87 1.01 1.69 1.63 2.39l7.4 8.36c0-.01 0-.02.01-.03l.93-2.57c.03-.1.01-.22-.06-.3" style="fill:url(#j);fill-rule:nonzero"/></svg>