<?xml version="1.0" encoding="UTF-8"?>


<!DOCTYPE svg PUBLIC "-//W3C//DTD SVG 1.1//EN" "http://www.w3.org/Graphics/SVG/1.1/DTD/svg11.dtd">

<svg xmlns="http://www.w3.org/2000/svg" xml:space="preserve" width="820px" height="1120px" version="1.1" style="shape-rendering:geometricPrecision; text-rendering:geometricPrecision; image-rendering:optimizeQuality; fill-rule:evenodd; clip-rule:evenodd"
viewBox="0 0 33.15 45.27"
 xmlns:xlink="http://www.w3.org/1999/xlink"
 xmlns:xodm="http://www.corel.com/coreldraw/odm/2003">
 <defs>
  <style type="text/css">
   <![CDATA[
    .fil3 {fill:#07ADB5}
    .fil0 {fill:url(#id0)}
    .fil5 {fill:url(#id1)}
    .fil9 {fill:url(#id2)}
    .fil6 {fill:url(#id3)}
    .fil12 {fill:url(#id4)}
    .fil7 {fill:url(#id5)}
    .fil8 {fill:url(#id6)}
    .fil10 {fill:url(#id7)}
    .fil13 {fill:url(#id8)}
    .fil11 {fill:url(#id9)}
    .fil14 {fill:url(#id10)}
    .fil15 {fill:url(#id11)}
    .fil1 {fill:url(#id12)}
    .fil4 {fill:url(#id13)}
    .fil2 {fill:url(#id14)}
   ]]>
  </style>
  <linearGradient id="id0" gradientUnits="userSpaceOnUse" x1="1.32" y1="11.46" x2="31.83" y2="33.81">
   <stop offset="0" style="stop-opacity:1; stop-color:#E6E7E8"/>
   <stop offset="1" style="stop-opacity:1; stop-color:#FAFAFA"/>
  </linearGradient>
  <linearGradient id="id1" gradientUnits="userSpaceOnUse" x1="12.03" y1="2.7" x2="12.03" y2="4.26">
   <stop offset="0" style="stop-opacity:1; stop-color:#FFCF95"/>
   <stop offset="0.431373" style="stop-opacity:1; stop-color:#FFC954"/>
   <stop offset="1" style="stop-opacity:1; stop-color:#FFC200"/>
  </linearGradient>
  <linearGradient id="id2" gradientUnits="userSpaceOnUse" x1="15.86" y1="3.43" x2="15.86" y2="4.99">
   <stop offset="0" style="stop-opacity:1; stop-color:#B761C6"/>
   <stop offset="1" style="stop-opacity:1; stop-color:#9C44B3"/>
  </linearGradient>
  <linearGradient id="id3" gradientUnits="userSpaceOnUse" x1="19.72" y1="4.57" x2="19.72" y2="5.85">
   <stop offset="0" style="stop-opacity:1; stop-color:#C2D600"/>
   <stop offset="1" style="stop-opacity:1; stop-color:#7BD101"/>
  </linearGradient>
  <linearGradient id="id4" gradientUnits="userSpaceOnUse" x1="18.04" y1="11.95" x2="12.8" y2="6.71">
   <stop offset="0" style="stop-opacity:0; stop-color:#1ACEB8"/>
   <stop offset="1" style="stop-opacity:1; stop-color:#04959C"/>
  </linearGradient>
  <linearGradient id="id5" gradientUnits="userSpaceOnUse" xlink:href="#id3" x1="19.72" y1="2.7" x2="19.72" y2="4.26">
  </linearGradient>
  <linearGradient id="id6" gradientUnits="userSpaceOnUse" xlink:href="#id2" x1="15.86" y1="4.93" x2="15.86" y2="5.91">
  </linearGradient>
  <linearGradient id="id7" gradientUnits="userSpaceOnUse" xlink:href="#id4" x1="14.42" y1="10.78" x2="10.32" y2="6.68">
  </linearGradient>
  <linearGradient id="id8" gradientUnits="userSpaceOnUse" x1="15.86" y1="7.66" x2="15.86" y2="16.63">
   <stop offset="0" style="stop-opacity:1; stop-color:white"/>
   <stop offset="1" style="stop-opacity:1; stop-color:#E8EFEE"/>
  </linearGradient>
  <linearGradient id="id9" gradientUnits="userSpaceOnUse" xlink:href="#id4" x1="22.54" y1="10.78" x2="18.47" y2="6.68">
  </linearGradient>
  <linearGradient id="id10" gradientUnits="userSpaceOnUse" xlink:href="#id4" x1="22.32" y1="16.26" x2="16.54" y2="10.44">
  </linearGradient>
  <linearGradient id="id11" gradientUnits="userSpaceOnUse" x1="15.86" y1="15.13" x2="15.86" y2="18.1">
   <stop offset="0" style="stop-opacity:0; stop-color:#1ACEB8"/>
   <stop offset="0.768627" style="stop-opacity:1; stop-color:#04959C"/>
   <stop offset="1" style="stop-opacity:1; stop-color:#04959C"/>
  </linearGradient>
  <linearGradient id="id12" gradientUnits="userSpaceOnUse" x1="15.86" y1="5.61" x2="15.86" y2="17.95">
   <stop offset="0" style="stop-opacity:1; stop-color:#1ACEB8"/>
   <stop offset="1" style="stop-opacity:1; stop-color:#0BBFBA"/>
  </linearGradient>
  <linearGradient id="id13" gradientUnits="userSpaceOnUse" xlink:href="#id1" x1="12.03" y1="4.57" x2="12.03" y2="5.85">
  </linearGradient>
  <linearGradient id="id14" gradientUnits="userSpaceOnUse" xlink:href="#id4" x1="19.78" y1="8.88" x2="11.15" y2="0.22">
  </linearGradient>
 </defs>
 <g id="Layer_x0020_1">
  <metadata id="CorelCorpID_0Corel-Layer"/>
  <g id="_2607117862752">
   <g>
    <g>
     <path class="fil0" d="M33.13 39.1l-2.41 -26.49c-0.07,-0.73 -0.68,-1.29 -1.41,-1.29l-4.25 0 0 -2.83c0,-2.28 -0.88,-4.41 -2.48,-6.01 -1.57,-1.57 -3.76,-2.48 -6.01,-2.48 -4.68,0 -8.49,3.81 -8.49,8.49l0 2.83 -4.24 0c-0.73,0 -1.34,0.56 -1.41,1.29l-2.41 26.49c-0.14,1.58 0.39,3.16 1.46,4.33 1.07,1.17 2.59,1.84 4.18,1.84l21.83 0c1.58,0 3.11,-0.67 4.18,-1.84 1.07,-1.17 1.6,-2.75 1.46,-4.33zm-10.9 -27.78l-11.32 0 0 -2.83c0,-3.12 2.54,-5.66 5.66,-5.66 1.5,0 2.96,0.6 4.01,1.65 1.07,1.07 1.65,2.49 1.65,4.01l0 2.83z"/>
    </g>
   </g>
   <g>
   </g>
   <g>
   </g>
   <g>
   </g>
   <g>
   </g>
   <g>
   </g>
   <g>
   </g>
   <g>
   </g>
   <g>
   </g>
   <g>
   </g>
   <g>
   </g>
   <g>
   </g>
   <g>
   </g>
   <g>
   </g>
   <g>
   </g>
   <g>
   </g>
  </g>
  <g id="_2608089334048">
   <path class="fil1" d="M23.15 36.62l-13.14 0c-0.55,0 -1,-0.45 -1,-1l0 -13.44c0,-0.55 0.45,-0.99 1,-0.99l13.14 0c0.54,0 0.99,0.44 0.99,0.99l0 13.44c0,0.55 -0.45,1 -0.99,1z"/>
   <path class="fil2" d="M24.14 22.18c0,-0.55 -0.45,-0.99 -0.99,-0.99l-13.14 0c-0.01,0 -0.01,0 -0.01,0l0 2.21 13.21 13.21c0.52,-0.03 0.93,-0.46 0.93,-0.99l0 -13.44 0 0z"/>
   <path class="fil3" d="M23.15 21.19l-13.14 0c-0.55,0 -1,0.44 -1,0.99l0 0.23c0,0.55 0.45,0.99 1,0.99l13.14 0c0.54,0 0.99,-0.44 0.99,-0.99l0 -0.23c0,-0.55 -0.45,-0.99 -0.99,-0.99z"/>
   <path class="fil4" d="M14.38 20.27l0 3.13 -4.38 0 0 -3.13c0,-0.21 0.17,-0.38 0.38,-0.38l3.62 0c0.21,0 0.38,0.17 0.38,0.38z"/>
   <path class="fil5" d="M14 19.89l-3.62 0c-0.21,0 -0.38,0.17 -0.38,0.38l0 1.03c0,0.21 0.17,0.38 0.38,0.38l3.62 0c0.21,0 0.38,-0.17 0.38,-0.38l0 -1.03c0,-0.21 -0.17,-0.38 -0.38,-0.38z"/>
   <path class="fil6" d="M23.15 20.27l0 3.13 -4.38 0 0 -3.13c0,-0.21 0.17,-0.38 0.38,-0.38l3.62 0c0.21,0 0.38,0.17 0.38,0.38z"/>
   <path class="fil7" d="M22.77 19.89l-3.62 0c-0.21,0 -0.38,0.17 -0.38,0.38l0 1.03c0,0.21 0.17,0.38 0.38,0.38l3.62 0c0.21,0 0.38,-0.17 0.38,-0.38l0 -1.03c0,-0.21 -0.17,-0.38 -0.38,-0.38z"/>
   <path class="fil8" d="M18.77 21.11l0 2.29 -4.39 0 0 -2.29c0,-0.21 0.17,-0.38 0.38,-0.38l3.63 0c0.21,0 0.38,0.17 0.38,0.38z"/>
   <path class="fil9" d="M18.39 20.73l-3.63 0c-0.21,0 -0.38,0.17 -0.38,0.38l0 1.02c0,0.22 0.17,0.39 0.38,0.39l3.63 0c0.21,0 0.38,-0.17 0.38,-0.39l0 -1.02c0,-0.21 -0.17,-0.38 -0.38,-0.38z"/>
   <circle class="fil10" cx="11.95" cy="25.74" r="0.78"/>
   <circle class="fil11" cx="21.2" cy="25.74" r="0.78"/>
   <path class="fil12" d="M24.14 28l0 7.62c0,0.55 -0.45,1 -0.99,1l-4.7 0 -5.43 -5.44c-1,-0.95 -1.62,-2.3 -1.62,-3.79l0 -1.57c0,-0.3 0.24,-0.54 0.54,-0.54 0.19,0 0.36,0.1 0.46,0.24 0,0 5.71,5.71 5.72,5.72 1.49,-0.61 2.55,-2.08 2.55,-3.79l0 -1.63c0,-0.3 0.24,-0.54 0.54,-0.54 0.19,0 0.35,0.1 0.45,0.24l2.48 2.48z"/>
   <path class="fil13" d="M16.67 32.62c-2.9,0.05 -5.27,-2.33 -5.27,-5.23l0 -1.57c0,-0.3 0.24,-0.54 0.54,-0.54l0 0c0.3,0 0.54,0.24 0.54,0.54l0 1.57c0,2.3 1.87,4.19 4.17,4.15 2.22,-0.04 4.02,-1.86 4.02,-4.09l0 -1.63c0,-0.3 0.24,-0.54 0.54,-0.54l0 0c0.3,0 0.54,0.24 0.54,0.54l0 1.63c0,2.82 -2.27,5.12 -5.08,5.17z"/>
   <path class="fil14" d="M24.14 35.62l0 -7.62 -2.48 -2.47c0.06,0.08 0.09,0.18 0.09,0.29l0 1.63c0,2.82 -2.27,5.12 -5.08,5.17 -1.41,0.03 -2.69,-0.52 -3.64,-1.43l5.42 5.43 4.7 0c0.54,0 0.99,-0.45 0.99,-1z"/>
   <path class="fil15" d="M9.01 32.87l0 2.71c0,0.55 0.45,0.99 1,0.99l13.14 0c0.54,0 0.99,-0.44 0.99,-0.99l0 -2.71 -15.13 0z"/>
   <g>
   </g>
   <g>
   </g>
   <g>
   </g>
   <g>
   </g>
   <g>
   </g>
   <g>
   </g>
   <g>
   </g>
   <g>
   </g>
   <g>
   </g>
   <g>
   </g>
   <g>
   </g>
   <g>
   </g>
   <g>
   </g>
   <g>
   </g>
   <g>
   </g>
  </g>
 </g>
</svg>
