<svg xmlns="http://www.w3.org/2000/svg" xml:space="preserve" width="820" height="1120" style="shape-rendering:geometricPrecision;text-rendering:geometricPrecision;image-rendering:optimizeQuality;fill-rule:evenodd;clip-rule:evenodd" viewBox="0 0 47.92 65.44"><defs><linearGradient id="id0" x1="1.9" x2="46.02" y1="16.57" y2="48.87" gradientUnits="userSpaceOnUse"><stop offset="0" style="stop-opacity:1;stop-color:#e6e7e8"/><stop offset="1" style="stop-opacity:1;stop-color:#fafafa"/></linearGradient><style>.fil2{fill:#009bde}.fil3{fill:#333e48}.fil4{fill:#3e4a57}.fil1{fill:#77b8e8}</style></defs><g id="Layer_x0020_1"><path id="_2608084447168" d="M47.89 56.53 44.4 18.22a2.045 2.045 0 0 0-2.04-1.86h-6.13v-4.09c0-3.29-1.28-6.37-3.59-8.68C30.37 1.31 27.2 0 23.96 0c-6.77 0-12.27 5.51-12.27 12.27v4.09H5.55c-1.06 0-1.94.81-2.04 1.86L.03 56.52a8.2 8.2 0 0 0 2.11 6.26 8.22 8.22 0 0 0 6.04 2.66h31.56c2.29 0 4.49-.97 6.03-2.65a8.2 8.2 0 0 0 2.12-6.26M32.14 16.36H15.78v-4.09c0-4.51 3.67-8.18 8.18-8.18 2.17 0 4.28.87 5.79 2.38a8.16 8.16 0 0 1 2.39 5.8z" style="fill:url(#id0)"/><g id="_2608084426752"><path d="M30.77 38.01c-.92 0-1.67-.75-1.67-1.68 0-2.85-2.32-5.17-5.18-5.17-2.85 0-5.17 2.32-5.17 5.17a1.675 1.675 0 1 1-3.35 0c0-4.7 3.82-8.53 8.52-8.53 4.71 0 8.53 3.83 8.53 8.53 0 .93-.75 1.68-1.68 1.68" class="fil1"/><path d="M30.44 30.83a7.45 7.45 0 0 0-4.22-1.31c-2.77 0-5.19 1.52-6.47 3.76a5.174 5.174 0 0 1 9.35 3.05 1.675 1.675 0 1 0 3.35 0c0-2.09-.76-4.01-2.01-5.5" class="fil2"/><path d="M29.73 36.33c-2.51 0-4.54 2.03-4.54 4.55v3.65c0 2.51 2.03 4.55 4.54 4.55h1.7c2.52 0 4.55-2.04 4.55-4.55v-3.65a4.54 4.54 0 0 0-4.55-4.55z" class="fil3"/><path d="M34.28 44.53c0 2.51-2.04 4.55-4.55 4.55s-4.54-2.04-4.54-4.55v-3.65c0-2.52 2.03-4.55 4.54-4.55s4.55 2.03 4.55 4.55z" class="fil4"/><path d="M32.79 44.02c0 1.8-1.47 3.27-3.27 3.27-1.81 0-3.27-1.47-3.27-3.27v-2.63a3.271 3.271 0 0 1 6.54 0zm-16.3-7.69c-2.51 0-4.55 2.03-4.55 4.55v3.65c0 2.51 2.04 4.55 4.55 4.55h1.7c2.51 0 4.54-2.04 4.54-4.55v-3.65c0-2.52-2.03-4.55-4.54-4.55z" class="fil3"/><path d="M21.03 44.53c0 2.51-2.03 4.55-4.54 4.55s-4.55-2.04-4.55-4.55v-3.65c0-2.52 2.04-4.55 4.55-4.55s4.54 2.03 4.54 4.55z" class="fil4"/><path d="M19.54 44.02a3.271 3.271 0 0 1-6.54 0v-2.63c0-1.81 1.46-3.27 3.27-3.27s3.27 1.46 3.27 3.27z" class="fil2"/><circle cx="16.27" cy="42.7" r="1.98" style="fill:#fff"/><path d="M20.1 53.88a4.12 4.12 0 0 1-4.12-4.12v-2.47c0-.17.13-.3.29-.3s.29.13.29.3v2.47c0 1.95 1.59 3.53 3.54 3.53a3.53 3.53 0 0 0 3.53-3.53c0-.16.13-.29.29-.29.17 0 .3.13.3.29 0 2.27-1.85 4.12-4.12 4.12" class="fil1"/><path d="M23.38 47.23h1.08v2.9h-1.08z" class="fil3"/><path d="M23.92 45.86c-.2 0-.36.16-.36.36v1.01h.73v-1.01c0-.2-.17-.36-.37-.36" style="fill:#ffa400"/><path d="M23.38 47.59h1.08v.31h-1.08zm0 .6h1.08v.31h-1.08z" class="fil4"/></g></g></svg>