<svg xmlns="http://www.w3.org/2000/svg" xml:space="preserve" width="820" height="1120" style="shape-rendering:geometricPrecision;text-rendering:geometricPrecision;image-rendering:optimizeQuality;fill-rule:evenodd;clip-rule:evenodd" viewBox="0 0 56.28 76.86"><defs><linearGradient id="id0" x1="2.23" x2="54.05" y1="19.46" y2="57.4" gradientUnits="userSpaceOnUse"><stop offset="0" style="stop-opacity:1;stop-color:#e6e7e8"/><stop offset="1" style="stop-opacity:1;stop-color:#fafafa"/></linearGradient><style>.fil2{fill:#40545d}.fil1{fill:#485f69}.fil8{fill:#56707b}.fil4{fill:#778c95}.fil3{fill:#ee5550}.fil10{fill:#fed44c}.fil9{fill:#fee182}</style></defs><g id="Layer_x0020_1"><g id="_2608096683056"><path d="m56.24 66.39-4.1-44.99a2.395 2.395 0 0 0-2.39-2.19h-7.2v-4.8c0-3.86-1.5-7.48-4.22-10.2A14.5 14.5 0 0 0 28.14 0c-7.95 0-14.41 6.47-14.41 14.41v4.8H6.52c-1.24 0-2.28.95-2.39 2.19L.04 66.38a9.62 9.62 0 0 0 2.47 7.35 9.63 9.63 0 0 0 7.1 3.13h37.06c2.69 0 5.27-1.14 7.09-3.12a9.64 9.64 0 0 0 2.48-7.35m-18.5-47.18H18.53v-4.8c0-5.3 4.31-9.61 9.61-9.61 2.54 0 5.02 1.02 6.8 2.8a9.57 9.57 0 0 1 2.8 6.81z" style="fill:url(#id0)"/></g><g id="_2608096679408"><path d="m33.8 61.28-2.69-1.85c-.02-.01-.04-.03-.05-.04-.94-.81-.08-3.18-.04-3.3l2.69 1.84c-.04.13-.9 2.5.04 3.3zM30.85 53.64l2.69 1.85c.44.3.85 1.02.17 2.44l-2.69-1.84c.68-1.43.27-2.15-.17-2.45" class="fil1"/><path d="m32.87 55.24-2.69-1.85c-.37-.25-.82-1.15-.79-2.03.01-.34-.1-.53-.26-.64l2.69 1.85c.16.11.27.3.26.64-.02.87.42 1.78.79 2.03" class="fil1"/><path d="M28.26 50.65c-.01-.02-.03-.03-.04-.05l2.69 1.85c.01.01.03.03.04.05-.8-.56-1.93-1.2-2.69-1.85" class="fil2"/><path d="M28.22 50.6c.14-.56.01-1.34-.55-2.02.89.61 1.79 1.23 2.69 1.84.56.69.69 1.46.55 2.03-.81-.56-1.89-1.29-2.69-1.85" class="fil2"/><path d="M27.67 48.58c-.08-.1-.17-.17-.25-.23l2.69 1.84c.09.06.17.14.25.23-.45-.3-.9-.61-1.35-.92-.23-.16-.46-.32-.7-.48-.16-.11-.33-.22-.49-.34-.05-.03-.11-.06-.15-.1" class="fil2"/><path d="m29.68 53.12-2.69-1.85c-.44-.3-.22-1.12-.59-1.46-.03-.02-.05-.04-.08-.06l2.69 1.85c.03.02.06.04.08.06.38.34.15 1.15.59 1.46" class="fil3"/><path d="m29.22 50.02-2.7-1.85 8.63-5.88 2.7 1.84z" class="fil4"/><path d="m27.42 48.35 2.69 1.84c-.27-.18-.58-.22-.89-.17-.52.07-1.05.36-1.44.63l-2.7-1.85c.4-.27.93-.56 1.44-.63.32-.05.63-.01.9.18" class="fil3"/><path d="M37.85 44.13c-.17 1.96.15 3.49.38 3.67.35.28.56 1.89.73 4.58s-.5 4.07-1.34 5.39c-.59.92-1.79 2.65-2.78 3.32-.42.29-.81.39-1.09.14-.94-.8-.08-3.17-.04-3.3.96-2.01-.26-2.62-.65-2.62s-1.01-1.07-.98-2.1c.04-1.03-1.07-.73-1.13-.71-.01-.02-.03-.04-.04-.05.14-.57.01-1.34-.55-2.03-.31-.37-.72-.46-1.14-.4z" class="fil2"/><path d="m27.15 51.14-2.69-1.85c.01-.01.25-.23.62-.49l2.7 1.85c-.38.26-.62.48-.63.49" class="fil3"/><path d="M27.78 50.65c.39-.27.92-.56 1.44-.63.42-.06.83.03 1.14.4.56.69.69 1.46.55 2.03-.07.29-.22.53-.42.66q-.195.135-.45.12c-.91-.07-.5-1.16-.95-1.57s-1.87-.52-1.94-.52c.01-.01.25-.23.63-.49" style="fill:#cb4844"/><path d="M26.37 52.72c.06.15.09.3.09.42 0 .17-.06.3-.15.36-.1.07-.25.05-.41-.04l-8.26-4.76c-.16-.1-.31-.26-.41-.44s-.16-.37-.15-.53c0-.12.03-.23.08-.3.42-.53.63-1.15.63-1.89 0-.69-.18-1.49-.57-2.44a1 1 0 0 1-.1-.42c0-.16.06-.29.16-.35.09-.07.24-.06.4.03l8.27 4.77c.15.09.3.26.4.43.1.18.16.38.16.54 0 .12-.03.23-.1.31-.4.51-.61 1.14-.62 1.88 0 .7.18 1.49.58 2.43" style="fill:#4bb5e7"/><path d="m28.76 51.33-8.26-4.77c-.05-.02-.08-.07-.11-.12 0-.01 0-.02-.01-.03-.91.49-2.08 1.12-2.89 1.55 0 .05.01.11.04.15.03.05.06.08.11.12l8.26 4.76c.04.03.08.03.1.01l2.87-1.66c-.03.01-.06.01-.11-.01" class="fil4"/><path d="m20.35 46.3.03-.08c.44-.56.69-1.25.69-2.1 0-.79-.22-1.71-.64-2.73l-.04-.13c0-.04.02-.07.05-.09l-2.87 1.66c-.02.02-.04.05-.04.1l.03.12c.43 1.03.64 1.94.64 2.73 0 .84-.24 1.54-.69 2.1l-.02.09c.81-.44 1.98-1.06 2.89-1.55-.01-.04-.03-.08-.03-.12" class="fil2"/><path d="m26.33 53.48-.02.02h-.02z" style="fill:#f17572"/><path d="M25.79 50.29c0 .69.18 1.49.58 2.44.06.14.09.29.09.41 0 .17-.06.3-.15.36-.1.07-.25.06-.41-.03l-8.26-4.77c-.17-.1-.31-.26-.41-.44s-.15-.37-.15-.54c0-.11.03-.22.09-.29.41-.53.62-1.15.62-1.89 0-.69-.18-1.49-.57-2.43-.07-.16-.1-.3-.1-.42 0-.17.06-.3.16-.36.09-.07.24-.06.4.03l8.27 4.77c.16.1.3.26.4.44.1.17.15.37.15.53 0 .12-.02.23-.08.3-.41.53-.63 1.15-.63 1.89m.22 2.71c.02-.01.04-.05.04-.1l-.03-.12c-.43-1.03-.64-1.94-.64-2.73 0-.84.25-1.54.69-2.1l.02-.08c0-.05-.01-.1-.04-.15s-.06-.09-.11-.11l-8.26-4.77c-.05-.03-.08-.03-.1-.01-.03.01-.05.05-.05.09l.03.13c.43 1.02.64 1.94.64 2.73 0 .84-.24 1.53-.69 2.1l-.02.08c0 .05.02.11.04.15.03.04.06.09.11.11l8.26 4.77c.05.03.08.03.11.01m0 0" class="fil8"/><path d="M39.2 40.38c.01 1.86-2.42 7.17-6.53 9.55-1.3.75-2.66 1.66-4.02 2.21v-.01l-2.32 1.35c.08-.07.13-.19.13-.34 0-.12-.03-.27-.09-.42-.4-.94-.58-1.73-.58-2.43 0-.74.22-1.37.63-1.88.06-.08.09-.18.09-.31 0-.16-.06-.36-.16-.54-.1-.16-.25-.34-.41-.43l2.87-1.67c1.35-.54 2.53-1 3.84-1.76 4.11-2.38 6.54-5.06 6.54-6.91z" class="fil1"/><path d="M32.65 43.7c-1.3.76-2.67 1.4-4.02 1.96l-2.68 1.47-8.27-4.77c-.15-.09-.3-.09-.4-.04 0 0 4.82-3.25 6.12-4 5.6-3.24 12.23-4.66 14.78-3.17 2.56 1.48.08 5.31-5.53 8.55" class="fil4"/><path d="M18.87 42.17c1.51-1.01 4.04-2.69 4.91-3.19 3.85-2.22 8.38-3.66 11.55-3.66 1.06 0 1.92.17 2.46.49.57.33.63.72.63.98 0 1.3-1.92 3.81-6.15 6.25-1.19.69-2.52 1.33-3.93 1.91l-.04.01-2.34 1.29z" class="fil8"/><path d="M26.64 50.39c0 .22.08.38.2.45l.17.1c-.13-.08-.21-.24-.21-.46 0-.44.32-.99.7-1.21.2-.12.38-.13.51-.05l-.16-.1c-.13-.07-.31-.06-.51.05-.39.23-.71.77-.7 1.22" class="fil4"/><path d="M27.5 49.27c-.38.22-.7.77-.7 1.21 0 .45.32.63.71.41.39-.23.71-.77.7-1.22 0-.45-.31-.63-.71-.4" class="fil8"/><path d="M26.94 50.45c0 .19.07.32.18.39l.32.18c-.11-.06-.17-.19-.17-.38-.01-.38.26-.84.59-1.03.17-.1.32-.11.43-.04l-.32-.19c-.11-.07-.26-.06-.43.04-.33.19-.6.65-.6 1.03" class="fil9"/><path d="M27.86 49.61c-.33.19-.6.65-.59 1.03 0 .38.27.53.6.34s.59-.65.59-1.03-.27-.54-.6-.34" class="fil10"/><path d="M28.87 49.28c0 .23.07.38.2.45l.16.1c-.12-.07-.2-.23-.2-.45-.01-.45.31-1 .7-1.22.2-.12.38-.13.51-.05l-.17-.1c-.13-.07-.31-.06-.5.05-.39.23-.71.77-.7 1.22" class="fil4"/><path d="M29.73 48.16c-.39.22-.7.77-.7 1.22 0 .44.32.62.71.4.39-.23.7-.77.7-1.22s-.32-.63-.71-.4" class="fil8"/><path d="M29.17 49.34c0 .19.07.33.17.39l.33.19c-.11-.07-.18-.2-.18-.39 0-.38.27-.84.6-1.03.17-.1.32-.11.43-.04l-.33-.19c-.11-.06-.26-.05-.42.04-.33.19-.6.66-.6 1.03" class="fil9"/><path d="M30.09 48.5c-.33.19-.6.65-.6 1.03s.27.53.6.34.6-.65.6-1.03-.27-.53-.6-.34" class="fil10"/></g></g></svg>