<?xml version="1.0" encoding="UTF-8"?>


<!DOCTYPE svg PUBLIC "-//W3C//DTD SVG 1.1//EN" "http://www.w3.org/Graphics/SVG/1.1/DTD/svg11.dtd">

<svg xmlns="http://www.w3.org/2000/svg" xml:space="preserve" width="820px" height="1120px" version="1.1" style="shape-rendering:geometricPrecision; text-rendering:geometricPrecision; image-rendering:optimizeQuality; fill-rule:evenodd; clip-rule:evenodd"
viewBox="0 0 47.92 65.44"
 xmlns:xlink="http://www.w3.org/1999/xlink"
 xmlns:xodm="http://www.corel.com/coreldraw/odm/2003">
 <defs>
  <style type="text/css">
   <![CDATA[
    .fil2 {fill:#009BDE}
    .fil3 {fill:#333E48}
    .fil4 {fill:#3E4A57}
    .fil1 {fill:#77B8E8}
    .fil6 {fill:#FFA400}
    .fil5 {fill:white}
    .fil0 {fill:url(#id0)}
   ]]>
  </style>
  <linearGradient id="id0" gradientUnits="userSpaceOnUse" x1="1.9" y1="16.57" x2="46.02" y2="48.87">
   <stop offset="0" style="stop-opacity:1; stop-color:#E6E7E8"/>
   <stop offset="1" style="stop-opacity:1; stop-color:#FAFAFA"/>
  </linearGradient>
 </defs>
 <g id="Layer_x0020_1">
  <metadata id="CorelCorpID_0Corel-Layer"/>
  <g id="_2608084447168">
   <g>
    <g>
     <path class="fil0" d="M47.89 56.53l-3.49 -38.31c-0.09,-1.05 -0.98,-1.86 -2.04,-1.86l-6.13 0 0 -4.09c0,-3.29 -1.28,-6.37 -3.59,-8.68 -2.27,-2.28 -5.44,-3.59 -8.68,-3.59 -6.77,0 -12.27,5.51 -12.27,12.27l0 4.09 -6.14 0c-1.06,0 -1.94,0.81 -2.04,1.86l-3.48 38.3c-0.2,2.29 0.56,4.57 2.11,6.26 1.55,1.69 3.75,2.66 6.04,2.66l31.56 0c2.29,0 4.49,-0.97 6.03,-2.65 1.56,-1.7 2.32,-3.98 2.12,-6.26zm-15.75 -40.17l-16.36 0 0 -4.09c0,-4.51 3.67,-8.18 8.18,-8.18 2.17,0 4.28,0.87 5.79,2.38 1.54,1.55 2.39,3.6 2.39,5.8l0 4.09z"/>
    </g>
   </g>
   <g>
   </g>
   <g>
   </g>
   <g>
   </g>
   <g>
   </g>
   <g>
   </g>
   <g>
   </g>
   <g>
   </g>
   <g>
   </g>
   <g>
   </g>
   <g>
   </g>
   <g>
   </g>
   <g>
   </g>
   <g>
   </g>
   <g>
   </g>
   <g>
   </g>
  </g>
  <g id="_2608084426752">
   <g>
    <path class="fil1" d="M30.77 38.01c-0.92,0 -1.67,-0.75 -1.67,-1.68 0,-2.85 -2.32,-5.17 -5.18,-5.17 -2.85,0 -5.17,2.32 -5.17,5.17 0,0.93 -0.75,1.68 -1.67,1.68 -0.93,0 -1.68,-0.75 -1.68,-1.68 0,-4.7 3.82,-8.53 8.52,-8.53 4.71,0 8.53,3.83 8.53,8.53 0,0.93 -0.75,1.68 -1.68,1.68z"/>
    <path class="fil2" d="M30.44 30.83c-1.2,-0.82 -2.65,-1.31 -4.22,-1.31 -2.77,0 -5.19,1.52 -6.47,3.76 0.94,-1.28 2.46,-2.12 4.17,-2.12 2.86,0 5.18,2.32 5.18,5.17 0,0.93 0.75,1.68 1.67,1.68 0.93,0 1.68,-0.75 1.68,-1.68 0,-2.09 -0.76,-4.01 -2.01,-5.5z"/>
    <g>
     <g>
      <path class="fil3" d="M29.73 36.33c-2.51,0 -4.54,2.03 -4.54,4.55l0 3.65c0,2.51 2.03,4.55 4.54,4.55l1.7 0c2.52,0 4.55,-2.04 4.55,-4.55l0 -3.65c0,-2.52 -2.03,-4.55 -4.55,-4.55l-1.7 0z"/>
     </g>
     <path class="fil4" d="M34.28 44.53c0,2.51 -2.04,4.55 -4.55,4.55 -2.51,0 -4.54,-2.04 -4.54,-4.55l0 -3.65c0,-2.52 2.03,-4.55 4.54,-4.55 2.51,0 4.55,2.03 4.55,4.55l0 3.65z"/>
     <path class="fil3" d="M32.79 44.02c0,1.8 -1.47,3.27 -3.27,3.27 -1.81,0 -3.27,-1.47 -3.27,-3.27l0 -2.63c0,-1.81 1.46,-3.27 3.27,-3.27 1.8,0 3.27,1.46 3.27,3.27l0 2.63z"/>
    </g>
    <g>
     <g>
      <path class="fil3" d="M16.49 36.33c-2.51,0 -4.55,2.03 -4.55,4.55l0 3.65c0,2.51 2.04,4.55 4.55,4.55l1.7 0c2.51,0 4.54,-2.04 4.54,-4.55l0 -3.65c0,-2.52 -2.03,-4.55 -4.54,-4.55l-1.7 0z"/>
     </g>
     <path class="fil4" d="M21.03 44.53c0,2.51 -2.03,4.55 -4.54,4.55 -2.51,0 -4.55,-2.04 -4.55,-4.55l0 -3.65c0,-2.52 2.04,-4.55 4.55,-4.55 2.51,0 4.54,2.03 4.54,4.55l0 3.65z"/>
     <path class="fil2" d="M19.54 44.02c0,1.8 -1.46,3.27 -3.27,3.27 -1.81,0 -3.27,-1.47 -3.27,-3.27l0 -2.63c0,-1.81 1.46,-3.27 3.27,-3.27 1.81,0 3.27,1.46 3.27,3.27l0 2.63z"/>
     <circle class="fil5" cx="16.27" cy="42.7" r="1.98"/>
    </g>
    <g>
     <path class="fil1" d="M20.1 53.88c-2.28,0 -4.12,-1.85 -4.12,-4.12l0 -2.47c0,-0.17 0.13,-0.3 0.29,-0.3 0.16,0 0.29,0.13 0.29,0.3l0 2.47c0,1.95 1.59,3.53 3.54,3.53 1.95,0 3.53,-1.58 3.53,-3.53 0,-0.16 0.13,-0.29 0.29,-0.29 0.17,0 0.3,0.13 0.3,0.29 0,2.27 -1.85,4.12 -4.12,4.12z"/>
     <rect class="fil3" x="23.38" y="47.23" width="1.08" height="2.9"/>
     <path class="fil6" d="M23.92 45.86c-0.2,0 -0.36,0.16 -0.36,0.36l0 1.01 0.73 0 0 -1.01c0,-0.2 -0.17,-0.36 -0.37,-0.36z"/>
     <rect class="fil4" x="23.38" y="47.59" width="1.08" height="0.31"/>
     <rect class="fil4" x="23.38" y="48.19" width="1.08" height="0.31"/>
    </g>
   </g>
   <g>
   </g>
   <g>
   </g>
   <g>
   </g>
   <g>
   </g>
   <g>
   </g>
   <g>
   </g>
   <g>
   </g>
   <g>
   </g>
   <g>
   </g>
   <g>
   </g>
   <g>
   </g>
   <g>
   </g>
   <g>
   </g>
   <g>
   </g>
   <g>
   </g>
  </g>
 </g>
</svg>
