<svg xmlns="http://www.w3.org/2000/svg" xmlns:xlink="http://www.w3.org/1999/xlink" xml:space="preserve" width="1180" height="1180" style="shape-rendering:geometricPrecision;text-rendering:geometricPrecision;image-rendering:optimizeQuality;fill-rule:evenodd;clip-rule:evenodd" version="1.0" viewBox="0 0 46.88 46.88"><defs><linearGradient id="c" x1="8.46" x2="38.46" y1="12.37" y2="34.33" gradientUnits="userSpaceOnUse"><stop offset="0" style="stop-opacity:1;stop-color:#e6e7e8"/><stop offset="1" style="stop-opacity:1;stop-color:#fafafa"/></linearGradient><linearGradient id="a" x1="19.71" x2="19.68" y1="26.97" y2="25.86" gradientUnits="userSpaceOnUse"><stop offset="0" style="stop-opacity:0;stop-color:#f92814"/><stop offset="1" style="stop-opacity:1;stop-color:#c1272d"/></linearGradient><linearGradient id="g" x1="23.02" x2="25.02" y1="28.27" y2="31.36" gradientUnits="userSpaceOnUse"><stop offset="0" style="stop-opacity:1;stop-color:#f9f7fc"/><stop offset="1" style="stop-opacity:1;stop-color:#f0ddfc"/></linearGradient><linearGradient xlink:href="#a" id="f" x1="28.77" x2="25.1" y1="31.43" y2="29.17" gradientUnits="userSpaceOnUse"/><linearGradient id="b" x1="19.85" x2="33.15" y1="25.51" y2="38.77" gradientUnits="userSpaceOnUse"><stop offset="0" style="stop-opacity:1;stop-color:#ff7044"/><stop offset="1" style="stop-opacity:1;stop-color:#f92814"/></linearGradient><linearGradient xlink:href="#b" id="e" x1="45.37" x2="36.98" y1="645.17" y2="636.81" gradientUnits="userSpaceOnUse"/><linearGradient id="d" x1="22.44" x2="17.77" y1="28.13" y2="23.41" gradientUnits="userSpaceOnUse"><stop offset="0" style="stop-opacity:0;stop-color:#ff7044"/><stop offset="1" style="stop-opacity:1;stop-color:#ffa425"/></linearGradient></defs><path d="m39.73 39.54-2.37-26.05c-.06-.71-.66-1.26-1.38-1.26H31.8V9.45c0-2.24-.86-4.34-2.43-5.91a8.4 8.4 0 0 0-5.91-2.44c-4.6 0-8.34 3.75-8.34 8.35v2.78h-4.17c-.73 0-1.33.55-1.39 1.26L7.19 39.54c-.14 1.55.38 3.1 1.44 4.25a5.56 5.56 0 0 0 4.1 1.81h21.46c1.56 0 3.05-.66 4.11-1.81a5.57 5.57 0 0 0 1.43-4.25M29.02 12.23H17.9V9.45c0-3.07 2.49-5.57 5.56-5.57 1.47 0 2.91.59 3.94 1.63 1.05 1.04 1.62 2.44 1.62 3.94z" style="fill:url(#c)"/><path d="M0 0h46.88v46.88H0z" style="fill:none"/><path d="M30.55 29.56a6.68 6.68 0 0 0-6.68-6.68 6.67 6.67 0 0 0-6.68 6.61 6.68 6.68 0 0 0 4.02 6.2c.4.18.75.46.99.82l1.2 1.76c.23.34.72.34.95 0l1.19-1.76c.25-.36.59-.64.99-.82a6.66 6.66 0 0 0 4.02-6.13" style="fill:url(#b)"/><path d="M23.87 38.19c-.04 0-.13-.01-.2-.11l-1.19-1.76c-.28-.41-.68-.73-1.13-.93a6.35 6.35 0 0 1-3.83-5.89c.02-1.69.69-3.27 1.88-4.46a6.359 6.359 0 0 1 10.82 4.52c0 2.53-1.5 4.82-3.83 5.83-.45.2-.84.52-1.12.93l-1.2 1.76c-.06.1-.16.11-.2.11" style="fill:url(#d)"/><circle cx="23.87" cy="29.56" r="4.2" style="fill:url(#e)"/><path d="M30.55 29.56a6.66 6.66 0 0 1-4.02 6.13c-.3.13-.56.32-.78.56l-4.2-4.21a3.37 3.37 0 0 1-1.07-2.28v-2.61l-.01-.01V23.8c1-.58 2.16-.92 3.4-.92a6.68 6.68 0 0 1 6.68 6.68" style="fill:url(#f)"/><circle cx="23.87" cy="29.56" r="3.4" style="fill:url(#g)"/><path d="M28.21 25.82c-.26 0-.49.1-.66.27s-.28.41-.28.67v3c-.1 1.79-1.58 3.2-3.4 3.2a3.39 3.39 0 0 1-3.39-3.2v-3c0-.52-.43-.94-.95-.94-.57 0-.94-.47-.94-.95 0-.24.08-.47.27-.67l4.34-4.34c.37-.37.97-.37 1.34 0l4.34 4.34c.6.6.18 1.62-.67 1.62" style="fill:#fdb62f"/><path d="M23.87 31.63c-1.24 0-2.28-1.01-2.36-2.29v-2.7c0-.81-.64-1.48-1.43-1.48-.16 0-.22-.14-.22-.23 0-.06.03-.11.07-.15l3.79-3.93a.2.2 0 0 1 .15-.07c.04 0 .1.01.16.07l3.79 3.93c.09.09.06.19.04.24s-.07.14-.2.14c-.38 0-.74.16-1.01.44s-.42.65-.42 1.04v2.7c-.08 1.28-1.11 2.29-2.36 2.29" style="fill:#fefefe"/><path d="M20.48 26.76v.39l-.01-.01-1.52-1.52c.15.12.35.2.58.2.52 0 .95.42.95.94" style="fill:url(#a)"/></svg>