<svg xmlns="http://www.w3.org/2000/svg" xml:space="preserve" width="820" height="1120" style="shape-rendering:geometricPrecision;text-rendering:geometricPrecision;image-rendering:optimizeQuality;fill-rule:evenodd;clip-rule:evenodd" viewBox="0 0 41.72 56.98"><defs><linearGradient id="id0" x1="1.66" x2="40.07" y1="14.43" y2="42.55" gradientUnits="userSpaceOnUse"><stop offset="0" style="stop-opacity:1;stop-color:#e6e7e8"/><stop offset="1" style="stop-opacity:1;stop-color:#fafafa"/></linearGradient><style>.fil3{fill:#88abbf}.fil4{fill:#d6d6d6}.fil6{fill:#eb6b24}.fil2{fill:#ffa511}.fil7{fill:#ffdc13}.fil5{fill:#fff}</style></defs><g id="Layer_x0020_1"><g id="_2608087870144"><path d="m41.7 49.22-3.04-33.35c-.08-.92-.85-1.62-1.77-1.62h-5.35v-3.57c0-2.86-1.11-5.54-3.12-7.56A10.77 10.77 0 0 0 20.86 0c-5.89 0-10.68 4.79-10.68 10.68v3.57H4.83c-.92 0-1.69.7-1.77 1.62L.03 49.21a7.16 7.16 0 0 0 1.83 5.45 7.14 7.14 0 0 0 5.26 2.32H34.6c1.99 0 3.91-.84 5.26-2.31a7.2 7.2 0 0 0 1.84-5.45M27.98 14.25H13.74v-3.57c0-3.92 3.19-7.12 7.12-7.12 1.89 0 3.72.76 5.04 2.08 1.35 1.34 2.08 3.13 2.08 5.04z" style="fill:url(#id0)"/></g><g id="_2608087876608"><path d="M12.87 44.8V32.94l13.7-7.91v11.86z" style="fill:#9e2d00"/><path d="m15.73 46.43-3.43-1.97L26 36.55l3.42 1.98z" class="fil2"/><path d="M13.45 43.86V33.05l.56.32v10.81z" class="fil3"/><path d="m13.45 33.05 12.44-7.24.61.33-12.49 7.23z" class="fil4"/><path d="m14.01 44.18 12.49-7.2V26.14l-12.49 7.23z" class="fil5"/><path d="M14.26 44.32V33.51l.57.32v10.81z" class="fil3"/><path d="m14.26 33.51 12.45-7.24.6.33-12.48 7.23z" class="fil4"/><path d="m14.83 44.64 12.48-7.2V26.6l-12.48 7.23z" class="fil5"/><path d="M15.07 44.75V33.94l.56.32v10.81z" class="fil3"/><path d="m15.07 33.94 12.45-7.24.6.33-12.49 7.23z" class="fil4"/><path d="m15.63 45.07 12.49-7.21V27.03l-12.49 7.23z" class="fil5"/><path d="M15.73 46.43v-7.9l6.84-3.96v-3.95l6.85-3.98v11.89z" class="fil2"/><path d="m28.85 26.33-6.83 3.97v3.95l-6.84 3.96v7.24l-2.31-1.32V32.92l13.7-7.89-.57-.34-13.7 7.91v11.86l3.43 1.97v-7.9l6.84-3.96v-3.95l6.85-3.98z" class="fil6"/><path d="m22.02 30.3.55.32 6.85-3.98-.57-.31z" class="fil7"/><path d="m22.02 34.25.55.32v-3.95l-.55-.32z" class="fil6"/><path d="m15.18 38.21.55.32 6.84-3.96-.55-.32zM12.3 32.6l.57.32 13.7-7.89-.57-.34z" class="fil7"/><path d="M17.1 32.75v-3.42l1.49-.86.16.13v3.19l-1.48.87z" style="fill:#304e75"/><path d="M17.27 32.66v-3.2l1.48-.86v3.19z" style="fill:#3ca5af"/></g></g></svg>