<svg xmlns="http://www.w3.org/2000/svg" xml:space="preserve" width="820" height="1120" style="shape-rendering:geometricPrecision;text-rendering:geometricPrecision;image-rendering:optimizeQuality;fill-rule:evenodd;clip-rule:evenodd" viewBox="0 0 29 39.61"><defs><linearGradient id="id0" x1="1.15" x2="27.85" y1="10.03" y2="29.58" gradientUnits="userSpaceOnUse"><stop offset="0" style="stop-opacity:1;stop-color:#e6e7e8"/><stop offset="1" style="stop-opacity:1;stop-color:#fafafa"/></linearGradient><style>.fil2{fill:#689f38}</style></defs><g id="Layer_x0020_1"><g id="_2304914156896"><path d="m28.98 34.21-2.11-23.18c-.05-.64-.59-1.13-1.23-1.13h-3.71V7.43c0-1.99-.78-3.86-2.17-5.26A7.5 7.5 0 0 0 14.5 0c-4.09 0-7.43 3.33-7.43 7.43V9.9H3.36c-.64 0-1.18.49-1.23 1.13L.02 34.21A4.95 4.95 0 0 0 1.3 38a4.95 4.95 0 0 0 3.65 1.61h19.1c1.39 0 2.72-.59 3.65-1.61a4.95 4.95 0 0 0 1.28-3.79M19.45 9.9h-9.9V7.43c0-2.73 2.22-4.95 4.95-4.95 1.31 0 2.59.52 3.51 1.44a4.93 4.93 0 0 1 1.44 3.51z" style="fill:url(#id0)"/></g><g id="_2304914165088"><path d="M22.05 24.6c0-4-3.26-7.26-7.27-7.26-4 0-7.26 3.26-7.26 7.26v.02c0 .13.05.27.16.36l3.19 2.86c.09.08.21.12.32.12.13 0 .26-.05.35-.16.18-.2.16-.5-.03-.67l-3.02-2.7c.08-.59.59-1.05 1.2-1.05.68 0 1.22.55 1.22 1.22 0 .26.22.48.48.48s.48-.22.48-.48c0-.67.54-1.22 1.22-1.22.67 0 1.22.55 1.22 1.22 0 .26.21.48.47.48.27 0 .48-.22.48-.48 0-.67.55-1.22 1.22-1.22s1.22.55 1.22 1.22c0 .26.22.48.48.48s.48-.22.48-.48c0-.67.54-1.22 1.22-1.22.61 0 1.11.46 1.2 1.05l-3.02 2.7c-.2.17-.21.47-.04.67.09.11.22.16.36.16.11 0 .22-.04.31-.12l3.2-2.86c.1-.09.16-.23.15-.36 0-.01.01-.01.01-.02" data-original="#fe5722" style="fill:#8bc34a"/><path d="M14.78 17.34c-.3 0-.6.02-.89.05 3.19.4 5.75 2.87 6.27 6.03.48.11.85.51.92 1.01l-3.02 2.7a.474.474 0 1 0 .63.71l3.2-2.86c.1-.09.16-.23.15-.36 0-.01.01-.01.01-.02 0-4-3.26-7.26-7.27-7.26" class="fil2" data-original="#e54a19"/><path d="M18.65 24.59c0-4.07-1.7-7.25-3.87-7.25s-3.87 3.19-3.87 7.26c0 .02 0 .03.01.05 0 .07.02.14.05.21l1.61 2.86c.09.15.25.24.42.24a.476.476 0 0 0 .41-.71l-1.54-2.73c.05-.64.57-1.14 1.21-1.14.68 0 1.23.55 1.23 1.22v2.88c0 .27.21.48.47.48.27 0 .48-.21.48-.48V24.6a1.215 1.215 0 0 1 2.43-.08l-1.56 2.73c-.13.22-.05.52.17.65q.12.06.24.06c.17 0 .33-.09.42-.24l1.63-2.85c.05-.09.07-.19.06-.28" class="fil2" data-original="#d74315"/><path d="M18.38 27.01h-1.84a.47.47 0 0 0-.47.47v4.56c0 .26.21.47.47.47h1.84c.26 0 .47-.21.47-.47v-4.56a.47.47 0 0 0-.47-.47" data-original="#fe9000" style="fill:#fe9000"/><path d="M16.88 27.15a.48.48 0 0 0-.34-.14h-5.35c-.26 0-.48.21-.48.47v4.56c0 .26.22.47.48.47h5.35c.26 0 .48-.21.48-.47v-4.56a.47.47 0 0 0-.14-.33" data-original="#fec007" style="fill:#fec007"/></g></g></svg>