<?xml version="1.0" encoding="iso-8859-1"?>
<!-- Generator: Adobe Illustrator 19.0.0, SVG Export Plug-In . SVG Version: 6.00 Build 0)  -->
<svg version="1.1" id="Layer_1" xmlns="http://www.w3.org/2000/svg" xmlns:xlink="http://www.w3.org/1999/xlink" x="0px" y="0px"
	 viewBox="0 0 503.322 503.322" style="enable-background:new 0 0 503.322 503.322;" xml:space="preserve">
<g>
	<path style="fill:#797979;" d="M451.251,381.831c0-23.96-19.43-43.39-43.39-43.39c-23.96,0-43.39,19.43-43.39,43.39
		c0,23.96,19.43,43.39,43.39,43.39C431.821,425.22,451.251,405.79,451.251,381.831"/>
	<path style="fill:#48A0DC;" d="M497.864,292.868l-37.931-15.178l-22.754-90.988c-1.926-7.723-8.869-13.147-16.835-13.147H312.407
		v95.458H0v104.136c0,4.799,3.879,8.678,8.678,8.678h43.39c0-23.96,19.421-43.39,43.39-43.39c23.96,0,43.39,19.43,43.39,43.39
		h190.915h34.712c0-23.96,19.421-43.39,43.39-43.39c23.96,0,43.39,19.43,43.39,43.39h43.39c4.79,0,8.678-3.879,8.678-8.678v-72.227
		C503.322,297.381,501.161,294.187,497.864,292.868"/>
	<polygon style="fill:#C69666;" points="164.882,199.593 286.374,199.593 286.374,78.102 164.882,78.102 	"/>
	<polygon style="fill:#896745;" points="43.391,199.593 164.882,199.593 164.882,112.814 43.391,112.814 	"/>
	<path style="fill:#797979;" d="M138.844,381.831c0-23.96-19.43-43.39-43.39-43.39s-43.39,19.43-43.39,43.39
		c0,23.96,19.43,43.39,43.39,43.39S138.844,405.79,138.844,381.831"/>
	<g>
		<path style="fill:#C0C0C0;" d="M95.454,399.186c-9.58,0-17.356-7.775-17.356-17.356s7.775-17.356,17.356-17.356
			s17.356,7.775,17.356,17.356S105.035,399.186,95.454,399.186"/>
		<path style="fill:#C0C0C0;" d="M407.861,399.186c-9.58,0-17.356-7.775-17.356-17.356s7.775-17.356,17.356-17.356
			s17.356,7.775,17.356,17.356S417.441,399.186,407.861,399.186"/>
	</g>
	<path style="fill:#337FAA;" d="M381.827,321.085h-17.356c-4.79,0-8.678-3.888-8.678-8.678c0-4.79,3.888-8.678,8.678-8.678h17.356
		c4.79,0,8.678,3.888,8.678,8.678C390.505,317.197,386.617,321.085,381.827,321.085"/>
	<g>
		<polygon style="fill:#E8D5B2;" points="130.166,164.881 104.132,147.525 78.098,164.881 78.098,112.814 130.166,112.814 		"/>
		<polygon style="fill:#E8D5B2;" points="251.658,130.169 225.624,112.814 199.59,130.169 199.59,78.102 251.658,78.102 		"/>
	</g>
	<polygon style="fill:#FFD479;" points="26.035,269.017 312.408,269.017 312.408,199.593 26.035,199.593 	"/>
	<path style="fill:#337FAA;" d="M373.149,216.949c0-4.79-3.888-8.678-8.678-8.678c-4.79,0-8.678,3.888-8.678,8.678v60.746
		c0,4.79,3.888,8.678,8.678,8.678h117.153l-21.695-8.678l-2.169-8.678h-84.61V216.949z"/>
</g>
<g>
</g>
<g>
</g>
<g>
</g>
<g>
</g>
<g>
</g>
<g>
</g>
<g>
</g>
<g>
</g>
<g>
</g>
<g>
</g>
<g>
</g>
<g>
</g>
<g>
</g>
<g>
</g>
<g>
</g>
</svg>
