<?xml version="1.0" encoding="UTF-8"?>
<svg xmlns="http://www.w3.org/2000/svg" xmlns:xlink="http://www.w3.org/1999/xlink" width="512" height="512" viewBox="0 0 61 57" version="1.1"><!-- Generator: Sketch 51.3 (57544) - http://www.bohemiancoding.com/sketch --><title>027 - Motocross</title><desc>Created with Sketch.</desc><defs/><g id="Page-1" stroke="none" stroke-width="1" fill="none" fill-rule="evenodd"><g id="027---Motocross" fill-rule="nonzero"><path d="M46.167,22.625 C46.039031,23.8988748 46.0249753,25.181627 46.125,26.458 C44.875,25.328 42.37,23.09 40,23.09 C39.5513548,23.0962185 39.1036532,23.1329701 38.66,23.2 C39.775389,21.7892895 41.100843,20.5582699 42.59,19.55 C43.8886894,18.6487251 45.4200591,18.141741 47,18.09 C45.9,18.09 46.167,20.135 46.167,22.625 Z" id="Shape" fill="#71C285"/><path d="M9,39.093 C8.44771525,39.093 8,38.6452847 8,38.093 L8,37.093 C8,36.5407153 8.44771525,36.093 9,36.093 C9.55228475,36.093 10,36.5407153 10,37.093 L10,38.093 C10,38.6452847 9.55228475,39.093 9,39.093 Z" id="Shape" fill="#2C2F38"/><path d="M9,54.093 C8.44771525,54.093 8,53.6452847 8,53.093 L8,52.093 C8,51.5407153 8.44771525,51.093 9,51.093 C9.55228475,51.093 10,51.5407153 10,52.093 L10,53.093 C10,53.6452847 9.55228475,54.093 9,54.093 Z" id="Shape" fill="#2C2F38"/><path d="M17,46.093 L16,46.093 C15.4477153,46.093 15,45.6452847 15,45.093 C15,44.5407153 15.4477153,44.093 16,44.093 L17,44.093 C17.5522847,44.093 18,44.5407153 18,45.093 C18,45.6452847 17.5522847,46.093 17,46.093 Z" id="Shape" fill="#2C2F38"/><path d="M2,46.093 L1,46.093 C0.44771525,46.093 6.76353751e-17,45.6452847 0,45.093 C-6.76353751e-17,44.5407153 0.44771525,44.093 1,44.093 L2,44.093 C2.55228475,44.093 3,44.5407153 3,45.093 C3,45.6452847 2.55228475,46.093 2,46.093 Z" id="Shape" fill="#2C2F38"/><path d="M2.937,42.593 C2.76130053,42.5932123 2.5887162,42.5466146 2.437,42.458 L1.572,41.958 C1.25106063,41.7852885 1.0494998,41.4516475 1.0459308,41.0872047 C1.0423618,40.7227618 1.23734988,40.3852374 1.55484528,40.2062737 C1.87234068,40.02731 2.26205851,40.0352512 2.572,40.227 L3.437,40.727 C3.82894126,40.9533139 4.02002085,41.4146562 3.90288095,41.8518223 C3.78574105,42.2889884 3.38958806,42.5929801 2.937,42.593 Z" id="Shape" fill="#2C2F38"/><path d="M15.927,50.093 C15.7512622,50.0935035 15.5786028,50.0468854 15.427,49.958 L14.561,49.458 C14.2400606,49.2852885 14.0384998,48.9516475 14.0349308,48.5872047 C14.0313618,48.2227618 14.2263499,47.8852374 14.5438453,47.7062737 C14.8613407,47.52731 15.2510585,47.5352512 15.561,47.727 L16.427,48.227 C16.8189413,48.4533139 17.0100208,48.9146562 16.8928809,49.3518223 C16.7757411,49.7889884 16.3795881,50.0929801 15.927,50.093 Z" id="Shape" fill="#2C2F38"/><path d="M12.5,40.03 C12.1429176,40.029634 11.8131261,39.8388904 11.6347434,39.5295563 C11.4563607,39.2202222 11.4564585,38.8392425 11.635,38.53 L12.135,37.665 C12.4130058,37.1907864 13.021647,37.0298714 13.4976943,37.3047255 C13.9737416,37.5795795 14.1386903,38.18714 13.867,38.665 L13.367,39.53 C13.1881932,39.8397028 12.8576137,40.0303484 12.5,40.03 Z" id="Shape" fill="#2C2F38"/><path d="M5,53.021 C4.6429176,53.020634 4.31312606,52.8298904 4.13474338,52.5205563 C3.95636071,52.2112222 3.95645852,51.8302425 4.135,51.521 L4.635,50.655 C4.81236158,50.3430492 5.14327321,50.1500468 5.5021183,50.1492579 C5.86096339,50.148469 6.19272041,50.3400146 6.37145186,50.6511826 C6.55018331,50.9623505 6.54848438,51.3454296 6.367,51.655 L5.867,52.521 C5.68819322,52.8307028 5.35761373,53.0213484 5,53.021 Z" id="Shape" fill="#2C2F38"/><path d="M2.073,50.093 C1.62041194,50.0929801 1.22425895,49.7889884 1.10711905,49.3518223 C0.989979154,48.9146562 1.18105874,48.4533139 1.573,48.227 L2.438,47.727 C2.74794149,47.5352512 3.13765932,47.52731 3.45515472,47.7062737 C3.77265012,47.8852374 3.9676382,48.2227618 3.9640692,48.5872047 C3.9605002,48.9516475 3.75893937,49.2852885 3.438,49.458 L2.573,49.958 C2.42139722,50.0468854 2.24873777,50.0935035 2.073,50.093 Z" id="Shape" fill="#2C2F38"/><path d="M15.063,42.593 C14.6104119,42.5929801 14.2142589,42.2889884 14.0971191,41.8518223 C13.9799792,41.4146562 14.1710587,40.9533139 14.563,40.727 L15.429,40.227 C15.7389415,40.0352512 16.1286593,40.02731 16.4461547,40.2062737 C16.7636501,40.3852374 16.9586382,40.7227618 16.9550692,41.0872047 C16.9515002,41.4516475 16.7499394,41.7852885 16.429,41.958 L15.563,42.458 C15.4113972,42.5468854 15.2387378,42.5935035 15.063,42.593 Z" id="Shape" fill="#2C2F38"/><path d="M5.5,40.03 C5.14238627,40.0303484 4.81180678,39.8397028 4.633,39.53 L4.133,38.665 C3.95151562,38.3554296 3.94981669,37.9723505 4.12854814,37.6611826 C4.30727959,37.3500146 4.63903661,37.158469 4.9978817,37.1592579 C5.35672679,37.1600468 5.68763842,37.3530492 5.865,37.665 L6.365,38.53 C6.54354148,38.8392425 6.54363929,39.2202222 6.36525662,39.5295563 C6.18687394,39.8388904 5.8570824,40.029634 5.5,40.03 Z" id="Shape" fill="#2C2F38"/><path d="M13,53.021 C12.6423863,53.0213484 12.3118068,52.8307028 12.133,52.521 L11.633,51.655 C11.3613097,51.17714 11.5262584,50.5695795 12.0023057,50.2947255 C12.478353,50.0198714 13.0869942,50.1807864 13.365,50.655 L13.865,51.521 C14.0435415,51.8302425 14.0436393,52.2112222 13.8652566,52.5205563 C13.6868739,52.8298904 13.3570824,53.020634 13,53.021 Z" id="Shape" fill="#2C2F38"/><path d="M35.73,23.82 C36.6948509,23.5609784 37.6729289,23.3540131 38.66,23.2 C39.1036532,23.1329701 39.5513548,23.0962185 40,23.09 C41.9854369,23.070285 43.9031878,23.810909 45.36,25.16 C45.9830796,25.7315116 46.5308212,26.3800645 46.99,27.09 C47.3771081,27.6851752 47.7021426,28.3184898 47.96,28.98 C40.87,30.52 38.48,36.64 38.03,44.09 L23.3,44.09 C23.103884,44.0890041 22.9124731,44.0298407 22.75,43.92 L20,42.09 L16.89,35.09 L35.73,23.82 Z" id="Shape" fill="#95A5A5"/><path d="M39,27.51 L39,28.53 C39.0017148,28.8809158 38.8145295,29.2056251 38.51,29.38 L34,32.09 L26,35.09 L14.49,35.09 C14.1673271,35.0914157 13.8465391,35.040765 13.54,34.94 L8.68,33.32 C8.27535339,33.1788492 8.00313712,32.7985471 8,32.37 L8,31.94 C8.001417,31.4483838 7.64528511,31.0286569 7.16,30.95 L3.35,30.32 C2.56977192,30.1876994 1.99911473,29.511365 2,28.72 L2,28.71 C2.0032904,27.8166652 2.72666518,27.0932904 3.62,27.09 L8.85,27.09 C8.95,27.09 9.05,27.1 9.15,27.11 L20.77,28.9 L26,27.11 C27.03,26.71 28.08,26.32 29.12,25.95 C31.46,25.11 33.76,24.35 35.73,23.82 L38.71,26.8 C38.8941958,26.9906836 38.9980257,27.2448879 39,27.51 Z" id="Shape" fill="#71C285"/><path d="M9,53.093 C4.581722,53.093 1,49.511278 1,45.093 C1,40.674722 4.581722,37.093 9,37.093 C13.418278,37.093 17,40.674722 17,45.093 C16.9950401,49.5092219 13.4162219,53.0880401 9,53.093 Z M9,39.093 C5.6862915,39.093 3,41.7792915 3,45.093 C3,48.4067085 5.6862915,51.093 9,51.093 C12.3137085,51.093 15,48.4067085 15,45.093 C14.9966926,41.7806624 12.3123376,39.0963074 9,39.093 Z" id="Shape" fill="#2C2F38"/><path d="M9,49.093 C6.790861,49.093 5,47.302139 5,45.093 C5,42.883861 6.790861,41.093 9,41.093 C11.209139,41.093 13,42.883861 13,45.093 C13,47.302139 11.209139,49.093 9,49.093 Z M9,43.093 C7.8954305,43.093 7,43.9884305 7,45.093 C7,46.1975695 7.8954305,47.093 9,47.093 C10.1045695,47.093 11,46.1975695 11,45.093 C11,43.9884305 10.1045695,43.093 9,43.093 Z" id="Shape" fill="#D1D4D1"/><path d="M51.5,53.093 C47.081722,53.093 43.5,49.511278 43.5,45.093 C43.5,40.674722 47.081722,37.093 51.5,37.093 C55.918278,37.093 59.5,40.674722 59.5,45.093 C59.4950401,49.5092219 55.9162219,53.0880401 51.5,53.093 Z M51.5,39.093 C48.1862915,39.093 45.5,41.7792915 45.5,45.093 C45.5,48.4067085 48.1862915,51.093 51.5,51.093 C54.8137085,51.093 57.5,48.4067085 57.5,45.093 C57.4966926,41.7806624 54.8123376,39.0963074 51.5,39.093 Z" id="Shape" fill="#2C2F38"/><path d="M51.5,49.093 C49.290861,49.093 47.5,47.302139 47.5,45.093 C47.5,42.883861 49.290861,41.093 51.5,41.093 C53.709139,41.093 55.5,42.883861 55.5,45.093 C55.5,47.302139 53.709139,49.093 51.5,49.093 Z M51.5,43.093 C50.3954305,43.093 49.5,43.9884305 49.5,45.093 C49.5,46.1975695 50.3954305,47.093 51.5,47.093 C52.6045695,47.093 53.5,46.1975695 53.5,45.093 C53.5,43.9884305 52.6045695,43.093 51.5,43.093 Z" id="Shape" fill="#D1D4D1"/><path d="M51.5,39.093 C50.9477153,39.093 50.5,38.6452847 50.5,38.093 L50.5,37.093 C50.5,36.5407153 50.9477153,36.093 51.5,36.093 C52.0522847,36.093 52.5,36.5407153 52.5,37.093 L52.5,38.093 C52.5,38.6452847 52.0522847,39.093 51.5,39.093 Z" id="Shape" fill="#2C2F38"/><path d="M51.5,54.093 C50.9477153,54.093 50.5,53.6452847 50.5,53.093 L50.5,52.093 C50.5,51.5407153 50.9477153,51.093 51.5,51.093 C52.0522847,51.093 52.5,51.5407153 52.5,52.093 L52.5,53.093 C52.5,53.6452847 52.0522847,54.093 51.5,54.093 Z" id="Shape" fill="#2C2F38"/><path d="M59.5,46.093 L58.5,46.093 C57.9477153,46.093 57.5,45.6452847 57.5,45.093 C57.5,44.5407153 57.9477153,44.093 58.5,44.093 L59.5,44.093 C60.0522847,44.093 60.5,44.5407153 60.5,45.093 C60.5,45.6452847 60.0522847,46.093 59.5,46.093 Z" id="Shape" fill="#2C2F38"/><path d="M44.5,46.093 L43.5,46.093 C42.9477153,46.093 42.5,45.6452847 42.5,45.093 C42.5,44.5407153 42.9477153,44.093 43.5,44.093 L44.5,44.093 C45.0522847,44.093 45.5,44.5407153 45.5,45.093 C45.5,45.6452847 45.0522847,46.093 44.5,46.093 Z" id="Shape" fill="#2C2F38"/><path d="M45.437,42.593 C45.2613005,42.5932123 45.0887162,42.5466146 44.937,42.458 L44.072,41.958 C43.7510606,41.7852885 43.5494998,41.4516475 43.5459308,41.0872047 C43.5423618,40.7227618 43.7373499,40.3852374 44.0548453,40.2062737 C44.3723407,40.02731 44.7620585,40.0352512 45.072,40.227 L45.937,40.727 C46.3289413,40.9533139 46.5200208,41.4146562 46.4028809,41.8518223 C46.2857411,42.2889884 45.8895881,42.5929801 45.437,42.593 Z" id="Shape" fill="#2C2F38"/><path d="M58.427,50.093 C58.2512622,50.0935035 58.0786028,50.0468854 57.927,49.958 L57.061,49.458 C56.7400606,49.2852885 56.5384998,48.9516475 56.5349308,48.5872047 C56.5313618,48.2227618 56.7263499,47.8852374 57.0438453,47.7062737 C57.3613407,47.52731 57.7510585,47.5352512 58.061,47.727 L58.927,48.227 C59.3189413,48.4533139 59.5100208,48.9146562 59.3928809,49.3518223 C59.2757411,49.7889884 58.8795881,50.0929801 58.427,50.093 Z" id="Shape" fill="#2C2F38"/><path d="M55,40.03 C54.6429176,40.029634 54.3131261,39.8388904 54.1347434,39.5295563 C53.9563607,39.2202222 53.9564585,38.8392425 54.135,38.53 L54.635,37.665 C54.9130058,37.1907864 55.521647,37.0298714 55.9976943,37.3047255 C56.4737416,37.5795795 56.6386903,38.18714 56.367,38.665 L55.867,39.53 C55.6881932,39.8397028 55.3576137,40.0303484 55,40.03 Z" id="Shape" fill="#2C2F38"/><path d="M47.5,53.021 C47.1429176,53.020634 46.8131261,52.8298904 46.6347434,52.5205563 C46.4563607,52.2112222 46.4564585,51.8302425 46.635,51.521 L47.135,50.655 C47.3123616,50.3430492 47.6432732,50.1500468 48.0021183,50.1492579 C48.3609634,50.148469 48.6927204,50.3400146 48.8714519,50.6511826 C49.0501833,50.9623505 49.0484844,51.3454296 48.867,51.655 L48.367,52.521 C48.1881932,52.8307028 47.8576137,53.0213484 47.5,53.021 Z" id="Shape" fill="#2C2F38"/><path d="M44.573,50.093 C44.1204119,50.0929801 43.7242589,49.7889884 43.6071191,49.3518223 C43.4899792,48.9146562 43.6810587,48.4533139 44.073,48.227 L44.938,47.727 C45.2479415,47.5352512 45.6376593,47.52731 45.9551547,47.7062737 C46.2726501,47.8852374 46.4676382,48.2227618 46.4640692,48.5872047 C46.4605002,48.9516475 46.2589394,49.2852885 45.938,49.458 L45.073,49.958 C44.9213972,50.0468854 44.7487378,50.0935035 44.573,50.093 Z" id="Shape" fill="#2C2F38"/><path d="M57.563,42.593 C57.1104119,42.5929801 56.7142589,42.2889884 56.5971191,41.8518223 C56.4799792,41.4146562 56.6710587,40.9533139 57.063,40.727 L57.929,40.227 C58.2389415,40.0352512 58.6286593,40.02731 58.9461547,40.2062737 C59.2636501,40.3852374 59.4586382,40.7227618 59.4550692,41.0872047 C59.4515002,41.4516475 59.2499394,41.7852885 58.929,41.958 L58.063,42.458 C57.9113972,42.5468854 57.7387378,42.5935035 57.563,42.593 Z" id="Shape" fill="#2C2F38"/><path d="M48,40.03 C47.6423863,40.0303484 47.3118068,39.8397028 47.133,39.53 L46.633,38.665 C46.4515156,38.3554296 46.4498167,37.9723505 46.6285481,37.6611826 C46.8072796,37.3500146 47.1390366,37.158469 47.4978817,37.1592579 C47.8567268,37.1600468 48.1876384,37.3530492 48.365,37.665 L48.865,38.53 C49.0435415,38.8392425 49.0436393,39.2202222 48.8652566,39.5295563 C48.6868739,39.8388904 48.3570824,40.029634 48,40.03 Z" id="Shape" fill="#2C2F38"/><path d="M55.5,53.021 C55.1423863,53.0213484 54.8118068,52.8307028 54.633,52.521 L54.133,51.655 C53.9515156,51.3454296 53.9498167,50.9623505 54.1285481,50.6511826 C54.3072796,50.3400146 54.6390366,50.148469 54.9978817,50.1492579 C55.3567268,50.1500468 55.6876384,50.3430492 55.865,50.655 L56.365,51.521 C56.5435415,51.8302425 56.5436393,52.2112222 56.3652566,52.5205563 C56.1868739,52.8298904 55.8570824,53.020634 55.5,53.021 Z" id="Shape" fill="#2C2F38"/><path d="M9,46.09 C8.49889241,46.0898748 8.07525011,45.7188756 8.00902187,45.2221638 C7.94279362,44.7254519 8.25443115,44.2564154 8.738,44.125 L20.738,40.125 C21.2709548,39.9797492 21.8207491,40.2940453 21.9659999,40.827 C22.1112508,41.3599548 21.7969547,41.9097491 21.264,42.055 L9.264,46.055 C9.17795398,46.0783845 9.08916686,46.0901556 9,46.09 Z" id="Shape" fill="#95A5A5"/><path d="M57.79,32.12 C57.3753689,33.0433551 56.3362679,33.5113799 55.37,33.21 C51.8705031,32.0640843 48.0436128,32.5215922 44.9128684,34.4601588 C41.7821239,36.3987253 39.6669242,39.6205777 39.133,43.264 C39.0540025,43.7445611 38.6359802,44.0954619 38.149,44.09 L35.03,44.0900629 C35.4795444,36.7299834 40.757904,30.5616915 47.96,28.98 C49.1217228,28.7181478 50.309135,28.5873312 51.5,28.59 C53.2067355,28.5906434 54.9032245,28.8537172 56.53,29.37 C57.0822394,29.5398223 57.5357043,29.93734 57.7763655,30.4625925 C58.0170266,30.9878451 58.0219873,31.5908593 57.79,32.12 Z" id="Shape" fill="#4C8056"/><path d="M29.96,4.67 C29.4826463,5.10537014 29.3974554,5.82523361 29.76,6.36 L32.12,9.8 L32.12,9.81 C31.5517458,10.3718975 30.936136,10.8837905 30.28,11.34 C29.8675414,11.6257367 29.3071939,11.5615747 28.97,11.19 L28.87,11.08 L27.5,9.58 L27.48,9.55 L25.99,7.93 L25.94,7.87 L24.83,6.65 L24.43,6.21 C24.2537524,6.01648148 24.1604057,5.76157332 24.17,5.5 L24.27,3.37 C24.2790614,3.18145558 24.337701,2.99863804 24.44,2.84 C25.23,1.75 28.68,-2.48 32.82,2.06 C33.8461898,3.04805173 34.3841017,4.43857233 34.29,5.86 L31.4,4.46 C31.2260692,4.37346677 31.0342648,4.32894073 30.84,4.33 C30.5146392,4.33020867 30.2009804,4.451395 29.96,4.67 Z" id="Shape" fill="#E6E7E8"/><path d="M34.29,5.86 C34.0393297,7.38312545 33.2732886,8.77400191 32.12,9.8 L29.76,6.36 C29.4892607,5.96105995 29.4615457,5.44504626 29.6879967,5.0194022 C29.9144478,4.59375814 30.3578689,4.32839819 30.84,4.33 C31.0342648,4.32894073 31.2260692,4.37346677 31.4,4.46 L34.29,5.86 Z" id="Shape" fill="#35495E"/><path d="M49,22.59 C49,25.08 48.1,27.09 47,27.09 L46.99,27.09 L45.36,25.16 C45.1124116,24.3261007 44.9910666,23.4598323 45,22.59 C45,20.1 45.9,18.09 47,18.09 C48.1,18.09 49,20.1 49,22.59 Z" id="Shape" fill="#F9EAB0"/><path d="M42.591,20.553 C42.2762427,20.553 41.9798544,20.4048058 41.791,20.153 L40.821,18.853 C40.2070427,18.03361 39.0717143,17.8134644 38.196,18.344 L37.206,18.935 C36.8991089,19.1180986 36.5178478,19.1235642 36.2058342,18.949338 C35.8938206,18.7751118 35.6984567,18.4476629 35.6933342,18.090338 C35.6882117,17.7330132 35.8741089,17.4000986 36.181,17.217 L37.17,16.627 C38.9256094,15.5692547 41.1971123,16.0141303 42.424,17.656 L43.395,18.956 C43.6222632,19.2590176 43.6588192,19.6644296 43.4894272,20.0032136 C43.3200352,20.3419976 42.9737721,20.556 42.595,20.556 L42.591,20.553 Z" id="Shape" fill="#4C8056"/><path d="M32,39.09 C31.9447136,39.0897649 31.8895357,39.0850831 31.835,39.076 C31.5733489,39.032402 31.3397399,38.8866334 31.1855792,38.670771 C31.0314186,38.4549086 30.9693385,38.1866405 31.013,37.925 L32.013,31.925 C32.1166743,31.3933512 32.6247949,31.0408964 33.1590733,31.1300331 C33.6933517,31.2191698 34.0595328,31.7174894 33.985,32.254 L32.985,38.254 C32.9048963,38.735827 32.4884397,39.0892866 32,39.09 Z" id="Shape" fill="#2C2F38"/><path d="M47,57 L8,57 C7.44771525,57 7,56.5522847 7,56 C7,55.4477153 7.44771525,55 8,55 L47,55 C47.5522847,55 48,55.4477153 48,56 C48,56.5522847 47.5522847,57 47,57 Z" id="Shape" fill="#805333"/><path d="M4,57 L1,57 C0.44771525,57 6.76353751e-17,56.5522847 0,56 C-6.76353751e-17,55.4477153 0.44771525,55 1,55 L4,55 C4.55228475,55 5,55.4477153 5,56 C5,56.5522847 4.55228475,57 4,57 Z" id="Shape" fill="#805333"/><path d="M23.369,10.047 C22.9332399,9.66760001 22.3546945,9.49518884 21.7823357,9.57416131 C21.209977,9.65313379 20.6997372,9.97577253 20.383,10.459 L13.25,21.343 L12.605,22.343 C12.0942811,23.1390271 11.9888427,24.1292809 12.3204955,25.0150006 C12.6521483,25.9007203 13.3820543,26.5781839 14.29,26.843 L16.33,27.436 L17.42,27.746 L20.279,28.576 C20.7064188,28.7001808 21.0003155,29.0919072 21,29.537 L21,35.586 C20.9998718,36.2941941 21.3001118,36.9692144 21.8261384,37.443382 C22.3521651,37.9175496 23.0546166,38.1463689 23.759,38.073 C25.0628097,37.8914795 26.0252328,36.7641432 26,35.448 L26,27.3 C25.9999272,25.9651842 25.1179409,24.7909687 23.836,24.419 L21,23.593 L20.29,23.383 L23,19.243 L24.41,17.093 L24.79,16.523 L23.87,15.703 L24.79,16.523 L25.44,17.093 L28.8,20.082 C29.5322511,20.7332042 30.4780722,21.0929578 31.458,21.093 L35,21.093 C35.2680598,21.092133 35.5332466,21.0377357 35.78,20.933 C36.0181164,20.8359634 36.2328685,20.6893866 36.41,20.503 C36.833368,20.0888163 37.047216,19.5056947 36.992,18.916 C36.8629726,17.8597705 35.9558804,17.072328 34.892,17.093 L31.834,17.093 C31.592823,17.092789 31.3598474,17.0054232 31.178,16.847 L23.369,10.047 Z" id="Shape" fill="#BDC3C7"/><circle id="Oval" fill="#D1D4D1" cx="31" cy="38.093" r="2"/></g></g></svg>
