<svg id="Flat" height="512" viewBox="0 0 512 512" width="512" xmlns="http://www.w3.org/2000/svg"><path d="m184 280a32 32 0 0 0 -32-32h-24l-8-16h-32l8.706 26.119a32 32 0 0 0 30.358 21.881h8.936l48 128h48z" fill="#f7cca9"/><path d="m448 200v-80a96 96 0 0 0 -96-96 96 96 0 0 0 -96 96v80a32 32 0 0 0 -32 32v16a32 32 0 0 0 32 32h192a32 32 0 0 0 32-32v-16a32 32 0 0 0 -32-32z" fill="#ad6643"/><path d="m440 264h-163.62a32 32 0 0 0 -29 18.468l-47.38 93.532 40 32 40-48v128h192v-192a32 32 0 0 0 -32-32z" fill="#f7b030"/><path d="m280 368a8 8 0 0 1 -8-8v-32a8 8 0 0 1 16 0v32a8 8 0 0 1 -8 8z" fill="#eba72e"/><path d="m408 488v-160a8 8 0 0 1 16 0v160z" fill="#eba72e"/><path d="m424 392h48v96h-48z" fill="#f7cca9"/><g fill="#edc4a2"><path d="m288 184a32 32 0 0 1 -32-32 32 32 0 0 1 32-32h8v64z"/><path d="m416 120a32 32 0 0 1 32 32 32 32 0 0 1 -32 32h-8v-64z"/><path d="m328 216h48a0 0 0 0 1 0 0v48a16 16 0 0 1 -16 16h-16a16 16 0 0 1 -16-16v-48a0 0 0 0 1 0 0z"/></g><path d="m384 88-96 32v48a64 64 0 0 0 64 64 64 64 0 0 0 64-64v-48z" fill="#f7cca9"/><circle cx="320" cy="152" fill="#4f5659" r="8"/><circle cx="384" cy="152" fill="#4f5659" r="8"/><path d="m232 328h-144l-16 160h176z" fill="#c7312e"/><path d="m192 328h-144l-16 160h176z" fill="#eb423f"/><path d="m97.7 260.73a23.171 23.171 0 0 0 -2.67 2.3 23.851 23.851 0 0 0 -7.03 16.97v64a8 8 0 0 1 -16 0v-64a39.766 39.766 0 0 1 11.71-28.29 40.876 40.876 0 0 1 7.01-5.59 7.476 7.476 0 0 1 1.72-.81l4.27 12.81q.45 1.335.99 2.61z" fill="#4f5659"/><path d="m160 352a8 8 0 0 1 -8-8v-64a23.992 23.992 0 0 0 -24-24 8 8 0 0 1 0-16 39.991 39.991 0 0 1 40 40v64a8 8 0 0 1 -8 8z" fill="#4f5659"/></svg>