<svg height="512pt" viewBox="-72 0 512 512" width="512pt" xmlns="http://www.w3.org/2000/svg"><path d="m30.585938 450.972656v-350h308.195312v350zm0 0" fill="#2698d1"/><path d="m184.882812 100.972656h153.898438v350h-153.898438zm0 0" fill="#1a82c7"/><path d="m15.585938 512c-3.972657 0-7.785157-1.578125-10.597657-4.386719-2.816406-2.8125-4.402343-6.632812-4.402343-10.613281v-60c0-8.277344 6.703124-14.988281 14.980468-15l338.195313-.503906h.019531c3.976562 0 7.789062 1.578125 10.601562 4.386718 2.816407 2.8125 4.398438 6.632813 4.398438 10.613282v60c0 8.277344-6.699219 14.988281-14.976562 15l-338.195313.503906c-.007813 0-.015625 0-.023437 0zm0 0" fill="#53b7f5"/><path d="m353.78125 421.496094c-.003906 0-.011719 0-.019531 0l-168.878907.25v90l168.921876-.25c8.277343-.011719 14.980468-6.722656 14.980468-15v-60c0-3.980469-1.585937-7.800782-4.402344-10.613282-2.8125-2.808593-6.625-4.386718-10.601562-4.386718zm0 0" fill="#37a8e5"/><path d="m259.6875 376.980469h-150c-8.285156 0-15-6.714844-15-15v-90.960938c0-8.285156 6.714844-15 15-15h150c8.28125 0 15 6.714844 15 15v90.960938c0 8.285156-6.71875 15-15 15zm0 0" fill="#edeade"/><path d="m259.6875 256.019531h-74.804688v120.960938h74.804688c8.28125 0 15-6.714844 15-15v-90.960938c0-8.285156-6.71875-15-15-15zm0 0" fill="#c4c0ad"/><path d="m99.976562 259.597656 84.707032 57.234375 85.101562-56.875c-1.652344-1.511719-3.636718-2.660156-5.84375-3.3125l-155.273437-.574219c-3.304688.222657-6.316407 1.507813-8.691407 3.527344zm0 0" fill="#fff"/><path d="m184.882812 316.699219 84.90625-56.742188c-1.65625-1.511719-3.640624-2.660156-5.84375-3.3125l-79.0625-.292969zm0 0" fill="#edeade"/><path d="m353.214844 130.085938h-338.214844c-4.003906 0-7.84375-1.601563-10.660156-4.445313s-4.3789065-6.699219-4.339844-10.703125l.0195312-1.96875c.3007808-30.265625 12.3124998-58.65625 33.8164068-79.949219 21.503906-21.292969 50.015624-33.019531 80.28125-33.019531h140.003906c30.691406 0 59.484375 12.011719 81.078125 33.820312 21.597656 21.808594 33.320312 50.726563 33.015625 81.414063-.082032 8.226563-6.773438 14.851563-15 14.851563zm0 0" fill="#53b7f5"/><path d="m254.121094 0h-69.238282v130.085938h168.332032c8.226562 0 14.917968-6.625 15-14.851563.304687-30.6875-11.417969-59.601563-33.015625-81.414063-21.59375-21.808593-50.386719-33.820312-81.078125-33.820312zm0 0" fill="#37a8e5"/><path d="m253.6875 201.003906h-138.003906c-8.28125 0-15-6.714844-15-15 0-8.28125 6.71875-15 15-15h138.003906c8.285156 0 15 6.71875 15 15 0 8.285156-6.714844 15-15 15zm0 0" fill="#125994"/><path d="m253.6875 171.003906h-68.804688v30h68.804688c8.285156 0 15-6.714844 15-15 0-8.28125-6.714844-15-15-15zm0 0" fill="#002c61"/></svg>