<?xml version="1.0" encoding="iso-8859-1"?>
<!-- Generator: Adobe Illustrator 19.0.0, SVG Export Plug-In . SVG Version: 6.00 Build 0)  -->
<svg version="1.1" id="Capa_1" xmlns="http://www.w3.org/2000/svg" xmlns:xlink="http://www.w3.org/1999/xlink" x="0px" y="0px"
	 viewBox="0 0 512 512" style="enable-background:new 0 0 512 512;" xml:space="preserve">
<path style="fill:#F44336;" d="M509.728,327.776l-48-80C458.848,242.944,453.632,240,448,240H336c-8.832,0-16,7.168-16,16v160
	c0,8.832,7.168,16,16,16h160c8.832,0,16-7.168,16-16v-80C512,333.088,511.232,330.24,509.728,327.776z"/>
<polygon style="fill:#FAFAFA;" points="384,272 438.944,272 477.344,336 384,336 "/>
<path style="fill:#FFC107;" d="M336,176H48c-8.832,0-16,7.168-16,16v224c0,8.832,7.168,16,16,16h304V192
	C352,183.168,344.832,176,336,176z"/>
<circle style="fill:#FAFAFA;" cx="432" cy="416" r="32"/>
<path style="fill:#455A64;" d="M432,464c-26.464,0-48-21.536-48-48s21.536-48,48-48s48,21.536,48,48S458.464,464,432,464z M432,400
	c-8.8,0-16,7.2-16,16s7.2,16,16,16s16-7.2,16-16S440.8,400,432,400z"/>
<path style="fill:#F44336;" d="M352,432H48c-8.832,0-16-7.168-16-16v-48h320V432z"/>
<circle style="fill:#FAFAFA;" cx="144" cy="416" r="32"/>
<path style="fill:#455A64;" d="M144,464c-26.464,0-48-21.536-48-48s21.536-48,48-48s48,21.536,48,48S170.464,464,144,464z M144,400
	c-8.832,0-16,7.2-16,16s7.168,16,16,16s16-7.2,16-16S152.832,400,144,400z"/>
<path style="fill:#FAFAFA;" d="M112,304c73.92,0,134.304-56.192,142.368-128H48c-8.832,0-16,7.168-16,16v87.616
	C54.912,294.976,82.4,304,112,304z"/>
<circle style="fill:#F44336;" cx="112" cy="160" r="112"/>
<path style="fill:#FAFAFA;" d="M144,208c-4.096,0-8.192-1.568-11.328-4.672l-32-32C97.696,168.32,96,164.256,96,160v-48
	c0-8.832,7.168-16,16-16s16,7.168,16,16v41.376l27.328,27.328c6.24,6.24,6.24,16.384,0,22.624C152.192,206.432,148.096,208,144,208z
	"/>
<g>
</g>
<g>
</g>
<g>
</g>
<g>
</g>
<g>
</g>
<g>
</g>
<g>
</g>
<g>
</g>
<g>
</g>
<g>
</g>
<g>
</g>
<g>
</g>
<g>
</g>
<g>
</g>
<g>
</g>
</svg>
