<?xml version="1.0" encoding="iso-8859-1"?>
<!-- Generator: Adobe Illustrator 19.0.0, SVG Export Plug-In . SVG Version: 6.00 Build 0)  -->
<svg version="1.1" id="Layer_1" xmlns="http://www.w3.org/2000/svg" xmlns:xlink="http://www.w3.org/1999/xlink" x="0px" y="0px"
	 viewBox="0 0 503.322 503.322" style="enable-background:new 0 0 503.322 503.322;" xml:space="preserve">
<g>
	<g>
		<path style="fill:#797979;" d="M112.814,377.492c0-23.96-19.43-43.39-43.39-43.39s-43.39,19.43-43.39,43.39
			c0,23.96,19.43,43.39,43.39,43.39S112.814,401.451,112.814,377.492"/>
		<path style="fill:#797979;" d="M199.593,377.492c0-23.96-19.43-43.39-43.39-43.39s-43.39,19.43-43.39,43.39
			c0,23.96,19.43,43.39,43.39,43.39S199.593,401.451,199.593,377.492"/>
		<path style="fill:#797979;" d="M477.288,377.492c0-23.96-19.43-43.39-43.39-43.39c-23.96,0-43.39,19.43-43.39,43.39
			c0,23.96,19.43,43.39,43.39,43.39C457.858,420.881,477.288,401.451,477.288,377.492"/>
	</g>
	<g>
		<path style="fill:#C0C0C0;" d="M69.424,394.847c-9.58,0-17.356-7.775-17.356-17.356s7.775-17.356,17.356-17.356
			s17.356,7.775,17.356,17.356S79.004,394.847,69.424,394.847"/>
		<path style="fill:#C0C0C0;" d="M156.203,394.847c-9.58,0-17.356-7.775-17.356-17.356s7.775-17.356,17.356-17.356
			s17.356,7.775,17.356,17.356S165.784,394.847,156.203,394.847"/>
		<path style="fill:#C0C0C0;" d="M433.898,394.847c-9.58,0-17.356-7.775-17.356-17.356s7.775-17.356,17.356-17.356
			s17.356,7.775,17.356,17.356S443.479,394.847,433.898,394.847"/>
	</g>
	<polygon style="fill:#FFD479;" points="8.682,308.068 373.157,308.068 373.157,82.441 8.682,82.441 	"/>
	<path style="fill:#F16E5B;" d="M494.644,308.068H373.153V134.508h74.344c26.043,0,47.147,21.105,47.147,47.147V308.068z"/>
	<path style="fill:#B1D3F0;" d="M399.186,238.644v-78.102h40.561c15.941,0,28.863,12.921,28.863,28.863v49.239H399.186z"/>
	<g>
		<path style="fill:#E2B566;" d="M60.746,282.034c-4.799,0-8.678-3.879-8.678-8.678V117.153c0-4.799,3.879-8.678,8.678-8.678
			s8.678,3.879,8.678,8.678v156.203C69.424,278.155,65.545,282.034,60.746,282.034"/>
		<path style="fill:#E2B566;" d="M112.814,282.034c-4.799,0-8.678-3.879-8.678-8.678V117.153c0-4.799,3.879-8.678,8.678-8.678
			c4.799,0,8.678,3.879,8.678,8.678v156.203C121.492,278.155,117.612,282.034,112.814,282.034"/>
		<path style="fill:#E2B566;" d="M164.881,282.034c-4.799,0-8.678-3.879-8.678-8.678V117.153c0-4.799,3.879-8.678,8.678-8.678
			c4.799,0,8.678,3.879,8.678,8.678v156.203C173.559,278.155,169.68,282.034,164.881,282.034"/>
		<path style="fill:#E2B566;" d="M216.949,282.034c-4.799,0-8.678-3.879-8.678-8.678V117.153c0-4.799,3.879-8.678,8.678-8.678
			c4.799,0,8.678,3.879,8.678,8.678v156.203C225.627,278.155,221.748,282.034,216.949,282.034"/>
		<path style="fill:#E2B566;" d="M269.017,282.034c-4.799,0-8.678-3.879-8.678-8.678V117.153c0-4.799,3.879-8.678,8.678-8.678
			c4.799,0,8.678,3.879,8.678,8.678v156.203C277.695,278.155,273.816,282.034,269.017,282.034"/>
		<path style="fill:#E2B566;" d="M321.085,282.034c-4.799,0-8.678-3.879-8.678-8.678V117.153c0-4.799,3.879-8.678,8.678-8.678
			s8.678,3.879,8.678,8.678v156.203C329.763,278.155,325.884,282.034,321.085,282.034"/>
	</g>
	<g>
		<path style="fill:#C14A3E;" d="M0,308.068v69.424h26.034c0-23.96,19.43-43.39,43.39-43.39s43.39,19.43,43.39,43.39
			c0-23.96,19.43-43.39,43.39-43.39s43.39,19.43,43.39,43.39h190.915c0-23.96,19.43-43.39,43.39-43.39
			c23.96,0,43.39,19.43,43.39,43.39h26.034v-69.424H0z"/>
		<path style="fill:#C14A3E;" d="M416.542,273.356h-17.356c-4.799,0-8.678-3.879-8.678-8.678c0-4.799,3.879-8.678,8.678-8.678
			h17.356c4.799,0,8.678,3.879,8.678,8.678C425.22,269.477,421.341,273.356,416.542,273.356"/>
	</g>
</g>
<g>
</g>
<g>
</g>
<g>
</g>
<g>
</g>
<g>
</g>
<g>
</g>
<g>
</g>
<g>
</g>
<g>
</g>
<g>
</g>
<g>
</g>
<g>
</g>
<g>
</g>
<g>
</g>
<g>
</g>
</svg>
