

<svg height="512" viewBox="0 0 58 58" width="512" xmlns="http://www.w3.org/2000/svg"><g id="Page-1" fill="none" fill-rule="evenodd"><g id="006---Secure-Payment" fill-rule="nonzero"><path id="Shape" d="m50 31.7v22.3c0 2.209139-1.790861 4-4 4h-42c-2.209139 0-4-1.790861-4-4v-24c0-2.209139 1.790861-4 4-4h27.34z" fill="#3b97d3"/><path id="Shape" d="m58 5.68v8.07c-.0025694 6.8466445-2.9102016 13.3706442-8 17.95-1.8890576 1.7063728-4.0311428 3.1096916-6.35 4.16-.4125151.1899604-.8874849.1899604-1.3 0-4.1593666-1.8801967-7.7123208-4.8825469-10.26-8.67-.26-.39-.51-.78-.75-1.19-2.1859157-3.7123823-3.3390977-7.9418671-3.34-12.25v-8.07c-.0023846-.8280048.6433134-1.51323532 1.47-1.56 2.76-.18 8.76-.9 12.54-3.78.5833253-.44991235 1.3966747-.44991235 1.98 0 3.78 2.88 9.78 3.6 12.54 3.78.8266866.04676468 1.4723846.7319952 1.47 1.56z" fill="#bdc3c7"/><path id="Shape" d="m43.487 31.47c-.3046031.1670374-.6733969.1670374-.978 0-2.8500259-1.5767458-5.2837737-3.8092809-7.1-6.513-2.2254895-3.312809-3.412407-7.2140734-3.409-11.205v-4.978c.0001878-.49344879.3602848-.91299581.848-.988 3.375694-.41604629 6.649094-1.43559657 9.664-3.01.3028861-.17091332.6731139-.17091332.976 0 3.014906 1.57440343 6.288306 2.59395371 9.664 3.01.4877152.07500419.8478122.49455121.848.988v4.978c-.0273465 7.3767512-4.05156 14.1589271-10.513 17.718z" fill="#4fba6f"/><path id="Shape" d="m43 32.6c-.3398454.0005486-.6742758-.0851234-.972-.249-2.9863796-1.6569316-5.5379852-3.9974455-7.446-6.83-2.3392205-3.4788228-3.5864909-7.5768478-3.582-11.769v-4.978c.0021142-.98939956.7273462-1.82856019 1.706-1.974 3.2546701-.39759878 6.4107094-1.38004984 9.316-2.9.6070061-.34390977 1.3499939-.34390977 1.957 0 2.9050581 1.51965245 6.0607146 2.50208977 9.315 2.9.9786538.14543981 1.7038858.98460044 1.706 1.974v4.978c-.0214632 7.7421896-4.2444142 14.8623884-11.028 18.594-.2973747.1653335-.6317571.2527133-.972.254zm.006-2c6.1474936-3.3804951 9.9746569-9.8323709 9.994-16.848v-4.978c-3.4967122-.42048023-6.8863591-1.48008383-10-3.126-3.1166145 1.64769198-6.5097461 2.70800321-10.01 3.128l.01 4.976c-.0041058 3.7925869 1.1236826 7.5001174 3.239 10.648 1.7303288 2.5708601 4.0447962 4.6954821 6.754 6.2z" fill="#ecf0f1"/><rect id="Rectangle-path" fill="#f3d55b" height="6" rx="2" width="8" x="5" y="31"/><path id="Shape" d="m11 38h-4c-1.65685425 0-3-1.3431458-3-3v-2c0-1.6568542 1.34314575-3 3-3h4c1.6568542 0 3 1.3431458 3 3v2c0 1.6568542-1.3431458 3-3 3zm-4-6c-.55228475 0-1 .4477153-1 1v2c0 .5522847.44771525 1 1 1h4c.5522847 0 1-.4477153 1-1v-2c0-.5522847-.4477153-1-1-1z" fill="#2980ba"/><g fill="#ecf0f1"><path id="Shape" d="m9 43h-4c-.55228475 0-1-.4477153-1-1s.44771525-1 1-1h4c.55228475 0 1 .4477153 1 1s-.44771525 1-1 1z"/><path id="Shape" d="m17 43h-4c-.5522847 0-1-.4477153-1-1s.4477153-1 1-1h4c.5522847 0 1 .4477153 1 1s-.4477153 1-1 1z"/><path id="Shape" d="m25 43h-4c-.5522847 0-1-.4477153-1-1s.4477153-1 1-1h4c.5522847 0 1 .4477153 1 1s-.4477153 1-1 1z"/><path id="Shape" d="m33 43h-4c-.5522847 0-1-.4477153-1-1s.4477153-1 1-1h4c.5522847 0 1 .4477153 1 1s-.4477153 1-1 1z"/><path id="Shape" d="m41 43h-4c-.5522847 0-1-.4477153-1-1s.4477153-1 1-1h4c.5522847 0 1 .4477153 1 1s-.4477153 1-1 1z"/><path id="Shape" d="m12 49h-3c-.55228475 0-1-.4477153-1-1s.44771525-1 1-1h3c.5522847 0 1 .4477153 1 1s-.4477153 1-1 1z"/><path id="Shape" d="m12 53h-7c-.55228475 0-1-.4477153-1-1s.44771525-1 1-1h7c.5522847 0 1 .4477153 1 1s-.4477153 1-1 1z"/></g><path id="Shape" d="m45 16c-.5522847 0-1-.4477153-1-1v-2c0-.5522847-.4477153-1-1-1s-1 .4477153-1 1v2c0 .5522847-.4477153 1-1 1s-1-.4477153-1-1v-2c0-1.6568542 1.3431458-3 3-3s3 1.3431458 3 3v2c0 .2652165-.1053568.5195704-.2928932.7071068s-.4418903.2928932-.7071068.2928932z" fill="#d1d4d1"/><path id="Shape" d="m45 54h-6c-.5522847 0-1-.4477153-1-1s.4477153-1 1-1h5v-4c0-.5522847.4477153-1 1-1s1 .4477153 1 1v5c0 .5522847-.4477153 1-1 1z" fill="#2980ba"/><rect id="Rectangle-path" fill="#f3d55b" height="8" rx="1" width="8" x="39" y="15"/><circle id="Oval" cx="43" cy="19" fill="#cb8252" r="1"/></g></g></svg>