<?xml version="1.0" encoding="UTF-8"?>
<!DOCTYPE svg PUBLIC "-//W3C//DTD SVG 1.1//EN" "http://www.w3.org/Graphics/SVG/1.1/DTD/svg11.dtd">
<!-- Creator: CorelDRAW 2019 (64-Bit) -->
<svg xmlns="http://www.w3.org/2000/svg" xml:space="preserve" width="368px" height="368px" version="1.1" style="shape-rendering:geometricPrecision; text-rendering:geometricPrecision; image-rendering:optimizeQuality; fill-rule:evenodd; clip-rule:evenodd"
viewBox="0 0 23.24 23.24"
 xmlns:xlink="http://www.w3.org/1999/xlink"
 xmlns:xodm="http://www.corel.com/coreldraw/odm/2003">
 <defs>
  <style type="text/css">
   <![CDATA[
    .fil1 {fill:none}
    .fil0 {fill:#01569F}
   ]]>
  </style>
 </defs>
 <g id="Layer_x0020_1">
  <metadata id="CorelCorpID_0Corel-Layer"/>
  <g id="_2348457475568">
   <path class="fil0" d="M17.36 19.18c-0.27,-0.38 -1.58,-1.91 -1.87,-2.06 -0.53,0.23 -1.73,1.71 -2.22,1.88 -0.17,-0.1 -3.47,-3.65 -3.6,-4.07 0.16,-0.28 0.16,-0.24 0.41,-0.44 0.18,-0.15 0.31,-0.24 0.44,-0.45 -0.08,-0.26 -1.46,-1.75 -1.83,-2.16 -0.28,-0.3 -0.44,-0.42 -0.61,-0.76 0.23,-0.46 0.5,-0.4 0.86,-0.89 -0.16,-0.61 -2.01,-2.13 -2.49,-2.93 0.15,-0.3 3.8,-3.56 4.07,-3.65 0.4,0.26 0.87,0.87 1.24,1.3 0.52,-0.14 1.71,-1.64 2.31,-1.84 0.29,0.18 0.44,0.43 0.64,0.62 0.33,0.33 0.39,0.46 0.69,0.58 0.22,-0.14 0.68,-0.51 0.77,-0.73 -1.02,-0.84 -3.5,-1.32 -5.21,-1.25 -5.18,0.2 -9.52,4.88 -8.96,10.47 0.54,5.47 5.86,9.28 10.77,8.4 1.52,-0.27 2.39,-0.5 3.64,-1.28 0.39,-0.24 0.77,-0.41 0.95,-0.74z"/>
   <path class="fil0" d="M11.4 15.11c0.16,0.33 1.77,2.05 1.96,2.21 0.31,-0.12 2.17,-1.82 2.26,-2.04 -0.38,-0.39 -1.59,-1.88 -2,-2.14 -0.35,0.14 -2.01,1.7 -2.22,1.97z"/>
   <path class="fil0" d="M9.8 11.2c0.13,0.33 1.74,2.05 1.96,2.21 0.44,-0.16 1.71,-1.53 2.25,-1.91 -0.14,-0.37 -0.68,-0.86 -0.94,-1.16 -0.19,-0.22 -0.76,-0.91 -1.04,-1.1 -0.35,0.12 -2.1,1.76 -2.23,1.96z"/>
   <path class="fil0" d="M8.19 7.39c0.21,0.35 1.73,2.02 1.97,2.15 0.29,-0.11 0.86,-0.69 1.13,-0.93 0.37,-0.33 0.85,-0.61 1.05,-1.04 -0.15,-0.3 -1.63,-2.03 -2,-2.17 -0.17,0.1 -0.11,0.05 -0.28,0.2 -0.1,0.09 -0.18,0.15 -0.28,0.25 -0.2,0.17 -0.37,0.35 -0.56,0.51 -0.43,0.38 -0.88,0.68 -1.03,1.03z"/>
   <path class="fil0" d="M15.36 13.24c0.16,0.37 1.19,1.45 1.46,1.66 0.36,-0.23 1.45,-1.18 1.62,-1.48 -0.09,-0.25 -1.18,-1.46 -1.44,-1.65 -0.27,0.1 -1.44,1.13 -1.64,1.47z"/>
   <path class="fil0" d="M12.36 6.24c0.09,0.32 1.12,1.43 1.44,1.66 0.34,-0.16 1.47,-1.21 1.63,-1.48 -0.19,-0.38 -1.19,-1.41 -1.45,-1.65 -0.24,0.12 -1.43,1.18 -1.62,1.47z"/>
   <path class="fil0" d="M13.89 9.7l1.42 1.62c0.32,-0.07 1.27,-1.1 1.7,-1.41 -0.12,-0.37 -1.05,-1.37 -1.43,-1.71 -0.31,0.08 -1.6,1.28 -1.69,1.5z"/>
   <path class="fil0" d="M16.84 16.7c0.14,0.27 1.31,1.49 1.49,1.59 0.24,-0.1 1.46,-1.18 1.62,-1.5l-1.44 -1.59c-0.32,0.1 -1.57,1.23 -1.67,1.5z"/>
   <path class="fil0" d="M16.07 5.39c0.15,0.49 0.48,0.61 0.88,1.16 0.26,-0.09 0.1,0.02 0.36,-0.17l0.82 -0.76c-0.13,-0.34 -0.7,-0.91 -0.96,-1.09 -0.43,0.14 -0.69,0.58 -1.1,0.86z"/>
   <path class="fil0" d="M18.93 12.15c0.14,0.3 0.8,0.96 1,1.13 0.27,-0.18 0.91,-0.71 1.07,-1.01 -0.17,-0.31 -0.69,-0.91 -0.99,-1.05l-1.08 0.93z"/>
   <path class="fil0" d="M17.53 8.81c0.12,0.34 0.75,0.98 0.98,1.08 0.22,-0.13 0.35,-0.27 0.54,-0.44 0.34,-0.29 0.31,-0.18 0.48,-0.55 -0.15,-0.28 -0.2,-0.32 -0.41,-0.53 -0.21,-0.21 -0.25,-0.33 -0.53,-0.49 -0.31,0.14 -0.9,0.66 -1.06,0.93z"/>
  </g>
  <rect class="fil1" width="23.24" height="23.24"/>
 </g>
</svg>
