<?xml version="1.0" encoding="UTF-8"?>


<!DOCTYPE svg PUBLIC "-//W3C//DTD SVG 1.1//EN" "http://www.w3.org/Graphics/SVG/1.1/DTD/svg11.dtd">

<svg xmlns="http://www.w3.org/2000/svg" xml:space="preserve" width="448px" height="448px" version="1.1" style="shape-rendering:geometricPrecision; text-rendering:geometricPrecision; image-rendering:optimizeQuality; fill-rule:evenodd; clip-rule:evenodd"
viewBox="0 0 23.23 23.23"
 xmlns:xlink="http://www.w3.org/1999/xlink"
 xmlns:xodm="http://www.corel.com/coreldraw/odm/2003">
 <defs>
  <style type="text/css">
   <![CDATA[
    .fil5 {fill:#FEFEFE}
    .fil2 {fill:#FEFEFE;fill-rule:nonzero}
    .fil3 {fill:#373435;fill-rule:nonzero}
    .fil1 {fill:#FAC02F;fill-rule:nonzero}
    .fil0 {fill:#404241;fill-rule:nonzero}
    .fil4 {fill:white;fill-rule:nonzero}
   ]]>
  </style>
 </defs>
 <g id="Layer_x0020_1">
  <metadata id="CorelCorpID_0Corel-Layer"/>
  <path class="fil0" d="M23.23 11.61c0,6.42 -5.2,11.62 -11.62,11.62 -6.41,0 -11.61,-5.2 -11.61,-11.62 0,-6.41 5.2,-11.61 11.61,-11.61 6.42,0 11.62,5.2 11.62,11.61z"/>
  <path class="fil1" d="M18.5 11.61c0,3.81 -3.08,6.89 -6.89,6.89 -3.8,0 -6.88,-3.08 -6.88,-6.89 0,-3.8 3.08,-6.88 6.88,-6.88 3.81,0 6.89,3.08 6.89,6.88z"/>
  <polygon class="fil0" points="9.2,6.05 9.44,6.78 10.21,6.78 9.58,7.23 9.82,7.97 9.2,7.51 8.57,7.97 8.81,7.23 8.19,6.78 8.96,6.78 "/>
  <polygon class="fil0" points="14.22,6.05 14.46,6.78 15.23,6.78 14.61,7.23 14.84,7.97 14.22,7.51 13.6,7.97 13.83,7.23 13.21,6.78 13.98,6.78 "/>
  <path class="fil2" d="M2.28 9.8c-0.01,0 -0.02,0 -0.02,-0.01 -0.07,-0.01 -0.11,-0.07 -0.09,-0.13 0.24,-1.17 0.69,-2.27 1.33,-3.27 0.04,-0.05 0.11,-0.07 0.16,-0.03 0.06,0.03 0.07,0.1 0.04,0.15 -0.64,0.98 -1.07,2.06 -1.31,3.19 -0.01,0.06 -0.06,0.1 -0.11,0.1z"/>
  <path class="fil2" d="M3.62 16.92c-0.04,0 -0.08,-0.02 -0.1,-0.05 -0.61,-0.95 -1.05,-1.98 -1.31,-3.07 -0.01,-0.07 0.03,-0.13 0.09,-0.14 0.06,-0.02 0.12,0.02 0.14,0.08 0.25,1.07 0.68,2.08 1.28,3 0.03,0.06 0.02,0.13 -0.04,0.16 -0.02,0.01 -0.04,0.02 -0.06,0.02z"/>
  <path class="fil2" d="M19.61 16.92c-0.02,0 -0.04,-0.01 -0.06,-0.02 -0.06,-0.03 -0.07,-0.1 -0.04,-0.16 0.61,-0.92 1.04,-1.94 1.28,-3.01 0.02,-0.07 0.08,-0.11 0.14,-0.09 0.06,0.01 0.1,0.08 0.09,0.14 -0.25,1.1 -0.7,2.14 -1.31,3.09 -0.03,0.03 -0.06,0.05 -0.1,0.05z"/>
  <path class="fil2" d="M20.95 9.8c-0.05,0 -0.1,-0.04 -0.11,-0.1 -0.24,-1.13 -0.68,-2.21 -1.31,-3.19 -0.03,-0.05 -0.02,-0.12 0.04,-0.15 0.05,-0.04 0.12,-0.02 0.16,0.03 0.64,1 1.09,2.1 1.33,3.27 0.02,0.06 -0.02,0.12 -0.09,0.13 0,0.01 -0.01,0.01 -0.02,0.01z"/>
  <path class="fil3" d="M9.41 10.23l0 1.9c0,0.16 -0.02,0.3 -0.07,0.41 -0.04,0.12 -0.1,0.21 -0.19,0.28 -0.08,0.08 -0.17,0.13 -0.28,0.16 -0.11,0.04 -0.24,0.05 -0.37,0.05 -0.13,0 -0.25,-0.01 -0.37,-0.05 -0.11,-0.03 -0.2,-0.08 -0.29,-0.16 -0.08,-0.07 -0.14,-0.16 -0.18,-0.28 -0.05,-0.11 -0.07,-0.25 -0.07,-0.41l0 -1.9 0.56 0 0 1.9c0,0.09 0.01,0.17 0.02,0.22 0.02,0.06 0.04,0.1 0.07,0.14 0.03,0.03 0.07,0.05 0.11,0.06 0.05,0.01 0.1,0.02 0.15,0.02 0.06,0 0.11,-0.01 0.15,-0.02 0.05,-0.01 0.08,-0.03 0.11,-0.06 0.03,-0.04 0.05,-0.08 0.07,-0.14 0.01,-0.05 0.02,-0.13 0.02,-0.22l0 -1.9 0.56 0z"/>
  <path id="1" class="fil3" d="M11 12.27c0,-0.05 0,-0.09 -0.01,-0.13 -0.01,-0.04 -0.03,-0.07 -0.06,-0.11 -0.03,-0.03 -0.07,-0.06 -0.12,-0.09 -0.05,-0.04 -0.12,-0.07 -0.21,-0.1 -0.1,-0.04 -0.2,-0.09 -0.3,-0.14 -0.09,-0.05 -0.17,-0.11 -0.24,-0.18 -0.08,-0.07 -0.13,-0.15 -0.18,-0.24 -0.04,-0.09 -0.06,-0.19 -0.06,-0.31 0,-0.12 0.02,-0.22 0.07,-0.32 0.04,-0.1 0.1,-0.18 0.18,-0.24 0.07,-0.07 0.17,-0.12 0.27,-0.16 0.11,-0.04 0.23,-0.06 0.36,-0.06 0.13,0 0.25,0.02 0.36,0.07 0.1,0.04 0.2,0.1 0.27,0.17 0.08,0.08 0.13,0.17 0.18,0.27 0.04,0.11 0.06,0.22 0.06,0.35l-0.56 0c0,-0.06 -0.01,-0.11 -0.02,-0.16 -0.01,-0.05 -0.03,-0.09 -0.06,-0.13 -0.02,-0.03 -0.05,-0.06 -0.1,-0.08 -0.04,-0.02 -0.08,-0.03 -0.14,-0.03 -0.05,0 -0.1,0.01 -0.14,0.03 -0.04,0.01 -0.07,0.03 -0.09,0.06 -0.03,0.03 -0.05,0.07 -0.06,0.11 -0.01,0.03 -0.02,0.08 -0.02,0.12 0,0.05 0.01,0.09 0.03,0.12 0.02,0.04 0.05,0.07 0.08,0.11 0.04,0.03 0.08,0.06 0.13,0.09 0.05,0.02 0.11,0.05 0.17,0.08 0.13,0.04 0.24,0.1 0.34,0.15 0.1,0.06 0.18,0.12 0.24,0.2 0.07,0.07 0.11,0.15 0.15,0.24 0.03,0.09 0.04,0.19 0.04,0.31 0,0.12 -0.02,0.23 -0.06,0.32 -0.04,0.1 -0.09,0.18 -0.17,0.24 -0.07,0.07 -0.16,0.12 -0.27,0.15 -0.1,0.04 -0.22,0.05 -0.35,0.05 -0.12,0 -0.24,-0.01 -0.35,-0.05 -0.12,-0.04 -0.22,-0.09 -0.31,-0.17 -0.09,-0.07 -0.16,-0.16 -0.22,-0.28 -0.05,-0.11 -0.08,-0.25 -0.08,-0.41l0.56 0c0,0.09 0.01,0.16 0.03,0.22 0.01,0.06 0.04,0.1 0.07,0.14 0.04,0.03 0.08,0.06 0.13,0.08 0.05,0.01 0.1,0.02 0.17,0.02 0.05,0 0.1,-0.01 0.14,-0.02 0.03,-0.02 0.06,-0.04 0.09,-0.07 0.02,-0.03 0.04,-0.06 0.05,-0.1 0.01,-0.03 0.01,-0.07 0.01,-0.12z"/>
  <polygon id="2" class="fil3" points="13.36,11.8 12.49,11.8 12.49,12.53 13.52,12.53 13.52,13 11.93,13 11.93,10.23 13.52,10.23 13.52,10.7 12.49,10.7 12.49,11.35 13.36,11.35 "/>
  <path id="3" class="fil3" d="M13.84 13l0 -2.77 0.73 0c0.16,0 0.31,0.03 0.44,0.08 0.13,0.05 0.24,0.13 0.34,0.23 0.09,0.1 0.16,0.22 0.21,0.36 0.05,0.15 0.08,0.32 0.08,0.5l0 0.43c0,0.19 -0.03,0.35 -0.08,0.5 -0.05,0.14 -0.12,0.26 -0.21,0.36 -0.1,0.1 -0.21,0.18 -0.34,0.23 -0.13,0.05 -0.28,0.08 -0.44,0.08l-0.73 0zm0.56 -2.3l0 1.83 0.17 0c0.1,0 0.18,-0.01 0.24,-0.04 0.07,-0.02 0.12,-0.06 0.16,-0.12 0.04,-0.06 0.07,-0.13 0.09,-0.22 0.01,-0.09 0.02,-0.19 0.02,-0.32l0 -0.43c0,-0.13 -0.01,-0.24 -0.02,-0.33 -0.02,-0.08 -0.05,-0.16 -0.09,-0.21 -0.04,-0.06 -0.09,-0.1 -0.15,-0.12 -0.07,-0.03 -0.15,-0.04 -0.25,-0.04l-0.17 0z"/>
  <g>
   <path class="fil4" d="M11.61 4.22c-0.05,0 -0.1,-0.05 -0.1,-0.11 0,-0.06 0.05,-0.11 0.1,-0.11l0 0.22zm0.21 -0.21l0 0.21 -0.21 0 0 -0.22 0.21 0.01zm0 0c0.06,0 0.1,0.05 0.1,0.11 0,0.06 -0.04,0.1 -0.1,0.1l0 -0.21zm0.61 0.25c-0.05,0 -0.1,-0.05 -0.09,-0.11 0,-0.06 0.06,-0.11 0.11,-0.1l-0.02 0.21zm0.23 -0.18l-0.02 0.21 -0.21 -0.03 0.02 -0.21 0.21 0.03zm0 0c0.05,0 0.1,0.05 0.09,0.11 0,0.06 -0.06,0.11 -0.11,0.1l0.02 -0.21zm0.58 0.32c-0.06,-0.01 -0.09,-0.07 -0.08,-0.13 0.01,-0.06 0.06,-0.09 0.12,-0.08l-0.04 0.21zm0.24 -0.17l-0.04 0.22 -0.2 -0.05 0.04 -0.21 0.2 0.04zm0 0c0.06,0.02 0.1,0.07 0.09,0.13 -0.02,0.06 -0.07,0.1 -0.13,0.09l0.04 -0.22zm0.55 0.39c-0.05,-0.01 -0.08,-0.07 -0.07,-0.13 0.02,-0.06 0.08,-0.09 0.13,-0.07l-0.06 0.2zm0.26 -0.13l-0.07 0.2 -0.06 -0.02 -0.13 -0.05 0.06 -0.2 0.14 0.04 0.06 0.03zm0 0c0.06,0.02 0.08,0.08 0.07,0.14 -0.02,0.05 -0.08,0.08 -0.14,0.06l0.07 -0.2zm0.5 0.45c-0.05,-0.03 -0.07,-0.09 -0.05,-0.15 0.02,-0.05 0.08,-0.08 0.13,-0.05l-0.08 0.2zm0.27 -0.11l-0.08 0.2 -0.16 -0.08 -0.03 -0.01 0.08 -0.2 0.04 0.01 0.15 0.08zm0 0c0.06,0.03 0.08,0.09 0.05,0.14 -0.02,0.06 -0.08,0.08 -0.13,0.06l0.08 -0.2zm0.46 0.5c-0.05,-0.03 -0.07,-0.1 -0.04,-0.15 0.03,-0.05 0.09,-0.07 0.14,-0.04l-0.1 0.19zm0.28 -0.07l-0.11 0.18 -0.17 -0.11 0.1 -0.19 0.18 0.12zm0 0c0.05,0.03 0.06,0.09 0.03,0.14 -0.03,0.06 -0.09,0.07 -0.14,0.04l0.11 -0.18zm0.39 0.55c-0.04,-0.04 -0.05,-0.1 -0.02,-0.15 0.03,-0.05 0.1,-0.06 0.15,-0.03l-0.13 0.18zm0.29 -0.04l-0.13 0.17 -0.03 -0.03 -0.13 -0.1 0.13 -0.18 0.13 0.11 0.03 0.03zm0 0c0.05,0.03 0.06,0.1 0.02,0.15 -0.04,0.05 -0.1,0.05 -0.15,0.02l0.13 -0.17zm0.34 0.59c-0.04,-0.04 -0.05,-0.11 -0.01,-0.15 0.04,-0.05 0.1,-0.05 0.15,-0.01l-0.14 0.16zm0.29 -0.01l-0.15 0.16 -0.11 -0.12 -0.03 -0.03 0.14 -0.16 0.03 0.03 0.12 0.12zm0 0c0.04,0.04 0.04,0.11 0,0.15 -0.04,0.05 -0.11,0.05 -0.15,0.01l0.15 -0.16zm0.27 0.63c-0.04,-0.05 -0.04,-0.12 0.01,-0.15 0.04,-0.04 0.11,-0.04 0.14,0.01l-0.15 0.14zm0.29 0.02l-0.16 0.14 -0.13 -0.16 0.15 -0.14 0.14 0.16zm0 0c0.03,0.05 0.03,0.12 -0.02,0.16 -0.04,0.04 -0.1,0.03 -0.14,-0.02l0.16 -0.14zm0.2 0.66c-0.04,-0.05 -0.02,-0.11 0.02,-0.15 0.05,-0.03 0.11,-0.02 0.15,0.03l-0.17 0.12zm0.28 0.06l-0.17 0.12 -0.04 -0.06 -0.07 -0.12 0.17 -0.12 0.08 0.13 0.03 0.05zm0 0c0.03,0.05 0.02,0.12 -0.03,0.15 -0.05,0.03 -0.11,0.02 -0.14,-0.03l0.17 -0.12zm0.13 0.68c-0.03,-0.05 -0.01,-0.12 0.04,-0.15 0.05,-0.03 0.11,-0.01 0.14,0.04l-0.18 0.11zm0.27 0.09l-0.18 0.1 -0.09 -0.18 0 -0.01 0.18 -0.11 0.01 0.02 0.08 0.18zm0 0c0.03,0.06 0.01,0.12 -0.04,0.15 -0.06,0.02 -0.12,0 -0.14,-0.05l0.18 -0.1zm0.05 0.69c-0.02,-0.06 0.01,-0.12 0.06,-0.14 0.05,-0.02 0.11,0 0.13,0.06l-0.19 0.08zm0.26 0.12l-0.19 0.08 -0.07 -0.2 0.19 -0.08 0.07 0.2zm0 0c0.02,0.06 0,0.12 -0.06,0.14 -0.05,0.02 -0.11,0 -0.13,-0.06l0.19 -0.08zm-0.03 0.69c-0.01,-0.05 0.02,-0.11 0.08,-0.13 0.05,-0.01 0.11,0.02 0.12,0.08l-0.2 0.05zm0.25 0.17l-0.2 0.04 -0.02 -0.08 -0.03 -0.13 0.2 -0.05 0.04 0.14 0.01 0.08zm0 0c0.01,0.05 -0.02,0.11 -0.08,0.12 -0.06,0.02 -0.11,-0.02 -0.12,-0.08l0.2 -0.04zm-0.11 0.67c-0.01,-0.05 0.03,-0.11 0.09,-0.12 0.06,-0.01 0.11,0.03 0.12,0.09l-0.21 0.03zm0.23 0.19l-0.21 0.02 -0.01 -0.18 -0.01 -0.03 0.21 -0.03 0 0.04 0.02 0.18zm0 0c0,0.06 -0.04,0.11 -0.1,0.12 -0.05,0.01 -0.1,-0.04 -0.11,-0.1l0.21 -0.02zm-0.19 0.66c0,-0.06 0.05,-0.11 0.11,-0.11 0.05,0 0.1,0.05 0.1,0.11l-0.21 0zm0.2 0.22l-0.2 0 0 -0.22 0.21 0 -0.01 0.22zm0 0c0,0.06 -0.04,0.1 -0.1,0.1 -0.06,0 -0.1,-0.04 -0.1,-0.1l0.2 0zm-0.25 0.63c0,-0.06 0.05,-0.1 0.11,-0.1 0.06,0.01 0.1,0.06 0.09,0.12l-0.2 -0.02zm0.17 0.24l-0.2 -0.03 0.03 -0.21 0.2 0.02 -0.03 0.22zm0 0c0,0.06 -0.05,0.1 -0.11,0.09 -0.06,0 -0.1,-0.06 -0.09,-0.12l0.2 0.03zm-0.33 0.6c0.01,-0.06 0.07,-0.1 0.13,-0.09 0.05,0.02 0.09,0.07 0.08,0.13l-0.21 -0.04zm0.15 0.26l-0.2 -0.06 0.03 -0.11 0.02 -0.09 0.21 0.04 -0.03 0.11 -0.03 0.11zm0 0c-0.01,0.05 -0.07,0.09 -0.13,0.07 -0.05,-0.01 -0.08,-0.07 -0.07,-0.13l0.2 0.06zm-0.39 0.55c0.02,-0.06 0.08,-0.09 0.13,-0.07 0.05,0.02 0.08,0.09 0.06,0.14l-0.19 -0.07zm0.11 0.27l-0.19 -0.07 0.08 -0.2 0.19 0.07 -0.08 0.2zm0 0c-0.02,0.06 -0.08,0.09 -0.13,0.06 -0.05,-0.02 -0.08,-0.08 -0.06,-0.13l0.19 0.07zm-0.45 0.5c0.02,-0.05 0.08,-0.07 0.14,-0.05 0.05,0.03 0.07,0.09 0.04,0.15l-0.18 -0.1zm0.08 0.29l-0.18 -0.1 0.1 -0.19 0.18 0.1 -0.1 0.19zm0 0c-0.02,0.05 -0.08,0.07 -0.13,0.05 -0.06,-0.03 -0.08,-0.09 -0.05,-0.15l0.18 0.1zm-0.51 0.44c0.03,-0.05 0.1,-0.06 0.15,-0.03 0.04,0.03 0.06,0.1 0.03,0.15l-0.18 -0.12zm0.06 0.3l-0.17 -0.13 0.07 -0.1 0.04 -0.07 0.18 0.12 -0.05 0.07 -0.07 0.11zm0 0c-0.04,0.05 -0.1,0.06 -0.15,0.02 -0.05,-0.03 -0.06,-0.1 -0.02,-0.15l0.17 0.13zm-0.56 0.37c0.04,-0.04 0.11,-0.05 0.15,-0.01 0.04,0.04 0.05,0.11 0.01,0.15l-0.16 -0.14zm0.02 0.3l-0.15 -0.14 0.13 -0.16 0.16 0.14 -0.14 0.16zm0 0c-0.03,0.05 -0.1,0.05 -0.14,0.01 -0.05,-0.03 -0.05,-0.1 -0.01,-0.15l0.15 0.14zm-0.59 0.31c0.04,-0.04 0.11,-0.04 0.15,0 0.04,0.05 0.04,0.12 0,0.16l-0.15 -0.16zm-0.01 0.31l-0.14 -0.17 0.02 -0.01 0.13 -0.13 0.15 0.16 -0.14 0.13 -0.02 0.02zm0 0c-0.04,0.04 -0.11,0.03 -0.15,-0.01 -0.04,-0.05 -0.03,-0.12 0.01,-0.16l0.14 0.17zm-0.62 0.23c0.04,-0.03 0.11,-0.03 0.14,0.02 0.04,0.05 0.03,0.12 -0.01,0.15l-0.13 -0.17zm-0.05 0.3l-0.12 -0.18 0.12 -0.08 0.05 -0.04 0.13 0.17 -0.06 0.04 -0.12 0.09zm0 0c-0.04,0.03 -0.11,0.02 -0.14,-0.02 -0.03,-0.05 -0.02,-0.12 0.02,-0.16l0.12 0.18zm-0.63 0.16c0.04,-0.03 0.11,-0.01 0.14,0.04 0.03,0.06 0.01,0.12 -0.04,0.15l-0.1 -0.19zm-0.08 0.3l-0.11 -0.19 0.19 -0.11 0.1 0.19 -0.18 0.11zm0 0c-0.05,0.03 -0.11,0.01 -0.14,-0.04 -0.03,-0.05 -0.02,-0.12 0.03,-0.15l0.11 0.19zm-0.66 0.09c0.05,-0.03 0.12,0 0.14,0.05 0.02,0.05 0,0.12 -0.05,0.14l-0.09 -0.19zm-0.1 0.28l-0.08 -0.2 0.01 0 0.17 -0.08 0.09 0.19 -0.19 0.09 0 0zm0 0c-0.06,0.02 -0.12,0 -0.14,-0.06 -0.02,-0.05 0,-0.12 0.06,-0.14l0.08 0.2zm-0.66 0.02c0.05,-0.02 0.11,0.01 0.13,0.06 0.02,0.06 -0.01,0.12 -0.07,0.14l-0.06 -0.2zm-0.14 0.26l-0.06 -0.2 0.11 -0.03 0.09 -0.03 0.06 0.2 -0.1 0.03 -0.1 0.03zm0 0c-0.05,0.02 -0.11,-0.01 -0.13,-0.07 -0.01,-0.06 0.02,-0.12 0.07,-0.13l0.06 0.2zm-0.66 -0.05c0.06,-0.02 0.11,0.02 0.13,0.08 0.01,0.05 -0.02,0.11 -0.08,0.13l-0.05 -0.21zm-0.16 0.25l-0.04 -0.22 0.2 -0.03 0 0 0.05 0.21 -0.01 0 -0.2 0.04zm0 0c-0.05,0.01 -0.11,-0.03 -0.12,-0.09 -0.01,-0.06 0.03,-0.11 0.08,-0.13l0.04 0.22zm-0.64 -0.13c0.05,-0.01 0.1,0.03 0.11,0.09 0,0.06 -0.04,0.12 -0.09,0.12l-0.02 -0.21zm-0.19 0.23l-0.02 -0.22 0.21 -0.01 0.02 0.21 -0.21 0.02zm0 0c-0.06,0 -0.11,-0.04 -0.11,-0.1 -0.01,-0.06 0.03,-0.11 0.09,-0.12l0.02 0.22zm-0.63 -0.2c0.05,0 0.1,0.04 0.1,0.1 0,0.06 -0.05,0.11 -0.1,0.11l0 -0.21zm-0.21 0.21l0 -0.22 0.21 0.01 0 0.21 -0.21 0zm0 0c-0.06,0 -0.1,-0.05 -0.1,-0.11 0,-0.06 0.04,-0.11 0.1,-0.11l0 0.22zm-0.61 -0.27c0.06,0 0.1,0.06 0.09,0.12 0,0.05 -0.05,0.1 -0.11,0.09l0.02 -0.21zm-0.23 0.18l0.03 -0.21 0.02 0 0.18 0.03 -0.02 0.21 -0.19 -0.02 -0.02 -0.01zm0 0c-0.06,0 -0.1,-0.06 -0.09,-0.12 0.01,-0.06 0.06,-0.1 0.12,-0.09l-0.03 0.21zm-0.58 -0.33c0.06,0.01 0.1,0.07 0.08,0.13 -0.01,0.05 -0.06,0.09 -0.12,0.08l0.04 -0.21zm-0.24 0.16l0.05 -0.21 0.09 0.03 0.1 0.02 -0.04 0.21 -0.11 -0.02 -0.09 -0.03zm0 0c-0.06,-0.02 -0.09,-0.07 -0.08,-0.13 0.01,-0.06 0.07,-0.1 0.13,-0.08l-0.05 0.21zm-0.54 -0.4c0.05,0.02 0.08,0.08 0.07,0.14 -0.02,0.05 -0.08,0.09 -0.13,0.07l0.06 -0.21zm-0.26 0.13l0.07 -0.2 0.18 0.07 0.01 0 -0.06 0.21 -0.02 -0.01 -0.18 -0.07zm0 0c-0.06,-0.02 -0.09,-0.08 -0.07,-0.14 0.02,-0.05 0.08,-0.08 0.14,-0.06l-0.07 0.2zm-0.5 -0.45c0.06,0.02 0.08,0.09 0.05,0.14 -0.02,0.06 -0.08,0.08 -0.13,0.05l0.08 -0.19zm-0.27 0.1l0.09 -0.2 0.18 0.1 -0.08 0.19 -0.19 -0.09zm0 0c-0.05,-0.03 -0.07,-0.09 -0.05,-0.14 0.02,-0.06 0.09,-0.08 0.14,-0.06l-0.09 0.2zm-0.45 -0.51c0.05,0.03 0.07,0.09 0.04,0.15 -0.03,0.05 -0.09,0.06 -0.14,0.03l0.1 -0.18zm-0.28 0.07l0.11 -0.18 0.05 0.03 0.12 0.08 -0.1 0.18 -0.14 -0.08 -0.04 -0.03zm0 0c-0.05,-0.04 -0.06,-0.1 -0.03,-0.15 0.03,-0.05 0.1,-0.07 0.14,-0.03l-0.11 0.18zm-0.39 -0.56c0.05,0.04 0.06,0.1 0.03,0.15 -0.04,0.05 -0.1,0.06 -0.15,0.03l0.12 -0.18zm-0.28 0.04l0.13 -0.17 0.13 0.11 0.02 0.02 -0.12 0.18 -0.03 -0.03 -0.13 -0.11zm0 0c-0.05,-0.04 -0.06,-0.11 -0.02,-0.16 0.04,-0.04 0.1,-0.05 0.15,-0.01l-0.13 0.17zm-0.33 -0.6c0.04,0.04 0.04,0.11 0,0.15 -0.04,0.05 -0.1,0.05 -0.14,0.01l0.14 -0.16zm-0.29 0l0.14 -0.15 0.15 0.15 -0.14 0.16 -0.15 -0.16zm0 0c-0.04,-0.04 -0.04,-0.11 0,-0.15 0.04,-0.04 0.1,-0.04 0.14,0l-0.14 0.15zm-0.26 -0.63c0.04,0.04 0.03,0.11 -0.01,0.15 -0.04,0.04 -0.11,0.03 -0.15,-0.01l0.16 -0.14zm-0.29 -0.03l0.16 -0.14 0.04 0.06 0.09 0.11 -0.16 0.14 -0.09 -0.12 -0.04 -0.05zm0 0c-0.03,-0.05 -0.03,-0.12 0.02,-0.16 0.04,-0.03 0.11,-0.02 0.14,0.02l-0.16 0.14zm-0.19 -0.66c0.03,0.04 0.02,0.11 -0.02,0.15 -0.05,0.03 -0.12,0.02 -0.15,-0.03l0.17 -0.12zm-0.28 -0.07l0.18 -0.11 0.09 0.17 0.01 0.01 -0.17 0.12 -0.01 -0.02 -0.1 -0.17zm0 0c-0.03,-0.05 -0.02,-0.12 0.03,-0.15 0.05,-0.03 0.12,-0.01 0.15,0.04l-0.18 0.11zm-0.11 -0.68c0.02,0.06 0,0.12 -0.05,0.15 -0.05,0.03 -0.11,0 -0.14,-0.05l0.19 -0.1zm-0.28 -0.09l0.19 -0.1 0.09 0.19 -0.19 0.1 -0.09 -0.19zm0 0c-0.02,-0.06 0,-0.12 0.05,-0.15 0.05,-0.03 0.11,0 0.14,0.05l-0.19 0.1zm-0.04 -0.69c0.03,0.05 0,0.11 -0.05,0.14 -0.06,0.02 -0.12,-0.01 -0.14,-0.07l0.19 -0.07zm-0.26 -0.14l0.2 -0.06 0.03 0.08 0.03 0.12 -0.19 0.07 -0.04 -0.12 -0.03 -0.09zm0 0c-0.01,-0.05 0.02,-0.12 0.07,-0.13 0.06,-0.02 0.11,0.01 0.13,0.07l-0.2 0.06zm0.04 -0.69c0.02,0.06 -0.01,0.12 -0.07,0.14 -0.05,0.01 -0.11,-0.02 -0.13,-0.08l0.2 -0.06zm-0.24 -0.16l0.21 -0.04 0.03 0.2 0 0 -0.2 0.06 0 -0.01 -0.04 -0.21zm0 0c-0.01,-0.06 0.03,-0.11 0.08,-0.13 0.06,-0.01 0.12,0.03 0.13,0.09l-0.21 0.04zm0.12 -0.67c0.01,0.06 -0.03,0.11 -0.09,0.12 -0.05,0 -0.11,-0.04 -0.11,-0.1l0.2 -0.02zm-0.22 -0.2l0.21 -0.02 0.01 0.22 -0.2 0.02 -0.02 -0.22zm0 0c0,-0.06 0.04,-0.11 0.09,-0.11 0.06,-0.01 0.11,0.03 0.12,0.09l-0.21 0.02zm0.2 -0.65c0,0.05 -0.05,0.1 -0.1,0.1 -0.06,0 -0.11,-0.05 -0.11,-0.1l0.21 0zm-0.2 -0.23l0.21 0.01 -0.01 0.03 0 0.19 -0.21 0 0.01 -0.2 0 -0.03zm0 0c0,-0.06 0.05,-0.1 0.11,-0.1 0.05,0 0.1,0.06 0.1,0.11l-0.21 -0.01zm0.27 -0.62c-0.01,0.06 -0.06,0.1 -0.11,0.09 -0.06,0 -0.1,-0.06 -0.1,-0.12l0.21 0.03zm-0.17 -0.25l0.2 0.04 -0.02 0.13 -0.01 0.08 -0.21 -0.03 0.01 -0.09 0.03 -0.13zm0 0c0.01,-0.05 0.06,-0.09 0.12,-0.09 0.05,0.01 0.09,0.07 0.08,0.13l-0.2 -0.04zm0.34 -0.58c-0.02,0.05 -0.08,0.09 -0.13,0.07 -0.06,-0.01 -0.09,-0.07 -0.08,-0.13l0.21 0.06zm-0.15 -0.27l0.2 0.06 -0.05 0.21 -0.21 -0.06 0.06 -0.21zm0 0c0.02,-0.05 0.08,-0.09 0.13,-0.07 0.06,0.01 0.09,0.07 0.07,0.13l-0.2 -0.06zm0.41 -0.54c-0.02,0.06 -0.08,0.08 -0.13,0.06 -0.06,-0.02 -0.09,-0.08 -0.06,-0.14l0.19 0.08zm-0.11 -0.28l0.19 0.09 0 0 -0.08 0.19 -0.19 -0.08 0.08 -0.2 0 0zm0 0c0.02,-0.06 0.08,-0.08 0.13,-0.06 0.06,0.03 0.08,0.09 0.06,0.15l-0.19 -0.09zm0.46 -0.49c-0.02,0.05 -0.09,0.07 -0.14,0.05 -0.05,-0.03 -0.07,-0.09 -0.04,-0.15l0.18 0.1zm-0.08 -0.29l0.18 0.11 -0.06 0.11 -0.04 0.07 -0.18 -0.1 0.04 -0.08 0.06 -0.11zm0 0c0.03,-0.05 0.09,-0.07 0.14,-0.04 0.05,0.03 0.07,0.1 0.04,0.15l-0.18 -0.11zm0.51 -0.43c-0.03,0.05 -0.09,0.06 -0.14,0.03 -0.05,-0.04 -0.06,-0.1 -0.03,-0.15l0.17 0.12zm-0.04 -0.3l0.17 0.13 -0.13 0.17 -0.17 -0.12 0.13 -0.18zm0 0c0.03,-0.04 0.1,-0.06 0.14,-0.02 0.05,0.03 0.06,0.1 0.03,0.15l-0.17 -0.13zm0.56 -0.36c-0.04,0.04 -0.1,0.05 -0.15,0.01 -0.04,-0.04 -0.05,-0.11 -0.01,-0.15l0.16 0.14zm-0.02 -0.31l0.15 0.15 -0.01 0.02 -0.12 0.14 -0.16 -0.14 0.12 -0.15 0.02 -0.02zm0 0c0.04,-0.04 0.11,-0.04 0.15,0 0.04,0.04 0.04,0.11 0,0.15l-0.15 -0.15zm0.6 -0.29c-0.04,0.04 -0.11,0.04 -0.15,-0.01 -0.04,-0.04 -0.04,-0.11 0.01,-0.15l0.14 0.16zm0.02 -0.3l0.13 0.16 -0.11 0.1 -0.04 0.04 -0.14 -0.16 0.04 -0.04 0.12 -0.1zm0 0c0.04,-0.04 0.11,-0.04 0.14,0.01 0.04,0.04 0.04,0.11 -0.01,0.15l-0.13 -0.16zm0.62 -0.23c-0.05,0.04 -0.11,0.02 -0.15,-0.02 -0.03,-0.05 -0.02,-0.12 0.03,-0.15l0.12 0.17zm0.05 -0.3l0.12 0.18 -0.17 0.12 -0.12 -0.17 0.17 -0.13zm0 0c0.05,-0.03 0.11,-0.02 0.14,0.03 0.04,0.05 0.03,0.11 -0.02,0.15l-0.12 -0.18zm0.64 -0.15c-0.05,0.03 -0.11,0.01 -0.14,-0.04 -0.03,-0.05 -0.01,-0.12 0.04,-0.15l0.1 0.19zm0.09 -0.29l0.09 0.19 -0.02 0.01 -0.16 0.09 -0.1 -0.19 0.16 -0.09 0.03 -0.01zm0 0c0.05,-0.03 0.11,-0.01 0.14,0.04 0.02,0.06 0,0.12 -0.05,0.15l-0.09 -0.19zm0.65 -0.08c-0.05,0.02 -0.11,0 -0.14,-0.05 -0.02,-0.06 0,-0.12 0.05,-0.15l0.09 0.2zm0.11 -0.28l0.08 0.2 -0.13 0.05 -0.06 0.03 -0.09 -0.2 0.07 -0.03 0.13 -0.05zm0 0c0.05,-0.02 0.12,0 0.14,0.06 0.02,0.05 -0.01,0.12 -0.06,0.14l-0.08 -0.2zm0.66 -0.01c-0.06,0.02 -0.11,-0.01 -0.13,-0.07 -0.02,-0.06 0.02,-0.12 0.07,-0.13l0.06 0.2zm0.14 -0.26l0.06 0.21 -0.2 0.05 -0.06 -0.2 0.2 -0.06zm0 0c0.05,-0.02 0.11,0.02 0.13,0.07 0.02,0.06 -0.02,0.12 -0.07,0.14l-0.06 -0.21zm0.66 0.07c-0.06,0.01 -0.11,-0.03 -0.12,-0.09 -0.02,-0.06 0.02,-0.11 0.08,-0.12l0.04 0.21zm0.16 -0.25l0.04 0.21 -0.2 0.04 -0.04 -0.21 0.2 -0.04zm0 0c0.06,-0.01 0.11,0.03 0.12,0.09 0.01,0.05 -0.02,0.11 -0.08,0.12l-0.04 -0.21zm0.65 0.14c-0.06,0.01 -0.11,-0.04 -0.11,-0.09 -0.01,-0.06 0.03,-0.12 0.09,-0.12l0.02 0.21zm0.19 -0.23l0.01 0.22 -0.02 0 -0.18 0.01 -0.02 -0.21 0.19 -0.02 0.02 0zm0 0c0.06,0 0.11,0.05 0.11,0.1 0,0.06 -0.04,0.11 -0.1,0.12l-0.01 -0.22z"/>
  </g>
  <g>
   <g id="_1643283335168">
    <path class="fil5" d="M22.03 12.88l-1.98 0c-0.17,0 -0.32,-0.09 -0.41,-0.24 -0.08,-0.15 -0.08,-0.32 0,-0.47l0.99 -1.71c0.08,-0.15 0.24,-0.24 0.41,-0.24 0.17,0 0.32,0.09 0.41,0.24l0.99 1.71c0.08,0.15 0.08,0.32 0,0.47 -0.09,0.15 -0.24,0.24 -0.41,0.24zm-0.99 -2.52c-0.12,0 -0.23,0.06 -0.29,0.17l-0.99 1.7c-0.06,0.11 -0.06,0.24 0,0.34 0.06,0.11 0.17,0.17 0.29,0.17l1.98 0c0.12,0 0.23,-0.06 0.29,-0.17 0.06,-0.1 0.06,-0.23 0,-0.34l-0.99 -1.7c-0.06,-0.11 -0.17,-0.17 -0.29,-0.17zm1.19 1.88l-0.95 -1.64c-0.05,-0.09 -0.14,-0.14 -0.24,-0.14 -0.1,0 -0.19,0.05 -0.24,0.14l-0.95 1.64c-0.05,0.09 -0.05,0.19 0,0.28 0.05,0.09 0.14,0.14 0.24,0.14l1.9 0c0.1,0 0.19,-0.05 0.24,-0.14 0.05,-0.09 0.05,-0.19 0,-0.28zm-1.36 -1.13c0,-0.1 0.07,-0.17 0.17,-0.17 0.09,0 0.17,0.07 0.17,0.17l0 0.56c0,0.09 -0.08,0.17 -0.17,0.17 -0.1,0 -0.17,-0.08 -0.17,-0.17l0 -0.56zm0.17 1.24c-0.1,0 -0.18,-0.08 -0.18,-0.18 0,-0.1 0.08,-0.17 0.18,-0.17 0.1,0 0.18,0.07 0.18,0.17 0,0.1 -0.08,0.18 -0.18,0.18z"/>
   </g>
   <g id="_1643283334112">
   </g>
   <g id="_1643283334528">
   </g>
   <g id="_1643283331968">
   </g>
   <g id="_1643283331360">
   </g>
   <g id="_1643283330624">
   </g>
   <g id="_1643283330752">
   </g>
   <g id="_1643283397664">
   </g>
   <g id="_1643283398208">
   </g>
   <g id="_1643283397952">
   </g>
   <g id="_1643283395552">
   </g>
   <g id="_1643283396224">
   </g>
   <g id="_1643283394656">
   </g>
   <g id="_1643283394592">
   </g>
   <g id="_1643283393568">
   </g>
   <g id="_1643283392160">
   </g>
  </g>
  <g>
   <g id="_1643956835696">
    <path class="fil5" d="M3.13 12.88l-1.97 0c-0.17,0 -0.33,-0.09 -0.41,-0.24 -0.09,-0.15 -0.09,-0.32 0,-0.47l0.98 -1.71c0.09,-0.15 0.24,-0.24 0.42,-0.24 0.17,0 0.32,0.09 0.41,0.24l0.98 1.71c0.09,0.15 0.09,0.32 0,0.47 -0.08,0.15 -0.24,0.24 -0.41,0.24zm-0.98 -2.52c-0.13,0 -0.24,0.06 -0.3,0.17l-0.98 1.7c-0.07,0.11 -0.06,0.24 0,0.34 0.06,0.11 0.17,0.17 0.29,0.17l1.97 0c0.12,0 0.23,-0.06 0.29,-0.17 0.07,-0.1 0.07,-0.23 0,-0.34l-0.98 -1.7c-0.06,-0.11 -0.17,-0.17 -0.29,-0.17zm1.19 1.88l-0.95 -1.64c-0.05,-0.09 -0.14,-0.14 -0.24,-0.14 -0.11,0 -0.2,0.05 -0.25,0.14l-0.95 1.64c-0.05,0.09 -0.05,0.19 0,0.28 0.05,0.09 0.14,0.14 0.24,0.14l1.91 0c0.1,0 0.19,-0.05 0.24,-0.14 0.05,-0.09 0.05,-0.19 0,-0.28zm-1.37 -1.13c0,-0.1 0.08,-0.17 0.18,-0.17 0.09,0 0.17,0.07 0.17,0.17l0 0.56c0,0.09 -0.08,0.17 -0.17,0.17 -0.1,0 -0.18,-0.08 -0.18,-0.17l0 -0.56zm0.18 1.24c-0.1,0 -0.18,-0.08 -0.18,-0.18 0,-0.1 0.08,-0.17 0.18,-0.17 0.09,0 0.17,0.07 0.17,0.17 0,0.1 -0.08,0.18 -0.17,0.18z"/>
   </g>
   <g id="_1643956827280">
   </g>
   <g id="_1644116596944">
   </g>
   <g id="_1644116596624">
   </g>
   <g id="_1644116595888">
   </g>
   <g id="_1644116594960">
   </g>
   <g id="_1644116594800">
   </g>
   <g id="_1644116593744">
   </g>
   <g id="_1644116590992">
   </g>
   <g id="_1644116589328">
   </g>
   <g id="_1644116562832">
   </g>
   <g id="_1644116608816">
   </g>
   <g id="_1644116605680">
   </g>
   <g id="_1644116599440">
   </g>
   <g id="_1644116598096">
   </g>
   <g id="_1644116597200">
   </g>
  </g>
 </g>
</svg>
