<svg id="Capa_1" enable-background="new 0 0 510 510" height="512" viewBox="0 0 510 510" width="512" xmlns="http://www.w3.org/2000/svg" xmlns:xlink="http://www.w3.org/1999/xlink"><linearGradient id="lg1"><stop offset="0" stop-color="#8a7889"/><stop offset="1" stop-color="#6e566e"/></linearGradient><linearGradient id="SVGID_1_" gradientUnits="userSpaceOnUse" x1="179.536" x2="214.638" xlink:href="#lg1" y1="358.718" y2="358.718"/><linearGradient id="SVGID_2_" gradientUnits="userSpaceOnUse" x1="222.617" x2="247.093" xlink:href="#lg1" y1="358.718" y2="358.718"/><linearGradient id="SVGID_3_" gradientUnits="userSpaceOnUse" x1="295.362" x2="330.464" xlink:href="#lg1" y1="358.718" y2="358.718"/><linearGradient id="SVGID_4_" gradientUnits="userSpaceOnUse" x1="262.907" x2="287.383" xlink:href="#lg1" y1="358.718" y2="358.718"/><linearGradient id="SVGID_5_" gradientUnits="userSpaceOnUse" x1="256.299" x2="273.648" y1="413.381" y2="509.887"><stop offset="0" stop-color="#ffd945"/><stop offset=".2567" stop-color="#ffd442"/><stop offset=".5511" stop-color="#ffc63a"/><stop offset=".8628" stop-color="#ffb02c"/><stop offset="1" stop-color="#ffa325"/></linearGradient><linearGradient id="SVGID_6_" gradientUnits="userSpaceOnUse" x1="269.287" x2="244.347" y1="473.556" y2="355.905"><stop offset="0" stop-color="#f35227" stop-opacity="0"/><stop offset="1" stop-color="#f35227"/></linearGradient><linearGradient id="lg2"><stop offset="0" stop-color="#f8f6fb"/><stop offset="1" stop-color="#efdcfb"/></linearGradient><linearGradient id="SVGID_7_" gradientUnits="userSpaceOnUse" x1="255" x2="255" xlink:href="#lg2" y1="402.543" y2="420.287"/><linearGradient id="SVGID_8_" gradientUnits="userSpaceOnUse" x1="221.28" x2="364.175" y1="82.508" y2="260.926"><stop offset="0" stop-color="#65e0db"/><stop offset=".199" stop-color="#60dcd6"/><stop offset=".4277" stop-color="#53d0c8"/><stop offset=".671" stop-color="#3cbcb1"/><stop offset=".9229" stop-color="#1ca191"/><stop offset="1" stop-color="#119786"/></linearGradient><linearGradient id="SVGID_9_" gradientUnits="userSpaceOnUse" x1="316.029" x2="418.128" y1="223.961" y2="402.633"><stop offset="0" stop-color="#119786" stop-opacity="0"/><stop offset="1" stop-color="#119786"/></linearGradient><linearGradient id="SVGID_10_" gradientUnits="userSpaceOnUse" x1="288.801" x2="100.717" y1="134.468" y2="-57.304"><stop offset="0" stop-color="#65e0db" stop-opacity="0"/><stop offset=".1625" stop-color="#49c8bf" stop-opacity=".163"/><stop offset=".3526" stop-color="#31b3a6" stop-opacity=".353"/><stop offset=".5508" stop-color="#1fa394" stop-opacity=".551"/><stop offset=".7603" stop-color="#149a89" stop-opacity=".76"/><stop offset="1" stop-color="#119786"/></linearGradient><linearGradient id="SVGID_11_" gradientUnits="userSpaceOnUse" x1="255" x2="255" xlink:href="#lg2" y1="304.133" y2="338.275"/><linearGradient id="lg3"><stop offset="0" stop-color="#ff819c"/><stop offset=".2594" stop-color="#ff7e9a"/><stop offset=".4757" stop-color="#fe7396"/><stop offset=".6765" stop-color="#fc628e"/><stop offset=".8668" stop-color="#fa4a83"/><stop offset="1" stop-color="#f83479"/></linearGradient><linearGradient id="SVGID_12_" gradientUnits="userSpaceOnUse" x1="410.939" x2="501.26" xlink:href="#lg3" y1="280.429" y2="280.429"/><linearGradient id="SVGID_13_" gradientUnits="userSpaceOnUse" x1="343.21" x2="407.082" xlink:href="#lg3" y1="329.473" y2="329.473"/><linearGradient id="SVGID_14_" gradientUnits="userSpaceOnUse" x1="80.498" x2="144.37" xlink:href="#lg3" y1="350.589" y2="350.589"/><linearGradient id="SVGID_15_" gradientUnits="userSpaceOnUse" x1="8.74" x2="72.611" xlink:href="#lg3" y1="274.056" y2="274.056"/><g><g><path d="m179.642 300.756 19.633 118.452c.618 3.731 3.846 6.468 7.628 6.468 4.775 0 8.409-4.286 7.628-8.997l-19.633-118.452c-.618-3.731-3.846-6.468-7.628-6.468-4.775.001-8.409 4.286-7.628 8.997z" fill="url(#SVGID_1_)"/><path d="m222.639 300.074 8.949 118.452c.305 4.033 3.666 7.15 7.71 7.15h.062c4.5 0 8.049-3.828 7.71-8.315l-8.95-118.452c-.305-4.033-3.666-7.15-7.71-7.15h-.062c-4.498.001-8.048 3.828-7.709 8.315z" fill="url(#SVGID_2_)"/><path d="m315.102 298.227-19.633 118.452c-.781 4.711 2.853 8.997 7.628 8.997 3.782 0 7.01-2.736 7.628-6.468l19.633-118.452c.781-4.711-2.853-8.997-7.628-8.997-3.783.001-7.01 2.737-7.628 6.468z" fill="url(#SVGID_3_)"/><path d="m270.639 425.676h.062c4.044 0 7.405-3.117 7.71-7.15l8.949-118.452c.339-4.487-3.21-8.315-7.71-8.315h-.062c-4.044 0-7.405 3.117-7.71 7.15l-8.95 118.452c-.338 4.487 3.211 8.315 7.711 8.315z" fill="url(#SVGID_4_)"/></g><g><path d="m296.431 510h-82.863c-9.365 0-17.458-6.543-19.419-15.7l-18.877-88.142h159.454l-18.876 88.142c-1.961 9.157-10.053 15.7-19.419 15.7z" fill="url(#SVGID_5_)"/><path d="m175.273 406.158 3.889 18.159 85.683 85.683h31.586c9.365 0 17.458-6.543 19.419-15.7l18.877-88.142z" fill="url(#SVGID_6_)"/><path d="m324.859 425.676h-139.718c-7.62 0-13.798-6.178-13.798-13.798 0-7.62 6.178-13.798 13.798-13.798h139.718c7.62 0 13.798 6.178 13.798 13.798 0 7.62-6.177 13.798-13.798 13.798z" fill="url(#SVGID_7_)"/></g><g><path d="m255 339.838c-7.419 0-14.851-1.757-21.491-5.08-20.067-10.043-59.254-31.577-96.219-62.971-48.088-40.839-76.591-84.674-84.717-130.289-6.312-35.434 2.7-71.607 24.726-99.244 20.399-25.594 49.304-40.551 81.393-42.115 1.887-.092 3.799-.139 5.681-.139 30.064 0 58.445 11.587 79.916 32.625 3.878 3.8 7.454 7.833 10.71 12.065 3.258-4.232 6.834-8.266 10.712-12.066 21.469-21.038 49.851-32.624 79.916-32.624 1.882 0 3.794.047 5.681.139 32.089 1.564 60.996 16.521 81.395 42.118 22.026 27.637 31.037 63.81 24.724 99.243-8.125 45.613-36.628 89.449-84.716 130.288-36.964 31.392-76.15 52.928-96.219 62.971-6.641 3.323-14.073 5.079-21.492 5.079z" fill="url(#SVGID_8_)"/><path d="m432.703 42.256c-7.646-9.594-16.488-17.694-26.245-24.154 17.811 26.45 24.718 59.236 18.984 91.413-8.126 45.613-36.628 89.449-84.716 130.288-36.964 31.392-76.15 52.928-96.219 62.971-6.64 3.324-14.072 5.08-21.491 5.08s-14.851-1.757-21.491-5.08c-20.067-10.043-59.254-31.578-96.219-62.971-1.584-1.345-3.143-2.693-4.684-4.045 10.587 12.239 22.809 24.259 36.668 36.029 36.966 31.393 76.153 52.928 96.219 62.971 6.64 3.323 14.072 5.08 21.491 5.08s14.851-1.756 21.491-5.08c20.069-10.043 59.255-31.579 96.219-62.971 48.088-40.839 76.591-84.675 84.716-130.288 6.314-35.433-2.697-71.606-24.723-99.243z" fill="url(#SVGID_9_)"/><path d="m351.308.139c-1.887-.092-3.799-.139-5.681-.139-30.065 0-58.447 11.586-79.917 32.624-3.878 3.8-7.453 7.833-10.711 12.065v295.149c7.419 0 14.851-1.756 21.491-5.08 20.069-10.043 59.255-31.579 96.219-62.971 48.088-40.839 76.591-84.675 84.716-130.288 6.313-35.434-2.698-71.607-24.724-99.243-20.397-25.596-49.304-40.553-81.393-42.117z" fill="url(#SVGID_10_)"/></g><path d="m271.736 343.426h-33.473c-8.318 0-16.395-2.791-22.938-7.926l-35.355-27.747c-3.961-3.109-1.763-9.47 3.272-9.47h143.515c5.035 0 7.233 6.361 3.272 9.47l-35.354 27.747c-6.544 5.135-14.621 7.926-22.939 7.926z" fill="url(#SVGID_11_)"/><g><path d="m498.727 285.221c-15.187 9.897-28.145 22.933-37.958 38.183-2.207 3.429-7.3 3.42-9.494-.017-9.757-15.286-22.667-28.369-37.818-38.321-3.363-2.209-3.354-7.232.017-9.429 15.187-9.897 28.145-22.933 37.958-38.183 2.207-3.429 7.299-3.42 9.494.017 9.758 15.286 22.668 28.369 37.819 38.321 3.362 2.209 3.352 7.232-.018 9.429z" fill="url(#SVGID_12_)"/><path d="m405.29 332.862c-10.74 6.999-19.903 16.217-26.843 27.002-1.56 2.425-5.162 2.419-6.714-.012-6.9-10.81-16.03-20.061-26.744-27.099-2.378-1.562-2.372-5.114.012-6.668 10.74-6.999 19.903-16.217 26.842-27.002 1.56-2.425 5.162-2.419 6.714.012 6.9 10.81 16.03 20.061 26.744 27.099 2.379 1.562 2.373 5.114-.011 6.668z" fill="url(#SVGID_13_)"/><path d="m142.578 353.978c-10.74 6.999-19.903 16.217-26.843 27.002-1.56 2.425-5.162 2.418-6.714-.012-6.9-10.81-16.03-20.061-26.744-27.099-2.378-1.562-2.372-5.114.012-6.668 10.74-6.999 19.903-16.217 26.842-27.002 1.56-2.425 5.162-2.419 6.714.012 6.9 10.81 16.03 20.061 26.744 27.099 2.379 1.562 2.373 5.114-.011 6.668z" fill="url(#SVGID_14_)"/><path d="m70.819 277.445c-10.74 6.999-19.903 16.217-26.843 27.002-1.56 2.425-5.162 2.418-6.714-.012-6.9-10.81-16.03-20.061-26.744-27.099-2.378-1.562-2.372-5.114.012-6.668 10.74-6.999 19.903-16.217 26.842-27.002 1.56-2.425 5.162-2.419 6.714.012 6.9 10.81 16.03 20.061 26.744 27.099 2.38 1.562 2.373 5.114-.011 6.668z" fill="url(#SVGID_15_)"/></g></g></svg>