

<svg height="512" viewBox="0 0 58 58" width="512" xmlns="http://www.w3.org/2000/svg"><g id="026---Affiliate-Marketing" fill="none"><path id="Path" d="m45 16c.0006762 8.4487539-6.5677637 15.4419529-15 15.97-.33.02-.66.03-1 .03s-.67-.01-1-.03c-8.6893884-.5441506-15.3487792-7.9363481-14.9861127-16.6352012.3626664-8.69885299 7.6142582-15.51108361 16.3187858-15.33005937 8.7045276.18102425 15.6666301 7.28885084 15.6673269 15.99526057z" fill="#0c70dc"/><path id="Path" d="m34 22-6-3-1-3 1-3 6-3h1v12z" fill="#fff"/><path id="Path" d="m23 18h4v6c0 .5522847-.4477153 1-1 1h-2c-.5522847 0-1-.4477153-1-1z" fill="#fff"/><path id="Path" d="m20 14h3v4h-3c-1.1045695 0-2-.8954305-2-2 0-1.1045695.8954305-2 2-2z" fill="#fff"/><rect id="Rectangle" fill="#439af6" height="16" rx="1" width="4" x="34" y="8"/><path id="Path" d="m23 13h5v6h-5c-.5522847 0-1-.4477153-1-1v-4c0-.5522847.4477153-1 1-1z" fill="#439af6"/><g fill="#0c70dc"><path id="Path" d="m16 50c-.0008003 4.2894274-3.3844583 7.8148982-7.6702402 7.9917082-4.28578189.17681-7.94833415-3.0579692-8.30245122-7.3327545s2.72623494-8.068137 6.98269142-8.5989537c.65757725-.0799754 1.32242275-.0799754 1.98 0 4.0050064.4994586 7.010753 3.9039704 7.01 7.94z"/><path id="Path" d="m37 50c-.0008003 4.2894274-3.3844583 7.8148982-7.6702402 7.9917082s-7.9483342-3.0579692-8.3024512-7.3327545c-.3541171-4.2747853 2.7262349-8.068137 6.9826914-8.5989537.6575772-.0799754 1.3224228-.0799754 1.98 0 4.0050064.4994586 7.010753 3.9039704 7.01 7.94z"/><path id="Path" d="m58 50c-.0008003 4.2894274-3.3844583 7.8148982-7.6702402 7.9917082s-7.9483342-3.0579692-8.3024512-7.3327545c-.3541171-4.2747853 2.7262349-8.068137 6.9826914-8.5989537.6575772-.0799754 1.3224228-.0799754 1.98 0 4.0050064.4994586 7.010753 3.9039704 7.01 7.94z"/></g><circle id="Oval" cx="8" cy="49" fill="#fff" r="3"/><circle id="Oval" cx="29" cy="49" fill="#fff" r="3"/><circle id="Oval" cx="50" cy="49" fill="#fff" r="3"/><path id="Path" d="m12.94 56.29c-2.8987738 2.2798387-6.98122621 2.2798387-9.88 0 .34754767-2.4614472 2.4541376-4.2914894 4.94-4.2914894s4.5924523 1.8300422 4.94 4.2914894z" fill="#d6dbe3"/><path id="Path" d="m33.94 56.29c-2.8987738 2.2798387-6.9812262 2.2798387-9.88 0 .3475477-2.4614472 2.4541376-4.2914894 4.94-4.2914894s4.5924523 1.8300422 4.94 4.2914894z" fill="#d6dbe3"/><path id="Path" d="m54.94 56.29c-2.8987738 2.2798387-6.9812262 2.2798387-9.88 0 .3475477-2.4614472 2.4541376-4.2914894 4.94-4.2914894s4.5924523 1.8300422 4.94 4.2914894z" fill="#d6dbe3"/><path id="Path" d="m51 39v3c.0015762.0205148-.0018556.0411053-.01.06-.6575772-.0799754-1.3224228-.0799754-1.98 0-.0081444-.0188947-.0115762-.0394852-.01-.06v-3c0-.5522847-.4477153-1-1-1h-18v4c.0015762.0205148-.0018556.0411053-.01.06-.6575772-.0799754-1.3224228-.0799754-1.98 0-.0081444-.0188947-.0115762-.0394852-.01-.06v-4h-18c-.55228475 0-1 .4477153-1 1v3c.00157617.0205148-.00185559.0411053-.01.06-.65757725-.0799754-1.32242275-.0799754-1.98 0-.00814441-.0188947-.01157617-.0394852-.01-.06v-3c.0049422-1.6548028 1.3451972-2.9950578 3-3h18v-4.03c.33.02.66.03 1 .03s.67-.01 1-.03v4.03h18c1.6548028.0049422 2.9950578 1.3451972 3 3z" fill="#295474"/></g></svg>