<?xml version="1.0" encoding="iso-8859-1"?>
<!--
  - Copyright (c) 2023. Selldone® Business OS?
  -
  - Author: M.Pajuhaan
  - Web: https://selldone.com
  - ??????????????????????????????????????????????????????
  -
  - All rights reserved. In the weave of time, where traditions and innovations intermingle, this content was crafted.
  - From the essence of thought, through the corridors of creativity, each word, and sentiment has been molded.
  - Not just to exist, but to inspire. Like an artist's stroke or a sculptor's chisel, every nuance is deliberate.
  - Our journey is not just about reaching a destination, but about creating a masterpiece.
  - Tread carefully, for you're treading on dreams.
  -->

<!-- Generator: Adobe Illustrator 19.0.0, SVG Export Plug-In . SVG Version: 6.00 Build 0)  -->
<svg version="1.1" id="Capa_1" xmlns="http://www.w3.org/2000/svg" xmlns:xlink="http://www.w3.org/1999/xlink" x="0px" y="0px"
	 viewBox="0 0 512 512" style="enable-background:new 0 0 512 512;" xml:space="preserve">
<g>
	<path style="fill:#CCCCCC;" d="M256.054,70.959c-4.266,0-7.725-3.458-7.725-7.725V32.391c0-4.267,3.458-7.725,7.725-7.725
		c4.266,0,7.725,3.458,7.725,7.725v30.842C263.78,67.501,260.321,70.959,256.054,70.959z"/>
	<path style="fill:#CCCCCC;" d="M399.895,70.959c-4.266,0-7.725-3.458-7.725-7.725V32.391c0-4.267,3.458-7.725,7.725-7.725
		c4.266,0,7.725,3.458,7.725,7.725v30.842C407.62,67.501,404.162,70.959,399.895,70.959z"/>
	<path style="fill:#CCCCCC;" d="M112.214,70.959c-4.266,0-7.725-3.458-7.725-7.725V32.391c0-4.267,3.458-7.725,7.725-7.725
		c4.266,0,7.725,3.458,7.725,7.725v30.842C119.939,67.501,116.48,70.959,112.214,70.959z"/>
</g>
<path style="fill:#7F7E7D;" d="M133.157,0.054H91.269c-6.799,0-12.36,5.562-12.36,12.36v17.322c0,1.466,1.189,2.654,2.654,2.654
	h61.246c1.496,0,2.707-1.213,2.707-2.707V12.414C145.518,5.616,139.956,0.054,133.157,0.054z"/>
<path style="fill:#727272;" d="M112.214,29.737V12.414c0-6.799,5.562-12.36,12.36-12.36H91.269c-6.798,0-12.36,5.562-12.36,12.36
	v17.322c0,1.466,1.189,2.654,2.654,2.654h33.304C113.401,32.391,112.214,31.203,112.214,29.737z"/>
<path style="fill:#E6E6E6;" d="M499.011,63.234H13.097c-7.144,0-12.989,5.845-12.989,12.989c0,11.514,0,253.659,0,265.237
	c0,7.144,5.845,12.989,12.989,12.989h485.914c7.143,0,12.989-5.845,12.989-12.989v-33.507c0-7.678,0-219.47,0-231.73
	C512,69.08,506.154,63.234,499.011,63.234z"/>
<path style="fill:#CCCCCC;" d="M55.73,341.46v-33.507c0-7.678,0-219.47,0-231.73c0-7.143,5.845-12.989,12.989-12.989H13.097
	c-7.144,0-12.989,5.845-12.989,12.989c0,11.514,0,253.659,0,265.237c0,7.144,5.845,12.989,12.989,12.989h55.621
	C61.575,354.449,55.73,348.605,55.73,341.46z"/>
<rect x="228.242" y="349.646" style="fill:#E6E6E6;" width="55.625" height="111.077"/>
<g>
	<rect x="228.242" y="349.646" style="fill:#CCCCCC;" width="27.812" height="111.077"/>
	<path style="fill:#CCCCCC;" d="M291.242,456.321h-70.374c-6.799,0-12.36,5.562-12.36,12.36c0,6.541,0,12.045,0,19.853h95.094
		c0-3.597,0-11.867,0-15.452v-4.401C303.601,461.884,298.039,456.321,291.242,456.321z"/>
</g>
<path style="fill:#B7B7B7;" d="M246.085,468.681c0-6.799,5.562-12.36,12.36-12.36h-37.578c-6.799,0-12.36,5.562-12.36,12.36
	c0,6.541,0,12.045,0,19.853h37.578C246.085,484.454,246.085,472.797,246.085,468.681z"/>
<path style="fill:#ED5A5A;" d="M512,341.46v-33.507v-9.129H0.108c0,11.526,0,36.318,0,42.636c0,7.144,5.845,12.989,12.989,12.989
	h485.914C506.154,354.449,512,348.605,512,341.46z"/>
<path style="fill:#E04B4B;" d="M13.097,354.449h55.621c-7.144,0-12.989-5.845-12.989-12.989v-33.507v-9.129H0.108
	c0,45.851-0.983,46.095,2.975,50.885C5.458,352.584,9.079,354.449,13.097,354.449z"/>
<path style="fill:#F47D7D;" d="M478.025,334.362H34.084c-4.266,0-7.725-3.458-7.725-7.725c0-4.267,3.458-7.725,7.725-7.725h443.942
	c4.266,0,7.725,3.458,7.725,7.725C485.752,330.903,482.292,334.362,478.025,334.362z"/>
<path style="fill:#7F7E7D;" d="M357.133,496.287c-0.891-6.866-6.703-12.153-13.784-12.153c-80.602,0-133.907,0-174.588,0
	c-6.341,0-11.951,4.289-13.519,10.697c-2.1,8.863,4.657,17.115,13.519,17.115c36.44,0,138.081,0,174.588,0
	C351.604,511.946,358.192,504.746,357.133,496.287z"/>
<path style="fill:#727272;" d="M233.955,494.476c1.577-5.951,6.983-10.342,13.428-10.342c-9.922,0-68.715,0-78.622,0
	c-6.329,0-11.947,4.277-13.519,10.697c-2.1,8.864,4.657,17.115,13.519,17.115c25.841,0,54.694,0,78.622,0
	C238.257,511.946,231.585,503.277,233.955,494.476z"/>
<path style="fill:#7F7E7D;" d="M276.999,0.054h-41.888c-6.799,0-12.36,5.562-12.36,12.36v17.322c0,1.466,1.189,2.654,2.654,2.654
	h61.246c1.496,0,2.707-1.213,2.707-2.707V12.414C289.359,5.616,283.796,0.054,276.999,0.054z"/>
<path style="fill:#727272;" d="M256.054,29.737V12.414c0-6.799,5.562-12.36,12.36-12.36h-33.304c-6.798,0-12.36,5.562-12.36,12.36
	v17.322c0,1.466,1.189,2.654,2.654,2.654h33.304C257.243,32.391,256.054,31.203,256.054,29.737z"/>
<path style="fill:#7F7E7D;" d="M420.84,0.054h-41.888c-6.799,0-12.36,5.562-12.36,12.36v17.322c0,1.466,1.189,2.654,2.654,2.654
	h61.246c1.496,0,2.707-1.213,2.707-2.707V12.414C433.2,5.616,427.638,0.054,420.84,0.054z"/>
<path style="fill:#727272;" d="M399.895,29.737V12.414c0-6.799,5.562-12.36,12.36-12.36h-33.304c-6.798,0-12.36,5.562-12.36,12.36
	v17.322c0,1.466,1.189,2.654,2.654,2.654h33.304C401.084,32.391,399.895,31.203,399.895,29.737z"/>
<g>
</g>
<g>
</g>
<g>
</g>
<g>
</g>
<g>
</g>
<g>
</g>
<g>
</g>
<g>
</g>
<g>
</g>
<g>
</g>
<g>
</g>
<g>
</g>
<g>
</g>
<g>
</g>
<g>
</g>
</svg>
