<svg id="Layer_3" height="512" viewBox="0 0 32 32" width="512" xmlns="http://www.w3.org/2000/svg" xmlns:xlink="http://www.w3.org/1999/xlink" data-name="Layer 3"><linearGradient id="linear-gradient" gradientUnits="userSpaceOnUse" x1="1.838" x2="24.552" y1="29.798" y2="8.324"><stop offset="0" stop-color="#00a1e2"/><stop offset="1" stop-color="#00e0a5"/></linearGradient><linearGradient id="linear-gradient-2" x1="-1.525" x2="21.189" xlink:href="#linear-gradient" y1="26.241" y2="4.767"/><linearGradient id="linear-gradient-3" x1="4.303" x2="27.016" xlink:href="#linear-gradient" y1="32.405" y2="10.93"/><linearGradient id="linear-gradient-4" x1="5.598" x2="28.312" xlink:href="#linear-gradient" y1="33.775" y2="12.301"/><linearGradient id="linear-gradient-5" x1="-2.657" x2="20.056" xlink:href="#linear-gradient" y1="25.044" y2="3.569"/><linearGradient id="linear-gradient-6" x1="1.355" x2="24.068" xlink:href="#linear-gradient" y1="29.287" y2="7.813"/><path d="m21.67 9.056-20 7a1 1 0 0 0 -.076 1.858l8.648 3.844 3.844 8.648a1 1 0 0 0 .914.594h.041a1 1 0 0 0 .9-.669l7-20a1 1 0 0 0 -1.271-1.275z" fill="url(#linear-gradient)"/><path d="m22 1a1 1 0 0 0 -1 1v4a1 1 0 0 0 2 0v-4a1 1 0 0 0 -1-1z" fill="url(#linear-gradient-2)"/><path d="m30 9h-4a1 1 0 0 0 0 2h4a1 1 0 0 0 0-2z" fill="url(#linear-gradient-3)"/><path d="m25.707 12.293a1 1 0 0 0 -1.414 1.414l2.5 2.5a1 1 0 0 0 1.414-1.414z" fill="url(#linear-gradient-4)"/><path d="m18.293 7.707a1 1 0 0 0 1.414-1.414l-2.5-2.5a1 1 0 0 0 -1.414 1.414z" fill="url(#linear-gradient-5)"/><path d="m25 8a1 1 0 0 0 .707-.293l2.5-2.5a1 1 0 1 0 -1.414-1.414l-2.5 2.5a1 1 0 0 0 .707 1.707z" fill="url(#linear-gradient-6)"/></svg>