<svg height="512pt" viewBox="0 0 512 512" width="512pt" xmlns="http://www.w3.org/2000/svg"><path d="m406 30h76v76c0 8.289062 6.710938 15 15 15s15-6.710938 15-15v-91c0-8.289062-6.710938-15-15-15h-91c-8.289062 0-15 6.710938-15 15s6.710938 15 15 15zm0 0"/><path d="m406 512h91c8.289062 0 15-6.710938 15-15v-91c0-8.289062-6.710938-15-15-15s-15 6.710938-15 15v76h-76c-8.289062 0-15 6.710938-15 15s6.710938 15 15 15zm0 0"/><path d="m15 512h91c8.289062 0 15-6.710938 15-15s-6.710938-15-15-15h-76v-76c0-8.289062-6.710938-15-15-15s-15 6.710938-15 15v91c0 8.289062 6.710938 15 15 15zm0 0"/><path d="m15 121c8.289062 0 15-6.710938 15-15v-76h76c8.289062 0 15-6.710938 15-15s-6.710938-15-15-15h-91c-8.289062 0-15 6.710938-15 15v91c0 8.289062 6.710938 15 15 15zm0 0"/><path d="m76 271h60c8.289062 0 15-6.710938 15-15s-6.710938-15-15-15h-60c-8.289062 0-15 6.710938-15 15s6.710938 15 15 15zm0 0"/><path d="m271 256c0-8.289062-6.710938-15-15-15h-60c-8.289062 0-15 6.710938-15 15s6.710938 15 15 15h45v75c0 8.289062 6.710938 15 15 15h105v15c0 8.289062 6.710938 15 15 15s15-6.710938 15-15v-15h30v75c0 8.289062 6.710938 15 15 15s15-6.710938 15-15v-90c0-8.289062-6.710938-15-15-15h-105v-15c0-8.289062-6.710938-15-15-15s-15 6.710938-15 15v15h-30zm0 0"/><path d="m256 391c-8.289062 0-15 6.710938-15 15v30c0 8.289062 6.710938 15 15 15h60c8.289062 0 15-6.710938 15-15s-6.710938-15-15-15h-45v-15c0-8.289062-6.710938-15-15-15zm0 0"/><path d="m316 271h45v15c0 8.289062 6.710938 15 15 15s15-6.710938 15-15v-15h30v15c0 8.289062 6.710938 15 15 15s15-6.710938 15-15v-30c0-8.289062-6.710938-15-15-15h-120c-8.289062 0-15 6.710938-15 15s6.710938 15 15 15zm0 0"/><path d="m256 211c8.289062 0 15-6.710938 15-15v-120c0-8.289062-6.710938-15-15-15s-15 6.710938-15 15v120c0 8.289062 6.710938 15 15 15zm0 0"/><path d="m61 436c0 8.289062 6.710938 15 15 15h120c8.289062 0 15-6.710938 15-15v-120c0-8.289062-6.710938-15-15-15h-120c-8.289062 0-15 6.710938-15 15zm75-75c8.285156 0 15 6.714844 15 15s-6.714844 15-15 15-15-6.714844-15-15 6.714844-15 15-15zm0 0"/><path d="m61 76v120c0 8.289062 6.710938 15 15 15h120c8.289062 0 15-6.710938 15-15v-120c0-8.289062-6.710938-15-15-15h-120c-8.289062 0-15 6.710938-15 15zm75 45c8.285156 0 15 6.714844 15 15s-6.714844 15-15 15-15-6.714844-15-15 6.714844-15 15-15zm0 0"/><path d="m316 211h120c8.289062 0 15-6.710938 15-15v-120c0-8.289062-6.710938-15-15-15h-120c-8.289062 0-15 6.710938-15 15v120c0 8.289062 6.710938 15 15 15zm60-90c8.285156 0 15 6.714844 15 15s-6.714844 15-15 15-15-6.714844-15-15 6.714844-15 15-15zm0 0"/><path d="m391 436c0 8.285156-6.714844 15-15 15s-15-6.714844-15-15 6.714844-15 15-15 15 6.714844 15 15zm0 0"/></svg>