<?xml version="1.0" encoding="iso-8859-1"?>



<svg version="1.1" id="Layer_1" xmlns="http://www.w3.org/2000/svg" xmlns:xlink="http://www.w3.org/1999/xlink" x="0px" y="0px"
	 viewBox="0 0 481.882 481.882" style="enable-background:new 0 0 481.882 481.882;" xml:space="preserve">
<circle style="fill:#1E88E5;" cx="240.941" cy="240.941" r="240.941"/>
<path style="fill:#42A5F5;" d="M240.941,0C107.874,0,0,107.874,0,240.941s107.874,240.941,240.941,240.941V0z"/>
<path style="fill:#64B5F6;" d="M389.18,316.634c16.602-24.252,30.411-50.086,41.517-79.081c0-0.008,0.008-0.03,0.015-0.03
	c16.497,0.866,33.867,0.798,51.11-0.572c-0.083-7.304-0.527-14.532-1.288-21.602c-15.97,1.348-29.794,1.641-42.677,1.242
	c8.561-27.234,14.351-55.74,16.632-87.304c-6.249-11.979-13.485-23.424-21.692-34.116c0.572,38.776-5.173,80.919-18.191,119.951
	c-0.015,0-0.015,0-0.03,0c-59.452-5.722-115.614-28.536-156.318-58.127c-25.367-17.566-49.822-40.674-70.272-64.542
	c9.811,0.836,19.652,1.37,29.538,1.37c59.791,0,118.513-15.669,170.842-43.445c-6.415-5.045-13.018-9.638-19.953-13.937
	c-62.306,31.157-130.086,42.684-199.582,31.849c-10.669-14.298-20.834-29.937-30.14-45.636c-6.852,3.245-13.478,6.776-19.945,10.616
	c5.677,9.743,11.595,19.185,17.732,28.333c-13.591-3.464-27.204-7.688-40.855-12.898c-6.776,5.128-13.176,10.541-19.351,16.264
	c25.796,10.632,52.337,18.394,79.337,23.206c0.03,0.045,0.06,0.09,0.098,0.136c25.992,33.295,55.409,62.976,90.729,87.115
	c38.513,28.371,99.441,53.376,160.602,60.16c-4.307,12.936-25.6,58.662-58.827,97.604c-23.823,8.154-48.158,13.982-72.877,17.649
	c-11.43-42.707-31.066-79.164-59.023-109.003c-63.014-67.087-151.04-83.351-200.501-86.889c-2.793,7.304-5.278,14.758-7.311,22.362
	c44.574,2.711,131.84,16.414,191.473,80.12c24.599,26.263,42.18,58.421,52.728,96.188c-44.318,4.209-89.705,1.867-135.394-6.129
	c-18.748-2.68-60.988-12.16-103.755-26.579c3.313,9.487,7.228,18.665,11.678,27.558c47.541,14.75,79.578,19.72,87.108,21.225
	c49.408,8.395,98.101,10.737,145.536,5.956c2.281,11.49,4.021,23.409,5.128,35.84c-31.247,22.37-65.144,41.675-99.388,57.751
	c10.842,3.674,21.986,6.543,33.431,8.644c23.085-11.851,45.696-25.073,67.32-39.763c0.294,13.749,0.023,27.957-1.001,42.707
	c7.755-0.678,15.368-1.8,22.897-3.238c1.144-19.223,1.205-37.632,0.203-55.288c27.445-20.608,52.924-43.799,75.309-69.858
	c0.023-0.015,0.045-0.045,0.06-0.075c19.162-6.882,38.001-15.179,56.486-25.073c21.986-11.806,41.502-24.84,58.737-38.099v-0.068
	c2.176-10.707,3.607-21.609,4.367-32.828c-20.412,17.702-44.958,35.539-73.796,51.049
	C401.536,310.633,395.377,313.705,389.18,316.634z M284.002,395.625c-0.979-7.755-2.116-15.405-3.554-22.814
	c12.838-1.95,25.57-4.45,38.152-7.499C307.704,375.906,296.109,386.018,284.002,395.625z"/>
<path style="fill:#90CAF9;" d="M240.941,92.996V71.522c-23.718,1.574-47.812,0.542-72.109-3.223
	c-10.647-14.283-20.796-29.884-30.088-45.56c-6.769,3.177-12.235,5.993-19.991,10.556c5.685,9.736,11.588,19.17,17.717,28.303
	c-13.56-3.448-27.159-7.672-40.779-12.868c-7.409,5.594-13.395,10.744-19.298,16.286c25.758,10.609,52.262,18.357,79.209,23.16
	c0.045,0.045,0.075,0.09,0.113,0.136c24.614,31.533,52.375,59.768,85.233,83.177v-27.55c-19.064-15.277-37.128-33.144-52.864-51.486
	c9.788,0.828,19.599,1.363,29.448,1.363C225.355,93.816,233.163,93.515,240.941,92.996z"/>
<circle style="fill:#FFFFFF;" cx="158.118" cy="75.294" r="22.588"/>
<path style="fill:#90CAF9;" d="M240.941,320.474v-47.368c-7.356-11.091-15.526-21.534-24.629-31.247
	c-29.96-31.895-65.559-52.216-99.998-65.227c-16.58-33.167-39.379-62.035-65.19-84.156c-4.593,5.865-8.885,11.972-12.951,18.221
	c19.042,15.925,35.464,35.14,48.61,56.32c-26.94-7.371-51.825-10.677-70.935-12.047c-3.531,9.442-5.331,15.119-7.304,22.362
	c23.017,1.408,57.412,5.805,93.485,18.424c8.983,20.104,15.149,41.306,17.988,62.735c4.36,29.35,2.869,59.445-2.733,88.983
	c-18.733-2.665-60.905-12.13-103.635-26.534c2.982,8.538,7.16,18.492,11.693,27.565c47.428,14.712,79.398,19.674,86.957,21.188
	c-5.338,20.623-12.484,40.855-20.894,60.235c6.031,4.736,12.198,9.193,18.673,13.335c9.841-22.084,18.274-45.877,24.343-70.264
	c35.991,4.804,71.582,6.31,106.511,4.051v-22.475c-33.446,2.304-67.464,0.896-101.715-3.735c4.939-26.79,6.724-53.903,3.983-79.917
	c-1.86-22.234-6.739-43.716-13.944-64.015c24.952,11.761,49.574,27.957,70.709,50.545
	C217.02,275.614,230.633,296.712,240.941,320.474z"/>
<g>
	<circle style="fill:#E3F2FD;" cx="264.132" cy="361.412" r="22.588"/>
	<circle style="fill:#E3F2FD;" cx="274.221" cy="419.14" r="22.588"/>
</g>
<g>
	<circle style="fill:#FFFFFF;" cx="111.059" cy="188.235" r="22.588"/>
	<circle style="fill:#FFFFFF;" cx="128" cy="263.529" r="22.588"/>
	<circle style="fill:#FFFFFF;" cx="128" cy="361.412" r="22.588"/>
</g>
<g>
	<circle style="fill:#E3F2FD;" cx="286.118" cy="75.294" r="22.588"/>
	<circle style="fill:#E3F2FD;" cx="421.647" cy="225.882" r="22.588"/>
	<circle style="fill:#E3F2FD;" cx="353.882" cy="346.353" r="22.588"/>
	<circle style="fill:#E3F2FD;" cx="240.941" cy="158.118" r="22.588"/>
</g>
<path style="fill:#FFFFFF;" d="M218.353,158.118c0,12.476,10.112,22.588,22.588,22.588v-45.176
	C228.465,135.529,218.353,145.641,218.353,158.118z"/>
<g>
</g>
<g>
</g>
<g>
</g>
<g>
</g>
<g>
</g>
<g>
</g>
<g>
</g>
<g>
</g>
<g>
</g>
<g>
</g>
<g>
</g>
<g>
</g>
<g>
</g>
<g>
</g>
<g>
</g>
</svg>
