<svg id="Capa_1" enable-background="new 0 0 512 512" height="512" viewBox="0 0 512 512" width="512" xmlns="http://www.w3.org/2000/svg"><g><path d="m467 512h-10c-8.284 0-15-6.716-15-15s6.716-15 15-15h10c8.271 0 15-6.729 15-15s-6.729-15-15-15h-51.896c-8.284 0-15-6.716-15-15s6.716-15 15-15h51.896c24.813 0 45 20.187 45 45s-20.187 45-45 45z" fill="#00337a"/><circle cx="256" cy="256" fill="#bceaf9" r="256"/><path d="m256 0v512c141.385 0 256-114.615 256-256s-114.615-256-256-256z" fill="#8bb9ff"/><path d="m256 151c-30.327 0-55-24.673-55-55v-15.385c0-7.004 4.847-13.075 11.676-14.627 14.563-3.309 29.139-4.988 43.324-4.988s28.761 1.679 43.324 4.988c6.829 1.552 11.676 7.623 11.676 14.627v15.385c0 30.327-24.673 55-55 55z" fill="#0052be"/><path d="m256 451c-14.185 0-28.761-1.679-43.324-4.988-6.829-1.552-11.676-7.623-11.676-14.627v-15.385c0-30.327 24.673-55 55-55s55 24.673 55 55v15.385c0 7.004-4.847 13.075-11.676 14.627-14.563 3.309-29.139 4.988-43.324 4.988z" fill="#0052be"/><path d="m117.344 230.989c-9.326 0-18.768-2.37-27.408-7.358l-13.446-7.764c-6.061-3.499-8.896-10.725-6.833-17.412 8.477-27.479 23.531-53.396 43.536-74.95 4.761-5.129 12.437-6.284 18.494-2.786l13.249 7.649c26.264 15.163 35.295 48.867 20.132 75.132-10.175 17.624-28.703 27.489-47.724 27.489z" fill="#0052be"/><path d="m387.807 393.292c-2.565 0-5.15-.657-7.494-2.011l-13.249-7.649c-26.263-15.164-35.294-48.867-20.131-75.132 15.163-26.266 48.866-35.294 75.132-20.131l13.446 7.763c6.061 3.499 8.896 10.725 6.834 17.412-8.478 27.48-23.533 53.398-43.538 74.951-2.919 3.146-6.935 4.797-11 4.797z" fill="#00337a"/><path d="m124.193 393.292c-4.066 0-8.081-1.651-11-4.797-20.005-21.553-35.061-47.471-43.538-74.951-2.062-6.688.773-13.913 6.834-17.412l13.446-7.763c26.265-15.161 59.969-6.133 75.132 20.131 15.163 26.265 6.132 59.968-20.131 75.132l-13.249 7.649c-2.343 1.354-4.929 2.01-7.494 2.011z" fill="#0052be"/><path d="m394.656 230.989c-19.023 0-37.548-9.864-47.724-27.489-15.163-26.265-6.132-59.969 20.132-75.132l13.249-7.649c6.059-3.499 13.733-2.345 18.494 2.786 20.005 21.554 35.06 47.471 43.536 74.95 2.063 6.688-.772 13.913-6.833 17.412l-13.446 7.764c-8.638 4.987-18.084 7.358-27.408 7.358z" fill="#00337a"/><path d="m256 331c-41.355 0-75-33.645-75-75s33.645-75 75-75 75 33.645 75 75-33.645 75-75 75z" fill="#0052be"/><g fill="#00337a"><path d="m311 96v-15.385c0-7.004-4.847-13.075-11.676-14.627-14.563-3.309-29.139-4.988-43.324-4.988v90c30.327 0 55-24.673 55-55z"/><path d="m299.324 446.012c6.829-1.552 11.676-7.623 11.676-14.627v-15.385c0-30.327-24.673-55-55-55v90c14.185 0 28.761-1.679 43.324-4.988z"/><path d="m331 256c0-41.355-33.645-75-75-75v150c41.355 0 75-33.645 75-75z"/></g></g></svg>