<svg id="Capa_1" enable-background="new 0 0 510 510" height="512" viewBox="0 0 510 510" width="512" xmlns="http://www.w3.org/2000/svg" xmlns:xlink="http://www.w3.org/1999/xlink"><linearGradient id="SVGID_1_" gradientUnits="userSpaceOnUse" x1="255" x2="255" y1="34.721" y2="483.763"><stop offset="0" stop-color="#c7e9ff"/><stop offset=".3556" stop-color="#a3e6f2"/><stop offset="1" stop-color="#65e0db"/></linearGradient><linearGradient id="lg1"><stop offset="0" stop-color="#edf5ff"/><stop offset="1" stop-color="#c7e9ff"/></linearGradient><linearGradient id="SVGID_2_" gradientUnits="userSpaceOnUse" x1="80.203" x2="166.655" xlink:href="#lg1" y1="61.4" y2="147.852"/><linearGradient id="SVGID_3_" gradientUnits="userSpaceOnUse" x1="166.515" x2="202.719" xlink:href="#lg1" y1="23.432" y2="59.636"/><linearGradient id="SVGID_4_" gradientUnits="userSpaceOnUse" x1="294.295" x2="352.895" xlink:href="#lg1" y1="108.056" y2="166.656"/><linearGradient id="SVGID_5_" gradientUnits="userSpaceOnUse" x1="349.537" x2="434.423" y1="61.32" y2="146.205"><stop offset="0" stop-color="#ffd945"/><stop offset=".3043" stop-color="#ffcd3e"/><stop offset=".8558" stop-color="#ffad2b"/><stop offset="1" stop-color="#ffa325"/></linearGradient><linearGradient id="lg2"><stop offset="0" stop-color="#c6b198"/><stop offset="1" stop-color="#988575"/></linearGradient><linearGradient id="SVGID_6_" gradientUnits="userSpaceOnUse" x1="-31.335" x2="81.769" xlink:href="#lg2" y1="175.88" y2="290.083"/><linearGradient id="lg3"><stop offset="0" stop-color="#754c24" stop-opacity="0"/><stop offset="1" stop-color="#754c24"/></linearGradient><linearGradient id="SVGID_7_" gradientUnits="userSpaceOnUse" x1="138.908" x2="-3.92" xlink:href="#lg3" y1="269.232" y2="232.695"/><linearGradient id="SVGID_8_" gradientUnits="userSpaceOnUse" x1="73.151" x2="-13.738" xlink:href="#lg3" y1="327.414" y2="247.325"/><linearGradient id="SVGID_9_" gradientUnits="userSpaceOnUse" x1="40.384" x2="51.15" xlink:href="#lg2" y1="214.664" y2="286.631"/><linearGradient id="SVGID_10_" gradientUnits="userSpaceOnUse" x1="45.4" x2="-57.733" xlink:href="#lg3" y1="272.176" y2="232.51"/><linearGradient id="SVGID_11_" gradientUnits="userSpaceOnUse" x1="97.467" x2="-9.077" xlink:href="#lg3" y1="367.242" y2="367.242"/><linearGradient id="SVGID_12_" gradientUnits="userSpaceOnUse" x1="-47.321" x2="7.646" xlink:href="#lg2" y1="287.172" y2="351.205"/><linearGradient id="SVGID_13_" gradientUnits="userSpaceOnUse" x1="347.036" x2="457.115" xlink:href="#lg2" y1="187.001" y2="297.08"/><linearGradient id="SVGID_14_" gradientUnits="userSpaceOnUse" x1="449.11" x2="257.13" xlink:href="#lg3" y1="261.34" y2="119.01"/><linearGradient id="SVGID_15_" gradientUnits="userSpaceOnUse" x1="425.12" x2="338.231" xlink:href="#lg3" y1="327.414" y2="247.325"/><linearGradient id="SVGID_16_" gradientUnits="userSpaceOnUse" x1="392.352" x2="403.119" xlink:href="#lg2" y1="214.664" y2="286.631"/><linearGradient id="SVGID_17_" gradientUnits="userSpaceOnUse" x1="397.369" x2="294.236" xlink:href="#lg3" y1="272.176" y2="232.51"/><linearGradient id="SVGID_18_" gradientUnits="userSpaceOnUse" x1="449.436" x2="342.892" xlink:href="#lg3" y1="367.242" y2="367.242"/><linearGradient id="SVGID_19_" gradientUnits="userSpaceOnUse" x1="304.649" x2="359.615" xlink:href="#lg2" y1="287.172" y2="351.205"/><linearGradient id="SVGID_20_" gradientUnits="userSpaceOnUse" x1="426.133" x2="322.083" xlink:href="#lg3" y1="291.979" y2="291.979"/><linearGradient id="lg4"><stop offset="0" stop-color="#18cefb"/><stop offset="1" stop-color="#4a97f6"/></linearGradient><linearGradient id="SVGID_21_" gradientUnits="userSpaceOnUse" x1="177.869" x2="297.108" xlink:href="#lg4" y1="220.418" y2="339.657"/><linearGradient id="lg5"><stop offset="0" stop-color="#4a97f6" stop-opacity="0"/><stop offset="1" stop-color="#0469bb"/></linearGradient><linearGradient id="SVGID_22_" gradientUnits="userSpaceOnUse" x1="264.155" x2="20.488" xlink:href="#lg5" y1="296.842" y2="427.175"/><linearGradient id="SVGID_23_" gradientUnits="userSpaceOnUse" x1="285.021" x2="100.288" xlink:href="#lg5" y1="285.346" y2="204.879"/><linearGradient id="SVGID_24_" gradientUnits="userSpaceOnUse" x1="374.011" x2="233.478" xlink:href="#lg5" y1="282.117" y2="309.317"/><linearGradient id="SVGID_25_" gradientUnits="userSpaceOnUse" x1="278.956" x2="349.352" xlink:href="#lg1" y1="389.844" y2="460.24"/><linearGradient id="lg6"><stop offset="0" stop-color="#7acbff" stop-opacity="0"/><stop offset="1" stop-color="#2f73a0"/></linearGradient><linearGradient id="SVGID_26_" gradientUnits="userSpaceOnUse" x1="306.108" x2="351.401" xlink:href="#lg6" y1="399.089" y2="389.88"/><linearGradient id="SVGID_27_" gradientUnits="userSpaceOnUse" x1="315.285" x2="315.285" xlink:href="#lg6" y1="442.651" y2="463.647"/><linearGradient id="SVGID_28_" gradientUnits="userSpaceOnUse" x1="223.563" x2="271.942" xlink:href="#lg1" y1="411.925" y2="460.304"/><linearGradient id="SVGID_29_" gradientUnits="userSpaceOnUse" x1="242.223" x2="273.349" xlink:href="#lg6" y1="418.279" y2="411.949"/><linearGradient id="SVGID_30_" gradientUnits="userSpaceOnUse" x1="248.529" x2="248.529" xlink:href="#lg6" y1="448.216" y2="462.645"/><linearGradient id="SVGID_31_" gradientUnits="userSpaceOnUse" x1="148.165" x2="211.981" xlink:href="#lg1" y1="396.442" y2="460.259"/><linearGradient id="SVGID_32_" gradientUnits="userSpaceOnUse" x1="172.779" x2="213.838" xlink:href="#lg6" y1="404.824" y2="396.475"/><linearGradient id="SVGID_33_" gradientUnits="userSpaceOnUse" x1="181.098" x2="181.098" xlink:href="#lg6" y1="444.314" y2="463.348"/><linearGradient id="SVGID_34_" gradientUnits="userSpaceOnUse" x1="98.067" x2="146.446" xlink:href="#lg1" y1="411.925" y2="460.304"/><linearGradient id="SVGID_35_" gradientUnits="userSpaceOnUse" x1="116.727" x2="147.854" xlink:href="#lg6" y1="418.279" y2="411.949"/><linearGradient id="SVGID_36_" gradientUnits="userSpaceOnUse" x1="123.034" x2="123.034" xlink:href="#lg6" y1="448.216" y2="462.645"/><linearGradient id="SVGID_37_" gradientUnits="userSpaceOnUse" x1="360.707" x2="409.086" xlink:href="#lg1" y1="411.925" y2="460.304"/><linearGradient id="SVGID_38_" gradientUnits="userSpaceOnUse" x1="379.367" x2="410.494" xlink:href="#lg6" y1="418.279" y2="411.949"/><linearGradient id="SVGID_39_" gradientUnits="userSpaceOnUse" x1="385.674" x2="385.674" xlink:href="#lg6" y1="448.216" y2="462.645"/><linearGradient id="SVGID_40_" gradientUnits="userSpaceOnUse" x1="255" x2="255" xlink:href="#lg4" y1="440.936" y2="523.612"/><linearGradient id="SVGID_41_" gradientUnits="userSpaceOnUse" x1="253.076" x2="260.978" xlink:href="#lg5" y1="488.171" y2="415.93"/><linearGradient id="SVGID_42_" gradientUnits="userSpaceOnUse" x1="253.26" x2="259.382" xlink:href="#lg5" y1="498.772" y2="442.795"/><linearGradient id="SVGID_43_" gradientUnits="userSpaceOnUse" x1="34.058" x2="59.747" xlink:href="#lg2" y1="424.98" y2="490.713"/><linearGradient id="SVGID_44_" gradientUnits="userSpaceOnUse" x1="431.182" x2="479.213" xlink:href="#lg2" y1="439.516" y2="487.547"/><linearGradient id="lg7"><stop offset="0" stop-color="#bada00"/><stop offset=".2187" stop-color="#b6d600"/><stop offset=".4501" stop-color="#acc900"/><stop offset=".6873" stop-color="#9ab400"/><stop offset=".9271" stop-color="#829700"/><stop offset="1" stop-color="#798c00"/></linearGradient><linearGradient id="SVGID_45_" gradientUnits="userSpaceOnUse" x1="1.381" x2="53.398" xlink:href="#lg7" y1="378.228" y2="430.246"/><linearGradient id="lg8"><stop offset="0" stop-color="#43765a" stop-opacity="0"/><stop offset="1" stop-color="#43765a"/></linearGradient><linearGradient id="SVGID_46_" gradientUnits="userSpaceOnUse" x1="16.547" x2="46.362" xlink:href="#lg8" y1="392.824" y2="386.761"/><linearGradient id="SVGID_47_" gradientUnits="userSpaceOnUse" x1="460.868" x2="499.605" xlink:href="#lg7" y1="388.549" y2="427.285"/><linearGradient id="SVGID_48_" gradientUnits="userSpaceOnUse" x1="485.045" x2="519.542" xlink:href="#lg8" y1="393.425" y2="386.411"/><g><path d="m485.638 510h-461.276c-13.455 0-24.362-10.907-24.362-24.362v-461.276c0-13.455 10.907-24.362 24.362-24.362h461.275c13.456 0 24.363 10.907 24.363 24.362v461.275c0 13.456-10.907 24.363-24.362 24.363z" fill="url(#SVGID_1_)"/><g><path d="m147.378 69.813h-11.748c0-14.706-11.922-26.627-26.627-26.627h-52.52c-14.706 0-26.627 11.922-26.627 26.627s11.922 26.627 26.627 26.627h11.747c0 14.706 11.922 26.627 26.627 26.627h52.52c14.706 0 26.627-11.922 26.627-26.627.002-14.705-11.92-26.627-26.626-26.627z" fill="url(#SVGID_2_)"/><path d="m192.203 49.352h-33.178c-9.29 0-16.821-7.531-16.821-16.821 0-9.29 7.531-16.821 16.821-16.821h33.178c9.29 0 16.821 7.531 16.821 16.821 0 9.29-7.531 16.821-16.821 16.821z" fill="url(#SVGID_3_)"/></g><path d="m339.829 113.759h-7.964c0-9.968-8.081-18.049-18.049-18.049h-35.6c-9.968 0-18.049 8.081-18.049 18.049s8.081 18.049 18.049 18.049h7.963c0 9.968 8.081 18.049 18.049 18.049h35.6c9.968 0 18.049-8.081 18.049-18.049.001-9.968-8.08-18.049-18.048-18.049z" fill="url(#SVGID_4_)"/><circle cx="370.871" cy="82.653" fill="url(#SVGID_5_)" r="66.943"/><g><g><path d="m101.364 93.923c0-10.225-8.289-18.514-18.513-18.514h-37.137c-25.247.001-45.714 20.467-45.714 45.714v318.587h158.031v-289.12c0-21.071-17.082-38.153-38.153-38.153-10.225 0-18.514-8.289-18.514-18.514z" fill="url(#SVGID_6_)"/><path d="m158.031 439.711v-289.121c0-21.071-17.082-38.153-38.153-38.153-10.31 0-18.388-8.436-18.515-18.746-.124-10.118-8.365-18.281-18.512-18.281-10.706 0-19.384 8.679-19.384 19.384v65.561c0 10.465 8.484 18.949 18.949 18.949 10.465 0 18.949 8.484 18.949 18.949v241.458z" fill="url(#SVGID_7_)"/><path d="m82.781 439.711h75.25v-131.592l-75.25-75.249z" fill="url(#SVGID_8_)"/><path d="m38.157 244.659c-13.353 0-24.178 10.825-24.178 24.178v49.224h72.533v-73.402c0-11.356-9.205-20.561-20.561-20.561h-7.233c-11.356 0-20.561 9.206-20.561 20.561z" fill="url(#SVGID_9_)"/><path d="m86.512 318.061v-73.402c0-4.39-1.387-8.45-3.731-11.79-1.808-.52-3.711-.814-5.686-.814h-7.233c-11.356 0-20.561 9.206-20.561 20.561-13.353 0-24.178 10.825-24.178 24.178v41.267z" fill="url(#SVGID_10_)"/><path d="m42.683 439.711h115.348v-29.589l-115.348-115.348z" fill="url(#SVGID_11_)"/><path d="m0 279.037h11.523c21.386 0 38.723 17.337 38.723 38.723v121.951h-50.246z" fill="url(#SVGID_12_)"/></g><g><path d="m408.636 93.923c0-10.225 8.289-18.514 18.513-18.514h37.137c25.247 0 45.714 20.467 45.714 45.714v318.587h-158.031v-289.12c0-21.071 17.082-38.153 38.153-38.153 10.225 0 18.514-8.289 18.514-18.514z" fill="url(#SVGID_13_)"/><path d="m464.286 75.41c-9.805 0-17.753 7.948-17.753 17.753v67.192c0 10.496-8.588 18.876-19.084 18.949-10.403.073-18.814 8.528-18.814 18.948v241.458h101.365v-318.587c0-25.247-20.467-45.713-45.714-45.713z" fill="url(#SVGID_14_)"/><g><path d="m434.75 439.711h75.25v-131.592l-75.25-75.249z" fill="url(#SVGID_15_)"/><path d="m390.126 244.659c-13.353 0-24.178 10.825-24.178 24.178v49.224h72.533v-73.402c0-11.356-9.205-20.561-20.561-20.561h-7.233c-11.356 0-20.561 9.206-20.561 20.561z" fill="url(#SVGID_16_)"/><path d="m438.482 318.061v-73.402c0-4.39-1.387-8.45-3.731-11.79-1.808-.52-3.711-.814-5.686-.814h-7.233c-11.356 0-20.561 9.206-20.561 20.561-13.353 0-24.178 10.825-24.178 24.178v41.267z" fill="url(#SVGID_17_)"/></g><g><path d="m394.652 439.711h115.348v-29.589l-115.348-115.348z" fill="url(#SVGID_18_)"/><path d="m351.969 279.037h11.523c21.386 0 38.723 17.337 38.723 38.723v121.951h-50.246z" fill="url(#SVGID_19_)"/><path d="m352.504 144.246c-.345 2.064-.535 4.181-.535 6.344v289.121h158.031v-137.968z" fill="url(#SVGID_20_)"/></g></g><g><path d="m364.307 439.711h-218.614v-272.483c0-15.788 12.799-28.587 28.587-28.587h161.44c15.788 0 28.587 12.799 28.587 28.587z" fill="url(#SVGID_21_)"/><path d="m335.72 138.64h-143.053v301.07h171.641v-272.482c-.001-15.789-12.8-28.588-28.588-28.588z" fill="url(#SVGID_22_)"/><path d="m335.72 138.64h-89.787v301.07h118.374v-272.482c0-15.789-12.799-28.588-28.587-28.588z" fill="url(#SVGID_23_)"/><path d="m335.72 138.64h-24.947v301.07h53.534v-272.482c0-15.789-12.799-28.588-28.587-28.588z" fill="url(#SVGID_24_)"/></g><g><g><g><g><path d="m345.336 388.682c-3.89 0-7.634.622-11.142 1.766-3.752-12.241-15.142-21.142-28.612-21.142-16.526 0-29.922 13.397-29.922 29.922 0 2.388.281 4.71.81 6.936-14.103.994-25.236 12.749-25.236 27.104 0 15.008 12.166 27.174 27.174 27.174h66.928c19.816 0 35.88-16.064 35.88-35.88.001-19.815-16.064-35.88-35.88-35.88z" fill="url(#SVGID_25_)"/><path d="m309.455 424.564c0 1.455.088 2.89.257 4.3-1.35.19-2.73.287-4.131.287-16.526 0-29.92-13.397-29.92-29.923 0-16.523 13.394-29.92 29.92-29.92 13.47 0 24.862 8.901 28.613 21.142-14.361 4.683-24.739 18.187-24.739 34.114z" fill="url(#SVGID_26_)"/><path d="m251.443 436.652c1.665 13.411 13.102 23.792 26.965 23.792h66.928c15.574 0 28.829-9.923 33.791-23.792z" fill="url(#SVGID_27_)"/></g></g></g><g><g><g><path d="m269.182 411.126c-2.673 0-5.247.427-7.657 1.214-2.578-8.412-10.406-14.529-19.663-14.529-11.357 0-20.564 9.207-20.564 20.564 0 1.641.193 3.237.556 4.766-9.692.683-17.343 8.761-17.343 18.627 0 10.314 8.361 18.675 18.675 18.675h45.996c13.619 0 24.659-11.04 24.659-24.659s-11.041-24.658-24.659-24.658z" fill="url(#SVGID_28_)"/><path d="m244.523 435.786c0 1 .06 1.986.176 2.955-.928.131-1.876.197-2.839.197-11.357 0-20.562-9.207-20.562-20.564 0-11.355 9.205-20.562 20.562-20.562 9.257 0 17.086 6.117 19.664 14.53-9.869 3.218-17.001 12.498-17.001 23.444z" fill="url(#SVGID_29_)"/><path d="m204.655 444.093c1.144 9.217 9.004 16.351 18.531 16.351h45.996c10.703 0 19.812-6.82 23.222-16.351z" fill="url(#SVGID_30_)"/></g></g></g><g><g><g><path d="m208.341 395.39c-3.526 0-6.921.563-10.101 1.601-3.401-11.097-13.727-19.166-25.938-19.166-14.981 0-27.125 12.144-27.125 27.125 0 2.165.255 4.269.734 6.287-12.785.901-22.877 11.557-22.877 24.571 0 13.605 11.029 24.634 24.634 24.634h60.673c17.964 0 32.527-14.563 32.527-32.527s-14.563-32.525-32.527-32.525z" fill="url(#SVGID_31_)"/><path d="m175.813 427.918c0 1.319.079 2.62.233 3.898-1.224.172-2.475.26-3.745.26-14.981 0-27.124-12.145-27.124-27.126 0-14.978 12.143-27.124 27.124-27.124 12.211 0 22.539 8.069 25.938 19.166-13.018 4.246-22.426 16.487-22.426 30.926z" fill="url(#SVGID_32_)"/><path d="m123.224 438.876c1.51 12.158 11.878 21.568 24.444 21.568h60.673c14.118 0 26.134-8.996 30.632-21.568z" fill="url(#SVGID_33_)"/></g></g></g><g><g><g><path d="m143.686 411.126c-2.673 0-5.247.427-7.657 1.214-2.578-8.412-10.406-14.529-19.663-14.529-11.357 0-20.564 9.207-20.564 20.564 0 1.641.193 3.237.556 4.766-9.692.683-17.343 8.761-17.343 18.627 0 10.314 8.361 18.675 18.675 18.675h45.996c13.619 0 24.658-11.04 24.658-24.659s-11.039-24.658-24.658-24.658z" fill="url(#SVGID_34_)"/><path d="m119.027 435.786c0 1 .06 1.986.176 2.955-.928.131-1.876.197-2.839.197-11.357 0-20.562-9.207-20.562-20.564 0-11.355 9.205-20.562 20.562-20.562 9.257 0 17.086 6.117 19.664 14.53-9.869 3.218-17.001 12.498-17.001 23.444z" fill="url(#SVGID_35_)"/><path d="m79.159 444.093c1.144 9.217 9.004 16.351 18.531 16.351h45.996c10.703 0 19.812-6.82 23.222-16.351z" fill="url(#SVGID_36_)"/></g></g></g><g><g><g><path d="m406.326 411.126c-2.673 0-5.247.427-7.657 1.214-2.578-8.412-10.406-14.529-19.663-14.529-11.357 0-20.564 9.207-20.564 20.564 0 1.641.193 3.237.556 4.766-9.692.683-17.343 8.761-17.343 18.627 0 10.314 8.361 18.675 18.675 18.675h45.996c13.619 0 24.659-11.04 24.659-24.659s-11.04-24.658-24.659-24.658z" fill="url(#SVGID_37_)"/><path d="m381.667 435.786c0 1 .06 1.986.176 2.955-.928.131-1.876.197-2.839.197-11.357 0-20.562-9.207-20.562-20.564 0-11.355 9.205-20.562 20.562-20.562 9.257 0 17.086 6.117 19.664 14.53-9.869 3.218-17.001 12.498-17.001 23.444z" fill="url(#SVGID_38_)"/><path d="m341.799 444.093c1.144 9.217 9.004 16.351 18.531 16.351h45.996c10.703 0 19.812-6.82 23.222-16.351z" fill="url(#SVGID_39_)"/></g></g></g></g><path d="m0 485.638c0 13.455 10.907 24.362 24.362 24.362h461.275c13.456 0 24.363-10.907 24.363-24.362v-45.927h-510z" fill="url(#SVGID_40_)"/><path d="m0 485.638c0 13.455 10.907 24.362 24.362 24.362h461.275c13.456 0 24.363-10.907 24.363-24.362v-31.46h-510z" fill="url(#SVGID_41_)"/><path d="m0 485.638c0 13.455 10.907 24.362 24.362 24.362h461.275c13.456 0 24.363-10.907 24.363-24.362v-6.899h-510z" fill="url(#SVGID_42_)"/><path d="m24.319 509.999h79.381v-52.745c0-18.934-15.349-34.283-34.283-34.283h-69.417v62.667c0 13.44 10.884 24.337 24.319 24.361z" fill="url(#SVGID_43_)"/><path d="m406.3 457.254v52.745h79.381c13.435-.024 24.319-10.921 24.319-24.361v-62.668h-69.417c-18.934 0-34.283 15.349-34.283 34.284z" fill="url(#SVGID_44_)"/><g><g><g><path d="m70.788 412.827c0 3.581-.691 7.004-1.949 10.143h-68.839v-48.019c3.717-2.652 8.273-4.205 13.181-4.205 10.257 0 18.927 6.777 21.794 16.093 2.663-.873 5.519-1.337 8.477-1.337 2.346 0 4.613.295 6.789.85 11.809 3.015 20.547 13.725 20.547 26.475z" fill="url(#SVGID_45_)"/><path d="m16.127 412.827c0 1.111.068 2.199.193 3.275-1.031.147-2.074.215-3.139.215-4.907 0-9.463-1.553-13.181-4.205v-37.162c3.717-2.652 8.273-4.205 13.181-4.205 10.257 0 18.927 6.777 21.794 16.093-10.948 3.572-18.848 13.862-18.848 25.989z" fill="url(#SVGID_46_)"/></g></g></g><g><g><g><path d="m510 385.944v37.026h-66.447c-.204-1.145-.306-2.312-.306-3.513 0-10.937 8.477-19.89 19.221-20.638-.397-1.7-.612-3.468-.612-5.293 0-12.58 10.2-22.78 22.791-22.78 10.257 0 18.927 6.777 21.794 16.093 1.156-.373 2.346-.679 3.559-.895z" fill="url(#SVGID_47_)"/><path d="m487.593 412.829c0 1.109.067 2.201.195 3.275-1.028.145-2.079.218-3.146.218-12.587 0-22.789-10.204-22.789-22.792 0-12.585 10.202-22.789 22.789-22.789 10.26 0 18.937 6.78 21.793 16.104-10.937 3.567-18.842 13.852-18.842 25.984z" fill="url(#SVGID_48_)"/></g></g></g></g></g></svg>