<svg xmlns="http://www.w3.org/2000/svg" xmlns:xlink="http://www.w3.org/1999/xlink" width="512" height="512" viewBox="0 0 510 510"><linearGradient id="d" x1="255" x2="255" y1="34.721" y2="483.763" gradientUnits="userSpaceOnUse"><stop offset="0" stop-color="#fff5d9"/><stop offset="1" stop-color="#ffce47"/></linearGradient><linearGradient id="a"><stop offset="0" stop-color="#ffdecf"/><stop offset="1" stop-color="#faa68e"/></linearGradient><linearGradient xlink:href="#a" id="e" x1="520.838" x2="445.838" y1="180.665" y2="285.665" gradientUnits="userSpaceOnUse"/><linearGradient id="b"><stop offset="0" stop-color="#ff9356" stop-opacity="0"/><stop offset="1" stop-color="#ff4181"/></linearGradient><linearGradient xlink:href="#b" id="f" x1="446.89" x2="418.89" y1="238.294" y2="320.294" gradientUnits="userSpaceOnUse"/><linearGradient xlink:href="#b" id="g" x1="524.088" x2="419.443" y1="169.419" y2="367.654" gradientUnits="userSpaceOnUse"/><linearGradient id="h" x1="143.789" x2="228.675" y1="80.819" y2="165.704" gradientUnits="userSpaceOnUse"><stop offset="0" stop-color="#ffd945"/><stop offset=".304" stop-color="#ffcd3e"/><stop offset=".856" stop-color="#ffad2b"/><stop offset="1" stop-color="#ffa325"/></linearGradient><linearGradient xlink:href="#a" id="i" x1="181.002" x2="287.002" y1="195.975" y2="414.975" gradientUnits="userSpaceOnUse"/><linearGradient xlink:href="#b" id="j" x1="414.908" x2="272.908" y1="118.038" y2="387.038" gradientUnits="userSpaceOnUse"/><linearGradient id="c"><stop offset="0" stop-color="#ffce47"/><stop offset="1" stop-color="#f6921e"/></linearGradient><linearGradient xlink:href="#c" id="k" x1="135.476" x2="150.53" y1="296.974" y2="360.201" gradientUnits="userSpaceOnUse"/><linearGradient xlink:href="#c" id="l" x1="216.882" x2="325.24" y1="296.026" y2="559.643" gradientUnits="userSpaceOnUse"/><linearGradient id="m" x1="477.201" x2="272.758" y1="458.637" y2="336.922" gradientUnits="userSpaceOnUse"><stop offset="0" stop-color="#ff9356" stop-opacity="0"/><stop offset="1" stop-color="#ff755c"/></linearGradient><path fill="url(#d)" d="M485.638 510H24.362C10.907 510 0 499.093 0 485.638V24.362C0 10.907 10.907 0 24.362 0h461.275C499.093 0 510 10.907 510 24.362v461.275C510 499.093 499.093 510 485.638 510"/><path fill="#fff" d="M100.806 88.601h-7.964c0-9.968-8.081-18.049-18.049-18.049h-35.6c-9.968 0-18.049 8.081-18.049 18.049 0 3.187.833 6.176 2.282 8.774-7.697 1.543-13.497 8.338-13.497 16.489 0 9.29 7.531 16.821 16.821 16.821h33.18c5.16 0 9.772-2.329 12.857-5.987h28.019c9.968 0 18.049-8.081 18.049-18.049s-8.081-18.048-18.049-18.048"/><path fill="url(#e)" d="M510 240.669v129.88H293.46l83.06-147.88 37.58-66.91c11.8-21.01 38.19-21.01 49.99 0l40.44 71.99 5.02 8.94c.3 1.28.45 2.61.45 3.98"/><path fill="url(#f)" d="M510 240.669v129.88H293.46l83.06-147.88 37.58-66.91c11.8-21.01 38.19-21.01 49.99 0l40.44 71.99 5.02 8.94c.3 1.28.45 2.61.45 3.98"/><g fill="#feaf9b"><path d="M489.641 233.568h-18.137a3.58 3.58 0 0 1-3.579-3.579v-11.96a3.58 3.58 0 0 1 3.579-3.579h18.137a3.58 3.58 0 0 1 3.579 3.579v11.96a3.58 3.58 0 0 1-3.579 3.579M446.346 216.215h-43.431a3.58 3.58 0 0 1-3.579-3.579v-11.96a3.58 3.58 0 0 1 3.579-3.579h43.431a3.58 3.58 0 0 1 3.579 3.579v11.96a3.58 3.58 0 0 1-3.579 3.579"/></g><path fill="url(#g)" d="m509.55 236.689-5.02-8.94-40.44-71.99c-4.277-7.616-10.474-12.456-17.196-14.551l36.183 229.341H510v-129.88c0-1.37-.15-2.7-.45-3.98"/><circle cx="165.123" cy="102.152" r="66.943" fill="url(#h)"/><path fill="url(#i)" d="M299.154 81.333c-15.89-28.29-51.418-28.29-67.308 0L69.396 370.55h392.206z"/><g fill="#feaf9b"><path d="M365.233 271.138h-18.136a3.58 3.58 0 0 1-3.579-3.579v-11.96a3.58 3.58 0 0 1 3.579-3.579h18.136a3.58 3.58 0 0 1 3.579 3.579v11.96a3.58 3.58 0 0 1-3.579 3.579M365.233 242.895h-43.431a3.58 3.58 0 0 1-3.579-3.579v-11.96a3.58 3.58 0 0 1 3.579-3.579h43.431a3.58 3.58 0 0 1 3.579 3.579v11.96a3.58 3.58 0 0 1-3.579 3.579M179.201 216.981h43.431a3.58 3.58 0 0 0 3.579-3.579v-11.96a3.58 3.58 0 0 0-3.579-3.579h-43.431a3.58 3.58 0 0 0-3.579 3.579v11.96a3.58 3.58 0 0 0 3.579 3.579M229.789 199.628h43.431a3.58 3.58 0 0 0 3.579-3.579v-11.96a3.58 3.58 0 0 0-3.579-3.579h-43.431a3.58 3.58 0 0 0-3.579 3.579v11.96a3.58 3.58 0 0 0 3.579 3.579M145.306 312.016h18.136a3.58 3.58 0 0 0 3.579-3.579v-11.96a3.58 3.58 0 0 0-3.579-3.579h-18.136a3.58 3.58 0 0 0-3.579 3.579v11.96a3.58 3.58 0 0 0 3.579 3.579M235.264 121.744H253.4a3.58 3.58 0 0 0 3.579-3.579v-11.96a3.58 3.58 0 0 0-3.579-3.579h-18.136a3.58 3.58 0 0 0-3.579 3.579v11.96a3.58 3.58 0 0 0 3.579 3.579M170.6 294.663h43.431a3.58 3.58 0 0 0 3.579-3.579v-11.96a3.58 3.58 0 0 0-3.579-3.579H170.6a3.58 3.58 0 0 0-3.579 3.579v11.96a3.58 3.58 0 0 0 3.579 3.579"/></g><path fill="url(#j)" d="M461.599 370.549h-141.02l-45.63-289.22c-2.23-14.14-5.84-21.22-9.45-21.22 12.85 0 25.7 7.08 33.65 21.22z"/><g fill="#fff"><path d="M437.105 64.812h-11.749c0-14.706-11.922-26.627-26.627-26.627h-52.52c-14.706 0-26.627 11.922-26.627 26.627s11.922 26.627 26.627 26.627h11.748c0 14.706 11.922 26.627 26.627 26.627h52.52c14.706 0 26.627-11.922 26.627-26.627.001-14.705-11.92-26.627-26.626-26.627M481.93 49.352h-33.178c-9.29 0-16.821-7.531-16.821-16.821s7.531-16.821 16.821-16.821h33.178c9.29 0 16.821 7.531 16.821 16.821-.001 9.29-7.532 16.821-16.821 16.821"/></g><path fill="url(#k)" d="M0 310.685v97.542h323.93S197.985 253.346 0 310.685"/><path fill="url(#l)" d="M510 485.638V287.056c-62.152-27.319-133.983-25.695-194.823 4.635L227.44 335.43c-60.73 30.275-128.104 46.076-196.475 46.076H0v104.131C0 499.093 10.907 510 24.362 510h461.275C499.093 510 510 499.093 510 485.638"/><path fill="url(#m)" d="M242.453 510h243.185C499.093 510 510 499.093 510 485.638V287.044c-19.687-8.65-40.346-14.386-61.319-17.236-3.198.072-90.92 2.458-86.389 46.556 6.389 62.185 102.677 45.559 110.753 96.116 4.784 29.952-124.45 69.917-230.592 97.52"/></svg>