<svg id="Capa_1" enable-background="new 0 0 510 510" height="512" viewBox="0 0 510 510" width="512" xmlns="http://www.w3.org/2000/svg" xmlns:xlink="http://www.w3.org/1999/xlink"><linearGradient id="SVGID_1_" gradientUnits="userSpaceOnUse" x1="255" x2="255" y1="34.721" y2="483.763"><stop offset="0" stop-color="#fff5d9"/><stop offset="1" stop-color="#ffce47"/></linearGradient><linearGradient id="lg1"><stop offset="0" stop-color="#ffdecf"/><stop offset="1" stop-color="#faa68e"/></linearGradient><linearGradient id="SVGID_2_" gradientUnits="userSpaceOnUse" x1="520.838" x2="445.838" xlink:href="#lg1" y1="180.665" y2="285.665"/><linearGradient id="lg2"><stop offset="0" stop-color="#ff9356" stop-opacity="0"/><stop offset="1" stop-color="#ff4181"/></linearGradient><linearGradient id="SVGID_3_" gradientUnits="userSpaceOnUse" x1="446.89" x2="418.89" xlink:href="#lg2" y1="238.294" y2="320.294"/><linearGradient id="SVGID_4_" gradientUnits="userSpaceOnUse" x1="524.088" x2="419.443" xlink:href="#lg2" y1="169.419" y2="367.654"/><linearGradient id="SVGID_5_" gradientUnits="userSpaceOnUse" x1="143.789" x2="228.675" y1="80.819" y2="165.704"><stop offset="0" stop-color="#ffd945"/><stop offset=".3043" stop-color="#ffcd3e"/><stop offset=".8558" stop-color="#ffad2b"/><stop offset="1" stop-color="#ffa325"/></linearGradient><linearGradient id="SVGID_6_" gradientUnits="userSpaceOnUse" x1="181.002" x2="287.002" xlink:href="#lg1" y1="195.975" y2="414.975"/><linearGradient id="SVGID_7_" gradientUnits="userSpaceOnUse" x1="414.908" x2="272.908" xlink:href="#lg2" y1="118.038" y2="387.038"/><linearGradient id="lg3"><stop offset="0" stop-color="#ffce47"/><stop offset="1" stop-color="#f6921e"/></linearGradient><linearGradient id="SVGID_8_" gradientUnits="userSpaceOnUse" x1="135.476" x2="150.53" xlink:href="#lg3" y1="296.974" y2="360.201"/><linearGradient id="SVGID_9_" gradientUnits="userSpaceOnUse" x1="216.882" x2="325.24" xlink:href="#lg3" y1="296.026" y2="559.643"/><linearGradient id="SVGID_10_" gradientUnits="userSpaceOnUse" x1="477.201" x2="272.758" y1="458.637" y2="336.922"><stop offset="0" stop-color="#ff9356" stop-opacity="0"/><stop offset="1" stop-color="#ff755c"/></linearGradient><g><path d="m485.638 510h-461.276c-13.455 0-24.362-10.907-24.362-24.362v-461.276c0-13.455 10.907-24.362 24.362-24.362h461.275c13.456 0 24.363 10.907 24.363 24.362v461.275c0 13.456-10.907 24.363-24.362 24.363z" fill="url(#SVGID_1_)"/><path d="m100.806 88.601h-7.964c0-9.968-8.081-18.049-18.049-18.049h-35.6c-9.968 0-18.049 8.081-18.049 18.049 0 3.187.833 6.176 2.282 8.774-7.697 1.543-13.497 8.338-13.497 16.489 0 9.29 7.531 16.821 16.821 16.821h33.18c5.16 0 9.772-2.329 12.857-5.987h28.019c9.968 0 18.049-8.081 18.049-18.049s-8.081-18.048-18.049-18.048z" fill="#fff"/><g><path d="m510 240.669v129.88h-216.54l83.06-147.88 37.58-66.91c11.8-21.01 38.19-21.01 49.99 0l40.44 71.99 5.02 8.94c.3 1.28.45 2.61.45 3.98z" fill="url(#SVGID_2_)"/><path d="m510 240.669v129.88h-216.54l83.06-147.88 37.58-66.91c11.8-21.01 38.19-21.01 49.99 0l40.44 71.99 5.02 8.94c.3 1.28.45 2.61.45 3.98z" fill="url(#SVGID_3_)"/><g fill="#feaf9b"><path d="m489.641 233.568h-18.137c-1.977 0-3.579-1.602-3.579-3.579v-11.96c0-1.977 1.602-3.579 3.579-3.579h18.137c1.977 0 3.579 1.602 3.579 3.579v11.96c-.001 1.977-1.603 3.579-3.579 3.579z"/><path d="m446.346 216.215h-43.431c-1.977 0-3.579-1.602-3.579-3.579v-11.96c0-1.977 1.602-3.579 3.579-3.579h43.431c1.977 0 3.579 1.602 3.579 3.579v11.96c0 1.977-1.602 3.579-3.579 3.579z"/></g><path d="m509.55 236.689-5.02-8.94-40.44-71.99c-4.277-7.616-10.474-12.456-17.196-14.551l36.183 229.341h26.923v-129.88c0-1.37-.15-2.7-.45-3.98z" fill="url(#SVGID_4_)"/></g><circle cx="165.123" cy="102.152" fill="url(#SVGID_5_)" r="66.943"/><g><path d="m299.154 81.333c-15.89-28.29-51.418-28.29-67.308 0l-162.45 289.217h392.206z" fill="url(#SVGID_6_)"/><g><g fill="#feaf9b"><path d="m365.233 271.138h-18.136c-1.977 0-3.579-1.602-3.579-3.579v-11.96c0-1.977 1.602-3.579 3.579-3.579h18.136c1.977 0 3.579 1.602 3.579 3.579v11.96c0 1.977-1.603 3.579-3.579 3.579z"/><path d="m365.233 242.895h-43.431c-1.977 0-3.579-1.602-3.579-3.579v-11.96c0-1.977 1.602-3.579 3.579-3.579h43.431c1.977 0 3.579 1.602 3.579 3.579v11.96c0 1.977-1.603 3.579-3.579 3.579z"/><path d="m179.201 216.981h43.431c1.977 0 3.579-1.602 3.579-3.579v-11.96c0-1.977-1.602-3.579-3.579-3.579h-43.431c-1.977 0-3.579 1.602-3.579 3.579v11.96c0 1.977 1.602 3.579 3.579 3.579z"/><path d="m229.789 199.628h43.431c1.977 0 3.579-1.602 3.579-3.579v-11.96c0-1.977-1.602-3.579-3.579-3.579h-43.431c-1.977 0-3.579 1.602-3.579 3.579v11.96c0 1.977 1.603 3.579 3.579 3.579z"/><g><path d="m145.306 312.016h18.136c1.977 0 3.579-1.602 3.579-3.579v-11.96c0-1.977-1.602-3.579-3.579-3.579h-18.136c-1.977 0-3.579 1.602-3.579 3.579v11.96c0 1.977 1.602 3.579 3.579 3.579z"/><path d="m235.264 121.744h18.136c1.977 0 3.579-1.602 3.579-3.579v-11.96c0-1.977-1.602-3.579-3.579-3.579h-18.136c-1.977 0-3.579 1.602-3.579 3.579v11.96c0 1.976 1.602 3.579 3.579 3.579z"/><path d="m170.6 294.663h43.431c1.977 0 3.579-1.602 3.579-3.579v-11.96c0-1.977-1.602-3.579-3.579-3.579h-43.431c-1.977 0-3.579 1.602-3.579 3.579v11.96c0 1.977 1.602 3.579 3.579 3.579z"/></g></g></g><path d="m461.599 370.549h-141.02l-45.63-289.22c-2.23-14.14-5.84-21.22-9.45-21.22 12.85 0 25.7 7.08 33.65 21.22z" fill="url(#SVGID_7_)"/></g><g fill="#fff"><path d="m437.105 64.812h-11.749c0-14.706-11.922-26.627-26.627-26.627h-52.52c-14.706 0-26.627 11.922-26.627 26.627s11.922 26.627 26.627 26.627h11.748c0 14.706 11.922 26.627 26.627 26.627h52.52c14.706 0 26.627-11.922 26.627-26.627.001-14.705-11.92-26.627-26.626-26.627z"/><path d="m481.93 49.352h-33.178c-9.29 0-16.821-7.531-16.821-16.821 0-9.29 7.531-16.821 16.821-16.821h33.178c9.29 0 16.821 7.531 16.821 16.821-.001 9.29-7.532 16.821-16.821 16.821z"/></g><path d="m0 310.685v97.542h323.93s-125.945-154.881-323.93-97.542z" fill="url(#SVGID_8_)"/><path d="m510 485.638v-198.582c-62.152-27.319-133.983-25.695-194.823 4.635l-87.737 43.739c-60.73 30.275-128.104 46.076-196.475 46.076h-30.965v104.131c0 13.456 10.907 24.363 24.362 24.363h461.275c13.456 0 24.363-10.907 24.363-24.362z" fill="url(#SVGID_9_)"/><path d="m242.453 510h243.185c13.455 0 24.362-10.907 24.362-24.362v-198.594c-19.687-8.65-40.346-14.386-61.319-17.236-3.198.072-90.92 2.458-86.389 46.556 6.389 62.185 102.677 45.559 110.753 96.116 4.784 29.952-124.45 69.917-230.592 97.52z" fill="url(#SVGID_10_)"/></g></svg>