

<svg id="Capa_1" enable-background="new 0 0 510 510" height="512" viewBox="0 0 510 510" width="512" xmlns="http://www.w3.org/2000/svg" xmlns:xlink="http://www.w3.org/1999/xlink"><linearGradient id="lg1"><stop offset="0" stop-color="#c7e9ff"/><stop offset=".3556" stop-color="#a3e6f2"/><stop offset="1" stop-color="#65e0db"/></linearGradient><linearGradient id="SVGID_1_" gradientUnits="userSpaceOnUse" x1="255" x2="255" xlink:href="#lg1" y1="34.721" y2="483.763"/><linearGradient id="lg2"><stop offset="0" stop-color="#edf5ff"/><stop offset="1" stop-color="#c7e9ff"/></linearGradient><linearGradient id="SVGID_2_" gradientUnits="userSpaceOnUse" x1="50.381" x2="111.741" xlink:href="#lg2" y1="60.077" y2="121.437"/><linearGradient id="SVGID_3_" gradientUnits="userSpaceOnUse" x1="255" x2="255" y1="362.507" y2="505.774"><stop offset="0" stop-color="#18cefb"/><stop offset="1" stop-color="#4a97f6"/></linearGradient><linearGradient id="lg3"><stop offset="0" stop-color="#4a97f6" stop-opacity="0"/><stop offset="1" stop-color="#0469bb"/></linearGradient><linearGradient id="SVGID_4_" gradientUnits="userSpaceOnUse" x1="252.98" x2="275.053" xlink:href="#lg3" y1="452.628" y2="331.757"/><linearGradient id="SVGID_5_" gradientUnits="userSpaceOnUse" x1="253.085" x2="269.664" xlink:href="#lg3" y1="477.42" y2="386.633"/><linearGradient id="lg4"><stop offset="0" stop-color="#18cefb" stop-opacity="0"/><stop offset="1" stop-color="#0469bb"/></linearGradient><linearGradient id="SVGID_6_" gradientTransform="matrix(-1 0 0 1 510.562 0)" gradientUnits="userSpaceOnUse" x1="401" x2="401" xlink:href="#lg4" y1="365.432" y2="256.238"/><linearGradient id="SVGID_7_" gradientTransform="matrix(-1 0 0 1 510.562 0)" gradientUnits="userSpaceOnUse" x1="164.948" x2="164.948" xlink:href="#lg4" y1="369.114" y2="227.03"/><linearGradient id="SVGID_8_" gradientUnits="userSpaceOnUse" x1="153.663" x2="216.663" xlink:href="#lg1" y1="242.621" y2="330.621"/><linearGradient id="lg5"><stop offset="0" stop-color="#2f73a0" stop-opacity="0"/><stop offset="1" stop-color="#2f73a0"/></linearGradient><linearGradient id="SVGID_9_" gradientUnits="userSpaceOnUse" x1="271.028" x2="208.304" xlink:href="#lg5" y1="309.263" y2="350.119"/><linearGradient id="SVGID_10_" gradientUnits="userSpaceOnUse" x1="397.588" x2="414.921" xlink:href="#lg3" y1="449.183" y2="346.516"/><linearGradient id="lg6"><stop offset="0" stop-color="#bada00"/><stop offset=".2187" stop-color="#b6d600"/><stop offset=".4501" stop-color="#acc900"/><stop offset=".6873" stop-color="#9ab400"/><stop offset=".9271" stop-color="#829700"/><stop offset="1" stop-color="#798c00"/></linearGradient><linearGradient id="SVGID_11_" gradientUnits="userSpaceOnUse" x1="393.406" x2="420.404" xlink:href="#lg6" y1="274.568" y2="384.063"/><linearGradient id="SVGID_12_" gradientUnits="userSpaceOnUse" x1="144.17" x2="144.17" y1="466.542" y2="515.876"><stop offset="0" stop-color="#c6b198"/><stop offset="1" stop-color="#988575"/></linearGradient><linearGradient id="lg7"><stop offset="0" stop-color="#754c24" stop-opacity="0"/><stop offset="1" stop-color="#754c24"/></linearGradient><linearGradient id="SVGID_13_" gradientUnits="userSpaceOnUse" x1="147.011" x2="231.638" xlink:href="#lg7" y1="501.699" y2="293.152"/><linearGradient id="SVGID_14_" gradientUnits="userSpaceOnUse" x1="170.369" x2="147.036" xlink:href="#lg7" y1="532.096" y2="458.096"/><linearGradient id="SVGID_15_" gradientUnits="userSpaceOnUse" x1="181.649" x2="220.785" xlink:href="#lg6" y1="432.084" y2="471.22"/><linearGradient id="lg8"><stop offset="0" stop-color="#43765a" stop-opacity="0"/><stop offset="1" stop-color="#43765a"/></linearGradient><linearGradient id="SVGID_16_" gradientUnits="userSpaceOnUse" x1="196.744" x2="221.924" xlink:href="#lg8" y1="437.224" y2="432.104"/><linearGradient id="SVGID_17_" gradientUnits="userSpaceOnUse" x1="201.846" x2="201.846" xlink:href="#lg8" y1="461.442" y2="473.114"/><linearGradient id="SVGID_18_" gradientUnits="userSpaceOnUse" x1="110.538" x2="151.819" xlink:href="#lg2" y1="318.99" y2="318.99"/><linearGradient id="SVGID_19_" gradientUnits="userSpaceOnUse" x1="153.698" x2="117.594" xlink:href="#lg5" y1="225.471" y2="87.618"/><linearGradient id="lg9"><stop offset="0" stop-color="#ff7044"/><stop offset="1" stop-color="#f82814"/></linearGradient><linearGradient id="SVGID_20_" gradientUnits="userSpaceOnUse" x1="78.923" x2="197.92" xlink:href="#lg9" y1="384.901" y2="384.901"/><linearGradient id="SVGID_21_" gradientUnits="userSpaceOnUse" x1="84.86" x2="192.005" xlink:href="#lg9" y1="253.922" y2="253.922"/><linearGradient id="lg10"><stop offset="0" stop-color="#843561" stop-opacity="0"/><stop offset="1" stop-color="#3a2f4d"/></linearGradient><linearGradient id="SVGID_22_" gradientUnits="userSpaceOnUse" x1="171.788" x2="141.31" xlink:href="#lg10" y1="268.935" y2="119.359"/><linearGradient id="SVGID_23_" gradientUnits="userSpaceOnUse" x1="104.348" x2="141.352" xlink:href="#lg2" y1="90.476" y2="127.48"/><linearGradient id="SVGID_24_" gradientUnits="userSpaceOnUse" x1="161.803" x2="127.418" xlink:href="#lg5" y1="124.61" y2="124.61"/><linearGradient id="SVGID_25_" gradientUnits="userSpaceOnUse" x1="138.483" x2="138.483" xlink:href="#lg5" y1="127.111" y2="160.871"/><linearGradient id="lg11"><stop offset="0" stop-color="#dfdfdf"/><stop offset="1" stop-color="#9da6ac"/></linearGradient><linearGradient id="SVGID_26_" gradientUnits="userSpaceOnUse" x1="125.855" x2="144.131" xlink:href="#lg11" y1="124.61" y2="124.61"/><linearGradient id="SVGID_27_" gradientUnits="userSpaceOnUse" x1="94.279" x2="94.279" xlink:href="#lg11" y1="135.551" y2="148.888"/><linearGradient id="SVGID_28_" gradientUnits="userSpaceOnUse" x1="123.748" x2="123.748" xlink:href="#lg11" y1="135.551" y2="148.888"/><linearGradient id="SVGID_29_" gradientUnits="userSpaceOnUse" x1="153.217" x2="153.217" xlink:href="#lg11" y1="135.551" y2="148.888"/><linearGradient id="SVGID_30_" gradientUnits="userSpaceOnUse" x1="182.687" x2="182.687" xlink:href="#lg11" y1="135.551" y2="148.888"/><linearGradient id="SVGID_31_" gradientUnits="userSpaceOnUse" x1="138.483" x2="138.483" xlink:href="#lg11" y1="147.273" y2="175.601"/><linearGradient id="SVGID_32_" gradientUnits="userSpaceOnUse" x1="138.483" x2="138.483" xlink:href="#lg5" y1="117.968" y2="74.11"/><linearGradient id="SVGID_33_" gradientUnits="userSpaceOnUse" x1="120.768" x2="138.898" xlink:href="#lg9" y1="51.491" y2="87.127"/><linearGradient id="SVGID_34_" gradientUnits="userSpaceOnUse" x1="130.964" x2="166.599" xlink:href="#lg10" y1="60.78" y2="136.271"/><linearGradient id="SVGID_35_" gradientUnits="userSpaceOnUse" x1="138.483" x2="138.483" xlink:href="#lg11" y1="85.463" y2="96.789"/><linearGradient id="SVGID_36_" gradientUnits="userSpaceOnUse" x1="50.03" x2="99.465" xlink:href="#lg6" y1="449.434" y2="498.87"/><linearGradient id="SVGID_37_" gradientUnits="userSpaceOnUse" x1="69.098" x2="100.904" xlink:href="#lg8" y1="455.927" y2="449.46"/><linearGradient id="SVGID_38_" gradientUnits="userSpaceOnUse" x1="75.542" x2="75.542" xlink:href="#lg8" y1="486.518" y2="501.263"/><linearGradient id="SVGID_39_" gradientUnits="userSpaceOnUse" x1="350.431" x2="436.883" xlink:href="#lg2" y1="80.899" y2="167.351"/><linearGradient id="SVGID_40_" gradientUnits="userSpaceOnUse" x1="436.743" x2="472.947" xlink:href="#lg2" y1="42.931" y2="79.135"/><linearGradient id="SVGID_41_" gradientUnits="userSpaceOnUse" x1="282.838" x2="367.724" y1="147.761" y2="232.647"><stop offset="0" stop-color="#ffd945"/><stop offset=".3043" stop-color="#ffcd3e"/><stop offset=".8558" stop-color="#ffad2b"/><stop offset="1" stop-color="#ffa325"/></linearGradient><g><path d="m485.638 510h-461.276c-13.455 0-24.362-10.907-24.362-24.362v-461.276c0-13.455 10.907-24.362 24.362-24.362h461.275c13.456 0 24.363 10.907 24.363 24.362v461.275c0 13.456-10.907 24.363-24.362 24.363z" fill="url(#SVGID_1_)"/><path d="m91.106 105.995h-50.608c-16.844 0-30.498-13.654-30.498-30.497 0-16.844 13.654-30.498 30.498-30.498h50.608c16.843 0 30.498 13.654 30.498 30.498-.001 16.843-13.655 30.497-30.498 30.497z" fill="url(#SVGID_2_)"/><path d="m510 485.638v-132.429h-510v132.429c0 13.455 10.907 24.362 24.362 24.362h461.276c13.455 0 24.362-10.907 24.362-24.362z" fill="url(#SVGID_3_)"/><path d="m510 485.638v-90.369h-510v90.369c0 13.455 10.907 24.362 24.362 24.362h461.276c13.455 0 24.362-10.907 24.362-24.362z" fill="url(#SVGID_4_)"/><path d="m510 485.638v-39.638h-510v39.638c0 13.455 10.907 24.362 24.362 24.362h461.276c13.455 0 24.362-10.907 24.362-24.362z" fill="url(#SVGID_5_)"/><g><path d="m188.562 353.209-54.149-61.873c-15.218-17.388-33.864-17.453-49.111-.171l-54.74 62.044z" fill="url(#SVGID_6_)"/><path d="m480 353.209-92.111-80.51c-25.886-22.626-57.605-22.71-83.542-.223l-93.117 80.733z" fill="url(#SVGID_7_)"/><g><path d="m277.673 287.069h-26.496c-8.378 0-16.414-4.276-22.338-11.886-12.337-15.849-32.339-15.849-44.676 0l-60.738 78.026h218.818l-42.232-54.253c-5.925-7.611-13.96-11.887-22.338-11.887z" fill="url(#SVGID_8_)"/><path d="m300.011 298.956c-5.924-7.611-13.96-11.886-22.338-11.886h-26.496c-8.292 0-16.344-4.068-22.162-11.659-7.237-9.443-17.17-13.356-26.646-11.759l35.672 45.826c6.252 8.032 14.732 12.544 23.575 12.544 8.842 0 17.322 4.512 23.575 12.544l14.512 18.642h42.542z" fill="url(#SVGID_9_)"/></g></g><path d="m310.017 378.992c36.57 28.309 107.028 66.331 199.983 38.903v-64.687h-191.146c-13.725.001-19.69 17.383-8.837 25.784z" fill="url(#SVGID_10_)"/><path d="m310.017 343.481c36.57-28.309 107.028-66.331 199.983-38.903v64.687h-191.146c-13.725-.001-19.69-17.383-8.837-25.784z" fill="url(#SVGID_11_)"/><g><path d="m288.34 491.858v-6.383c0-10.02-8.122-18.142-18.142-18.142 0-11.782-9.551-21.333-21.333-21.333h-248.865v39.638c0 13.455 10.907 24.362 24.362 24.362h245.836c10.02 0 18.142-8.122 18.142-18.142z" fill="url(#SVGID_12_)"/><path d="m30 492.438c0 9.699 7.863 17.562 17.562 17.562h222.636c3.874 0 7.456-1.224 10.403-3.292.459-1.595.719-3.275.719-5.017v-6.382c0-10.02-8.123-18.142-18.142-18.142 0-11.782-9.551-21.333-21.333-21.333h-211.845z" fill="url(#SVGID_13_)"/><path d="m263.177 477.166c0-11.782-9.551-21.333-21.333-21.333h-173.15c-19.234 0-34.826 15.592-34.826 34.826l19.341 19.341h216.989c3.874 0 7.456-1.224 10.403-3.292.459-1.595.719-3.275.719-5.017v-6.382c-.001-10.02-8.123-18.143-18.143-18.143z" fill="url(#SVGID_14_)"/></g><g><g><g><path d="m218.552 431.438c-2.163 0-4.244.346-6.194.982-2.086-6.805-8.418-11.754-15.906-11.754-9.187 0-16.635 7.448-16.635 16.635 0 1.327.156 2.618.45 3.856-7.84.553-14.03 7.087-14.03 15.068 0 8.343 6.764 15.107 15.107 15.107h37.208c11.017 0 19.947-8.931 19.947-19.947s-8.93-19.947-19.947-19.947z" fill="url(#SVGID_15_)"/><path d="m198.604 451.387c0 .809.049 1.606.143 2.39-.75.106-1.518.159-2.296.159-9.187 0-16.634-7.448-16.634-16.635 0-9.186 7.447-16.634 16.634-16.634 7.488 0 13.822 4.949 15.907 11.754-7.984 2.604-13.754 10.111-13.754 18.966z" fill="url(#SVGID_16_)"/><path d="m166.353 458.106c.926 7.456 7.284 13.227 14.991 13.227h37.208c8.658 0 16.027-5.517 18.786-13.227z" fill="url(#SVGID_17_)"/></g></g></g><g><g><path d="m183.12 483.135h-89.275c-10.71 0-19.249-8.946-18.75-19.644l14.377-308.647h98.023l14.377 308.647c.497 10.698-8.042 19.644-18.752 19.644z" fill="url(#SVGID_18_)"/><path d="m193.371 281.014-5.877-126.17h-98.023l-.991 21.279z" fill="url(#SVGID_19_)"/><g><path d="m199.73 417.644h-122.502l3.048-65.485h116.406z" fill="url(#SVGID_20_)"/><path d="m193.635 286.664h-110.302l3.048-65.485h104.197z" fill="url(#SVGID_21_)"/><path d="m193.371 281.014-2.793-59.835h-57.042z" fill="url(#SVGID_22_)"/></g></g><path d="m91.379 90.225h94.206v68.77h-94.206z" fill="url(#SVGID_23_)"/><path d="m140.926 90.225h44.66v68.77h-44.66z" fill="url(#SVGID_24_)"/><path d="m91.379 119.921h94.206v39.074h-94.206z" fill="url(#SVGID_25_)"/><path d="m128.604 90.225h19.758v68.77h-19.758z" fill="url(#SVGID_26_)"/><g><path d="m102.255 154.844h-15.952v-15.708c0-4.273 3.464-7.737 7.737-7.737h.478c4.273 0 7.737 3.464 7.737 7.737z" fill="url(#SVGID_27_)"/><path d="m131.724 154.844h-15.952v-15.708c0-4.273 3.464-7.737 7.737-7.737h.478c4.273 0 7.737 3.464 7.737 7.737z" fill="url(#SVGID_28_)"/><path d="m161.193 154.844h-15.952v-15.708c0-4.273 3.464-7.737 7.737-7.737h.478c4.273 0 7.737 3.464 7.737 7.737z" fill="url(#SVGID_29_)"/><path d="m190.662 154.844h-15.952v-15.708c0-4.273 3.464-7.737 7.737-7.737h.478c4.273 0 7.737 3.464 7.737 7.737z" fill="url(#SVGID_30_)"/></g><path d="m185.9 176.386h-94.835c-7.041 0-12.748-5.708-12.748-12.748v-5.944c0-7.041 5.708-12.748 12.748-12.748h94.835c7.041 0 12.748 5.708 12.748 12.748v5.944c0 7.04-5.707 12.748-12.748 12.748z" fill="url(#SVGID_31_)"/><path d="m91.379 96.38.142.722 61.893 61.893h32.172v-68.77h-94.207z" fill="url(#SVGID_32_)"/><g><path d="m135.583 35.209c-26.014 0-47.103 21.089-47.103 47.103v7.913h94.206v-7.913c.001-26.014-21.088-47.103-47.103-47.103z" fill="url(#SVGID_33_)"/><path d="m138.585 35.209h-6.004c-11.183 0-20.248 9.066-20.248 20.248v34.768h46.501v-34.768c0-11.183-9.066-20.248-20.249-20.248z" fill="url(#SVGID_34_)"/><path d="m192.363 97.102h-107.761c-3.471 0-6.285-2.814-6.285-6.285 0-3.471 2.814-6.285 6.285-6.285h107.761c3.471 0 6.285 2.814 6.285 6.285 0 3.471-2.813 6.285-6.285 6.285z" fill="url(#SVGID_35_)"/></g></g><g><g><g><path d="m96.645 448.619c-2.732 0-5.361.436-7.824 1.24-2.635-8.596-10.633-14.847-20.093-14.847-11.605 0-21.013 9.408-21.013 21.013 0 1.677.198 3.307.569 4.871-9.904.698-17.722 8.953-17.722 19.034 0 10.539 8.544 19.083 19.083 19.083h47c13.916 0 25.197-11.281 25.197-25.197s-11.281-25.197-25.197-25.197z" fill="url(#SVGID_36_)"/><path d="m71.447 473.817c0 1.022.061 2.029.18 3.02-.948.134-1.917.201-2.901.201-11.605 0-21.011-9.408-21.011-21.013 0-11.603 9.406-21.011 21.011-21.011 9.459 0 17.46 6.251 20.093 14.847-10.084 3.288-17.372 12.77-17.372 23.956z" fill="url(#SVGID_37_)"/><path d="m30.709 482.305c1.169 9.418 9.201 16.708 18.936 16.708h47c10.937 0 20.245-6.969 23.729-16.708z" fill="url(#SVGID_38_)"/></g></g></g><g><path d="m417.606 89.312h-11.749c0-14.706-11.922-26.627-26.627-26.627h-52.52c-14.706 0-26.627 11.922-26.627 26.627s11.922 26.627 26.627 26.627h11.748c0 14.706 11.922 26.627 26.627 26.627h52.52c14.706 0 26.627-11.922 26.627-26.627.001-14.705-11.92-26.627-26.626-26.627z" fill="url(#SVGID_39_)"/><path d="m462.43 68.851h-33.178c-9.29 0-16.821-7.531-16.821-16.821 0-9.29 7.531-16.821 16.821-16.821h33.178c9.29 0 16.821 7.531 16.821 16.821 0 9.29-7.531 16.821-16.821 16.821z" fill="url(#SVGID_40_)"/></g><circle cx="304.171" cy="169.095" fill="url(#SVGID_41_)" r="66.943"/></g></svg>