

<svg id="Capa_1" enable-background="new 0 0 510 510" height="512" viewBox="0 0 510 510" width="512" xmlns="http://www.w3.org/2000/svg" xmlns:xlink="http://www.w3.org/1999/xlink"><linearGradient id="SVGID_1_" gradientUnits="userSpaceOnUse" x1="255" x2="255" y1="34.721" y2="483.763"><stop offset="0" stop-color="#c7e9ff"/><stop offset=".3556" stop-color="#a3e6f2"/><stop offset="1" stop-color="#65e0db"/></linearGradient><linearGradient id="SVGID_2_" gradientUnits="userSpaceOnUse" x1="255" x2="255" y1="362.507" y2="505.774"><stop offset="0" stop-color="#18cefb"/><stop offset="1" stop-color="#4a97f6"/></linearGradient><linearGradient id="lg1"><stop offset="0" stop-color="#18cefb" stop-opacity="0"/><stop offset="1" stop-color="#0469bb"/></linearGradient><linearGradient id="SVGID_3_" gradientUnits="userSpaceOnUse" x1="254.22" x2="266.22" xlink:href="#lg1" y1="461.243" y2="294.243"/><linearGradient id="SVGID_4_" gradientUnits="userSpaceOnUse" x1="254.083" x2="261.731" xlink:href="#lg1" y1="486.021" y2="379.585"/><linearGradient id="SVGID_5_" gradientUnits="userSpaceOnUse" x1="135.25" x2="220.136" y1="52.152" y2="137.037"><stop offset="0" stop-color="#ffd945"/><stop offset=".3043" stop-color="#ffcd3e"/><stop offset=".8558" stop-color="#ffad2b"/><stop offset="1" stop-color="#ffa325"/></linearGradient><linearGradient id="lg2"><stop offset="0" stop-color="#edf5ff"/><stop offset="1" stop-color="#c7e9ff"/></linearGradient><linearGradient id="SVGID_6_" gradientUnits="userSpaceOnUse" x1="129.208" x2="152.516" xlink:href="#lg2" y1="200.464" y2="200.464"/><linearGradient id="lg3"><stop offset="0" stop-color="#7acbff" stop-opacity="0"/><stop offset="1" stop-color="#2f73a0"/></linearGradient><linearGradient id="SVGID_7_" gradientUnits="userSpaceOnUse" x1="148.607" x2="141.472" xlink:href="#lg3" y1="170.307" y2="139.835"/><linearGradient id="SVGID_8_" gradientUnits="userSpaceOnUse" x1="185.679" x2="208.987" xlink:href="#lg2" y1="207.486" y2="207.486"/><linearGradient id="SVGID_9_" gradientUnits="userSpaceOnUse" x1="206.114" x2="197.092" xlink:href="#lg3" y1="192.967" y2="154.434"/><linearGradient id="SVGID_10_" gradientUnits="userSpaceOnUse" x1="242.15" x2="265.457" xlink:href="#lg2" y1="207.486" y2="207.486"/><linearGradient id="SVGID_11_" gradientUnits="userSpaceOnUse" x1="263.566" x2="252.756" xlink:href="#lg3" y1="201.13" y2="154.961"/><linearGradient id="SVGID_12_" gradientUnits="userSpaceOnUse" x1="298.62" x2="321.928" xlink:href="#lg2" y1="207.486" y2="207.486"/><linearGradient id="SVGID_13_" gradientUnits="userSpaceOnUse" x1="319.646" x2="309.548" xlink:href="#lg3" y1="197.88" y2="154.751"/><linearGradient id="SVGID_14_" gradientUnits="userSpaceOnUse" x1="355.091" x2="378.399" xlink:href="#lg2" y1="200.464" y2="200.464"/><linearGradient id="SVGID_15_" gradientUnits="userSpaceOnUse" x1="375.955" x2="366.151" xlink:href="#lg3" y1="182.493" y2="140.62"/><linearGradient id="SVGID_16_" gradientUnits="userSpaceOnUse" x1="254.915" x2="257.363" xlink:href="#lg2" y1="50.854" y2="173.231"/><linearGradient id="lg4"><stop offset="0" stop-color="#ff7044"/><stop offset="1" stop-color="#f82814"/></linearGradient><linearGradient id="SVGID_17_" gradientUnits="userSpaceOnUse" x1="253.865" x2="256.94" xlink:href="#lg4" y1="281.104" y2="434.869"/><linearGradient id="lg5"><stop offset="0" stop-color="#843561" stop-opacity="0"/><stop offset="1" stop-color="#3a2f4d"/></linearGradient><linearGradient id="SVGID_18_" gradientUnits="userSpaceOnUse" x1="255" x2="255" xlink:href="#lg5" y1="342.744" y2="283.144"/><linearGradient id="SVGID_19_" gradientUnits="userSpaceOnUse" x1="49.812" x2="122.684" xlink:href="#lg4" y1="168.499" y2="214.118"/><linearGradient id="SVGID_20_" gradientUnits="userSpaceOnUse" x1="56.368" x2="100.351" xlink:href="#lg4" y1="71.175" y2="98.708"/><linearGradient id="SVGID_21_" gradientUnits="userSpaceOnUse" x1="70.66" x2="70.66" xlink:href="#lg5" y1="90.734" y2="48.492"/><linearGradient id="SVGID_22_" gradientUnits="userSpaceOnUse" x1="70.659" x2="70.659" xlink:href="#lg5" y1="177.717" y2="78.678"/><linearGradient id="SVGID_23_" gradientUnits="userSpaceOnUse" x1="51.753" x2="51.753" xlink:href="#lg5" y1="95.716" y2="67.993"/><linearGradient id="SVGID_24_" gradientUnits="userSpaceOnUse" x1="70.659" x2="70.659" xlink:href="#lg5" y1="95.716" y2="67.993"/><linearGradient id="SVGID_25_" gradientUnits="userSpaceOnUse" x1="89.564" x2="89.564" xlink:href="#lg5" y1="95.716" y2="67.993"/><linearGradient id="SVGID_26_" gradientUnits="userSpaceOnUse" x1="64.369" x2="81.033" xlink:href="#lg4" y1="96.034" y2="143.358"/><linearGradient id="SVGID_27_" gradientUnits="userSpaceOnUse" x1="65.929" x2="78.461" xlink:href="#lg4" y1="46.473" y2="82.063"/><linearGradient id="SVGID_28_" gradientUnits="userSpaceOnUse" x1="418.494" x2="491.366" xlink:href="#lg4" y1="168.499" y2="214.118"/><linearGradient id="SVGID_29_" gradientUnits="userSpaceOnUse" x1="425.051" x2="469.033" xlink:href="#lg4" y1="71.175" y2="98.708"/><linearGradient id="SVGID_30_" gradientUnits="userSpaceOnUse" x1="439.342" x2="439.342" xlink:href="#lg5" y1="90.734" y2="48.492"/><linearGradient id="SVGID_31_" gradientUnits="userSpaceOnUse" x1="439.341" x2="439.341" xlink:href="#lg5" y1="177.717" y2="78.678"/><linearGradient id="SVGID_32_" gradientUnits="userSpaceOnUse" x1="420.436" x2="420.436" xlink:href="#lg5" y1="95.716" y2="67.993"/><linearGradient id="SVGID_33_" gradientUnits="userSpaceOnUse" x1="439.341" x2="439.341" xlink:href="#lg5" y1="95.716" y2="67.993"/><linearGradient id="SVGID_34_" gradientUnits="userSpaceOnUse" x1="458.247" x2="458.247" xlink:href="#lg5" y1="95.716" y2="67.993"/><linearGradient id="SVGID_35_" gradientUnits="userSpaceOnUse" x1="433.052" x2="449.715" xlink:href="#lg4" y1="96.034" y2="143.358"/><linearGradient id="SVGID_36_" gradientUnits="userSpaceOnUse" x1="434.611" x2="447.143" xlink:href="#lg4" y1="46.473" y2="82.063"/><linearGradient id="SVGID_37_" gradientUnits="userSpaceOnUse" x1="254.329" x2="256.133" xlink:href="#lg4" y1="242.555" y2="332.738"/><g><path d="m485.638 510h-461.276c-13.455 0-24.362-10.907-24.362-24.362v-461.276c0-13.455 10.907-24.362 24.362-24.362h461.275c13.456 0 24.363 10.907 24.363 24.362v461.275c0 13.456-10.907 24.363-24.362 24.363z" fill="url(#SVGID_1_)"/><path d="m510 485.638v-132.429h-510v132.429c0 13.455 10.907 24.362 24.362 24.362h461.275c13.456 0 24.363-10.907 24.363-24.362z" fill="url(#SVGID_2_)"/><path d="m437.745 385.67c-8.463 5.261-19.161 5.33-27.692.18l-14.553-8.786c-17.265-10.424-38.891-10.397-56.13.069l-.746.453c-17.094 10.379-38.586 10.204-55.509-.451-17.295-10.443-38.952-10.443-56.247.001-17.295 10.443-38.952 10.444-56.247 0l-.002-.001c-17.711-10.253-39.599-10.052-57.117.526l-12.96 7.825c-8.791 5.308-19.8 5.308-28.591 0-18.431-11.131-41.951 2.142-41.951 23.674v82.84c0 9.941 8.059 18 18 18h414c9.941 0 18-8.059 18-18v-82.843c0-21.691-23.833-34.938-42.255-23.487z" fill="url(#SVGID_3_)"/><path d="m24.36 510h461.28c13.454-.001 24.36-10.908 24.36-24.362v-25.637c-7.307-14.464-28.256-21.491-45.376-12.464-10.067 5.308-22.674 5.308-32.742 0l-14.841-7.825c-20.062-10.578-45.128-10.779-65.41-.526l-.003.001c-19.806 10.443-44.608 10.443-64.413 0-19.806-10.443-44.607-10.443-64.413-.001-19.38 10.655-43.992 10.83-63.568.451l-.855-.453c-19.742-10.467-44.508-10.493-64.279-.069l-16.665 8.786c-9.769 5.15-22.021 5.081-31.712-.18-17.135-9.3-38.356-2.307-45.723 12.269v25.648c0 13.454 10.906 24.361 24.36 24.362z" fill="url(#SVGID_4_)"/><circle cx="156.583" cy="73.485" fill="url(#SVGID_5_)" r="66.943"/><g><g><g><path d="m130.203 141.126h23.711v118.676h-23.711z" fill="url(#SVGID_6_)"/><path d="m153.914 141.126h-23.711v2.426l23.711 23.711z" fill="url(#SVGID_7_)"/></g><g><path d="m186.674 155.17h23.711v104.632h-23.711z" fill="url(#SVGID_8_)"/><path d="m210.385 155.17h-23.711v10.809l23.711 23.711z" fill="url(#SVGID_9_)"/></g><g><path d="m243.145 155.17h23.711v104.632h-23.711z" fill="url(#SVGID_10_)"/><path d="m266.855 155.17h-23.71v18.75l23.71 23.711z" fill="url(#SVGID_11_)"/></g><g><path d="m299.615 155.17h23.711v104.632h-23.711z" fill="url(#SVGID_12_)"/><path d="m323.326 155.17h-23.711v15.588l23.711 23.711z" fill="url(#SVGID_13_)"/></g><g><path d="m356.086 141.126h23.711v118.676h-23.711z" fill="url(#SVGID_14_)"/><path d="m379.797 141.126h-23.711v14.282l23.711 23.711z" fill="url(#SVGID_15_)"/></g></g><path d="m255 173.213c-50.619 0-98.364-11.824-134.44-33.293-37.63-22.394-58.354-52.656-58.354-85.212h22.059c0 25.231 17.09 49.297 48.121 67.764 32.585 19.392 76.131 30.072 122.614 30.072 46.484 0 90.028-10.679 122.614-30.072 31.031-18.467 48.121-42.533 48.121-67.764h22.059c0 32.556-20.724 62.818-58.354 85.212-36.076 21.47-83.821 33.293-134.44 33.293z" fill="url(#SVGID_16_)"/><path d="m470 287.892h-430v99.958c8.54-7.035 21.121-8.928 31.952-2.388 8.791 5.308 19.8 5.309 28.591 0l4.066-2.455v-9.278c0-30.758 24.934-55.692 55.692-55.692 30.758 0 55.692 24.934 55.692 55.692v8.403c3.754-1.255 7.404-2.923 10.877-5.02 17.295-10.443 38.952-10.443 56.247-.001 3.464 2.181 7.122 3.916 10.892 5.218v-8.6c0-30.758 24.934-55.692 55.692-55.692 30.758 0 55.692 24.934 55.692 55.692v9.282l4.663 2.815c8.53 5.15 19.229 5.081 27.692-.18 10.872-6.758 23.625-4.909 32.255 2.196v-99.95z" fill="url(#SVGID_17_)"/><path d="m40 287.892v15.249l64.896 64.896c2.851-28.083 26.568-49.999 55.404-49.999 30.758 0 55.692 24.934 55.692 55.692v8.403c3.754-1.255 7.404-2.923 10.877-5.02 17.295-10.443 38.952-10.443 56.247-.001 3.464 2.181 7.122 3.916 10.892 5.218v-8.6c0-30.758 24.934-55.692 55.692-55.692 30.758 0 55.692 24.934 55.692 55.692v9.282l4.663 2.815c8.53 5.15 19.229 5.081 27.692-.18 10.872-6.758 23.625-4.909 32.255 2.196v-99.951z" fill="url(#SVGID_18_)"/><g><g><path d="m38.354 105.231h64.609v152.638h-64.609z" fill="url(#SVGID_19_)"/><path d="m32.602 59.906c5.165 13.647 7.82 28.23 7.82 42.95v2.374h60.474v-2.374c0-14.721 2.655-29.303 7.82-42.95z" fill="url(#SVGID_20_)"/><path d="m108.712 59.91c-5.159 13.647-7.819 28.225-7.819 42.952v2.37h-28.734l-36.653-36.664c-.86-2.919-1.82-5.809-2.899-8.658z" fill="url(#SVGID_21_)"/><path d="m92.374 238.266h-18.136c-1.977 0-3.579-1.602-3.579-3.579v-11.96c0-1.977 1.602-3.579 3.579-3.579h18.136c1.977 0 3.579 1.602 3.579 3.579v11.96c0 1.977-1.602 3.579-3.579 3.579z" fill="#ff755c"/><path d="m69.629 163.753h-18.137c-1.977 0-3.579-1.602-3.579-3.579v-11.96c0-1.977 1.602-3.579 3.579-3.579h18.136c1.977 0 3.579 1.602 3.579 3.579v11.96c0 1.977-1.602 3.579-3.578 3.579z" fill="#ef503f"/><path d="m92.374 210.023h-43.43c-1.977 0-3.579-1.602-3.579-3.579v-11.96c0-1.977 1.602-3.579 3.579-3.579h43.431c1.977 0 3.579 1.602 3.579 3.579v11.96c-.001 1.977-1.603 3.579-3.58 3.579z" fill="#ff755c"/><path d="m38.354 129.279 1.311.947 63.298 63.298v-75.774h-64.609z" fill="url(#SVGID_22_)"/><g><path d="m58.142 105.231h-12.777v-23.356c0-3.528 2.86-6.389 6.389-6.389 3.528 0 6.389 2.86 6.389 6.389v23.356z" fill="url(#SVGID_23_)"/><path d="m77.048 105.231h-12.778v-23.356c0-3.528 2.86-6.389 6.389-6.389 3.528 0 6.389 2.86 6.389 6.389z" fill="url(#SVGID_24_)"/><path d="m95.953 105.231h-12.777v-23.356c0-3.528 2.86-6.389 6.389-6.389 3.528 0 6.389 2.86 6.389 6.389v23.356z" fill="url(#SVGID_25_)"/></g><path d="m101.653 130.226h-61.988c-5.338 0-9.665-4.327-9.665-9.665v-13.331c0-5.338 4.327-9.665 9.665-9.665h61.988c5.338 0 9.665 4.327 9.665 9.665v13.331c0 5.338-4.327 9.665-9.665 9.665z" fill="url(#SVGID_26_)"/><path d="m104.278 68.571h-67.238c-3.888 0-7.04-3.152-7.04-7.04v-3.25c0-3.888 3.152-7.04 7.04-7.04h67.237c3.888 0 7.04 3.152 7.04 7.04v3.25c.001 3.888-3.151 7.04-7.039 7.04z" fill="url(#SVGID_27_)"/></g><g><path d="m407.037 105.231h64.609v152.638h-64.609z" fill="url(#SVGID_28_)"/><path d="m401.284 59.906c5.165 13.647 7.82 28.23 7.82 42.95v2.374h60.474v-2.374c0-14.721 2.655-29.303 7.82-42.95z" fill="url(#SVGID_29_)"/><path d="m477.395 59.91c-5.159 13.647-7.819 28.225-7.819 42.952v2.37h-28.734l-36.653-36.663c-.86-2.919-1.82-5.809-2.899-8.658h76.105z" fill="url(#SVGID_30_)"/><path d="m461.056 238.266h-18.136c-1.977 0-3.579-1.602-3.579-3.579v-11.96c0-1.977 1.602-3.579 3.579-3.579h18.136c1.977 0 3.579 1.602 3.579 3.579v11.96c0 1.977-1.602 3.579-3.579 3.579z" fill="#ff755c"/><path d="m438.311 163.753h-18.136c-1.977 0-3.579-1.602-3.579-3.579v-11.96c0-1.977 1.602-3.579 3.579-3.579h18.136c1.977 0 3.579 1.602 3.579 3.579v11.96c0 1.977-1.603 3.579-3.579 3.579z" fill="#ef503f"/><path d="m461.056 210.023h-43.431c-1.977 0-3.579-1.602-3.579-3.579v-11.96c0-1.977 1.602-3.579 3.579-3.579h43.431c1.977 0 3.579 1.602 3.579 3.579v11.96c0 1.977-1.602 3.579-3.579 3.579z" fill="#ff755c"/><path d="m407.037 129.279 1.31.947 63.299 63.298v-75.774h-64.609z" fill="url(#SVGID_31_)"/><g><path d="m426.824 105.231h-12.777v-23.356c0-3.528 2.86-6.389 6.389-6.389 3.528 0 6.389 2.86 6.389 6.389v23.356z" fill="url(#SVGID_32_)"/><path d="m445.73 105.231h-12.777v-23.356c0-3.528 2.86-6.389 6.389-6.389 3.528 0 6.389 2.86 6.389 6.389v23.356z" fill="url(#SVGID_33_)"/><path d="m464.635 105.231h-12.777v-23.356c0-3.528 2.86-6.389 6.389-6.389 3.528 0 6.389 2.86 6.389 6.389v23.356z" fill="url(#SVGID_34_)"/></g><path d="m470.335 130.226h-61.988c-5.338 0-9.665-4.327-9.665-9.665v-13.331c0-5.338 4.327-9.665 9.665-9.665h61.988c5.338 0 9.665 4.327 9.665 9.665v13.331c0 5.338-4.327 9.665-9.665 9.665z" fill="url(#SVGID_35_)"/><path d="m472.96 68.571h-67.237c-3.888 0-7.04-3.152-7.04-7.04v-3.25c0-3.888 3.152-7.04 7.04-7.04h67.237c3.888 0 7.04 3.152 7.04 7.04v3.25c0 3.888-3.152 7.04-7.04 7.04z" fill="url(#SVGID_36_)"/></g></g><path d="m502.526 303.242h-495.052c-4.128 0-7.474-3.346-7.474-7.474v-39.328c0-4.128 3.346-7.474 7.474-7.474h495.051c4.128 0 7.474 3.346 7.474 7.474v39.328c.001 4.128-3.345 7.474-7.473 7.474z" fill="url(#SVGID_37_)"/><g fill="#ff755c"><g><path d="m249.167 294.339h43.431c1.977 0 3.579-1.602 3.579-3.579v-11.96c0-1.977-1.602-3.579-3.579-3.579h-43.431c-1.977 0-3.579 1.602-3.579 3.579v11.96c0 1.977 1.603 3.579 3.579 3.579z"/><path d="m395.049 294.339h43.431c1.977 0 3.579-1.602 3.579-3.579v-11.96c0-1.977-1.602-3.579-3.579-3.579h-43.431c-1.977 0-3.579 1.602-3.579 3.579v11.96c.001 1.977 1.603 3.579 3.579 3.579z"/><path d="m299.755 276.986h43.431c1.977 0 3.579-1.602 3.579-3.579v-11.96c0-1.977-1.602-3.579-3.579-3.579h-43.431c-1.977 0-3.579 1.602-3.579 3.579v11.96c0 1.977 1.603 3.579 3.579 3.579z"/><path d="m125.932 276.986h43.431c1.977 0 3.579-1.602 3.579-3.579v-11.96c0-1.977-1.602-3.579-3.579-3.579h-43.431c-1.977 0-3.579 1.602-3.579 3.579v11.96c0 1.977 1.602 3.579 3.579 3.579z"/><path d="m71.52 276.986h43.431c1.977 0 3.579-1.602 3.579-3.579v-11.96c0-1.977-1.602-3.579-3.579-3.579h-43.431c-1.977 0-3.579 1.602-3.579 3.579v11.96c0 1.977 1.602 3.579 3.579 3.579z"/></g><g><g><path d="m47.93 349.339h18.136c1.977 0 3.579-1.602 3.579-3.579v-11.96c0-1.977-1.602-3.579-3.579-3.579h-18.136c-1.977 0-3.579 1.602-3.579 3.579v11.96c0 1.977 1.602 3.579 3.579 3.579z"/><path d="m73.224 331.986h43.431c1.977 0 3.579-1.602 3.579-3.579v-11.96c0-1.977-1.602-3.579-3.579-3.579h-43.431c-1.977 0-3.579 1.602-3.579 3.579v11.96c0 1.977 1.603 3.579 3.579 3.579z"/></g><path d="m242.087 349.339h43.431c1.977 0 3.579-1.602 3.579-3.579v-11.96c0-1.977-1.602-3.579-3.579-3.579h-43.431c-1.977 0-3.579 1.602-3.579 3.579v11.96c0 1.977 1.602 3.579 3.579 3.579z"/><path d="m437.93 368.457h18.136c1.977 0 3.579-1.602 3.579-3.579v-11.96c0-1.977-1.602-3.579-3.579-3.579h-18.136c-1.977 0-3.579 1.602-3.579 3.579v11.96c0 1.977 1.602 3.579 3.579 3.579z"/></g></g></g></g></svg>