<!--
  - Copyright (c) 2023. Selldone® Business OS™
  -
  - Author: M.Pajuhaan
  - Web: https://selldone.com
  - ━━━━━━━━━━━━━━━━━━━━━━━━━━━━━━━━━━━━━━━━━━━━━━━━━━━━━━
  -
  - All rights reserved. In the weave of time, where traditions and innovations intermingle, this content was crafted.
  - From the essence of thought, through the corridors of creativity, each word, and sentiment has been molded.
  - Not just to exist, but to inspire. Like an artist's stroke or a sculptor's chisel, every nuance is deliberate.
  - Our journey is not just about reaching a destination, but about creating a masterpiece.
  - Tread carefully, for you're treading on dreams.
  -->

<svg id="Capa_1" enable-background="new 0 0 510 510" height="512" viewBox="0 0 510 510" width="512" xmlns="http://www.w3.org/2000/svg" xmlns:xlink="http://www.w3.org/1999/xlink"><linearGradient id="SVGID_1_" gradientUnits="userSpaceOnUse" x1="255" x2="255" y1="83.666" y2="330.023"><stop offset="0" stop-color="#092a40"/><stop offset="1" stop-color="#3a2f4d"/></linearGradient><linearGradient id="SVGID_2_" gradientUnits="userSpaceOnUse" x1="255" x2="255" y1="363.209" y2="480.636"><stop offset="0" stop-color="#2f73a0"/><stop offset="1" stop-color="#174461"/></linearGradient><linearGradient id="lg1"><stop offset="0" stop-color="#174461" stop-opacity="0"/><stop offset="1" stop-color="#3a2f4d"/></linearGradient><linearGradient id="SVGID_3_" gradientUnits="userSpaceOnUse" x1="260.298" x2="282.37" xlink:href="#lg1" y1="412.556" y2="291.684"/><linearGradient id="SVGID_4_" gradientUnits="userSpaceOnUse" x1="258.754" x2="281.258" xlink:href="#lg1" y1="446.374" y2="323.138"/><linearGradient id="lg2"><stop offset="0" stop-color="#2f73a0" stop-opacity="0"/><stop offset=".5026" stop-color="#345278" stop-opacity=".503"/><stop offset="1" stop-color="#3a2f4d"/></linearGradient><linearGradient id="SVGID_5_" gradientUnits="userSpaceOnUse" x1="109.562" x2="109.562" xlink:href="#lg2" y1="336.542" y2="274.916"/><linearGradient id="SVGID_6_" gradientUnits="userSpaceOnUse" x1="345.614" x2="345.614" xlink:href="#lg2" y1="293.209" y2="170.135"/><linearGradient id="SVGID_7_" gradientUnits="userSpaceOnUse" x1="171.95" x2="234.45" y1="226.57" y2="356.57"><stop offset="0" stop-color="#2f73a0"/><stop offset="1" stop-color="#3a2f4d"/></linearGradient><linearGradient id="SVGID_8_" gradientUnits="userSpaceOnUse" x1="280.326" x2="226.326" y1="305.262" y2="326.596"><stop offset="0" stop-color="#3a2f4d" stop-opacity="0"/><stop offset="1" stop-color="#3a2f4d"/></linearGradient><linearGradient id="SVGID_9_" gradientUnits="userSpaceOnUse" x1="404.9" x2="415.9" xlink:href="#lg1" y1="410.822" y2="322.822"/><linearGradient id="lg3"><stop offset="0" stop-color="#798c00"/><stop offset="1" stop-color="#1b444f"/></linearGradient><linearGradient id="SVGID_10_" gradientUnits="userSpaceOnUse" x1="400.623" x2="415.956" xlink:href="#lg3" y1="303.624" y2="366.291"/><linearGradient id="SVGID_11_" gradientUnits="userSpaceOnUse" x1="144.17" x2="144.17" y1="449.209" y2="490.548"><stop offset="0" stop-color="#988575"/><stop offset="1" stop-color="#736357"/></linearGradient><linearGradient id="lg4"><stop offset="0" stop-color="#754c24" stop-opacity="0"/><stop offset="1" stop-color="#754c24"/></linearGradient><linearGradient id="SVGID_12_" gradientUnits="userSpaceOnUse" x1="147.011" x2="231.638" xlink:href="#lg4" y1="501.699" y2="293.152"/><linearGradient id="SVGID_13_" gradientUnits="userSpaceOnUse" x1="170.369" x2="147.036" xlink:href="#lg4" y1="532.096" y2="458.096"/><linearGradient id="SVGID_14_" gradientUnits="userSpaceOnUse" x1="181.649" x2="220.785" xlink:href="#lg3" y1="432.084" y2="471.22"/><linearGradient id="lg5"><stop offset="0" stop-color="#1b444f" stop-opacity="0"/><stop offset="1" stop-color="#1b444f"/></linearGradient><linearGradient id="SVGID_15_" gradientUnits="userSpaceOnUse" x1="196.744" x2="221.924" xlink:href="#lg5" y1="437.224" y2="432.104"/><linearGradient id="SVGID_16_" gradientUnits="userSpaceOnUse" x1="201.846" x2="201.846" xlink:href="#lg5" y1="461.442" y2="473.114"/><linearGradient id="lg6"><stop offset="0" stop-color="#fff5d9"/><stop offset="1" stop-color="#ffce47"/></linearGradient><linearGradient id="SVGID_17_" gradientUnits="userSpaceOnUse" x1="347.793" x2="347.793" xlink:href="#lg6" y1="103.209" y2="198.545"/><linearGradient id="SVGID_18_" gradientUnits="userSpaceOnUse" x1="46.38" x2="46.38" xlink:href="#lg6" y1="110.285" y2="167.754"/><linearGradient id="SVGID_19_" gradientUnits="userSpaceOnUse" x1="110.538" x2="151.819" y1="318.99" y2="318.99"><stop offset="0" stop-color="#c7e9ff"/><stop offset="1" stop-color="#7acbff"/></linearGradient><linearGradient id="lg7"><stop offset="0" stop-color="#2f73a0" stop-opacity="0"/><stop offset="1" stop-color="#2f73a0"/></linearGradient><linearGradient id="SVGID_20_" gradientUnits="userSpaceOnUse" x1="153.698" x2="117.594" xlink:href="#lg7" y1="225.471" y2="87.618"/><linearGradient id="lg8"><stop offset="0" stop-color="#ff4181"/><stop offset="1" stop-color="#843561"/></linearGradient><linearGradient id="SVGID_21_" gradientUnits="userSpaceOnUse" x1="78.923" x2="197.92" xlink:href="#lg8" y1="384.901" y2="384.901"/><linearGradient id="SVGID_22_" gradientUnits="userSpaceOnUse" x1="84.86" x2="192.005" xlink:href="#lg8" y1="253.922" y2="253.922"/><linearGradient id="lg9"><stop offset="0" stop-color="#843561" stop-opacity="0"/><stop offset="1" stop-color="#3a2f4d"/></linearGradient><linearGradient id="SVGID_23_" gradientUnits="userSpaceOnUse" x1="175.273" x2="144.795" xlink:href="#lg9" y1="286.04" y2="136.464"/><linearGradient id="SVGID_24_" gradientUnits="userSpaceOnUse" x1="104.348" x2="141.352" xlink:href="#lg6" y1="90.476" y2="127.48"/><linearGradient id="SVGID_25_" gradientUnits="userSpaceOnUse" x1="161.803" x2="127.418" xlink:href="#lg7" y1="124.61" y2="124.61"/><linearGradient id="lg10"><stop offset="0" stop-color="#ff9356" stop-opacity="0"/><stop offset="1" stop-color="#ff755c"/></linearGradient><linearGradient id="SVGID_26_" gradientUnits="userSpaceOnUse" x1="138.483" x2="138.483" xlink:href="#lg10" y1="127.111" y2="160.871"/><linearGradient id="lg11"><stop offset="0" stop-color="#dfdfdf"/><stop offset="1" stop-color="#9da6ac"/></linearGradient><linearGradient id="SVGID_27_" gradientUnits="userSpaceOnUse" x1="125.855" x2="144.131" xlink:href="#lg11" y1="124.61" y2="124.61"/><linearGradient id="SVGID_28_" gradientUnits="userSpaceOnUse" x1="94.279" x2="94.279" xlink:href="#lg11" y1="135.551" y2="148.888"/><linearGradient id="SVGID_29_" gradientUnits="userSpaceOnUse" x1="123.748" x2="123.748" xlink:href="#lg11" y1="135.551" y2="148.888"/><linearGradient id="SVGID_30_" gradientUnits="userSpaceOnUse" x1="153.217" x2="153.217" xlink:href="#lg11" y1="135.551" y2="148.888"/><linearGradient id="SVGID_31_" gradientUnits="userSpaceOnUse" x1="182.687" x2="182.687" xlink:href="#lg11" y1="135.551" y2="148.888"/><linearGradient id="SVGID_32_" gradientUnits="userSpaceOnUse" x1="138.483" x2="138.483" xlink:href="#lg11" y1="147.273" y2="175.601"/><linearGradient id="SVGID_33_" gradientUnits="userSpaceOnUse" x1="138.483" x2="138.483" xlink:href="#lg10" y1="117.968" y2="74.11"/><linearGradient id="SVGID_34_" gradientUnits="userSpaceOnUse" x1="120.768" x2="138.898" xlink:href="#lg8" y1="51.491" y2="87.127"/><linearGradient id="SVGID_35_" gradientUnits="userSpaceOnUse" x1="125.431" x2="161.067" xlink:href="#lg9" y1="49.06" y2="124.551"/><linearGradient id="SVGID_36_" gradientUnits="userSpaceOnUse" x1="138.483" x2="138.483" xlink:href="#lg11" y1="85.463" y2="96.789"/><linearGradient id="SVGID_37_" gradientUnits="userSpaceOnUse" x1="50.03" x2="99.465" xlink:href="#lg3" y1="449.434" y2="498.87"/><linearGradient id="SVGID_38_" gradientUnits="userSpaceOnUse" x1="69.098" x2="100.904" xlink:href="#lg5" y1="455.927" y2="449.46"/><linearGradient id="SVGID_39_" gradientUnits="userSpaceOnUse" x1="75.542" x2="75.542" xlink:href="#lg5" y1="486.518" y2="501.263"/><linearGradient id="lg12"><stop offset="0" stop-color="#edf5ff"/><stop offset="1" stop-color="#c7e9ff"/></linearGradient><linearGradient id="SVGID_40_" gradientUnits="userSpaceOnUse" x1="31.789" x2="37.495" xlink:href="#lg12" y1="26.734" y2="32.44"/><linearGradient id="SVGID_41_" gradientUnits="userSpaceOnUse" x1="47.557" x2="53.263" xlink:href="#lg12" y1="59.512" y2="65.218"/><linearGradient id="SVGID_42_" gradientUnits="userSpaceOnUse" x1="22.399" x2="28.105" xlink:href="#lg12" y1="235.899" y2="241.605"/><linearGradient id="SVGID_43_" gradientUnits="userSpaceOnUse" x1="272.129" x2="277.835" xlink:href="#lg12" y1="26.734" y2="32.44"/><linearGradient id="SVGID_44_" gradientUnits="userSpaceOnUse" x1="219.066" x2="224.772" xlink:href="#lg12" y1="69.899" y2="75.605"/><linearGradient id="SVGID_45_" gradientUnits="userSpaceOnUse" x1="217.899" x2="223.605" xlink:href="#lg12" y1="183.233" y2="188.939"/><linearGradient id="SVGID_46_" gradientUnits="userSpaceOnUse" x1="239.233" x2="244.939" xlink:href="#lg12" y1="227.233" y2="232.939"/><linearGradient id="SVGID_47_" gradientUnits="userSpaceOnUse" x1="21.899" x2="27.605" xlink:href="#lg12" y1="171.233" y2="176.939"/><linearGradient id="SVGID_48_" gradientUnits="userSpaceOnUse" x1="61.733" x2="67.439" xlink:href="#lg12" y1="271.233" y2="276.939"/><linearGradient id="SVGID_49_" gradientUnits="userSpaceOnUse" x1="103.899" x2="109.605" xlink:href="#lg12" y1="19.899" y2="25.605"/><linearGradient id="SVGID_50_" gradientUnits="userSpaceOnUse" x1="326.032" x2="331.738" xlink:href="#lg12" y1="38.122" y2="43.828"/><linearGradient id="SVGID_51_" gradientUnits="userSpaceOnUse" x1="423.233" x2="428.939" xlink:href="#lg12" y1="249.233" y2="254.939"/><linearGradient id="SVGID_52_" gradientUnits="userSpaceOnUse" x1="478.566" x2="484.272" xlink:href="#lg12" y1="223.233" y2="228.939"/><linearGradient id="SVGID_53_" gradientUnits="userSpaceOnUse" x1="283.789" x2="289.495" xlink:href="#lg12" y1="59.512" y2="65.218"/><linearGradient id="SVGID_54_" gradientUnits="userSpaceOnUse" x1="281.233" x2="286.939" xlink:href="#lg12" y1="249.899" y2="255.605"/><linearGradient id="SVGID_55_" gradientUnits="userSpaceOnUse" x1="267.899" x2="273.605" xlink:href="#lg12" y1="183.899" y2="189.605"/><linearGradient id="SVGID_56_" gradientUnits="userSpaceOnUse" x1="58.399" x2="64.105" xlink:href="#lg12" y1="192.566" y2="198.272"/><linearGradient id="SVGID_57_" gradientUnits="userSpaceOnUse" x1="386.848" x2="392.554" xlink:href="#lg12" y1="29.791" y2="35.497"/><linearGradient id="SVGID_58_" gradientUnits="userSpaceOnUse" x1="477.066" x2="482.772" xlink:href="#lg12" y1="23.233" y2="28.939"/><linearGradient id="SVGID_59_" gradientUnits="userSpaceOnUse" x1="477.233" x2="482.939" xlink:href="#lg12" y1="267.899" y2="273.605"/><linearGradient id="SVGID_60_" gradientUnits="userSpaceOnUse" x1="365.899" x2="371.605" xlink:href="#lg12" y1="230.399" y2="236.105"/><linearGradient id="SVGID_61_" gradientUnits="userSpaceOnUse" x1="403.899" x2="409.605" xlink:href="#lg12" y1="197.899" y2="203.605"/><linearGradient id="SVGID_62_" gradientUnits="userSpaceOnUse" x1="317.233" x2="322.939" xlink:href="#lg12" y1="203.733" y2="209.439"/><linearGradient id="SVGID_63_" gradientUnits="userSpaceOnUse" x1="203.789" x2="209.495" xlink:href="#lg12" y1="25.291" y2="30.997"/><linearGradient id="SVGID_64_" gradientUnits="userSpaceOnUse" x1="165.899" x2="171.605" xlink:href="#lg12" y1="21.899" y2="27.605"/><g><path d="m485.638 510h-461.276c-13.455 0-24.362-10.907-24.362-24.362v-461.276c0-13.455 10.907-24.362 24.362-24.362h461.275c13.456 0 24.363 10.907 24.363 24.362v461.275c0 13.456-10.907 24.363-24.362 24.363z" fill="url(#SVGID_1_)"/><path d="m510 485.638v-132.429h-510v132.429c0 13.455 10.907 24.362 24.362 24.362h461.275c13.456 0 24.363-10.907 24.363-24.362z" fill="url(#SVGID_2_)"/><path d="m510 485.638v-90.369h-510v90.369c0 13.455 10.907 24.362 24.362 24.362h461.275c13.456 0 24.363-10.907 24.363-24.362z" fill="url(#SVGID_3_)"/><path d="m510 485.638v-39.638h-510v39.638c0 13.455 10.907 24.362 24.362 24.362h461.275c13.456 0 24.363-10.907 24.363-24.362z" fill="url(#SVGID_4_)"/><g><path d="m188.562 353.209-54.149-61.873c-15.218-17.388-33.864-17.453-49.111-.171l-54.74 62.044z" fill="url(#SVGID_5_)"/><path d="m387.888 272.699c-25.886-22.626-57.605-22.71-83.542-.223l-93.117 80.732h268.771z" fill="url(#SVGID_6_)"/><g><path d="m277.673 287.069h-26.496c-8.378 0-16.414-4.276-22.338-11.886-12.337-15.849-32.339-15.849-44.676 0l-60.738 78.026h218.818l-42.232-54.253c-5.925-7.611-13.96-11.887-22.338-11.887z" fill="url(#SVGID_7_)"/><path d="m300.011 298.956c-5.924-7.611-13.96-11.886-22.338-11.886h-26.496c-8.292 0-16.344-4.068-22.162-11.659-7.237-9.443-17.17-13.356-26.646-11.759l35.672 45.826c6.252 8.032 14.732 12.544 23.575 12.544 8.842 0 17.322 4.512 23.575 12.544l14.512 18.642h42.542z" fill="url(#SVGID_8_)"/></g></g><path d="m310.017 378.992c36.57 28.309 107.028 66.331 199.983 38.903v-64.687h-191.146c-13.725.001-19.69 17.383-8.837 25.784z" fill="url(#SVGID_9_)"/><path d="m310.017 343.481c36.57-28.309 107.028-66.331 199.983-38.903v64.687h-191.146c-13.725-.001-19.69-17.383-8.837-25.784z" fill="url(#SVGID_10_)"/><g><path d="m288.34 491.858v-6.383c0-10.02-8.122-18.142-18.142-18.142 0-11.782-9.551-21.333-21.333-21.333h-248.865v39.638c0 13.455 10.907 24.362 24.362 24.362h245.836c10.02 0 18.142-8.122 18.142-18.142z" fill="url(#SVGID_11_)"/><path d="m30 492.438c0 9.699 7.863 17.562 17.562 17.562h222.636c3.874 0 7.456-1.224 10.403-3.292.459-1.595.719-3.275.719-5.017v-6.382c0-10.02-8.123-18.142-18.142-18.142 0-11.782-9.551-21.333-21.333-21.333h-211.845z" fill="url(#SVGID_12_)"/><path d="m263.177 477.166c0-11.782-9.551-21.333-21.333-21.333h-173.15c-19.234 0-34.826 15.592-34.826 34.826l19.341 19.341h216.989c3.874 0 7.456-1.224 10.403-3.292.459-1.595.719-3.275.719-5.017v-6.382c-.001-10.02-8.123-18.143-18.143-18.143z" fill="url(#SVGID_13_)"/></g><g><g><g><path d="m218.552 431.438c-2.163 0-4.244.346-6.194.982-2.086-6.805-8.418-11.754-15.906-11.754-9.187 0-16.635 7.448-16.635 16.635 0 1.327.156 2.618.45 3.856-7.84.553-14.03 7.087-14.03 15.068 0 8.343 6.764 15.107 15.107 15.107h37.208c11.017 0 19.947-8.931 19.947-19.947s-8.93-19.947-19.947-19.947z" fill="url(#SVGID_14_)"/><path d="m198.604 451.387c0 .809.049 1.606.143 2.39-.75.106-1.518.159-2.296.159-9.187 0-16.634-7.448-16.634-16.635 0-9.186 7.447-16.634 16.634-16.634 7.488 0 13.822 4.949 15.907 11.754-7.984 2.604-13.754 10.111-13.754 18.966z" fill="url(#SVGID_15_)"/><path d="m166.353 458.106c.926 7.456 7.284 13.227 14.991 13.227h37.208c8.658 0 16.027-5.517 18.786-13.227z" fill="url(#SVGID_16_)"/></g></g></g><path d="m510 187.339-324.414-42.394v-47.843l324.414-42.394z" fill="url(#SVGID_17_)"/><path d="m92.76 97.099v47.85l-19.79 3.42-72.97 12.63v-79.95l72.97 12.63z" fill="url(#SVGID_18_)"/><g><g><path d="m183.12 483.135h-89.275c-10.71 0-19.249-8.946-18.75-19.644l14.377-308.647h98.023l14.377 308.647c.497 10.698-8.042 19.644-18.752 19.644z" fill="url(#SVGID_19_)"/><path d="m193.371 281.014-5.877-126.17h-98.023l-.991 21.279z" fill="url(#SVGID_20_)"/><g><path d="m199.73 417.644h-122.502l3.048-65.485h116.406z" fill="url(#SVGID_21_)"/><path d="m193.635 286.664h-110.302l3.048-65.485h104.197z" fill="url(#SVGID_22_)"/><path d="m193.371 281.014-2.793-59.835h-57.042z" fill="url(#SVGID_23_)"/></g></g><path d="m91.379 90.225h94.206v68.77h-94.206z" fill="url(#SVGID_24_)"/><path d="m140.926 90.225h44.66v68.77h-44.66z" fill="url(#SVGID_25_)"/><path d="m91.379 119.921h94.206v39.074h-94.206z" fill="url(#SVGID_26_)"/><path d="m128.604 90.225h19.758v68.77h-19.758z" fill="url(#SVGID_27_)"/><g><path d="m102.255 154.844h-15.952v-15.708c0-4.273 3.464-7.737 7.737-7.737h.478c4.273 0 7.737 3.464 7.737 7.737z" fill="url(#SVGID_28_)"/><path d="m131.724 154.844h-15.952v-15.708c0-4.273 3.464-7.737 7.737-7.737h.478c4.273 0 7.737 3.464 7.737 7.737z" fill="url(#SVGID_29_)"/><path d="m161.193 154.844h-15.952v-15.708c0-4.273 3.464-7.737 7.737-7.737h.478c4.273 0 7.737 3.464 7.737 7.737z" fill="url(#SVGID_30_)"/><path d="m190.662 154.844h-15.952v-15.708c0-4.273 3.464-7.737 7.737-7.737h.478c4.273 0 7.737 3.464 7.737 7.737z" fill="url(#SVGID_31_)"/></g><path d="m185.9 176.386h-94.835c-7.041 0-12.748-5.708-12.748-12.748v-5.944c0-7.041 5.708-12.748 12.748-12.748h94.835c7.041 0 12.748 5.708 12.748 12.748v5.944c0 7.04-5.707 12.748-12.748 12.748z" fill="url(#SVGID_32_)"/><path d="m91.379 96.38.142.722 61.893 61.893h32.172v-68.77h-94.207z" fill="url(#SVGID_33_)"/><g><path d="m135.583 35.209c-26.014 0-47.103 21.089-47.103 47.103v7.913h94.206v-7.913c.001-26.014-21.088-47.103-47.103-47.103z" fill="url(#SVGID_34_)"/><path d="m138.585 35.209h-6.004c-11.183 0-20.248 9.066-20.248 20.248v34.768h46.501v-34.768c0-11.183-9.066-20.248-20.249-20.248z" fill="url(#SVGID_35_)"/><path d="m192.363 97.102h-107.761c-3.471 0-6.285-2.814-6.285-6.285 0-3.471 2.814-6.285 6.285-6.285h107.761c3.471 0 6.285 2.814 6.285 6.285 0 3.471-2.813 6.285-6.285 6.285z" fill="url(#SVGID_36_)"/></g></g><g><g><g><path d="m96.645 448.619c-2.732 0-5.361.436-7.824 1.24-2.635-8.596-10.633-14.847-20.093-14.847-11.605 0-21.013 9.408-21.013 21.013 0 1.677.198 3.307.569 4.871-9.904.698-17.722 8.953-17.722 19.034 0 10.539 8.544 19.083 19.083 19.083h47c13.916 0 25.197-11.281 25.197-25.197s-11.281-25.197-25.197-25.197z" fill="url(#SVGID_37_)"/><path d="m71.447 473.817c0 1.022.061 2.029.18 3.02-.948.134-1.917.201-2.901.201-11.605 0-21.011-9.408-21.011-21.013 0-11.603 9.406-21.011 21.011-21.011 9.459 0 17.46 6.251 20.093 14.847-10.084 3.288-17.372 12.77-17.372 23.956z" fill="url(#SVGID_38_)"/><path d="m30.709 482.305c1.169 9.418 9.201 16.708 18.936 16.708h47c10.937 0 20.245-6.969 23.729-16.708z" fill="url(#SVGID_39_)"/></g></g></g><g><circle cx="33.223" cy="28.168" fill="url(#SVGID_40_)" r="4.5"/><circle cx="48.991" cy="60.946" fill="url(#SVGID_41_)" r="4.5"/><circle cx="23.833" cy="237.333" fill="url(#SVGID_42_)" r="4.5"/><circle cx="273.563" cy="28.168" fill="url(#SVGID_43_)" r="4.5"/><circle cx="220.5" cy="71.333" fill="url(#SVGID_44_)" r="4.5"/><circle cx="219.333" cy="184.667" fill="url(#SVGID_45_)" r="4.5"/><circle cx="240.667" cy="228.667" fill="url(#SVGID_46_)" r="4.5"/><circle cx="23.333" cy="172.667" fill="url(#SVGID_47_)" r="4.5"/><circle cx="63.167" cy="272.667" fill="url(#SVGID_48_)" r="4.5"/><circle cx="105.333" cy="21.333" fill="url(#SVGID_49_)" r="4.5"/><circle cx="327.466" cy="39.556" fill="url(#SVGID_50_)" r="4.5"/><circle cx="424.667" cy="250.667" fill="url(#SVGID_51_)" r="4.5"/><circle cx="480" cy="224.667" fill="url(#SVGID_52_)" r="4.5"/><circle cx="285.223" cy="60.946" fill="url(#SVGID_53_)" r="4.5"/><circle cx="282.667" cy="251.333" fill="url(#SVGID_54_)" r="4.5"/><circle cx="269.333" cy="185.333" fill="url(#SVGID_55_)" r="4.5"/><circle cx="59.833" cy="194" fill="url(#SVGID_56_)" r="4.5"/><circle cx="388.282" cy="31.225" fill="url(#SVGID_57_)" r="4.5"/><circle cx="478.5" cy="24.667" fill="url(#SVGID_58_)" r="4.5"/><circle cx="478.667" cy="269.333" fill="url(#SVGID_59_)" r="4.5"/><circle cx="367.333" cy="231.833" fill="url(#SVGID_60_)" r="4.5"/><circle cx="405.333" cy="199.333" fill="url(#SVGID_61_)" r="4.5"/><circle cx="318.667" cy="205.167" fill="url(#SVGID_62_)" r="4.5"/><circle cx="205.223" cy="26.725" fill="url(#SVGID_63_)" r="4.5"/><circle cx="167.333" cy="23.333" fill="url(#SVGID_64_)" r="4.5"/></g></g></svg>