<!--
  - Copyright (c) 2023. Selldone® Business OS™
  -
  - Author: M.Pajuhaan
  - Web: https://selldone.com
  - ━━━━━━━━━━━━━━━━━━━━━━━━━━━━━━━━━━━━━━━━━━━━━━━━━━━━━━
  -
  - All rights reserved. In the weave of time, where traditions and innovations intermingle, this content was crafted.
  - From the essence of thought, through the corridors of creativity, each word, and sentiment has been molded.
  - Not just to exist, but to inspire. Like an artist's stroke or a sculptor's chisel, every nuance is deliberate.
  - Our journey is not just about reaching a destination, but about creating a masterpiece.
  - Tread carefully, for you're treading on dreams.
  -->

<svg id="Capa_1" enable-background="new 0 0 510 510" height="512" viewBox="0 0 510 510" width="512" xmlns="http://www.w3.org/2000/svg" xmlns:xlink="http://www.w3.org/1999/xlink"><linearGradient id="SVGID_1_" gradientUnits="userSpaceOnUse" x1="255" x2="255" y1="207" y2="403.125"><stop offset="0" stop-color="#fff5d9"/><stop offset="1" stop-color="#ffce47"/></linearGradient><linearGradient id="lg1"><stop offset="0" stop-color="#ffdecf"/><stop offset="1" stop-color="#faa68e"/></linearGradient><linearGradient id="SVGID_2_" gradientUnits="userSpaceOnUse" x1="232" x2="296.667" xlink:href="#lg1" y1="95.856" y2="95.856"/><linearGradient id="lg2"><stop offset="0" stop-color="#ff9356" stop-opacity="0"/><stop offset="1" stop-color="#ff4181"/></linearGradient><linearGradient id="SVGID_3_" gradientUnits="userSpaceOnUse" x1="255.608" x2="200.608" xlink:href="#lg2" y1="91.09" y2="40.09"/><linearGradient id="SVGID_4_" gradientUnits="userSpaceOnUse" x1="251.912" x2="294.912" xlink:href="#lg2" y1="92.161" y2="32.411"/><linearGradient id="SVGID_5_" gradientUnits="userSpaceOnUse" x1="254.639" x2="282.389" xlink:href="#lg2" y1="82.063" y2="39.063"/><linearGradient id="SVGID_6_" gradientUnits="userSpaceOnUse" x1="221.214" x2="284.714" xlink:href="#lg1" y1="-22.426" y2="65.574"/><linearGradient id="SVGID_7_" gradientTransform="matrix(1 0 0 -1 0 1381.715)" gradientUnits="userSpaceOnUse" x1="244.73" x2="284.694" xlink:href="#lg2" y1="1327.579" y2="1319.453"/><linearGradient id="SVGID_8_" gradientUnits="userSpaceOnUse" x1="185.458" x2="248.958" xlink:href="#lg1" y1="3.375" y2="91.375"/><linearGradient id="SVGID_9_" gradientTransform="matrix(1 0 0 -1 0 1381.715)" gradientUnits="userSpaceOnUse" x1="188.36" x2="215.825" xlink:href="#lg2" y1="1344.511" y2="1338.926"/><linearGradient id="SVGID_10_" gradientUnits="userSpaceOnUse" x1="305.786" x2="323.786" xlink:href="#lg1" y1="-5.162" y2="38.838"/><linearGradient id="SVGID_11_" gradientTransform="matrix(1 0 0 -1 0 1381.715)" gradientUnits="userSpaceOnUse" x1="309.37" x2="336.835" xlink:href="#lg2" y1="1344.511" y2="1338.926"/><linearGradient id="SVGID_12_" gradientUnits="userSpaceOnUse" x1="185.833" x2="202.307" xlink:href="#lg1" y1="63.167" y2="79.641"/><linearGradient id="lg3"><stop offset="0" stop-color="#ff9356" stop-opacity="0"/><stop offset="1" stop-color="#ff755c"/></linearGradient><linearGradient id="SVGID_13_" gradientTransform="matrix(-1 0 0 1 -1368.496 0)" gradientUnits="userSpaceOnUse" x1="-1468.744" x2="-1468.744" xlink:href="#lg3" y1="371.248" y2="243.076"/><linearGradient id="SVGID_14_" gradientUnits="userSpaceOnUse" x1="437.838" x2="437.838" xlink:href="#lg3" y1="367.209" y2="205.704"/><linearGradient id="SVGID_15_" gradientUnits="userSpaceOnUse" x1="255" x2="255" y1="372.835" y2="488.339"><stop offset="0" stop-color="#ffce47"/><stop offset="1" stop-color="#f6921e"/></linearGradient><linearGradient id="SVGID_16_" gradientUnits="userSpaceOnUse" x1="252.98" x2="275.053" xlink:href="#lg3" y1="452.628" y2="331.757"/><linearGradient id="SVGID_17_" gradientUnits="userSpaceOnUse" x1="253.085" x2="269.664" xlink:href="#lg3" y1="477.42" y2="386.633"/><linearGradient id="lg4"><stop offset="0" stop-color="#c59b6d"/><stop offset="1" stop-color="#8b6239"/></linearGradient><linearGradient id="SVGID_18_" gradientUnits="userSpaceOnUse" x1="105.33" x2="167.105" xlink:href="#lg4" y1="291.148" y2="374.45"/><linearGradient id="lg5"><stop offset="0" stop-color="#754c24" stop-opacity="0"/><stop offset="1" stop-color="#754c24"/></linearGradient><linearGradient id="SVGID_19_" gradientUnits="userSpaceOnUse" x1="197.409" x2="82.692" xlink:href="#lg5" y1="295.802" y2="263.788"/><linearGradient id="SVGID_20_" gradientUnits="userSpaceOnUse" x1="166.141" x2="313.717" xlink:href="#lg4" y1="238.759" y2="374.226"/><linearGradient id="SVGID_21_" gradientUnits="userSpaceOnUse" x1="295.439" x2="140.439" xlink:href="#lg5" y1="281.833" y2="131.833"/><linearGradient id="SVGID_22_" gradientUnits="userSpaceOnUse" x1="286.579" x2="225.83" xlink:href="#lg5" y1="221.156" y2="142.978"/><linearGradient id="SVGID_23_" gradientUnits="userSpaceOnUse" x1="324.775" x2="238.75" xlink:href="#lg5" y1="255.914" y2="215.218"/><linearGradient id="SVGID_24_" gradientUnits="userSpaceOnUse" x1="314.135" x2="349.468" xlink:href="#lg4" y1="290.75" y2="371.416"/><linearGradient id="SVGID_25_" gradientUnits="userSpaceOnUse" x1="401.049" x2="332.285" xlink:href="#lg5" y1="327.57" y2="396.334"/><linearGradient id="lg6"><stop offset="0" stop-color="#ff7044"/><stop offset="1" stop-color="#f82814"/></linearGradient><linearGradient id="SVGID_26_" gradientUnits="userSpaceOnUse" x1="223.668" x2="302.664" xlink:href="#lg6" y1="151.751" y2="230.747"/><linearGradient id="lg7"><stop offset="0" stop-color="#843561" stop-opacity="0"/><stop offset="1" stop-color="#3a2f4d"/></linearGradient><linearGradient id="SVGID_27_" gradientUnits="userSpaceOnUse" x1="259.844" x2="195.094" xlink:href="#lg7" y1="194.867" y2="223.117"/><linearGradient id="SVGID_28_" gradientUnits="userSpaceOnUse" x1="280.784" x2="208.784" xlink:href="#lg7" y1="197.25" y2="159.25"/><linearGradient id="SVGID_29_" gradientUnits="userSpaceOnUse" x1="268.536" x2="158.878" xlink:href="#lg5" y1="287.483" y2="177.825"/><linearGradient id="SVGID_30_" gradientUnits="userSpaceOnUse" x1="205.723" x2="227.486" xlink:href="#lg6" y1="224.67" y2="246.433"/><linearGradient id="SVGID_31_" gradientUnits="userSpaceOnUse" x1="326.258" x2="334.495" xlink:href="#lg6" y1="157.086" y2="165.323"/><linearGradient id="SVGID_32_" gradientTransform="matrix(.707 .707 -.707 .707 204.176 807.074)" gradientUnits="userSpaceOnUse" x1="-484.472" x2="-464.184" xlink:href="#lg6" y1="-463.618" y2="-463.618"/><linearGradient id="SVGID_33_" gradientTransform="matrix(-.707 .707 .707 .707 -1687.025 807.074)" gradientUnits="userSpaceOnUse" x1="-1893.629" x2="-1873.341" xlink:href="#lg6" y1="945.539" y2="945.539"/><linearGradient id="SVGID_34_" gradientUnits="userSpaceOnUse" x1="401.647" x2="379.98" xlink:href="#lg3" y1="492.866" y2="421.2"/><linearGradient id="SVGID_35_" gradientUnits="userSpaceOnUse" x1="342.188" x2="373.73" xlink:href="#lg4" y1="418.655" y2="450.198"/><linearGradient id="SVGID_36_" gradientUnits="userSpaceOnUse" x1="375.527" x2="361.861" xlink:href="#lg5" y1="416.155" y2="433.155"/><linearGradient id="SVGID_37_" gradientUnits="userSpaceOnUse" x1="376.788" x2="392.559" xlink:href="#lg4" y1="435.073" y2="450.844"/><linearGradient id="SVGID_38_" gradientUnits="userSpaceOnUse" x1="117.323" x2="105.028" xlink:href="#lg3" y1="499.695" y2="459.029"/><linearGradient id="SVGID_39_" gradientUnits="userSpaceOnUse" x1="87.121" x2="102.893" xlink:href="#lg4" y1="458.541" y2="474.312"/><g><path d="m485.638 510h-461.276c-13.455 0-24.362-10.907-24.362-24.362v-461.276c0-13.455 10.907-24.362 24.362-24.362h461.275c13.456 0 24.363 10.907 24.363 24.362v461.275c0 13.456-10.907 24.363-24.362 24.363z" fill="url(#SVGID_1_)"/><g><path d="m218.479 32h73.043v127.711h-73.043z" fill="url(#SVGID_2_)"/><path d="m229.973 32h61.548v127.711h-61.548z" fill="url(#SVGID_3_)"/><path d="m218.479 32h61.548v127.711h-61.548z" fill="url(#SVGID_4_)"/><path d="m218.479 32h54.518v127.711h-54.518z" fill="url(#SVGID_5_)"/><g><g><g><g><path d="m279.343 63.319c-3.432 0-6.736-.548-9.831-1.559-3.311 10.801-13.36 18.654-25.246 18.654-14.581 0-26.402-11.821-26.402-26.402 0-2.107.248-4.155.714-6.12-12.444-.877-22.267-11.249-22.267-23.916.001-13.241 10.735-23.976 23.978-23.976h72.062c17.485 0 18.651 14.174 18.651 31.659s-14.174 31.66-31.659 31.66z" fill="url(#SVGID_6_)"/><path d="m247.683 31.658c0-1.284.077-2.55.226-3.794-1.191-.168-2.408-.253-3.645-.253-14.581 0-26.4 11.821-26.4 26.403 0 14.579 11.819 26.4 26.4 26.4 11.885 0 21.937-7.854 25.246-18.655-12.67-4.133-21.827-16.047-21.827-30.101z" fill="url(#SVGID_7_)"/></g></g></g><g><g><g><path d="m212.147 43.515c-2.359 0-4.629-.377-6.756-1.071-2.275 7.423-9.182 12.82-17.35 12.82-10.021 0-18.144-8.124-18.144-18.144 0-1.448.171-2.856.491-4.206-8.552-.603-15.303-7.731-15.303-16.436 0-9.101 7.378-16.478 16.478-16.478h48.589c12.016 0 13.753 9.741 13.753 21.757s-9.741 21.758-21.758 21.758z" fill="url(#SVGID_8_)"/><path d="m190.39 21.757c0-.883.053-1.752.156-2.607-.818-.115-1.655-.174-2.505-.174-10.021 0-18.143 8.124-18.143 18.145 0 10.019 8.122 18.143 18.143 18.143 8.168 0 15.076-5.398 17.35-12.821-8.708-2.84-15.001-11.028-15.001-20.686z" fill="url(#SVGID_9_)"/></g></g></g><g><g><g><path d="m333.157 43.515c-2.359 0-4.629-.377-6.756-1.071-2.275 7.423-9.182 12.82-17.35 12.82-10.021 0-18.144-8.124-18.144-18.144 0-1.448.171-2.856.491-4.206-8.552-.603-15.303-7.731-15.303-16.436 0-9.101 7.377-16.478 16.478-16.478h40.584c12.016 0 21.758 9.741 21.758 21.757s-9.741 21.758-21.758 21.758z" fill="url(#SVGID_10_)"/><path d="m311.399 21.757c0-.883.053-1.752.156-2.607-.818-.115-1.655-.174-2.505-.174-10.021 0-18.143 8.124-18.143 18.145 0 10.019 8.122 18.143 18.143 18.143 8.168 0 15.076-5.398 17.35-12.821-8.708-2.84-15.001-11.028-15.001-20.686z" fill="url(#SVGID_11_)"/></g></g></g></g><circle cx="195.333" cy="72.667" fill="url(#SVGID_12_)" r="9.333"/></g><path d="m0 304.533 12.917-9.46c27.698-20.286 61.57-20.209 89.214.201l98.365 72.626h-200.496z" fill="url(#SVGID_13_)"/><path d="m510 367.9-49.462-80.51c-13.9-22.626-30.933-22.71-44.861-.223l-50.002 80.733z" fill="url(#SVGID_14_)"/><path d="m510 485.638v-117.738h-510v117.738c0 13.455 10.907 24.362 24.362 24.362h461.275c13.456 0 24.363-10.907 24.363-24.362z" fill="url(#SVGID_15_)"/><path d="m510 485.638v-90.369h-510v90.369c0 13.455 10.907 24.362 24.362 24.362h461.275c13.456 0 24.363-10.907 24.363-24.362z" fill="url(#SVGID_16_)"/><path d="m510 485.638v-39.638h-510v39.638c0 13.455 10.907 24.362 24.362 24.362h461.275c13.456 0 24.363-10.907 24.363-24.362z" fill="url(#SVGID_17_)"/><g><g><path d="m30 367.9 88.984-166.567c4.551-8.519 19.109-8.568 23.742-.08l8.819 16.154c3.047 5.582 12.409 6.012 16.182.744 3.676-5.133 12.733-4.889 16 .43l91.704 149.319z" fill="url(#SVGID_18_)"/><path d="m183.727 218.581c-3.267-5.319-12.324-5.563-16-.43-3.773 5.268-13.134 4.838-16.182-.744l-8.819-16.154c-2.408-4.411-7.495-6.511-12.466-6.32h-.001l17.333 39.998c1.584 3.656-1.683 7.508-6.368 7.508-5.034 0-8.305 4.396-6.048 8.127l31.328 51.784c4.615 7.629-2.073 16.616-12.365 16.616-9.952 0-16.649 8.453-12.697 16.027l17.167 32.907h116.822z" fill="url(#SVGID_19_)"/></g><g><path d="m428.613 367.9h-347.226l109.053-194.152c2.596-4.622 7.098-8.006 12.344-8.77 3.418-.498 6.75-1.757 9.733-3.775 3.97-2.691 8.548-4.03 13.138-4.03 4.566 0 9.157 1.339 13.114 4.03 3.97 2.679 8.548 4.018 13.138 4.018 4.578 0 9.157-1.339 13.114-4.018l.012-.012c7.927-5.358 18.314-5.358 26.253.012 3.97 2.679 8.548 4.018 13.126 4.018h.095c6.208-.025 11.998 3.099 15.039 8.512z" fill="url(#SVGID_20_)"/><path d="m428.613 367.9h-181.029l-14.003-31.878c-1.096-2.508-1.607-5.065-1.607-7.574 0-9.912 7.988-18.788 18.825-18.788 13.601 0 22.709-14.003 17.193-26.435l-29.26-65.984c-.962-2.167-1.4-4.384-1.4-6.551 0-8.511 6.855-16.146 16.17-16.146 12.018 0 19.835-12.676 14.429-23.415l-4.505-8.938c.536-.304 1.072-.633 1.595-.986l.012-.012c7.927-5.358 18.314-5.358 26.253.012 3.97 2.679 8.548 4.018 13.126 4.018h.095c6.208-.025 11.998 3.099 15.039 8.512z" fill="url(#SVGID_21_)"/><path d="m428.61 367.9h-62.54l-156.69-156.69c-4.46-3.26-5.369-8.52-5.369-14.48v-23.65c0-2.85.45-5.61 1.29-8.19 3.24-.54 4.379-1.77 7.219-3.69 3.97-2.69 8.54-4.03 13.13-4.03 4.57 0 9.16 1.34 13.12 4.03 3.97 2.68 8.55 4.02 13.14 4.02 4.58 0 9.15-1.34 13.11-4.02l.01-.01c7.93-5.36 18.32-5.36 26.26.01 3.97 2.68 8.54 4.02 13.12 4.02h.1c3.17-.01 6.23.8 8.87 2.32 2.41 1.37 4.48 3.35 5.94 5.82.09.12.16.25.23.37z" fill="url(#SVGID_22_)"/><path d="m428.61 367.9h-42.66l-124.55-124.55c-4.38-3.27-5.239-8.48-5.239-14.37v-63.87c3.81-.37 5.549-1.67 8.859-3.91l.01-.01c7.93-5.36 18.32-5.36 26.26.01 3.97 2.68 8.54 4.02 13.12 4.02h.1c3.17-.01 6.23.8 8.87 2.32.03.02.06.03.09.06 2.37 1.36 4.41 3.32 5.85 5.76 0 .01.01.02.02.03.08.11.15.23.21.34z" fill="url(#SVGID_23_)"/></g><g><path d="m402.055 316.415h-31.985c-10.114 0-19.814-3.328-26.965-9.253-14.892-12.337-39.038-12.337-53.93 0l-73.32 60.738h264.145l-50.98-42.232c-7.152-5.925-16.852-9.253-26.965-9.253z" fill="url(#SVGID_24_)"/><path d="m429.02 325.667c-7.152-5.924-16.851-9.253-26.965-9.253h-31.985c-10.01 0-19.73-3.167-26.753-9.075-8.737-7.35-20.726-10.397-32.166-9.153l43.061 35.672c7.548 6.252 17.784 9.765 28.458 9.765 10.674 0 20.91 3.513 28.458 9.765l17.517 14.511h51.355z" fill="url(#SVGID_25_)"/></g><g><path d="m284.513 146.54c-19.602-2.404-39.424-2.404-59.026 0-13.406 1.644-23.48 13.03-23.48 26.536v23.656c0 9.91 8.034 17.944 17.944 17.944 9.91 0 17.944-8.034 17.944-17.944v-6.55c0-4.492 3.642-8.134 8.134-8.134 4.492 0 8.134 3.642 8.134 8.134v38.794c0 9.91 8.034 17.944 17.944 17.944 9.91 0 17.944-8.034 17.944-17.944v-37.956c0-4.955 4.017-8.972 8.972-8.972 4.955 0 8.972-4.017 8.972-8.972-.002-13.507-10.076-24.892-23.482-26.536z" fill="url(#SVGID_26_)"/><path d="m284.513 146.54c-15.44-1.894-31.015-2.272-46.513-1.183v43.575c.603-3.897 3.962-6.884 8.028-6.884 4.492 0 8.134 3.642 8.134 8.134v38.794c0 9.91 8.034 17.944 17.944 17.944 9.91 0 17.944-8.034 17.944-17.944v-37.957c0-4.955 4.017-8.972 8.972-8.972 4.955 0 8.972-4.017 8.972-8.972-.001-13.506-10.075-24.891-23.481-26.535z" fill="url(#SVGID_27_)"/><path d="m284.513 146.54c-.044-.005-.088-.011-.132-.016-6.99-.853-13.13 4.667-13.13 11.709v88.644c.286.013.567.043.856.043 9.91 0 17.944-8.034 17.944-17.944v-37.957c0-4.955 4.017-8.972 8.972-8.972 4.859 0 8.927-3.867 8.971-8.726.121-13.613-9.994-25.127-23.481-26.781z" fill="url(#SVGID_28_)"/></g><path d="m227.679 229.217c-2.264-3.201-5.987-4.297-10.206-4.297-6.904 0-11.499 4.596-11.499 11.499 0 4.219 1.096 7.942 4.297 10.205l121.274 121.276h34.816z" fill="url(#SVGID_29_)"/><circle cx="217.473" cy="236.42" fill="url(#SVGID_30_)" r="12.5"/></g><circle cx="331.008" cy="161.836" fill="url(#SVGID_31_)" r="4.667"/><g><path d="m185.947 150.825c-2.433-2.433-3.167-6.467-1.014-9.333 11.024-14.677 27.579-2.596 26.521 1.41-1.059 4.004-8.662-1.355-13.874 6.656-2.563 3.94-6.864 4.518-10.356 2.291-.472-.301-.898-.645-1.277-1.024z" fill="url(#SVGID_32_)"/><path d="m322.777 151.849c-3.492 2.227-7.793 1.649-10.356-2.291-5.212-8.012-12.816-2.652-13.874-6.656-1.058-4.006 15.497-16.087 26.521-1.41 2.152 2.865 1.419 6.899-1.014 9.333-.38.379-.806.723-1.277 1.024z" fill="url(#SVGID_33_)"/></g><path d="m468.586 508.739-69.79-69.79h-75.59l71.05 71.05h67.744c2.327.001 4.544-.456 6.586-1.26z" fill="url(#SVGID_34_)"/><g><g><path d="m327.167 440.509h51.942c8.939 0 13.416-10.808 7.095-17.129l-8.385-8.385c-5.22-5.22-12.299-8.152-19.681-8.152h-8.971c-15.372 0-27.833 12.461-27.833 27.833-.001 3.221 2.611 5.833 5.833 5.833z" fill="url(#SVGID_35_)"/><path d="m377.819 414.995c-5.22-5.22-12.299-8.152-19.681-8.152-3.574 0-6.471 2.897-6.471 6.471v.725c0 3.574 2.897 6.471 6.471 6.471 3.967 0 7.772 1.576 10.577 4.381l14.683 14.683c5.894-2.754 8.009-10.991 2.807-16.193z" fill="url(#SVGID_36_)"/></g><path d="m369.277 446h25.971c4.47 0 6.708-5.404 3.548-8.565l-4.193-4.193c-2.61-2.61-6.15-4.076-9.841-4.076h-4.486c-7.686 0-13.917 6.231-13.917 13.917.002 1.611 1.308 2.917 2.918 2.917z" fill="url(#SVGID_37_)"/></g><path d="m108.97 467.836h-31.975l42.164 42.164h31.975z" fill="url(#SVGID_38_)"/><path d="m79.611 469.468h25.971c4.47 0 6.708-5.404 3.548-8.565l-4.193-4.193c-2.61-2.61-6.15-4.076-9.841-4.076h-4.486c-7.686 0-13.917 6.231-13.917 13.917.001 1.611 1.307 2.917 2.918 2.917z" fill="url(#SVGID_39_)"/></g></svg>