

<svg id="Capa_1" enable-background="new 0 0 510 510" height="512" viewBox="0 0 510 510" width="512" xmlns="http://www.w3.org/2000/svg" xmlns:xlink="http://www.w3.org/1999/xlink"><linearGradient id="SVGID_1_" gradientUnits="userSpaceOnUse" x1="255" x2="255" y1="34.721" y2="483.763"><stop offset="0" stop-color="#c7e9ff"/><stop offset=".3556" stop-color="#a3e6f2"/><stop offset="1" stop-color="#65e0db"/></linearGradient><linearGradient id="lg1"><stop offset="0" stop-color="#18cefb" stop-opacity="0"/><stop offset="1" stop-color="#0469bb"/></linearGradient><linearGradient id="SVGID_2_" gradientUnits="userSpaceOnUse" x1="262.278" x2="213.778" xlink:href="#lg1" y1="348.049" y2="279.549"/><linearGradient id="SVGID_3_" gradientUnits="userSpaceOnUse" x1="244.732" x2="149.232" xlink:href="#lg1" y1="362.487" y2="157.487"/><linearGradient id="SVGID_4_" gradientUnits="userSpaceOnUse" x1="377.866" x2="312.532" xlink:href="#lg1" y1="330.013" y2="228.68"/><linearGradient id="SVGID_5_" gradientUnits="userSpaceOnUse" x1="413.002" x2="354.336" xlink:href="#lg1" y1="372.433" y2="332.433"/><linearGradient id="SVGID_6_" gradientUnits="userSpaceOnUse" x1="346.468" x2="299.801" xlink:href="#lg1" y1="360.614" y2="329.947"/><linearGradient id="SVGID_7_" gradientUnits="userSpaceOnUse" x1="255" x2="255" y1="376.264" y2="483.247"><stop offset="0" stop-color="#18cefb"/><stop offset="1" stop-color="#4a97f6"/></linearGradient><linearGradient id="lg2"><stop offset="0" stop-color="#4a97f6" stop-opacity="0"/><stop offset="1" stop-color="#0469bb"/></linearGradient><linearGradient id="SVGID_8_" gradientUnits="userSpaceOnUse" x1="252.966" x2="275.803" xlink:href="#lg2" y1="449.176" y2="324.114"/><linearGradient id="SVGID_9_" gradientUnits="userSpaceOnUse" x1="253.06" x2="270.953" xlink:href="#lg2" y1="471.488" y2="373.504"/><linearGradient id="SVGID_10_" gradientUnits="userSpaceOnUse" x1="414.34" x2="414.34" xlink:href="#lg2" y1="437.209" y2="374.316"/><linearGradient id="lg3"><stop offset="0" stop-color="#754c24" stop-opacity="0"/><stop offset="1" stop-color="#754c24"/></linearGradient><linearGradient id="SVGID_11_" gradientUnits="userSpaceOnUse" x1="66.014" x2="14.87" xlink:href="#lg3" y1="402.423" y2="382.753"/><linearGradient id="lg4"><stop offset="0" stop-color="#edf5ff"/><stop offset="1" stop-color="#c7e9ff"/></linearGradient><linearGradient id="SVGID_12_" gradientUnits="userSpaceOnUse" x1="144.203" x2="230.655" xlink:href="#lg4" y1="80.899" y2="167.351"/><linearGradient id="SVGID_13_" gradientUnits="userSpaceOnUse" x1="230.515" x2="266.719" xlink:href="#lg4" y1="42.931" y2="79.135"/><linearGradient id="SVGID_14_" gradientUnits="userSpaceOnUse" x1="335.232" x2="385.135" xlink:href="#lg4" y1="169.956" y2="219.86"/><linearGradient id="SVGID_15_" gradientUnits="userSpaceOnUse" x1="400.107" x2="484.992" y1="67.819" y2="152.704"><stop offset="0" stop-color="#ffd945"/><stop offset=".3043" stop-color="#ffcd3e"/><stop offset=".8558" stop-color="#ffad2b"/><stop offset="1" stop-color="#ffa325"/></linearGradient><linearGradient id="lg5"><stop offset="0" stop-color="#c6b198"/><stop offset="1" stop-color="#988575"/></linearGradient><linearGradient id="SVGID_16_" gradientUnits="userSpaceOnUse" x1="-5.169" x2="98.164" xlink:href="#lg5" y1="170.651" y2="243.318"/><linearGradient id="SVGID_17_" gradientUnits="userSpaceOnUse" x1="96.455" x2="-27.545" xlink:href="#lg3" y1="222.336" y2="261.003"/><linearGradient id="SVGID_18_" gradientUnits="userSpaceOnUse" x1="64.545" x2="-12.122" xlink:href="#lg3" y1="295.147" y2="224.481"/><linearGradient id="SVGID_19_" gradientUnits="userSpaceOnUse" x1="-11.844" x2="42.156" xlink:href="#lg5" y1="242.28" y2="302.28"/><linearGradient id="SVGID_20_" gradientUnits="userSpaceOnUse" x1="67.5" x2="9.466" xlink:href="#lg3" y1="299.11" y2="299.11"/><linearGradient id="SVGID_21_" gradientUnits="userSpaceOnUse" x1="86" x2="-8.009" xlink:href="#lg3" y1="330.29" y2="330.29"/><linearGradient id="SVGID_22_" gradientUnits="userSpaceOnUse" x1="-46.519" x2="25.481" xlink:href="#lg5" y1="275.769" y2="335.102"/><linearGradient id="SVGID_23_" gradientUnits="userSpaceOnUse" x1="82.091" x2="172.091" xlink:href="#lg5" y1="237.312" y2="312.312"/><linearGradient id="SVGID_24_" gradientUnits="userSpaceOnUse" x1="125.333" x2="39.207" xlink:href="#lg3" y1="214.721" y2="214.721"/><linearGradient id="SVGID_25_" gradientUnits="userSpaceOnUse" x1="414.34" x2="414.34" y1="354.777" y2="379.819"><stop offset="0" stop-color="#798c00"/><stop offset="1" stop-color="#1b444f"/></linearGradient><linearGradient id="SVGID_26_" gradientUnits="userSpaceOnUse" x1="410.207" x2="433.54" xlink:href="#lg5" y1="376.864" y2="410.198"/><linearGradient id="SVGID_27_" gradientUnits="userSpaceOnUse" x1="400.228" x2="486.728" xlink:href="#lg5" y1="317.712" y2="384.712"/><linearGradient id="SVGID_28_" gradientUnits="userSpaceOnUse" x1="484.386" x2="397.107" xlink:href="#lg3" y1="355.513" y2="355.513"/><linearGradient id="SVGID_29_" gradientUnits="userSpaceOnUse" x1="440.897" x2="516.897" xlink:href="#lg5" y1="346.401" y2="400.401"/><linearGradient id="SVGID_30_" gradientUnits="userSpaceOnUse" x1="160.662" x2="160.662" xlink:href="#lg2" y1="500.039" y2="380.91"/><linearGradient id="lg6"><stop offset="0" stop-color="#45a2e0" stop-opacity="0"/><stop offset="1" stop-color="#2f73a0"/></linearGradient><linearGradient id="SVGID_31_" gradientUnits="userSpaceOnUse" x1="60.441" x2="60.441" xlink:href="#lg6" y1="530.542" y2="395.15"/><linearGradient id="SVGID_32_" gradientUnits="userSpaceOnUse" x1="38.151" x2="38.151" xlink:href="#lg6" y1="535.209" y2="393.17"/><linearGradient id="SVGID_33_" gradientUnits="userSpaceOnUse" x1="22.167" x2="22.167" xlink:href="#lg6" y1="558.542" y2="416.503"/><linearGradient id="SVGID_34_" gradientUnits="userSpaceOnUse" x1="460.28" x2="460.28" xlink:href="#lg2" y1="505.709" y2="428.014"/><linearGradient id="SVGID_35_" gradientUnits="userSpaceOnUse" x1="471.833" x2="471.833" xlink:href="#lg2" y1="505.709" y2="428.014"/><linearGradient id="SVGID_36_" gradientUnits="userSpaceOnUse" x1="487.833" x2="487.833" xlink:href="#lg2" y1="516.209" y2="438.514"/><linearGradient id="SVGID_37_" gradientUnits="userSpaceOnUse" x1="76.99" x2="76.99" xlink:href="#lg2" y1="476.209" y2="411.33"/><linearGradient id="SVGID_38_" gradientUnits="userSpaceOnUse" x1="46.931" x2="74.069" y1="335.842" y2="400.698"><stop offset="0" stop-color="#bada00"/><stop offset=".2187" stop-color="#b6d600"/><stop offset=".4501" stop-color="#acc900"/><stop offset=".6873" stop-color="#9ab400"/><stop offset=".9271" stop-color="#829700"/><stop offset="1" stop-color="#798c00"/></linearGradient><g><path d="m485.638 510h-461.276c-13.455 0-24.362-10.907-24.362-24.362v-461.276c0-13.455 10.907-24.362 24.362-24.362h461.275c13.456 0 24.363 10.907 24.363 24.362v461.275c0 13.456-10.907 24.363-24.362 24.363z" fill="url(#SVGID_1_)"/><g><path d="m251.033 297.922c11.065 0 20.034 8.97 20.034 20.034v63.094h-20.034z" fill="url(#SVGID_2_)"/><path d="m236.143 224.909h-5.238c-8.223 0-14.89 6.666-14.89 14.89-9.67 0-17.509 7.839-17.509 17.509v7.448c-.589-.037-1.181-.062-1.779-.062h-8.345v116.356h10.123 26.263 26.263v-141.251c.002-8.224-6.664-14.89-14.888-14.89z" fill="url(#SVGID_3_)"/></g><g><path d="m376.94 233.308c14.555 0 26.354 11.799 26.354 26.354v10.342c11.436 1.098 20.38 10.73 20.38 22.455v112.8h-20.38-17.726-34.983v-145.596c.001-14.556 11.8-26.355 26.355-26.355z" fill="url(#SVGID_4_)"/><path d="m407.549 322.831c5.643 0 10.217 4.574 10.217 10.217v72.21h-30.652v-82.427c0-4.799 3.89-8.689 8.689-8.689h3.057c4.799 0 8.689 3.89 8.689 8.689z" fill="url(#SVGID_5_)"/><path d="m327.674 405.259h38.105v-78.669c0-10.522-8.53-19.053-19.053-19.053-10.522 0-19.053 8.53-19.053 19.053v78.669z" fill="url(#SVGID_6_)"/></g><path d="m510 485.638v-118.485h-510v118.484c0 13.456 10.907 24.363 24.362 24.363h461.275c13.456 0 24.363-10.907 24.363-24.362z" fill="url(#SVGID_7_)"/><path d="m510 485.638v-97.434h-510v97.434c0 13.455 10.907 24.362 24.362 24.362h461.275c13.456 0 24.363-10.907 24.363-24.362z" fill="url(#SVGID_8_)"/><path d="m510 485.638v-51.775h-510v51.775c0 13.455 10.907 24.362 24.362 24.362h461.275c13.456 0 24.363-10.907 24.363-24.362z" fill="url(#SVGID_9_)"/><path d="m348.681 376.479v133.521h113.319c9.941 0 18-8.059 18-18v-115.521z" fill="url(#SVGID_10_)"/><path d="m54.75 405.619h39.17v.01h-39.17z" fill="url(#SVGID_11_)"/><g><path d="m211.378 89.312h-11.748c0-14.706-11.922-26.627-26.627-26.627h-52.52c-14.706 0-26.627 11.922-26.627 26.627s11.922 26.627 26.627 26.627h11.748c0 14.706 11.922 26.627 26.627 26.627h52.52c14.706 0 26.627-11.922 26.627-26.627.001-14.705-11.921-26.627-26.627-26.627z" fill="url(#SVGID_12_)"/><path d="m256.203 68.851h-33.178c-9.29 0-16.821-7.531-16.821-16.821 0-9.29 7.531-16.821 16.821-16.821h33.178c9.29 0 16.821 7.531 16.821 16.821 0 9.29-7.531 16.821-16.821 16.821z" fill="url(#SVGID_13_)"/></g><path d="m380.181 159.788h-36.655c-6.637 0-12.273 4.268-14.323 10.208h-18.218c-8.489 0-15.37 6.882-15.37 15.37 0 8.489 6.882 15.37 15.37 15.37h6.782c0 8.489 6.882 15.37 15.37 15.37h30.317c8.489 0 15.37-6.882 15.37-15.37 0-4.133-1.634-7.882-4.288-10.644h5.645c8.368 0 15.152-6.784 15.152-15.152 0-8.368-6.784-15.152-15.152-15.152z" fill="url(#SVGID_14_)"/><circle cx="421.44" cy="89.152" fill="url(#SVGID_15_)" r="66.943"/><g><path d="m97.579 35.209c-30.391 0-55.027 24.636-55.027 55.026v21.593c-23.879 2.293-42.552 22.405-42.552 46.885v235.52h42.552 37.01 73.043v-303.998c0-30.39-24.636-55.026-55.026-55.026z" fill="url(#SVGID_16_)"/><path d="m79.562 394.233h73.043v-303.998c0-30.39-24.636-55.026-55.026-55.026-30.39 0-55.026 24.636-55.026 55.026v21.593 51.183c0 7.211 5.846 13.057 13.057 13.057 7.211 0 13.057 5.846 13.057 13.057v205.107h10.895z" fill="url(#SVGID_17_)"/><path d="m73.042 394.233h66.397v-116.11l-66.397-66.397z" fill="url(#SVGID_18_)"/><path d="m33.668 222.129c-11.782 0-21.333 9.551-21.333 21.333v150.771h64v-172.104c0-10.02-8.122-18.142-18.142-18.142h-6.383c-10.02 0-18.142 8.122-18.142 18.142z" fill="url(#SVGID_19_)"/><path d="m76.33 222.13v172.1h-12.41v-143.74c0-11.79-7.51-21.34-16.03-21.34 0-10.42.39-18.5 0-24.73 1.26-.28 2.57-.43 3.92-.43h6.38c10.02 0 18.14 8.12 18.14 18.14z" fill="url(#SVGID_20_)"/><path d="m37.661 394.233h101.778v-26.108l-101.778-101.778z" fill="url(#SVGID_21_)"/><path d="m0 252.462h10.167c18.87 0 34.167 15.297 34.167 34.167v107.604h-44.334z" fill="url(#SVGID_22_)"/><path d="m200.443 394.233h-79.562v-164.256c0-21.97 17.811-39.781 39.781-39.781 21.97 0 39.781 17.811 39.781 39.781z" fill="url(#SVGID_23_)"/><path d="m97.579 35.209c-3.577 0-7.07.353-10.456 1.005 3.271 7.039 5.108 14.879 5.108 23.153v98.093c23.879 2.292 42.552 22.405 42.552 46.884v189.889h17.822v-303.998c0-30.39-24.636-55.026-55.026-55.026z" fill="url(#SVGID_24_)"/></g><path d="m351.913 366.874c22.549-21.536 67.836-52.375 128.087-31.088v48.924h-120.967c-9.342 0-13.875-11.384-7.12-17.836z" fill="url(#SVGID_25_)"/><path d="m442.234 349.35h-7.264c-13.481 0-24.41 10.929-24.41 24.41v76.876h31.674z" fill="url(#SVGID_26_)"/><g><path d="m476.332 278.532c11.782 0 21.333 9.551 21.333 21.333v150.771h-64v-172.104c0-10.02 8.122-18.142 18.142-18.142h6.382c10.021 0 18.143 8.122 18.143 18.142z" fill="url(#SVGID_27_)"/><path d="m474.894 318.865v131.771h22.771v-150.771c0-11.782-9.551-21.333-21.333-21.333 0-10.02-8.122-18.142-18.142-18.142h-3.296v38.475c0 5.523 4.477 10 10 10 5.523 0 10 4.477 10 10z" fill="url(#SVGID_28_)"/><path d="m510 308.865h-10.167c-18.87 0-34.167 15.297-34.167 34.167v107.604h44.334z" fill="url(#SVGID_29_)"/></g><path d="m120.881 394.233h79.562v115.767h-79.562z" fill="url(#SVGID_30_)"/><path d="m79.562 394.233h-37.01-42.552v91.405c0 13.455 10.907 24.362 24.362 24.362h96.519v-115.767z" fill="url(#SVGID_31_)"/><path d="m42.552 394.233h-42.552v91.405c0 13.455 10.907 24.362 24.362 24.362h51.94v-115.767z" fill="url(#SVGID_32_)"/><path d="m0 394.233v91.405c0 13.455 10.907 24.362 24.362 24.362h19.972v-115.767z" fill="url(#SVGID_33_)"/><path d="m410.56 510h75.078c13.455 0 24.362-10.907 24.362-24.362v-35.002h-99.44z" fill="url(#SVGID_34_)"/><path d="m433.665 510h51.972c13.456 0 24.363-10.907 24.363-24.362v-35.002h-76.335z" fill="url(#SVGID_35_)"/><path d="m465.665 510h19.972c13.456 0 24.363-10.907 24.363-24.362v-35.002h-44.335z" fill="url(#SVGID_36_)"/><path d="m140.252 394.233h-140.252v91.405c0 13.455 10.907 24.362 24.362 24.362h129.618v-102.039c0-7.582-6.146-13.728-13.728-13.728z" fill="url(#SVGID_37_)"/><path d="m150.19 394.061c-26.441-25.253-79.543-61.414-150.19-36.453v57.366h141.842c10.953 0 16.269-13.348 8.348-20.913z" fill="url(#SVGID_38_)"/></g></svg>