<svg id="Capa_1" enable-background="new 0 0 510 510" height="512" viewBox="0 0 510 510" width="512" xmlns="http://www.w3.org/2000/svg" xmlns:xlink="http://www.w3.org/1999/xlink"><linearGradient id="SVGID_1_" gradientUnits="userSpaceOnUse" x1="255" x2="255" y1="34.721" y2="483.763"><stop offset="0" stop-color="#c7e9ff"/><stop offset=".3556" stop-color="#a3e6f2"/><stop offset="1" stop-color="#65e0db"/></linearGradient><linearGradient id="lg1"><stop offset="0" stop-color="#edf5ff"/><stop offset="1" stop-color="#c7e9ff"/></linearGradient><linearGradient id="SVGID_2_" gradientUnits="userSpaceOnUse" x1="94.211" x2="165.044" xlink:href="#lg1" y1="61.418" y2="132.251"/><linearGradient id="SVGID_3_" gradientUnits="userSpaceOnUse" x1="417.899" x2="476.499" xlink:href="#lg1" y1="127.555" y2="186.155"/><linearGradient id="lg2"><stop offset="0" stop-color="#ffd945"/><stop offset=".3043" stop-color="#ffcd3e"/><stop offset=".8558" stop-color="#ffad2b"/><stop offset="1" stop-color="#ffa325"/></linearGradient><linearGradient id="SVGID_4_" gradientUnits="userSpaceOnUse" x1="324.781" x2="409.667" xlink:href="#lg2" y1="56.819" y2="141.704"/><linearGradient id="lg3"><stop offset="0" stop-color="#bada00"/><stop offset=".2187" stop-color="#b6d600"/><stop offset=".4501" stop-color="#acc900"/><stop offset=".6873" stop-color="#9ab400"/><stop offset=".9271" stop-color="#829700"/><stop offset="1" stop-color="#798c00"/></linearGradient><linearGradient id="SVGID_5_" gradientUnits="userSpaceOnUse" x1="243.27" x2="258.769" xlink:href="#lg3" y1="331.092" y2="435.451"/><linearGradient id="lg4"><stop offset="0" stop-color="#e4e08e"/><stop offset="1" stop-color="#6fa953" stop-opacity="0"/></linearGradient><linearGradient id="SVGID_6_" gradientUnits="userSpaceOnUse" x1="224.065" x2="253.357" xlink:href="#lg4" y1="340.308" y2="449.616"/><linearGradient id="SVGID_7_" gradientUnits="userSpaceOnUse" x1="237.048" x2="262.996" xlink:href="#lg4" y1="403.495" y2="492.152"/><linearGradient id="lg5"><stop offset="0" stop-color="#c59b6d"/><stop offset="1" stop-color="#8b6239"/></linearGradient><linearGradient id="SVGID_8_" gradientUnits="userSpaceOnUse" x1="393.285" x2="426.868" xlink:href="#lg5" y1="354.014" y2="354.014"/><linearGradient id="SVGID_9_" gradientUnits="userSpaceOnUse" x1="401.491" x2="387.733" xlink:href="#lg5" y1="362.84" y2="362.84"/><linearGradient id="SVGID_10_" gradientUnits="userSpaceOnUse" x1="420.426" x2="397.456" xlink:href="#lg5" y1="349.35" y2="349.35"/><linearGradient id="lg6"><stop offset="0" stop-color="#754c24" stop-opacity="0"/><stop offset="1" stop-color="#754c24"/></linearGradient><linearGradient id="SVGID_11_" gradientUnits="userSpaceOnUse" x1="401.912" x2="401.912" xlink:href="#lg6" y1="358.071" y2="337.856"/><linearGradient id="lg7"><stop offset="0" stop-color="#798c00"/><stop offset="1" stop-color="#1b444f"/></linearGradient><linearGradient id="SVGID_12_" gradientUnits="userSpaceOnUse" x1="369.602" x2="400.164" xlink:href="#lg7" y1="290.05" y2="315.518"/><linearGradient id="lg8"><stop offset="0" stop-color="#1b444f" stop-opacity="0"/><stop offset="1" stop-color="#1b444f"/></linearGradient><linearGradient id="SVGID_13_" gradientUnits="userSpaceOnUse" x1="407.369" x2="407.369" xlink:href="#lg8" y1="334.402" y2="304.078"/><linearGradient id="SVGID_14_" gradientUnits="userSpaceOnUse" x1="377.985" x2="405.491" xlink:href="#lg7" y1="270.558" y2="297.045"/><linearGradient id="SVGID_15_" gradientUnits="userSpaceOnUse" x1="407.925" x2="407.925" xlink:href="#lg8" y1="300.949" y2="273.9"/><linearGradient id="SVGID_16_" gradientUnits="userSpaceOnUse" x1="369.752" x2="407.191" xlink:href="#lg7" y1="231.009" y2="275.069"/><linearGradient id="lg9"><stop offset="0" stop-color="#ff7044"/><stop offset="1" stop-color="#f82814"/></linearGradient><linearGradient id="SVGID_17_" gradientUnits="userSpaceOnUse" x1="149.644" x2="286.597" xlink:href="#lg9" y1="207.731" y2="344.685"/><linearGradient id="SVGID_18_" gradientUnits="userSpaceOnUse" x1="168.826" x2="280.845" xlink:href="#lg2" y1="267" y2="379.019"/><linearGradient id="SVGID_19_" gradientUnits="userSpaceOnUse" x1="257.679" x2="63.998" y1="240.406" y2="170.196"><stop offset="0" stop-color="#843561" stop-opacity="0"/><stop offset="1" stop-color="#3a2f4d"/></linearGradient><linearGradient id="lg10"><stop offset="0" stop-color="#f82814" stop-opacity="0"/><stop offset="1" stop-color="#c0272d"/></linearGradient><linearGradient id="SVGID_20_" gradientUnits="userSpaceOnUse" x1="315.912" x2="277.175" xlink:href="#lg10" y1="264.658" y2="318.728"/><linearGradient id="SVGID_21_" gradientUnits="userSpaceOnUse" x1="254.559" x2="254.559" y1="454.835" y2="309.673"><stop offset="0" stop-color="#843561" stop-opacity="0"/><stop offset=".1091" stop-color="#79345e" stop-opacity=".109"/><stop offset=".4851" stop-color="#573155" stop-opacity=".485"/><stop offset=".7955" stop-color="#42304f" stop-opacity=".796"/><stop offset="1" stop-color="#3a2f4d"/></linearGradient><linearGradient id="SVGID_22_" gradientUnits="userSpaceOnUse" x1="184.44" x2="236.595" xlink:href="#lg9" y1="288.863" y2="341.018"/><linearGradient id="SVGID_23_" gradientUnits="userSpaceOnUse" x1="321.591" x2="350.038" xlink:href="#lg9" y1="284.211" y2="379.841"/><linearGradient id="SVGID_24_" gradientUnits="userSpaceOnUse" x1="332.505" x2="339.768" xlink:href="#lg10" y1="325.133" y2="190.161"/><linearGradient id="SVGID_25_" gradientUnits="userSpaceOnUse" x1="174.444" x2="198.654" xlink:href="#lg10" y1="331.514" y2="219.542"/><linearGradient id="SVGID_26_" gradientUnits="userSpaceOnUse" x1="48.365" x2="98.934" xlink:href="#lg5" y1="350.607" y2="350.607"/><linearGradient id="SVGID_27_" gradientUnits="userSpaceOnUse" x1="60.721" x2="40.005" xlink:href="#lg5" y1="364.137" y2="364.137"/><linearGradient id="SVGID_28_" gradientUnits="userSpaceOnUse" x1="89.235" x2="54.645" xlink:href="#lg5" y1="343.458" y2="343.458"/><linearGradient id="SVGID_29_" gradientUnits="userSpaceOnUse" x1="61.355" x2="61.355" xlink:href="#lg6" y1="356.826" y2="325.838"/><linearGradient id="SVGID_30_" gradientUnits="userSpaceOnUse" x1="22.142" x2="111.146" xlink:href="#lg7" y1="262.864" y2="324.883"/><linearGradient id="SVGID_31_" gradientUnits="userSpaceOnUse" x1="69.572" x2="69.572" xlink:href="#lg8" y1="320.544" y2="274.061"/><linearGradient id="SVGID_32_" gradientUnits="userSpaceOnUse" x1="29.211" x2="102.169" xlink:href="#lg7" y1="229.99" y2="280.827"/><linearGradient id="SVGID_33_" gradientUnits="userSpaceOnUse" x1="70.41" x2="70.41" xlink:href="#lg8" y1="269.264" y2="227.801"/><linearGradient id="SVGID_34_" gradientUnits="userSpaceOnUse" x1="34.88" x2="94.972" xlink:href="#lg7" y1="193.408" y2="235.28"/><linearGradient id="SVGID_35_" gradientUnits="userSpaceOnUse" x1="441.024" x2="484.988" xlink:href="#lg5" y1="349.198" y2="349.198"/><linearGradient id="SVGID_36_" gradientUnits="userSpaceOnUse" x1="451.766" x2="433.756" xlink:href="#lg5" y1="360.951" y2="360.951"/><linearGradient id="SVGID_37_" gradientUnits="userSpaceOnUse" x1="476.556" x2="446.483" xlink:href="#lg5" y1="342.987" y2="342.987"/><linearGradient id="SVGID_38_" gradientUnits="userSpaceOnUse" x1="452.317" x2="452.317" xlink:href="#lg6" y1="354.6" y2="327.682"/><linearGradient id="SVGID_39_" gradientUnits="userSpaceOnUse" x1="418.243" x2="495.591" xlink:href="#lg7" y1="272.982" y2="326.879"/><linearGradient id="SVGID_40_" gradientUnits="userSpaceOnUse" x1="459.461" x2="459.461" xlink:href="#lg8" y1="323.082" y2="282.704"/><linearGradient id="SVGID_41_" gradientUnits="userSpaceOnUse" x1="424.386" x2="487.789" xlink:href="#lg7" y1="244.424" y2="288.604"/><linearGradient id="SVGID_42_" gradientUnits="userSpaceOnUse" x1="460.19" x2="460.19" xlink:href="#lg8" y1="278.537" y2="242.519"/><linearGradient id="SVGID_43_" gradientUnits="userSpaceOnUse" x1="429.312" x2="481.534" xlink:href="#lg7" y1="212.646" y2="249.035"/><linearGradient id="SVGID_44_" gradientUnits="userSpaceOnUse" x1="60.698" x2="124.162" xlink:href="#lg5" y1="467.541" y2="467.541"/><linearGradient id="SVGID_45_" gradientUnits="userSpaceOnUse" x1="76.205" x2="50.206" xlink:href="#lg5" y1="484.222" y2="484.222"/><linearGradient id="SVGID_46_" gradientUnits="userSpaceOnUse" x1="111.99" x2="68.579" xlink:href="#lg5" y1="458.727" y2="458.727"/><linearGradient id="SVGID_47_" gradientUnits="userSpaceOnUse" x1="77" x2="77" xlink:href="#lg6" y1="500.203" y2="461.999"/><linearGradient id="SVGID_48_" gradientUnits="userSpaceOnUse" x1="28.324" x2="139.04" xlink:href="#lg3" y1="384.499" y2="461.646"/><linearGradient id="lg11"><stop offset="0" stop-color="#43765a" stop-opacity="0"/><stop offset="1" stop-color="#43765a"/></linearGradient><linearGradient id="SVGID_49_" gradientUnits="userSpaceOnUse" x1="87.313" x2="87.313" xlink:href="#lg11" y1="455.472" y2="398.166"/><linearGradient id="SVGID_50_" gradientUnits="userSpaceOnUse" x1="37.1" x2="127.855" xlink:href="#lg3" y1="343.945" y2="407.184"/><linearGradient id="SVGID_51_" gradientUnits="userSpaceOnUse" x1="88.365" x2="88.365" xlink:href="#lg11" y1="392.251" y2="341.134"/><linearGradient id="SVGID_52_" gradientUnits="userSpaceOnUse" x1="44.136" x2="118.887" xlink:href="#lg3" y1="298.825" y2="350.912"/><linearGradient id="SVGID_53_" gradientUnits="userSpaceOnUse" x1="436.7" x2="486.559" xlink:href="#lg5" y1="447.581" y2="447.581"/><linearGradient id="SVGID_54_" gradientUnits="userSpaceOnUse" x1="448.882" x2="428.457" xlink:href="#lg5" y1="460.685" y2="460.685"/><linearGradient id="SVGID_55_" gradientUnits="userSpaceOnUse" x1="476.995" x2="442.891" xlink:href="#lg5" y1="440.657" y2="440.657"/><linearGradient id="SVGID_56_" gradientUnits="userSpaceOnUse" x1="449.507" x2="449.507" xlink:href="#lg6" y1="473.24" y2="443.227"/><linearGradient id="SVGID_57_" gradientUnits="userSpaceOnUse" x1="411.266" x2="498.246" xlink:href="#lg3" y1="382.341" y2="442.95"/><linearGradient id="SVGID_58_" gradientUnits="userSpaceOnUse" x1="457.609" x2="457.609" xlink:href="#lg11" y1="438.099" y2="393.078"/><linearGradient id="SVGID_59_" gradientUnits="userSpaceOnUse" x1="418.161" x2="489.459" xlink:href="#lg3" y1="350.482" y2="400.163"/><linearGradient id="SVGID_60_" gradientUnits="userSpaceOnUse" x1="458.435" x2="458.435" xlink:href="#lg11" y1="388.432" y2="348.273"/><linearGradient id="SVGID_61_" gradientUnits="userSpaceOnUse" x1="423.689" x2="482.414" xlink:href="#lg3" y1="315.035" y2="355.955"/><linearGradient id="SVGID_62_" gradientUnits="userSpaceOnUse" x1="411.447" x2="450.635" xlink:href="#lg7" y1="470.698" y2="509.887"/><linearGradient id="SVGID_63_" gradientUnits="userSpaceOnUse" x1="426.562" x2="451.776" xlink:href="#lg8" y1="475.845" y2="470.718"/><linearGradient id="SVGID_64_" gradientUnits="userSpaceOnUse" x1="431.671" x2="431.671" xlink:href="#lg8" y1="500.095" y2="511.784"/><g><path d="m485.638 510h-461.276c-13.455 0-24.362-10.907-24.362-24.362v-461.276c0-13.455 10.907-24.362 24.362-24.362h461.275c13.456 0 24.363 10.907 24.363 24.362v461.275c0 13.456-10.907 24.363-24.362 24.363z" fill="url(#SVGID_1_)"/><path d="m158.012 46.985h-52.028c-9.42 0-17.42 6.059-20.33 14.49h-25.858c-12.049 0-21.817 9.768-21.817 21.817s9.768 21.817 21.817 21.817h9.626c0 12.049 9.768 21.817 21.817 21.817h43.032c12.049 0 21.817-9.768 21.817-21.817 0-5.866-2.32-11.187-6.086-15.108h8.012c11.878 0 21.507-9.629 21.507-21.507-.002-11.88-9.631-21.509-21.509-21.509z" fill="url(#SVGID_2_)"/><path d="m463.433 133.258h-7.964c0-9.968-8.081-18.049-18.049-18.049h-35.6c-9.968 0-18.049 8.081-18.049 18.049s8.081 18.049 18.049 18.049h7.963c0 9.968 8.081 18.049 18.049 18.049h35.6c9.968 0 18.049-8.081 18.049-18.049 0-9.968-8.08-18.049-18.048-18.049z" fill="url(#SVGID_3_)"/><circle cx="346.114" cy="78.152" fill="url(#SVGID_4_)" r="66.943"/><path d="m510 485.638v-152.944h-510v152.944c0 13.455 10.907 24.362 24.362 24.362h461.275c13.456 0 24.363-10.907 24.363-24.362z" fill="url(#SVGID_5_)"/><path d="m510 485.638v-63.011h-287.867c-2.142-2.244-5.155-3.649-8.502-3.649-1.275 0-2.503.204-3.652.579-1.23-4.013-4.964-6.93-9.379-6.93-1.47 0-2.859.332-4.111.912-3.291-6.511-10.025-10.985-17.82-10.985-2.166 0-4.25.346-6.203.983-2.089-6.814-8.429-11.769-15.928-11.769-9.2 0-16.657 7.458-16.657 16.657 0 1.329.157 2.622.451 3.861-6.219.438-11.388 4.642-13.273 10.341h-127.059v63.011c0 13.455 10.907 24.362 24.362 24.362h461.275c13.456 0 24.363-10.907 24.363-24.362z" fill="url(#SVGID_6_)"/><path d="m510 485.638v-45.126h-127.059c-1.885-5.699-7.053-9.902-13.273-10.341.294-1.239.451-2.532.451-3.861 0-9.2-7.458-16.657-16.657-16.657-7.499 0-13.839 4.955-15.928 11.769-1.953-.637-4.037-.983-6.203-.983-7.794 0-14.528 4.474-17.82 10.985-1.252-.579-2.641-.912-4.111-.912-4.416 0-8.149 2.918-9.379 6.93-1.15-.375-2.377-.579-3.652-.579-3.347 0-6.36 1.405-8.502 3.649h-287.867v45.126c0 13.455 10.907 24.362 24.362 24.362h461.275c13.456 0 24.363-10.907 24.363-24.362z" fill="url(#SVGID_7_)"/><g><g><path d="m391.943 331.547h19.938v44.934h-19.938z" fill="url(#SVGID_8_)"/><path d="m400.649 376.481h-6.312v-24.125c0-1.743 1.413-3.156 3.156-3.156 1.743 0 3.156 1.413 3.156 3.156z" fill="url(#SVGID_9_)"/><path d="m403.384 346.815c1.511 0 2.735 1.225 2.735 2.735v14.868c0 1.511 1.225 2.735 2.735 2.735h.291c1.511 0 2.735-1.225 2.735-2.735v-32.872h-11.231v12.533c0 1.512 1.225 2.736 2.735 2.736z" fill="url(#SVGID_10_)"/></g><path d="m411.88 331.549v31.707l-19.807-19.807-.13 1.712v-13.612z" fill="url(#SVGID_11_)"/><g><path d="m439.644 320.385-31.713-48.373c-2.842-4.335-9.197-4.335-12.039 0l-30.849 47.055-1.792 2.592c-1.516 2.124-2.314 4.796-2.026 7.665.524 5.219 4.735 9.457 9.951 10.009 1.978.209 3.863-.097 5.542-.8 2.522-1.056 5.431-.413 7.342 1.542 2.035 2.081 4.871 3.374 8.013 3.374 2.288 0 4.416-.685 6.19-1.861 2.204-1.46 5.091-1.46 7.296 0 1.774 1.176 3.902 1.861 6.19 1.861 3.142 0 5.979-1.292 8.013-3.374 1.911-1.955 4.821-2.598 7.342-1.542 1.678.703 3.564 1.009 5.542.8 5.216-.552 9.427-4.789 9.951-10.009.3-2.989-.578-5.763-2.219-7.928-.251-.332-.505-.662-.734-1.011z" fill="url(#SVGID_12_)"/><path d="m442.598 329.323c-.526 5.222-4.734 9.459-9.952 10.011-1.978.21-3.863-.097-5.542-.799-2.521-1.056-5.432-.412-7.343 1.54-2.032 2.083-4.869 3.375-8.012 3.375-2.289 0-4.414-.686-6.19-1.86-.177-.118-.362-.227-.547-.328l-32.931-32.931 23.808-36.319c2.845-4.334 9.199-4.334 12.043 0l31.711 48.374c.227.349.484.678.736 1.01 1.642 2.166 2.518 4.939 2.219 7.927z" fill="url(#SVGID_13_)"/><path d="m432.841 294.682-25.995-39.652c-2.33-3.554-7.539-3.554-9.869 0l-25.287 38.572-1.469 2.125c-1.243 1.741-1.897 3.931-1.661 6.284.43 4.278 3.881 7.752 8.157 8.204 1.621.172 3.167-.079 4.543-.656 2.067-.866 4.452-.339 6.018 1.264 1.668 1.706 3.993 2.766 6.569 2.766 1.876 0 3.62-.561 5.074-1.525 1.807-1.197 4.173-1.197 5.98 0 1.454.964 3.199 1.525 5.074 1.525 2.576 0 4.901-1.059 6.569-2.766 1.567-1.603 3.951-2.13 6.018-1.264 1.376.576 2.921.827 4.543.656 4.276-.453 7.727-3.926 8.157-8.204.246-2.45-.474-4.724-1.819-6.499-.206-.273-.414-.544-.602-.83z" fill="url(#SVGID_14_)"/><path d="m435.264 302.009c-.429 4.279-3.884 7.751-8.159 8.205-1.62.172-3.164-.08-4.54-.656-2.066-.867-4.452-.337-6.022 1.262-.892.913-1.969 1.641-3.173 2.117l-32.83-32.834 16.436-25.071c2.331-3.556 7.541-3.556 9.872 0l25.992 39.651c.189.286.396.555.602.829 1.346 1.772 2.066 4.048 1.822 6.497z" fill="url(#SVGID_15_)"/><path d="m427.387 267.404-21.411-32.66c-1.919-2.927-6.209-2.927-8.128 0l-20.828 31.77-1.21 1.75c-1.024 1.434-1.563 3.238-1.368 5.175.354 3.524 3.197 6.385 6.719 6.757 1.336.141 2.608-.065 3.742-.54 1.703-.713 3.667-.279 4.957 1.041 1.374 1.405 3.289 2.278 5.41 2.278 1.545 0 2.981-.462 4.179-1.256 1.488-.986 3.438-.986 4.926 0 1.198.794 2.634 1.256 4.179 1.256 2.122 0 4.037-.873 5.41-2.278 1.29-1.32 3.255-1.754 4.957-1.041 1.133.475 2.406.682 3.742.54 3.522-.373 6.365-3.234 6.719-6.757.203-2.018-.39-3.891-1.498-5.353-.171-.223-.343-.446-.497-.682z" fill="url(#SVGID_16_)"/></g></g><g><path d="m411.789 376.481-129.873-253.824c-12.708-24.837-41.123-24.837-53.831 0l-129.874 253.824z" fill="url(#SVGID_17_)"/><path d="m98.211 376.481h313.578l-48.84-95.453h-215.898z" fill="url(#SVGID_18_)"/><path d="m255 104.029v272.452h156.789l-129.873-253.824c-6.355-12.419-16.635-18.628-26.916-18.628z" fill="url(#SVGID_19_)"/><path d="m255 104.029v139.939c0 73.185 59.328 132.514 132.514 132.514h24.275l-129.873-253.825c-6.355-12.419-16.635-18.628-26.916-18.628z" fill="url(#SVGID_20_)"/><path d="m377.261 376.481c-99.867 0-122.261-174.877-122.261-174.877s-20.579 174.877-122.261 174.877c-41.763 0 280.838 0 244.522 0z" fill="url(#SVGID_21_)"/><path d="m255 185.576v67.672c0 68.06-55.173 123.233-123.233 123.233h-33.556s156.789-81.364 156.789-190.905z" fill="url(#SVGID_22_)"/><path d="m255 185.576v67.672c0 68.06 55.173 123.233 123.233 123.233h33.556s-156.789-81.364-156.789-190.905z" fill="url(#SVGID_23_)"/><g><path d="m411.785 376.479h-33.555c-68.058 0-123.23-55.172-123.23-123.23v-12.456c0 45.611 37.229 84.124 88.245 96.424 25.842 6.231 49.516 19.332 67.87 38.56z" fill="url(#SVGID_24_)"/><path d="m255 240.793v12.456c0 68.058-55.172 123.23-123.23 123.23h-33.555l.67-.702c18.354-19.229 42.028-32.33 67.87-38.56 51.016-12.301 88.245-50.814 88.245-96.424z" fill="url(#SVGID_25_)"/></g></g><g><g><path d="m46.343 316.167h30.023v68.879h-30.023z" fill="url(#SVGID_26_)"/><path d="m59.454 385.046h-9.505v-37.067c0-2.625 2.128-4.752 4.752-4.752 2.625 0 4.752 2.128 4.752 4.752v37.067z" fill="url(#SVGID_27_)"/><path d="m63.572 339.572c2.275 0 4.119 1.877 4.119 4.193v22.791c0 2.316 1.844 4.193 4.119 4.193h.438c2.275 0 4.119-1.877 4.119-4.193v-50.388h-16.913v19.212c0 2.315 1.844 4.192 4.118 4.192z" fill="url(#SVGID_28_)"/></g><path d="m76.365 316.17v48.603l-29.825-30.361-.196 2.625v-20.867z" fill="url(#SVGID_29_)"/><g><path d="m118.173 299.057-47.754-74.151c-4.28-6.646-13.849-6.646-18.129 0l-46.453 72.131-2.698 3.973c-2.283 3.257-3.485 7.352-3.051 11.75.79 8 7.13 14.496 14.985 15.342 2.979.321 5.818-.149 8.345-1.226 3.797-1.619 8.178-.633 11.056 2.364 3.064 3.191 7.335 5.172 12.067 5.172 3.446 0 6.65-1.05 9.321-2.852 3.319-2.239 7.667-2.239 10.986 0 2.672 1.802 5.876 2.852 9.321 2.852 4.732 0 9.003-1.981 12.067-5.172 2.878-2.997 7.259-3.983 11.056-2.364 2.527 1.078 5.366 1.547 8.345 1.226 7.855-.846 14.195-7.342 14.985-15.342.452-4.582-.871-8.834-3.342-12.153-.38-.509-.763-1.015-1.107-1.55z" fill="url(#SVGID_30_)"/><path d="m122.621 312.758c-.792 8.005-7.128 14.5-14.986 15.345-2.978.323-5.817-.148-8.345-1.225-3.795-1.619-8.18-.632-11.057 2.361-3.06 3.193-7.331 5.173-12.064 5.173-3.447 0-6.647-1.051-9.321-2.851-.266-.181-.545-.348-.824-.503l-49.589-50.48 35.851-55.673c4.283-6.644 13.851-6.644 18.135 0l47.751 74.153c.342.535.729 1.039 1.109 1.548 2.472 3.322 3.79 7.572 3.34 12.152z" fill="url(#SVGID_31_)"/><path d="m107.929 259.658-39.145-60.783c-3.508-5.447-11.352-5.447-14.86 0l-38.078 59.126-2.212 3.257c-1.872 2.669-2.857 6.026-2.501 9.632.647 6.558 5.845 11.882 12.283 12.576 2.442.263 4.769-.122 6.84-1.005 3.113-1.327 6.704-.519 9.063 1.938 2.512 2.615 6.012 4.24 9.891 4.24 2.825 0 5.451-.861 7.641-2.338 2.721-1.835 6.285-1.835 9.005 0 2.19 1.477 4.816 2.338 7.641 2.338 3.879 0 7.38-1.624 9.891-4.24 2.359-2.457 5.95-3.265 9.063-1.938 2.072.883 4.399 1.268 6.84 1.005 6.439-.694 11.636-6.018 12.283-12.576.371-3.756-.714-7.242-2.739-9.962-.31-.417-.624-.832-.906-1.27z" fill="url(#SVGID_32_)"/><path d="m111.577 270.889c-.646 6.56-5.848 11.881-12.286 12.578-2.439.264-4.765-.123-6.837-1.006-3.111-1.329-6.704-.516-9.067 1.935-1.343 1.4-2.965 2.516-4.778 3.245l-49.437-50.332 24.75-38.431c3.51-5.451 11.355-5.451 14.865 0l39.14 60.781c.285.439.596.851.906 1.271 2.028 2.716 3.111 6.205 2.744 9.959z" fill="url(#SVGID_33_)"/><path d="m99.716 217.844-32.242-50.064c-2.89-4.487-9.35-4.487-12.24 0l-31.363 48.7-1.822 2.683c-1.542 2.199-2.353 4.964-2.06 7.933.533 5.402 4.814 9.787 10.117 10.358 2.011.217 3.928-.1 5.634-.828 2.564-1.093 5.522-.428 7.465 1.596 2.069 2.154 4.952 3.492 8.147 3.492 2.326 0 4.49-.709 6.294-1.926 2.241-1.512 5.176-1.512 7.417 0 1.804 1.217 3.967 1.926 6.294 1.926 3.195 0 6.078-1.338 8.147-3.492 1.943-2.023 4.901-2.689 7.465-1.596 1.706.728 3.623 1.045 5.634.828 5.303-.571 9.584-4.957 10.117-10.358.305-3.093-.588-5.965-2.256-8.205-.257-.344-.516-.686-.748-1.047z" fill="url(#SVGID_34_)"/></g></g><g><g><path d="m439.266 319.281h26.102v59.834h-26.102z" fill="url(#SVGID_35_)"/><path d="m450.664 379.114h-8.263v-32.196c0-2.282 1.85-4.132 4.132-4.132 2.282 0 4.132 1.85 4.132 4.132v32.196z" fill="url(#SVGID_36_)"/><path d="m454.245 339.612c1.978 0 3.581 1.631 3.581 3.642v19.798c0 2.011 1.603 3.642 3.581 3.642h.381c1.978 0 3.581-1.631 3.581-3.642v-43.771h-14.704v16.689c-.001 2.011 1.602 3.642 3.58 3.642z" fill="url(#SVGID_37_)"/></g><path d="m465.367 319.283v42.221l-25.93-26.375-.17 2.281v-18.127z" fill="url(#SVGID_38_)"/><g><path d="m501.715 304.418-41.517-64.413c-3.721-5.773-12.04-5.773-15.761 0l-40.386 62.658-2.346 3.451c-1.985 2.829-3.03 6.386-2.653 10.207.686 6.95 6.199 12.592 13.028 13.327 2.59.279 5.058-.129 7.255-1.065 3.301-1.407 7.11-.55 9.612 2.053 2.664 2.772 6.377 4.493 10.491 4.493 2.996 0 5.781-.912 8.104-2.478 2.886-1.945 6.665-1.945 9.551 0 2.323 1.566 5.108 2.478 8.104 2.478 4.114 0 7.827-1.721 10.491-4.493 2.502-2.603 6.311-3.46 9.612-2.053 2.197.936 4.665 1.344 7.255 1.065 6.829-.735 12.341-6.378 13.028-13.327.393-3.98-.757-7.674-2.906-10.557-.33-.442-.663-.882-.962-1.346z" fill="url(#SVGID_39_)"/><path d="m505.582 316.319c-.689 6.954-6.197 12.596-13.028 13.33-2.589.28-5.057-.129-7.255-1.065-3.3-1.406-7.112-.549-9.613 2.051-2.661 2.774-6.374 4.494-10.489 4.494-2.997 0-5.779-.913-8.103-2.477-.231-.157-.474-.303-.716-.437l-43.112-43.851 31.169-48.361c3.724-5.771 12.042-5.771 15.766 0l41.514 64.414c.298.465.634.902.964 1.345 2.148 2.887 3.294 6.579 2.903 10.557z" fill="url(#SVGID_40_)"/><path d="m492.809 270.193-34.032-52.8c-3.05-4.732-9.87-4.732-12.92 0l-33.105 51.362-1.923 2.829c-1.627 2.319-2.484 5.235-2.174 8.367.563 5.697 5.081 10.322 10.679 10.925 2.123.229 4.146-.106 5.947-.873 2.706-1.153 5.828-.451 7.879 1.683 2.184 2.272 5.227 3.683 8.599 3.683 2.456 0 4.739-.748 6.643-2.031 2.365-1.594 5.464-1.594 7.829 0 1.904 1.283 4.187 2.031 6.643 2.031 3.372 0 6.416-1.411 8.599-3.683 2.051-2.134 5.173-2.836 7.879-1.683 1.801.767 3.824 1.102 5.947.873 5.598-.603 10.116-5.228 10.679-10.925.322-3.263-.62-6.291-2.382-8.654-.269-.363-.542-.724-.787-1.104z" fill="url(#SVGID_41_)"/><path d="m495.98 279.949c-.562 5.698-5.085 10.321-10.682 10.926-2.121.23-4.143-.106-5.944-.874-2.705-1.154-5.828-.448-7.883 1.681-1.168 1.216-2.578 2.185-4.154 2.818l-42.98-43.722 21.517-33.384c3.052-4.735 9.872-4.735 12.924 0l34.028 52.799c.248.381.518.74.788 1.104 1.763 2.36 2.705 5.391 2.386 8.652z" fill="url(#SVGID_42_)"/><path d="m485.668 233.87-28.031-43.489c-2.512-3.898-8.129-3.898-10.641 0l-27.267 42.304-1.584 2.33c-1.34 1.91-2.046 4.312-1.791 6.892.463 4.692 4.185 8.502 8.796 8.998 1.748.188 3.415-.087 4.898-.719 2.229-.95 4.8-.371 6.49 1.386 1.798 1.871 4.305 3.033 7.083 3.033 2.023 0 3.903-.616 5.472-1.673 1.948-1.313 4.5-1.313 6.448 0 1.568 1.057 3.449 1.673 5.472 1.673 2.778 0 5.284-1.162 7.083-3.033 1.689-1.758 4.261-2.336 6.49-1.386 1.483.632 3.15.907 4.898.719 4.611-.496 8.332-4.306 8.796-8.998.265-2.687-.511-5.181-1.962-7.128-.223-.298-.448-.596-.65-.909z" fill="url(#SVGID_43_)"/></g></g><g><g><path d="m58.16 425.082h37.679v84.918h-37.679z" fill="url(#SVGID_44_)"/><path d="m74.614 510h-11.928v-45.593c0-3.294 2.67-5.964 5.964-5.964 3.294 0 5.964 2.67 5.964 5.964z" fill="url(#SVGID_45_)"/><path d="m79.783 453.937c2.855 0 5.169 2.314 5.169 5.169v28.098c0 2.855 2.314 5.169 5.169 5.169h.549c2.855 0 5.169-2.314 5.169-5.169v-62.121h-21.225v23.686c0 2.854 2.314 5.168 5.169 5.168z" fill="url(#SVGID_46_)"/></g><path d="m95.839 450.08v59.92l-37.431-37.431-.246 3.236v-25.725z" fill="url(#SVGID_47_)"/><g><path d="m148.308 428.982-59.932-91.417c-5.371-8.193-17.381-8.193-22.752 0l-58.298 88.926-3.387 4.898c-2.866 4.015-4.374 9.064-3.829 14.486.991 9.863 8.948 17.871 18.806 18.914 3.738.396 7.301-.183 10.473-1.512 4.765-1.996 10.264-.781 13.875 2.914 3.845 3.934 9.205 6.376 15.144 6.376 4.324 0 8.345-1.294 11.699-3.516 4.165-2.76 9.622-2.76 13.787 0 3.353 2.222 7.374 3.516 11.699 3.516 5.938 0 11.299-2.443 15.144-6.376 3.612-3.695 9.11-4.911 13.875-2.914 3.172 1.329 6.735 1.908 10.473 1.512 9.858-1.043 17.815-9.051 18.806-18.914.567-5.649-1.093-10.892-4.194-14.983-.477-.627-.957-1.251-1.389-1.91z" fill="url(#SVGID_48_)"/><path d="m153.89 445.873c-.994 9.869-8.946 17.877-18.807 18.918-3.738.398-7.3-.183-10.473-1.511-4.763-1.996-10.266-.779-13.877 2.91-3.841 3.936-9.201 6.378-15.141 6.378-4.326 0-8.342-1.296-11.698-3.515-.334-.223-.684-.429-1.034-.62l-62.233-62.233 44.994-68.636c5.376-8.191 17.384-8.191 22.759 0l59.928 91.419c.429.66.915 1.28 1.392 1.909 3.101 4.095 4.755 9.335 4.19 14.981z" fill="url(#SVGID_49_)"/><path d="m135.452 380.409-49.127-74.936c-4.403-6.716-14.247-6.716-18.65 0l-47.788 72.894-2.776 4.015c-2.349 3.291-3.585 7.43-3.139 11.875.812 8.085 7.335 14.649 15.416 15.504 3.064.324 5.985-.15 8.585-1.239 3.906-1.637 8.413-.64 11.374 2.389 3.152 3.224 7.546 5.227 12.414 5.227 3.545 0 6.841-1.061 9.589-2.882 3.414-2.262 7.887-2.262 11.302 0 2.749 1.821 6.045 2.882 9.589 2.882 4.868 0 9.262-2.002 12.414-5.227 2.961-3.029 7.468-4.025 11.374-2.389 2.6 1.089 5.52 1.564 8.585 1.239 8.081-.855 14.603-7.419 15.416-15.504.465-4.63-.896-8.928-3.438-12.282-.392-.514-.786-1.026-1.14-1.566z" fill="url(#SVGID_50_)"/><path d="m140.03 394.255c-.811 8.087-7.34 14.648-15.419 15.507-3.062.326-5.98-.151-8.58-1.241-3.905-1.638-8.413-.636-11.38 2.386-1.686 1.726-3.722 3.101-5.996 4l-62.043-62.051 31.061-47.379c4.406-6.72 14.25-6.72 18.656 0l49.121 74.934c.358.541.748 1.05 1.137 1.567 2.544 3.347 3.904 7.649 3.443 12.277z" fill="url(#SVGID_51_)"/><path d="m125.145 328.858-40.464-61.721c-3.626-5.532-11.735-5.532-15.361 0l-39.361 60.039-2.286 3.307c-1.935 2.711-2.953 6.119-2.585 9.781.669 6.659 6.041 12.066 12.697 12.77 2.524.267 4.93-.124 7.071-1.021 3.217-1.348 6.93-.527 9.368 1.967 2.596 2.656 6.215 4.305 10.225 4.305 2.92 0 5.634-.874 7.898-2.374 2.812-1.863 6.496-1.863 9.309 0 2.264 1.5 4.979 2.374 7.898 2.374 4.009 0 7.628-1.649 10.225-4.305 2.438-2.495 6.151-3.315 9.368-1.967 2.141.897 4.547 1.288 7.071 1.021 6.656-.704 12.028-6.111 12.697-12.77.383-3.814-.738-7.354-2.832-10.116-.322-.423-.647-.845-.938-1.29z" fill="url(#SVGID_52_)"/></g></g><g><g><path d="m434.706 414.224h29.601v66.713h-29.601z" fill="url(#SVGID_53_)"/><path d="m447.633 480.937h-9.371v-35.818c0-2.588 2.098-4.686 4.686-4.686 2.588 0 4.686 2.098 4.686 4.686v35.818z" fill="url(#SVGID_54_)"/><path d="m451.693 436.893c2.243 0 4.061 1.818 4.061 4.061v22.074c0 2.243 1.818 4.061 4.061 4.061h.432c2.243 0 4.061-1.818 4.061-4.061v-48.804h-16.675v18.608c0 2.243 1.818 4.061 4.06 4.061z" fill="url(#SVGID_55_)"/></g><path d="m464.307 433.863v47.074l-29.406-29.406-.194 2.542v-20.21z" fill="url(#SVGID_56_)"/><g><path d="m505.528 417.288-47.083-71.818c-4.22-6.437-13.655-6.437-17.874 0l-45.8 69.862-2.66 3.848c-2.251 3.154-3.436 7.121-3.008 11.381.778 7.749 7.03 14.04 14.774 14.859 2.937.311 5.736-.144 8.228-1.188 3.744-1.568 8.063-.613 10.901 2.289 3.021 3.09 7.232 5.009 11.897 5.009 3.397 0 6.556-1.017 9.191-2.762 3.272-2.168 7.559-2.168 10.831 0 2.634 1.746 5.793 2.762 9.191 2.762 4.665 0 8.876-1.919 11.897-5.009 2.837-2.903 7.157-3.858 10.901-2.289 2.492 1.044 5.291 1.499 8.228 1.188 7.744-.82 13.996-7.111 14.774-14.859.446-4.438-.858-8.557-3.295-11.771-.376-.494-.754-.984-1.093-1.502z" fill="url(#SVGID_57_)"/><path d="m509.913 430.558c-.781 7.753-7.028 14.044-14.775 14.863-2.936.312-5.735-.144-8.228-1.187-3.742-1.568-8.065-.612-10.902 2.286-3.017 3.092-7.228 5.01-11.895 5.01-3.399 0-6.554-1.018-9.19-2.761-.262-.175-.537-.337-.812-.487l-48.891-48.892 35.348-53.921c4.223-6.435 13.657-6.435 17.88 0l47.08 71.82c.337.519.718 1.006 1.093 1.499 2.436 3.217 3.736 7.334 3.292 11.77z" fill="url(#SVGID_58_)"/><path d="m495.428 379.128-38.595-58.871c-3.459-5.276-11.193-5.276-14.652 0l-37.543 57.267-2.181 3.154c-1.845 2.586-2.817 5.837-2.466 9.329.638 6.352 5.762 11.509 12.111 12.181 2.407.255 4.702-.118 6.744-.974 3.069-1.286 6.61-.503 8.935 1.877 2.476 2.533 5.928 4.106 9.752 4.106 2.785 0 5.374-.834 7.534-2.264 2.682-1.777 6.196-1.777 8.879 0 2.159 1.431 4.749 2.264 7.534 2.264 3.824 0 7.276-1.573 9.752-4.106 2.326-2.379 5.867-3.162 8.936-1.877 2.042.856 4.337 1.228 6.744.974 6.348-.672 11.473-5.829 12.111-12.181.365-3.638-.704-7.014-2.701-9.649-.306-.404-.616-.806-.894-1.23z" fill="url(#SVGID_59_)"/><path d="m499.024 390.006c-.637 6.354-5.766 11.508-12.114 12.182-2.405.256-4.698-.119-6.741-.975-3.068-1.287-6.61-.5-8.94 1.874-1.324 1.356-2.924 2.436-4.711 3.142l-48.742-48.748 24.402-37.222c3.461-5.279 11.195-5.279 14.656 0l38.59 58.869c.281.425.587.825.893 1.231 2.001 2.631 3.07 6.011 2.707 9.647z" fill="url(#SVGID_60_)"/><path d="m487.33 338.629-31.789-48.489c-2.849-4.346-9.219-4.346-12.068 0l-30.923 47.168-1.796 2.598c-1.52 2.13-2.32 4.808-2.031 7.684.526 5.232 4.746 9.479 9.975 10.033 1.983.21 3.873-.097 5.555-.802 2.528-1.059 5.444-.414 7.36 1.546 2.04 2.086 4.883 3.382 8.033 3.382 2.294 0 4.427-.687 6.205-1.865 2.209-1.464 5.104-1.464 7.313 0 1.779 1.179 3.911 1.865 6.205 1.865 3.15 0 5.993-1.296 8.033-3.382 1.916-1.96 4.832-2.605 7.36-1.546 1.682.705 3.572 1.012 5.555.802 5.229-.553 9.449-4.801 9.975-10.033.301-2.996-.579-5.777-2.225-7.947-.253-.333-.508-.664-.737-1.014z" fill="url(#SVGID_61_)"/></g></g><g><g><g><path d="m448.4 470.052c-2.166 0-4.25.346-6.203.983-2.089-6.814-8.429-11.769-15.928-11.769-9.2 0-16.657 7.458-16.657 16.657 0 1.329.157 2.622.451 3.861-7.851.553-14.048 7.097-14.048 15.089 0 8.355 6.773 15.127 15.127 15.127h37.258c11.031 0 19.974-8.943 19.974-19.974 0-11.032-8.943-19.974-19.974-19.974z" fill="url(#SVGID_62_)"/><path d="m428.425 490.027c0 .81.049 1.609.143 2.394-.751.106-1.52.16-2.299.16-9.2 0-16.656-7.458-16.656-16.658 0-9.198 7.457-16.656 16.656-16.656 7.499 0 13.841 4.955 15.928 11.77-7.995 2.606-13.772 10.123-13.772 18.99z" fill="url(#SVGID_63_)"/><path d="m396.131 496.756c.927 7.466 7.294 13.244 15.011 13.244h37.258c8.67 0 16.048-5.524 18.811-13.244z" fill="url(#SVGID_64_)"/></g></g></g></g></svg>