

<svg id="Capa_1" enable-background="new 0 0 510 510" height="512" viewBox="0 0 510 510" width="512" xmlns="http://www.w3.org/2000/svg" xmlns:xlink="http://www.w3.org/1999/xlink"><linearGradient id="SVGID_1_" gradientUnits="userSpaceOnUse" x1="255" x2="255" y1="34.721" y2="483.763"><stop offset="0" stop-color="#c7e9ff"/><stop offset=".3556" stop-color="#a3e6f2"/><stop offset="1" stop-color="#65e0db"/></linearGradient><linearGradient id="SVGID_2_" gradientUnits="userSpaceOnUse" x1="65.552" x2="150.438" y1="71.97" y2="156.856"><stop offset="0" stop-color="#ffd945"/><stop offset=".3043" stop-color="#ffcd3e"/><stop offset=".8558" stop-color="#ffad2b"/><stop offset="1" stop-color="#ffa325"/></linearGradient><linearGradient id="lg1"><stop offset="0" stop-color="#18cefb" stop-opacity="0"/><stop offset="1" stop-color="#0469bb"/></linearGradient><linearGradient id="SVGID_3_" gradientUnits="userSpaceOnUse" x1="418.52" x2="418.52" xlink:href="#lg1" y1="351.595" y2="277.024"/><linearGradient id="SVGID_4_" gradientUnits="userSpaceOnUse" x1="297.491" x2="297.491" xlink:href="#lg1" y1="350.3" y2="287.301"/><linearGradient id="SVGID_5_" gradientUnits="userSpaceOnUse" x1="154.141" x2="154.141" xlink:href="#lg1" y1="354.11" y2="257.077"/><linearGradient id="SVGID_6_" gradientUnits="userSpaceOnUse" x1="255" x2="255" y1="353.077" y2="504.533"><stop offset="0" stop-color="#18cefb"/><stop offset="1" stop-color="#4a97f6"/></linearGradient><linearGradient id="SVGID_7_" gradientUnits="userSpaceOnUse" x1="252.535" x2="277.848" y1="436.965" y2="298.347"><stop offset="0" stop-color="#4a97f6" stop-opacity="0"/><stop offset="1" stop-color="#0469bb"/></linearGradient><linearGradient id="lg2"><stop offset="0" stop-color="#fff5d9"/><stop offset="1" stop-color="#ffce47"/></linearGradient><linearGradient id="SVGID_8_" gradientUnits="userSpaceOnUse" x1="387.202" x2="349.379" xlink:href="#lg2" y1="358.164" y2="448.71"/><linearGradient id="SVGID_9_" gradientUnits="userSpaceOnUse" x1="222.363" x2="269.139" xlink:href="#lg2" y1="354.384" y2="526.658"/><linearGradient id="SVGID_10_" gradientUnits="userSpaceOnUse" x1="68.851" x2="462.302" y1="469.633" y2="355.297"><stop offset="0" stop-color="#ff9356" stop-opacity="0"/><stop offset="1" stop-color="#ff755c"/></linearGradient><linearGradient id="lg3"><stop offset="0" stop-color="#ffdecf"/><stop offset="1" stop-color="#faa68e"/></linearGradient><linearGradient id="SVGID_11_" gradientUnits="userSpaceOnUse" x1="321.627" x2="373.627" xlink:href="#lg3" y1="316.626" y2="305.626"/><linearGradient id="lg4"><stop offset="0" stop-color="#ff9356" stop-opacity="0"/><stop offset="1" stop-color="#ff4181"/></linearGradient><linearGradient id="SVGID_12_" gradientUnits="userSpaceOnUse" x1="327.155" x2="329.322" xlink:href="#lg4" y1="191.158" y2="154.492"/><linearGradient id="SVGID_13_" gradientUnits="userSpaceOnUse" x1="401.802" x2="421.802" xlink:href="#lg4" y1="234.782" y2="150.115"/><linearGradient id="SVGID_14_" gradientUnits="userSpaceOnUse" x1="400.559" x2="418.834" xlink:href="#lg4" y1="254.251" y2="176.885"/><linearGradient id="SVGID_15_" gradientUnits="userSpaceOnUse" x1="399.775" x2="416.261" xlink:href="#lg4" y1="274.582" y2="204.793"/><linearGradient id="SVGID_16_" gradientUnits="userSpaceOnUse" x1="399.249" x2="413.918" xlink:href="#lg4" y1="295.276" y2="233.177"/><linearGradient id="SVGID_17_" gradientUnits="userSpaceOnUse" x1="399.86" x2="412.717" xlink:href="#lg4" y1="316.188" y2="261.759"/><linearGradient id="SVGID_18_" gradientUnits="userSpaceOnUse" x1="400.975" x2="412.194" xlink:href="#lg4" y1="335.223" y2="287.728"/><linearGradient id="SVGID_19_" gradientUnits="userSpaceOnUse" x1="402.379" x2="412.08" xlink:href="#lg4" y1="352.954" y2="311.885"/><linearGradient id="SVGID_20_" gradientUnits="userSpaceOnUse" x1="404.488" x2="412.551" xlink:href="#lg4" y1="372.231" y2="338.098"/><linearGradient id="SVGID_21_" gradientUnits="userSpaceOnUse" x1="408.577" x2="415.285" xlink:href="#lg4" y1="388.725" y2="360.328"/><linearGradient id="SVGID_22_" gradientUnits="userSpaceOnUse" x1="413.422" x2="418.619" xlink:href="#lg4" y1="407.196" y2="385.198"/><linearGradient id="lg5"><stop offset="0" stop-color="#798c00"/><stop offset="1" stop-color="#1b444f"/></linearGradient><linearGradient id="SVGID_23_" gradientUnits="userSpaceOnUse" x1="330.12" x2="330.37" xlink:href="#lg5" y1="51.699" y2="73.199"/><linearGradient id="SVGID_24_" gradientUnits="userSpaceOnUse" x1="292.151" x2="294.151" xlink:href="#lg5" y1="62.141" y2="81.141"/><linearGradient id="lg6"><stop offset="0" stop-color="#bada00"/><stop offset=".2187" stop-color="#b6d600"/><stop offset=".4501" stop-color="#acc900"/><stop offset=".6873" stop-color="#9ab400"/><stop offset=".9271" stop-color="#829700"/><stop offset="1" stop-color="#798c00"/></linearGradient><linearGradient id="SVGID_25_" gradientUnits="userSpaceOnUse" x1="210.241" x2="246.241" xlink:href="#lg6" y1="47.425" y2="107.925"/><linearGradient id="lg7"><stop offset="0" stop-color="#43765a" stop-opacity="0"/><stop offset="1" stop-color="#43765a"/></linearGradient><linearGradient id="SVGID_26_" gradientTransform="matrix(.755 .655 -.655 .755 -100.605 471.84)" gradientUnits="userSpaceOnUse" x1="22.731" x2="-22.242" xlink:href="#lg7" y1="-517.932" y2="-555.759"/><linearGradient id="SVGID_27_" gradientTransform="matrix(.755 .655 -.655 .755 -100.605 471.84)" gradientUnits="userSpaceOnUse" x1="47.185" x2="-18.382" xlink:href="#lg7" y1="-521.939" y2="-578.679"/><linearGradient id="SVGID_28_" gradientTransform="matrix(.755 .655 -.655 .755 -100.605 471.84)" gradientUnits="userSpaceOnUse" x1="89.643" x2="43.936" xlink:href="#lg7" y1="-537.148" y2="-521.071"/><linearGradient id="SVGID_29_" gradientTransform="matrix(-.469 .675 .741 .514 -1298.246 547.6)" gradientUnits="userSpaceOnUse" x1="-1669.57" x2="-1614.091" xlink:href="#lg6" y1="1213.993" y2="1260.646"/><linearGradient id="SVGID_30_" gradientTransform="matrix(-.469 .675 .741 .514 -1298.246 547.6)" gradientUnits="userSpaceOnUse" x1="-1635.205" x2="-1680.177" xlink:href="#lg7" y1="1230.5" y2="1192.673"/><linearGradient id="SVGID_31_" gradientTransform="matrix(-.469 .675 .741 .514 -1298.246 547.6)" gradientUnits="userSpaceOnUse" x1="-1610.75" x2="-1676.317" xlink:href="#lg7" y1="1226.493" y2="1169.753"/><linearGradient id="SVGID_32_" gradientTransform="matrix(-.469 .675 .741 .514 -1298.246 547.6)" gradientUnits="userSpaceOnUse" x1="-1568.292" x2="-1613.999" xlink:href="#lg7" y1="1211.284" y2="1227.361"/><linearGradient id="SVGID_33_" gradientUnits="userSpaceOnUse" x1="177.539" x2="263.039" xlink:href="#lg6" y1="114.394" y2="174.894"/><linearGradient id="SVGID_34_" gradientUnits="userSpaceOnUse" x1="251.795" x2="206.823" xlink:href="#lg7" y1="153.261" y2="115.434"/><linearGradient id="SVGID_35_" gradientUnits="userSpaceOnUse" x1="276.249" x2="210.682" xlink:href="#lg7" y1="149.254" y2="92.514"/><linearGradient id="SVGID_36_" gradientUnits="userSpaceOnUse" x1="318.707" x2="273" xlink:href="#lg7" y1="134.045" y2="150.122"/><linearGradient id="SVGID_37_" gradientUnits="userSpaceOnUse" x1="440.275" x2="401.775" xlink:href="#lg6" y1="138.858" y2="171.358"/><linearGradient id="SVGID_38_" gradientTransform="matrix(-1 0 0 1 -1590.602 0)" gradientUnits="userSpaceOnUse" x1="-1999.172" x2="-2044.144" xlink:href="#lg7" y1="153.261" y2="115.434"/><linearGradient id="SVGID_39_" gradientTransform="matrix(-1 0 0 1 -1590.602 0)" gradientUnits="userSpaceOnUse" x1="-1974.718" x2="-2040.284" xlink:href="#lg7" y1="149.254" y2="92.514"/><linearGradient id="SVGID_40_" gradientTransform="matrix(-1 0 0 1 -1590.602 0)" gradientUnits="userSpaceOnUse" x1="-1932.259" x2="-1977.967" xlink:href="#lg7" y1="134.045" y2="150.122"/><linearGradient id="lg8"><stop offset="0" stop-color="#c59b6d"/><stop offset="1" stop-color="#8b6239"/></linearGradient><linearGradient id="SVGID_41_" gradientUnits="userSpaceOnUse" x1="305.704" x2="325.037" xlink:href="#lg8" y1="156.544" y2="150.211"/><linearGradient id="SVGID_42_" gradientUnits="userSpaceOnUse" x1="310.026" x2="299.752" xlink:href="#lg8" y1="146.331" y2="138.043"/><linearGradient id="SVGID_43_" gradientTransform="matrix(.6 .089 .089 .6 -523.784 -35.01)" gradientUnits="userSpaceOnUse" x1="1366.38" x2="1356.106" xlink:href="#lg8" y1="114.31" y2="106.022"/><linearGradient id="SVGID_44_" gradientTransform="matrix(.6 .089 .089 .6 -523.784 -35.01)" gradientUnits="userSpaceOnUse" x1="1379.687" x2="1369.414" xlink:href="#lg8" y1="109.4" y2="101.112"/><linearGradient id="SVGID_45_" gradientUnits="userSpaceOnUse" x1="325.435" x2="347.42" xlink:href="#lg8" y1="130.036" y2="152.021"/><linearGradient id="SVGID_46_" gradientUnits="userSpaceOnUse" x1="324.157" x2="313.883" xlink:href="#lg8" y1="128.993" y2="120.705"/><linearGradient id="SVGID_47_" gradientTransform="matrix(.6 .089 .089 .6 -523.784 -35.01)" gradientUnits="userSpaceOnUse" x1="1394.819" x2="1384.545" xlink:href="#lg8" y1="81.216" y2="72.928"/><linearGradient id="SVGID_48_" gradientTransform="matrix(.6 .089 .089 .6 -523.784 -35.01)" gradientUnits="userSpaceOnUse" x1="1408.126" x2="1397.852" xlink:href="#lg8" y1="76.307" y2="68.019"/><linearGradient id="SVGID_49_" gradientUnits="userSpaceOnUse" x1="339.536" x2="361.521" xlink:href="#lg8" y1="151.5" y2="173.486"/><linearGradient id="SVGID_50_" gradientUnits="userSpaceOnUse" x1="338.258" x2="327.984" xlink:href="#lg8" y1="150.457" y2="142.169"/><linearGradient id="SVGID_51_" gradientTransform="matrix(.6 .089 .089 .6 -523.784 -35.01)" gradientUnits="userSpaceOnUse" x1="1413.429" x2="1403.155" xlink:href="#lg8" y1="114.223" y2="105.935"/><linearGradient id="SVGID_52_" gradientTransform="matrix(.6 .089 .089 .6 -523.784 -35.01)" gradientUnits="userSpaceOnUse" x1="1426.736" x2="1416.462" xlink:href="#lg8" y1="109.314" y2="101.026"/><linearGradient id="SVGID_53_" gradientUnits="userSpaceOnUse" x1="265.259" x2="303.354" xlink:href="#lg3" y1="396.157" y2="388.099"/><linearGradient id="SVGID_54_" gradientUnits="userSpaceOnUse" x1="271.598" x2="273.35" xlink:href="#lg4" y1="306.728" y2="277.08"/><linearGradient id="SVGID_55_" gradientUnits="userSpaceOnUse" x1="326.446" x2="341.255" xlink:href="#lg4" y1="338.471" y2="275.78"/><linearGradient id="SVGID_56_" gradientUnits="userSpaceOnUse" x1="325.439" x2="338.855" xlink:href="#lg4" y1="354.209" y2="297.418"/><linearGradient id="SVGID_57_" gradientUnits="userSpaceOnUse" x1="324.807" x2="336.775" xlink:href="#lg4" y1="370.649" y2="319.984"/><linearGradient id="SVGID_58_" gradientUnits="userSpaceOnUse" x1="324.382" x2="334.881" xlink:href="#lg4" y1="387.38" y2="342.932"/><linearGradient id="SVGID_59_" gradientUnits="userSpaceOnUse" x1="324.872" x2="333.907" xlink:href="#lg4" y1="404.29" y2="366.044"/><linearGradient id="SVGID_60_" gradientUnits="userSpaceOnUse" x1="325.775" x2="333.485" xlink:href="#lg4" y1="419.686" y2="387.049"/><linearGradient id="SVGID_61_" gradientUnits="userSpaceOnUse" x1="326.916" x2="333.398" xlink:href="#lg4" y1="434.021" y2="406.579"/><linearGradient id="SVGID_62_" gradientUnits="userSpaceOnUse" x1="328.615" x2="333.772" xlink:href="#lg4" y1="449.609" y2="427.777"/><linearGradient id="SVGID_63_" gradientUnits="userSpaceOnUse" x1="331.917" x2="335.979" xlink:href="#lg4" y1="462.946" y2="445.751"/><linearGradient id="SVGID_64_" gradientUnits="userSpaceOnUse" x1="273.996" x2="274.198" xlink:href="#lg5" y1="193.963" y2="211.348"/><linearGradient id="SVGID_65_" gradientUnits="userSpaceOnUse" x1="258.357" x2="246.357" xlink:href="#lg5" y1="204.487" y2="227.987"/><linearGradient id="SVGID_66_" gradientTransform="matrix(.755 .655 -.655 .755 -100.605 471.84)" gradientUnits="userSpaceOnUse" x1="51.002" x2="95.862" xlink:href="#lg6" y1="-402.675" y2="-364.952"/><linearGradient id="SVGID_67_" gradientTransform="matrix(.755 .655 -.655 .755 -100.605 471.84)" gradientUnits="userSpaceOnUse" x1="78.789" x2="42.426" xlink:href="#lg7" y1="-389.328" y2="-419.914"/><linearGradient id="SVGID_68_" gradientTransform="matrix(.755 .655 -.655 .755 -100.605 471.84)" gradientUnits="userSpaceOnUse" x1="98.563" x2="45.547" xlink:href="#lg7" y1="-392.567" y2="-438.447"/><linearGradient id="SVGID_69_" gradientTransform="matrix(.755 .655 -.655 .755 -100.605 471.84)" gradientUnits="userSpaceOnUse" x1="132.894" x2="95.935" xlink:href="#lg7" y1="-404.865" y2="-391.866"/><linearGradient id="SVGID_70_" gradientTransform="matrix(-.469 .675 .741 .514 -1298.246 547.6)" gradientUnits="userSpaceOnUse" x1="-1479.983" x2="-1435.123" xlink:href="#lg6" y1="1244.254" y2="1281.977"/><linearGradient id="SVGID_71_" gradientTransform="matrix(-.469 .675 .741 .514 -1298.246 547.6)" gradientUnits="userSpaceOnUse" x1="-1452.195" x2="-1488.559" xlink:href="#lg7" y1="1257.601" y2="1227.015"/><linearGradient id="SVGID_72_" gradientTransform="matrix(-.469 .675 .741 .514 -1298.246 547.6)" gradientUnits="userSpaceOnUse" x1="-1432.422" x2="-1485.438" xlink:href="#lg7" y1="1254.362" y2="1208.482"/><linearGradient id="SVGID_73_" gradientTransform="matrix(-.469 .675 .741 .514 -1298.246 547.6)" gradientUnits="userSpaceOnUse" x1="-1398.091" x2="-1435.049" xlink:href="#lg7" y1="1242.064" y2="1255.063"/><linearGradient id="SVGID_74_" gradientUnits="userSpaceOnUse" x1="182.876" x2="227.736" xlink:href="#lg6" y1="262.737" y2="300.46"/><linearGradient id="SVGID_75_" gradientUnits="userSpaceOnUse" x1="210.663" x2="174.3" xlink:href="#lg7" y1="276.085" y2="245.499"/><linearGradient id="SVGID_76_" gradientUnits="userSpaceOnUse" x1="230.437" x2="177.421" xlink:href="#lg7" y1="272.845" y2="226.966"/><linearGradient id="SVGID_77_" gradientUnits="userSpaceOnUse" x1="264.768" x2="227.809" xlink:href="#lg7" y1="260.547" y2="273.547"/><linearGradient id="SVGID_78_" gradientTransform="matrix(-1 0 0 1 -1590.602 0)" gradientUnits="userSpaceOnUse" x1="-1955.819" x2="-1910.959" xlink:href="#lg6" y1="262.737" y2="300.46"/><linearGradient id="SVGID_79_" gradientTransform="matrix(-1 0 0 1 -1590.602 0)" gradientUnits="userSpaceOnUse" x1="-1928.031" x2="-1964.395" xlink:href="#lg7" y1="276.085" y2="245.499"/><linearGradient id="SVGID_80_" gradientTransform="matrix(-1 0 0 1 -1590.602 0)" gradientUnits="userSpaceOnUse" x1="-1908.258" x2="-1961.274" xlink:href="#lg7" y1="272.845" y2="226.966"/><linearGradient id="SVGID_81_" gradientTransform="matrix(-1 0 0 1 -1590.602 0)" gradientUnits="userSpaceOnUse" x1="-1873.927" x2="-1910.885" xlink:href="#lg7" y1="260.547" y2="273.547"/><linearGradient id="SVGID_82_" gradientUnits="userSpaceOnUse" x1="254.253" x2="269.886" xlink:href="#lg8" y1="278.739" y2="273.618"/><linearGradient id="SVGID_83_" gradientUnits="userSpaceOnUse" x1="257.748" x2="249.441" xlink:href="#lg8" y1="270.481" y2="263.78"/><linearGradient id="SVGID_84_" gradientTransform="matrix(.6 .089 .089 .6 -523.784 -35.01)" gradientUnits="userSpaceOnUse" x1="1247.612" x2="1239.305" xlink:href="#lg8" y1="335.975" y2="329.273"/><linearGradient id="SVGID_85_" gradientTransform="matrix(.6 .089 .089 .6 -523.784 -35.01)" gradientUnits="userSpaceOnUse" x1="1258.372" x2="1250.065" xlink:href="#lg8" y1="332.005" y2="325.304"/><linearGradient id="SVGID_86_" gradientUnits="userSpaceOnUse" x1="270.207" x2="287.984" xlink:href="#lg8" y1="257.305" y2="275.082"/><linearGradient id="SVGID_87_" gradientUnits="userSpaceOnUse" x1="269.174" x2="260.867" xlink:href="#lg8" y1="256.462" y2="249.76"/><linearGradient id="SVGID_88_" gradientTransform="matrix(.6 .089 .089 .6 -523.784 -35.01)" gradientUnits="userSpaceOnUse" x1="1270.607" x2="1262.3" xlink:href="#lg8" y1="309.216" y2="302.515"/><linearGradient id="SVGID_89_" gradientTransform="matrix(.6 .089 .089 .6 -523.784 -35.01)" gradientUnits="userSpaceOnUse" x1="1281.367" x2="1273.06" xlink:href="#lg8" y1="305.246" y2="298.545"/><linearGradient id="SVGID_90_" gradientUnits="userSpaceOnUse" x1="281.61" x2="299.386" xlink:href="#lg8" y1="274.661" y2="292.438"/><linearGradient id="SVGID_91_" gradientUnits="userSpaceOnUse" x1="280.576" x2="272.269" xlink:href="#lg8" y1="273.818" y2="267.116"/><linearGradient id="SVGID_92_" gradientTransform="matrix(.6 .089 .089 .6 -523.784 -35.01)" gradientUnits="userSpaceOnUse" x1="1285.655" x2="1277.348" xlink:href="#lg8" y1="335.905" y2="329.203"/><linearGradient id="SVGID_93_" gradientTransform="matrix(.6 .089 .089 .6 -523.784 -35.01)" gradientUnits="userSpaceOnUse" x1="1296.415" x2="1288.108" xlink:href="#lg8" y1="331.935" y2="325.234"/><linearGradient id="SVGID_94_" gradientUnits="userSpaceOnUse" x1="338.089" x2="375.216" xlink:href="#lg2" y1="427.03" y2="532.221"/><g><path d="m485.638 510h-461.276c-13.455 0-24.362-10.907-24.362-24.362v-461.276c0-13.455 10.907-24.362 24.362-24.362h461.275c13.456 0 24.363 10.907 24.363 24.362v461.275c0 13.456-10.907 24.363-24.362 24.363z" fill="url(#SVGID_1_)"/><circle cx="86.886" cy="93.304" fill="url(#SVGID_2_)" r="66.943"/><g><path d="m330.04 343.248 60.647-42.254c17.044-11.875 37.927-11.919 55.005-.117l61.308 42.371z" fill="url(#SVGID_3_)"/><path d="m173.482 343.248 84.999-35.697c23.887-10.032 53.157-10.07 77.091-.099l85.927 35.796z" fill="url(#SVGID_4_)"/><path d="m3.63 343.248 103.165-54.981c28.993-15.452 64.518-15.509 93.567-.152l104.292 55.134h-301.024z" fill="url(#SVGID_5_)"/></g><path d="m509 485.638 1-93.033v-49.357h-510v33.903l1 108.487c0 13.455 9.907 23.362 23.362 23.362h461.275c13.456 0 23.363-9.907 23.363-23.362z" fill="url(#SVGID_6_)"/><path d="m509 485.638 1-93.033v-28.23h-510v12.776l1 108.487c0 13.455 9.907 23.362 23.362 23.362h461.275c13.456 0 23.363-9.907 23.363-23.362z" fill="url(#SVGID_7_)"/><g><path d="m510 392.605c-198.631-37.325-325.144 60.775-325.144 60.775h325.144z" fill="url(#SVGID_8_)"/><path d="m510 485.638v-25.378c-4.842-13.78-17.961-23.662-33.395-23.662-68.087 0-135.182-9.924-195.66-28.939l-87.373-27.471c-60.442-19.005-131.78-20.068-193.572-3.037v108.487c0 13.455 10.907 24.362 24.362 24.362h461.275c13.456 0 24.363-10.907 24.363-24.362z" fill="url(#SVGID_9_)"/><path d="m36.36 456.051c8.042-31.754 103.931-21.311 110.293-60.368 4.512-27.697-82.846-29.195-86.031-29.241-20.732 1.778-41.146 5.36-60.622 10.727v108.469c0 13.455 10.907 24.362 24.362 24.362h292.614c-109.246-16.726-286.188-31.95-280.616-53.949z" fill="url(#SVGID_10_)"/></g><g><g><path d="m433.987 471.203c-3.039 0-6.105-.92-8.759-2.833-28.983-20.894-52.923-50.883-71.155-89.134-14.282-29.962-25.123-65.078-32.222-104.371-11.992-66.376-9.229-121.363-9.106-123.671.442-8.273 7.51-14.627 15.78-14.177 8.271.442 14.617 7.503 14.178 15.773-.028.536-2.686 54.32 8.781 117.352 10.324 56.749 34.543 132.983 91.289 173.893 6.72 4.844 8.24 14.219 3.396 20.939-2.933 4.066-7.524 6.228-12.182 6.229z" fill="url(#SVGID_11_)"/><path d="m342.702 152.789c.439-8.27-5.907-15.331-14.178-15.773-8.27-.45-15.338 5.904-15.78 14.177-.041.772-.378 7.448-.358 18.468l30.98 30.98c-1.619-28.535-.681-47.534-.664-47.852z" fill="url(#SVGID_12_)"/><path d="m442.772 444.034c-56.746-40.91-80.964-117.144-91.289-173.893-5.73-31.494-7.933-60.679-8.7-82.067-5.882.779-12.049 1.194-18.403 1.194-3.959 0-7.843-.166-11.633-.475.786 22.352 3.088 52.778 9.104 86.072 7.099 39.293 17.94 74.408 32.222 104.371 18.232 38.251 42.172 68.24 71.155 89.134 2.654 1.914 5.72 2.834 8.759 2.833 4.657 0 9.249-2.163 12.18-6.229 4.845-6.721 3.325-16.096-3.395-20.94z" fill="url(#SVGID_13_)"/><path d="m446.17 464.969c-2.93 4.07-7.53 6.23-12.18 6.23-3.04 0-6.11-.92-8.76-2.83-28.98-20.89-52.92-50.88-71.16-89.13-14.28-29.97-25.12-65.08-32.22-104.37-4.13-22.9-6.52-44.43-7.86-62.92 3.39.25 6.86.38 10.39.38 6.81 0 13.4-.48 19.66-1.37 1.29 17.52 3.55 37.82 7.44 59.18 10.33 56.75 34.55 132.99 91.29 173.9 6.72 4.84 8.24 14.21 3.4 20.93z" fill="url(#SVGID_14_)"/><path d="m446.17 464.969c-2.93 4.07-7.53 6.23-12.18 6.23-3.04 0-6.11-.92-8.76-2.83-28.98-20.89-52.92-50.88-71.16-89.13-14.28-29.97-25.12-65.08-32.22-104.37-2.42-13.4-4.24-26.33-5.6-38.46 2.67.16 5.38.24 8.13.24 7.63 0 14.98-.6 21.91-1.71 1.28 11.18 2.97 23.02 5.19 35.2 10.33 56.75 34.55 132.99 91.29 173.9 6.72 4.84 8.24 14.21 3.4 20.93z" fill="url(#SVGID_15_)"/><path d="m446.17 464.969c-2.93 4.07-7.53 6.23-12.18 6.23-3.04 0-6.11-.92-8.76-2.83-28.98-20.89-52.92-50.88-71.16-89.13-14.28-29.97-25.12-65.08-32.22-104.37-.9-5-1.72-9.93-2.47-14.78 4.08.36 8.27.55 12.54.55 6.12 0 12.06-.38 17.74-1.11.56 3.5 1.17 7.04 1.82 10.61 10.33 56.75 34.55 132.99 91.29 173.9 6.72 4.84 8.24 14.21 3.4 20.93z" fill="url(#SVGID_16_)"/><path d="m446.17 464.969c-2.93 4.07-7.53 6.23-12.18 6.23-3.04 0-6.11-.92-8.76-2.83-28.98-20.89-52.92-50.88-71.16-89.13-12.81-26.89-22.85-57.92-29.91-92.39 1.18.04 2.37.05 3.56.05 9.37 0 18.33-.9 26.57-2.54 11.68 54.71 36.36 122.1 88.48 159.68 6.72 4.84 8.24 14.21 3.4 20.93z" fill="url(#SVGID_17_)"/><path d="m446.17 464.969c-2.93 4.07-7.53 6.23-12.18 6.23-3.04 0-6.11-.92-8.76-2.83-28.98-20.89-52.92-50.88-71.16-89.13-9.76-20.49-17.91-43.38-24.36-68.37 10.75-.15 20.93-1.48 30.06-3.76 13.37 49.62 37.92 104.42 83 136.93 6.72 4.84 8.24 14.21 3.4 20.93z" fill="url(#SVGID_18_)"/><path d="m446.17 464.969c-2.93 4.07-7.53 6.23-12.18 6.23-3.04 0-6.11-.92-8.76-2.83-28.98-20.89-52.92-50.88-71.16-89.13-6.9-14.48-12.99-30.16-18.24-46.93 10.87-.14 21.14-1.49 30.35-3.8 14.35 43.35 37.92 87.64 76.59 115.53 6.72 4.84 8.24 14.21 3.4 20.93z" fill="url(#SVGID_19_)"/><path d="m446.17 464.969c-2.93 4.07-7.53 6.23-12.18 6.23-3.04 0-6.11-.92-8.76-2.83-28.98-20.89-52.92-50.88-71.16-89.13-3.67-7.7-7.11-15.73-10.31-24.09.62.01 1.25.01 1.88.01 10.41 0 20.31-1.11 29.29-3.12 14.63 35.32 36.17 69.16 67.84 92 6.72 4.84 8.24 14.21 3.4 20.93z" fill="url(#SVGID_20_)"/><path d="m446.17 464.969c-2.93 4.07-7.53 6.23-12.18 6.23-3.04 0-6.11-.92-8.76-2.83-28.98-20.89-52.92-50.88-71.16-89.13-.01-.01-.01-.03-.02-.04 11.14-1.23 21.35-3.76 29.99-7.26 14.07 27.88 33.07 53.6 58.73 72.1 6.72 4.84 8.24 14.21 3.4 20.93z" fill="url(#SVGID_21_)"/><path d="m446.17 464.969c-2.93 4.07-7.53 6.23-12.18 6.23-3.04 0-6.11-.92-8.76-2.83-22.65-16.33-42.23-38.22-58.41-65.27 11.4-1.5 21.73-4.38 30.29-8.27 12.21 18.88 27.21 35.91 45.66 49.21 6.72 4.84 8.24 14.21 3.4 20.93z" fill="url(#SVGID_22_)"/></g><g><g><path d="m348.298 68.618s-18.812-59.818-35.405 16.69v31.385c.001 0 18.39-40.047 35.405-48.075z" fill="url(#SVGID_23_)"/><path d="m263 67.906s26.086-56.135 52.479-5.703c6.963 13.306 10.355 27.616 10.355 42.023v21.421s-32.635-48.099-62.834-57.741z" fill="url(#SVGID_24_)"/><g><path d="m162.117 105.14c8.18 5.198 22.817 13.45 42.802 20.564 2.306.821 4.882.133 6.486-1.716l7.166-8.26c1.76-2.029 5.042-.22 4.267 2.351l-1.91 6.34c-.975 3.238.93 6.644 4.204 7.489 11.02 2.845 23.164 5.14 36.33 6.431 1.65.162 3.291-.388 4.526-1.494l17.351-15.525c1.543-1.381 4-.385 4.146 1.68l.762 10.74c.228 3.217 2.972 5.658 6.194 5.535 14.397-.55 29.665-2.384 45.726-5.966 0 0-32.552-130.934-178.048-38.239-3.686 2.349-3.692 7.725-.002 10.07z" fill="url(#SVGID_25_)"/><path d="m287.486 123 .762 10.74c.228 3.217 2.972 5.658 6.194 5.535 14.397-.55 29.665-2.384 45.726-5.966 0 0-13.65-54.898-62.776-68.431-22.286-6.139-46.155.416-62.499 16.763l-33.967 33.972c6.803 3.333 14.832 6.83 23.986 10.089 2.307.821 4.887.136 6.492-1.714l7.166-8.26c1.76-2.029 5.042-.22 4.267 2.351l-1.91 6.34c-.975 3.238.93 6.644 4.204 7.489 11.02 2.845 23.164 5.14 36.33 6.431 1.65.162 3.291-.388 4.526-1.494l17.351-15.525c1.546-1.381 4.002-.386 4.148 1.68z" fill="url(#SVGID_26_)"/><path d="m340.169 133.31c-16.063 3.584-31.329 5.413-45.73 5.965-3.218.121-5.961-2.317-6.189-5.536l-.766-10.739c-.142-2.068-2.604-3.06-4.142-1.682l-17.352 15.528c-1.24 1.102-2.877 1.652-4.524 1.492-13.168-1.292-25.317-3.585-36.335-6.433-3.273-.845-5.177-4.249-4.205-7.487l1.91-6.339c.774-2.575-2.51-4.381-4.27-2.352l28.78-33.174c13.253-15.277 35.87-18.56 52.671-7.302 30.857 20.675 40.152 58.059 40.152 58.059z" fill="url(#SVGID_27_)"/><path d="m287.484 123 .766 10.739c.228 3.219 2.971 5.657 6.189 5.536 14.401-.552 29.667-2.381 45.73-5.965 0 0-2.738-11.005-10.17-24.375-5.884-10.585-20.195-12.751-28.975-4.41l-17.681 16.795c1.538-1.38 3.999-.388 4.141 1.68z" fill="url(#SVGID_28_)"/></g><g><path d="m461.102 68.457c-5.553 5.733-15.756 15.12-30.735 24.485-1.728 1.081-4.066.954-5.88-.305l-8.106-5.625c-1.991-1.381-4.289.688-2.988 2.691l3.207 4.938c1.638 2.522.899 5.681-1.636 6.949-8.533 4.269-18.149 8.275-28.876 11.623-1.344.419-2.861.246-4.178-.459l-18.494-9.901c-1.645-.881-3.456.371-3.056 2.113l2.077 9.056c.622 2.712-1.064 5.215-3.801 5.67-12.226 2.031-25.509 3.147-39.9 2.946 0 0-5.782-114.422 139.817-62.548 3.69 1.315 5.054 5.781 2.549 8.367z" fill="url(#SVGID_29_)"/><path d="m360.36 104.967 2.077 9.056c.622 2.712-1.064 5.215-3.801 5.67-12.226 2.031-25.509 3.147-39.9 2.946 0 0-2.423-47.975 35.4-67.711 17.159-8.953 38.856-7.632 56.713 3.126l37.11 22.357c-4.869 3.946-10.725 8.239-17.587 12.529-1.73 1.081-4.069.958-5.884-.302l-8.106-5.625c-1.991-1.381-4.289.688-2.988 2.691l3.207 4.938c1.638 2.522.899 5.681-1.636 6.949-8.533 4.269-18.149 8.275-28.876 11.623-1.344.419-2.861.246-4.178-.459l-18.494-9.901c-1.646-.88-3.456.371-3.057 2.113z" fill="url(#SVGID_30_)"/><path d="m318.735 122.64c14.392.202 27.673-.917 39.903-2.947 2.733-.456 4.419-2.955 3.796-5.67l-2.072-9.055c-.404-1.743 1.412-2.993 3.052-2.113l18.495 9.903c1.32.702 2.833.875 4.176.458 10.729-3.349 20.349-7.355 28.879-11.625 2.535-1.268 3.272-4.426 1.637-6.948l-3.207-4.937c-1.301-2.006.999-4.074 2.99-2.692l-32.553-22.591c-14.99-10.403-34.81-9.222-46.069 3.037-20.677 22.51-19.027 55.18-19.027 55.18z" fill="url(#SVGID_31_)"/><path d="m360.362 104.967 2.072 9.055c.622 2.715-1.064 5.214-3.796 5.67-12.23 2.03-25.51 3.149-39.903 2.947 0 0-.485-9.617 2.374-22.012 2.263-9.812 13.731-14.086 23.212-8.673l19.092 10.899c-1.639-.879-3.455.371-3.051 2.114z" fill="url(#SVGID_32_)"/></g><g><path d="m187.215 222.038c9.585-1.434 26.049-4.793 45.806-12.515 2.28-.891 3.775-3.099 3.775-5.547v-10.936c0-2.686 3.664-3.47 4.764-1.02l2.712 6.04c1.385 3.085 5.056 4.409 8.083 2.902 10.189-5.072 20.866-11.297 31.656-18.949 1.352-.959 2.231-2.45 2.44-4.094l2.933-23.097c.261-2.054 2.769-2.912 4.233-1.448l7.614 7.614c2.28 2.28 5.952 2.326 8.306.122 10.514-9.85 20.846-21.24 30.63-34.471 0 0-110.39-77.572-159.55 87.792-1.244 4.189 2.274 8.254 6.598 7.607z" fill="url(#SVGID_33_)"/><path d="m293.618 153.374 7.614 7.614c2.28 2.28 5.952 2.326 8.306.122 10.514-9.85 20.846-21.24 30.63-34.471 0 0-46.286-32.523-92.262-10.554-20.857 9.967-34.591 30.559-36.225 53.618l-3.395 47.92c7.323-1.94 15.679-4.56 24.729-8.097 2.281-.892 3.781-3.1 3.781-5.549v-10.936c0-2.686 3.664-3.47 4.764-1.02l2.712 6.04c1.385 3.085 5.056 4.409 8.083 2.902 10.189-5.072 20.866-11.297 31.657-18.95 1.352-.959 2.231-2.45 2.44-4.094l2.933-23.097c.261-2.055 2.769-2.913 4.233-1.448z" fill="url(#SVGID_34_)"/><path d="m340.169 126.638c-9.785 13.233-20.118 24.619-30.634 34.473-2.352 2.2-6.021 2.156-8.303-.126l-7.616-7.61c-1.463-1.469-3.972-.605-4.23 1.444l-2.932 23.1c-.214 1.646-1.091 3.133-2.44 4.092-10.793 7.654-21.473 13.882-31.661 18.951-3.026 1.507-6.695.183-8.082-2.9l-2.711-6.04c-1.103-2.452-4.766-1.664-4.766 1.021v-43.918c0-20.224 14.933-37.525 35.001-40.032 36.855-4.602 68.374 17.545 68.374 17.545z" fill="url(#SVGID_35_)"/><path d="m293.617 153.375 7.616 7.61c2.282 2.282 5.951 2.326 8.303.126 10.516-9.854 20.849-21.24 30.634-34.473 0 0-9.28-6.519-23.655-11.748-11.381-4.139-23.61 3.602-24.777 15.656l-2.35 24.272c.257-2.048 2.766-2.912 4.229-1.443z" fill="url(#SVGID_36_)"/></g><g><path d="m473.15 222.038c-9.585-1.434-26.049-4.793-45.806-12.515-2.28-.891-3.775-3.099-3.775-5.547v-10.936c0-2.686-3.664-3.47-4.764-1.02l-2.712 6.04c-1.385 3.085-5.056 4.409-8.083 2.902-10.189-5.072-20.866-11.297-31.656-18.949-1.352-.959-2.231-2.45-2.44-4.094l-2.933-23.097c-.261-2.054-2.769-2.912-4.233-1.448l-7.614 7.614c-2.28 2.28-5.952 2.326-8.306.122-10.514-9.85-20.846-21.24-30.63-34.471 0 0 110.39-77.572 159.55 87.792 1.244 4.189-2.274 8.254-6.598 7.607z" fill="url(#SVGID_37_)"/><path d="m366.746 153.374-7.614 7.614c-2.28 2.28-5.952 2.326-8.306.122-10.514-9.85-20.846-21.24-30.63-34.471 0 0 46.286-32.523 92.262-10.554 20.857 9.967 34.591 30.559 36.225 53.618l3.395 47.92c-7.323-1.94-15.679-4.56-24.729-8.097-2.281-.892-3.781-3.1-3.781-5.549v-10.936c0-2.686-3.664-3.47-4.764-1.02l-2.712 6.04c-1.385 3.085-5.056 4.409-8.083 2.902-10.189-5.072-20.866-11.297-31.657-18.95-1.352-.959-2.231-2.45-2.44-4.094l-2.933-23.097c-.26-2.055-2.768-2.913-4.233-1.448z" fill="url(#SVGID_38_)"/><path d="m320.195 126.638c9.785 13.233 20.118 24.619 30.634 34.473 2.352 2.2 6.021 2.156 8.303-.126l7.616-7.61c1.463-1.469 3.972-.605 4.23 1.444l2.932 23.1c.214 1.646 1.091 3.133 2.44 4.092 10.793 7.654 21.473 13.882 31.661 18.951 3.026 1.507 6.695.183 8.082-2.9l2.711-6.04c1.103-2.452 4.766-1.664 4.766 1.021v-43.918c0-20.224-14.933-37.525-35.001-40.032-36.854-4.602-68.374 17.545-68.374 17.545z" fill="url(#SVGID_39_)"/><path d="m366.748 153.375-7.616 7.61c-2.282 2.282-5.951 2.326-8.303.126-10.516-9.854-20.849-21.24-30.634-34.473 0 0 9.28-6.519 23.655-11.748 11.381-4.139 23.61 3.602 24.777 15.656l2.35 24.272c-.257-2.048-2.767-2.912-4.229-1.443z" fill="url(#SVGID_40_)"/></g></g><g><g><circle cx="316.829" cy="152.9" fill="url(#SVGID_41_)" r="17.338"/><path d="m312.078 141.148c1.444 1.444.92 4.31-1.17 6.4s-4.956 2.614-6.4 1.17-.92-4.31 1.17-6.4 4.955-2.614 6.4-1.17z" fill="url(#SVGID_42_)"/><path d="m307.278 152.008c.995.995.935 2.668-.134 3.738s-2.742 1.129-3.738.134-.935-2.668.134-3.738 2.743-1.129 3.738-.134z" fill="url(#SVGID_43_)"/><path d="m314.829 150.243c.995.995.935 2.668-.134 3.738s-2.742 1.129-3.738.134c-.995-.995-.935-2.668.134-3.738s2.743-1.129 3.738-.134z" fill="url(#SVGID_44_)"/></g><g><circle cx="330.96" cy="135.561" fill="url(#SVGID_45_)" r="17.338"/><path d="m326.209 123.81c1.444 1.444.92 4.31-1.17 6.4s-4.956 2.614-6.4 1.17-.92-4.31 1.17-6.4 4.956-2.614 6.4-1.17z" fill="url(#SVGID_46_)"/><path d="m321.409 134.67c.995.995.935 2.668-.134 3.738s-2.742 1.129-3.738.134c-.995-.995-.935-2.668.134-3.738s2.743-1.129 3.738-.134z" fill="url(#SVGID_47_)"/><path d="m328.96 132.905c.995.995.935 2.668-.134 3.738s-2.742 1.129-3.738.134-.935-2.668.134-3.738 2.743-1.13 3.738-.134z" fill="url(#SVGID_48_)"/></g><g><circle cx="345.061" cy="157.026" fill="url(#SVGID_49_)" r="17.338"/><path d="m340.31 145.274c1.444 1.444.92 4.31-1.17 6.4s-4.956 2.614-6.4 1.17-.92-4.31 1.17-6.4 4.956-2.614 6.4-1.17z" fill="url(#SVGID_50_)"/><path d="m335.51 156.134c.995.995.935 2.668-.134 3.738s-2.742 1.129-3.738.134-.935-2.668.134-3.738 2.743-1.129 3.738-.134z" fill="url(#SVGID_51_)"/><path d="m343.062 154.369c.995.995.935 2.668-.134 3.738s-2.742 1.129-3.738.134c-.995-.995-.935-2.668.134-3.738 1.069-1.069 2.743-1.129 3.738-.134z" fill="url(#SVGID_52_)"/></g></g></g></g><g><g><path d="m360.843 507.998h-35.28c-12.39-13.78-23.16-30.23-32.2-49.19-.06-.12-.12-.25-.17-.37h-.01c-11.46-24.15-20.16-52.42-25.87-84.03-9.7-53.67-7.47-98.13-7.37-99.99.36-6.69 6.08-11.83 12.76-11.47 6.69.36 11.82 6.07 11.47 12.76-.01.14-.24 4.68-.24 12.46 0 16.55 1.03 47.76 7.34 82.42 4.46 24.53 12.13 53.55 25.31 80.31 10.7 21.74 25.05 41.98 44.26 57.1z" fill="url(#SVGID_53_)"/><path d="m284.17 275.703c.355-6.687-4.776-12.396-11.464-12.754-6.687-.364-12.402 4.774-12.759 11.463-.033.624-.305 6.023-.29 14.933l25.05 25.05c-1.31-23.072-.551-38.435-.537-38.692z" fill="url(#SVGID_54_)"/><path d="m360.843 507.998h-35.28c-12.39-13.78-23.16-30.23-32.2-49.19-.06-.12-.12-.25-.17-.37h-.01c-11.46-24.15-20.16-52.42-25.87-84.03-4.87-26.92-6.73-51.52-7.36-69.59 3.06.25 6.2.38 9.4.38 5.14 0 10.13-.33 14.88-.96.62 17.29 2.4 40.89 7.04 66.35 4.46 24.53 12.13 53.55 25.31 80.31 10.7 21.74 25.05 41.98 44.26 57.1z" fill="url(#SVGID_55_)"/><path d="m360.843 507.998h-35.29c-12.38-13.78-23.15-30.23-32.19-49.19-.06-.12-.12-.25-.17-.37h-.01c-11.46-24.15-20.16-52.41-25.87-84.02-3.34-18.52-5.28-35.93-6.36-50.88 2.74.2 5.55.31 8.4.31 5.51 0 10.84-.39 15.9-1.11 1.04 14.17 2.87 30.58 6.01 47.85 4.47 24.53 12.14 53.55 25.33 80.31 10.7 21.75 25.04 41.99 44.25 57.1z" fill="url(#SVGID_56_)"/><path d="m360.843 507.998h-35.29c-12.38-13.78-23.15-30.23-32.19-49.19-.06-.12-.12-.25-.17-.37h-.01c-11.46-24.15-20.16-52.41-25.87-84.02-1.96-10.84-3.43-21.29-4.53-31.1 2.16.13 4.35.19 6.57.19 6.17 0 12.11-.48 17.72-1.38 1.03 9.04 2.4 18.61 4.19 28.46 4.47 24.53 12.14 53.55 25.33 80.31 10.7 21.75 25.04 41.99 44.25 57.1z" fill="url(#SVGID_57_)"/><path d="m360.843 507.998h-35.29c-12.38-13.78-23.15-30.23-32.19-49.19-.06-.12-.12-.25-.17-.37h-.01c-11.46-24.15-20.16-52.41-25.87-84.02-.73-4.05-1.39-8.03-2-11.95 3.3.29 6.69.44 10.14.44 4.95 0 9.75-.31 14.34-.9.46 2.83.95 5.7 1.47 8.58 4.47 24.53 12.14 53.55 25.33 80.31 10.7 21.75 25.04 41.99 44.25 57.1z" fill="url(#SVGID_58_)"/><path d="m360.843 507.998h-35.29c-12.38-13.78-23.15-30.23-32.19-49.19-.06-.12-.12-.24-.17-.37-10.28-21.65-18.34-46.62-24.02-74.34.96.04 1.92.04 2.88.04 7.58 0 14.82-.72 21.49-2.05 4.66 21.82 11.87 46.13 23.05 68.81 10.7 21.74 25.04 41.99 44.25 57.1z" fill="url(#SVGID_59_)"/><path d="m360.843 507.998h-35.29c-12.38-13.78-23.15-30.23-32.19-49.19-.06-.12-.12-.24-.17-.37-7.82-16.47-14.35-34.86-19.53-54.91 8.69-.13 16.92-1.2 24.31-3.04 4.48 16.61 10.5 33.94 18.62 50.41 10.7 21.74 25.04 41.98 44.25 57.1z" fill="url(#SVGID_60_)"/><path d="m360.853 507.998h-35.3c-12.38-13.78-23.15-30.23-32.19-49.19-.06-.12-.12-.25-.17-.37h-.01c-5.5-11.61-10.37-24.16-14.57-37.58 8.79-.11 17.09-1.2 24.54-3.07 3.68 11.11 8.11 22.3 13.44 33.11 10.7 21.75 25.05 41.99 44.26 57.1z" fill="url(#SVGID_61_)"/><path d="m360.843 507.998h-35.29c-12.38-13.78-23.15-30.23-32.19-49.19-.06-.12-.12-.25-.18-.37-2.9-6.12-5.62-12.48-8.16-19.11.5.01 1.01.01 1.52.01 8.42 0 16.42-.9 23.69-2.52 1.96 4.74 4.08 9.45 6.37 14.08 10.69 21.74 25.03 41.99 44.24 57.1z" fill="url(#SVGID_62_)"/><path d="m360.833 507.998h-35.28c-12.38-13.78-23.15-30.23-32.19-49.19-.01-.01-.01-.03-.02-.03 9.01-1 17.27-3.04 24.25-5.87 10.59 20.97 24.62 40.44 43.24 55.09z" fill="url(#SVGID_63_)"/></g><g><g><path d="m288.694 207.644s-15.211-48.368-28.628 13.495v25.377c.001.001 14.87-32.381 28.628-38.872z" fill="url(#SVGID_64_)"/><path d="m219.724 207.068s21.093-45.39 42.434-4.611c5.631 10.759 8.373 22.33 8.373 33.979v17.32c0 .001-26.389-38.891-50.807-46.688z" fill="url(#SVGID_65_)"/><g><path d="m138.152 237.175c6.614 4.203 18.45 10.876 34.609 16.627 1.865.664 3.948.108 5.245-1.387l5.794-6.679c1.423-1.64 4.077-.178 3.45 1.901l-1.544 5.126c-.789 2.618.752 5.372 3.399 6.055 8.91 2.301 18.73 4.156 29.376 5.2 1.334.131 2.661-.314 3.66-1.208l14.03-12.553c1.248-1.117 3.234-.312 3.353 1.359l.616 8.685c.184 2.601 2.403 4.575 5.009 4.475 11.641-.445 23.986-1.927 36.973-4.824 0 0-26.321-105.871-143.967-30.919-2.982 1.899-2.987 6.246-.003 8.142z" fill="url(#SVGID_66_)"/><path d="m239.523 251.616.616 8.685c.184 2.601 2.403 4.575 5.009 4.475 11.641-.445 23.986-1.927 36.973-4.824 0 0-11.037-44.39-50.759-55.332-18.02-4.964-37.32.336-50.535 13.554l-27.465 27.469c5.501 2.695 11.993 5.523 19.394 8.158 1.866.664 3.952.11 5.25-1.386l5.794-6.679c1.423-1.64 4.077-.178 3.45 1.901l-1.544 5.126c-.789 2.618.752 5.372 3.399 6.055 8.91 2.301 18.73 4.156 29.376 5.2 1.334.131 2.661-.314 3.66-1.208l14.03-12.553c1.247-1.116 3.234-.311 3.352 1.359z" fill="url(#SVGID_67_)"/><path d="m282.122 259.953c-12.988 2.898-25.332 4.377-36.976 4.823-2.602.098-4.82-1.873-5.004-4.477l-.62-8.683c-.115-1.672-2.105-2.474-3.349-1.36l-14.03 12.555c-1.003.891-2.326 1.336-3.658 1.206-10.648-1.044-20.471-2.899-29.379-5.201-2.647-.683-4.186-3.436-3.4-6.054l1.544-5.125c.626-2.082-2.029-3.542-3.452-1.902l23.271-26.824c10.716-12.352 29.004-15.007 42.589-5.904 24.948 16.717 32.464 46.946 32.464 46.946z" fill="url(#SVGID_68_)"/><path d="m239.521 251.616.62 8.683c.185 2.603 2.402 4.574 5.004 4.477 11.644-.447 23.988-1.926 36.976-4.823 0 0-2.214-8.898-8.223-19.709-4.758-8.559-16.329-10.31-23.429-3.566l-14.296 13.58c1.243-1.116 3.233-.314 3.348 1.358z" fill="url(#SVGID_69_)"/></g><g><path d="m379.906 207.514c-4.49 4.635-12.74 12.226-24.852 19.798-1.398.874-3.287.772-4.754-.246l-6.554-4.548c-1.61-1.117-3.468.557-2.416 2.176l2.593 3.992c1.324 2.039.727 4.594-1.323 5.619-6.899 3.452-14.675 6.691-23.349 9.398-1.087.339-2.314.199-3.378-.371l-14.954-8.006c-1.33-.712-2.794.3-2.471 1.708l1.679 7.323c.503 2.193-.861 4.217-3.073 4.584-9.886 1.643-20.626 2.545-32.263 2.382 0 0-4.675-92.519 113.054-50.575 2.983 1.064 4.086 4.675 2.061 6.766z" fill="url(#SVGID_70_)"/><path d="m298.447 237.035 1.679 7.323c.503 2.193-.861 4.217-3.073 4.584-9.886 1.643-20.626 2.545-32.263 2.382 0 0-1.959-38.792 28.624-54.75 13.874-7.239 31.418-6.171 45.857 2.527l30.006 18.078c-3.937 3.19-8.672 6.662-14.22 10.131-1.398.874-3.29.775-4.758-.244l-6.554-4.548c-1.61-1.117-3.468.557-2.416 2.176l2.593 3.992c1.324 2.039.727 4.594-1.323 5.619-6.899 3.452-14.675 6.691-23.349 9.398-1.087.339-2.314.199-3.378-.371l-14.954-8.006c-1.33-.711-2.794.301-2.471 1.709z" fill="url(#SVGID_71_)"/><path d="m264.79 251.325c11.637.163 22.376-.742 32.265-2.383 2.209-.368 3.573-2.39 3.07-4.585l-1.676-7.322c-.326-1.409 1.142-2.42 2.468-1.709l14.955 8.007c1.067.567 2.291.708 3.376.37 8.676-2.708 16.454-5.947 23.351-9.4 2.049-1.025 2.646-3.579 1.323-5.618l-2.593-3.992c-1.052-1.622.808-3.294 2.418-2.177l-26.322-18.266c-12.121-8.412-28.147-7.456-37.251 2.455-16.718 18.204-15.384 44.62-15.384 44.62z" fill="url(#SVGID_72_)"/><path d="m298.449 237.035 1.676 7.322c.503 2.195-.86 4.216-3.07 4.585-9.889 1.642-20.627 2.546-32.265 2.383 0 0-.392-7.777 1.92-17.798 1.83-7.934 11.103-11.389 18.769-7.013l15.437 8.813c-1.325-.712-2.793.299-2.467 1.708z" fill="url(#SVGID_73_)"/></g><g><path d="m158.445 331.697c7.75-1.159 21.063-3.875 37.038-10.119 1.843-.72 3.053-2.506 3.053-4.485v-8.842c0-2.172 2.963-2.806 3.852-.825l2.193 4.884c1.12 2.494 4.089 3.565 6.536 2.346 8.238-4.101 16.872-9.134 25.597-15.322 1.093-.775 1.804-1.981 1.973-3.31l2.372-18.676c.211-1.661 2.239-2.355 3.423-1.171l6.156 6.156c1.844 1.844 4.813 1.881 6.716.098 8.502-7.964 16.856-17.174 24.767-27.873 0 0-89.26-62.723-129.009 70.987-1.007 3.388 1.837 6.675 5.333 6.152z" fill="url(#SVGID_74_)"/><path d="m244.481 276.176 6.156 6.156c1.844 1.844 4.813 1.881 6.716.098 8.502-7.964 16.856-17.174 24.767-27.873 0 0-37.426-26.298-74.601-8.533-16.865 8.059-27.97 24.71-29.291 43.354l-2.745 38.747c5.922-1.569 12.678-3.687 19.996-6.547 1.844-.721 3.057-2.506 3.057-4.487v-8.842c0-2.172 2.963-2.806 3.852-.825l2.193 4.884c1.12 2.494 4.089 3.565 6.536 2.346 8.238-4.101 16.872-9.135 25.597-15.322 1.093-.775 1.804-1.981 1.973-3.31l2.372-18.676c.21-1.661 2.238-2.354 3.422-1.17z" fill="url(#SVGID_75_)"/><path d="m282.122 254.558c-7.912 10.7-16.267 19.906-24.77 27.874-1.901 1.779-4.868 1.743-6.714-.102l-6.158-6.153c-1.183-1.188-3.212-.489-3.421 1.167l-2.37 18.678c-.173 1.331-.882 2.534-1.973 3.308-8.727 6.189-17.363 11.225-25.601 15.324-2.447 1.218-5.414.148-6.535-2.345l-2.192-4.884c-.892-1.983-3.854-1.346-3.854.826v-35.511c0-16.353 12.074-30.342 28.301-32.369 29.801-3.721 55.287 14.187 55.287 14.187z" fill="url(#SVGID_76_)"/><path d="m244.48 276.177 6.158 6.153c1.845 1.845 4.812 1.881 6.714.102 8.503-7.968 16.858-17.174 24.77-27.874 0 0-7.503-5.271-19.127-9.499-9.202-3.347-19.091 2.913-20.034 12.659l-1.9 19.626c.208-1.656 2.237-2.355 3.419-1.167z" fill="url(#SVGID_77_)"/></g><g><path d="m389.647 331.697c-7.75-1.159-21.063-3.875-37.038-10.119-1.843-.72-3.053-2.506-3.053-4.485v-8.842c0-2.172-2.963-2.806-3.852-.825l-2.193 4.884c-1.12 2.494-4.089 3.565-6.536 2.346-8.238-4.101-16.872-9.134-25.597-15.322-1.093-.775-1.804-1.981-1.973-3.31l-2.372-18.676c-.211-1.661-2.239-2.355-3.423-1.171l-6.156 6.156c-1.844 1.844-4.813 1.881-6.716.098-8.502-7.964-16.856-17.174-24.767-27.873 0 0 89.26-62.723 129.009 70.987 1.008 3.388-1.837 6.675-5.333 6.152z" fill="url(#SVGID_78_)"/><path d="m303.611 276.176-6.156 6.156c-1.844 1.844-4.813 1.881-6.716.098-8.502-7.964-16.856-17.174-24.767-27.873 0 0 37.426-26.298 74.601-8.533 16.865 8.059 27.97 24.71 29.291 43.354l2.745 38.747c-5.922-1.569-12.678-3.687-19.996-6.547-1.845-.721-3.057-2.506-3.057-4.487v-8.842c0-2.172-2.963-2.806-3.852-.825l-2.193 4.884c-1.12 2.494-4.089 3.565-6.536 2.346-8.238-4.101-16.872-9.135-25.597-15.322-1.093-.775-1.804-1.981-1.973-3.31l-2.372-18.676c-.21-1.661-2.238-2.354-3.422-1.17z" fill="url(#SVGID_79_)"/><path d="m265.971 254.558c7.912 10.7 16.267 19.906 24.77 27.874 1.901 1.779 4.868 1.743 6.714-.102l6.158-6.153c1.183-1.188 3.212-.489 3.421 1.167l2.37 18.678c.173 1.331.882 2.534 1.973 3.308 8.727 6.189 17.363 11.225 25.601 15.324 2.447 1.218 5.414.148 6.535-2.345l2.192-4.884c.892-1.983 3.854-1.346 3.854.826v-35.511c0-16.353-12.074-30.342-28.301-32.369-29.801-3.721-55.287 14.187-55.287 14.187z" fill="url(#SVGID_80_)"/><path d="m303.612 276.177-6.158 6.153c-1.845 1.845-4.812 1.881-6.714.102-8.503-7.968-16.858-17.174-24.77-27.874 0 0 7.503-5.271 19.127-9.499 9.202-3.347 19.091 2.913 20.034 12.659l1.9 19.626c-.207-1.656-2.236-2.355-3.419-1.167z" fill="url(#SVGID_81_)"/></g></g><g><g><circle cx="263.249" cy="275.792" fill="url(#SVGID_82_)" r="14.019"/><path d="m259.407 266.291c1.168 1.168.744 3.485-.946 5.175s-4.007 2.114-5.175.946-.744-3.485.946-5.175 4.007-2.114 5.175-.946z" fill="url(#SVGID_83_)"/><path d="m255.526 275.071c.805.805.756 2.158-.108 3.022s-2.217.913-3.022.108-.756-2.158.108-3.022 2.218-.912 3.022-.108z" fill="url(#SVGID_84_)"/><path d="m261.632 273.644c.805.805.756 2.158-.108 3.022s-2.217.913-3.022.108-.756-2.158.108-3.022 2.217-.912 3.022-.108z" fill="url(#SVGID_85_)"/></g><g><circle cx="274.675" cy="261.773" fill="url(#SVGID_86_)" r="14.019"/><path d="m270.833 252.271c1.168 1.168.744 3.485-.946 5.175s-4.007 2.114-5.175.946-.744-3.485.946-5.175 4.008-2.114 5.175-.946z" fill="url(#SVGID_87_)"/><path d="m266.952 261.052c.805.805.756 2.158-.108 3.022s-2.217.913-3.022.108-.756-2.158.108-3.022c.865-.864 2.218-.913 3.022-.108z" fill="url(#SVGID_88_)"/><path d="m273.058 259.625c.805.805.756 2.158-.108 3.022s-2.217.913-3.022.108-.756-2.158.108-3.022c.865-.864 2.218-.913 3.022-.108z" fill="url(#SVGID_89_)"/></g><g><circle cx="286.077" cy="279.129" fill="url(#SVGID_90_)" r="14.019"/><path d="m282.235 269.627c1.168 1.168.744 3.485-.946 5.175s-4.007 2.114-5.175.946-.744-3.485.946-5.175 4.008-2.114 5.175-.946z" fill="url(#SVGID_91_)"/><path d="m278.354 278.408c.805.805.756 2.158-.108 3.022s-2.217.913-3.022.108-.756-2.158.108-3.022c.865-.864 2.218-.913 3.022-.108z" fill="url(#SVGID_92_)"/><path d="m284.46 276.981c.805.805.756 2.158-.108 3.022s-2.217.913-3.022.108-.756-2.158.108-3.022c.865-.865 2.218-.913 3.022-.108z" fill="url(#SVGID_93_)"/></g></g></g></g><path d="m199.75 510h285.893c13.452-.003 24.357-10.909 24.357-24.362v-46.46c-189.782-38.383-310.25 70.822-310.25 70.822z" fill="url(#SVGID_94_)"/></g></svg>