<!--
  - Copyright (c) 2023. Selldone® Business OS™
  -
  - Author: M.Pajuhaan
  - Web: https://selldone.com
  - ━━━━━━━━━━━━━━━━━━━━━━━━━━━━━━━━━━━━━━━━━━━━━━━━━━━━━━
  -
  - All rights reserved. In the weave of time, where traditions and innovations intermingle, this content was crafted.
  - From the essence of thought, through the corridors of creativity, each word, and sentiment has been molded.
  - Not just to exist, but to inspire. Like an artist's stroke or a sculptor's chisel, every nuance is deliberate.
  - Our journey is not just about reaching a destination, but about creating a masterpiece.
  - Tread carefully, for you're treading on dreams.
  -->

<svg id="Capa_1" enable-background="new 0 0 510 510" height="512" viewBox="0 0 510 510" width="512" xmlns="http://www.w3.org/2000/svg" xmlns:xlink="http://www.w3.org/1999/xlink"><linearGradient id="SVGID_1_" gradientUnits="userSpaceOnUse" x1="255" x2="255" y1="34.721" y2="483.763"><stop offset="0" stop-color="#c7e9ff"/><stop offset=".3556" stop-color="#a3e6f2"/><stop offset="1" stop-color="#65e0db"/></linearGradient><linearGradient id="SVGID_2_" gradientUnits="userSpaceOnUse" x1="376.521" x2="467.701" y1="65.606" y2="156.787"><stop offset="0" stop-color="#ffd945"/><stop offset=".3043" stop-color="#ffcd3e"/><stop offset=".8558" stop-color="#ffad2b"/><stop offset="1" stop-color="#ffa325"/></linearGradient><linearGradient id="lg1"><stop offset="0" stop-color="#18cefb" stop-opacity="0"/><stop offset="1" stop-color="#0469bb"/></linearGradient><linearGradient id="SVGID_3_" gradientUnits="userSpaceOnUse" x1="493.6" x2="424.773" xlink:href="#lg1" y1="342.331" y2="275.689"/><linearGradient id="SVGID_4_" gradientUnits="userSpaceOnUse" x1="435.026" x2="361.829" xlink:href="#lg1" y1="364.693" y2="312.253"/><linearGradient id="lg2"><stop offset="0" stop-color="#798c00"/><stop offset="1" stop-color="#1b444f"/></linearGradient><linearGradient id="SVGID_5_" gradientUnits="userSpaceOnUse" x1="39.978" x2="107.686" xlink:href="#lg2" y1="415.976" y2="483.684"/><linearGradient id="lg3"><stop offset="0" stop-color="#1b444f" stop-opacity="0"/><stop offset="1" stop-color="#1b444f"/></linearGradient><linearGradient id="SVGID_6_" gradientUnits="userSpaceOnUse" x1="66.094" x2="109.657" xlink:href="#lg3" y1="424.869" y2="416.011"/><linearGradient id="SVGID_7_" gradientUnits="userSpaceOnUse" x1="74.92" x2="74.92" xlink:href="#lg3" y1="466.766" y2="486.961"/><linearGradient id="SVGID_8_" gradientUnits="userSpaceOnUse" x1="383.644" x2="451.352" xlink:href="#lg2" y1="423.657" y2="491.365"/><linearGradient id="SVGID_9_" gradientUnits="userSpaceOnUse" x1="409.76" x2="453.323" xlink:href="#lg3" y1="432.55" y2="423.692"/><linearGradient id="SVGID_10_" gradientUnits="userSpaceOnUse" x1="418.586" x2="418.586" xlink:href="#lg3" y1="474.448" y2="494.643"/><linearGradient id="SVGID_11_" gradientUnits="userSpaceOnUse" x1="235.372" x2="303.08" xlink:href="#lg2" y1="415.976" y2="483.684"/><linearGradient id="SVGID_12_" gradientUnits="userSpaceOnUse" x1="261.488" x2="305.051" xlink:href="#lg3" y1="424.869" y2="416.011"/><linearGradient id="SVGID_13_" gradientUnits="userSpaceOnUse" x1="270.314" x2="270.314" xlink:href="#lg3" y1="466.766" y2="486.961"/><linearGradient id="lg4"><stop offset="0" stop-color="#bada00"/><stop offset=".2187" stop-color="#b6d600"/><stop offset=".4501" stop-color="#acc900"/><stop offset=".6873" stop-color="#9ab400"/><stop offset=".9271" stop-color="#829700"/><stop offset="1" stop-color="#798c00"/></linearGradient><linearGradient id="SVGID_14_" gradientUnits="userSpaceOnUse" x1="352.934" x2="401.705" xlink:href="#lg4" y1="425.17" y2="473.941"/><linearGradient id="lg5"><stop offset="0" stop-color="#43765a" stop-opacity="0"/><stop offset="1" stop-color="#43765a"/></linearGradient><linearGradient id="SVGID_15_" gradientUnits="userSpaceOnUse" x1="371.746" x2="403.125" xlink:href="#lg5" y1="431.576" y2="425.195"/><linearGradient id="SVGID_16_" gradientUnits="userSpaceOnUse" x1="378.103" x2="378.103" xlink:href="#lg3" y1="461.755" y2="476.302"/><linearGradient id="SVGID_17_" gradientUnits="userSpaceOnUse" x1="103.998" x2="171.706" xlink:href="#lg4" y1="415.976" y2="483.684"/><linearGradient id="SVGID_18_" gradientUnits="userSpaceOnUse" x1="130.113" x2="173.676" xlink:href="#lg5" y1="424.869" y2="416.011"/><linearGradient id="SVGID_19_" gradientUnits="userSpaceOnUse" x1="138.94" x2="138.94" xlink:href="#lg3" y1="466.766" y2="486.961"/><linearGradient id="lg6"><stop offset="0" stop-color="#c59b6d"/><stop offset="1" stop-color="#8b6239"/></linearGradient><linearGradient id="SVGID_20_" gradientUnits="userSpaceOnUse" x1="102.365" x2="185.486" xlink:href="#lg6" y1="401.259" y2="401.259"/><linearGradient id="SVGID_21_" gradientUnits="userSpaceOnUse" x1="122.675" x2="88.623" xlink:href="#lg6" y1="423.106" y2="423.106"/><linearGradient id="SVGID_22_" gradientUnits="userSpaceOnUse" x1="169.543" x2="112.687" xlink:href="#lg6" y1="389.715" y2="389.715"/><linearGradient id="lg7"><stop offset="0" stop-color="#754c24" stop-opacity="0"/><stop offset="1" stop-color="#754c24"/></linearGradient><linearGradient id="SVGID_23_" gradientUnits="userSpaceOnUse" x1="123.716" x2="123.716" xlink:href="#lg7" y1="411.302" y2="361.265"/><linearGradient id="SVGID_24_" gradientUnits="userSpaceOnUse" x1="59.964" x2="204.971" xlink:href="#lg4" y1="259.761" y2="360.803"/><linearGradient id="SVGID_25_" gradientUnits="userSpaceOnUse" x1="137.223" x2="137.223" xlink:href="#lg5" y1="352.716" y2="277.661"/><linearGradient id="SVGID_26_" gradientUnits="userSpaceOnUse" x1="71.457" x2="190.322" xlink:href="#lg4" y1="206.647" y2="289.472"/><linearGradient id="SVGID_27_" gradientUnits="userSpaceOnUse" x1="138.601" x2="138.601" xlink:href="#lg5" y1="269.915" y2="202.965"/><linearGradient id="SVGID_28_" gradientUnits="userSpaceOnUse" x1="80.673" x2="178.576" xlink:href="#lg4" y1="147.552" y2="215.772"/><linearGradient id="SVGID_29_" gradientUnits="userSpaceOnUse" x1="301.981" x2="374.807" xlink:href="#lg6" y1="408.147" y2="408.147"/><linearGradient id="SVGID_30_" gradientUnits="userSpaceOnUse" x1="319.775" x2="289.941" xlink:href="#lg6" y1="427.287" y2="427.287"/><linearGradient id="SVGID_31_" gradientUnits="userSpaceOnUse" x1="360.838" x2="311.024" xlink:href="#lg6" y1="398.033" y2="398.033"/><linearGradient id="SVGID_32_" gradientUnits="userSpaceOnUse" x1="320.687" x2="320.687" xlink:href="#lg7" y1="416.946" y2="373.106"/><linearGradient id="SVGID_33_" gradientUnits="userSpaceOnUse" x1="264.831" x2="391.878" xlink:href="#lg4" y1="284.174" y2="372.701"/><linearGradient id="SVGID_34_" gradientUnits="userSpaceOnUse" x1="332.522" x2="332.522" xlink:href="#lg5" y1="365.616" y2="299.857"/><linearGradient id="SVGID_35_" gradientUnits="userSpaceOnUse" x1="274.901" x2="379.043" xlink:href="#lg4" y1="237.638" y2="310.206"/><linearGradient id="SVGID_36_" gradientUnits="userSpaceOnUse" x1="333.728" x2="333.728" xlink:href="#lg5" y1="293.07" y2="234.413"/><linearGradient id="SVGID_37_" gradientUnits="userSpaceOnUse" x1="282.975" x2="368.752" xlink:href="#lg4" y1="185.863" y2="245.633"/><linearGradient id="SVGID_38_" gradientUnits="userSpaceOnUse" x1="385.405" x2="257.298" xlink:href="#lg5" y1="318.356" y2="272.008"/><linearGradient id="SVGID_39_" gradientUnits="userSpaceOnUse" x1="189.45" x2="292.432" xlink:href="#lg6" y1="387.972" y2="387.972"/><linearGradient id="SVGID_40_" gradientUnits="userSpaceOnUse" x1="214.612" x2="172.425" xlink:href="#lg6" y1="415.039" y2="415.039"/><linearGradient id="SVGID_41_" gradientUnits="userSpaceOnUse" x1="272.679" x2="202.238" xlink:href="#lg6" y1="373.67" y2="373.67"/><linearGradient id="SVGID_42_" gradientUnits="userSpaceOnUse" x1="215.903" x2="215.903" xlink:href="#lg7" y1="400.414" y2="338.422"/><linearGradient id="SVGID_43_" gradientUnits="userSpaceOnUse" x1="136.917" x2="316.572" xlink:href="#lg4" y1="212.665" y2="337.85"/><linearGradient id="SVGID_44_" gradientUnits="userSpaceOnUse" x1="232.637" x2="232.637" xlink:href="#lg5" y1="327.83" y2="234.842"/><linearGradient id="SVGID_45_" gradientUnits="userSpaceOnUse" x1="151.157" x2="298.422" xlink:href="#lg4" y1="146.859" y2="249.475"/><linearGradient id="SVGID_46_" gradientUnits="userSpaceOnUse" x1="234.343" x2="234.343" xlink:href="#lg5" y1="225.245" y2="142.298"/><linearGradient id="SVGID_47_" gradientUnits="userSpaceOnUse" x1="162.575" x2="283.87" xlink:href="#lg4" y1="73.645" y2="158.165"/><linearGradient id="SVGID_48_" gradientUnits="userSpaceOnUse" x1="255" x2="255" y1="446.531" y2="522.51"><stop offset="0" stop-color="#ffce47"/><stop offset="1" stop-color="#f6921e"/></linearGradient><g><path d="m485.638 510h-461.276c-13.455 0-24.362-10.907-24.362-24.362v-461.276c0-13.455 10.907-24.362 24.362-24.362h461.275c13.456 0 24.363 10.907 24.363 24.362v461.275c0 13.456-10.907 24.363-24.362 24.363z" fill="url(#SVGID_1_)"/><circle cx="399.436" cy="88.522" fill="url(#SVGID_2_)" r="71.907"/><g><path d="m510 233.674v223.197h-31.923v-55.062c-5.146-.065-9.789-2.196-13.132-5.615-3.19-3.256-8.041-4.326-12.236-2.567-2.797 1.169-5.943 1.682-9.243 1.333-8.685-.918-15.71-7.986-16.584-16.682-.481-4.774.852-9.232 3.376-12.771l2.993-4.315 11.733-17.906c-3.223-2.513-5.452-6.282-5.878-10.521-.393-3.922.699-7.571 2.775-10.477l2.447-3.54 14.749-22.494c-5.386-1.038-9.614-5.583-10.16-11.111-.328-3.223.568-6.227 2.272-8.62l2.021-2.917 34.708-52.942c3.201-4.884 10.346-4.884 13.547 0z" fill="url(#SVGID_3_)"/><path d="m482.466 379.444c-.354-.467-.711-.931-1.033-1.421l-11.113-16.953c2.721-2.121 4.596-5.293 4.955-8.875.346-3.444-.666-6.64-2.557-9.134-.29-.383-.583-.763-.846-1.165l-13.434-20.491c4.54-.876 8.103-4.708 8.571-9.366.285-2.837-.549-5.469-2.106-7.524-.239-.315-.48-.629-.697-.96l-30.095-45.905c-2.697-4.114-8.728-4.114-11.425 0l-29.275 44.654-1.701 2.46c-1.439 2.016-2.196 4.551-1.923 7.275.468 4.658 4.031 8.49 8.571 9.366l-12.438 18.972-2.065 2.986c-1.747 2.448-2.667 5.526-2.334 8.832.36 3.582 2.234 6.754 4.955 8.875l-9.899 15.099-2.519 3.643c-2.131 2.986-3.253 6.741-2.848 10.774.737 7.336 6.655 13.292 13.987 14.068 2.78.294 5.43-.136 7.789-1.124 3.544-1.485 7.634-.581 10.32 2.167 2.82 2.885 6.737 4.683 11.079 4.733v46.438h28.024v-46.438c4.343-.05 8.26-1.848 11.079-4.733 2.686-2.748 6.776-3.652 10.32-2.167 2.359.988 5.009 1.419 7.789 1.124 7.332-.776 13.25-6.732 13.987-14.068.424-4.2-.811-8.1-3.118-11.142z" fill="url(#SVGID_4_)"/></g><g><g><g><path d="m103.823 414.859c-3.741 0-7.343.598-10.717 1.699-3.609-11.773-14.564-20.334-27.519-20.334-15.895 0-28.78 12.885-28.78 28.78 0 2.297.271 4.53.779 6.671-13.564.956-24.272 12.262-24.272 26.069 0 14.435 11.702 26.136 26.136 26.136h64.372c19.06 0 34.51-15.451 34.51-34.51.002-19.06-15.449-34.511-34.509-34.511z" fill="url(#SVGID_5_)"/><path d="m69.312 449.371c0 1.4.084 2.779.247 4.136-1.298.183-2.625.276-3.973.276-15.895 0-28.778-12.886-28.778-28.781 0-15.892 12.883-28.778 28.778-28.778 12.956 0 23.913 8.562 27.52 20.335-13.812 4.505-23.794 17.492-23.794 32.812z" fill="url(#SVGID_6_)"/><path d="m13.516 460.997c1.602 12.899 12.602 22.883 25.935 22.883h64.372c14.979 0 27.728-9.545 32.5-22.883z" fill="url(#SVGID_7_)"/></g></g></g><g><g><g><path d="m447.49 422.54c-3.741 0-7.343.598-10.717 1.699-3.609-11.773-14.564-20.334-27.519-20.334-15.895 0-28.78 12.885-28.78 28.78 0 2.297.271 4.53.779 6.671-13.564.956-24.272 12.262-24.272 26.069 0 14.435 11.702 26.136 26.136 26.136h64.372c19.06 0 34.51-15.451 34.51-34.51.001-19.06-15.45-34.511-34.509-34.511z" fill="url(#SVGID_8_)"/><path d="m412.978 457.052c0 1.4.084 2.779.247 4.136-1.298.183-2.625.276-3.973.276-15.895 0-28.778-12.886-28.778-28.78 0-15.892 12.883-28.778 28.778-28.778 12.956 0 23.913 8.562 27.52 20.335-13.812 4.504-23.794 17.491-23.794 32.811z" fill="url(#SVGID_9_)"/><path d="m357.182 468.678c1.602 12.899 12.602 22.883 25.935 22.883h64.372c14.979 0 27.728-9.545 32.5-22.883z" fill="url(#SVGID_10_)"/></g></g></g><g><g><g><path d="m299.218 414.859c-3.741 0-7.343.598-10.717 1.699-3.609-11.773-14.564-20.334-27.519-20.334-15.895 0-28.78 12.885-28.78 28.78 0 2.297.271 4.53.779 6.671-13.564.956-24.272 12.262-24.272 26.069 0 14.435 11.702 26.136 26.136 26.136h64.372c19.06 0 34.51-15.451 34.51-34.51.001-19.06-15.45-34.511-34.509-34.511z" fill="url(#SVGID_11_)"/><path d="m264.707 449.371c0 1.4.084 2.779.247 4.136-1.298.183-2.625.276-3.973.276-15.895 0-28.778-12.886-28.778-28.781 0-15.892 12.883-28.778 28.778-28.778 12.956 0 23.913 8.562 27.52 20.335-13.813 4.505-23.794 17.492-23.794 32.812z" fill="url(#SVGID_12_)"/><path d="m208.91 460.997c1.602 12.899 12.602 22.883 25.935 22.883h64.372c14.979 0 27.728-9.545 32.5-22.883z" fill="url(#SVGID_13_)"/></g></g></g><g><g><g><path d="m398.923 424.365c-2.695 0-5.289.431-7.719 1.224-2.599-8.48-10.49-14.647-19.823-14.647-11.449 0-20.73 9.281-20.73 20.73 0 1.654.195 3.263.561 4.805-9.771.689-17.483 8.832-17.483 18.778 0 10.398 8.429 18.826 18.826 18.826h46.368c13.729 0 24.858-11.129 24.858-24.858s-11.129-24.858-24.858-24.858z" fill="url(#SVGID_14_)"/><path d="m374.064 449.225c0 1.008.061 2.002.178 2.979-.935.132-1.891.199-2.862.199-11.449 0-20.729-9.282-20.729-20.731 0-11.447 9.28-20.729 20.729-20.729 9.332 0 17.225 6.167 19.823 14.648-9.949 3.244-17.139 12.599-17.139 23.634z" fill="url(#SVGID_15_)"/><path d="m333.873 457.599c1.154 9.292 9.077 16.483 18.681 16.483h46.368c10.79 0 19.973-6.875 23.41-16.483z" fill="url(#SVGID_16_)"/></g></g></g><g><g><g><path d="m167.843 414.859c-3.741 0-7.343.598-10.717 1.699-3.609-11.773-14.564-20.334-27.519-20.334-15.895 0-28.78 12.885-28.78 28.78 0 2.297.271 4.53.779 6.671-13.564.956-24.272 12.262-24.272 26.069 0 14.435 11.702 26.136 26.136 26.136h64.372c19.06 0 34.51-15.451 34.51-34.51.001-19.06-15.449-34.511-34.509-34.511z" fill="url(#SVGID_17_)"/><path d="m133.332 449.371c0 1.4.084 2.779.247 4.136-1.298.183-2.625.276-3.973.276-15.895 0-28.778-12.886-28.778-28.781 0-15.892 12.883-28.778 28.778-28.778 12.956 0 23.913 8.562 27.52 20.335-13.812 4.505-23.794 17.492-23.794 32.812z" fill="url(#SVGID_18_)"/><path d="m77.536 460.997c1.602 12.899 12.602 22.883 25.935 22.883h64.372c14.979 0 27.728-9.545 32.5-22.883z" fill="url(#SVGID_19_)"/></g></g></g><g><g><path d="m99.042 345.649h49.349v111.219h-49.349z" fill="url(#SVGID_20_)"/><path d="m120.592 456.868h-15.623v-59.714c0-4.314 3.497-7.811 7.811-7.811 4.314 0 7.811 3.497 7.811 7.811v59.714z" fill="url(#SVGID_21_)"/><path d="m127.361 383.441c3.739 0 6.77 3.031 6.77 6.77v36.8c0 3.739 3.031 6.77 6.77 6.77h.72c3.739 0 6.77-3.031 6.77-6.77v-81.362h-27.799v31.022c0 3.739 3.031 6.77 6.769 6.77z" fill="url(#SVGID_22_)"/></g><path d="m148.39 345.655v78.478l-49.025-49.024-.323 4.239v-33.693z" fill="url(#SVGID_23_)"/><g><path d="m217.109 318.022-78.494-119.731c-7.035-10.731-22.764-10.731-29.799 0l-76.354 116.469-4.435 6.415c-3.753 5.258-5.728 11.871-5.015 18.973 1.298 12.918 11.72 23.406 24.631 24.773 4.896.518 9.563-.24 13.717-1.98 6.241-2.615 13.443-1.022 18.173 3.817 5.036 5.152 12.056 8.351 19.834 8.351 5.664 0 10.93-1.695 15.322-4.605 5.456-3.615 12.602-3.615 18.057 0 4.392 2.91 9.658 4.605 15.322 4.605 7.778 0 14.798-3.199 19.834-8.351 4.73-4.839 11.932-6.431 18.173-3.817 4.154 1.74 8.82 2.498 13.717 1.98 12.911-1.366 23.333-11.855 24.631-24.773.743-7.398-1.431-14.265-5.493-19.623-.626-.822-1.255-1.64-1.821-2.503z" fill="url(#SVGID_24_)"/><path d="m224.421 340.145c-1.302 12.925-11.717 23.413-24.632 24.778-4.895.521-9.561-.24-13.717-1.979-6.239-2.614-13.446-1.021-18.175 3.812-5.031 5.155-12.05 8.353-19.831 8.353-5.666 0-10.926-1.698-15.321-4.603-.437-.292-.896-.562-1.354-.812l-81.51-81.51 58.929-89.894c7.041-10.728 22.768-10.728 29.808 0l78.489 119.733c.562.865 1.198 1.677 1.823 2.5 4.064 5.363 6.23 12.227 5.491 19.622z" fill="url(#SVGID_25_)"/><path d="m200.272 254.404-64.343-98.145c-5.767-8.796-18.66-8.796-24.426 0l-62.59 95.471-3.636 5.259c-3.077 4.31-4.696 9.731-4.111 15.553 1.064 10.589 9.607 19.186 20.19 20.307 4.013.425 7.839-.197 11.244-1.623 5.116-2.143 11.019-.838 14.897 3.129 4.128 4.223 9.883 6.845 16.258 6.845 4.643 0 8.96-1.39 12.56-3.775 4.472-2.963 10.33-2.963 14.802 0 3.6 2.385 7.917 3.775 12.56 3.775 6.376 0 12.13-2.622 16.258-6.845 3.877-3.967 9.781-5.272 14.897-3.129 3.405 1.427 7.23 2.048 11.244 1.623 10.583-1.12 19.126-9.717 20.19-20.307.609-6.064-1.173-11.693-4.503-16.086-.512-.674-1.027-1.344-1.491-2.052z" fill="url(#SVGID_26_)"/><path d="m206.267 272.54c-1.062 10.592-9.613 19.185-20.195 20.31-4.01.427-7.832-.198-11.238-1.625-5.114-2.145-11.019-.833-14.904 3.125-2.208 2.26-4.874 4.062-7.853 5.239l-81.26-81.27 40.682-62.054c5.77-8.801 18.664-8.801 24.434 0l64.335 98.143c.469.708.979 1.375 1.489 2.052 3.333 4.383 5.114 10.018 4.51 16.08z" fill="url(#SVGID_27_)"/><path d="m186.772 186.888-52.996-80.838c-4.75-7.245-15.369-7.245-20.119 0l-51.552 78.635-2.995 4.331c-2.534 3.55-3.868 8.015-3.386 12.81.876 8.722 7.913 15.803 16.63 16.726 3.306.35 6.456-.162 9.261-1.337 4.214-1.765 9.076-.69 12.27 2.577 3.4 3.478 8.14 5.638 13.391 5.638 3.824 0 7.38-1.145 10.345-3.109 3.683-2.441 8.508-2.441 12.192 0 2.965 1.965 6.521 3.109 10.345 3.109 5.251 0 9.991-2.16 13.391-5.638 3.194-3.267 8.056-4.342 12.27-2.577 2.805 1.175 5.955 1.687 9.261 1.337 8.717-.923 15.754-8.004 16.63-16.726.502-4.995-.966-9.631-3.709-13.249-.422-.554-.847-1.106-1.229-1.689z" fill="url(#SVGID_28_)"/></g></g><g><g><path d="m299.069 359.425h43.237v97.444h-43.237z" fill="url(#SVGID_29_)"/><path d="m317.95 456.868h-13.688v-52.318c0-3.78 3.064-6.844 6.844-6.844 3.78 0 6.844 3.064 6.844 6.844z" fill="url(#SVGID_30_)"/><path d="m323.881 392.535c3.276 0 5.931 2.656 5.931 5.931v32.242c0 3.276 2.656 5.931 5.931 5.931h.63c3.276 0 5.931-2.656 5.931-5.931v-71.285h-24.354v27.179c0 3.278 2.655 5.933 5.931 5.933z" fill="url(#SVGID_31_)"/></g><path d="m342.305 359.429v68.759l-42.953-42.953-.282 3.714v-29.52z" fill="url(#SVGID_32_)"/><g><path d="m402.513 335.219-68.772-104.901c-6.164-9.402-19.944-9.402-26.108 0l-66.898 102.043-3.886 5.621c-3.288 4.607-5.019 10.401-4.394 16.623 1.137 11.318 10.268 20.507 21.58 21.704 4.29.454 8.378-.21 12.018-1.735 5.468-2.291 11.778-.896 15.922 3.344 4.412 4.514 10.563 7.317 17.378 7.317 4.962 0 9.576-1.485 13.424-4.035 4.78-3.167 11.041-3.167 15.821 0 3.848 2.55 8.462 4.035 13.424 4.035 6.814 0 12.965-2.803 17.378-7.317 4.144-4.24 10.454-5.635 15.922-3.344 3.639 1.525 7.728 2.189 12.018 1.735 11.312-1.197 20.443-10.386 21.58-21.704.651-6.482-1.254-12.498-4.813-17.193-.547-.72-1.098-1.437-1.594-2.193z" fill="url(#SVGID_33_)"/><path d="m408.919 354.602c-1.141 11.325-10.266 20.514-21.581 21.709-4.289.456-8.377-.21-12.018-1.734-5.466-2.29-11.781-.894-15.924 3.34-4.407 4.517-10.558 7.318-17.374 7.318-4.964 0-9.572-1.487-13.423-4.033-.383-.256-.785-.493-1.186-.712l-71.414-71.414 51.631-78.76c6.169-9.399 19.948-9.399 26.116 0l68.768 104.904c.493.757 1.049 1.469 1.597 2.19 3.558 4.699 5.456 10.713 4.808 17.192z" fill="url(#SVGID_34_)"/><path d="m387.761 279.481-56.373-85.989c-5.052-7.707-16.349-7.707-21.401 0l-54.837 83.646-3.185 4.608c-2.696 3.777-4.114 8.526-3.602 13.626.932 9.278 8.417 16.81 17.689 17.791 3.516.372 6.868-.172 9.851-1.422 4.482-1.878 9.654-.734 13.052 2.741 3.617 3.7 8.659 5.998 14.245 5.998 4.068 0 7.85-1.217 11.004-3.307 3.918-2.596 9.051-2.596 12.969 0 3.154 2.09 6.936 3.307 11.004 3.307 5.586 0 10.628-2.297 14.245-5.998 3.397-3.475 8.569-4.619 13.052-2.741 2.983 1.25 6.335 1.794 9.851 1.422 9.273-.981 16.757-8.514 17.689-17.791.534-5.313-1.028-10.245-3.945-14.093-.45-.591-.902-1.178-1.308-1.798z" fill="url(#SVGID_35_)"/><path d="m393.014 295.37c-.931 9.28-8.423 16.809-17.694 17.794-3.513.374-6.862-.173-9.846-1.424-4.481-1.88-9.655-.73-13.058 2.738-1.935 1.98-4.271 3.559-6.88 4.59l-71.195-71.204 35.643-54.368c5.055-7.711 16.352-7.711 21.408 0l56.367 85.987c.411.621.858 1.204 1.305 1.798 2.919 3.841 4.479 8.778 3.95 14.089z" fill="url(#SVGID_36_)"/><path d="m375.933 220.327-46.432-70.825c-4.161-6.348-13.466-6.348-17.627 0l-45.167 68.896-2.624 3.795c-2.22 3.111-3.389 7.022-2.967 11.223.768 7.642 6.933 13.846 14.57 14.654 2.896.307 5.657-.142 8.114-1.171 3.692-1.547 7.952-.605 10.75 2.258 2.979 3.048 7.132 4.94 11.733 4.94 3.35 0 6.466-1.003 9.063-2.724 3.227-2.138 7.454-2.138 10.682 0 2.598 1.721 5.713 2.724 9.063 2.724 4.601 0 8.754-1.892 11.733-4.94 2.798-2.863 7.058-3.804 10.75-2.258 2.457 1.029 5.218 1.478 8.114 1.171 7.637-.808 13.802-7.012 14.57-14.654.44-4.376-.846-8.438-3.25-11.608-.368-.487-.74-.971-1.075-1.481z" fill="url(#SVGID_37_)"/></g></g><path d="m408.916 354.604c-1.135 11.321-10.269 20.508-21.58 21.705-4.291.458-8.374-.208-12.019-1.739-5.468-2.281-11.769-.896-15.915 3.354-4.416 4.51-10.561 7.312-17.383 7.312-4.958 0-9.572-1.489-13.425-4.031-4.781-3.166-11.04-3.166-15.821 0-3.843 2.541-8.457 4.031-13.425 4.031-6.812 0-12.957-2.802-17.373-7.312-4.145-4.249-10.457-5.635-15.925-3.354-3.635 1.531-7.728 2.198-12.019 1.739-11.311-1.198-20.435-10.384-21.58-21.705-.625-6.218 1.114-12.019 4.395-16.623l3.885-5.624 15.279-23.288c-4.197-3.281-7.093-8.166-7.645-13.696-.521-5.103.906-9.853 3.593-13.623l3.187-4.614 19.195-29.267c-7.009-1.354-12.498-7.27-13.227-14.456-.417-4.197.75-8.113 2.968-11.217l2.625-3.801 26.069-39.765 83.811 83.801 11.176 17.05c.406.625.854 1.208 1.302 1.802 2.916 3.843 4.479 8.78 3.947 14.092-.552 5.531-3.447 10.415-7.645 13.696l17.143 26.153c.5.75 1.052 1.469 1.594 2.187 3.564 4.695 5.47 10.714 4.813 17.193z" fill="url(#SVGID_38_)"/><g><g><path d="m185.332 319.075h61.141v137.793h-61.141z" fill="url(#SVGID_39_)"/><path d="m212.031 456.868h-19.356v-73.982c0-5.345 4.333-9.678 9.678-9.678 5.345 0 9.678 4.333 9.678 9.678z" fill="url(#SVGID_40_)"/><path d="m220.419 365.896c4.632 0 8.387 3.755 8.387 8.387v45.593c0 4.632 3.755 8.387 8.387 8.387h.891c4.632 0 8.387-3.755 8.387-8.387v-100.801h-34.441v38.434c.001 4.632 3.756 8.387 8.389 8.387z" fill="url(#SVGID_41_)"/></g><path d="m246.472 319.081v97.231l-60.739-60.739-.4 5.252v-41.744z" fill="url(#SVGID_42_)"/><g><path d="m331.611 284.847-97.249-148.339c-8.716-13.295-28.203-13.295-36.919 0l-94.599 144.297-5.495 7.948c-4.65 6.515-7.097 14.707-6.213 23.507 1.608 16.005 14.52 28.999 30.516 30.692 6.066.642 11.848-.297 16.994-2.453 7.733-3.24 16.655-1.267 22.515 4.729 6.24 6.383 14.937 10.346 24.573 10.346 7.017 0 13.542-2.1 18.983-5.706 6.759-4.479 15.613-4.479 22.372 0 5.441 3.605 11.966 5.706 18.983 5.706 9.636 0 18.334-3.963 24.573-10.346 5.861-5.995 14.783-7.968 22.515-4.729 5.146 2.156 10.928 3.095 16.994 2.453 15.996-1.693 28.908-14.687 30.516-30.692.921-9.166-1.773-17.673-6.806-24.312-.772-1.019-1.552-2.032-2.253-3.101z" fill="url(#SVGID_43_)"/><path d="m340.67 312.255c-1.613 16.014-14.517 29.008-30.518 30.698-6.065.645-11.846-.297-16.994-2.452-7.729-3.239-16.659-1.265-22.517 4.723-6.233 6.387-14.93 10.349-24.569 10.349-7.02 0-13.536-2.103-18.982-5.703-.542-.361-1.11-.697-1.677-1.007l-100.986-100.985 73.01-111.373c8.723-13.291 28.208-13.291 36.931 0l97.243 148.342c.697 1.071 1.484 2.078 2.258 3.097 5.033 6.646 7.717 15.15 6.801 24.311z" fill="url(#SVGID_44_)"/><path d="m310.75 206.028-79.716-121.596c-7.144-10.898-23.118-10.898-30.263 0l-77.544 118.283-4.504 6.515c-3.812 5.34-5.818 12.056-5.093 19.269 1.318 13.119 11.902 23.771 25.014 25.159 4.972.526 9.712-.244 13.93-2.011 6.339-2.656 13.652-1.038 18.456 3.876 5.115 5.232 12.244 8.481 20.143 8.481 5.752 0 11.1-1.722 15.56-4.677 5.541-3.671 12.798-3.671 18.339 0 4.46 2.955 9.808 4.677 15.56 4.677 7.899 0 15.029-3.249 20.143-8.481 4.804-4.914 12.117-6.532 18.456-3.876 4.219 1.767 8.958 2.537 13.93 2.011 13.112-1.388 23.696-12.039 25.014-25.159.755-7.513-1.453-14.487-5.579-19.929-.632-.835-1.271-1.666-1.846-2.542z" fill="url(#SVGID_45_)"/><path d="m318.178 228.496c-1.316 13.123-11.91 23.769-25.021 25.162-4.968.529-9.704-.245-13.923-2.013-6.336-2.658-13.652-1.032-18.465 3.871-2.736 2.8-6.039 5.033-9.73 6.491l-100.675-100.688 50.402-76.881c7.149-10.904 23.124-10.904 30.272 0l79.707 121.593c.581.878 1.213 1.703 1.845 2.542 4.13 5.433 6.337 12.413 5.588 19.923z" fill="url(#SVGID_46_)"/><path d="m294.024 122.379-65.659-100.153c-5.885-8.976-19.042-8.976-24.926 0l-63.87 97.424-3.71 5.366c-3.14 4.399-4.792 9.93-4.195 15.871 1.086 10.806 9.803 19.579 20.603 20.722 4.095.433 7.999-.201 11.474-1.656 5.221-2.187 11.245-.855 15.201 3.193 4.213 4.31 10.085 6.986 16.591 6.986 4.738 0 9.143-1.418 12.816-3.852 4.564-3.024 10.541-3.024 15.105 0 3.674 2.434 8.079 3.852 12.816 3.852 6.506 0 12.378-2.676 16.591-6.986 3.957-4.048 9.981-5.38 15.201-3.193 3.475 1.456 7.378 2.09 11.474 1.656 10.8-1.143 19.518-9.916 20.603-20.722.622-6.188-1.197-11.932-4.595-16.415-.52-.687-1.046-1.371-1.52-2.093z" fill="url(#SVGID_47_)"/></g></g><path d="m510 485.638v-40.233h-510v40.233c0 13.455 10.907 24.362 24.362 24.362h461.275c13.456 0 24.363-10.907 24.363-24.362z" fill="url(#SVGID_48_)"/></g></svg>