<!--
  - Copyright (c) 2023. Selldone® Business OS™
  -
  - Author: M.Pajuhaan
  - Web: https://selldone.com
  - ━━━━━━━━━━━━━━━━━━━━━━━━━━━━━━━━━━━━━━━━━━━━━━━━━━━━━━
  -
  - All rights reserved. In the weave of time, where traditions and innovations intermingle, this content was crafted.
  - From the essence of thought, through the corridors of creativity, each word, and sentiment has been molded.
  - Not just to exist, but to inspire. Like an artist's stroke or a sculptor's chisel, every nuance is deliberate.
  - Our journey is not just about reaching a destination, but about creating a masterpiece.
  - Tread carefully, for you're treading on dreams.
  -->

<svg id="Capa_1" enable-background="new 0 0 510 510" height="512" viewBox="0 0 510 510" width="512" xmlns="http://www.w3.org/2000/svg" xmlns:xlink="http://www.w3.org/1999/xlink"><linearGradient id="SVGID_1_" gradientUnits="userSpaceOnUse" x1="255" x2="255" y1="34.721" y2="483.763"><stop offset="0" stop-color="#c7e9ff"/><stop offset=".3556" stop-color="#a3e6f2"/><stop offset="1" stop-color="#65e0db"/></linearGradient><linearGradient id="lg1"><stop offset="0" stop-color="#18cefb" stop-opacity="0"/><stop offset="1" stop-color="#0469bb"/></linearGradient><linearGradient id="SVGID_2_" gradientUnits="userSpaceOnUse" x1="409.752" x2="409.752" xlink:href="#lg1" y1="367.557" y2="239.385"/><linearGradient id="SVGID_3_" gradientUnits="userSpaceOnUse" x1="237.752" x2="237.752" xlink:href="#lg1" y1="364.495" y2="263.678"/><linearGradient id="lg2"><stop offset="0" stop-color="#798c00"/><stop offset="1" stop-color="#1b444f"/></linearGradient><linearGradient id="SVGID_4_" gradientUnits="userSpaceOnUse" x1="135.737" x2="143.737" xlink:href="#lg2" y1="287.257" y2="366.757"/><linearGradient id="SVGID_5_" gradientUnits="userSpaceOnUse" x1="146.371" x2="167.501" xlink:href="#lg2" y1="338.898" y2="360.029"/><linearGradient id="lg3"><stop offset="0" stop-color="#1b444f" stop-opacity="0"/><stop offset="1" stop-color="#1b444f"/></linearGradient><linearGradient id="SVGID_6_" gradientUnits="userSpaceOnUse" x1="154.521" x2="168.116" xlink:href="#lg3" y1="341.674" y2="338.909"/><linearGradient id="SVGID_7_" gradientUnits="userSpaceOnUse" x1="157.275" x2="157.275" xlink:href="#lg3" y1="354.75" y2="361.052"/><linearGradient id="lg4"><stop offset="0" stop-color="#bada00"/><stop offset=".2187" stop-color="#b6d600"/><stop offset=".4501" stop-color="#acc900"/><stop offset=".6873" stop-color="#9ab400"/><stop offset=".9271" stop-color="#829700"/><stop offset="1" stop-color="#798c00"/></linearGradient><linearGradient id="SVGID_8_" gradientUnits="userSpaceOnUse" x1="167.501" x2="196.199" xlink:href="#lg4" y1="339.107" y2="367.806"/><linearGradient id="lg5"><stop offset="0" stop-color="#43765a" stop-opacity="0"/><stop offset="1" stop-color="#43765a"/></linearGradient><linearGradient id="SVGID_9_" gradientUnits="userSpaceOnUse" x1="178.57" x2="197.035" xlink:href="#lg5" y1="342.876" y2="339.122"/><linearGradient id="SVGID_10_" gradientUnits="userSpaceOnUse" x1="182.311" x2="182.311" xlink:href="#lg5" y1="360.635" y2="369.195"/><linearGradient id="SVGID_11_" gradientUnits="userSpaceOnUse" x1="76.919" x2="103.347" xlink:href="#lg2" y1="333.585" y2="360.014"/><linearGradient id="SVGID_12_" gradientUnits="userSpaceOnUse" x1="87.112" x2="104.116" xlink:href="#lg3" y1="337.057" y2="333.599"/><linearGradient id="SVGID_13_" gradientUnits="userSpaceOnUse" x1="90.557" x2="90.557" xlink:href="#lg3" y1="353.411" y2="361.293"/><linearGradient id="SVGID_14_" gradientUnits="userSpaceOnUse" x1="104.643" x2="130.543" xlink:href="#lg4" y1="338.291" y2="364.191"/><linearGradient id="SVGID_15_" gradientUnits="userSpaceOnUse" x1="114.633" x2="131.297" xlink:href="#lg5" y1="341.692" y2="338.304"/><linearGradient id="SVGID_16_" gradientUnits="userSpaceOnUse" x1="118.009" x2="118.009" xlink:href="#lg5" y1="357.72" y2="365.445"/><linearGradient id="SVGID_17_" gradientUnits="userSpaceOnUse" x1="8.321" x2="29.452" xlink:href="#lg2" y1="338.898" y2="360.029"/><linearGradient id="SVGID_18_" gradientUnits="userSpaceOnUse" x1="16.472" x2="30.067" xlink:href="#lg3" y1="341.674" y2="338.909"/><linearGradient id="SVGID_19_" gradientUnits="userSpaceOnUse" x1="19.226" x2="19.226" xlink:href="#lg3" y1="354.75" y2="361.052"/><linearGradient id="SVGID_20_" gradientUnits="userSpaceOnUse" x1="29.451" x2="58.15" xlink:href="#lg4" y1="339.107" y2="367.806"/><linearGradient id="SVGID_21_" gradientUnits="userSpaceOnUse" x1="40.521" x2="58.985" xlink:href="#lg5" y1="342.876" y2="339.122"/><linearGradient id="SVGID_22_" gradientUnits="userSpaceOnUse" x1="44.262" x2="44.262" xlink:href="#lg5" y1="360.635" y2="369.195"/><linearGradient id="SVGID_23_" gradientUnits="userSpaceOnUse" x1="255" x2="255" y1="362.507" y2="505.774"><stop offset="0" stop-color="#18cefb"/><stop offset="1" stop-color="#4a97f6"/></linearGradient><linearGradient id="lg6"><stop offset="0" stop-color="#4a97f6" stop-opacity="0"/><stop offset="1" stop-color="#0469bb"/></linearGradient><linearGradient id="SVGID_24_" gradientUnits="userSpaceOnUse" x1="252.98" x2="275.053" xlink:href="#lg6" y1="452.628" y2="331.757"/><linearGradient id="SVGID_25_" gradientUnits="userSpaceOnUse" x1="253.085" x2="269.664" xlink:href="#lg6" y1="477.42" y2="386.633"/><linearGradient id="SVGID_26_" gradientUnits="userSpaceOnUse" x1="130.557" x2="130.557" y1="534.354" y2="444.346"><stop offset="0" stop-color="#fff5d9"/><stop offset="1" stop-color="#fff5d9" stop-opacity="0"/></linearGradient><linearGradient id="SVGID_27_" gradientUnits="userSpaceOnUse" x1="344.135" x2="379.468" xlink:href="#lg4" y1="276.059" y2="356.726"/><linearGradient id="SVGID_28_" gradientUnits="userSpaceOnUse" x1="431.049" x2="362.285" xlink:href="#lg5" y1="312.879" y2="381.643"/><linearGradient id="SVGID_29_" gradientUnits="userSpaceOnUse" x1="143.66" x2="143.66" xlink:href="#lg6" y1="441.21" y2="348.187"/><linearGradient id="SVGID_30_" gradientUnits="userSpaceOnUse" x1="377.928" x2="377.928" y1="449.209" y2="354.779"><stop offset="0" stop-color="#7acbff" stop-opacity="0"/><stop offset="1" stop-color="#2f73a0"/></linearGradient><linearGradient id="SVGID_31_" gradientUnits="userSpaceOnUse" x1="434.988" x2="360.321" xlink:href="#lg6" y1="393.528" y2="350.195"/><linearGradient id="SVGID_32_" gradientUnits="userSpaceOnUse" x1="255" x2="255" y1="444.964" y2="531.601"><stop offset="0" stop-color="#c59b6d"/><stop offset="1" stop-color="#8b6239"/></linearGradient><linearGradient id="lg7"><stop offset="0" stop-color="#754c24" stop-opacity="0"/><stop offset="1" stop-color="#754c24"/></linearGradient><linearGradient id="SVGID_33_" gradientUnits="userSpaceOnUse" x1="255" x2="255" xlink:href="#lg7" y1="456.001" y2="369.883"/><linearGradient id="SVGID_34_" gradientUnits="userSpaceOnUse" x1="255" x2="255" xlink:href="#lg7" y1="483" y2="439.941"/><linearGradient id="lg8"><stop offset="0" stop-color="#edf5ff"/><stop offset="1" stop-color="#c7e9ff"/></linearGradient><linearGradient id="SVGID_35_" gradientUnits="userSpaceOnUse" x1="160.454" x2="196.657" xlink:href="#lg8" y1="38.053" y2="74.257"/><linearGradient id="SVGID_36_" gradientUnits="userSpaceOnUse" x1="407.859" x2="481.324" xlink:href="#lg8" y1="51.142" y2="124.607"/><linearGradient id="SVGID_37_" gradientUnits="userSpaceOnUse" x1="62.431" x2="148.883" xlink:href="#lg8" y1="80.899" y2="167.351"/><linearGradient id="SVGID_38_" gradientUnits="userSpaceOnUse" x1="109.224" x2="194.109" y1="147.761" y2="232.647"><stop offset="0" stop-color="#ffd945"/><stop offset=".3043" stop-color="#ffcd3e"/><stop offset=".8558" stop-color="#ffad2b"/><stop offset="1" stop-color="#ffa325"/></linearGradient><linearGradient id="SVGID_39_" gradientUnits="userSpaceOnUse" x1="333.743" x2="369.947" xlink:href="#lg8" y1="73.931" y2="110.135"/><linearGradient id="lg9"><stop offset="0" stop-color="#2f73a0"/><stop offset="1" stop-color="#174461"/></linearGradient><linearGradient id="SVGID_40_" gradientUnits="userSpaceOnUse" x1="259.361" x2="259.361" xlink:href="#lg9" y1="151.088" y2="178.355"/><linearGradient id="SVGID_41_" gradientUnits="userSpaceOnUse" x1="275.072" x2="275.072" xlink:href="#lg9" y1="199.845" y2="227.112"/><linearGradient id="SVGID_42_" gradientUnits="userSpaceOnUse" x1="335.891" x2="335.891" xlink:href="#lg9" y1="170.346" y2="197.613"/><g><path d="m485.638 510h-461.276c-13.455 0-24.362-10.907-24.362-24.362v-461.276c0-13.455 10.907-24.362 24.362-24.362h461.275c13.456 0 24.363 10.907 24.363 24.362v461.275c0 13.456-10.907 24.363-24.362 24.363z" fill="url(#SVGID_1_)"/><path d="m510 289.842-12.917-9.46c-27.698-20.286-61.57-20.209-89.214.201l-98.365 72.626h200.496z" fill="url(#SVGID_2_)"/><path d="m279.083 295.925c-27.698-15.956-61.57-15.896-89.214.158l-98.365 57.126h292.496z" fill="url(#SVGID_3_)"/><g><path d="m284.748 353.209s-110.853-93.802-284.748-57.366v57.366z" fill="url(#SVGID_4_)"/><g><g><g><g><path d="m166.296 338.55c-1.168 0-2.292.187-3.344.53-1.126-3.674-4.545-6.346-8.588-6.346-4.96 0-8.982 4.021-8.982 8.982 0 .717.084 1.414.243 2.082-4.233.298-7.575 3.827-7.575 8.136 0 4.505 3.652 8.157 8.157 8.157h20.09c5.948 0 10.77-4.822 10.77-10.77-.001-5.949-4.823-10.771-10.771-10.771z" fill="url(#SVGID_5_)"/><path d="m155.525 349.321c0 .437.026.867.077 1.291-.405.057-.819.086-1.24.086-4.961 0-8.981-4.022-8.981-8.982s4.021-8.981 8.981-8.981c4.043 0 7.463 2.672 8.589 6.346-4.311 1.405-7.426 5.458-7.426 10.24z" fill="url(#SVGID_6_)"/><path d="m138.112 352.949c.5 4.026 3.933 7.142 8.094 7.142h20.09c4.675 0 8.653-2.979 10.143-7.142z" fill="url(#SVGID_7_)"/></g></g></g><g><g><g><path d="m194.562 338.633c-1.586 0-3.112.253-4.542.72-1.53-4.99-6.173-8.619-11.664-8.619-6.737 0-12.198 5.461-12.198 12.198 0 .973.115 1.92.33 2.828-5.749.405-10.288 5.197-10.288 11.05 0 6.118 4.96 11.078 11.078 11.078h27.285c8.079 0 14.628-6.549 14.628-14.628s-6.55-14.627-14.629-14.627z" fill="url(#SVGID_8_)"/><path d="m179.934 353.262c0 .593.036 1.178.105 1.753-.55.078-1.113.117-1.684.117-6.737 0-12.198-5.462-12.198-12.199 0-6.736 5.461-12.198 12.198-12.198 5.491 0 10.136 3.629 11.665 8.619-5.855 1.909-10.086 7.414-10.086 13.908z" fill="url(#SVGID_9_)"/><path d="m156.284 358.189c.679 5.467 5.341 9.699 10.993 9.699h27.285c6.349 0 11.753-4.046 13.776-9.699z" fill="url(#SVGID_10_)"/></g></g></g></g><g><g><g><g><path d="m101.839 333.149c-1.46 0-2.866.233-4.183.663-1.409-4.595-5.685-7.937-10.742-7.937-6.204 0-11.234 5.029-11.234 11.234 0 .896.106 1.768.304 2.604-5.295.373-9.474 4.786-9.474 10.176 0 5.634 4.567 10.202 10.202 10.202h25.126c7.44 0 13.47-6.031 13.47-13.47.002-7.441-6.029-13.472-13.469-13.472z" fill="url(#SVGID_11_)"/><path d="m88.369 346.62c0 .546.033 1.085.096 1.614-.507.071-1.025.108-1.551.108-6.204 0-11.233-5.03-11.233-11.234 0-6.203 5.029-11.233 11.233-11.233 5.057 0 9.334 3.342 10.742 7.937-5.391 1.759-9.287 6.829-9.287 12.808z" fill="url(#SVGID_12_)"/><path d="m66.59 351.158c.625 5.035 4.919 8.932 10.123 8.932h25.126c5.847 0 10.823-3.726 12.686-8.932z" fill="url(#SVGID_13_)"/></g></g></g><g><g><g><path d="m129.066 337.863c-1.431 0-2.809.229-4.099.65-1.38-4.504-5.571-7.779-10.527-7.779-6.08 0-11.009 4.929-11.009 11.009 0 .879.104 1.733.298 2.552-5.189.366-9.285 4.691-9.285 9.973 0 5.522 4.476 9.998 9.998 9.998h24.625c7.291 0 13.201-5.91 13.201-13.201-.001-7.291-5.911-13.202-13.202-13.202z" fill="url(#SVGID_14_)"/><path d="m115.864 351.065c0 .535.032 1.063.094 1.582-.497.07-1.004.106-1.52.106-6.08 0-11.008-4.929-11.008-11.01 0-6.079 4.928-11.008 11.008-11.008 4.956 0 9.148 3.275 10.527 7.779-5.283 1.723-9.101 6.691-9.101 12.551z" fill="url(#SVGID_15_)"/><path d="m94.52 355.513c.613 4.934 4.821 8.754 9.921 8.754h24.625c5.73 0 10.607-3.651 12.433-8.754z" fill="url(#SVGID_16_)"/></g></g></g></g><g><g><g><g><path d="m28.247 338.55c-1.168 0-2.292.187-3.345.53-1.126-3.674-4.545-6.346-8.588-6.346-4.96 0-8.982 4.021-8.982 8.982 0 .717.084 1.414.243 2.082-4.233.298-7.575 3.826-7.575 8.136 0 4.505 3.652 8.157 8.157 8.157h20.09c5.948 0 10.77-4.822 10.77-10.77 0-5.949-4.822-10.771-10.77-10.771z" fill="url(#SVGID_17_)"/><path d="m17.476 349.321c0 .437.026.867.077 1.291-.405.057-.819.086-1.24.086-4.961 0-8.981-4.022-8.981-8.982s4.021-8.981 8.981-8.981c4.043 0 7.463 2.672 8.589 6.346-4.311 1.405-7.426 5.458-7.426 10.24z" fill="url(#SVGID_18_)"/><path d="m.063 352.949c.5 4.026 3.933 7.142 8.094 7.142h20.09c4.675 0 8.653-2.979 10.143-7.142z" fill="url(#SVGID_19_)"/></g></g></g><g><g><g><path d="m56.513 338.633c-1.586 0-3.112.253-4.542.72-1.53-4.99-6.173-8.619-11.664-8.619-6.737 0-12.198 5.461-12.198 12.198 0 .973.115 1.92.33 2.828-5.749.405-10.288 5.197-10.288 11.05 0 6.118 4.96 11.078 11.078 11.078h27.285c8.079 0 14.628-6.549 14.628-14.628s-6.551-14.627-14.629-14.627z" fill="url(#SVGID_20_)"/><path d="m41.885 353.262c0 .593.036 1.178.105 1.753-.55.078-1.113.117-1.684.117-6.737 0-12.198-5.462-12.198-12.199 0-6.736 5.461-12.198 12.198-12.198 5.491 0 10.136 3.629 11.665 8.619-5.855 1.909-10.086 7.414-10.086 13.908z" fill="url(#SVGID_21_)"/><path d="m18.235 358.189c.679 5.467 5.341 9.699 10.993 9.699h27.285c6.349 0 11.753-4.046 13.776-9.699z" fill="url(#SVGID_22_)"/></g></g></g></g></g><path d="m510 485.638v-132.429h-510v132.429c0 13.455 10.907 24.362 24.362 24.362h461.275c13.456 0 24.363-10.907 24.363-24.362z" fill="url(#SVGID_23_)"/><path d="m510 485.638v-90.369h-510v90.369c0 13.455 10.907 24.362 24.362 24.362h461.275c13.456 0 24.363-10.907 24.363-24.362z" fill="url(#SVGID_24_)"/><path d="m510 485.638v-39.638h-510v39.638c0 13.455 10.907 24.362 24.362 24.362h461.275c13.456 0 24.363-10.907 24.363-24.362z" fill="url(#SVGID_25_)"/><path d="m63.896 510h133.322c-3.038-34.157-31.714-60.939-66.661-60.939-34.946 0-63.623 26.782-66.661 60.939z" fill="url(#SVGID_26_)"/><g><path d="m432.055 301.724h-31.985c-10.114 0-19.814-3.328-26.965-9.253-14.892-12.337-39.038-12.337-53.93 0l-73.319 60.738h264.144l-50.98-42.232c-7.152-5.925-16.852-9.253-26.965-9.253z" fill="url(#SVGID_27_)"/><path d="m459.02 310.977c-7.152-5.924-16.851-9.253-26.965-9.253h-31.985c-10.01 0-19.73-3.167-26.753-9.075-8.737-7.35-20.726-10.397-32.166-9.153l43.061 35.672c7.548 6.252 17.784 9.765 28.458 9.765 10.674 0 20.91 3.513 28.458 9.765l17.517 14.511h51.355z" fill="url(#SVGID_28_)"/></g><g><path d="m287.32 387.559c-49.32 22.33-188.4 43.74-287.32 23.02v-57.37h245.86z" fill="url(#SVGID_29_)"/><g><path d="m432.055 404.694h-31.985c-10.114 0-19.814 3.328-26.965 9.253-14.892 12.337-39.038 12.337-53.93 0l-73.319-60.738h264.144l-50.98 42.232c-7.152 5.925-16.852 9.253-26.965 9.253z" fill="url(#SVGID_30_)"/><path d="m459.02 395.441c-7.152 5.924-16.851 9.253-26.965 9.253h-31.985c-10.01 0-19.73 3.167-26.753 9.075-8.737 7.35-20.726 10.397-32.166 9.153l43.061-35.672c7.548-6.252 17.784-9.765 28.458-9.765 10.674 0 20.91-3.513 28.458-9.765l17.517-14.511h51.355z" fill="url(#SVGID_31_)"/></g></g><g><path d="m382.667 510h-255.334l59.297-106.802c2.809-5.059 6.731-7.929 10.836-7.929h115.068c4.105 0 8.027 2.87 10.836 7.929z" fill="url(#SVGID_32_)"/><path d="m127.333 510h255.334l-47.598-85.73h-160.138z" fill="url(#SVGID_33_)"/><path d="m127.333 510h255.334l-23.799-42.865h-207.736z" fill="url(#SVGID_34_)"/></g><path d="m186.141 63.973h-33.178c-9.29 0-16.821-7.531-16.821-16.821 0-9.29 7.531-16.821 16.821-16.821h33.178c9.29 0 16.821 7.531 16.821 16.821 0 9.29-7.531 16.821-16.821 16.821z" fill="url(#SVGID_35_)"/><path d="m470.227 49.179h-30.967c.009-.232.035-.46.035-.694 0-9.29-7.531-16.821-16.821-16.821h-33.178c-9.29 0-16.821 7.531-16.821 16.821 0 9.29 7.531 16.821 16.821 16.821h10.348c-.896 2.529-1.388 5.249-1.388 8.086 0 3.45.726 6.729 2.027 9.699-6.842 2.133-11.808 8.517-11.808 16.061 0 9.29 7.531 16.821 16.821 16.821h33.178c9.29 0 16.821-7.531 16.821-16.821 0-.522-.031-1.037-.078-1.547h15.01c13.372 0 24.213-10.84 24.213-24.213 0-13.372-10.84-24.213-24.213-24.213z" fill="url(#SVGID_36_)"/><path d="m129.606 89.312h-11.749c0-14.706-11.922-26.627-26.627-26.627h-52.52c-14.706 0-26.627 11.922-26.627 26.627s11.922 26.627 26.627 26.627h11.748c0 14.706 11.922 26.627 26.627 26.627h52.52c14.706 0 26.627-11.922 26.627-26.627.001-14.705-11.92-26.627-26.626-26.627z" fill="url(#SVGID_37_)"/><circle cx="130.557" cy="169.095" fill="url(#SVGID_38_)" r="66.943"/><g><path d="m359.43 99.851h-33.178c-9.29 0-16.821-7.531-16.821-16.821 0-9.29 7.531-16.821 16.821-16.821h33.178c9.29 0 16.821 7.531 16.821 16.821 0 9.29-7.531 16.821-16.821 16.821z" fill="url(#SVGID_39_)"/></g><g><g><path d="m259.365 178.354c-3.941 0-7.679-1.916-10-5.125-3.552-4.911-9.266-10.765-16.317-10.765-3.141 0-5.688-2.547-5.688-5.688s2.547-5.688 5.688-5.688c9.384 0 18.214 5.351 25.535 15.475.4.553 1.164.55 1.563 0 7.312-10.124 16.139-15.475 25.528-15.475 3.141 0 5.688 2.547 5.688 5.688s-2.547 5.688-5.688 5.688c-7.054 0-12.761 5.851-16.306 10.76-2.32 3.212-6.058 5.13-10 5.131-.001-.001-.002-.001-.003-.001z" fill="url(#SVGID_40_)"/><path d="m275.075 227.112c-3.941 0-7.678-1.915-9.999-5.124-3.552-4.912-9.266-10.767-16.317-10.767-3.141 0-5.688-2.547-5.688-5.688s2.547-5.688 5.688-5.688c9.384 0 18.214 5.351 25.535 15.476.397.55 1.164.552 1.563-.001 7.312-10.124 16.139-15.475 25.528-15.475 3.141 0 5.688 2.547 5.688 5.688s-2.547 5.688-5.688 5.688c-7.053 0-12.76 5.851-16.306 10.76-2.32 3.211-6.057 5.129-9.999 5.131-.002 0-.004 0-.005 0z" fill="url(#SVGID_41_)"/><path d="m335.896 197.613c-3.941 0-7.679-1.916-10-5.125-3.552-4.912-9.266-10.766-16.318-10.766-3.141 0-5.688-2.547-5.688-5.688s2.547-5.688 5.688-5.688c9.384 0 18.214 5.351 25.535 15.475.4.552 1.164.553 1.563 0 7.312-10.124 16.139-15.475 25.528-15.475 3.141 0 5.688 2.547 5.688 5.688s-2.547 5.688-5.688 5.688c-7.053 0-12.76 5.851-16.306 10.76-2.32 3.212-6.058 5.129-10 5.131 0 0-.001 0-.002 0z" fill="url(#SVGID_42_)"/></g></g></g></svg>