<svg id="Capa_1" enable-background="new 0 0 510 510" height="512" viewBox="0 0 510 510" width="512" xmlns="http://www.w3.org/2000/svg" xmlns:xlink="http://www.w3.org/1999/xlink"><linearGradient id="SVGID_1_" gradientUnits="userSpaceOnUse" x1="255" x2="255" y1="34.721" y2="483.763"><stop offset="0" stop-color="#c7e9ff"/><stop offset=".3556" stop-color="#a3e6f2"/><stop offset="1" stop-color="#65e0db"/></linearGradient><linearGradient id="SVGID_2_" gradientUnits="userSpaceOnUse" x1="384.815" x2="379.089" y1="338.061" y2="381.722"><stop offset="0" stop-color="#6fa953"/><stop offset="1" stop-color="#43765a"/></linearGradient><linearGradient id="lg1"><stop offset="0" stop-color="#bada00"/><stop offset=".2187" stop-color="#b6d600"/><stop offset=".4501" stop-color="#acc900"/><stop offset=".6873" stop-color="#9ab400"/><stop offset=".9271" stop-color="#829700"/><stop offset="1" stop-color="#798c00"/></linearGradient><linearGradient id="SVGID_3_" gradientUnits="userSpaceOnUse" x1="121.484" x2="146.515" xlink:href="#lg1" y1="261.478" y2="335.18"/><linearGradient id="SVGID_4_" gradientUnits="userSpaceOnUse" x1="255" x2="255" xlink:href="#lg1" y1="391.308" y2="486.986"/><linearGradient id="SVGID_5_" gradientUnits="userSpaceOnUse" x1="331.789" x2="331.789" y1="413.807" y2="480.414"><stop offset="0" stop-color="#c6b198"/><stop offset="1" stop-color="#988575"/></linearGradient><linearGradient id="lg2"><stop offset="0" stop-color="#754c24" stop-opacity="0"/><stop offset="1" stop-color="#754c24"/></linearGradient><linearGradient id="SVGID_6_" gradientUnits="userSpaceOnUse" x1="376.905" x2="376.905" xlink:href="#lg2" y1="484.541" y2="405.16"/><linearGradient id="lg3"><stop offset="0" stop-color="#edf5ff"/><stop offset="1" stop-color="#c7e9ff"/></linearGradient><linearGradient id="SVGID_7_" gradientUnits="userSpaceOnUse" x1="289.798" x2="294.594" xlink:href="#lg3" y1="387.535" y2="426.582"/><linearGradient id="SVGID_8_" gradientUnits="userSpaceOnUse" x1="59.515" x2="118.115" xlink:href="#lg3" y1="41.709" y2="100.309"/><linearGradient id="SVGID_9_" gradientUnits="userSpaceOnUse" x1="277.452" x2="363.904" xlink:href="#lg3" y1="141.711" y2="228.163"/><linearGradient id="SVGID_10_" gradientUnits="userSpaceOnUse" x1="405.505" x2="490.39" y1="61.761" y2="146.647"><stop offset="0" stop-color="#ffd945"/><stop offset=".3043" stop-color="#ffcd3e"/><stop offset=".8558" stop-color="#ffad2b"/><stop offset="1" stop-color="#ffa325"/></linearGradient><linearGradient id="lg4"><stop offset="0" stop-color="#798c00"/><stop offset="1" stop-color="#1b444f"/></linearGradient><linearGradient id="SVGID_11_" gradientUnits="userSpaceOnUse" x1="161.772" x2="200.96" xlink:href="#lg4" y1="355.129" y2="394.317"/><linearGradient id="lg5"><stop offset="0" stop-color="#1b444f" stop-opacity="0"/><stop offset="1" stop-color="#1b444f"/></linearGradient><linearGradient id="SVGID_12_" gradientUnits="userSpaceOnUse" x1="176.887" x2="202.1" xlink:href="#lg5" y1="360.276" y2="355.149"/><linearGradient id="SVGID_13_" gradientUnits="userSpaceOnUse" x1="181.995" x2="181.995" xlink:href="#lg5" y1="384.526" y2="396.214"/><linearGradient id="lg6"><stop offset="0" stop-color="#c59b6d"/><stop offset="1" stop-color="#8b6239"/></linearGradient><linearGradient id="SVGID_14_" gradientUnits="userSpaceOnUse" x1="81.528" x2="189.972" xlink:href="#lg6" y1="317.671" y2="352.499"/><linearGradient id="SVGID_15_" gradientUnits="userSpaceOnUse" x1="144.156" x2="78.456" xlink:href="#lg2" y1="331.588" y2="312.986"/><linearGradient id="SVGID_16_" gradientUnits="userSpaceOnUse" x1="152.551" x2="125.864" xlink:href="#lg2" y1="288.396" y2="216.09"/><linearGradient id="SVGID_17_" gradientUnits="userSpaceOnUse" x1="157.118" x2="130.205" xlink:href="#lg6" y1="304.874" y2="304.874"/><linearGradient id="SVGID_18_" gradientUnits="userSpaceOnUse" x1="50.385" x2="65.439" xlink:href="#lg1" y1="203.601" y2="266.555"/><linearGradient id="SVGID_19_" gradientUnits="userSpaceOnUse" x1="178.629" x2="226.37" xlink:href="#lg1" y1="119.45" y2="167.191"/><linearGradient id="SVGID_20_" gradientUnits="userSpaceOnUse" x1="244.058" x2="153.048" xlink:href="#lg1" y1="135.169" y2="254.919"/><linearGradient id="SVGID_21_" gradientUnits="userSpaceOnUse" x1="78.343" x2="186.29" xlink:href="#lg1" y1="133.858" y2="241.806"/><linearGradient id="SVGID_22_" gradientUnits="userSpaceOnUse" x1="129.414" x2="86.121" xlink:href="#lg6" y1="363.439" y2="363.439"/><linearGradient id="SVGID_23_" gradientUnits="userSpaceOnUse" x1="137.07" x2="95.117" xlink:href="#lg2" y1="397.115" y2="352.392"/><linearGradient id="SVGID_24_" gradientUnits="userSpaceOnUse" x1="227.842" x2="227.842" xlink:href="#lg2" y1="507.209" y2="451.892"/><linearGradient id="SVGID_25_" gradientUnits="userSpaceOnUse" x1="209.154" x2="224.925" xlink:href="#lg6" y1="475.051" y2="490.822"/><linearGradient id="SVGID_26_" gradientUnits="userSpaceOnUse" x1="161.309" x2="200.382" xlink:href="#lg1" y1="393.316" y2="432.39"/><linearGradient id="lg7"><stop offset="0" stop-color="#43765a" stop-opacity="0"/><stop offset="1" stop-color="#43765a"/></linearGradient><linearGradient id="SVGID_27_" gradientUnits="userSpaceOnUse" x1="176.38" x2="201.52" xlink:href="#lg7" y1="398.448" y2="393.336"/><linearGradient id="SVGID_28_" gradientUnits="userSpaceOnUse" x1="181.473" x2="181.473" xlink:href="#lg7" y1="422.627" y2="434.281"/><linearGradient id="SVGID_29_" gradientUnits="userSpaceOnUse" x1="55.583" x2="94.656" xlink:href="#lg1" y1="393.316" y2="432.39"/><linearGradient id="SVGID_30_" gradientUnits="userSpaceOnUse" x1="70.654" x2="95.793" xlink:href="#lg7" y1="398.448" y2="393.336"/><linearGradient id="SVGID_31_" gradientUnits="userSpaceOnUse" x1="75.747" x2="75.747" xlink:href="#lg7" y1="422.627" y2="434.281"/><linearGradient id="SVGID_32_" gradientUnits="userSpaceOnUse" x1="114.458" x2="146.368" xlink:href="#lg1" y1="400.501" y2="432.41"/><linearGradient id="SVGID_33_" gradientUnits="userSpaceOnUse" x1="126.766" x2="147.296" xlink:href="#lg7" y1="404.692" y2="400.517"/><linearGradient id="SVGID_34_" gradientUnits="userSpaceOnUse" x1="130.926" x2="130.926" xlink:href="#lg7" y1="424.438" y2="433.955"/><linearGradient id="SVGID_35_" gradientUnits="userSpaceOnUse" x1="266.788" x2="276.406" xlink:href="#lg6" y1="319.379" y2="319.379"/><linearGradient id="SVGID_36_" gradientUnits="userSpaceOnUse" x1="436.8" x2="446.418" xlink:href="#lg6" y1="319.379" y2="319.379"/><linearGradient id="lg8"><stop offset="0" stop-color="#ffce47"/><stop offset="1" stop-color="#ff9356"/></linearGradient><linearGradient id="SVGID_37_" gradientUnits="userSpaceOnUse" x1="351.923" x2="360.84" xlink:href="#lg8" y1="274.784" y2="328.282"/><linearGradient id="SVGID_38_" gradientUnits="userSpaceOnUse" x1="340.642" x2="340.642" xlink:href="#lg8" y1="317.386" y2="295.052"/><linearGradient id="SVGID_39_" gradientUnits="userSpaceOnUse" x1="422.922" x2="422.922" xlink:href="#lg8" y1="308.386" y2="286.719"/><linearGradient id="SVGID_40_" gradientUnits="userSpaceOnUse" x1="351.923" x2="360.84" xlink:href="#lg8" y1="316.326" y2="369.824"/><linearGradient id="SVGID_41_" gradientUnits="userSpaceOnUse" x1="340.642" x2="340.642" xlink:href="#lg8" y1="358.928" y2="336.594"/><linearGradient id="SVGID_42_" gradientUnits="userSpaceOnUse" x1="422.922" x2="422.922" xlink:href="#lg8" y1="349.928" y2="328.261"/><linearGradient id="SVGID_43_" gradientUnits="userSpaceOnUse" x1="267.188" x2="291.037" xlink:href="#lg6" y1="403.097" y2="403.097"/><linearGradient id="SVGID_44_" gradientUnits="userSpaceOnUse" x1="425.028" x2="448.876" xlink:href="#lg6" y1="403.097" y2="403.097"/><linearGradient id="SVGID_45_" gradientUnits="userSpaceOnUse" x1="381.34" x2="409.051" xlink:href="#lg4" y1="402.455" y2="430.166"/><linearGradient id="SVGID_46_" gradientUnits="userSpaceOnUse" x1="392.028" x2="409.858" xlink:href="#lg5" y1="406.095" y2="402.469"/><linearGradient id="SVGID_47_" gradientUnits="userSpaceOnUse" x1="395.641" x2="395.641" xlink:href="#lg5" y1="423.243" y2="431.508"/><linearGradient id="SVGID_48_" gradientUnits="userSpaceOnUse" x1="409.05" x2="446.686" xlink:href="#lg1" y1="402.728" y2="440.364"/><linearGradient id="SVGID_49_" gradientUnits="userSpaceOnUse" x1="423.567" x2="447.782" xlink:href="#lg7" y1="407.671" y2="402.748"/><linearGradient id="SVGID_50_" gradientUnits="userSpaceOnUse" x1="428.473" x2="428.473" xlink:href="#lg7" y1="430.961" y2="442.186"/><linearGradient id="SVGID_51_" gradientUnits="userSpaceOnUse" x1="290.259" x2="324.918" xlink:href="#lg4" y1="395.487" y2="430.146"/><linearGradient id="SVGID_52_" gradientUnits="userSpaceOnUse" x1="303.627" x2="325.926" xlink:href="#lg5" y1="400.04" y2="395.505"/><linearGradient id="SVGID_53_" gradientUnits="userSpaceOnUse" x1="308.145" x2="308.145" xlink:href="#lg5" y1="421.487" y2="431.824"/><linearGradient id="SVGID_54_" gradientUnits="userSpaceOnUse" x1="326.617" x2="360.583" xlink:href="#lg1" y1="401.658" y2="435.625"/><linearGradient id="SVGID_55_" gradientUnits="userSpaceOnUse" x1="339.718" x2="361.572" xlink:href="#lg7" y1="406.119" y2="401.675"/><linearGradient id="SVGID_56_" gradientUnits="userSpaceOnUse" x1="344.146" x2="344.146" xlink:href="#lg7" y1="427.138" y2="437.269"/><linearGradient id="SVGID_57_" gradientUnits="userSpaceOnUse" x1="239.41" x2="263.258" xlink:href="#lg6" y1="410.825" y2="410.825"/><linearGradient id="SVGID_58_" gradientUnits="userSpaceOnUse" x1="452.806" x2="476.654" xlink:href="#lg6" y1="410.825" y2="410.825"/><linearGradient id="SVGID_59_" gradientUnits="userSpaceOnUse" x1="352.024" x2="360.694" xlink:href="#lg8" y1="352.25" y2="404.271"/><linearGradient id="SVGID_60_" gradientUnits="userSpaceOnUse" x1="355.557" x2="355.557" y1="376.12" y2="394.932"><stop offset="0" stop-color="#843561" stop-opacity="0"/><stop offset="1" stop-color="#3a2f4d"/></linearGradient><g><path d="m485.638 510h-461.276c-13.455 0-24.362-10.907-24.362-24.362v-461.276c0-13.455 10.907-24.362 24.362-24.362h461.275c13.456 0 24.363 10.907 24.363 24.362v461.275c0 13.456-10.907 24.363-24.362 24.363z" fill="url(#SVGID_1_)"/><g><g><path d="m510 333.608c-137.058-18.701-258 33.546-258 33.546h258z" fill="url(#SVGID_2_)"/><path d="m0 367.153h314.748s-144.848-90.455-314.748-59.191z" fill="url(#SVGID_3_)"/></g><path d="m510 485.638v-118.485h-510v118.484c0 13.456 10.907 24.363 24.362 24.363h461.275c13.456 0 24.363-10.907 24.363-24.362z" fill="url(#SVGID_4_)"/><path d="m510 485.638v-118.485h-136.051c-90.805 0-174.751 54.415-220.371 142.846h332.06c13.455.001 24.362-10.906 24.362-24.361z" fill="url(#SVGID_5_)"/><path d="m510 461v24.64c0 13.45-10.91 24.36-24.36 24.36h-176.52l-65.31-65.31 17.71-12.55c10.24-7.26 22.48-11.16 35.03-11.16h173.43z" fill="url(#SVGID_6_)"/><path d="m153.578 510c45.62-88.431 129.566-142.846 220.371-142.846h-13.397c-102.276 0-196.827 54.415-248.209 142.846h384.991z" fill="url(#SVGID_7_)"/></g><path d="m105.048 47.412h-7.964c0-9.968-8.081-18.049-18.049-18.049h-35.6c-9.968 0-18.049 8.081-18.049 18.049s8.081 18.049 18.049 18.049h7.963c0 9.968 8.081 18.049 18.049 18.049h35.6c9.968 0 18.049-8.081 18.049-18.049.001-9.968-8.08-18.049-18.048-18.049z" fill="url(#SVGID_8_)"/><path d="m357.646 124.948h-59.291c-11.669 0-21.613 7.385-25.414 17.737h-38.398c-14.706 0-26.627 11.922-26.627 26.627 0 14.706 11.922 26.627 26.627 26.627h11.748c0 14.706 11.922 26.627 26.627 26.627h52.52c14.706 0 26.627-11.922 26.627-26.627 0-5.089-1.43-9.844-3.906-13.888h9.486c14.948 0 27.065-12.117 27.065-27.065v-2.974c.001-14.947-12.117-27.064-27.064-27.064z" fill="url(#SVGID_9_)"/><circle cx="426.838" cy="83.095" fill="url(#SVGID_10_)" r="66.943"/><g><g><g><path d="m198.724 354.482c-2.166 0-4.25.346-6.203.983-2.089-6.814-8.429-11.769-15.928-11.769-9.2 0-16.657 7.458-16.657 16.657 0 1.329.157 2.622.451 3.861-7.851.553-14.048 7.097-14.048 15.089 0 8.355 6.773 15.127 15.127 15.127h37.258c11.031 0 19.974-8.943 19.974-19.974s-8.942-19.974-19.974-19.974z" fill="url(#SVGID_11_)"/><path d="m178.75 374.457c0 .81.049 1.609.143 2.394-.751.106-1.52.16-2.299.16-9.2 0-16.656-7.458-16.656-16.658 0-9.198 7.457-16.656 16.656-16.656 7.498 0 13.841 4.955 15.928 11.77-7.995 2.606-13.772 10.123-13.772 18.99z" fill="url(#SVGID_12_)"/><path d="m146.456 381.186c.927 7.466 7.294 13.244 15.011 13.244h37.258c8.67 0 16.048-5.524 18.811-13.244z" fill="url(#SVGID_13_)"/></g></g></g><g><g><g><path d="m187.675 401.599c-21.056-5.564-35.511-67.3-35.511-89.078v-13.549c0-5.781 2.296-11.324 6.384-15.412l23.971-23.971-9.524-9.524-20.831 20.831v-37.206h-50.835v51.939l-35.563-35.563-9.524 9.524 38.703 38.703c4.088 4.088 6.384 9.631 6.384 15.412 0 20.803-13.222 81.826-32.991 88.303-2.631.862-4.169 1.956-4.169 3.341v3.812c0 5.922 3.165 10.966 7.494 11.986 16.801 3.958 36.274 6.223 57.038 6.223 20.765 0 40.238-2.265 57.038-6.223 4.329-1.02 7.494-6.064 7.494-11.986v-3.812c.001-1.615-2.086-2.833-5.558-3.75z" fill="url(#SVGID_14_)"/><path d="m187.675 401.599c-21.056-5.564-35.511-67.3-35.511-89.078v-13.549c0-5.781 2.296-11.324 6.384-15.412l23.971-23.971-9.524-9.524-20.831 20.831v-37.206h-36.999v73.61c0 6.766 2.391 13.315 6.752 18.489 4.36 5.174 6.752 11.723 6.752 18.489v83.092c20.777.002 40.261-2.263 57.071-6.223 4.329-1.02 7.494-6.064 7.494-11.986v-3.812c0-1.615-2.087-2.833-5.559-3.75z" fill="url(#SVGID_15_)"/><path d="m152.164 270.895v-37.206h-50.835v25.93l50.835 50.835v-11.482c0-5.781 2.296-11.325 6.384-15.412l23.971-23.971-9.524-9.524z" fill="url(#SVGID_16_)"/><path d="m147.659 329.213c-1.422-14.842-2.08-32.311-.796-45.83.493-5.19-4.244-9.334-9.326-8.169-3.651.837-6.164 4.189-5.93 7.927.817 13.051 3.397 31.561 6.055 47.384.481 2.863 3.272 4.726 6.102 4.078 2.468-.566 4.136-2.87 3.895-5.39z" fill="url(#SVGID_17_)"/><g><circle cx="52.82" cy="213.786" fill="url(#SVGID_18_)" r="52.82"/><circle cx="196.656" cy="137.477" fill="url(#SVGID_19_)" r="38.399"/><circle cx="193.234" cy="202.042" fill="url(#SVGID_20_)" r="64.565"/><circle cx="119.103" cy="174.619" fill="url(#SVGID_21_)" r="86.823"/></g></g></g><path d="m106.682 338.183c-1.928 14.785-5.189 31.959-9.459 44.85-1.639 4.949 2.053 10.046 7.266 10.046 3.745 0 6.943-2.706 7.55-6.402 2.119-12.904 3.738-31.522 4.68-47.539.17-2.898-2.134-5.337-5.037-5.337-2.532-.002-4.673 1.871-5 4.382z" fill="url(#SVGID_22_)"/><path d="m187.675 401.599c-10.8-2.854-19.862-20.485-26.128-39.923-1.277-3.96-4.94-6.661-9.101-6.661-8.13 0-14.721 6.591-14.721 14.721v6.272c0 5.275-4.276 9.551-9.551 9.551-4.891 0-8.998 3.699-9.497 8.565-1.759 17.164-8.574 27.298-13.121 32.285 7.476.629 15.215.961 23.145.961 20.765 0 40.238-2.265 57.038-6.223 4.329-1.02 7.494-6.064 7.494-11.986v-3.812c.001-1.615-2.086-2.833-5.558-3.75z" fill="url(#SVGID_23_)"/></g><g><path d="m231.003 484.346h-31.975l25.654 25.654h31.975z" fill="url(#SVGID_24_)"/><path d="m201.643 485.978h25.971c4.47 0 6.708-5.404 3.548-8.565l-4.193-4.193c-2.61-2.61-6.15-4.076-9.841-4.076h-4.486c-7.686 0-13.917 6.231-13.917 13.917.002 1.611 1.308 2.917 2.918 2.917z" fill="url(#SVGID_25_)"/></g><g><g><g><path d="m198.153 392.672c-2.159 0-4.237.345-6.184.98-2.083-6.794-8.405-11.735-15.881-11.735-9.173 0-16.608 7.436-16.608 16.608 0 1.325.156 2.614.449 3.85-7.828.552-14.007 7.076-14.007 15.044 0 8.33 6.753 15.083 15.083 15.083h37.149c10.999 0 19.916-8.917 19.916-19.916s-8.918-19.914-19.917-19.914z" fill="url(#SVGID_26_)"/><path d="m178.237 412.588c0 .808.049 1.604.142 2.387-.749.106-1.515.159-2.293.159-9.173 0-16.607-7.436-16.607-16.609 0-9.171 7.435-16.607 16.607-16.607 7.477 0 13.8 4.941 15.882 11.735-7.97 2.599-13.731 10.094-13.731 18.935z" fill="url(#SVGID_27_)"/><path d="m146.038 419.297c.924 7.444 7.272 13.206 14.967 13.206h37.149c8.644 0 16.001-5.508 18.756-13.206z" fill="url(#SVGID_28_)"/></g></g></g><g><g><g><path d="m92.427 392.672c-2.159 0-4.237.345-6.184.98-2.083-6.794-8.405-11.735-15.881-11.735-9.173 0-16.608 7.436-16.608 16.608 0 1.325.156 2.614.449 3.85-7.828.552-14.007 7.076-14.007 15.044 0 8.33 6.753 15.083 15.083 15.083h37.149c10.999 0 19.916-8.917 19.916-19.916s-8.918-19.914-19.917-19.914z" fill="url(#SVGID_29_)"/><path d="m72.511 412.588c0 .808.049 1.604.142 2.387-.749.106-1.515.159-2.293.159-9.173 0-16.607-7.436-16.607-16.609 0-9.171 7.435-16.607 16.607-16.607 7.476 0 13.8 4.941 15.882 11.735-7.971 2.599-13.731 10.094-13.731 18.935z" fill="url(#SVGID_30_)"/><path d="m40.312 419.297c.924 7.444 7.272 13.206 14.967 13.206h37.149c8.644 0 16.001-5.508 18.756-13.206z" fill="url(#SVGID_31_)"/></g></g></g><g><g><g><path d="m144.547 399.974c-1.763 0-3.461.282-5.051.801-1.701-5.549-6.864-9.583-12.969-9.583-7.491 0-13.563 6.073-13.563 13.563 0 1.082.128 2.135.367 3.144-6.393.451-11.439 5.779-11.439 12.286 0 6.803 5.515 12.318 12.318 12.318h30.338c8.982 0 16.264-7.282 16.264-16.264 0-8.983-7.282-16.265-16.265-16.265z" fill="url(#SVGID_32_)"/><path d="m128.283 416.239c0 .66.04 1.31.116 1.949-.612.086-1.237.13-1.872.13-7.491 0-13.562-6.073-13.562-13.564 0-7.49 6.072-13.562 13.562-13.562 6.106 0 11.27 4.035 12.97 9.584-6.51 2.122-11.214 8.243-11.214 15.463z" fill="url(#SVGID_33_)"/><path d="m101.987 421.718c.755 6.079 5.939 10.784 12.223 10.784h30.338c7.06 0 13.068-4.498 15.317-10.784z" fill="url(#SVGID_34_)"/></g></g></g><g><g><path d="m278.788 366.51h-16.475v-90.943c0-1.833 1.486-3.319 3.319-3.319h9.837c1.833 0 3.319 1.486 3.319 3.319z" fill="url(#SVGID_35_)"/><path d="m448.8 366.51h-16.475v-90.943c0-1.833 1.486-3.319 3.319-3.319h9.837c1.833 0 3.319 1.486 3.319 3.319z" fill="url(#SVGID_36_)"/></g><g><g><path d="m453.98 313.649h-196.846c-5.321 0-9.634-4.313-9.634-9.634v-14.864c0-5.321 4.313-9.634 9.634-9.634h196.846c5.321 0 9.634 4.313 9.634 9.634v14.864c-.001 5.321-4.314 9.634-9.634 9.634z" fill="url(#SVGID_37_)"/><path d="m416.728 306.585h-103.013c-3.83 0-7.504-1.522-10.212-4.23-2.708-2.708-6.382-4.23-10.212-4.23h-45.791v5.891c0 5.321 4.313 9.634 9.634 9.634h176.65c-4.524-4.524-10.659-7.065-17.056-7.065z" fill="url(#SVGID_38_)"/><path d="m388.356 300.166h75.257v-11.014c0-.42-.03-.833-.082-1.238h-75.175c-3.384 0-6.126 2.743-6.126 6.126 0 3.384 2.743 6.126 6.126 6.126z" fill="url(#SVGID_39_)"/></g><g><path d="m453.98 355.191h-196.846c-5.321 0-9.634-4.313-9.634-9.634v-14.863c0-5.321 4.313-9.634 9.634-9.634h196.846c5.321 0 9.634 4.313 9.634 9.634v14.863c-.001 5.321-4.314 9.634-9.634 9.634z" fill="url(#SVGID_40_)"/><path d="m416.728 348.127h-103.013c-3.83 0-7.504-1.522-10.212-4.23-2.708-2.708-6.382-4.23-10.212-4.23h-45.791v5.891c0 5.321 4.313 9.634 9.634 9.634h176.65c-4.524-4.524-10.659-7.065-17.056-7.065z" fill="url(#SVGID_41_)"/><path d="m388.356 341.708h75.257v-11.014c0-.42-.03-.833-.082-1.238h-75.175c-3.384 0-6.126 2.743-6.126 6.126 0 3.384 2.743 6.126 6.126 6.126z" fill="url(#SVGID_42_)"/></g></g><g><g><path d="m276.637 431.094c4.307 0 7.798-3.491 7.798-7.798v-48.196h-15.596v48.196c0 4.307 3.491 7.798 7.798 7.798z" fill="url(#SVGID_43_)"/><path d="m434.476 431.094c4.307 0 7.798-3.491 7.798-7.798v-48.196h-15.596v48.196c0 4.307 3.492 7.798 7.798 7.798z" fill="url(#SVGID_44_)"/><g><g><g><g><g><path d="m407.47 401.998c-1.531 0-3.005.245-4.386.695-1.477-4.819-5.961-8.322-11.263-8.322-6.505 0-11.779 5.274-11.779 11.779 0 .94.111 1.854.319 2.73-5.552.391-9.934 5.018-9.934 10.67 0 5.908 4.789 10.697 10.697 10.697h26.346c7.801 0 14.124-6.324 14.124-14.124s-6.323-14.125-14.124-14.125z" fill="url(#SVGID_45_)"/><path d="m393.345 416.123c0 .573.034 1.138.101 1.693-.531.075-1.075.113-1.626.113-6.505 0-11.778-5.274-11.778-11.779 0-6.504 5.273-11.778 11.778-11.778 5.302 0 9.787 3.504 11.263 8.323-5.652 1.842-9.738 7.158-9.738 13.428z" fill="url(#SVGID_46_)"/><path d="m370.509 420.881c.656 5.279 5.158 9.366 10.615 9.366h26.346c6.131 0 11.348-3.906 13.302-9.366z" fill="url(#SVGID_47_)"/></g></g></g><g><g><g><path d="m444.539 402.107c-2.08 0-4.082.332-5.957.944-2.006-6.544-8.095-11.303-15.297-11.303-8.835 0-15.997 7.162-15.997 15.997 0 1.277.15 2.518.433 3.708-7.54.531-13.492 6.816-13.492 14.491 0 8.024 6.504 14.528 14.528 14.528h35.782c10.594 0 19.183-8.588 19.183-19.183 0-10.593-8.588-19.182-19.183-19.182z" fill="url(#SVGID_48_)"/><path d="m425.356 421.291c0 .778.047 1.545.137 2.299-.722.102-1.459.153-2.208.153-8.835 0-15.996-7.163-15.996-15.998 0-8.834 7.161-15.996 15.996-15.996 7.201 0 13.292 4.759 15.297 11.303-7.678 2.504-13.226 9.724-13.226 18.239z" fill="url(#SVGID_49_)"/><path d="m394.341 427.754c.89 7.17 7.005 12.72 14.416 12.72h35.782c8.326 0 15.413-5.305 18.066-12.72z" fill="url(#SVGID_50_)"/></g></g></g></g><g><g><g><g><path d="m322.94 394.916c-1.915 0-3.759.306-5.486.87-1.847-6.027-7.455-10.409-14.087-10.409-8.136 0-14.732 6.596-14.732 14.732 0 1.176.138 2.319.399 3.415-6.943.489-12.425 6.277-12.425 13.345 0 7.389 5.99 13.379 13.379 13.379h32.951c9.756 0 17.665-7.909 17.665-17.665.002-9.758-7.907-17.667-17.664-17.667z" fill="url(#SVGID_51_)"/><path d="m305.274 412.582c0 .717.043 1.423.126 2.117-.665.094-1.344.141-2.034.141-8.136 0-14.731-6.596-14.731-14.732 0-8.135 6.595-14.731 14.731-14.731 6.632 0 12.241 4.383 14.087 10.409-7.069 2.306-12.179 8.954-12.179 16.796z" fill="url(#SVGID_52_)"/><path d="m276.713 418.533c.82 6.603 6.451 11.714 13.276 11.714h32.951c7.668 0 14.193-4.886 16.637-11.714z" fill="url(#SVGID_53_)"/></g></g></g><g><g><g><path d="m358.646 401.098c-1.877 0-3.684.3-5.376.852-1.81-5.906-7.306-10.201-13.806-10.201-7.974 0-14.438 6.464-14.438 14.438 0 1.152.136 2.272.391 3.347-6.805.48-12.176 6.151-12.176 13.078 0 7.241 5.87 13.112 13.112 13.112h32.293c9.562 0 17.313-7.751 17.313-17.313-.001-9.562-7.752-17.313-17.313-17.313z" fill="url(#SVGID_54_)"/><path d="m341.332 418.411c0 .702.042 1.394.124 2.075-.651.092-1.317.138-1.993.138-7.974 0-14.437-6.464-14.437-14.438 0-7.972 6.463-14.437 14.437-14.437 6.499 0 11.996 4.295 13.806 10.201-6.929 2.26-11.937 8.776-11.937 16.461z" fill="url(#SVGID_55_)"/><path d="m313.341 424.243c.804 6.471 6.322 11.48 13.011 11.48h32.293c7.515 0 13.91-4.788 16.304-11.48z" fill="url(#SVGID_56_)"/></g></g></g></g></g></g><g><path d="m248.859 446.551c4.307 0 7.798-3.491 7.798-7.798v-63.653h-15.596v63.654c0 4.306 3.491 7.797 7.798 7.797z" fill="url(#SVGID_57_)"/><path d="m462.255 446.551c4.307 0 7.798-3.491 7.798-7.798v-63.653h-15.596v63.654c0 4.306 3.491 7.797 7.798 7.797z" fill="url(#SVGID_58_)"/></g><g><path d="m472.778 386.486h-234.443c-3.989 0-7.222-3.233-7.222-7.222v-11.633c0-3.989 3.233-7.222 7.222-7.222h234.443c3.989 0 7.222 3.233 7.222 7.222v11.633c0 3.989-3.233 7.222-7.222 7.222z" fill="url(#SVGID_59_)"/><path d="m231.113 369.695v9.569c0 3.988 3.233 7.222 7.222 7.222h234.443c3.989 0 7.222-3.233 7.222-7.222v-9.569z" fill="url(#SVGID_60_)"/></g></g></g></g></svg>