

<svg id="Capa_1" enable-background="new 0 0 510 510" height="512" viewBox="0 0 510 510" width="512" xmlns="http://www.w3.org/2000/svg" xmlns:xlink="http://www.w3.org/1999/xlink"><linearGradient id="SVGID_1_" gradientUnits="userSpaceOnUse" x1="255" x2="255" y1="34.721" y2="483.763"><stop offset="0" stop-color="#c7e9ff"/><stop offset=".3556" stop-color="#a3e6f2"/><stop offset="1" stop-color="#65e0db"/></linearGradient><linearGradient id="lg1"><stop offset="0" stop-color="#798c00"/><stop offset="1" stop-color="#1b444f"/></linearGradient><linearGradient id="SVGID_2_" gradientUnits="userSpaceOnUse" x1="478.91" x2="506.167" xlink:href="#lg1" y1="375.529" y2="422.61"/><linearGradient id="SVGID_3_" gradientUnits="userSpaceOnUse" x1="496" x2="451.254" xlink:href="#lg1" y1="424.08" y2="424.08"/><linearGradient id="lg2"><stop offset="0" stop-color="#ffd945"/><stop offset=".3043" stop-color="#ffcd3e"/><stop offset=".8558" stop-color="#ffad2b"/><stop offset="1" stop-color="#ffa325"/></linearGradient><linearGradient id="SVGID_4_" gradientUnits="userSpaceOnUse" x1="324.781" x2="409.667" xlink:href="#lg2" y1="58.32" y2="143.205"/><linearGradient id="lg3"><stop offset="0" stop-color="#edf5ff"/><stop offset="1" stop-color="#c7e9ff"/></linearGradient><linearGradient id="SVGID_5_" gradientUnits="userSpaceOnUse" x1="83.543" x2="108.209" xlink:href="#lg3" y1="77.717" y2="121.05"/><linearGradient id="SVGID_6_" gradientUnits="userSpaceOnUse" x1="167.276" x2="198.9" xlink:href="#lg3" y1="19.549" y2="51.173"/><linearGradient id="lg4"><stop offset="0" stop-color="#c7e9ff"/><stop offset="1" stop-color="#7acbff"/></linearGradient><linearGradient id="SVGID_7_" gradientUnits="userSpaceOnUse" x1="218.783" x2="234.797" xlink:href="#lg4" y1="79.876" y2="79.876"/><linearGradient id="SVGID_8_" gradientUnits="userSpaceOnUse" x1="51.769" x2="109.866" xlink:href="#lg3" y1="219.19" y2="269.493"/><linearGradient id="SVGID_9_" gradientUnits="userSpaceOnUse" x1="100.378" x2="237.862" xlink:href="#lg4" y1="242.507" y2="354.412"/><linearGradient id="lg5"><stop offset="0" stop-color="#2f73a0" stop-opacity="0"/><stop offset="1" stop-color="#2f73a0"/></linearGradient><linearGradient id="SVGID_10_" gradientUnits="userSpaceOnUse" x1="139.488" x2="139.488" xlink:href="#lg5" y1="512.426" y2="396.28"/><linearGradient id="lg6"><stop offset="0" stop-color="#ffce47"/><stop offset="1" stop-color="#ff9356"/></linearGradient><linearGradient id="SVGID_11_" gradientUnits="userSpaceOnUse" x1="127.512" x2="147.432" xlink:href="#lg6" y1="453.668" y2="507.113"/><linearGradient id="lg7"><stop offset="0" stop-color="#fff5d9"/><stop offset="1" stop-color="#ffce47"/></linearGradient><linearGradient id="SVGID_12_" gradientUnits="userSpaceOnUse" x1="89.025" x2="108.979" xlink:href="#lg7" y1="454.507" y2="505.357"/><linearGradient id="SVGID_13_" gradientUnits="userSpaceOnUse" x1="139.488" x2="139.488" xlink:href="#lg5" y1="443.005" y2="326.86"/><linearGradient id="SVGID_14_" gradientUnits="userSpaceOnUse" x1="127.512" x2="147.432" xlink:href="#lg6" y1="384.247" y2="437.692"/><linearGradient id="SVGID_15_" gradientUnits="userSpaceOnUse" x1="89.025" x2="108.979" xlink:href="#lg7" y1="385.087" y2="435.936"/><linearGradient id="SVGID_16_" gradientUnits="userSpaceOnUse" x1="139.488" x2="139.488" xlink:href="#lg5" y1="373.584" y2="257.439"/><linearGradient id="SVGID_17_" gradientUnits="userSpaceOnUse" x1="127.512" x2="147.432" xlink:href="#lg6" y1="314.827" y2="368.271"/><linearGradient id="SVGID_18_" gradientUnits="userSpaceOnUse" x1="89.025" x2="108.979" xlink:href="#lg7" y1="315.666" y2="366.516"/><linearGradient id="SVGID_19_" gradientUnits="userSpaceOnUse" x1="139.488" x2="139.488" xlink:href="#lg5" y1="304.163" y2="188.018"/><linearGradient id="SVGID_20_" gradientUnits="userSpaceOnUse" x1="127.512" x2="147.432" xlink:href="#lg6" y1="245.406" y2="298.85"/><linearGradient id="SVGID_21_" gradientUnits="userSpaceOnUse" x1="89.025" x2="108.979" xlink:href="#lg7" y1="246.245" y2="297.095"/><linearGradient id="SVGID_22_" gradientTransform="matrix(-1 0 0 1 753.598 0)" gradientUnits="userSpaceOnUse" x1="281.047" x2="325.047" y1="251.632" y2="298.299"><stop offset="0" stop-color="#dfdfdf"/><stop offset="1" stop-color="#9da6ac"/></linearGradient><linearGradient id="SVGID_23_" gradientUnits="userSpaceOnUse" x1="382.881" x2="399.066" xlink:href="#lg3" y1="197.807" y2="213.993"/><linearGradient id="SVGID_24_" gradientUnits="userSpaceOnUse" x1="426.381" x2="442.567" xlink:href="#lg3" y1="197.807" y2="213.993"/><linearGradient id="SVGID_25_" gradientUnits="userSpaceOnUse" x1="382.881" x2="399.066" xlink:href="#lg3" y1="258.246" y2="274.431"/><linearGradient id="SVGID_26_" gradientUnits="userSpaceOnUse" x1="426.381" x2="442.567" xlink:href="#lg3" y1="258.246" y2="274.431"/><linearGradient id="SVGID_27_" gradientUnits="userSpaceOnUse" x1="382.881" x2="399.066" xlink:href="#lg3" y1="318.684" y2="334.869"/><linearGradient id="SVGID_28_" gradientUnits="userSpaceOnUse" x1="426.381" x2="442.567" xlink:href="#lg3" y1="318.684" y2="334.869"/><linearGradient id="SVGID_29_" gradientUnits="userSpaceOnUse" x1="382.881" x2="399.066" xlink:href="#lg3" y1="379.122" y2="395.308"/><linearGradient id="SVGID_30_" gradientUnits="userSpaceOnUse" x1="426.381" x2="442.567" xlink:href="#lg3" y1="379.122" y2="395.308"/><linearGradient id="SVGID_31_" gradientUnits="userSpaceOnUse" x1="382.881" x2="399.066" xlink:href="#lg3" y1="439.56" y2="455.746"/><linearGradient id="SVGID_32_" gradientUnits="userSpaceOnUse" x1="426.381" x2="442.567" xlink:href="#lg3" y1="439.56" y2="455.746"/><linearGradient id="SVGID_33_" gradientTransform="matrix(-1 0 0 1 753.598 0)" gradientUnits="userSpaceOnUse" x1="348.073" x2="448.74" y1="281.012" y2="371.012"><stop offset="0" stop-color="#9da6ac"/><stop offset="1" stop-color="#5a7587"/></linearGradient><linearGradient id="lg8"><stop offset="0" stop-color="#ff4181"/><stop offset="1" stop-color="#843561"/></linearGradient><linearGradient id="SVGID_34_" gradientUnits="userSpaceOnUse" x1="246.737" x2="289.737" xlink:href="#lg8" y1="263.434" y2="322.434"/><linearGradient id="lg9"><stop offset="0" stop-color="#ff7044"/><stop offset="1" stop-color="#f82814"/></linearGradient><linearGradient id="SVGID_35_" gradientUnits="userSpaceOnUse" x1="255.85" x2="255.85" xlink:href="#lg9" y1="305.512" y2="362.72"/><linearGradient id="lg10"><stop offset="0" stop-color="#f82814" stop-opacity="0"/><stop offset="1" stop-color="#c0272d"/></linearGradient><linearGradient id="SVGID_36_" gradientUnits="userSpaceOnUse" x1="286.304" x2="286.304" xlink:href="#lg10" y1="332.953" y2="276.998"/><linearGradient id="SVGID_37_" gradientUnits="userSpaceOnUse" x1="286.304" x2="286.304" xlink:href="#lg2" y1="277.04" y2="298.211"/><linearGradient id="lg11"><stop offset="0" stop-color="#6e566e" stop-opacity="0"/><stop offset=".2944" stop-color="#674d66" stop-opacity=".294"/><stop offset="1" stop-color="#593b56"/></linearGradient><linearGradient id="SVGID_38_" gradientUnits="userSpaceOnUse" x1="262.289" x2="199.823" xlink:href="#lg11" y1="338.806" y2="276.34"/><linearGradient id="SVGID_39_" gradientUnits="userSpaceOnUse" x1="218.337" x2="249.127" xlink:href="#lg3" y1="294.853" y2="325.644"/><linearGradient id="SVGID_40_" gradientUnits="userSpaceOnUse" x1="306.957" x2="251.205" xlink:href="#lg11" y1="339.727" y2="283.976"/><linearGradient id="SVGID_41_" gradientUnits="userSpaceOnUse" x1="265.995" x2="289.763" xlink:href="#lg3" y1="298.765" y2="322.534"/><linearGradient id="SVGID_42_" gradientUnits="userSpaceOnUse" x1="348.026" x2="279.411" xlink:href="#lg11" y1="337.049" y2="268.435"/><linearGradient id="SVGID_43_" gradientUnits="userSpaceOnUse" x1="309.446" x2="329.396" xlink:href="#lg4" y1="298.47" y2="318.42"/><linearGradient id="SVGID_44_" gradientUnits="userSpaceOnUse" x1="244.7" x2="291.7" xlink:href="#lg8" y1="327.697" y2="399.697"/><linearGradient id="SVGID_45_" gradientUnits="userSpaceOnUse" x1="255.85" x2="255.85" xlink:href="#lg9" y1="379.22" y2="436.427"/><linearGradient id="SVGID_46_" gradientUnits="userSpaceOnUse" x1="286.304" x2="286.304" xlink:href="#lg10" y1="406.661" y2="350.706"/><linearGradient id="SVGID_47_" gradientUnits="userSpaceOnUse" x1="286.304" x2="286.304" xlink:href="#lg2" y1="350.748" y2="371.919"/><linearGradient id="SVGID_48_" gradientUnits="userSpaceOnUse" x1="262.289" x2="199.823" xlink:href="#lg11" y1="412.513" y2="350.047"/><linearGradient id="SVGID_49_" gradientUnits="userSpaceOnUse" x1="218.337" x2="249.127" xlink:href="#lg3" y1="368.561" y2="399.351"/><linearGradient id="SVGID_50_" gradientUnits="userSpaceOnUse" x1="306.957" x2="251.205" xlink:href="#lg11" y1="413.434" y2="357.683"/><linearGradient id="SVGID_51_" gradientUnits="userSpaceOnUse" x1="265.995" x2="289.763" xlink:href="#lg3" y1="372.472" y2="396.241"/><linearGradient id="SVGID_52_" gradientUnits="userSpaceOnUse" x1="348.026" x2="279.411" xlink:href="#lg11" y1="410.756" y2="342.142"/><linearGradient id="SVGID_53_" gradientUnits="userSpaceOnUse" x1="309.446" x2="329.396" xlink:href="#lg4" y1="372.177" y2="392.127"/><linearGradient id="SVGID_54_" gradientUnits="userSpaceOnUse" x1="242.114" x2="290.614" xlink:href="#lg8" y1="412.085" y2="475.085"/><linearGradient id="SVGID_55_" gradientUnits="userSpaceOnUse" x1="255.85" x2="255.85" xlink:href="#lg9" y1="461.624" y2="518.832"/><linearGradient id="SVGID_56_" gradientUnits="userSpaceOnUse" x1="286.304" x2="286.304" xlink:href="#lg10" y1="480.368" y2="424.413"/><linearGradient id="SVGID_57_" gradientUnits="userSpaceOnUse" x1="286.304" x2="286.304" xlink:href="#lg2" y1="424.455" y2="445.626"/><linearGradient id="SVGID_58_" gradientUnits="userSpaceOnUse" x1="262.289" x2="199.823" xlink:href="#lg11" y1="486.22" y2="423.754"/><linearGradient id="SVGID_59_" gradientUnits="userSpaceOnUse" x1="218.337" x2="249.127" xlink:href="#lg3" y1="442.268" y2="473.058"/><linearGradient id="SVGID_60_" gradientUnits="userSpaceOnUse" x1="306.957" x2="251.205" xlink:href="#lg11" y1="487.141" y2="431.39"/><linearGradient id="SVGID_61_" gradientUnits="userSpaceOnUse" x1="265.995" x2="289.763" xlink:href="#lg3" y1="446.18" y2="469.948"/><linearGradient id="SVGID_62_" gradientUnits="userSpaceOnUse" x1="348.026" x2="279.411" xlink:href="#lg11" y1="484.464" y2="415.85"/><linearGradient id="SVGID_63_" gradientUnits="userSpaceOnUse" x1="309.446" x2="329.396" xlink:href="#lg4" y1="445.884" y2="465.834"/><linearGradient id="SVGID_64_" gradientUnits="userSpaceOnUse" x1="252.25" x2="252.25" xlink:href="#lg7" y1="277.04" y2="298.211"/><linearGradient id="SVGID_65_" gradientUnits="userSpaceOnUse" x1="252.25" x2="252.25" xlink:href="#lg7" y1="424.455" y2="445.626"/><linearGradient id="SVGID_66_" gradientUnits="userSpaceOnUse" x1="252.25" x2="252.25" xlink:href="#lg7" y1="350.748" y2="371.919"/><linearGradient id="lg12"><stop offset="0" stop-color="#bada00"/><stop offset=".2187" stop-color="#b6d600"/><stop offset=".4501" stop-color="#acc900"/><stop offset=".6873" stop-color="#9ab400"/><stop offset=".9271" stop-color="#829700"/><stop offset="1" stop-color="#798c00"/></linearGradient><linearGradient id="SVGID_67_" gradientUnits="userSpaceOnUse" x1="46.976" x2="46.976" xlink:href="#lg12" y1="545.955" y2="501.153"/><linearGradient id="SVGID_68_" gradientUnits="userSpaceOnUse" x1="4.707" x2="76.113" xlink:href="#lg12" y1="389.109" y2="448.729"/><linearGradient id="SVGID_69_" gradientUnits="userSpaceOnUse" x1="417.899" x2="476.499" xlink:href="#lg3" y1="53.575" y2="112.175"/><linearGradient id="SVGID_70_" gradientUnits="userSpaceOnUse" x1="364.198" x2="376.703" xlink:href="#lg12" y1="472.046" y2="517.561"/><g><path d="m485.638 510h-461.276c-13.455 0-24.362-10.907-24.362-24.362v-461.276c0-13.455 10.907-24.362 24.362-24.362h461.275c13.456 0 24.363 10.907 24.363 24.362v461.275c0 13.456-10.907 24.363-24.362 24.363z" fill="url(#SVGID_1_)"/><path d="m510 449.907v-140.372c-.701.69-1.351 1.46-1.922 2.331l-60.521 92.315-3.516 5.085c-2.975 4.168-4.541 9.409-3.975 15.039 1.029 10.239 9.289 18.552 19.523 19.635 3.881.411 7.58-.19 10.872-1.57 4.947-2.073 10.655-.81 14.404 3.025 3.992 4.084 9.556 6.619 15.721 6.619 3.369.001 6.56-.756 9.414-2.107z" fill="url(#SVGID_2_)"/><path d="m510 485.638v-55.26l-55.136-84.103c-7.091-10.818-22.954-10.818-30.044 0l-76.955 117.391-4.468 6.476c-3.79 5.296-5.773 11.96-5.058 19.113.866 8.659 5.798 16.239 12.839 20.745h134.501c13.436-.023 24.321-10.921 24.321-24.362z" fill="url(#SVGID_3_)"/><circle cx="346.114" cy="79.653" fill="url(#SVGID_4_)" r="66.943"/><g><path d="m123.227 89.321h-10.262c0 12.845-10.413 23.259-23.259 23.259h-45.876c-12.845 0-23.259-10.413-23.259-23.259s10.413-23.258 23.259-23.258h10.262c0-12.845 10.413-23.259 23.259-23.259h45.876c12.845 0 23.259 10.413 23.259 23.259 0 12.845-10.414 23.258-23.259 23.258z" fill="url(#SVGID_5_)"/><path d="m189.714 42.19h-28.981c-8.115 0-14.693-6.578-14.693-14.693 0-8.115 6.578-14.693 14.693-14.693h28.981c8.115 0 14.693 6.578 14.693 14.693 0 8.114-6.578 14.693-14.693 14.693z" fill="url(#SVGID_6_)"/></g><g><path d="m234.672 124.542h-14.556v-82.055c0-4.019 3.258-7.278 7.278-7.278 4.019 0 7.278 3.258 7.278 7.278z" fill="url(#SVGID_7_)"/><g><g><path d="m234.672 510h-162.979v-272.053c0-79.62 64.545-144.165 144.165-144.165 10.391 0 18.814 8.423 18.814 18.814z" fill="url(#SVGID_8_)"/><path d="m234.672 510h-114.179v-315.22c0-55.78 45.218-100.998 100.998-100.998 7.279 0 13.181 5.901 13.181 13.181z" fill="url(#SVGID_9_)"/></g><g><g><path d="m197.648 498.831h-125.955v-52.622h125.955c5.321 0 9.635 4.314 9.635 9.635v33.352c0 5.321-4.314 9.635-9.635 9.635z" fill="url(#SVGID_10_)"/><path d="m191.925 491.047h-120.232v-37.054h120.232c4.34 0 7.858 3.518 7.858 7.858v21.338c0 4.34-3.518 7.858-7.858 7.858z" fill="url(#SVGID_11_)"/><path d="m71.693 453.993h48.8v37.054h-48.8z" fill="url(#SVGID_12_)"/></g><g><path d="m197.648 429.41h-125.955v-52.622h125.955c5.321 0 9.635 4.314 9.635 9.635v33.352c0 5.321-4.314 9.635-9.635 9.635z" fill="url(#SVGID_13_)"/><path d="m191.925 421.626h-120.232v-37.054h120.232c4.34 0 7.858 3.518 7.858 7.858v21.338c0 4.34-3.518 7.858-7.858 7.858z" fill="url(#SVGID_14_)"/><path d="m71.693 384.572h48.8v37.054h-48.8z" fill="url(#SVGID_15_)"/></g><g><path d="m197.648 359.989h-125.955v-52.622h125.955c5.321 0 9.635 4.314 9.635 9.635v33.352c0 5.321-4.314 9.635-9.635 9.635z" fill="url(#SVGID_16_)"/><path d="m191.925 352.205h-120.232v-37.054h120.232c4.34 0 7.858 3.518 7.858 7.858v21.338c0 4.34-3.518 7.858-7.858 7.858z" fill="url(#SVGID_17_)"/><path d="m71.693 315.151h48.8v37.054h-48.8z" fill="url(#SVGID_18_)"/></g><g><path d="m197.648 290.568h-125.955v-52.622h125.955c5.321 0 9.635 4.314 9.635 9.635v33.352c0 5.322-4.314 9.635-9.635 9.635z" fill="url(#SVGID_19_)"/><path d="m191.925 282.784h-120.232v-37.054h120.232c4.34 0 7.858 3.518 7.858 7.858v21.338c0 4.34-3.518 7.858-7.858 7.858z" fill="url(#SVGID_20_)"/><path d="m71.693 245.73h48.8v37.054h-48.8z" fill="url(#SVGID_21_)"/></g></g></g></g><g><g><path d="m319.658 510h140.704v-336.155c0-7.642-6.195-13.837-13.837-13.837h-113.029c-7.642 0-13.837 6.195-13.837 13.837v336.155z" fill="url(#SVGID_22_)"/></g><g><g><path d="m381.19 189.02h15.095c3.919 0 7.097 3.177 7.097 7.097v15.095c0 3.92-3.177 7.097-7.097 7.097h-15.095c-3.92 0-7.097-3.177-7.097-7.097v-15.095c.001-3.92 3.178-7.097 7.097-7.097z" fill="url(#SVGID_23_)"/><path d="m424.691 189.02h15.095c3.92 0 7.097 3.177 7.097 7.097v15.095c0 3.92-3.177 7.097-7.097 7.097h-15.095c-3.92 0-7.097-3.177-7.097-7.097v-15.095c0-3.92 3.178-7.097 7.097-7.097z" fill="url(#SVGID_24_)"/></g><g><path d="m381.19 249.458h15.095c3.919 0 7.097 3.177 7.097 7.097v15.095c0 3.92-3.177 7.097-7.097 7.097h-15.095c-3.92 0-7.097-3.177-7.097-7.097v-15.095c.001-3.92 3.178-7.097 7.097-7.097z" fill="url(#SVGID_25_)"/><path d="m424.691 249.458h15.095c3.92 0 7.097 3.177 7.097 7.097v15.095c0 3.92-3.177 7.097-7.097 7.097h-15.095c-3.92 0-7.097-3.177-7.097-7.097v-15.095c0-3.92 3.178-7.097 7.097-7.097z" fill="url(#SVGID_26_)"/></g><g><path d="m381.19 309.896h15.095c3.919 0 7.097 3.177 7.097 7.097v15.095c0 3.92-3.177 7.097-7.097 7.097h-15.095c-3.92 0-7.097-3.177-7.097-7.097v-15.095c.001-3.919 3.178-7.097 7.097-7.097z" fill="url(#SVGID_27_)"/><path d="m424.691 309.896h15.095c3.92 0 7.097 3.177 7.097 7.097v15.095c0 3.92-3.177 7.097-7.097 7.097h-15.095c-3.92 0-7.097-3.177-7.097-7.097v-15.095c0-3.919 3.178-7.097 7.097-7.097z" fill="url(#SVGID_28_)"/></g><g><path d="m381.19 370.334h15.095c3.919 0 7.097 3.177 7.097 7.097v15.095c0 3.92-3.177 7.097-7.097 7.097h-15.095c-3.92 0-7.097-3.177-7.097-7.097v-15.095c.001-3.919 3.178-7.097 7.097-7.097z" fill="url(#SVGID_29_)"/><path d="m424.691 370.334h15.095c3.92 0 7.097 3.177 7.097 7.097v15.095c0 3.92-3.177 7.097-7.097 7.097h-15.095c-3.92 0-7.097-3.177-7.097-7.097v-15.095c0-3.919 3.178-7.097 7.097-7.097z" fill="url(#SVGID_30_)"/></g><g><path d="m381.19 430.772h15.095c3.919 0 7.097 3.177 7.097 7.097v15.095c0 3.92-3.177 7.097-7.097 7.097h-15.095c-3.92 0-7.097-3.177-7.097-7.097v-15.095c.001-3.919 3.178-7.097 7.097-7.097z" fill="url(#SVGID_31_)"/><path d="m424.691 430.772h15.095c3.92 0 7.097 3.177 7.097 7.097v15.095c0 3.92-3.177 7.097-7.097 7.097h-15.095c-3.92 0-7.097-3.177-7.097-7.097v-15.095c0-3.919 3.178-7.097 7.097-7.097z" fill="url(#SVGID_32_)"/></g></g><path d="m333.496 160.007h42.399c-7.642 0-13.838 6.195-13.838 13.838v336.155h-42.399v-336.155c0-7.643 6.195-13.838 13.838-13.838z" fill="url(#SVGID_33_)"/></g><g><g><path d="m206.561 281.56h159.485v72.328h-159.485z" fill="url(#SVGID_34_)"/><path d="m206.561 281.56h98.577v72.328h-98.577z" fill="url(#SVGID_35_)"/><path d="m206.561 281.56v13.583l58.745 58.745h100.74v-72.328z" fill="url(#SVGID_36_)"/><path d="m366.247 294.943h-159.886c-6.082 0-11.012-4.93-11.012-11.012v-4.742c0-6.082 4.93-11.012 11.012-11.012h159.886c6.082 0 11.012 4.93 11.012 11.012v4.742c0 6.082-4.93 11.012-11.012 11.012z" fill="url(#SVGID_37_)"/><g><g><path d="m254.91 303.848c-1.428-1.6-3.5-2.071-5.813-2.071h-16.583c-4.306 0-7.253 2.948-7.253 7.253v16.583c0 2.314.471 4.385 2.071 5.813l19.848 19.848c1.428 1.6 3.5 2.614 5.813 2.614h16.583c4.306 0 7.796-3.49 7.796-7.796v-16.583c0-2.314-1.014-4.385-2.614-5.813z" fill="url(#SVGID_38_)"/><path d="m249.096 301.234h-16.583c-4.306 0-7.796 3.49-7.796 7.796v16.583c0 4.306 3.49 7.796 7.796 7.796h16.583c4.306 0 7.796-3.49 7.796-7.796v-16.583c.001-4.305-3.49-7.796-7.796-7.796z" fill="url(#SVGID_39_)"/></g><g><path d="m298.656 303.848c-1.428-1.6-3.5-2.071-5.813-2.071h-16.583c-4.306 0-7.253 2.948-7.253 7.253v16.583c0 2.314.471 4.385 2.071 5.813l19.848 19.848c1.428 1.6 3.5 2.614 5.813 2.614h16.583c4.306 0 7.796-3.49 7.796-7.796v-16.583c0-2.314-1.014-4.385-2.614-5.813z" fill="url(#SVGID_40_)"/><g><path d="m292.843 333.409h-16.583c-4.306 0-7.796-3.49-7.796-7.796v-16.583c0-4.306 3.49-7.796 7.796-7.796h16.583c4.306 0 7.796 3.49 7.796 7.796v16.583c0 4.306-3.49 7.796-7.796 7.796z" fill="url(#SVGID_41_)"/></g></g><g><path d="m342.403 303.848c-1.428-1.6-3.5-2.071-5.813-2.071h-16.583c-4.306 0-7.253 2.948-7.253 7.253v16.583c0 2.314.471 4.385 2.071 5.813l19.848 19.848c1.428 1.6 3.5 2.614 5.813 2.614h16.583c4.306 0 7.796-3.49 7.796-7.796v-16.583c0-2.314-1.014-4.385-2.614-5.813z" fill="url(#SVGID_42_)"/><g><path d="m336.59 333.409h-16.583c-4.306 0-7.796-3.49-7.796-7.796v-16.583c0-4.306 3.49-7.796 7.796-7.796h16.583c4.306 0 7.796 3.49 7.796 7.796v16.583c0 4.306-3.491 7.796-7.796 7.796z" fill="url(#SVGID_43_)"/></g></g></g></g><g><path d="m206.561 355.267h159.485v72.328h-159.485z" fill="url(#SVGID_44_)"/><path d="m206.561 355.267h98.577v72.328h-98.577z" fill="url(#SVGID_45_)"/><path d="m206.561 355.267v13.584l58.745 58.744h100.74v-72.328z" fill="url(#SVGID_46_)"/><path d="m366.247 368.65h-159.886c-6.082 0-11.012-4.93-11.012-11.012v-4.742c0-6.082 4.93-11.012 11.012-11.012h159.886c6.082 0 11.012 4.93 11.012 11.012v4.742c0 6.082-4.93 11.012-11.012 11.012z" fill="url(#SVGID_47_)"/><g><g><path d="m254.91 377.556c-1.428-1.6-3.5-2.071-5.813-2.071h-16.583c-4.306 0-7.253 2.948-7.253 7.253v16.583c0 2.314.471 4.385 2.071 5.813l19.848 19.848c1.428 1.6 3.5 2.614 5.813 2.614h16.583c4.306 0 7.796-3.49 7.796-7.796v-16.583c0-2.314-1.014-4.385-2.614-5.813z" fill="url(#SVGID_48_)"/><path d="m249.096 374.942h-16.583c-4.306 0-7.796 3.49-7.796 7.796v16.583c0 4.306 3.49 7.796 7.796 7.796h16.583c4.306 0 7.796-3.49 7.796-7.796v-16.583c.001-4.306-3.49-7.796-7.796-7.796z" fill="url(#SVGID_49_)"/></g><g><path d="m298.656 377.556c-1.428-1.6-3.5-2.071-5.813-2.071h-16.583c-4.306 0-7.253 2.948-7.253 7.253v16.583c0 2.314.471 4.385 2.071 5.813l19.848 19.848c1.428 1.6 3.5 2.614 5.813 2.614h16.583c4.306 0 7.796-3.49 7.796-7.796v-16.583c0-2.314-1.014-4.385-2.614-5.813z" fill="url(#SVGID_50_)"/><g><path d="m292.843 407.117h-16.583c-4.306 0-7.796-3.49-7.796-7.796v-16.583c0-4.306 3.49-7.796 7.796-7.796h16.583c4.306 0 7.796 3.49 7.796 7.796v16.583c0 4.305-3.49 7.796-7.796 7.796z" fill="url(#SVGID_51_)"/></g></g><g><path d="m342.403 377.556c-1.428-1.6-3.5-2.071-5.813-2.071h-16.583c-4.306 0-7.253 2.948-7.253 7.253v16.583c0 2.314.471 4.385 2.071 5.813l19.848 19.848c1.428 1.6 3.5 2.614 5.813 2.614h16.583c4.306 0 7.796-3.49 7.796-7.796v-16.583c0-2.314-1.014-4.385-2.614-5.813z" fill="url(#SVGID_52_)"/><g><path d="m336.59 407.117h-16.583c-4.306 0-7.796-3.49-7.796-7.796v-16.583c0-4.306 3.49-7.796 7.796-7.796h16.583c4.306 0 7.796 3.49 7.796 7.796v16.583c0 4.305-3.491 7.796-7.796 7.796z" fill="url(#SVGID_53_)"/></g></g></g></g><g><path d="m206.561 428.974h159.485v81.026h-159.485z" fill="url(#SVGID_54_)"/><path d="m206.561 437.672h98.577v72.328h-98.577z" fill="url(#SVGID_55_)"/><path d="m206.561 428.974v13.584l58.745 58.744h100.74v-72.328z" fill="url(#SVGID_56_)"/><path d="m366.247 442.357h-159.886c-6.082 0-11.012-4.93-11.012-11.012v-4.742c0-6.082 4.93-11.012 11.012-11.012h159.886c6.082 0 11.012 4.93 11.012 11.012v4.742c0 6.082-4.93 11.012-11.012 11.012z" fill="url(#SVGID_57_)"/><g><g><path d="m254.91 451.263c-1.428-1.6-3.5-2.071-5.813-2.071h-16.583c-4.306 0-7.253 2.948-7.253 7.253v16.583c0 2.314.471 4.385 2.071 5.813l19.848 19.848c1.428 1.6 3.5 2.614 5.813 2.614h16.583c4.306 0 7.796-3.49 7.796-7.796v-16.583c0-2.314-1.014-4.385-2.614-5.813z" fill="url(#SVGID_58_)"/><path d="m249.096 448.649h-16.583c-4.306 0-7.796 3.49-7.796 7.796v16.583c0 4.306 3.49 7.796 7.796 7.796h16.583c4.306 0 7.796-3.49 7.796-7.796v-16.583c.001-4.306-3.49-7.796-7.796-7.796z" fill="url(#SVGID_59_)"/></g><g><path d="m298.656 451.263c-1.428-1.6-3.5-2.071-5.813-2.071h-16.583c-4.306 0-7.253 2.948-7.253 7.253v16.583c0 2.314.471 4.385 2.071 5.813l19.848 19.848c1.428 1.6 3.5 2.614 5.813 2.614h16.583c4.306 0 7.796-3.49 7.796-7.796v-16.583c0-2.314-1.014-4.385-2.614-5.813z" fill="url(#SVGID_60_)"/><g><path d="m292.843 480.824h-16.583c-4.306 0-7.796-3.49-7.796-7.796v-16.583c0-4.306 3.49-7.796 7.796-7.796h16.583c4.306 0 7.796 3.49 7.796 7.796v16.583c0 4.305-3.49 7.796-7.796 7.796z" fill="url(#SVGID_61_)"/></g></g><g><path d="m342.403 451.263c-1.428-1.6-3.5-2.071-5.813-2.071h-16.583c-4.306 0-7.253 2.948-7.253 7.253v16.583c0 2.314.471 4.385 2.071 5.813l19.848 19.848c1.428 1.6 3.5 2.614 5.813 2.614h16.583c4.306 0 7.796-3.49 7.796-7.796v-16.583c0-2.314-1.014-4.385-2.614-5.813z" fill="url(#SVGID_62_)"/><g><path d="m336.59 480.824h-16.583c-4.306 0-7.796-3.49-7.796-7.796v-16.583c0-4.306 3.49-7.796 7.796-7.796h16.583c4.306 0 7.796 3.49 7.796 7.796v16.583c0 4.305-3.491 7.796-7.796 7.796z" fill="url(#SVGID_63_)"/></g></g></g></g><path d="m304.528 294.943h-98.167c-6.082 0-11.012-4.93-11.012-11.012v-4.742c0-6.082 4.93-11.012 11.012-11.012h98.167c2.553 0 4.623 2.07 4.623 4.623v17.52c0 2.553-2.07 4.623-4.623 4.623z" fill="url(#SVGID_64_)"/><path d="m304.528 442.357h-98.167c-6.082 0-11.012-4.93-11.012-11.012v-4.742c0-6.082 4.93-11.012 11.012-11.012h98.167c2.553 0 4.623 2.07 4.623 4.623v17.52c0 2.554-2.07 4.623-4.623 4.623z" fill="url(#SVGID_65_)"/><path d="m304.528 368.65h-98.167c-6.082 0-11.012-4.93-11.012-11.012v-4.742c0-6.082 4.93-11.012 11.012-11.012h98.167c2.553 0 4.623 2.07 4.623 4.623v17.52c0 2.553-2.07 4.623-4.623 4.623z" fill="url(#SVGID_66_)"/></g><path d="m0 379.673v105.965c0 13.455 10.907 24.362 24.362 24.362h69.59l-79.601-121.421c-3.459-5.276-8.788-8.245-14.351-8.906z" fill="url(#SVGID_67_)"/><path d="m102.612 431.012-88.261-134.629c-3.459-5.276-8.788-8.245-14.351-8.907v198.162c0 .508.021 1.011.051 1.512 2.703.361 5.341 1.312 7.698 2.874 4.938 3.272 10.86 5.178 17.228 5.178 8.746 0 16.639-3.597 22.302-9.39 5.319-5.441 13.416-7.232 20.434-4.292 4.671 1.957 9.918 2.809 15.423 2.227 14.518-1.536 26.236-13.33 27.696-27.855.836-8.319-1.609-16.04-6.177-22.065-.699-.925-1.407-1.845-2.043-2.815z" fill="url(#SVGID_68_)"/><path d="m463.433 59.278h-7.964c0-9.968-8.081-18.049-18.049-18.049h-35.6c-9.968 0-18.049 8.081-18.049 18.049s8.081 18.049 18.049 18.049h7.963c0 9.968 8.081 18.049 18.049 18.049h35.6c9.968 0 18.049-8.081 18.049-18.049 0-9.968-8.08-18.049-18.048-18.049z" fill="url(#SVGID_69_)"/><path d="m412.484 509.999h-76.78c.76-20.55 17.66-36.97 38.39-36.97s37.63 16.42 38.39 36.97z" fill="url(#SVGID_70_)"/></g></svg>