<!--
  - Copyright (c) 2023. Selldone® Business OS™
  -
  - Author: M.Pajuhaan
  - Web: https://selldone.com
  - ━━━━━━━━━━━━━━━━━━━━━━━━━━━━━━━━━━━━━━━━━━━━━━━━━━━━━━
  -
  - All rights reserved. In the weave of time, where traditions and innovations intermingle, this content was crafted.
  - From the essence of thought, through the corridors of creativity, each word, and sentiment has been molded.
  - Not just to exist, but to inspire. Like an artist's stroke or a sculptor's chisel, every nuance is deliberate.
  - Our journey is not just about reaching a destination, but about creating a masterpiece.
  - Tread carefully, for you're treading on dreams.
  -->

<svg id="Capa_1" enable-background="new 0 0 510 510" height="512" viewBox="0 0 510 510" width="512" xmlns="http://www.w3.org/2000/svg" xmlns:xlink="http://www.w3.org/1999/xlink"><linearGradient id="lg1"><stop offset="0" stop-color="#c7e9ff"/><stop offset=".3556" stop-color="#a3e6f2"/><stop offset="1" stop-color="#65e0db"/></linearGradient><linearGradient id="SVGID_1_" gradientUnits="userSpaceOnUse" x1="255" x2="255" xlink:href="#lg1" y1="34.721" y2="483.763"/><linearGradient id="lg2"><stop offset="0" stop-color="#18cefb" stop-opacity="0"/><stop offset="1" stop-color="#0469bb"/></linearGradient><linearGradient id="SVGID_2_" gradientUnits="userSpaceOnUse" x1="424.116" x2="424.116" xlink:href="#lg2" y1="524.251" y2="396.946"/><linearGradient id="SVGID_3_" gradientUnits="userSpaceOnUse" x1="154.213" x2="154.213" xlink:href="#lg2" y1="528.718" y2="361.507"/><linearGradient id="SVGID_4_" gradientUnits="userSpaceOnUse" x1="216.46" x2="240.46" xlink:href="#lg1" y1="400.434" y2="476.934"/><linearGradient id="lg3"><stop offset="0" stop-color="#2f73a0" stop-opacity="0"/><stop offset="1" stop-color="#2f73a0"/></linearGradient><linearGradient id="SVGID_5_" gradientUnits="userSpaceOnUse" x1="274.579" x2="226.579" xlink:href="#lg3" y1="446.565" y2="332.065"/><linearGradient id="SVGID_6_" gradientUnits="userSpaceOnUse" x1="282.537" x2="339.537" xlink:href="#lg1" y1="341.194" y2="500.194"/><linearGradient id="SVGID_7_" gradientUnits="userSpaceOnUse" x1="354.049" x2="172.549" xlink:href="#lg3" y1="434.82" y2="245.32"/><linearGradient id="SVGID_8_" gradientUnits="userSpaceOnUse" x1="386.718" x2="380.628" y1="477.435" y2="523.867"><stop offset="0" stop-color="#798c00"/><stop offset="1" stop-color="#1b444f"/></linearGradient><linearGradient id="lg4"><stop offset="0" stop-color="#bada00"/><stop offset=".2187" stop-color="#b6d600"/><stop offset=".4501" stop-color="#acc900"/><stop offset=".6873" stop-color="#9ab400"/><stop offset=".9271" stop-color="#829700"/><stop offset="1" stop-color="#798c00"/></linearGradient><linearGradient id="SVGID_9_" gradientUnits="userSpaceOnUse" x1="125.008" x2="152.008" xlink:href="#lg4" y1="392.442" y2="471.942"/><linearGradient id="lg5"><stop offset="0" stop-color="#edf5ff"/><stop offset="1" stop-color="#c7e9ff"/></linearGradient><linearGradient id="SVGID_10_" gradientUnits="userSpaceOnUse" x1="56.603" x2="143.055" xlink:href="#lg5" y1="45.69" y2="132.142"/><linearGradient id="SVGID_11_" gradientUnits="userSpaceOnUse" x1="142.915" x2="179.119" xlink:href="#lg5" y1="7.722" y2="43.926"/><linearGradient id="SVGID_12_" gradientTransform="matrix(-1 0 0 -1 722.242 559.236)" gradientUnits="userSpaceOnUse" x1="359.411" x2="249.754" xlink:href="#lg5" y1="326.85" y2="217.194"/><linearGradient id="SVGID_13_" gradientTransform="matrix(-1 0 0 -1 722.242 559.236)" gradientUnits="userSpaceOnUse" x1="389.52" x2="315.79" xlink:href="#lg5" y1="270.267" y2="196.537"/><linearGradient id="SVGID_14_" gradientUnits="userSpaceOnUse" x1="406.736" x2="474.744" xlink:href="#lg5" y1="58.222" y2="126.23"/><linearGradient id="SVGID_15_" gradientUnits="userSpaceOnUse" x1="68.533" x2="89.866" xlink:href="#lg5" y1="299.07" y2="349.07"/><linearGradient id="lg6"><stop offset="0" stop-color="#ffd945"/><stop offset=".3043" stop-color="#ffcd3e"/><stop offset=".8558" stop-color="#ffad2b"/><stop offset="1" stop-color="#ffa325"/></linearGradient><linearGradient id="SVGID_16_" gradientUnits="userSpaceOnUse" x1="340.752" x2="425.638" xlink:href="#lg6" y1="112.552" y2="197.438"/><linearGradient id="lg7"><stop offset="0" stop-color="#2f73a0"/><stop offset="1" stop-color="#174461"/></linearGradient><linearGradient id="SVGID_17_" gradientUnits="userSpaceOnUse" x1="230.327" x2="242.918" xlink:href="#lg7" y1="322.084" y2="329.966"/><linearGradient id="SVGID_18_" gradientUnits="userSpaceOnUse" x1="154.012" x2="186.563" xlink:href="#lg7" y1="318.05" y2="338.427"/><linearGradient id="SVGID_19_" gradientUnits="userSpaceOnUse" x1="82.165" x2="126.931" y1="128.128" y2="146.034"><stop offset="0" stop-color="#18cefb"/><stop offset="1" stop-color="#4a97f6"/></linearGradient><linearGradient id="SVGID_20_" gradientUnits="userSpaceOnUse" x1="273.865" x2="324.842" y1="183.601" y2="192.227"><stop offset="0" stop-color="#d3145a"/><stop offset="1" stop-color="#9d005d"/></linearGradient><linearGradient id="SVGID_21_" gradientUnits="userSpaceOnUse" x1="108.567" x2="168.955" xlink:href="#lg4" y1="130.641" y2="159.659"/><linearGradient id="SVGID_22_" gradientUnits="userSpaceOnUse" x1="229.988" x2="276.259" y1="180.315" y2="196.001"><stop offset="0" stop-color="#ff7044"/><stop offset="1" stop-color="#f82814"/></linearGradient><linearGradient id="SVGID_23_" gradientUnits="userSpaceOnUse" x1="165.468" x2="218.013" xlink:href="#lg6" y1="160.089" y2="178.127"/><linearGradient id="SVGID_24_" gradientUnits="userSpaceOnUse" x1="199.59" x2="199.59" y1="254" y2="293.029"><stop offset="0" stop-color="#843561" stop-opacity="0"/><stop offset=".2156" stop-color="#7a345e" stop-opacity=".216"/><stop offset=".5776" stop-color="#603257" stop-opacity=".578"/><stop offset="1" stop-color="#3a2f4d"/></linearGradient><linearGradient id="SVGID_25_" gradientUnits="userSpaceOnUse" x1="199.59" x2="199.59" y1="291" y2="313.123"><stop offset="0" stop-color="#dfdfdf"/><stop offset="1" stop-color="#9da6ac"/></linearGradient><linearGradient id="SVGID_26_" gradientUnits="userSpaceOnUse" x1="185.005" x2="228.791" xlink:href="#lg6" y1="362.391" y2="389.802"/><linearGradient id="lg8"><stop offset="0" stop-color="#e87264" stop-opacity="0"/><stop offset=".6519" stop-color="#f67150" stop-opacity=".652"/><stop offset="1" stop-color="#ff7044"/></linearGradient><linearGradient id="SVGID_27_" gradientUnits="userSpaceOnUse" x1="199.59" x2="199.59" xlink:href="#lg8" y1="385.5" y2="399.037"/><linearGradient id="SVGID_28_" gradientUnits="userSpaceOnUse" x1="199.591" x2="199.591" xlink:href="#lg8" y1="391.175" y2="353.959"/><linearGradient id="SVGID_29_" gradientUnits="userSpaceOnUse" x1="194.86" x2="207.392" xlink:href="#lg6" y1="337.438" y2="373.029"/><g><g><path d="m485.638 510h-461.276c-13.455 0-24.362-10.907-24.362-24.362v-461.276c0-13.455 10.907-24.362 24.362-24.362h461.275c13.456 0 24.363 10.907 24.363 24.362v461.275c0 13.456-10.907 24.363-24.362 24.363z" fill="url(#SVGID_1_)"/></g><g><g><path d="m485.638 510c10.843 0 20.027-7.086 23.186-16.878-.615-1.524-1.5-2.998-2.701-4.36l-44.54-50.484c-18.5-20.969-41.124-20.89-59.588.208l-62.587 71.514z" fill="url(#SVGID_2_)"/><path d="m7.828 491.581c-2.292 2.003-3.601 4.473-4.087 7.024 4.313 6.844 11.934 11.395 20.621 11.395h280.323l-108.877-94.396c-31.471-27.285-69.956-27.182-101.365.27z" fill="url(#SVGID_3_)"/><g><path d="m269.492 404.723c-8.81-10.298-28.508-10.298-37.319 0l-90.068 105.277h217.456z" fill="url(#SVGID_4_)"/><path d="m269.492 404.723c-7.413-8.665-22.534-10.037-32.392-4.12l21.83 28.488c3.385 4.417-1.506 9.627-9.038 9.627-7.318 0-12.215 4.943-9.249 9.335l18.324 27.13c3.453 5.112-2.248 10.866-10.766 10.866-8.5 0-14.2 5.731-10.783 10.84l8.768 13.11h113.373z" fill="url(#SVGID_5_)"/></g><g><path d="m365.01 354.414c-10.367-15.219-33.548-15.219-43.915 0l-105.99 155.586h255.895z" fill="url(#SVGID_6_)"/><path d="m365.01 354.414c-8.723-12.806-26.517-14.833-38.118-6.088l25.689 42.102c3.983 6.528-1.772 14.228-10.635 14.228-8.611 0-14.374 7.305-10.883 13.795l21.563 40.094c4.063 7.555-2.645 16.059-12.669 16.059-10.002 0-16.71 8.47-12.689 16.021l10.318 19.375h133.414z" fill="url(#SVGID_7_)"/></g></g><path d="m510 471.401c-134.966-15.564-227.561 25.911-252.123 38.599h227.76c13.456 0 24.363-10.907 24.363-24.362z" fill="url(#SVGID_8_)"/><path d="m0 440.534v45.104c0 13.455 10.907 24.362 24.362 24.362h298.605c-24.241-18.321-144.392-100.028-322.967-69.466z" fill="url(#SVGID_9_)"/></g><g><path d="m123.778 54.103h-11.748c0-14.706-11.922-26.627-26.627-26.627h-52.52c-14.706 0-26.627 11.922-26.627 26.627s11.922 26.627 26.627 26.627h11.747c0 14.706 11.922 26.627 26.627 26.627h52.52c14.706 0 26.627-11.922 26.627-26.627.002-14.705-11.92-26.627-26.626-26.627z" fill="url(#SVGID_10_)"/><path d="m168.603 33.642h-33.178c-9.29 0-16.821-7.531-16.821-16.821 0-9.29 7.531-16.821 16.821-16.821h33.178c9.29 0 16.821 7.531 16.821 16.821 0 9.29-7.531 16.821-16.821 16.821z" fill="url(#SVGID_11_)"/></g><g><path d="m361.005 276.433h9.171c0 11.48 9.307 20.787 20.787 20.787h41c11.48 0 20.787-9.307 20.787-20.787s-9.307-20.787-20.787-20.787h-9.171c0-11.48-9.307-20.787-20.787-20.787h-41c-11.48 0-20.787 9.307-20.787 20.787.001 11.48 9.307 20.787 20.787 20.787z" fill="url(#SVGID_12_)"/><path d="m346.667 292.406h5.246c7.252 0 13.131 5.879 13.131 13.131 0 7.252-5.879 13.131-13.131 13.131h-5.246c-7.252 0-13.131-5.879-13.131-13.131-.001-7.252 5.878-13.131 13.131-13.131z" fill="url(#SVGID_13_)"/></g><path d="m459.58 64.841h-9.242c0-11.568-9.378-20.946-20.946-20.946h-41.315c-11.568 0-20.946 9.378-20.946 20.946s9.378 20.946 20.946 20.946h9.242c0 11.568 9.378 20.946 20.946 20.946h41.315c11.568 0 20.946-9.378 20.946-20.946 0-11.568-9.378-20.946-20.946-20.946z" fill="url(#SVGID_14_)"/><path d="m114.913 334.454h-9.242c0 11.568-9.378 20.946-20.946 20.946h-41.315c-11.568 0-20.946-9.378-20.946-20.946s9.378-20.946 20.946-20.946h9.242c0-11.568 9.378-20.946 20.946-20.946h41.315c11.568 0 20.946 9.378 20.946 20.946 0 11.568-9.378 20.946-20.946 20.946z" fill="url(#SVGID_15_)"/><circle cx="362.086" cy="133.886" fill="url(#SVGID_16_)" r="66.943"/><g><g><path d="m236.761 297.711c-8.391 21.583-13.398 39.866-15.683 54.767l-.001.004c-.175 1.144-.602 2.187-1.183 3.044h4.084c3.23 0 6.37-2.157 7.039-4.924l.001-.004c3.459-14.301 11.166-31.951 24.227-52.887z" fill="url(#SVGID_17_)"/><path d="m178.102 352.482-.001-.005c-2.285-14.901-7.292-33.183-15.683-54.767h-18.485c13.061 20.936 20.768 38.586 24.227 52.887l.001.004c.669 2.766 3.809 4.924 7.039 4.924h4.084c-.58-.856-1.007-1.899-1.182-3.043z" fill="url(#SVGID_18_)"/></g><g><g><path d="m107.07 154.013c0-69.885 41.423-126.537 92.52-126.537-69.885 0-126.537 56.653-126.537 126.537s56.653 162.392 126.537 162.392c-51.098 0-92.52-92.507-92.52-162.392z" fill="url(#SVGID_19_)"/><path d="m199.59 27.476c51.098 0 92.52 56.653 92.52 126.537s-41.423 162.392-92.52 162.392c69.885 0 126.537-92.507 126.537-162.392s-56.653-126.537-126.537-126.537z" fill="url(#SVGID_20_)"/><path d="m160.424 154.013c0-69.885 17.535-126.537 39.166-126.537-51.098 0-92.52 56.653-92.52 126.537s41.423 162.392 92.52 162.392c-21.631 0-39.166-92.507-39.166-162.392z" fill="url(#SVGID_21_)"/><path d="m292.11 154.013c0-69.885-41.423-126.537-92.52-126.537 21.631 0 39.166 56.653 39.166 126.537s-17.535 162.392-39.166 162.392c51.097 0 92.52-92.507 92.52-162.392z" fill="url(#SVGID_22_)"/><path d="m238.756 154.013c0-69.885-17.535-126.537-39.166-126.537s-39.166 56.653-39.166 126.537 17.535 162.392 39.166 162.392 39.166-92.507 39.166-162.392z" fill="url(#SVGID_23_)"/></g><path d="m99.132 244.309c23.128 40.346 59.519 72.096 100.458 72.096s77.329-31.75 100.458-72.096z" fill="url(#SVGID_24_)"/><path d="m199.59 287.651c-40.968 0-55.923-1.275-63.261-2.747-5.26-1.056-8.488 5.585-4.437 9.102l16.469 14.295c5.647 4.901 12.832 7.681 20.308 7.82 10.107.188 20.431.284 30.92.284 10.49 0 20.814-.097 30.92-.284 7.476-.139 14.661-2.919 20.308-7.82l16.469-14.295c4.052-3.517.824-10.158-4.436-9.102-7.337 1.472-22.292 2.747-63.26 2.747z" fill="url(#SVGID_25_)"/></g><g><path d="m161.533 350.872c5.165 13.647 7.82 28.23 7.82 42.95v.005c0 3.23 2.618 5.848 5.848 5.848h48.779c3.23 0 5.848-2.618 5.848-5.848v-.005c0-14.721 2.655-29.303 7.82-42.95z" fill="url(#SVGID_26_)"/><path d="m168.385 378.527c.638 5.06.967 10.168.967 15.295v.005c0 3.23 2.618 5.848 5.848 5.848h48.779c3.23 0 5.848-2.618 5.848-5.848v-.005c0-5.127.33-10.236.967-15.295z" fill="url(#SVGID_27_)"/><path d="m237.643 350.875c-5.159 13.647-7.819 28.225-7.819 42.952 0 3.23-2.618 5.848-5.848 5.848h-20.306c-1.643 0-3.21-.691-4.318-1.905l-34.914-38.236c-.86-2.919-1.82-5.809-2.899-8.658h76.104z" fill="url(#SVGID_28_)"/><path d="m233.209 359.537h-67.237c-3.888 0-7.04-3.152-7.04-7.04v-3.25c0-3.888 3.152-7.04 7.04-7.04h67.237c3.888 0 7.04 3.152 7.04 7.04v3.25c0 3.888-3.152 7.04-7.04 7.04z" fill="url(#SVGID_29_)"/></g></g></g></svg>