

<svg id="Capa_1" enable-background="new 0 0 510 510" height="512" viewBox="0 0 510 510" width="512" xmlns="http://www.w3.org/2000/svg" xmlns:xlink="http://www.w3.org/1999/xlink"><linearGradient id="SVGID_1_" gradientUnits="userSpaceOnUse" x1="255" x2="255" y1="83.666" y2="330.023"><stop offset="0" stop-color="#092a40"/><stop offset="1" stop-color="#3a2f4d"/></linearGradient><linearGradient id="lg1"><stop offset="0" stop-color="#edf5ff"/><stop offset="1" stop-color="#c7e9ff"/></linearGradient><linearGradient id="SVGID_2_" gradientUnits="userSpaceOnUse" x1="21.233" x2="26.939" xlink:href="#lg1" y1="18.566" y2="24.272"/><linearGradient id="SVGID_3_" gradientUnits="userSpaceOnUse" x1="31.233" x2="36.939" xlink:href="#lg1" y1="95.733" y2="101.439"/><linearGradient id="SVGID_4_" gradientUnits="userSpaceOnUse" x1="25.733" x2="31.439" xlink:href="#lg1" y1="297.899" y2="303.605"/><linearGradient id="SVGID_5_" gradientUnits="userSpaceOnUse" x1="254.566" x2="260.272" xlink:href="#lg1" y1="53.899" y2="59.605"/><linearGradient id="SVGID_6_" gradientUnits="userSpaceOnUse" x1="151.233" x2="156.939" xlink:href="#lg1" y1="105.066" y2="110.772"/><linearGradient id="SVGID_7_" gradientUnits="userSpaceOnUse" x1="103.233" x2="108.939" xlink:href="#lg1" y1="173.899" y2="179.605"/><linearGradient id="SVGID_8_" gradientUnits="userSpaceOnUse" x1="182.566" x2="188.272" xlink:href="#lg1" y1="218.566" y2="224.272"/><linearGradient id="SVGID_9_" gradientUnits="userSpaceOnUse" x1="29.233" x2="34.939" xlink:href="#lg1" y1="186.566" y2="192.272"/><linearGradient id="SVGID_10_" gradientUnits="userSpaceOnUse" x1="115.233" x2="120.939" xlink:href="#lg1" y1="248.566" y2="254.272"/><linearGradient id="SVGID_11_" gradientUnits="userSpaceOnUse" x1="103.899" x2="109.605" xlink:href="#lg1" y1="19.899" y2="25.605"/><linearGradient id="SVGID_12_" gradientUnits="userSpaceOnUse" x1="310.566" x2="316.272" xlink:href="#lg1" y1="33.233" y2="38.939"/><linearGradient id="SVGID_13_" gradientUnits="userSpaceOnUse" x1="371.233" x2="376.939" xlink:href="#lg1" y1="69.899" y2="75.605"/><linearGradient id="SVGID_14_" gradientUnits="userSpaceOnUse" x1="461.233" x2="466.939" xlink:href="#lg1" y1="157.233" y2="162.939"/><linearGradient id="SVGID_15_" gradientUnits="userSpaceOnUse" x1="490.566" x2="496.272" xlink:href="#lg1" y1="227.233" y2="232.939"/><linearGradient id="SVGID_16_" gradientUnits="userSpaceOnUse" x1="486.566" x2="492.272" xlink:href="#lg1" y1="86.566" y2="92.272"/><linearGradient id="SVGID_17_" gradientUnits="userSpaceOnUse" x1="167.899" x2="173.605" xlink:href="#lg1" y1="159.899" y2="165.605"/><linearGradient id="SVGID_18_" gradientUnits="userSpaceOnUse" x1="234.566" x2="240.272" xlink:href="#lg1" y1="239.233" y2="244.939"/><linearGradient id="SVGID_19_" gradientUnits="userSpaceOnUse" x1="57.233" x2="62.939" xlink:href="#lg1" y1="225.899" y2="231.605"/><linearGradient id="SVGID_20_" gradientUnits="userSpaceOnUse" x1="379.233" x2="384.939" xlink:href="#lg1" y1="20.566" y2="26.272"/><linearGradient id="SVGID_21_" gradientUnits="userSpaceOnUse" x1="462.566" x2="468.272" xlink:href="#lg1" y1="21.899" y2="27.605"/><linearGradient id="SVGID_22_" gradientUnits="userSpaceOnUse" x1="469.233" x2="474.939" xlink:href="#lg1" y1="290.566" y2="296.272"/><linearGradient id="SVGID_23_" gradientUnits="userSpaceOnUse" x1="215.233" x2="220.939" xlink:href="#lg1" y1="123.899" y2="129.605"/><linearGradient id="SVGID_24_" gradientUnits="userSpaceOnUse" x1="291.899" x2="297.605" xlink:href="#lg1" y1="104.566" y2="110.272"/><linearGradient id="SVGID_25_" gradientUnits="userSpaceOnUse" x1="253.233" x2="258.939" xlink:href="#lg1" y1="171.899" y2="177.605"/><linearGradient id="SVGID_26_" gradientUnits="userSpaceOnUse" x1="219.899" x2="225.605" xlink:href="#lg1" y1="15.899" y2="21.605"/><linearGradient id="SVGID_27_" gradientUnits="userSpaceOnUse" x1="163.233" x2="168.939" xlink:href="#lg1" y1="59.233" y2="64.939"/><linearGradient id="lg2"><stop offset="0" stop-color="#798c00"/><stop offset="1" stop-color="#1b444f"/></linearGradient><linearGradient id="SVGID_28_" gradientUnits="userSpaceOnUse" x1="478.91" x2="506.167" xlink:href="#lg2" y1="375.529" y2="422.61"/><linearGradient id="SVGID_29_" gradientUnits="userSpaceOnUse" x1="496" x2="451.254" xlink:href="#lg2" y1="424.08" y2="424.08"/><linearGradient id="lg3"><stop offset="0" stop-color="#2f73a0"/><stop offset="1" stop-color="#3a2f4d"/></linearGradient><linearGradient id="SVGID_30_" gradientUnits="userSpaceOnUse" x1="50.105" x2="50.105" xlink:href="#lg3" y1="276.554" y2="409.275"/><linearGradient id="SVGID_31_" gradientUnits="userSpaceOnUse" x1="286" x2="286" xlink:href="#lg3" y1="232.08" y2="390.086"/><linearGradient id="SVGID_32_" gradientUnits="userSpaceOnUse" x1="229.84" x2="229.84" xlink:href="#lg3" y1="313.481" y2="425.208"/><linearGradient id="lg4"><stop offset="0" stop-color="#2f73a0"/><stop offset="1" stop-color="#174461"/></linearGradient><linearGradient id="SVGID_33_" gradientUnits="userSpaceOnUse" x1="114.433" x2="157.433" xlink:href="#lg4" y1="263.434" y2="322.434"/><linearGradient id="SVGID_34_" gradientUnits="userSpaceOnUse" x1="123.546" x2="123.546" xlink:href="#lg4" y1="305.512" y2="362.72"/><linearGradient id="lg5"><stop offset="0" stop-color="#843561" stop-opacity="0"/><stop offset=".2156" stop-color="#7a345e" stop-opacity=".216"/><stop offset=".5776" stop-color="#603257" stop-opacity=".578"/><stop offset="1" stop-color="#3a2f4d"/></linearGradient><linearGradient id="SVGID_35_" gradientUnits="userSpaceOnUse" x1="154" x2="154" xlink:href="#lg5" y1="332.953" y2="276.998"/><linearGradient id="lg6"><stop offset="0" stop-color="#c7e9ff"/><stop offset="1" stop-color="#7acbff"/></linearGradient><linearGradient id="SVGID_36_" gradientUnits="userSpaceOnUse" x1="154" x2="154" xlink:href="#lg6" y1="277.04" y2="298.211"/><linearGradient id="lg7"><stop offset="0" stop-color="#6e566e" stop-opacity="0"/><stop offset=".2944" stop-color="#674d66" stop-opacity=".294"/><stop offset="1" stop-color="#593b56"/></linearGradient><linearGradient id="SVGID_37_" gradientUnits="userSpaceOnUse" x1="129.985" x2="67.519" xlink:href="#lg7" y1="338.806" y2="276.34"/><linearGradient id="lg8"><stop offset="0" stop-color="#ffce47"/><stop offset="1" stop-color="#f6921e"/></linearGradient><linearGradient id="SVGID_38_" gradientUnits="userSpaceOnUse" x1="86.033" x2="116.823" xlink:href="#lg8" y1="294.853" y2="325.644"/><linearGradient id="SVGID_39_" gradientUnits="userSpaceOnUse" x1="174.653" x2="118.902" xlink:href="#lg7" y1="339.727" y2="283.976"/><linearGradient id="lg9"><stop offset="0" stop-color="#fff5d9"/><stop offset="1" stop-color="#ffce47"/></linearGradient><linearGradient id="SVGID_40_" gradientUnits="userSpaceOnUse" x1="133.691" x2="157.46" xlink:href="#lg9" y1="298.765" y2="322.534"/><linearGradient id="SVGID_41_" gradientUnits="userSpaceOnUse" x1="215.722" x2="147.108" xlink:href="#lg7" y1="337.049" y2="268.435"/><linearGradient id="SVGID_42_" gradientUnits="userSpaceOnUse" x1="177.143" x2="197.093" xlink:href="#lg8" y1="298.47" y2="318.42"/><linearGradient id="SVGID_43_" gradientUnits="userSpaceOnUse" x1="112.396" x2="159.396" xlink:href="#lg4" y1="327.697" y2="399.697"/><linearGradient id="SVGID_44_" gradientUnits="userSpaceOnUse" x1="123.546" x2="123.546" xlink:href="#lg4" y1="379.22" y2="436.427"/><linearGradient id="SVGID_45_" gradientUnits="userSpaceOnUse" x1="154" x2="154" xlink:href="#lg5" y1="406.661" y2="350.706"/><linearGradient id="SVGID_46_" gradientUnits="userSpaceOnUse" x1="154" x2="154" xlink:href="#lg6" y1="350.748" y2="371.919"/><linearGradient id="SVGID_47_" gradientUnits="userSpaceOnUse" x1="129.985" x2="67.519" xlink:href="#lg7" y1="412.513" y2="350.047"/><linearGradient id="SVGID_48_" gradientUnits="userSpaceOnUse" x1="86.033" x2="116.823" xlink:href="#lg9" y1="368.561" y2="399.351"/><linearGradient id="SVGID_49_" gradientUnits="userSpaceOnUse" x1="174.653" x2="118.902" xlink:href="#lg7" y1="413.434" y2="357.683"/><linearGradient id="SVGID_50_" gradientUnits="userSpaceOnUse" x1="133.691" x2="157.46" xlink:href="#lg9" y1="372.472" y2="396.241"/><linearGradient id="SVGID_51_" gradientUnits="userSpaceOnUse" x1="215.722" x2="147.108" xlink:href="#lg7" y1="410.756" y2="342.142"/><linearGradient id="SVGID_52_" gradientUnits="userSpaceOnUse" x1="177.143" x2="197.093" xlink:href="#lg8" y1="372.177" y2="392.127"/><linearGradient id="SVGID_53_" gradientUnits="userSpaceOnUse" x1="109.81" x2="158.31" xlink:href="#lg4" y1="412.085" y2="475.085"/><linearGradient id="SVGID_54_" gradientUnits="userSpaceOnUse" x1="123.546" x2="123.546" xlink:href="#lg4" y1="461.624" y2="518.832"/><linearGradient id="SVGID_55_" gradientUnits="userSpaceOnUse" x1="154" x2="154" xlink:href="#lg5" y1="480.368" y2="424.413"/><linearGradient id="SVGID_56_" gradientUnits="userSpaceOnUse" x1="154" x2="154" xlink:href="#lg6" y1="424.455" y2="445.626"/><linearGradient id="SVGID_57_" gradientUnits="userSpaceOnUse" x1="129.985" x2="67.519" xlink:href="#lg7" y1="486.22" y2="423.754"/><linearGradient id="SVGID_58_" gradientUnits="userSpaceOnUse" x1="86.033" x2="116.823" xlink:href="#lg8" y1="442.268" y2="473.058"/><linearGradient id="SVGID_59_" gradientUnits="userSpaceOnUse" x1="174.653" x2="118.902" xlink:href="#lg7" y1="487.141" y2="431.39"/><linearGradient id="SVGID_60_" gradientUnits="userSpaceOnUse" x1="133.691" x2="157.46" xlink:href="#lg9" y1="446.18" y2="469.948"/><linearGradient id="SVGID_61_" gradientUnits="userSpaceOnUse" x1="215.722" x2="147.108" xlink:href="#lg7" y1="484.464" y2="415.85"/><linearGradient id="SVGID_62_" gradientUnits="userSpaceOnUse" x1="177.143" x2="197.093" xlink:href="#lg8" y1="445.884" y2="465.834"/><linearGradient id="SVGID_63_" gradientUnits="userSpaceOnUse" x1="119.946" x2="119.946" xlink:href="#lg1" y1="277.04" y2="298.211"/><linearGradient id="SVGID_64_" gradientUnits="userSpaceOnUse" x1="119.946" x2="119.946" xlink:href="#lg1" y1="424.455" y2="445.626"/><linearGradient id="SVGID_65_" gradientUnits="userSpaceOnUse" x1="119.946" x2="119.946" xlink:href="#lg1" y1="350.748" y2="371.919"/><linearGradient id="SVGID_66_" gradientUnits="userSpaceOnUse" x1="238.624" x2="304.705" y1="474.28" y2="520.325"><stop offset="0" stop-color="#43765a"/><stop offset="1" stop-color="#174461"/></linearGradient><linearGradient id="lg10"><stop offset="0" stop-color="#1b444f" stop-opacity="0"/><stop offset="1" stop-color="#1b444f"/></linearGradient><linearGradient id="SVGID_67_" gradientUnits="userSpaceOnUse" x1="267.433" x2="267.433" xlink:href="#lg10" y1="502.5" y2="477.367"/><linearGradient id="SVGID_68_" gradientUnits="userSpaceOnUse" x1="243.198" x2="269.698" xlink:href="#lg2" y1="471.353" y2="506.353"/><linearGradient id="SVGID_69_" gradientUnits="userSpaceOnUse" x1="288.987" x2="272.487" xlink:href="#lg10" y1="514.997" y2="472.497"/><linearGradient id="SVGID_70_" gradientUnits="userSpaceOnUse" x1="247.59" x2="282.09" xlink:href="#lg2" y1="424.577" y2="461.077"/><linearGradient id="lg11"><stop offset="0" stop-color="#18cefb"/><stop offset="1" stop-color="#4a97f6"/></linearGradient><linearGradient id="SVGID_71_" gradientUnits="userSpaceOnUse" x1="428" x2="444.014" xlink:href="#lg11" y1="79.876" y2="79.876"/><linearGradient id="SVGID_72_" gradientUnits="userSpaceOnUse" x1="260.986" x2="319.083" xlink:href="#lg11" y1="219.19" y2="269.493"/><linearGradient id="SVGID_73_" gradientUnits="userSpaceOnUse" x1="309.595" x2="447.079" xlink:href="#lg11" y1="242.507" y2="354.412"/><linearGradient id="lg12"><stop offset="0" stop-color="#2f73a0" stop-opacity="0"/><stop offset="1" stop-color="#2f73a0"/></linearGradient><linearGradient id="SVGID_74_" gradientUnits="userSpaceOnUse" x1="348.705" x2="348.705" xlink:href="#lg12" y1="512.426" y2="396.28"/><linearGradient id="lg13"><stop offset="0" stop-color="#ffce47"/><stop offset="1" stop-color="#ff9356"/></linearGradient><linearGradient id="SVGID_75_" gradientUnits="userSpaceOnUse" x1="336.729" x2="356.65" xlink:href="#lg13" y1="453.668" y2="507.113"/><linearGradient id="SVGID_76_" gradientUnits="userSpaceOnUse" x1="298.242" x2="318.196" xlink:href="#lg9" y1="454.507" y2="505.357"/><linearGradient id="SVGID_77_" gradientUnits="userSpaceOnUse" x1="348.705" x2="348.705" xlink:href="#lg12" y1="443.005" y2="326.86"/><linearGradient id="SVGID_78_" gradientUnits="userSpaceOnUse" x1="336.729" x2="356.65" xlink:href="#lg13" y1="384.247" y2="437.692"/><linearGradient id="SVGID_79_" gradientUnits="userSpaceOnUse" x1="298.242" x2="318.196" xlink:href="#lg9" y1="385.087" y2="435.936"/><linearGradient id="SVGID_80_" gradientUnits="userSpaceOnUse" x1="348.705" x2="348.705" xlink:href="#lg12" y1="373.584" y2="257.439"/><linearGradient id="SVGID_81_" gradientUnits="userSpaceOnUse" x1="336.729" x2="356.65" xlink:href="#lg13" y1="314.827" y2="368.271"/><linearGradient id="SVGID_82_" gradientUnits="userSpaceOnUse" x1="298.242" x2="318.196" xlink:href="#lg9" y1="315.666" y2="366.516"/><linearGradient id="SVGID_83_" gradientUnits="userSpaceOnUse" x1="348.705" x2="348.705" xlink:href="#lg12" y1="304.163" y2="188.018"/><linearGradient id="SVGID_84_" gradientUnits="userSpaceOnUse" x1="336.729" x2="356.65" xlink:href="#lg13" y1="245.406" y2="298.85"/><linearGradient id="SVGID_85_" gradientUnits="userSpaceOnUse" x1="298.242" x2="318.196" xlink:href="#lg9" y1="246.245" y2="297.095"/><linearGradient id="SVGID_86_" gradientUnits="userSpaceOnUse" x1="53.069" x2="132.565" xlink:href="#lg9" y1="85.061" y2="142.058"/><g><path d="m485.638 510h-461.276c-13.455 0-24.362-10.907-24.362-24.362v-461.276c0-13.455 10.907-24.362 24.362-24.362h461.275c13.456 0 24.363 10.907 24.363 24.362v461.275c0 13.456-10.907 24.363-24.362 24.363z" fill="url(#SVGID_1_)"/><g><circle cx="22.667" cy="20" fill="url(#SVGID_2_)" r="4.5"/><circle cx="32.667" cy="97.167" fill="url(#SVGID_3_)" r="4.5"/><circle cx="27.167" cy="299.333" fill="url(#SVGID_4_)" r="4.5"/><circle cx="256" cy="55.333" fill="url(#SVGID_5_)" r="4.5"/><circle cx="152.667" cy="106.5" fill="url(#SVGID_6_)" r="4.5"/><circle cx="104.667" cy="175.333" fill="url(#SVGID_7_)" r="4.5"/><circle cx="184" cy="220" fill="url(#SVGID_8_)" r="4.5"/><circle cx="30.667" cy="188" fill="url(#SVGID_9_)" r="4.5"/><circle cx="116.667" cy="250" fill="url(#SVGID_10_)" r="4.5"/><circle cx="105.333" cy="21.333" fill="url(#SVGID_11_)" r="4.5"/><circle cx="312" cy="34.667" fill="url(#SVGID_12_)" r="4.5"/><circle cx="372.667" cy="71.333" fill="url(#SVGID_13_)" r="4.5"/><circle cx="462.667" cy="158.667" fill="url(#SVGID_14_)" r="4.5"/><circle cx="492" cy="228.667" fill="url(#SVGID_15_)" r="4.5"/><circle cx="488" cy="88" fill="url(#SVGID_16_)" r="4.5"/><circle cx="169.333" cy="161.333" fill="url(#SVGID_17_)" r="4.5"/><circle cx="236" cy="240.667" fill="url(#SVGID_18_)" r="4.5"/><circle cx="58.667" cy="227.333" fill="url(#SVGID_19_)" r="4.5"/><circle cx="380.667" cy="22" fill="url(#SVGID_20_)" r="4.5"/><circle cx="464" cy="23.333" fill="url(#SVGID_21_)" r="4.5"/><circle cx="470.667" cy="292" fill="url(#SVGID_22_)" r="4.5"/><circle cx="216.667" cy="125.333" fill="url(#SVGID_23_)" r="4.5"/><circle cx="293.333" cy="106" fill="url(#SVGID_24_)" r="4.5"/><circle cx="254.667" cy="173.333" fill="url(#SVGID_25_)" r="4.5"/><circle cx="221.333" cy="17.333" fill="url(#SVGID_26_)" r="4.5"/><circle cx="164.667" cy="60.667" fill="url(#SVGID_27_)" r="4.5"/></g><path d="m510 449.907v-140.372c-.701.69-1.351 1.46-1.922 2.331l-60.521 92.315-3.516 5.085c-2.975 4.168-4.541 9.409-3.975 15.039 1.029 10.239 9.289 18.552 19.523 19.635 3.881.411 7.58-.19 10.872-1.57 4.947-2.073 10.655-.81 14.404 3.025 3.992 4.084 9.556 6.619 15.721 6.619 3.369.001 6.56-.756 9.414-2.107z" fill="url(#SVGID_28_)"/><path d="m510 485.638v-55.26l-55.136-84.103c-7.091-10.818-22.954-10.818-30.044 0l-76.955 117.391-4.468 6.476c-3.79 5.296-5.773 11.96-5.058 19.113.866 8.659 5.798 16.239 12.839 20.745h134.501c13.436-.023 24.321-10.921 24.321-24.362z" fill="url(#SVGID_29_)"/><path d="m0 324.541v161.097c0 13.455 10.907 24.362 24.362 24.362h75.848v-185.459z" fill="url(#SVGID_30_)"/><path d="m270.155 510h49.691v-198.388c0-12.373-7.093-22.404-15.842-22.404h-41.26c-5.848 0-10.589 4.741-10.589 10.589v188.773c0 11.836 8.059 21.43 18 21.43z" fill="url(#SVGID_31_)"/><path d="m213.995 510h49.691v-140.281c0-8.749-7.093-15.842-15.842-15.842h-51.849v140.97c0 8.369 8.058 15.153 18 15.153z" fill="url(#SVGID_32_)"/><g><g><path d="m74.257 281.56h159.485v72.328h-159.485z" fill="url(#SVGID_33_)"/><path d="m74.257 281.56h98.577v72.328h-98.577z" fill="url(#SVGID_34_)"/><path d="m74.257 281.56v13.583l58.745 58.745h100.741v-72.328z" fill="url(#SVGID_35_)"/><path d="m233.943 294.943h-159.886c-6.082 0-11.012-4.93-11.012-11.012v-4.742c0-6.082 4.93-11.012 11.012-11.012h159.886c6.082 0 11.012 4.93 11.012 11.012v4.742c0 6.082-4.93 11.012-11.012 11.012z" fill="url(#SVGID_36_)"/><g><g><path d="m122.606 303.848c-1.428-1.6-3.5-2.071-5.813-2.071h-16.583c-4.306 0-7.253 2.948-7.253 7.253v16.583c0 2.314.471 4.385 2.071 5.813l19.848 19.848c1.428 1.6 3.5 2.614 5.813 2.614h16.583c4.306 0 7.796-3.49 7.796-7.796v-16.583c0-2.314-1.014-4.385-2.614-5.813z" fill="url(#SVGID_37_)"/><path d="m116.793 301.234h-16.583c-4.306 0-7.796 3.49-7.796 7.796v16.583c0 4.306 3.49 7.796 7.796 7.796h16.583c4.306 0 7.796-3.49 7.796-7.796v-16.583c0-4.305-3.491-7.796-7.796-7.796z" fill="url(#SVGID_38_)"/></g><g><path d="m166.352 303.848c-1.428-1.6-3.5-2.071-5.813-2.071h-16.583c-4.306 0-7.253 2.948-7.253 7.253v16.583c0 2.314.471 4.385 2.071 5.813l19.848 19.848c1.428 1.6 3.5 2.614 5.813 2.614h16.583c4.306 0 7.796-3.49 7.796-7.796v-16.583c0-2.314-1.014-4.385-2.614-5.813z" fill="url(#SVGID_39_)"/><g><path d="m160.539 333.409h-16.583c-4.306 0-7.796-3.49-7.796-7.796v-16.583c0-4.306 3.49-7.796 7.796-7.796h16.583c4.306 0 7.796 3.49 7.796 7.796v16.583c0 4.306-3.49 7.796-7.796 7.796z" fill="url(#SVGID_40_)"/></g></g><g><path d="m210.099 303.848c-1.428-1.6-3.5-2.071-5.813-2.071h-16.583c-4.306 0-7.253 2.948-7.253 7.253v16.583c0 2.314.471 4.385 2.071 5.813l19.848 19.848c1.428 1.6 3.5 2.614 5.813 2.614h16.583c4.306 0 7.796-3.49 7.796-7.796v-16.583c0-2.314-1.014-4.385-2.614-5.813z" fill="url(#SVGID_41_)"/><g><path d="m204.286 333.409h-16.583c-4.306 0-7.796-3.49-7.796-7.796v-16.583c0-4.306 3.49-7.796 7.796-7.796h16.583c4.306 0 7.796 3.49 7.796 7.796v16.583c0 4.306-3.49 7.796-7.796 7.796z" fill="url(#SVGID_42_)"/></g></g></g></g><g><path d="m74.257 355.267h159.485v72.328h-159.485z" fill="url(#SVGID_43_)"/><path d="m74.257 355.267h98.577v72.328h-98.577z" fill="url(#SVGID_44_)"/><path d="m74.257 355.267v13.584l58.745 58.744h100.741v-72.328z" fill="url(#SVGID_45_)"/><path d="m233.943 368.65h-159.886c-6.082 0-11.012-4.93-11.012-11.012v-4.742c0-6.082 4.93-11.012 11.012-11.012h159.886c6.082 0 11.012 4.93 11.012 11.012v4.742c0 6.082-4.93 11.012-11.012 11.012z" fill="url(#SVGID_46_)"/><g><g><path d="m122.606 377.556c-1.428-1.6-3.5-2.071-5.813-2.071h-16.583c-4.306 0-7.253 2.948-7.253 7.253v16.583c0 2.314.471 4.385 2.071 5.813l19.848 19.848c1.428 1.6 3.5 2.614 5.813 2.614h16.583c4.306 0 7.796-3.49 7.796-7.796v-16.583c0-2.314-1.014-4.385-2.614-5.813z" fill="url(#SVGID_47_)"/><path d="m116.793 374.942h-16.583c-4.306 0-7.796 3.49-7.796 7.796v16.583c0 4.306 3.49 7.796 7.796 7.796h16.583c4.306 0 7.796-3.49 7.796-7.796v-16.583c0-4.306-3.491-7.796-7.796-7.796z" fill="url(#SVGID_48_)"/></g><g><path d="m166.352 377.556c-1.428-1.6-3.5-2.071-5.813-2.071h-16.583c-4.306 0-7.253 2.948-7.253 7.253v16.583c0 2.314.471 4.385 2.071 5.813l19.848 19.848c1.428 1.6 3.5 2.614 5.813 2.614h16.583c4.306 0 7.796-3.49 7.796-7.796v-16.583c0-2.314-1.014-4.385-2.614-5.813z" fill="url(#SVGID_49_)"/><g><path d="m160.539 407.117h-16.583c-4.306 0-7.796-3.49-7.796-7.796v-16.583c0-4.306 3.49-7.796 7.796-7.796h16.583c4.306 0 7.796 3.49 7.796 7.796v16.583c0 4.305-3.49 7.796-7.796 7.796z" fill="url(#SVGID_50_)"/></g></g><g><path d="m210.099 377.556c-1.428-1.6-3.5-2.071-5.813-2.071h-16.583c-4.306 0-7.253 2.948-7.253 7.253v16.583c0 2.314.471 4.385 2.071 5.813l19.848 19.848c1.428 1.6 3.5 2.614 5.813 2.614h16.583c4.306 0 7.796-3.49 7.796-7.796v-16.583c0-2.314-1.014-4.385-2.614-5.813z" fill="url(#SVGID_51_)"/><g><path d="m204.286 407.117h-16.583c-4.306 0-7.796-3.49-7.796-7.796v-16.583c0-4.306 3.49-7.796 7.796-7.796h16.583c4.306 0 7.796 3.49 7.796 7.796v16.583c0 4.305-3.49 7.796-7.796 7.796z" fill="url(#SVGID_52_)"/></g></g></g></g><g><path d="m74.257 428.974h159.485v81.026h-159.485z" fill="url(#SVGID_53_)"/><path d="m74.257 437.672h98.577v72.328h-98.577z" fill="url(#SVGID_54_)"/><path d="m74.257 428.974v13.584l58.745 58.744h100.741v-72.328z" fill="url(#SVGID_55_)"/><path d="m233.943 442.357h-159.886c-6.082 0-11.012-4.93-11.012-11.012v-4.742c0-6.082 4.93-11.012 11.012-11.012h159.886c6.082 0 11.012 4.93 11.012 11.012v4.742c0 6.082-4.93 11.012-11.012 11.012z" fill="url(#SVGID_56_)"/><g><g><path d="m122.606 451.263c-1.428-1.6-3.5-2.071-5.813-2.071h-16.583c-4.306 0-7.253 2.948-7.253 7.253v16.583c0 2.314.471 4.385 2.071 5.813l19.848 19.848c1.428 1.6 3.5 2.614 5.813 2.614h16.583c4.306 0 7.796-3.49 7.796-7.796v-16.583c0-2.314-1.014-4.385-2.614-5.813z" fill="url(#SVGID_57_)"/><path d="m116.793 448.649h-16.583c-4.306 0-7.796 3.49-7.796 7.796v16.583c0 4.306 3.49 7.796 7.796 7.796h16.583c4.306 0 7.796-3.49 7.796-7.796v-16.583c0-4.306-3.491-7.796-7.796-7.796z" fill="url(#SVGID_58_)"/></g><g><path d="m166.352 451.263c-1.428-1.6-3.5-2.071-5.813-2.071h-16.583c-4.306 0-7.253 2.948-7.253 7.253v16.583c0 2.314.471 4.385 2.071 5.813l19.848 19.848c1.428 1.6 3.5 2.614 5.813 2.614h16.583c4.306 0 7.796-3.49 7.796-7.796v-16.583c0-2.314-1.014-4.385-2.614-5.813z" fill="url(#SVGID_59_)"/><g><path d="m160.539 480.824h-16.583c-4.306 0-7.796-3.49-7.796-7.796v-16.583c0-4.306 3.49-7.796 7.796-7.796h16.583c4.306 0 7.796 3.49 7.796 7.796v16.583c0 4.305-3.49 7.796-7.796 7.796z" fill="url(#SVGID_60_)"/></g></g><g><path d="m210.099 451.263c-1.428-1.6-3.5-2.071-5.813-2.071h-16.583c-4.306 0-7.253 2.948-7.253 7.253v16.583c0 2.314.471 4.385 2.071 5.813l19.848 19.848c1.428 1.6 3.5 2.614 5.813 2.614h16.583c4.306 0 7.796-3.49 7.796-7.796v-16.583c0-2.314-1.014-4.385-2.614-5.813z" fill="url(#SVGID_61_)"/><g><path d="m204.286 480.824h-16.583c-4.306 0-7.796-3.49-7.796-7.796v-16.583c0-4.306 3.49-7.796 7.796-7.796h16.583c4.306 0 7.796 3.49 7.796 7.796v16.583c0 4.305-3.49 7.796-7.796 7.796z" fill="url(#SVGID_62_)"/></g></g></g></g><path d="m172.224 294.943h-98.167c-6.082 0-11.012-4.93-11.012-11.012v-4.742c0-6.082 4.93-11.012 11.012-11.012h98.167c2.553 0 4.623 2.07 4.623 4.623v17.52c0 2.553-2.07 4.623-4.623 4.623z" fill="url(#SVGID_63_)"/><path d="m172.224 442.357h-98.167c-6.082 0-11.012-4.93-11.012-11.012v-4.742c0-6.082 4.93-11.012 11.012-11.012h98.167c2.553 0 4.623 2.07 4.623 4.623v17.52c0 2.554-2.07 4.623-4.623 4.623z" fill="url(#SVGID_64_)"/><path d="m172.224 368.65h-98.167c-6.082 0-11.012-4.93-11.012-11.012v-4.742c0-6.082 4.93-11.012 11.012-11.012h98.167c2.553 0 4.623 2.07 4.623 4.623v17.52c0 2.553-2.07 4.623-4.623 4.623z" fill="url(#SVGID_65_)"/></g><g><g><path d="m316.123 509.999h-97.37l36.15-55.14c5.92-9.02 19.15-9.02 25.07 0z" fill="url(#SVGID_66_)"/><path d="m316.123 509.999h-97.38l36.15-55.14c5.93-9.02 19.16-9.02 25.08 0z" fill="url(#SVGID_67_)"/><path d="m336.213 509.999h-137.56c.61-2.09 1.57-4.03 2.8-5.76l3.06-4.42 52.65-80.31c4.85-7.4 15.7-7.4 20.55 0l54.12 82.56c.39.59.83 1.16 1.26 1.72 1.39 1.84 2.46 3.94 3.12 6.21z" fill="url(#SVGID_68_)"/><path d="m336.223 509.999h-75.01l-38.28-38.29 34.23-52.2c4.85-7.4 15.7-7.4 20.55 0l54.12 82.56c.39.59.82 1.15 1.25 1.72 1.4 1.84 2.47 3.94 3.14 6.21z" fill="url(#SVGID_69_)"/><path d="m320.479 445.27-44.581-68.002c-3.995-6.095-12.929-6.095-16.924 0l-43.366 66.149-2.519 3.644c-2.132 2.987-3.254 6.742-2.848 10.776.737 7.337 6.656 13.294 13.989 14.07 2.781.294 5.431-.136 7.79-1.125 3.545-1.485 7.635-.581 10.321 2.168 2.86 2.926 6.848 4.743 11.265 4.743 3.217 0 6.208-.963 8.702-2.616 3.099-2.053 7.157-2.053 10.256 0 2.494 1.653 5.485 2.616 8.702 2.616 4.417 0 8.405-1.817 11.265-4.743 2.687-2.748 6.777-3.653 10.321-2.168 2.359.988 5.01 1.419 7.79 1.125 7.333-.776 13.252-6.733 13.989-14.07.422-4.202-.813-8.102-3.12-11.145-.354-.468-.711-.932-1.032-1.422z" fill="url(#SVGID_70_)"/></g></g><g><path d="m443.889 124.542h-14.556v-82.055c0-4.019 3.258-7.278 7.278-7.278 4.019 0 7.278 3.258 7.278 7.278z" fill="url(#SVGID_71_)"/><g><g><path d="m443.889 510h-162.979v-272.053c0-79.62 64.545-144.165 144.165-144.165 10.391 0 18.814 8.423 18.814 18.814z" fill="url(#SVGID_72_)"/><path d="m443.889 510h-114.179v-315.22c0-55.78 45.218-100.998 100.998-100.998 7.279 0 13.181 5.901 13.181 13.181z" fill="url(#SVGID_73_)"/></g><g><g><path d="m406.865 498.831h-125.955v-52.622h125.955c5.321 0 9.635 4.314 9.635 9.635v33.352c0 5.321-4.314 9.635-9.635 9.635z" fill="url(#SVGID_74_)"/><path d="m401.142 491.047h-120.232v-37.054h120.232c4.34 0 7.858 3.518 7.858 7.858v21.338c0 4.34-3.518 7.858-7.858 7.858z" fill="url(#SVGID_75_)"/><path d="m280.91 453.993h48.8v37.054h-48.8z" fill="url(#SVGID_76_)"/></g><g><path d="m406.865 429.41h-125.955v-52.622h125.955c5.321 0 9.635 4.314 9.635 9.635v33.352c0 5.321-4.314 9.635-9.635 9.635z" fill="url(#SVGID_77_)"/><path d="m401.142 421.626h-120.232v-37.054h120.232c4.34 0 7.858 3.518 7.858 7.858v21.338c0 4.34-3.518 7.858-7.858 7.858z" fill="url(#SVGID_78_)"/><path d="m280.91 384.572h48.8v37.054h-48.8z" fill="url(#SVGID_79_)"/></g><g><path d="m406.865 359.989h-125.955v-52.622h125.955c5.321 0 9.635 4.314 9.635 9.635v33.352c0 5.321-4.314 9.635-9.635 9.635z" fill="url(#SVGID_80_)"/><path d="m401.142 352.205h-120.232v-37.054h120.232c4.34 0 7.858 3.518 7.858 7.858v21.338c0 4.34-3.518 7.858-7.858 7.858z" fill="url(#SVGID_81_)"/><path d="m280.91 315.151h48.8v37.054h-48.8z" fill="url(#SVGID_82_)"/></g><g><path d="m406.865 290.568h-125.955v-52.622h125.955c5.321 0 9.635 4.314 9.635 9.635v33.352c0 5.322-4.314 9.635-9.635 9.635z" fill="url(#SVGID_83_)"/><path d="m401.142 282.784h-120.232v-37.054h120.232c4.34 0 7.858 3.518 7.858 7.858v21.338c0 4.34-3.518 7.858-7.858 7.858z" fill="url(#SVGID_84_)"/><path d="m280.91 245.73h48.8v37.054h-48.8z" fill="url(#SVGID_85_)"/></g></g></g></g><path d="m59.737 23.201c-7.274-.276-14.298.614-20.906 2.494-5.379 1.53-6.8 8.533-2.424 12.016 15.403 12.262 25.279 31.166 25.279 52.384 0 21.221-9.88 40.128-25.286 52.389-4.345 3.458-2.995 10.459 2.345 11.986 5.844 1.671 12.014 2.568 18.395 2.568 37.995 0 68.597-31.653 66.874-70.028-1.552-34.549-29.718-62.495-64.277-63.809z" fill="url(#SVGID_86_)"/></g></svg>