<svg id="Capa_1" enable-background="new 0 0 510 510" height="512" viewBox="0 0 510 510" width="512" xmlns="http://www.w3.org/2000/svg" xmlns:xlink="http://www.w3.org/1999/xlink"><linearGradient id="SVGID_1_" gradientUnits="userSpaceOnUse" x1="255" x2="255" y1="34.721" y2="483.763"><stop offset="0" stop-color="#c7e9ff"/><stop offset=".3556" stop-color="#a3e6f2"/><stop offset="1" stop-color="#65e0db"/></linearGradient><linearGradient id="lg1"><stop offset="0" stop-color="#edf5ff"/><stop offset="1" stop-color="#c7e9ff"/></linearGradient><linearGradient id="SVGID_2_" gradientUnits="userSpaceOnUse" x1="162.609" x2="224.2" xlink:href="#lg1" y1="40.521" y2="102.112"/><linearGradient id="lg2"><stop offset="0" stop-color="#18cefb" stop-opacity="0"/><stop offset="1" stop-color="#0469bb"/></linearGradient><linearGradient id="SVGID_3_" gradientUnits="userSpaceOnUse" x1="442.415" x2="442.415" xlink:href="#lg2" y1="421.111" y2="162.965"/><linearGradient id="SVGID_4_" gradientUnits="userSpaceOnUse" x1="400.108" x2="400.108" xlink:href="#lg2" y1="429.514" y2="195.771"/><linearGradient id="SVGID_5_" gradientUnits="userSpaceOnUse" x1="513.097" x2="440.413" xlink:href="#lg2" y1="435.059" y2="379.006"/><linearGradient id="SVGID_6_" gradientUnits="userSpaceOnUse" x1="447.03" x2="380.762" xlink:href="#lg2" y1="447.795" y2="400.319"/><linearGradient id="SVGID_7_" gradientUnits="userSpaceOnUse" x1="63.845" x2="63.845" xlink:href="#lg2" y1="444.209" y2="253.144"/><linearGradient id="SVGID_8_" gradientUnits="userSpaceOnUse" x1="346.529" x2="209.87" xlink:href="#lg2" y1="385.265" y2="311.358"/><linearGradient id="SVGID_9_" gradientUnits="userSpaceOnUse" x1="291.181" x2="164.981" xlink:href="#lg2" y1="383.364" y2="338.74"/><linearGradient id="SVGID_10_" gradientUnits="userSpaceOnUse" x1="290.691" x2="202.886" xlink:href="#lg2" y1="465.529" y2="377.724"/><linearGradient id="SVGID_11_" gradientUnits="userSpaceOnUse" x1="213.659" x2="289.175" xlink:href="#lg1" y1="232.217" y2="307.732"/><linearGradient id="SVGID_12_" gradientUnits="userSpaceOnUse" x1="289.052" x2="320.676" xlink:href="#lg1" y1="199.052" y2="230.676"/><linearGradient id="SVGID_13_" gradientUnits="userSpaceOnUse" x1="392.861" x2="468.376" xlink:href="#lg1" y1="81.711" y2="157.226"/><linearGradient id="SVGID_14_" gradientUnits="userSpaceOnUse" x1="468.254" x2="499.877" xlink:href="#lg1" y1="48.547" y2="80.17"/><linearGradient id="SVGID_15_" gradientUnits="userSpaceOnUse" x1="324.781" x2="409.667" y1="55.819" y2="140.704"><stop offset="0" stop-color="#ffd945"/><stop offset=".3043" stop-color="#ffcd3e"/><stop offset=".8558" stop-color="#ffad2b"/><stop offset="1" stop-color="#ffa325"/></linearGradient><linearGradient id="lg3"><stop offset="0" stop-color="#d3145a"/><stop offset="1" stop-color="#9d005d"/></linearGradient><linearGradient id="SVGID_16_" gradientTransform="matrix(.707 .707 -1.187 1.187 432.371 -160.663)" gradientUnits="userSpaceOnUse" x1="-82.325" x2="-54.992" xlink:href="#lg3" y1="275.475" y2="275.475"/><linearGradient id="SVGID_17_" gradientTransform="matrix(-.707 .707 1.187 1.187 -318.708 -160.663)" gradientUnits="userSpaceOnUse" x1="-142.807" x2="-115.474" xlink:href="#lg3" y1="311.505" y2="311.505"/><linearGradient id="SVGID_18_" gradientTransform="matrix(.707 .707 -1.187 1.187 432.371 -160.663)" gradientUnits="userSpaceOnUse" x1="205.456" x2="232.789" xlink:href="#lg3" y1="373.538" y2="373.538"/><linearGradient id="lg4"><stop offset="0" stop-color="#ff7044"/><stop offset="1" stop-color="#f82814"/></linearGradient><linearGradient id="SVGID_19_" gradientTransform="matrix(-.707 .707 1.187 1.187 -144.525 -160.663)" gradientUnits="userSpaceOnUse" x1="205.456" x2="232.789" xlink:href="#lg4" y1="373.538" y2="373.538"/><linearGradient id="SVGID_20_" gradientTransform="matrix(.707 .707 -1.187 1.187 432.371 -160.663)" gradientUnits="userSpaceOnUse" x1="141.658" x2="168.991" xlink:href="#lg3" y1="335.533" y2="335.533"/><linearGradient id="SVGID_21_" gradientTransform="matrix(-.707 .707 1.187 1.187 -144.525 -160.663)" gradientUnits="userSpaceOnUse" x1="141.658" x2="168.991" xlink:href="#lg4" y1="335.533" y2="335.533"/><linearGradient id="SVGID_22_" gradientTransform="matrix(.707 .707 -1.187 1.187 432.371 -160.663)" gradientUnits="userSpaceOnUse" x1="77.86" x2="105.193" xlink:href="#lg3" y1="297.528" y2="297.528"/><linearGradient id="SVGID_23_" gradientTransform="matrix(-.707 .707 1.187 1.187 -144.525 -160.663)" gradientUnits="userSpaceOnUse" x1="77.86" x2="105.193" xlink:href="#lg4" y1="297.528" y2="297.528"/><linearGradient id="SVGID_24_" gradientUnits="userSpaceOnUse" x1="192.36" x2="192.36" xlink:href="#lg4" y1="112.581" y2="205.602"/><linearGradient id="lg5"><stop offset="0" stop-color="#9da6ac"/><stop offset="1" stop-color="#5a7587"/></linearGradient><linearGradient id="SVGID_25_" gradientUnits="userSpaceOnUse" x1="381.667" x2="381.667" xlink:href="#lg5" y1="404.206" y2="354.204"/><linearGradient id="SVGID_26_" gradientUnits="userSpaceOnUse" x1="381.667" x2="381.667" y1="387.706" y2="352.649"><stop offset="0" stop-color="#843561" stop-opacity="0"/><stop offset="1" stop-color="#3a2f4d"/></linearGradient><linearGradient id="SVGID_27_" gradientUnits="userSpaceOnUse" x1="381.667" x2="381.667" xlink:href="#lg5" y1="339.706" y2="362.228"/><linearGradient id="SVGID_28_" gradientUnits="userSpaceOnUse" x1="381.667" x2="381.667" xlink:href="#lg5" y1="395.706" y2="418.228"/><linearGradient id="lg6"><stop offset="0" stop-color="#2f73a0"/><stop offset="1" stop-color="#174461"/></linearGradient><linearGradient id="SVGID_29_" gradientUnits="userSpaceOnUse" x1="319.908" x2="332.492" xlink:href="#lg6" y1="392.824" y2="392.824"/><linearGradient id="SVGID_30_" gradientUnits="userSpaceOnUse" x1="430.841" x2="443.425" xlink:href="#lg6" y1="392.824" y2="392.824"/><linearGradient id="SVGID_31_" gradientUnits="userSpaceOnUse" x1="375.375" x2="387.959" xlink:href="#lg6" y1="237.392" y2="237.392"/><linearGradient id="lg7"><stop offset="0" stop-color="#ffce47"/><stop offset="1" stop-color="#f6921e"/></linearGradient><linearGradient id="SVGID_32_" gradientUnits="userSpaceOnUse" x1="361.166" x2="403.593" xlink:href="#lg7" y1="135.293" y2="177.72"/><linearGradient id="SVGID_33_" gradientTransform="matrix(-1 0 0 -1 822.832 241.169)" gradientUnits="userSpaceOnUse" x1="429.134" x2="454.034" xlink:href="#lg7" y1="73.344" y2="98.244"/><linearGradient id="SVGID_34_" gradientUnits="userSpaceOnUse" x1="319.908" x2="443.425" xlink:href="#lg6" y1="335.565" y2="335.565"/><linearGradient id="SVGID_35_" gradientUnits="userSpaceOnUse" x1="316.2" x2="336.2" xlink:href="#lg6" y1="365.209" y2="365.209"/><linearGradient id="SVGID_36_" gradientUnits="userSpaceOnUse" x1="427.133" x2="447.133" xlink:href="#lg6" y1="365.209" y2="365.209"/><linearGradient id="SVGID_37_" gradientUnits="userSpaceOnUse" x1="168.013" x2="207.102" xlink:href="#lg4" y1="325.396" y2="325.396"/><linearGradient id="SVGID_38_" gradientTransform="matrix(-1 0 0 1 280.91 0)" gradientUnits="userSpaceOnUse" x1="85.453" x2="101.253" xlink:href="#lg4" y1="325.396" y2="325.396"/><linearGradient id="SVGID_39_" gradientUnits="userSpaceOnUse" x1="80.744" x2="119.833" xlink:href="#lg4" y1="286.343" y2="286.343"/><linearGradient id="SVGID_40_" gradientTransform="matrix(-1 0 0 1 280.91 0)" gradientUnits="userSpaceOnUse" x1="172.722" x2="188.522" xlink:href="#lg4" y1="286.343" y2="286.343"/><linearGradient id="SVGID_41_" gradientUnits="userSpaceOnUse" x1="331.734" x2="260.401" y1="486.787" y2="434.12"><stop offset="0" stop-color="#7acbff" stop-opacity="0"/><stop offset="1" stop-color="#2f73a0"/></linearGradient><linearGradient id="SVGID_42_" gradientUnits="userSpaceOnUse" x1="354.036" x2="412.636" xlink:href="#lg1" y1="450.411" y2="509.011"/><linearGradient id="SVGID_43_" gradientUnits="userSpaceOnUse" x1="255" x2="255" xlink:href="#lg2" y1="449.805" y2="506.822"/><g><g><path d="m485.638 510h-461.276c-13.455 0-24.362-10.907-24.362-24.362v-461.276c0-13.455 10.907-24.362 24.362-24.362h461.275c13.456 0 24.363 10.907 24.363 24.362v461.275c0 13.456-10.907 24.363-24.362 24.363z" fill="url(#SVGID_1_)"/></g><path d="m226 41.307h-9.438c.402-1.58.638-3.226.638-4.931 0-11.037-8.947-19.984-19.984-19.984h-39.416c-11.037 0-19.984 8.947-19.984 19.984 0 1.705.237 3.351.638 4.931h-8.279c-8.115 0-14.693 6.578-14.693 14.693s6.578 14.693 14.693 14.693h95.825c8.115 0 14.693-6.578 14.693-14.693s-6.578-14.693-14.693-14.693z" fill="url(#SVGID_2_)"/><path d="m471.5 510h-58.169v-238.931c0-6.429 5.212-11.64 11.64-11.64h34.889c6.429 0 11.64 5.212 11.64 11.64z" fill="url(#SVGID_3_)"/><path d="m437.133 510h-74.05v-214.387c0-6.902 5.595-12.497 12.497-12.497h49.056c6.902 0 12.497 5.595 12.497 12.497z" fill="url(#SVGID_4_)"/><g><path d="m489.79 325.096-31.77 48.46-1.85 2.67c-1.56 2.19-2.38 4.94-2.08 7.89.5 5.06 4.37 9.22 9.3 10.17l-13.5 20.59-2.24 3.24c-1.9 2.66-2.9 6-2.54 9.59.39 3.88 2.43 7.33 5.38 9.63l-10.74 16.39-2.74 3.95c-2.31 3.24-3.53 7.32-3.09 11.69.8 7.96 7.23 14.43 15.18 15.27 3.02.32 5.9-.15 8.46-1.22 3.84-1.61 8.28-.63 11.2 2.35 3.06 3.13 7.31 5.08 12.02 5.14v19.094h4.858c13.455 0 24.362-10.907 24.362-24.362v-148.632l-7.81-11.91c-2.93-4.47-9.47-4.47-12.4 0z" fill="url(#SVGID_5_)"/><path d="m484.797 470.434c-.324-.427-.651-.852-.945-1.301l-10.172-15.517c2.491-1.941 4.206-4.845 4.536-8.124.317-3.152-.61-6.078-2.341-8.361-.266-.35-.534-.699-.775-1.066l-12.296-18.756c4.156-.801 7.417-4.309 7.845-8.573.261-2.596-.502-5.006-1.928-6.887-.219-.288-.44-.576-.638-.878l-27.547-42.019c-2.469-3.766-7.989-3.766-10.458 0l-26.796 40.874-1.557 2.251c-1.317 1.846-2.01 4.166-1.76 6.659.428 4.264 3.689 7.771 7.845 8.573l-11.385 17.366-1.89 2.734c-1.599 2.24-2.441 5.058-2.137 8.084.329 3.279 2.045 6.182 4.536 8.124l-9.061 13.821-2.305 3.335c-1.951 2.733-2.978 6.17-2.607 9.862.675 6.715 6.092 12.166 12.803 12.877 2.545.269 4.971-.125 7.13-1.029 3.244-1.359 6.987-.532 9.446 1.984 2.581 2.64 6.166 4.286 10.141 4.332v11.2h25.651v-11.2c3.975-.046 7.56-1.692 10.141-4.332 2.459-2.515 6.202-3.343 9.446-1.984 2.159.905 4.585 1.299 7.13 1.029 6.711-.71 12.128-6.162 12.803-12.877.387-3.846-.743-7.415-2.855-10.201z" fill="url(#SVGID_6_)"/></g><path d="m30 510h67.691v-174.954c0-5.802-4.704-10.506-10.506-10.506h-46.679c-5.802 0-10.506 4.704-10.506 10.506z" fill="url(#SVGID_7_)"/><g><path d="m343.311 222.667c-2.432 0-4.404 1.972-4.404 4.404v31.053c-33.373.446-60.29 27.633-60.29 61.111v190.765h69.099v-282.929c0-2.432-1.972-4.404-4.405-4.404z" fill="url(#SVGID_8_)"/><path d="m336.33 258.114c-48.184 0-87.245 39.061-87.245 87.245v164.641h29.533v-190.764c0-32.954 26.08-59.812 58.726-61.071-.335-.03-.672-.051-1.014-.051z" fill="url(#SVGID_9_)"/></g><path d="m309.804 384.202c3.558 0 6.442-2.884 6.442-6.442v-2.774c0-3.558-2.884-6.442-6.442-6.442h-93.526c-3.558 0-6.442 2.884-6.442 6.442v2.774c0 3.558 2.884 6.442 6.442 6.442h.117v27.458h-.117c-3.558 0-6.442 2.884-6.442 6.442v2.774c0 3.558 2.884 6.442 6.442 6.442h.117v27.458h-.117c-3.558 0-6.442 2.884-6.442 6.442v2.774c0 3.558 2.884 6.442 6.442 6.442h.117v39.566h93.292v-39.568h.117c3.558 0 6.442-2.884 6.442-6.442v-2.774c0-3.558-2.884-6.442-6.442-6.442h-.117v-27.458h.117c3.558 0 6.442-2.884 6.442-6.442v-2.774c0-3.558-2.884-6.442-6.442-6.442h-.117v-27.458h.117z" fill="url(#SVGID_10_)"/><g><path d="m272.336 239.566h-10.262c0-12.845-10.413-23.259-23.259-23.259h-45.876c-12.845 0-23.259 10.413-23.259 23.259s10.413 23.259 23.259 23.259h10.262c0 12.845 10.413 23.259 23.259 23.259h45.876c12.845 0 23.259-10.413 23.259-23.259 0-12.846-10.413-23.259-23.259-23.259z" fill="url(#SVGID_11_)"/><path d="m311.49 221.693h-28.98c-8.115 0-14.693-6.578-14.693-14.693 0-8.115 6.578-14.693 14.693-14.693h28.981c8.115 0 14.693 6.578 14.693 14.693-.001 8.115-6.579 14.693-14.694 14.693z" fill="url(#SVGID_12_)"/></g><g><path d="m451.538 89.06h-10.262c0-12.845-10.413-23.259-23.259-23.259h-45.876c-12.845 0-23.259 10.413-23.259 23.259s10.413 23.259 23.259 23.259h10.262c0 12.845 10.413 23.259 23.259 23.259h45.876c12.845 0 23.259-10.413 23.259-23.259-.001-12.846-10.414-23.259-23.259-23.259z" fill="url(#SVGID_13_)"/><path d="m490.692 71.187h-28.981c-8.115 0-14.693-6.578-14.693-14.693 0-8.115 6.578-14.693 14.693-14.693h28.981c8.115 0 14.693 6.578 14.693 14.693-.001 8.115-6.579 14.693-14.693 14.693z" fill="url(#SVGID_14_)"/></g><circle cx="346.114" cy="77.152" fill="url(#SVGID_15_)" r="66.943"/><g><path d="m7.743 166.867c-5.337-5.337-5.337-13.99 0-19.328l78.85-78.849c5.337-5.337 13.99-5.337 19.328 0 5.337 5.337 5.337 13.99 0 19.328l-78.849 78.849c-5.338 5.337-13.992 5.337-19.329 0z" fill="url(#SVGID_16_)"/><path d="m191.454 166.867c5.337-5.337 5.337-13.99 0-19.328l-78.849-78.849c-5.337-5.337-13.99-5.337-19.328 0-5.337 5.337-5.337 13.99 0 19.328l78.849 78.849c5.338 5.337 13.991 5.337 19.328 0z" fill="url(#SVGID_17_)"/><g><path d="m94.835 486.76c-5.337-5.337-5.337-13.99 0-19.328l78.849-78.849c5.337-5.337 13.99-5.337 19.328 0 5.337 5.337 5.337 13.99 0 19.328l-78.849 78.849c-5.338 5.337-13.991 5.337-19.328 0z" fill="url(#SVGID_18_)"/><path d="m193.011 486.76c5.337-5.337 5.337-13.99 0-19.328l-78.849-78.849c-5.337-5.337-13.99-5.337-19.328 0-5.337 5.337-5.337 13.99 0 19.328l78.849 78.849c5.338 5.337 13.991 5.337 19.328 0z" fill="url(#SVGID_19_)"/></g><g><path d="m94.835 396.536c-5.337-5.337-5.337-13.99 0-19.328l78.849-78.849c5.337-5.337 13.99-5.337 19.328 0 5.337 5.337 5.337 13.99 0 19.328l-78.849 78.849c-5.338 5.337-13.991 5.337-19.328 0z" fill="url(#SVGID_20_)"/><path d="m193.011 396.536c5.337-5.337 5.337-13.99 0-19.328l-78.849-78.849c-5.337-5.337-13.99-5.337-19.328 0-5.337 5.337-5.337 13.99 0 19.328l78.849 78.849c5.338 5.337 13.991 5.337 19.328 0z" fill="url(#SVGID_21_)"/></g><g><path d="m94.835 306.312c-5.337-5.337-5.337-13.99 0-19.328l78.849-78.849c5.337-5.337 13.99-5.337 19.328 0 5.337 5.337 5.337 13.99 0 19.328l-78.849 78.849c-5.338 5.337-13.991 5.337-19.328 0z" fill="url(#SVGID_22_)"/><path d="m193.011 306.312c5.337-5.337 5.337-13.99 0-19.328l-78.849-78.849c-5.337-5.337-13.99-5.337-19.328 0-5.337 5.337-5.337 13.99 0 19.328l78.849 78.849c5.338 5.337 13.991 5.337 19.328 0z" fill="url(#SVGID_23_)"/></g><g><path d="m368.242 172.273h-351.763c-9.101 0-16.479-7.378-16.479-16.479 0-9.101 7.378-16.479 16.479-16.479h351.762c9.101 0 16.479 7.378 16.479 16.479.001 9.101-7.377 16.479-16.478 16.479z" fill="url(#SVGID_24_)"/><g><path d="m277.333 354.456h208.667v45.633h-208.667z" fill="url(#SVGID_25_)"/><path d="m277.333 354.456v11.3l34.333 34.333h174.334v-45.633z" fill="url(#SVGID_26_)"/><g><path d="m486.75 365.006h-210.167c-4.74 0-8.583-3.843-8.583-8.583v-14.3c0-4.74 3.843-8.583 8.583-8.583h210.167c4.74 0 8.583 3.843 8.583 8.583v14.3c0 4.74-3.843 8.583-8.583 8.583z" fill="url(#SVGID_27_)"/><path d="m486.75 421.006h-210.167c-4.74 0-8.583-3.843-8.583-8.583v-14.3c0-4.74 3.843-8.583 8.583-8.583h210.167c4.74 0 8.583 3.843 8.583 8.583v14.3c0 4.74-3.843 8.583-8.583 8.583z" fill="url(#SVGID_28_)"/></g></g><path d="m326.2 425.709c-3.475 0-6.292-2.817-6.292-6.292v-53.187c0-3.475 2.817-6.292 6.292-6.292 3.475 0 6.292 2.817 6.292 6.292v53.187c0 3.475-2.817 6.292-6.292 6.292z" fill="url(#SVGID_29_)"/><path d="m437.133 425.709c-3.475 0-6.292-2.817-6.292-6.292v-53.187c0-3.475 2.817-6.292 6.292-6.292 3.475 0 6.292 2.817 6.292 6.292v53.187c0 3.475-2.817 6.292-6.292 6.292z" fill="url(#SVGID_30_)"/><g><path d="m375.375 155.794h12.584v163.196h-12.584z" fill="url(#SVGID_31_)"/><g><circle cx="381.667" cy="155.794" fill="url(#SVGID_32_)" r="31.664"/><circle cx="381.667" cy="155.794" fill="url(#SVGID_33_)" r="18.584"/></g><path d="m387.158 323.826 44.094 44.094c2.785 2.785 7.299 2.785 10.084 0 2.785-2.785 2.785-7.299 0-10.084l-54.628-54.628c-2.785-2.785-7.299-2.785-10.084 0l-54.628 54.628c-2.785 2.785-2.785 7.299 0 10.084 2.785 2.785 7.299 2.785 10.084 0l44.094-44.094c3.034-3.033 7.951-3.033 10.984 0z" fill="url(#SVGID_34_)"/></g><circle cx="326.2" cy="365.209" fill="url(#SVGID_35_)" r="10"/><circle cx="437.133" cy="365.209" fill="url(#SVGID_36_)" r="10"/></g><g><g><path d="m207.102 510h-39.09v-356.947c0-6.772 5.49-12.261 12.261-12.261h14.567c6.772 0 12.261 5.49 12.261 12.261v356.947z" fill="url(#SVGID_37_)"/><path d="m187.558 487.896c4.363 0 7.9-3.537 7.9-7.9v-309.2c0-4.363-3.537-7.9-7.9-7.9-4.363 0-7.9 3.537-7.9 7.9v309.201c0 4.362 3.537 7.899 7.9 7.899z" fill="url(#SVGID_38_)"/></g><g><path d="m119.833 510h-39.09v-435.053c0-6.772 5.49-12.261 12.261-12.261h14.567c6.772 0 12.261 5.49 12.261 12.261v435.053z" fill="url(#SVGID_39_)"/><path d="m100.288 487.896c4.363 0 7.9-3.537 7.9-7.9v-387.306c0-4.363-3.537-7.9-7.9-7.9-4.363 0-7.9 3.537-7.9 7.9v387.306c.001 4.363 3.538 7.9 7.9 7.9z" fill="url(#SVGID_40_)"/></g></g></g><path d="m360.066 510h-87.641v-65.401c0-4.263 3.456-7.718 7.718-7.718h72.204c4.263 0 7.718 3.456 7.718 7.718v65.401z" fill="url(#SVGID_41_)"/><path d="m399.57 456.114h-7.964c0-9.968-8.081-18.049-18.049-18.049h-35.6c-9.968 0-18.049 8.081-18.049 18.049s8.081 18.049 18.049 18.049h7.963c0 9.968 8.081 18.049 18.049 18.049h35.6c9.968 0 18.049-8.081 18.049-18.049.001-9.968-8.08-18.049-18.048-18.049z" fill="url(#SVGID_42_)"/><path d="m510 485.638v-53.699h-510v53.699c0 13.455 10.907 24.362 24.362 24.362h461.275c13.456 0 24.363-10.907 24.363-24.362z" fill="url(#SVGID_43_)"/></g></svg>