

<svg id="Capa_1" enable-background="new 0 0 510 510" height="512" viewBox="0 0 510 510" width="512" xmlns="http://www.w3.org/2000/svg" xmlns:xlink="http://www.w3.org/1999/xlink"><linearGradient id="SVGID_1_" gradientUnits="userSpaceOnUse" x1="255" x2="255" y1="34.721" y2="483.763"><stop offset="0" stop-color="#c7e9ff"/><stop offset=".3556" stop-color="#a3e6f2"/><stop offset="1" stop-color="#65e0db"/></linearGradient><linearGradient id="lg1"><stop offset="0" stop-color="#edf5ff"/><stop offset="1" stop-color="#c7e9ff"/></linearGradient><linearGradient id="SVGID_2_" gradientUnits="userSpaceOnUse" x1="267.431" x2="353.883" xlink:href="#lg1" y1="56.897" y2="143.349"/><linearGradient id="SVGID_3_" gradientUnits="userSpaceOnUse" x1="426.243" x2="462.447" xlink:href="#lg1" y1="35.429" y2="71.633"/><linearGradient id="SVGID_4_" gradientUnits="userSpaceOnUse" x1="370.806" x2="455.691" y1="112.759" y2="197.645"><stop offset="0" stop-color="#ffd945"/><stop offset=".3043" stop-color="#ffcd3e"/><stop offset=".8558" stop-color="#ffad2b"/><stop offset="1" stop-color="#ffa325"/></linearGradient><linearGradient id="lg2"><stop offset="0" stop-color="#2f73a0"/><stop offset="1" stop-color="#174461"/></linearGradient><linearGradient id="SVGID_5_" gradientUnits="userSpaceOnUse" x1="109.835" x2="109.835" xlink:href="#lg2" y1="40.641" y2="64.609"/><linearGradient id="SVGID_6_" gradientUnits="userSpaceOnUse" x1="123.645" x2="123.645" xlink:href="#lg2" y1="83.5" y2="107.469"/><linearGradient id="SVGID_7_" gradientUnits="userSpaceOnUse" x1="177.107" x2="177.107" xlink:href="#lg2" y1="57.569" y2="81.538"/><linearGradient id="lg3"><stop offset="0" stop-color="#18cefb" stop-opacity="0"/><stop offset="1" stop-color="#0469bb"/></linearGradient><linearGradient id="SVGID_8_" gradientUnits="userSpaceOnUse" x1="420.466" x2="420.466" xlink:href="#lg3" y1="350.873" y2="227.119"/><linearGradient id="SVGID_9_" gradientUnits="userSpaceOnUse" x1="152.941" x2="152.941" xlink:href="#lg3" y1="355.045" y2="194.016"/><linearGradient id="SVGID_10_" gradientUnits="userSpaceOnUse" x1="240.514" x2="293.514" xlink:href="#lg3" y1="286.325" y2="158.825"/><linearGradient id="SVGID_11_" gradientUnits="userSpaceOnUse" x1="336.826" x2="370.826" xlink:href="#lg3" y1="282.768" y2="222.768"/><linearGradient id="SVGID_12_" gradientUnits="userSpaceOnUse" x1="390.184" x2="414.295" xlink:href="#lg3" y1="292.754" y2="250.205"/><linearGradient id="lg4"><stop offset="0" stop-color="#ffe0ea"/><stop offset="1" stop-color="#ff80ab"/></linearGradient><linearGradient id="SVGID_13_" gradientUnits="userSpaceOnUse" x1="370.861" x2="392.016" xlink:href="#lg4" y1="302.003" y2="359.425"/><linearGradient id="lg5"><stop offset="0" stop-color="#ff7044"/><stop offset="1" stop-color="#f82814"/></linearGradient><linearGradient id="SVGID_14_" gradientUnits="userSpaceOnUse" x1="398.722" x2="417.864" xlink:href="#lg5" y1="302.545" y2="354.504"/><linearGradient id="lg6"><stop offset="0" stop-color="#ffce47"/><stop offset="1" stop-color="#f6921e"/></linearGradient><linearGradient id="SVGID_15_" gradientUnits="userSpaceOnUse" x1="429.602" x2="446.762" xlink:href="#lg6" y1="301.814" y2="348.391"/><linearGradient id="SVGID_16_" gradientUnits="userSpaceOnUse" x1="449.57" x2="465.598" xlink:href="#lg4" y1="300.535" y2="344.039"/><linearGradient id="SVGID_17_" gradientUnits="userSpaceOnUse" x1="473.644" x2="488.475" xlink:href="#lg5" y1="298.087" y2="338.345"/><linearGradient id="lg7"><stop offset="0" stop-color="#fff5d9"/><stop offset="1" stop-color="#ffce47"/></linearGradient><linearGradient id="SVGID_18_" gradientUnits="userSpaceOnUse" x1="116.258" x2="145.905" xlink:href="#lg7" y1="231.529" y2="318.826"/><linearGradient id="SVGID_19_" gradientUnits="userSpaceOnUse" x1="92.377" x2="119.278" xlink:href="#lg4" y1="240.213" y2="319.422"/><linearGradient id="SVGID_20_" gradientUnits="userSpaceOnUse" x1="63.021" x2="86.681" y1="250.136" y2="319.802"><stop offset="0" stop-color="#ff4181"/><stop offset="1" stop-color="#843561"/></linearGradient><linearGradient id="SVGID_21_" gradientUnits="userSpaceOnUse" x1="39.159" x2="60.391" xlink:href="#lg5" y1="257.055" y2="319.571"/><linearGradient id="SVGID_22_" gradientUnits="userSpaceOnUse" x1="16.787" x2="35.892" xlink:href="#lg7" y1="262.639" y2="318.892"/><linearGradient id="SVGID_23_" gradientUnits="userSpaceOnUse" x1="-3.772" x2="13.217" xlink:href="#lg4" y1="266.535" y2="316.559"/><linearGradient id="SVGID_24_" gradientTransform="matrix(-1 0 0 1 510 0)" gradientUnits="userSpaceOnUse" x1="387.244" x2="379.005" y1="364.281" y2="427.102"><stop offset="0" stop-color="#6fa953"/><stop offset="1" stop-color="#43765a"/></linearGradient><linearGradient id="SVGID_25_" gradientTransform="matrix(-1 0 0 1 510 0)" gradientUnits="userSpaceOnUse" x1="189.737" x2="223.706" y1="276.867" y2="376.887"><stop offset="0" stop-color="#e4e08e"/><stop offset="1" stop-color="#6fa953"/></linearGradient><linearGradient id="SVGID_26_" gradientUnits="userSpaceOnUse" x1="296.854" x2="355.283" xlink:href="#lg4" y1="344.357" y2="402.786"/><linearGradient id="SVGID_27_" gradientUnits="userSpaceOnUse" x1="316.77" x2="349.636" y1="352.247" y2="350.736"><stop offset="0" stop-color="#ff80ab" stop-opacity="0"/><stop offset="1" stop-color="#ff80ab"/></linearGradient><linearGradient id="lg8"><stop offset="0" stop-color="#1b444f" stop-opacity="0"/><stop offset="1" stop-color="#1b444f"/></linearGradient><linearGradient id="SVGID_28_" gradientUnits="userSpaceOnUse" x1="327.007" x2="327.007" xlink:href="#lg8" y1="388.187" y2="405.614"/><linearGradient id="lg9"><stop offset="0" stop-color="#798c00"/><stop offset="1" stop-color="#1b444f"/></linearGradient><linearGradient id="SVGID_29_" gradientUnits="userSpaceOnUse" x1="349.203" x2="349.203" xlink:href="#lg9" y1="391.612" y2="412.393"/><linearGradient id="SVGID_30_" gradientUnits="userSpaceOnUse" x1="61.952" x2="120.381" xlink:href="#lg5" y1="344.357" y2="402.786"/><linearGradient id="SVGID_31_" gradientUnits="userSpaceOnUse" x1="84.488" x2="122.081" xlink:href="#lg8" y1="352.031" y2="344.387"/><linearGradient id="SVGID_32_" gradientUnits="userSpaceOnUse" x1="92.105" x2="92.105" xlink:href="#lg8" y1="388.187" y2="405.614"/><linearGradient id="lg10"><stop offset="0" stop-color="#ffce47"/><stop offset="1" stop-color="#ff9356"/></linearGradient><linearGradient id="SVGID_33_" gradientUnits="userSpaceOnUse" x1="144.666" x2="190.942" xlink:href="#lg10" y1="356.544" y2="402.821"/><linearGradient id="lg11"><stop offset="0" stop-color="#ff755c" stop-opacity="0"/><stop offset="1" stop-color="#ff755c"/></linearGradient><linearGradient id="SVGID_34_" gradientUnits="userSpaceOnUse" x1="162.515" x2="192.289" xlink:href="#lg11" y1="362.622" y2="356.568"/><linearGradient id="SVGID_35_" gradientUnits="userSpaceOnUse" x1="168.548" x2="168.548" xlink:href="#lg8" y1="391.258" y2="405.061"/><linearGradient id="SVGID_36_" gradientUnits="userSpaceOnUse" x1="382.049" x2="428.326" xlink:href="#lg10" y1="356.544" y2="402.821"/><linearGradient id="SVGID_37_" gradientUnits="userSpaceOnUse" x1="399.898" x2="429.672" xlink:href="#lg11" y1="362.622" y2="356.568"/><linearGradient id="SVGID_38_" gradientUnits="userSpaceOnUse" x1="405.931" x2="405.931" xlink:href="#lg8" y1="391.258" y2="405.061"/><linearGradient id="SVGID_39_" gradientUnits="userSpaceOnUse" x1="230.5" x2="276.777" xlink:href="#lg10" y1="356.544" y2="402.821"/><linearGradient id="SVGID_40_" gradientUnits="userSpaceOnUse" x1="248.349" x2="278.123" xlink:href="#lg8" y1="362.622" y2="356.568"/><linearGradient id="SVGID_41_" gradientUnits="userSpaceOnUse" x1="254.382" x2="254.382" xlink:href="#lg8" y1="391.258" y2="405.061"/><linearGradient id="SVGID_42_" gradientUnits="userSpaceOnUse" x1="110.417" x2="154.83" xlink:href="#lg9" y1="391.447" y2="435.86"/><linearGradient id="SVGID_43_" gradientUnits="userSpaceOnUse" x1="127.547" x2="156.123" xlink:href="#lg8" y1="397.28" y2="391.47"/><linearGradient id="SVGID_44_" gradientUnits="userSpaceOnUse" x1="133.337" x2="133.337" xlink:href="#lg8" y1="424.763" y2="438.01"/><linearGradient id="SVGID_45_" gradientUnits="userSpaceOnUse" x1="195.409" x2="253.838" xlink:href="#lg9" y1="377.391" y2="435.82"/><linearGradient id="SVGID_46_" gradientUnits="userSpaceOnUse" x1="217.945" x2="255.538" xlink:href="#lg8" y1="385.065" y2="377.421"/><linearGradient id="SVGID_47_" gradientUnits="userSpaceOnUse" x1="225.562" x2="225.562" xlink:href="#lg8" y1="421.221" y2="438.648"/><linearGradient id="SVGID_48_" gradientUnits="userSpaceOnUse" x1="372.607" x2="420.388" xlink:href="#lg9" y1="388.07" y2="435.851"/><linearGradient id="SVGID_49_" gradientUnits="userSpaceOnUse" x1="391.037" x2="421.778" xlink:href="#lg8" y1="394.345" y2="388.095"/><linearGradient id="SVGID_50_" gradientUnits="userSpaceOnUse" x1="397.265" x2="397.265" xlink:href="#lg8" y1="423.912" y2="438.164"/><linearGradient id="lg12"><stop offset="0" stop-color="#843561" stop-opacity="0"/><stop offset=".2156" stop-color="#7a345e" stop-opacity=".216"/><stop offset=".5776" stop-color="#603257" stop-opacity=".578"/><stop offset="1" stop-color="#3a2f4d"/></linearGradient><linearGradient id="SVGID_51_" gradientUnits="userSpaceOnUse" x1="160.864" x2="160.864" xlink:href="#lg12" y1="406.723" y2="329.389"/><linearGradient id="SVGID_52_" gradientUnits="userSpaceOnUse" x1="229.314" x2="229.314" xlink:href="#lg12" y1="403.099" y2="304.398"/><linearGradient id="SVGID_53_" gradientUnits="userSpaceOnUse" x1="346.634" x2="346.634" xlink:href="#lg12" y1="405.113" y2="318.286"/><linearGradient id="SVGID_54_" gradientUnits="userSpaceOnUse" x1="286.793" x2="286.793" xlink:href="#lg12" y1="402.476" y2="300.103"/><linearGradient id="lg13"><stop offset="0" stop-color="#bada00"/><stop offset=".2187" stop-color="#b6d600"/><stop offset=".4501" stop-color="#acc900"/><stop offset=".6873" stop-color="#9ab400"/><stop offset=".9271" stop-color="#829700"/><stop offset="1" stop-color="#798c00"/></linearGradient><linearGradient id="SVGID_55_" gradientUnits="userSpaceOnUse" x1="94.109" x2="126.323" xlink:href="#lg13" y1="380.63" y2="412.844"/><linearGradient id="lg14"><stop offset="0" stop-color="#43765a" stop-opacity="0"/><stop offset="1" stop-color="#43765a"/></linearGradient><linearGradient id="SVGID_56_" gradientUnits="userSpaceOnUse" x1="102.457" x2="103.09" xlink:href="#lg14" y1="371.024" y2="407.928"/><linearGradient id="SVGID_57_" gradientUnits="userSpaceOnUse" x1="97.28" x2="135.52" xlink:href="#lg14" y1="384.848" y2="403.687"/><linearGradient id="SVGID_58_" gradientUnits="userSpaceOnUse" x1="83.219" x2="129.051" xlink:href="#lg14" y1="374.129" y2="403.231"/><linearGradient id="SVGID_59_" gradientUnits="userSpaceOnUse" x1="84.261" x2="101.413" xlink:href="#lg14" y1="372.786" y2="385.158"/><linearGradient id="SVGID_60_" gradientTransform="matrix(0 1 -1 0 628.679 118.037)" gradientUnits="userSpaceOnUse" x1="244.125" x2="276.339" xlink:href="#lg13" y1="480.886" y2="513.1"/><linearGradient id="SVGID_61_" gradientTransform="matrix(0 1 -1 0 628.679 118.037)" gradientUnits="userSpaceOnUse" x1="252.473" x2="253.106" xlink:href="#lg14" y1="471.28" y2="508.184"/><linearGradient id="SVGID_62_" gradientTransform="matrix(0 1 -1 0 628.679 118.037)" gradientUnits="userSpaceOnUse" x1="247.295" x2="285.535" xlink:href="#lg14" y1="485.104" y2="503.943"/><linearGradient id="SVGID_63_" gradientTransform="matrix(0 1 -1 0 628.679 118.037)" gradientUnits="userSpaceOnUse" x1="233.234" x2="279.066" xlink:href="#lg14" y1="474.385" y2="503.487"/><linearGradient id="SVGID_64_" gradientTransform="matrix(0 1 -1 0 628.679 118.037)" gradientUnits="userSpaceOnUse" x1="234.277" x2="251.428" xlink:href="#lg14" y1="473.042" y2="485.414"/><linearGradient id="SVGID_65_" gradientUnits="userSpaceOnUse" x1="116.802" x2="125.237" xlink:href="#lg13" y1="386.28" y2="386.28"/><linearGradient id="SVGID_66_" gradientUnits="userSpaceOnUse" x1="144.115" x2="144.115" xlink:href="#lg4" y1="297.357" y2="313.384"/><linearGradient id="SVGID_67_" gradientUnits="userSpaceOnUse" x1="101.572" x2="101.572" xlink:href="#lg4" y1="297.357" y2="313.384"/><linearGradient id="SVGID_68_" gradientUnits="userSpaceOnUse" x1="123.992" x2="138.813" xlink:href="#lg4" y1="289.816" y2="318.503"/><linearGradient id="SVGID_69_" gradientUnits="userSpaceOnUse" x1="123.255" x2="107.765" xlink:href="#lg4" y1="289.519" y2="317.595"/><linearGradient id="SVGID_70_" gradientUnits="userSpaceOnUse" x1="110.522" x2="100.656" xlink:href="#lg4" y1="309.923" y2="319.789"/><linearGradient id="SVGID_71_" gradientUnits="userSpaceOnUse" x1="133.887" x2="145.503" xlink:href="#lg4" y1="307.794" y2="319.411"/><linearGradient id="SVGID_72_" gradientUnits="userSpaceOnUse" x1="116.988" x2="125.771" xlink:href="#lg6" y1="312.981" y2="327.147"/><linearGradient id="SVGID_73_" gradientUnits="userSpaceOnUse" x1="111.65" x2="135.196" xlink:href="#lg4" y1="311.557" y2="313.519"/><linearGradient id="SVGID_74_" gradientUnits="userSpaceOnUse" x1="128.775" x2="138.272" xlink:href="#lg4" y1="316.755" y2="335.136"/><linearGradient id="SVGID_75_" gradientUnits="userSpaceOnUse" x1="117.307" x2="107.487" xlink:href="#lg4" y1="316.673" y2="334.471"/><linearGradient id="SVGID_76_" gradientUnits="userSpaceOnUse" x1="144.23" x2="153.014" xlink:href="#lg4" y1="317.505" y2="334.505"/><linearGradient id="SVGID_77_" gradientUnits="userSpaceOnUse" x1="101.814" x2="92.747" xlink:href="#lg4" y1="317.445" y2="333.878"/><linearGradient id="SVGID_78_" gradientUnits="userSpaceOnUse" x1="110.156" x2="123.238" xlink:href="#lg13" y1="340.231" y2="353.313"/><linearGradient id="SVGID_79_" gradientUnits="userSpaceOnUse" x1="128.419" x2="133.059" xlink:href="#lg13" y1="339.999" y2="351.387"/><linearGradient id="SVGID_80_" gradientUnits="userSpaceOnUse" x1="170.389" x2="202.603" xlink:href="#lg13" y1="380.63" y2="412.844"/><linearGradient id="SVGID_81_" gradientUnits="userSpaceOnUse" x1="178.737" x2="179.37" xlink:href="#lg14" y1="371.024" y2="407.928"/><linearGradient id="SVGID_82_" gradientUnits="userSpaceOnUse" x1="173.56" x2="211.8" xlink:href="#lg14" y1="384.848" y2="403.687"/><linearGradient id="SVGID_83_" gradientUnits="userSpaceOnUse" x1="159.498" x2="205.33" xlink:href="#lg14" y1="374.129" y2="403.231"/><linearGradient id="SVGID_84_" gradientUnits="userSpaceOnUse" x1="160.541" x2="177.693" xlink:href="#lg14" y1="372.786" y2="385.158"/><linearGradient id="SVGID_85_" gradientTransform="matrix(0 1 -1 0 572.287 118.037)" gradientUnits="userSpaceOnUse" x1="244.125" x2="276.339" xlink:href="#lg13" y1="348.213" y2="380.427"/><linearGradient id="SVGID_86_" gradientTransform="matrix(0 1 -1 0 572.287 118.037)" gradientUnits="userSpaceOnUse" x1="252.473" x2="253.106" xlink:href="#lg14" y1="338.607" y2="375.512"/><linearGradient id="SVGID_87_" gradientTransform="matrix(0 1 -1 0 572.287 118.037)" gradientUnits="userSpaceOnUse" x1="247.295" x2="285.535" xlink:href="#lg14" y1="352.432" y2="371.27"/><linearGradient id="SVGID_88_" gradientTransform="matrix(0 1 -1 0 572.287 118.037)" gradientUnits="userSpaceOnUse" x1="233.234" x2="279.066" xlink:href="#lg14" y1="341.712" y2="370.814"/><linearGradient id="SVGID_89_" gradientTransform="matrix(0 1 -1 0 572.287 118.037)" gradientUnits="userSpaceOnUse" x1="234.277" x2="251.428" xlink:href="#lg14" y1="340.369" y2="352.741"/><linearGradient id="SVGID_90_" gradientUnits="userSpaceOnUse" x1="175.251" x2="187.188" y1="306.029" y2="317.966"><stop offset="0" stop-color="#ff755c"/><stop offset="1" stop-color="#ff4181"/></linearGradient><linearGradient id="SVGID_91_" gradientUnits="userSpaceOnUse" x1="193.433" x2="210.693" xlink:href="#lg5" y1="305.112" y2="322.371"/><linearGradient id="SVGID_92_" gradientTransform="matrix(-1 0 0 1 2430.372 0)" gradientUnits="userSpaceOnUse" x1="2204.488" x2="2244.075" xlink:href="#lg5" y1="316.562" y2="356.149"/><linearGradient id="SVGID_93_" gradientUnits="userSpaceOnUse" x1="169.657" x2="209.243" xlink:href="#lg5" y1="316.562" y2="356.149"/><linearGradient id="SVGID_94_" gradientUnits="userSpaceOnUse" x1="191.303" x2="199.739" xlink:href="#lg13" y1="386.28" y2="386.28"/><linearGradient id="SVGID_95_" gradientUnits="userSpaceOnUse" x1="184.658" x2="197.74" xlink:href="#lg13" y1="340.231" y2="353.313"/><linearGradient id="SVGID_96_" gradientUnits="userSpaceOnUse" x1="202.921" x2="207.56" xlink:href="#lg13" y1="339.999" y2="351.387"/><linearGradient id="SVGID_97_" gradientTransform="matrix(-1 0 0 1 223.141 0)" gradientUnits="userSpaceOnUse" x1="-115.803" x2="-83.589" xlink:href="#lg13" y1="380.63" y2="412.844"/><linearGradient id="SVGID_98_" gradientTransform="matrix(-1 0 0 1 223.141 0)" gradientUnits="userSpaceOnUse" x1="-107.455" x2="-106.822" xlink:href="#lg14" y1="371.024" y2="407.928"/><linearGradient id="SVGID_99_" gradientTransform="matrix(-1 0 0 1 223.141 0)" gradientUnits="userSpaceOnUse" x1="-112.633" x2="-74.392" xlink:href="#lg14" y1="384.848" y2="403.687"/><linearGradient id="SVGID_100_" gradientTransform="matrix(-1 0 0 1 223.141 0)" gradientUnits="userSpaceOnUse" x1="-126.694" x2="-80.862" xlink:href="#lg14" y1="374.129" y2="403.231"/><linearGradient id="SVGID_101_" gradientTransform="matrix(-1 0 0 1 223.141 0)" gradientUnits="userSpaceOnUse" x1="-125.651" x2="-108.499" xlink:href="#lg14" y1="372.786" y2="385.158"/><linearGradient id="SVGID_102_" gradientTransform="matrix(0 1 1 0 -349.145 118.037)" gradientUnits="userSpaceOnUse" x1="244.125" x2="276.339" xlink:href="#lg13" y1="634.405" y2="666.619"/><linearGradient id="SVGID_103_" gradientTransform="matrix(0 1 1 0 -349.145 118.037)" gradientUnits="userSpaceOnUse" x1="252.473" x2="253.106" xlink:href="#lg14" y1="624.799" y2="661.704"/><linearGradient id="SVGID_104_" gradientTransform="matrix(0 1 1 0 -349.145 118.037)" gradientUnits="userSpaceOnUse" x1="247.295" x2="285.535" xlink:href="#lg14" y1="638.624" y2="657.463"/><linearGradient id="SVGID_105_" gradientTransform="matrix(0 1 1 0 -349.145 118.037)" gradientUnits="userSpaceOnUse" x1="233.234" x2="279.066" xlink:href="#lg14" y1="627.904" y2="657.006"/><linearGradient id="SVGID_106_" gradientTransform="matrix(0 1 1 0 -349.145 118.037)" gradientUnits="userSpaceOnUse" x1="234.277" x2="251.428" xlink:href="#lg14" y1="626.561" y2="638.933"/><linearGradient id="SVGID_107_" gradientUnits="userSpaceOnUse" x1="305.586" x2="314.021" xlink:href="#lg13" y1="386.28" y2="386.28"/><linearGradient id="SVGID_108_" gradientUnits="userSpaceOnUse" x1="332.899" x2="332.899" xlink:href="#lg5" y1="297.357" y2="313.384"/><linearGradient id="SVGID_109_" gradientUnits="userSpaceOnUse" x1="290.356" x2="290.356" xlink:href="#lg5" y1="297.357" y2="313.384"/><linearGradient id="SVGID_110_" gradientUnits="userSpaceOnUse" x1="312.776" x2="327.597" xlink:href="#lg5" y1="289.816" y2="318.503"/><linearGradient id="SVGID_111_" gradientUnits="userSpaceOnUse" x1="312.039" x2="296.549" xlink:href="#lg5" y1="289.519" y2="317.595"/><linearGradient id="SVGID_112_" gradientUnits="userSpaceOnUse" x1="299.306" x2="289.44" xlink:href="#lg5" y1="309.923" y2="319.789"/><linearGradient id="SVGID_113_" gradientUnits="userSpaceOnUse" x1="322.671" x2="334.287" xlink:href="#lg5" y1="307.794" y2="319.411"/><linearGradient id="SVGID_114_" gradientUnits="userSpaceOnUse" x1="305.772" x2="314.555" xlink:href="#lg6" y1="312.981" y2="327.147"/><linearGradient id="lg15"><stop offset="0" stop-color="#d3145a"/><stop offset="1" stop-color="#9d005d"/></linearGradient><linearGradient id="SVGID_115_" gradientUnits="userSpaceOnUse" x1="300.433" x2="323.98" xlink:href="#lg15" y1="311.557" y2="313.519"/><linearGradient id="SVGID_116_" gradientUnits="userSpaceOnUse" x1="317.559" x2="327.056" xlink:href="#lg15" y1="316.755" y2="335.136"/><linearGradient id="SVGID_117_" gradientUnits="userSpaceOnUse" x1="306.091" x2="296.271" xlink:href="#lg15" y1="316.673" y2="334.471"/><linearGradient id="SVGID_118_" gradientUnits="userSpaceOnUse" x1="333.014" x2="341.798" xlink:href="#lg15" y1="317.505" y2="334.505"/><linearGradient id="SVGID_119_" gradientUnits="userSpaceOnUse" x1="290.597" x2="281.531" xlink:href="#lg15" y1="317.445" y2="333.878"/><linearGradient id="SVGID_120_" gradientUnits="userSpaceOnUse" x1="298.94" x2="312.022" xlink:href="#lg13" y1="340.231" y2="353.313"/><linearGradient id="SVGID_121_" gradientUnits="userSpaceOnUse" x1="317.203" x2="321.843" xlink:href="#lg13" y1="339.999" y2="351.387"/><linearGradient id="SVGID_122_" gradientUnits="userSpaceOnUse" x1="226.098" x2="264.101" xlink:href="#lg13" y1="369.681" y2="407.684"/><linearGradient id="SVGID_123_" gradientUnits="userSpaceOnUse" x1="235.947" x2="236.693" xlink:href="#lg14" y1="358.35" y2="401.885"/><linearGradient id="SVGID_124_" gradientUnits="userSpaceOnUse" x1="229.839" x2="274.95" xlink:href="#lg14" y1="374.658" y2="396.882"/><linearGradient id="SVGID_125_" gradientUnits="userSpaceOnUse" x1="213.251" x2="267.319" xlink:href="#lg14" y1="362.013" y2="396.344"/><linearGradient id="SVGID_126_" gradientUnits="userSpaceOnUse" x1="214.481" x2="234.715" xlink:href="#lg14" y1="360.428" y2="375.023"/><linearGradient id="SVGID_127_" gradientTransform="matrix(0 1 -1 0 572.287 118.037)" gradientUnits="userSpaceOnUse" x1="229.858" x2="267.86" xlink:href="#lg13" y1="282.857" y2="320.859"/><linearGradient id="SVGID_128_" gradientTransform="matrix(0 1 -1 0 572.287 118.037)" gradientUnits="userSpaceOnUse" x1="239.706" x2="240.453" xlink:href="#lg14" y1="271.525" y2="315.061"/><linearGradient id="SVGID_129_" gradientTransform="matrix(0 1 -1 0 572.287 118.037)" gradientUnits="userSpaceOnUse" x1="233.598" x2="278.71" xlink:href="#lg14" y1="287.833" y2="310.057"/><linearGradient id="SVGID_130_" gradientTransform="matrix(0 1 -1 0 572.287 118.037)" gradientUnits="userSpaceOnUse" x1="217.011" x2="271.078" xlink:href="#lg14" y1="275.188" y2="309.519"/><linearGradient id="SVGID_131_" gradientTransform="matrix(0 1 -1 0 572.287 118.037)" gradientUnits="userSpaceOnUse" x1="218.24" x2="238.474" xlink:href="#lg14" y1="273.603" y2="288.198"/><linearGradient id="lg16"><stop offset="0" stop-color="#ffc0d5"/><stop offset="1" stop-color="#ff80ab"/></linearGradient><linearGradient id="SVGID_132_" gradientUnits="userSpaceOnUse" x1="231.834" x2="245.916" xlink:href="#lg16" y1="261.929" y2="276.011"/><linearGradient id="SVGID_133_" gradientUnits="userSpaceOnUse" x1="253.284" x2="273.644" xlink:href="#lg16" y1="260.848" y2="281.208"/><linearGradient id="SVGID_134_" gradientTransform="matrix(-1 0 0 1 2430.372 0)" gradientUnits="userSpaceOnUse" x1="2138.807" x2="2185.506" xlink:href="#lg4" y1="274.356" y2="321.055"/><linearGradient id="SVGID_135_" gradientUnits="userSpaceOnUse" x1="225.235" x2="271.934" xlink:href="#lg4" y1="274.356" y2="321.055"/><linearGradient id="SVGID_136_" gradientUnits="userSpaceOnUse" x1="250.771" x2="260.722" xlink:href="#lg13" y1="367.858" y2="367.858"/><linearGradient id="SVGID_137_" gradientUnits="userSpaceOnUse" x1="242.932" x2="258.364" xlink:href="#lg13" y1="302.278" y2="317.71"/><linearGradient id="SVGID_138_" gradientUnits="userSpaceOnUse" x1="264.476" x2="269.949" xlink:href="#lg13" y1="302.004" y2="315.438"/><linearGradient id="SVGID_139_" gradientUnits="userSpaceOnUse" x1="355.216" x2="382.185" xlink:href="#lg13" y1="386.077" y2="413.046"/><linearGradient id="SVGID_140_" gradientUnits="userSpaceOnUse" x1="362.205" x2="362.735" xlink:href="#lg14" y1="378.036" y2="408.931"/><linearGradient id="SVGID_141_" gradientUnits="userSpaceOnUse" x1="357.871" x2="389.884" xlink:href="#lg14" y1="389.609" y2="405.381"/><linearGradient id="SVGID_142_" gradientUnits="userSpaceOnUse" x1="346.099" x2="384.468" xlink:href="#lg14" y1="380.635" y2="404.999"/><linearGradient id="SVGID_143_" gradientUnits="userSpaceOnUse" x1="346.972" x2="361.331" xlink:href="#lg14" y1="379.511" y2="389.868"/><linearGradient id="SVGID_144_" gradientTransform="matrix(0 1 -1 0 572.287 118.037)" gradientUnits="userSpaceOnUse" x1="252.58" x2="279.548" xlink:href="#lg13" y1="172.127" y2="199.096"/><linearGradient id="SVGID_145_" gradientTransform="matrix(0 1 -1 0 572.287 118.037)" gradientUnits="userSpaceOnUse" x1="259.568" x2="260.098" xlink:href="#lg14" y1="164.085" y2="194.981"/><linearGradient id="SVGID_146_" gradientTransform="matrix(0 1 -1 0 572.287 118.037)" gradientUnits="userSpaceOnUse" x1="255.234" x2="287.248" xlink:href="#lg14" y1="175.659" y2="191.43"/><linearGradient id="SVGID_147_" gradientTransform="matrix(0 1 -1 0 572.287 118.037)" gradientUnits="userSpaceOnUse" x1="243.462" x2="281.832" xlink:href="#lg14" y1="166.685" y2="191.048"/><linearGradient id="SVGID_148_" gradientTransform="matrix(0 1 -1 0 572.287 118.037)" gradientUnits="userSpaceOnUse" x1="244.335" x2="258.694" xlink:href="#lg14" y1="165.56" y2="175.918"/><linearGradient id="SVGID_149_" gradientUnits="userSpaceOnUse" x1="359.287" x2="369.28" xlink:href="#lg6" y1="309.611" y2="319.604"/><linearGradient id="SVGID_150_" gradientUnits="userSpaceOnUse" x1="374.508" x2="388.957" xlink:href="#lg6" y1="308.843" y2="323.292"/><linearGradient id="SVGID_151_" gradientTransform="matrix(-1 0 0 1 2430.372 0)" gradientUnits="userSpaceOnUse" x1="2028.697" x2="2061.837" xlink:href="#lg6" y1="318.429" y2="351.57"/><linearGradient id="SVGID_152_" gradientUnits="userSpaceOnUse" x1="354.603" x2="387.744" xlink:href="#lg6" y1="318.429" y2="351.57"/><linearGradient id="SVGID_153_" gradientUnits="userSpaceOnUse" x1="372.725" x2="379.787" xlink:href="#lg13" y1="384.783" y2="384.783"/><linearGradient id="SVGID_154_" gradientUnits="userSpaceOnUse" x1="367.162" x2="378.113" xlink:href="#lg13" y1="338.244" y2="349.196"/><linearGradient id="SVGID_155_" gradientUnits="userSpaceOnUse" x1="382.451" x2="386.335" xlink:href="#lg13" y1="338.05" y2="347.584"/><linearGradient id="SVGID_156_" gradientUnits="userSpaceOnUse" x1="22.064" x2="78.091" xlink:href="#lg13" y1="379.8" y2="435.827"/><linearGradient id="SVGID_157_" gradientUnits="userSpaceOnUse" x1="43.674" x2="79.721" xlink:href="#lg14" y1="387.159" y2="379.829"/><linearGradient id="SVGID_158_" gradientUnits="userSpaceOnUse" x1="50.977" x2="50.977" xlink:href="#lg14" y1="421.828" y2="438.539"/><linearGradient id="SVGID_159_" gradientUnits="userSpaceOnUse" x1="428.612" x2="484.639" xlink:href="#lg13" y1="379.8" y2="435.827"/><linearGradient id="SVGID_160_" gradientUnits="userSpaceOnUse" x1="450.222" x2="486.27" xlink:href="#lg14" y1="387.159" y2="379.829"/><linearGradient id="SVGID_161_" gradientUnits="userSpaceOnUse" x1="457.526" x2="457.526" xlink:href="#lg14" y1="421.828" y2="438.539"/><linearGradient id="SVGID_162_" gradientUnits="userSpaceOnUse" x1="274.033" x2="315.458" xlink:href="#lg13" y1="394.444" y2="435.869"/><linearGradient id="SVGID_163_" gradientUnits="userSpaceOnUse" x1="290.011" x2="316.664" xlink:href="#lg14" y1="399.884" y2="394.465"/><linearGradient id="SVGID_164_" gradientUnits="userSpaceOnUse" x1="295.411" x2="295.411" xlink:href="#lg14" y1="425.519" y2="437.874"/><linearGradient id="SVGID_165_" gradientUnits="userSpaceOnUse" x1="255" x2="255" xlink:href="#lg13" y1="415.096" y2="528.702"/><linearGradient id="SVGID_166_" gradientUnits="userSpaceOnUse" x1="243.155" x2="286.737" xlink:href="#lg14" y1="434.07" y2="610.649"/><linearGradient id="SVGID_167_" gradientUnits="userSpaceOnUse" x1="322.151" x2="304.62" xlink:href="#lg14" y1="496.138" y2="438.15"/><linearGradient id="lg17"><stop offset="0" stop-color="#c59b6d"/><stop offset="1" stop-color="#8b6239"/></linearGradient><linearGradient id="SVGID_168_" gradientUnits="userSpaceOnUse" x1="274.04" x2="299.562" xlink:href="#lg17" y1="436.092" y2="461.615"/><linearGradient id="SVGID_169_" gradientUnits="userSpaceOnUse" x1="301.016" x2="289.958" y1="434.07" y2="447.825"><stop offset="0" stop-color="#754c24" stop-opacity="0"/><stop offset="1" stop-color="#754c24"/></linearGradient><linearGradient id="SVGID_170_" gradientUnits="userSpaceOnUse" x1="302.037" x2="314.798" xlink:href="#lg17" y1="449.376" y2="462.137"/><linearGradient id="SVGID_171_" gradientUnits="userSpaceOnUse" x1="130.906" x2="105.973" xlink:href="#lg14" y1="511.453" y2="466.121"/><linearGradient id="SVGID_172_" gradientUnits="userSpaceOnUse" x1="100.932" x2="118.806" xlink:href="#lg17" y1="470.394" y2="488.267"/><linearGradient id="SVGID_173_" gradientUnits="userSpaceOnUse" x1="85.52" x2="136.417" xlink:href="#lg1" y1="152.298" y2="203.195"/><g><path d="m485.638 510h-461.276c-13.455 0-24.362-10.907-24.362-24.362v-461.276c0-13.455 10.907-24.362 24.362-24.362h461.275c13.456 0 24.363 10.907 24.363 24.362v461.275c0 13.456-10.907 24.363-24.362 24.363z" fill="url(#SVGID_1_)"/><g><path d="m334.606 65.31h-11.749c0-14.706-11.922-26.627-26.627-26.627h-52.52c-14.706 0-26.627 11.922-26.627 26.627s11.922 26.627 26.627 26.627h11.748c0 14.706 11.922 26.627 26.627 26.627h52.52c14.706 0 26.627-11.922 26.627-26.627.002-14.705-11.92-26.627-26.626-26.627z" fill="url(#SVGID_2_)"/><path d="m451.931 61.349h-33.178c-9.29 0-16.821-7.531-16.821-16.821 0-9.29 7.531-16.821 16.821-16.821h33.178c9.29 0 16.821 7.531 16.821 16.821 0 9.29-7.531 16.821-16.821 16.821z" fill="url(#SVGID_3_)"/></g><circle cx="392.139" cy="134.092" fill="url(#SVGID_4_)" r="66.943"/><g><path d="m109.838 64.609c-3.464 0-6.75-1.684-8.79-4.505-3.122-4.317-8.145-9.463-14.343-9.463-2.761 0-5-2.239-5-5s2.239-5 5-5c8.249 0 16.01 4.704 22.446 13.603.352.486 1.023.484 1.374 0 6.427-8.899 14.187-13.603 22.44-13.603 2.761 0 5 2.239 5 5s-2.239 5-5 5c-6.201 0-11.217 5.144-14.334 9.458-2.039 2.823-5.325 4.509-8.79 4.51-.001 0-.002 0-.003 0z" fill="url(#SVGID_5_)"/><path d="m123.648 107.469c-3.464 0-6.749-1.684-8.79-4.504-3.123-4.318-8.145-9.464-14.343-9.464-2.761 0-5-2.239-5-5s2.239-5 5-5c8.249 0 16.01 4.704 22.446 13.604.349.484 1.023.485 1.374 0 6.428-8.899 14.187-13.603 22.44-13.603 2.761 0 5 2.239 5 5s-2.239 5-5 5c-6.2 0-11.217 5.144-14.333 9.458-2.039 2.823-5.325 4.509-8.79 4.51-.001-.001-.003-.001-.004-.001z" fill="url(#SVGID_6_)"/><path d="m177.111 81.538c-3.464 0-6.75-1.684-8.79-4.505-3.123-4.317-8.145-9.463-14.344-9.463-2.761 0-5-2.239-5-5s2.239-5 5-5c8.249 0 16.011 4.704 22.446 13.603.352.485 1.023.486 1.374 0 6.428-8.899 14.187-13.603 22.44-13.603 2.761 0 5 2.239 5 5s-2.239 5-5 5c-6.2 0-11.217 5.144-14.333 9.458-2.039 2.823-5.325 4.509-8.79 4.51-.001 0-.002 0-.003 0z" fill="url(#SVGID_7_)"/></g><g><g><path d="m330.933 337.019 61.368-70.123c17.247-19.707 38.379-19.78 55.659-.194l62.04 70.317z" fill="url(#SVGID_8_)"/><path d="m.637 337.019 104.393-91.244c29.338-25.643 65.286-25.738 94.681-.253l105.533 91.497z" fill="url(#SVGID_9_)"/><path d="m67.137 337.019 104.393-125.065c29.338-35.148 65.286-35.279 94.681-.346l105.533 125.412h-304.607z" fill="url(#SVGID_10_)"/><path d="m181.422 337.019 85.446-102.367c24.013-28.768 53.437-28.876 77.497-.283l86.379 102.65z" fill="url(#SVGID_11_)"/><path d="m290.202 337.019 51.338-80.081c14.428-22.505 32.106-22.589 46.562-.222l51.898 80.303z" fill="url(#SVGID_12_)"/></g><path d="m251.6 364.322s100.595-115.58 258.4-70.685v70.685z" fill="url(#SVGID_13_)"/><path d="m306.922 364.323s79.059-115.58 203.078-70.685v70.685z" fill="url(#SVGID_14_)"/><path d="m369.221 364.323s54.805-115.58 140.779-70.685v70.685z" fill="url(#SVGID_15_)"/><path d="m410.099 364.323s38.891-115.58 99.901-70.685v70.685z" fill="url(#SVGID_16_)"/><path d="m460.05 364.323s19.446-115.58 49.95-70.685v70.685z" fill="url(#SVGID_17_)"/><path d="m322.714 364.323s-125.633-142.454-322.714-87.12v87.12z" fill="url(#SVGID_18_)"/><path d="m269.054 364.323s-104.743-142.454-269.054-87.12v87.12z" fill="url(#SVGID_19_)"/><path d="m203.602 364.323s-79.262-142.454-203.602-87.12v87.12z" fill="url(#SVGID_20_)"/><path d="m151.178 364.323s-58.854-142.454-151.178-87.12v87.12z" fill="url(#SVGID_21_)"/><path d="m102.387 364.323s-39.859-142.454-102.387-87.12v87.12z" fill="url(#SVGID_22_)"/><path d="m50.662 364.323s-19.722-142.454-50.661-87.12v87.12z" fill="url(#SVGID_23_)"/><path d="m258.4 413.413s-100.595-99.918-258.4-61.107v61.107z" fill="url(#SVGID_24_)"/><path d="m37.778 413.413s183.836-106.309 472.222-65.015v65.015z" fill="url(#SVGID_25_)"/><g><g><g><path d="m351.95 343.393c-3.229 0-6.336.516-9.248 1.466-3.114-10.16-12.568-17.548-23.748-17.548-13.716 0-24.835 11.119-24.835 24.835 0 1.982.233 3.909.672 5.757-11.705.825-20.946 10.581-20.946 22.497 0 12.456 10.098 22.554 22.554 22.554h55.55c16.447 0 29.781-13.333 29.781-29.781 0-16.447-13.333-29.78-29.78-29.78z" fill="url(#SVGID_26_)"/><path d="m322.168 373.175c0 1.208.073 2.398.213 3.569-1.12.158-2.266.238-3.428.238-13.716 0-24.834-11.12-24.834-24.836 0-13.714 11.117-24.834 24.834-24.834 11.18 0 20.636 7.388 23.748 17.548-11.919 3.887-20.533 15.095-20.533 28.315z" fill="url(#SVGID_27_)"/><path d="m274.019 383.208c1.382 11.132 10.875 19.747 22.381 19.747h55.55c12.926 0 23.928-8.236 28.046-19.747z" fill="url(#SVGID_28_)"/></g></g></g><path d="m379.996 410.498c0 9.619-61.586 9.619-61.586 0s13.786-17.417 30.793-17.417 30.793 7.798 30.793 17.417z" fill="url(#SVGID_29_)"/><g><g><g><path d="m117.047 343.393c-3.229 0-6.336.516-9.248 1.466-3.114-10.16-12.568-17.548-23.748-17.548-13.716 0-24.835 11.119-24.835 24.835 0 1.982.233 3.909.672 5.757-11.705.825-20.946 10.581-20.946 22.497 0 12.456 10.098 22.554 22.554 22.554h55.55c16.448 0 29.781-13.333 29.781-29.781.001-16.447-13.332-29.78-29.78-29.78z" fill="url(#SVGID_30_)"/><path d="m87.266 373.175c0 1.208.073 2.398.213 3.569-1.12.158-2.266.238-3.428.238-13.716 0-24.834-11.12-24.834-24.836 0-13.714 11.117-24.834 24.834-24.834 11.18 0 20.636 7.388 23.748 17.548-11.919 3.887-20.533 15.095-20.533 28.315z" fill="url(#SVGID_31_)"/><path d="m39.117 383.208c1.382 11.132 10.875 19.747 22.381 19.747h55.55c12.926 0 23.928-8.236 28.046-19.747z" fill="url(#SVGID_32_)"/></g></g></g><g><g><g><path d="m188.302 355.781c-2.557 0-5.019.409-7.324 1.161-2.466-8.047-9.954-13.898-18.809-13.898-10.863 0-19.67 8.807-19.67 19.67 0 1.57.185 3.096.532 4.559-9.271.654-16.589 8.381-16.589 17.818 0 9.866 7.998 17.863 17.863 17.863h43.997c13.027 0 23.587-10.56 23.587-23.587s-10.56-23.586-23.587-23.586z" fill="url(#SVGID_33_)"/><path d="m164.715 379.369c0 .957.058 1.9.169 2.827-.887.125-1.794.189-2.715.189-10.863 0-19.669-8.807-19.669-19.671 0-10.861 8.805-19.669 19.669-19.669 8.855 0 16.344 5.852 18.809 13.898-9.441 3.079-16.263 11.955-16.263 22.426z" fill="url(#SVGID_34_)"/><path d="m126.58 387.315c1.095 8.816 8.613 15.64 17.726 15.64h43.997c10.238 0 18.951-6.523 22.213-15.64z" fill="url(#SVGID_35_)"/></g></g></g><g><g><g><path d="m425.686 355.781c-2.557 0-5.019.409-7.324 1.161-2.466-8.047-9.954-13.898-18.809-13.898-10.863 0-19.67 8.807-19.67 19.67 0 1.57.185 3.096.532 4.559-9.271.654-16.589 8.381-16.589 17.818 0 9.866 7.998 17.863 17.863 17.863h43.997c13.027 0 23.587-10.56 23.587-23.587s-10.561-23.586-23.587-23.586z" fill="url(#SVGID_36_)"/><path d="m402.098 379.369c0 .957.058 1.9.169 2.827-.887.125-1.794.189-2.715.189-10.863 0-19.669-8.807-19.669-19.671 0-10.861 8.805-19.669 19.669-19.669 8.855 0 16.344 5.852 18.809 13.898-9.441 3.079-16.263 11.955-16.263 22.426z" fill="url(#SVGID_37_)"/><path d="m363.963 387.315c1.095 8.816 8.613 15.64 17.726 15.64h43.997c10.238 0 18.951-6.523 22.213-15.64z" fill="url(#SVGID_38_)"/></g></g></g><g><g><g><path d="m274.137 355.781c-2.557 0-5.019.409-7.324 1.161-2.466-8.047-9.954-13.898-18.809-13.898-10.863 0-19.67 8.807-19.67 19.67 0 1.57.185 3.096.532 4.559-9.271.654-16.589 8.381-16.589 17.818 0 9.866 7.998 17.863 17.863 17.863h43.997c13.027 0 23.587-10.56 23.587-23.587s-10.561-23.586-23.587-23.586z" fill="url(#SVGID_39_)"/><path d="m250.549 379.369c0 .957.058 1.9.169 2.827-.887.125-1.794.189-2.715.189-10.863 0-19.669-8.807-19.669-19.671 0-10.861 8.805-19.669 19.669-19.669 8.855 0 16.344 5.852 18.809 13.898-9.441 3.079-16.263 11.955-16.263 22.426z" fill="url(#SVGID_40_)"/><path d="m212.414 387.315c1.095 8.816 8.613 15.64 17.726 15.64h43.997c10.238 0 18.951-6.523 22.213-15.64z" fill="url(#SVGID_41_)"/></g></g></g><g><g><g><path d="m152.296 390.714c-2.454 0-4.817.392-7.03 1.114-2.367-7.723-9.553-13.339-18.051-13.339-10.426 0-18.878 8.452-18.878 18.878 0 1.506.177 2.971.511 4.376-8.898.627-15.921 8.043-15.921 17.1 0 9.469 7.676 17.144 17.144 17.144h42.225c12.502 0 22.637-10.135 22.637-22.637s-10.134-22.636-22.637-22.636z" fill="url(#SVGID_42_)"/><path d="m129.659 413.352c0 .918.055 1.823.162 2.713-.852.12-1.722.181-2.606.181-10.426 0-18.877-8.453-18.877-18.879 0-10.424 8.451-18.877 18.877-18.877 8.498 0 15.686 5.616 18.052 13.339-9.061 2.955-15.608 11.474-15.608 21.523z" fill="url(#SVGID_43_)"/><path d="m93.059 420.979c1.051 8.461 8.266 15.01 17.012 15.01h42.225c9.826 0 18.188-6.261 21.319-15.01z" fill="url(#SVGID_44_)"/></g></g></g><g><g><g><path d="m250.504 376.427c-3.229 0-6.336.516-9.248 1.466-3.114-10.16-12.568-17.548-23.748-17.548-13.716 0-24.835 11.119-24.835 24.835 0 1.982.233 3.909.672 5.757-11.705.825-20.946 10.581-20.946 22.497 0 12.456 10.098 22.554 22.554 22.554h55.55c16.447 0 29.781-13.333 29.781-29.781.001-16.446-13.332-29.78-29.78-29.78z" fill="url(#SVGID_45_)"/><path d="m220.723 406.209c0 1.208.073 2.398.213 3.569-1.12.158-2.266.238-3.428.238-13.716 0-24.834-11.12-24.834-24.836 0-13.714 11.117-24.834 24.834-24.834 11.18 0 20.636 7.388 23.748 17.548-11.92 3.888-20.533 15.095-20.533 28.315z" fill="url(#SVGID_46_)"/><path d="m172.573 416.242c1.382 11.132 10.875 19.747 22.381 19.747h55.55c12.926 0 23.928-8.236 28.046-19.747z" fill="url(#SVGID_47_)"/></g></g></g><g><g><g><path d="m417.662 387.282c-2.64 0-5.182.422-7.563 1.199-2.547-8.308-10.277-14.35-19.42-14.35-11.217 0-20.309 9.093-20.309 20.309 0 1.621.191 3.197.55 4.708-9.572.675-17.129 8.653-17.129 18.397 0 10.186 8.258 18.444 18.444 18.444h45.427c13.45 0 24.354-10.903 24.354-24.354 0-13.45-10.904-24.353-24.354-24.353z" fill="url(#SVGID_48_)"/><path d="m393.308 411.636c0 .988.059 1.961.174 2.918-.916.129-1.853.195-2.804.195-11.217 0-20.308-9.093-20.308-20.31 0-11.215 9.091-20.308 20.308-20.308 9.143 0 16.875 6.042 19.421 14.35-9.747 3.179-16.791 12.344-16.791 23.155z" fill="url(#SVGID_49_)"/><path d="m353.933 419.841c1.13 9.103 8.893 16.148 18.302 16.148h45.427c10.571 0 19.567-6.736 22.935-16.148z" fill="url(#SVGID_50_)"/></g></g></g><g><path d="m160.864 326.569c-20.632 0-37.358 16.725-37.358 37.357v55.914h74.715v-55.914c.001-20.631-16.725-37.357-37.357-37.357z" fill="url(#SVGID_51_)"/><path d="m229.314 300.799c-17.172 0-31.092 13.92-31.092 31.092v87.949h62.184v-87.949c0-17.172-13.92-31.092-31.092-31.092z" fill="url(#SVGID_52_)"/><path d="m346.634 315.12c-18.476 0-33.454 14.978-33.454 33.454v71.267h66.908v-71.267c0-18.476-14.978-33.454-33.454-33.454z" fill="url(#SVGID_53_)"/><path d="m286.793 296.37c-14.573 0-26.387 11.814-26.387 26.387v97.084h52.774v-97.084c0-14.573-11.814-26.387-26.387-26.387z" fill="url(#SVGID_54_)"/></g><g><g><g><path d="m121.942 404.916h-14.765c-14.73 0-26.671-11.941-26.671-26.671 0-4.998 4.051-9.049 9.049-9.049h3.364c16.029 0 29.022 12.994 29.022 29.022v6.698z" fill="url(#SVGID_55_)"/><path d="m92.919 369.196h-3.364c-2.359 0-4.5.91-6.111 2.389l38.498 33.332v-6.698c0-16.029-12.994-29.023-29.023-29.023z" fill="url(#SVGID_56_)"/><path d="m113.318 377.579c-5.242-5.182-12.446-8.383-20.399-8.383h-3.364c-4.159 0-7.653 2.809-8.712 6.631v6.646c.931 5.846 3.764 11.055 7.842 14.982h24.634v-19.876z" fill="url(#SVGID_57_)"/><path d="m105.265 371.951c-3.747-1.764-7.93-2.755-12.346-2.755h-3.364c-4.998 0-9.049 4.051-9.049 9.049 0 4.407 1.076 8.561 2.968 12.224h21.791z" fill="url(#SVGID_58_)"/><path d="m94.315 369.231c-.463-.022-.928-.035-1.396-.035h-3.364c-4.998 0-9.049 4.051-9.049 9.049 0 .925.047 1.839.139 2.74h13.67z" fill="url(#SVGID_59_)"/></g><g><path d="m123.507 389.994v-14.764c0-14.73 11.941-26.671 26.671-26.671 4.998 0 9.049 4.051 9.049 9.049v3.364c0 16.029-12.994 29.022-29.022 29.022z" fill="url(#SVGID_60_)"/><path d="m159.227 360.972v-3.364c0-2.359-.91-4.5-2.389-6.111l-33.332 38.498h6.698c16.03-.001 29.023-12.995 29.023-29.023z" fill="url(#SVGID_61_)"/><path d="m150.844 381.371c5.182-5.242 8.383-12.446 8.383-20.399v-3.364c0-4.159-2.809-7.653-6.631-8.712h-6.646c-5.846.931-11.055 3.764-14.982 7.842v24.634h19.876z" fill="url(#SVGID_62_)"/><path d="m156.472 373.318c1.764-3.747 2.755-7.93 2.755-12.346v-3.364c0-4.998-4.051-9.049-9.049-9.049-4.407 0-8.561 1.076-12.224 2.968v21.791z" fill="url(#SVGID_63_)"/><path d="m159.192 362.368c.022-.463.035-.928.035-1.396v-3.364c0-4.998-4.051-9.049-9.049-9.049-.925 0-1.839.047-2.74.139v13.67z" fill="url(#SVGID_64_)"/></g></g><path d="m117.88 346.407h10.777v79.745h-10.777z" fill="url(#SVGID_65_)"/><g><g><path d="m147.914 321.596c-11.557 8.199-22.627 12.495-24.725 9.595s5.57-11.898 17.127-20.097 22.627-12.495 24.725-9.595c2.099 2.901-5.569 11.898-17.127 20.097z" fill="url(#SVGID_66_)"/><path d="m97.773 321.596c11.557 8.199 22.627 12.495 24.725 9.595s-5.57-11.898-17.127-20.097-22.627-12.495-24.725-9.595c-2.099 2.901 5.569 11.898 17.127 20.097z" fill="url(#SVGID_67_)"/></g><g><path d="m133.603 312.449c-4.764 11.026-9.327 16.803-10.192 12.903s2.296-16 7.06-27.026 9.327-16.803 10.192-12.903-2.296 16-7.06 27.026z" fill="url(#SVGID_68_)"/><path d="m112.934 312.449c4.764 11.026 9.327 16.803 10.192 12.903s-2.296-16-7.06-27.026-9.327-16.803-10.192-12.903 2.296 16 7.06 27.026z" fill="url(#SVGID_69_)"/></g><g><path d="m99.116 317.7c8.485 17.134 18.581 29.431 22.55 27.465s.309-17.449-8.175-34.583c-8.485-17.134-18.581-29.431-22.55-27.465-3.97 1.966-.31 17.449 8.175 34.583z" fill="url(#SVGID_70_)"/><path d="m147.421 317.7c-8.485 17.134-18.581 29.431-22.55 27.465-3.97-1.966-.309-17.449 8.175-34.583 8.485-17.134 18.581-29.431 22.55-27.465s.31 17.449-8.175 34.583z" fill="url(#SVGID_71_)"/></g><path d="m140.38 325.008c0 9.451-34.224 9.451-34.224 0s7.661-17.112 17.112-17.112 17.112 7.662 17.112 17.112z" fill="url(#SVGID_72_)"/><ellipse cx="123.269" cy="312.525" fill="url(#SVGID_73_)" rx="8.02" ry="32.641"/><g><path d="m135.91 331.984c-6.024 8.199-11.793 12.495-12.887 9.595s2.903-11.898 8.926-20.097 11.793-12.495 12.887-9.595-2.902 11.898-8.926 20.097z" fill="url(#SVGID_74_)"/><path d="m109.777 331.984c6.023 8.199 11.793 12.495 12.887 9.595s-2.903-11.898-8.926-20.097-11.793-12.495-12.887-9.595 2.902 11.898 8.926 20.097z" fill="url(#SVGID_75_)"/></g><g><path d="m153.669 333.252c-14.21 10.18-27.821 15.514-30.4 11.913-2.58-3.601 6.848-14.773 21.058-24.953s27.821-15.514 30.4-11.913c2.58 3.601-6.848 14.773-21.058 24.953z" fill="url(#SVGID_76_)"/><path d="m92.018 333.252c14.21 10.18 27.821 15.514 30.4 11.913 2.58-3.601-6.848-14.773-21.058-24.953s-27.821-15.514-30.4-11.913c-2.58 3.601 6.848 14.773 21.058 24.953z" fill="url(#SVGID_77_)"/></g></g><g><path d="m127.957 350.836c0-6.359-5.155-11.515-11.515-11.515h-10.76c-1.265 0-2.29 1.025-2.29 2.29 0 5.095 4.13 9.225 9.225 9.225z" fill="url(#SVGID_78_)"/><path d="m118.581 350.836c0-6.359 5.155-11.515 11.515-11.515h10.76c1.265 0 2.29 1.025 2.29 2.29 0 5.095-4.13 9.225-9.225 9.225z" fill="url(#SVGID_79_)"/></g></g><g><g><g><path d="m198.222 404.916h-14.765c-14.73 0-26.671-11.941-26.671-26.671 0-4.998 4.051-9.049 9.049-9.049h3.364c16.029 0 29.022 12.994 29.022 29.022v6.698z" fill="url(#SVGID_80_)"/><path d="m169.199 369.196h-3.364c-2.359 0-4.5.91-6.111 2.389l38.498 33.332v-6.698c0-16.029-12.994-29.023-29.023-29.023z" fill="url(#SVGID_81_)"/><path d="m189.599 377.579c-5.242-5.182-12.446-8.383-20.399-8.383h-3.364c-4.159 0-7.653 2.809-8.712 6.631v6.646c.931 5.846 3.764 11.055 7.842 14.982h24.634v-19.876z" fill="url(#SVGID_82_)"/><path d="m181.546 371.951c-3.747-1.764-7.93-2.755-12.346-2.755h-3.364c-4.998 0-9.049 4.051-9.049 9.049 0 4.407 1.076 8.561 2.968 12.224h21.791z" fill="url(#SVGID_83_)"/><path d="m170.596 369.231c-.463-.022-.928-.035-1.396-.035h-3.364c-4.998 0-9.049 4.051-9.049 9.049 0 .925.047 1.839.139 2.74h13.67z" fill="url(#SVGID_84_)"/></g><g><path d="m199.787 389.994v-14.764c0-14.73 11.941-26.671 26.671-26.671 4.998 0 9.049 4.051 9.049 9.049v3.364c0 16.029-12.994 29.022-29.022 29.022z" fill="url(#SVGID_85_)"/><path d="m235.508 360.972v-3.364c0-2.359-.91-4.5-2.389-6.111l-33.332 38.498h6.698c16.029-.001 29.023-12.995 29.023-29.023z" fill="url(#SVGID_86_)"/><path d="m227.124 381.371c5.182-5.242 8.383-12.446 8.383-20.399v-3.364c0-4.159-2.809-7.653-6.631-8.712h-6.646c-5.846.931-11.055 3.764-14.982 7.842v24.634h19.876z" fill="url(#SVGID_87_)"/><path d="m232.753 373.318c1.764-3.747 2.755-7.93 2.755-12.346v-3.364c0-4.998-4.051-9.049-9.049-9.049-4.407 0-8.561 1.076-12.224 2.968v21.791z" fill="url(#SVGID_88_)"/><path d="m235.472 362.368c.022-.463.035-.928.035-1.396v-3.364c0-4.998-4.051-9.049-9.049-9.049-.925 0-1.839.047-2.74.139v13.67z" fill="url(#SVGID_89_)"/></g></g><g><g><g><path d="m200.952 346.407h-11.011c-8.616 0-15.6-6.985-15.6-15.6v-35.878c0-2.923 2.37-5.293 5.293-5.293h4.343c9.375 0 16.975 7.6 16.975 16.975z" fill="url(#SVGID_90_)"/><path d="m194.588 346.407h11.011c8.616 0 15.6-6.985 15.6-15.6v-35.878c0-2.923-2.37-5.293-5.293-5.293h-4.343c-9.375 0-16.975 7.6-16.975 16.975z" fill="url(#SVGID_91_)"/></g><g><path d="m191.681 346.407h18.143c18.101 0 32.775-14.674 32.775-32.775 0-6.141-4.979-11.12-11.12-11.12h-4.134c-19.697 0-35.664 15.967-35.664 35.664z" fill="url(#SVGID_92_)"/><path d="m203.859 346.407h-18.143c-18.101 0-32.775-14.674-32.775-32.775 0-6.141 4.979-11.12 11.12-11.12h4.134c19.697 0 35.664 15.967 35.664 35.664z" fill="url(#SVGID_93_)"/></g></g><path d="m192.382 346.407h10.777v79.745h-10.777z" fill="url(#SVGID_94_)"/><g><path d="m202.458 350.836c0-6.359-5.155-11.515-11.515-11.515h-10.76c-1.265 0-2.29 1.025-2.29 2.29 0 5.095 4.13 9.225 9.225 9.225z" fill="url(#SVGID_95_)"/><path d="m193.082 350.836c0-6.359 5.155-11.515 11.515-11.515h10.76c1.265 0 2.29 1.025 2.29 2.29 0 5.095-4.13 9.225-9.225 9.225z" fill="url(#SVGID_96_)"/></g></g></g><g><g><g><path d="m311.112 404.916h14.765c14.73 0 26.671-11.941 26.671-26.671 0-4.998-4.051-9.049-9.049-9.049h-3.364c-16.029 0-29.022 12.994-29.022 29.022v6.698z" fill="url(#SVGID_97_)"/><path d="m340.134 369.196h3.364c2.359 0 4.5.91 6.111 2.389l-38.498 33.332v-6.698c.001-16.029 12.994-29.023 29.023-29.023z" fill="url(#SVGID_98_)"/><path d="m319.735 377.579c5.242-5.182 12.446-8.383 20.399-8.383h3.364c4.159 0 7.653 2.809 8.712 6.631v6.646c-.931 5.846-3.764 11.055-7.842 14.982h-24.634v-19.876z" fill="url(#SVGID_99_)"/><path d="m327.788 371.951c3.747-1.764 7.93-2.755 12.346-2.755h3.364c4.998 0 9.049 4.051 9.049 9.049 0 4.407-1.076 8.561-2.968 12.224h-21.791z" fill="url(#SVGID_100_)"/><path d="m338.738 369.231c.463-.022.928-.035 1.396-.035h3.364c4.998 0 9.049 4.051 9.049 9.049 0 .925-.047 1.839-.139 2.74h-13.67z" fill="url(#SVGID_101_)"/></g><g><path d="m309.546 389.994v-14.764c0-14.73-11.941-26.671-26.671-26.671-4.998 0-9.049 4.051-9.049 9.049v3.364c0 16.029 12.994 29.022 29.022 29.022z" fill="url(#SVGID_102_)"/><path d="m273.826 360.972v-3.364c0-2.359.91-4.5 2.389-6.111l33.332 38.498h-6.698c-16.03-.001-29.023-12.995-29.023-29.023z" fill="url(#SVGID_103_)"/><path d="m282.209 381.371c-5.182-5.242-8.383-12.446-8.383-20.399v-3.364c0-4.159 2.809-7.653 6.631-8.712h6.646c5.846.931 11.055 3.764 14.982 7.842v24.634h-19.876z" fill="url(#SVGID_104_)"/><path d="m276.581 373.318c-1.764-3.747-2.755-7.93-2.755-12.346v-3.364c0-4.998 4.051-9.049 9.049-9.049 4.407 0 8.561 1.076 12.224 2.968v21.791z" fill="url(#SVGID_105_)"/><path d="m273.861 362.368c-.022-.463-.035-.928-.035-1.396v-3.364c0-4.998 4.051-9.049 9.049-9.049.925 0 1.839.047 2.74.139v13.67z" fill="url(#SVGID_106_)"/></g></g><path d="m306.664 346.407h10.777v79.745h-10.777z" fill="url(#SVGID_107_)"/><g><g><path d="m336.698 321.596c-11.557 8.199-22.627 12.495-24.725 9.595s5.57-11.898 17.127-20.097 22.627-12.495 24.725-9.595c2.099 2.901-5.569 11.898-17.127 20.097z" fill="url(#SVGID_108_)"/><path d="m286.557 321.596c11.557 8.199 22.627 12.495 24.725 9.595s-5.57-11.898-17.127-20.097-22.627-12.495-24.725-9.595c-2.099 2.901 5.569 11.898 17.127 20.097z" fill="url(#SVGID_109_)"/></g><g><path d="m322.387 312.449c-4.764 11.026-9.327 16.803-10.192 12.903s2.296-16 7.06-27.026 9.327-16.803 10.192-12.903-2.296 16-7.06 27.026z" fill="url(#SVGID_110_)"/><path d="m301.718 312.449c4.764 11.026 9.327 16.803 10.192 12.903s-2.296-16-7.06-27.026-9.327-16.803-10.192-12.903 2.296 16 7.06 27.026z" fill="url(#SVGID_111_)"/></g><g><path d="m287.9 317.7c8.485 17.134 18.581 29.431 22.55 27.465 3.97-1.966.309-17.449-8.175-34.583-8.485-17.134-18.581-29.431-22.55-27.465-3.97 1.966-.31 17.449 8.175 34.583z" fill="url(#SVGID_112_)"/><path d="m336.205 317.7c-8.485 17.134-18.581 29.431-22.55 27.465-3.97-1.966-.309-17.449 8.175-34.583 8.485-17.134 18.581-29.431 22.55-27.465 3.97 1.966.31 17.449-8.175 34.583z" fill="url(#SVGID_113_)"/></g><path d="m329.164 325.008c0 9.451-34.224 9.451-34.224 0s7.661-17.112 17.112-17.112 17.112 7.662 17.112 17.112z" fill="url(#SVGID_114_)"/><ellipse cx="312.053" cy="312.525" fill="url(#SVGID_115_)" rx="8.02" ry="32.641"/><g><path d="m324.694 331.984c-6.023 8.199-11.793 12.495-12.887 9.595s2.903-11.898 8.927-20.097c6.023-8.199 11.793-12.495 12.887-9.595s-2.903 11.898-8.927 20.097z" fill="url(#SVGID_116_)"/><path d="m298.561 331.984c6.023 8.199 11.793 12.495 12.887 9.595s-2.903-11.898-8.926-20.097-11.793-12.495-12.887-9.595 2.902 11.898 8.926 20.097z" fill="url(#SVGID_117_)"/></g><g><path d="m342.453 333.252c-14.21 10.18-27.821 15.514-30.4 11.913s6.848-14.773 21.058-24.953 27.821-15.514 30.4-11.913c2.58 3.601-6.848 14.773-21.058 24.953z" fill="url(#SVGID_118_)"/><path d="m280.802 333.252c14.21 10.18 27.821 15.514 30.4 11.913 2.58-3.601-6.848-14.773-21.058-24.953s-27.821-15.514-30.4-11.913c-2.58 3.601 6.848 14.773 21.058 24.953z" fill="url(#SVGID_119_)"/></g></g><g><path d="m316.741 350.836c0-6.359-5.155-11.515-11.515-11.515h-10.76c-1.265 0-2.29 1.025-2.29 2.29 0 5.095 4.13 9.225 9.225 9.225z" fill="url(#SVGID_120_)"/><path d="m307.365 350.836c0-6.359 5.155-11.515 11.515-11.515h10.76c1.265 0 2.29 1.025 2.29 2.29 0 5.095-4.13 9.225-9.225 9.225z" fill="url(#SVGID_121_)"/></g></g><g><g><g><path d="m258.933 398.332h-17.418c-17.377 0-31.464-14.087-31.464-31.464 0-5.896 4.779-10.675 10.675-10.675h3.969c18.909 0 34.237 15.329 34.237 34.237v7.902z" fill="url(#SVGID_122_)"/><path d="m224.695 356.193h-3.969c-2.783 0-5.309 1.074-7.209 2.818l45.416 39.321v-7.902c0-18.908-15.329-34.237-34.238-34.237z" fill="url(#SVGID_123_)"/><path d="m248.76 366.083c-6.184-6.113-14.682-9.89-24.065-9.89h-3.969c-4.906 0-9.029 3.314-10.278 7.822v7.84c1.098 6.897 4.44 13.042 9.251 17.674h29.061z" fill="url(#SVGID_124_)"/><path d="m239.26 359.443c-4.42-2.081-9.355-3.25-14.565-3.25h-3.969c-5.896 0-10.675 4.779-10.675 10.675 0 5.199 1.269 10.099 3.502 14.42h25.707z" fill="url(#SVGID_125_)"/><path d="m226.342 356.235c-.546-.026-1.095-.042-1.647-.042h-3.969c-5.896 0-10.675 4.779-10.675 10.675 0 1.091.056 2.17.164 3.233h16.127z" fill="url(#SVGID_126_)"/></g><g><path d="m260.779 380.729v-17.418c0-17.377 14.087-31.464 31.464-31.464 5.896 0 10.675 4.779 10.675 10.675v3.969c0 18.909-15.329 34.237-34.237 34.237h-7.902z" fill="url(#SVGID_127_)"/><path d="m302.918 346.491v-3.969c0-2.783-1.074-5.309-2.818-7.209l-39.321 45.416h7.902c18.909 0 34.237-15.329 34.237-34.238z" fill="url(#SVGID_128_)"/><path d="m293.029 370.556c6.113-6.184 9.89-14.682 9.89-24.065v-3.969c0-4.906-3.314-9.029-7.822-10.278h-7.84c-6.897 1.098-13.042 4.44-17.674 9.251v29.061z" fill="url(#SVGID_129_)"/><path d="m299.668 361.056c2.081-4.42 3.25-9.355 3.25-14.565v-3.969c0-5.896-4.779-10.675-10.675-10.675-5.199 0-10.099 1.269-14.42 3.502v25.707z" fill="url(#SVGID_130_)"/><path d="m302.877 348.138c.026-.546.042-1.095.042-1.647v-3.969c0-5.896-4.779-10.675-10.675-10.675-1.091 0-2.17.056-3.233.164v16.127z" fill="url(#SVGID_131_)"/></g></g><g><g><g><path d="m262.154 309.563h-12.99c-10.164 0-18.404-8.24-18.404-18.404v-42.324c0-3.449 2.796-6.244 6.244-6.244h5.123c11.06 0 20.026 8.966 20.026 20.026v46.946z" fill="url(#SVGID_132_)"/><path d="m254.646 309.563h12.99c10.164 0 18.404-8.24 18.404-18.404v-42.324c0-3.449-2.796-6.244-6.244-6.244h-5.123c-11.06 0-20.026 8.966-20.026 20.026v46.946z" fill="url(#SVGID_133_)"/></g><g><path d="m251.217 309.563h21.403c21.354 0 38.664-17.311 38.664-38.664 0-7.245-5.873-13.118-13.118-13.118h-4.877c-23.236 0-42.072 18.836-42.072 42.072z" fill="url(#SVGID_134_)"/><path d="m265.583 309.563h-21.403c-21.354 0-38.664-17.311-38.664-38.664 0-7.245 5.873-13.118 13.118-13.118h4.877c23.236 0 42.072 18.836 42.072 42.072z" fill="url(#SVGID_135_)"/></g></g><path d="m252.043 309.563h12.713v116.589h-12.713z" fill="url(#SVGID_136_)"/><g><path d="m263.93 314.788c0-7.502-6.082-13.584-13.584-13.584h-12.693c-1.492 0-2.702 1.21-2.702 2.702 0 6.01 4.872 10.882 10.882 10.882z" fill="url(#SVGID_137_)"/><path d="m252.87 314.788c0-7.502 6.082-13.584 13.584-13.584h12.693c1.492 0 2.702 1.21 2.702 2.702 0 6.01-4.872 10.882-10.882 10.882z" fill="url(#SVGID_138_)"/></g></g></g><g><g><g><path d="m378.517 406.41h-12.36c-12.332 0-22.329-9.997-22.329-22.329 0-4.184 3.392-7.576 7.576-7.576h2.817c13.419 0 24.297 10.878 24.297 24.297v5.608z" fill="url(#SVGID_139_)"/><path d="m354.22 376.505h-2.817c-1.975 0-3.768.762-5.116 2l32.229 27.904v-5.608c.001-13.418-10.877-24.296-24.296-24.296z" fill="url(#SVGID_140_)"/><path d="m371.298 383.524c-4.389-4.338-10.419-7.018-17.078-7.018h-2.817c-3.482 0-6.407 2.352-7.294 5.551v5.564c.78 4.894 3.151 9.255 6.565 12.543h20.623v-16.64z" fill="url(#SVGID_141_)"/><path d="m364.556 378.812c-3.137-1.477-6.639-2.306-10.336-2.306h-2.817c-4.184 0-7.576 3.392-7.576 7.576 0 3.69.9 7.167 2.485 10.233h18.243v-15.503z" fill="url(#SVGID_142_)"/><path d="m355.389 376.535c-.387-.018-.777-.03-1.169-.03h-2.817c-4.184 0-7.576 3.392-7.576 7.576 0 .775.04 1.54.117 2.294h11.444v-9.84z" fill="url(#SVGID_143_)"/></g><g><path d="m379.828 393.917v-12.36c0-12.332 9.997-22.329 22.329-22.329 4.184 0 7.576 3.392 7.576 7.576v2.817c0 13.419-10.878 24.297-24.297 24.297h-5.608z" fill="url(#SVGID_144_)"/><path d="m409.732 369.62v-2.817c0-1.975-.762-3.768-2-5.116l-27.904 32.229h5.608c13.418.001 24.296-10.877 24.296-24.296z" fill="url(#SVGID_145_)"/><path d="m402.714 386.698c4.338-4.389 7.018-10.419 7.018-17.078v-2.817c0-3.482-2.352-6.407-5.551-7.294h-5.564c-4.894.78-9.255 3.151-12.543 6.565v20.623h16.64z" fill="url(#SVGID_146_)"/><path d="m407.425 379.956c1.477-3.137 2.306-6.639 2.306-10.336v-2.817c0-4.184-3.392-7.576-7.576-7.576-3.69 0-7.167.9-10.233 2.485v18.243h15.503z" fill="url(#SVGID_147_)"/><path d="m409.702 370.789c.018-.387.03-.777.03-1.169v-2.817c0-4.184-3.392-7.576-7.576-7.576-.775 0-1.54.04-2.294.117v11.444h9.84z" fill="url(#SVGID_148_)"/></g></g><g><g><g><path d="m380.803 343.414h-9.218c-7.213 0-13.06-5.847-13.06-13.06v-30.036c0-2.447 1.984-4.431 4.431-4.431h3.636c7.849 0 14.211 6.363 14.211 14.211z" fill="url(#SVGID_149_)"/><path d="m375.475 343.414h9.218c7.213 0 13.06-5.847 13.06-13.06v-30.036c0-2.447-1.984-4.431-4.431-4.431h-3.636c-7.849 0-14.211 6.363-14.211 14.211z" fill="url(#SVGID_150_)"/></g><g><path d="m373.042 343.414h15.189c15.154 0 27.438-12.285 27.438-27.438 0-5.141-4.168-9.309-9.309-9.309h-3.461c-16.489 0-29.857 13.367-29.857 29.857z" fill="url(#SVGID_151_)"/><path d="m383.237 343.414h-15.189c-15.154 0-27.438-12.285-27.438-27.438 0-5.141 4.168-9.309 9.309-9.309h3.461c16.49 0 29.857 13.367 29.857 29.857z" fill="url(#SVGID_152_)"/></g></g><path d="m373.628 343.414h9.022v82.738h-9.022z" fill="url(#SVGID_153_)"/><g><path d="m382.064 347.122c0-5.324-4.316-9.64-9.64-9.64h-9.008c-1.059 0-1.917.858-1.917 1.917 0 4.265 3.458 7.723 7.723 7.723z" fill="url(#SVGID_154_)"/><path d="m374.214 347.122c0-5.324 4.316-9.64 9.64-9.64h9.008c1.059 0 1.917.858 1.917 1.917 0 4.265-3.458 7.723-7.723 7.723z" fill="url(#SVGID_155_)"/></g></g></g><g><g><g><path d="m74.894 378.876c-3.096 0-6.076.495-8.868 1.406-2.986-9.742-12.051-16.826-22.772-16.826-13.152 0-23.814 10.662-23.814 23.814 0 1.9.224 3.748.644 5.52-11.223.791-20.084 10.146-20.084 21.572 0 11.944 9.683 21.627 21.627 21.627h53.267c15.771 0 28.557-12.785 28.557-28.557s-12.785-28.556-28.557-28.556z" fill="url(#SVGID_156_)"/><path d="m46.337 407.433c0 1.158.07 2.3.204 3.422-1.074.151-2.172.228-3.287.228-13.152 0-23.813-10.663-23.813-23.815 0-13.15 10.66-23.813 23.813-23.813 10.72 0 19.788 7.084 22.772 16.827-11.429 3.728-19.689 14.475-19.689 27.151z" fill="url(#SVGID_157_)"/><path d="m.167 417.054c1.325 10.674 10.428 18.935 21.461 18.935h53.267c12.395 0 22.944-7.898 26.893-18.935z" fill="url(#SVGID_158_)"/></g></g></g><g><g><g><path d="m481.443 378.876c-3.096 0-6.076.495-8.868 1.406-2.986-9.742-12.051-16.826-22.772-16.826-13.152 0-23.814 10.662-23.814 23.814 0 1.9.224 3.748.644 5.52-11.224.791-20.085 10.146-20.085 21.572 0 11.944 9.683 21.627 21.627 21.627h53.267c15.771 0 28.557-12.785 28.557-28.557s-12.785-28.556-28.556-28.556z" fill="url(#SVGID_159_)"/><path d="m452.886 407.433c0 1.158.07 2.3.204 3.422-1.074.151-2.172.228-3.287.228-13.152 0-23.813-10.663-23.813-23.815 0-13.15 10.66-23.813 23.813-23.813 10.72 0 19.788 7.084 22.772 16.827-11.43 3.728-19.689 14.475-19.689 27.151z" fill="url(#SVGID_160_)"/><path d="m406.716 417.054c1.325 10.674 10.428 18.935 21.461 18.935h53.267c12.395 0 22.944-7.898 26.893-18.935z" fill="url(#SVGID_161_)"/></g></g></g><g><g><g><path d="m313.095 393.76c-2.289 0-4.492.366-6.557 1.039-2.208-7.203-8.91-12.441-16.837-12.441-9.725 0-17.608 7.883-17.608 17.608 0 1.405.166 2.771.476 4.081-8.299.585-14.85 7.502-14.85 15.95 0 8.832 7.159 15.991 15.991 15.991h39.385c11.661 0 21.114-9.453 21.114-21.114s-9.453-21.114-21.114-21.114z" fill="url(#SVGID_162_)"/><path d="m291.98 414.875c0 .856.052 1.7.151 2.53-.794.112-1.606.169-2.431.169-9.725 0-17.607-7.884-17.607-17.609 0-9.723 7.882-17.607 17.607-17.607 7.927 0 14.631 5.238 16.838 12.442-8.451 2.756-14.558 10.702-14.558 20.075z" fill="url(#SVGID_163_)"/><path d="m257.843 421.988c.98 7.892 7.71 14 15.868 14h39.385c9.165 0 16.965-5.84 19.885-14z" fill="url(#SVGID_164_)"/></g></g></g><path d="m0 485.647c.005 13.412 10.849 24.288 24.249 24.35h461.503c13.398-.062 24.242-10.936 24.248-24.347v-72.237h-510z" fill="url(#SVGID_165_)"/><path d="m384.957 463.78c.333-1.404.511-2.869.511-4.376 0-10.426-8.452-18.878-18.878-18.878-8.498 0-15.684 5.616-18.052 13.339-2.213-.722-4.575-1.114-7.03-1.114-8.833 0-16.465 5.071-20.195 12.45-1.419-.657-2.993-1.034-4.659-1.034-5.004 0-9.236 3.307-10.63 7.854-1.303-.425-2.694-.656-4.139-.656-3.793 0-7.208 1.592-9.635 4.135h-292.25v10.148c.005 13.412 10.849 24.288 24.249 24.35h461.503c13.398-.062 24.242-10.936 24.248-24.347v-10.151h-110.001c-2.136-6.459-7.994-11.223-15.042-11.72z" fill="url(#SVGID_166_)"/><path d="m376.316 508.98-56.471-56.467h-61.165l57.491 57.487h54.816c1.883 0 3.677-.369 5.329-1.02z" fill="url(#SVGID_167_)"/><g><g><path d="m261.885 453.775h42.03c7.233 0 10.856-8.745 5.741-13.859l-6.785-6.785c-4.224-4.223-9.952-6.596-15.925-6.596h-7.259c-12.438 0-22.522 10.083-22.522 22.52 0 2.606 2.113 4.72 4.72 4.72z" fill="url(#SVGID_168_)"/><path d="m302.871 433.131c-4.224-4.223-9.952-6.596-15.925-6.596-2.892 0-5.236 2.344-5.236 5.236v.587c0 2.892 2.344 5.236 5.236 5.236 3.21 0 6.289 1.275 8.558 3.545l11.881 11.88c4.769-2.228 6.481-8.893 2.271-13.102z" fill="url(#SVGID_169_)"/></g><path d="m295.959 458.217h21.015c3.617 0 5.428-4.372 2.871-6.93l-3.392-3.392c-2.112-2.112-4.976-3.298-7.963-3.298h-3.63c-6.219 0-11.261 5.041-11.261 11.26 0 1.304 1.057 2.36 2.36 2.36z" fill="url(#SVGID_170_)"/></g><g><path d="m125.694 480.928h-36.238l29.075 29.072h36.237z" fill="url(#SVGID_171_)"/><path d="m92.42 482.777h29.434c5.066 0 7.603-6.124 4.021-9.706l-4.752-4.751c-2.958-2.958-6.97-4.619-11.153-4.619h-5.084c-8.711 0-15.772 7.061-15.772 15.771.001 1.825 1.481 3.305 3.306 3.305z" fill="url(#SVGID_172_)"/></g></g></g><path d="m132.733 142.429h-34.907c-6.87 0-12.724 4.348-14.962 10.442h-22.606c-8.658 0-15.676 7.019-15.676 15.676 0 8.658 7.019 15.676 15.676 15.676h6.917c0 8.658 7.019 15.676 15.676 15.676h30.92c8.658 0 15.676-7.019 15.676-15.676 0-2.996-.842-5.795-2.3-8.176h5.584c8.8 0 15.934-7.134 15.934-15.934v-1.751c.002-8.799-7.132-15.933-15.932-15.933z" fill="url(#SVGID_173_)"/></svg>