<!--
  - Copyright (c) 2023. Selldone® Business OS™
  -
  - Author: M.Pajuhaan
  - Web: https://selldone.com
  - ━━━━━━━━━━━━━━━━━━━━━━━━━━━━━━━━━━━━━━━━━━━━━━━━━━━━━━
  -
  - All rights reserved. In the weave of time, where traditions and innovations intermingle, this content was crafted.
  - From the essence of thought, through the corridors of creativity, each word, and sentiment has been molded.
  - Not just to exist, but to inspire. Like an artist's stroke or a sculptor's chisel, every nuance is deliberate.
  - Our journey is not just about reaching a destination, but about creating a masterpiece.
  - Tread carefully, for you're treading on dreams.
  -->

<svg id="Capa_1" enable-background="new 0 0 510 510" height="512" viewBox="0 0 510 510" width="512" xmlns="http://www.w3.org/2000/svg" xmlns:xlink="http://www.w3.org/1999/xlink"><linearGradient id="SVGID_1_" gradientUnits="userSpaceOnUse" x1="255" x2="255" y1="82.517" y2="325.494"><stop offset="0" stop-color="#092a40"/><stop offset="1" stop-color="#3a2f4d"/></linearGradient><linearGradient id="lg1"><stop offset="0" stop-color="#edf5ff"/><stop offset="1" stop-color="#c7e9ff"/></linearGradient><linearGradient id="SVGID_2_" gradientUnits="userSpaceOnUse" x1="21.233" x2="26.939" xlink:href="#lg1" y1="18.566" y2="24.272"/><linearGradient id="SVGID_3_" gradientUnits="userSpaceOnUse" x1="31.233" x2="36.939" xlink:href="#lg1" y1="95.733" y2="101.439"/><linearGradient id="SVGID_4_" gradientUnits="userSpaceOnUse" x1="14.566" x2="20.272" xlink:href="#lg1" y1="258.566" y2="264.272"/><linearGradient id="SVGID_5_" gradientUnits="userSpaceOnUse" x1="254.566" x2="260.272" xlink:href="#lg1" y1="53.899" y2="59.605"/><linearGradient id="SVGID_6_" gradientUnits="userSpaceOnUse" x1="151.233" x2="156.939" xlink:href="#lg1" y1="105.066" y2="110.772"/><linearGradient id="SVGID_7_" gradientUnits="userSpaceOnUse" x1="79.566" x2="85.272" xlink:href="#lg1" y1="73.566" y2="79.272"/><linearGradient id="SVGID_8_" gradientUnits="userSpaceOnUse" x1="481.566" x2="487.272" xlink:href="#lg1" y1="162.566" y2="168.272"/><linearGradient id="SVGID_9_" gradientUnits="userSpaceOnUse" x1="29.233" x2="34.939" xlink:href="#lg1" y1="186.566" y2="192.272"/><linearGradient id="SVGID_10_" gradientUnits="userSpaceOnUse" x1="387.733" x2="393.439" xlink:href="#lg1" y1="239.566" y2="245.272"/><linearGradient id="SVGID_11_" gradientUnits="userSpaceOnUse" x1="103.899" x2="109.605" xlink:href="#lg1" y1="19.899" y2="25.605"/><linearGradient id="SVGID_12_" gradientUnits="userSpaceOnUse" x1="310.566" x2="316.272" xlink:href="#lg1" y1="33.233" y2="38.939"/><linearGradient id="SVGID_13_" gradientUnits="userSpaceOnUse" x1="371.233" x2="376.939" xlink:href="#lg1" y1="69.899" y2="75.605"/><linearGradient id="SVGID_14_" gradientUnits="userSpaceOnUse" x1="404.566" x2="410.272" xlink:href="#lg1" y1="185.566" y2="191.272"/><linearGradient id="SVGID_15_" gradientUnits="userSpaceOnUse" x1="467.566" x2="473.272" xlink:href="#lg1" y1="215.566" y2="221.272"/><linearGradient id="SVGID_16_" gradientUnits="userSpaceOnUse" x1="486.566" x2="492.272" xlink:href="#lg1" y1="86.566" y2="92.272"/><linearGradient id="SVGID_17_" gradientUnits="userSpaceOnUse" x1="360.066" x2="365.772" xlink:href="#lg1" y1="123.566" y2="129.272"/><linearGradient id="SVGID_18_" gradientUnits="userSpaceOnUse" x1="445.566" x2="451.272" xlink:href="#lg1" y1="269.066" y2="274.772"/><linearGradient id="SVGID_19_" gradientUnits="userSpaceOnUse" x1="117.566" x2="123.272" xlink:href="#lg1" y1="154.566" y2="160.272"/><linearGradient id="SVGID_20_" gradientUnits="userSpaceOnUse" x1="379.233" x2="384.939" xlink:href="#lg1" y1="20.566" y2="26.272"/><linearGradient id="SVGID_21_" gradientUnits="userSpaceOnUse" x1="462.566" x2="468.272" xlink:href="#lg1" y1="21.899" y2="27.605"/><linearGradient id="SVGID_22_" gradientUnits="userSpaceOnUse" x1="471.566" x2="477.272" xlink:href="#lg1" y1="324.566" y2="330.272"/><linearGradient id="SVGID_23_" gradientUnits="userSpaceOnUse" x1="424.066" x2="429.772" xlink:href="#lg1" y1="330.566" y2="336.272"/><linearGradient id="SVGID_24_" gradientUnits="userSpaceOnUse" x1="291.899" x2="297.605" xlink:href="#lg1" y1="104.566" y2="110.272"/><linearGradient id="SVGID_25_" gradientUnits="userSpaceOnUse" x1="253.233" x2="258.939" xlink:href="#lg1" y1="171.899" y2="177.605"/><linearGradient id="SVGID_26_" gradientUnits="userSpaceOnUse" x1="219.899" x2="225.605" xlink:href="#lg1" y1="15.899" y2="21.605"/><linearGradient id="SVGID_27_" gradientUnits="userSpaceOnUse" x1="163.233" x2="168.939" xlink:href="#lg1" y1="59.233" y2="64.939"/><linearGradient id="lg2"><stop offset="0" stop-color="#2f73a0" stop-opacity="0"/><stop offset=".5026" stop-color="#345278" stop-opacity=".503"/><stop offset="1" stop-color="#3a2f4d"/></linearGradient><linearGradient id="SVGID_28_" gradientTransform="matrix(-1 0 0 1 510.562 0)" gradientUnits="userSpaceOnUse" x1="109.562" x2="109.562" xlink:href="#lg2" y1="415.869" y2="354.243"/><linearGradient id="SVGID_29_" gradientTransform="matrix(-1 0 0 1 510.562 0)" gradientUnits="userSpaceOnUse" x1="345.614" x2="345.614" xlink:href="#lg2" y1="372.536" y2="249.463"/><linearGradient id="SVGID_30_" gradientTransform="matrix(-1 0 0 1 510.562 0)" gradientUnits="userSpaceOnUse" x1="171.95" x2="234.45" y1="305.897" y2="435.897"><stop offset="0" stop-color="#2f73a0"/><stop offset="1" stop-color="#3a2f4d"/></linearGradient><linearGradient id="lg3"><stop offset="0" stop-color="#3a2f4d" stop-opacity="0"/><stop offset="1" stop-color="#3a2f4d"/></linearGradient><linearGradient id="SVGID_31_" gradientTransform="matrix(-1 0 0 1 510.562 0)" gradientUnits="userSpaceOnUse" x1="280.326" x2="226.326" xlink:href="#lg3" y1="384.589" y2="405.923"/><linearGradient id="SVGID_32_" gradientUnits="userSpaceOnUse" x1="398.044" x2="383.593" xlink:href="#lg1" y1="383.891" y2="430.289"/><linearGradient id="SVGID_33_" gradientUnits="userSpaceOnUse" x1="161.902" x2="161.902" xlink:href="#lg1" y1="378.483" y2="424.348"/><linearGradient id="lg4"><stop offset="0" stop-color="#754c24"/><stop offset="1" stop-color="#3a2f4d"/></linearGradient><linearGradient id="SVGID_34_" gradientUnits="userSpaceOnUse" x1="287.918" x2="342.84" xlink:href="#lg4" y1="411.819" y2="411.819"/><linearGradient id="SVGID_35_" gradientUnits="userSpaceOnUse" x1="309.265" x2="280.383" xlink:href="#lg4" y1="430.349" y2="430.349"/><linearGradient id="SVGID_36_" gradientUnits="userSpaceOnUse" x1="345.436" x2="315.251" xlink:href="#lg4" y1="402.028" y2="402.028"/><linearGradient id="SVGID_37_" gradientUnits="userSpaceOnUse" x1="318.903" x2="310.584" xlink:href="#lg3" y1="413.964" y2="380.689"/><linearGradient id="lg5"><stop offset="0" stop-color="#798c00"/><stop offset="1" stop-color="#1b444f"/></linearGradient><linearGradient id="SVGID_38_" gradientUnits="userSpaceOnUse" x1="256.074" x2="379.068" xlink:href="#lg5" y1="291.802" y2="377.505"/><linearGradient id="lg6"><stop offset="0" stop-color="#1b444f" stop-opacity="0"/><stop offset="1" stop-color="#1b444f"/></linearGradient><linearGradient id="SVGID_39_" gradientUnits="userSpaceOnUse" x1="313.151" x2="313.151" xlink:href="#lg6" y1="400.676" y2="320.026"/><linearGradient id="lg7"><stop offset="0" stop-color="#43765a" stop-opacity="0"/><stop offset="1" stop-color="#43765a"/></linearGradient><linearGradient id="SVGID_40_" gradientUnits="userSpaceOnUse" x1="321.605" x2="321.605" xlink:href="#lg7" y1="370.645" y2="306.985"/><linearGradient id="SVGID_41_" gradientUnits="userSpaceOnUse" x1="272.174" x2="363.799" xlink:href="#lg1" y1="291.345" y2="342.684"/><linearGradient id="lg8"><stop offset="0" stop-color="#2f73a0" stop-opacity="0"/><stop offset="1" stop-color="#2f73a0"/></linearGradient><linearGradient id="SVGID_42_" gradientUnits="userSpaceOnUse" x1="319.477" x2="319.477" xlink:href="#lg8" y1="355.755" y2="268.726"/><linearGradient id="SVGID_43_" gradientUnits="userSpaceOnUse" x1="265.823" x2="366.643" xlink:href="#lg5" y1="246.751" y2="317.003"/><linearGradient id="SVGID_44_" gradientUnits="userSpaceOnUse" x1="311.52" x2="311.52" xlink:href="#lg6" y1="331.333" y2="279.311"/><linearGradient id="SVGID_45_" gradientUnits="userSpaceOnUse" x1="268.912" x2="363.952" xlink:href="#lg1" y1="235.53" y2="301.755"/><linearGradient id="SVGID_46_" gradientUnits="userSpaceOnUse" x1="320.329" x2="320.329" xlink:href="#lg8" y1="290.868" y2="224.795"/><linearGradient id="SVGID_47_" gradientUnits="userSpaceOnUse" x1="273.64" x2="356.68" xlink:href="#lg5" y1="196.627" y2="254.491"/><linearGradient id="SVGID_48_" gradientUnits="userSpaceOnUse" x1="312.896" x2="312.896" xlink:href="#lg6" y1="255.909" y2="218.484"/><linearGradient id="SVGID_49_" gradientUnits="userSpaceOnUse" x1="294.546" x2="326.989" xlink:href="#lg1" y1="195.34" y2="211.383"/><linearGradient id="SVGID_50_" gradientUnits="userSpaceOnUse" x1="367.048" x2="238.714" xlink:href="#lg3" y1="315.006" y2="276.673"/><linearGradient id="SVGID_51_" gradientUnits="userSpaceOnUse" x1="182.802" x2="250.692" xlink:href="#lg4" y1="400.683" y2="400.683"/><linearGradient id="SVGID_52_" gradientUnits="userSpaceOnUse" x1="209.19" x2="173.489" xlink:href="#lg4" y1="423.588" y2="423.588"/><linearGradient id="SVGID_53_" gradientUnits="userSpaceOnUse" x1="253.901" x2="216.589" xlink:href="#lg4" y1="388.58" y2="388.58"/><linearGradient id="SVGID_54_" gradientUnits="userSpaceOnUse" x1="221.104" x2="210.821" xlink:href="#lg3" y1="403.334" y2="362.203"/><linearGradient id="SVGID_55_" gradientUnits="userSpaceOnUse" x1="143.44" x2="295.473" xlink:href="#lg5" y1="252.33" y2="358.267"/><linearGradient id="SVGID_56_" gradientUnits="userSpaceOnUse" x1="213.993" x2="213.993" xlink:href="#lg6" y1="386.909" y2="287.218"/><linearGradient id="SVGID_57_" gradientUnits="userSpaceOnUse" x1="224.443" x2="224.443" xlink:href="#lg7" y1="349.788" y2="271.097"/><linearGradient id="SVGID_58_" gradientUnits="userSpaceOnUse" x1="163.341" x2="276.6" xlink:href="#lg1" y1="251.765" y2="315.225"/><linearGradient id="SVGID_59_" gradientUnits="userSpaceOnUse" x1="221.812" x2="221.812" xlink:href="#lg8" y1="331.382" y2="223.805"/><linearGradient id="SVGID_60_" gradientUnits="userSpaceOnUse" x1="155.491" x2="280.114" xlink:href="#lg5" y1="196.642" y2="283.48"/><linearGradient id="SVGID_61_" gradientUnits="userSpaceOnUse" x1="211.977" x2="211.977" xlink:href="#lg6" y1="301.194" y2="236.89"/><linearGradient id="SVGID_62_" gradientUnits="userSpaceOnUse" x1="159.31" x2="276.788" xlink:href="#lg1" y1="182.773" y2="264.632"/><linearGradient id="SVGID_63_" gradientUnits="userSpaceOnUse" x1="223.29" x2="223.29" xlink:href="#lg8" y1="251.175" y2="169.503"/><linearGradient id="SVGID_64_" gradientUnits="userSpaceOnUse" x1="165.153" x2="267.8" xlink:href="#lg5" y1="134.684" y2="206.209"/><linearGradient id="SVGID_65_" gradientUnits="userSpaceOnUse" x1="213.678" x2="213.678" xlink:href="#lg6" y1="207.963" y2="161.702"/><linearGradient id="SVGID_66_" gradientUnits="userSpaceOnUse" x1="190.996" x2="231.099" xlink:href="#lg1" y1="133.093" y2="152.924"/><linearGradient id="SVGID_67_" gradientUnits="userSpaceOnUse" x1="63.525" x2="118.635" xlink:href="#lg4" y1="411.658" y2="411.658"/><linearGradient id="SVGID_68_" gradientUnits="userSpaceOnUse" x1="84.946" x2="55.965" xlink:href="#lg4" y1="430.252" y2="430.252"/><linearGradient id="SVGID_69_" gradientUnits="userSpaceOnUse" x1="121.24" x2="90.952" xlink:href="#lg4" y1="401.833" y2="401.833"/><linearGradient id="SVGID_70_" gradientUnits="userSpaceOnUse" x1="94.617" x2="86.269" xlink:href="#lg3" y1="413.81" y2="380.421"/><linearGradient id="SVGID_71_" gradientUnits="userSpaceOnUse" x1="31.573" x2="154.987" xlink:href="#lg5" y1="291.23" y2="377.226"/><linearGradient id="SVGID_72_" gradientUnits="userSpaceOnUse" x1="88.845" x2="88.845" xlink:href="#lg6" y1="400.477" y2="319.551"/><linearGradient id="SVGID_73_" gradientUnits="userSpaceOnUse" x1="97.328" x2="97.328" xlink:href="#lg7" y1="370.344" y2="306.465"/><linearGradient id="SVGID_74_" gradientUnits="userSpaceOnUse" x1="47.727" x2="139.666" xlink:href="#lg1" y1="290.772" y2="342.286"/><linearGradient id="SVGID_75_" gradientUnits="userSpaceOnUse" x1="95.192" x2="95.192" xlink:href="#lg8" y1="355.402" y2="268.075"/><linearGradient id="SVGID_76_" gradientUnits="userSpaceOnUse" x1="41.355" x2="142.519" xlink:href="#lg5" y1="246.025" y2="316.517"/><linearGradient id="SVGID_77_" gradientUnits="userSpaceOnUse" x1="87.208" x2="87.208" xlink:href="#lg6" y1="330.897" y2="278.697"/><linearGradient id="SVGID_78_" gradientUnits="userSpaceOnUse" x1="44.455" x2="139.819" xlink:href="#lg1" y1="234.767" y2="301.217"/><linearGradient id="SVGID_79_" gradientUnits="userSpaceOnUse" x1="96.048" x2="96.048" xlink:href="#lg8" y1="290.293" y2="223.995"/><linearGradient id="SVGID_80_" gradientUnits="userSpaceOnUse" x1="49.198" x2="132.523" xlink:href="#lg5" y1="195.73" y2="253.792"/><linearGradient id="SVGID_81_" gradientUnits="userSpaceOnUse" x1="88.589" x2="88.589" xlink:href="#lg6" y1="255.215" y2="217.662"/><linearGradient id="SVGID_82_" gradientUnits="userSpaceOnUse" x1="70.176" x2="102.73" xlink:href="#lg1" y1="194.439" y2="210.537"/><linearGradient id="SVGID_83_" gradientUnits="userSpaceOnUse" x1="244.364" x2="163.864" xlink:href="#lg3" y1="270.295" y2="302.795"/><linearGradient id="SVGID_84_" gradientUnits="userSpaceOnUse" x1="124.295" x2="170.906" xlink:href="#lg4" y1="418.957" y2="418.957"/><linearGradient id="SVGID_85_" gradientUnits="userSpaceOnUse" x1="142.412" x2="117.9" xlink:href="#lg4" y1="434.683" y2="434.683"/><linearGradient id="SVGID_86_" gradientUnits="userSpaceOnUse" x1="173.109" x2="147.491" xlink:href="#lg4" y1="410.647" y2="410.647"/><linearGradient id="SVGID_87_" gradientUnits="userSpaceOnUse" x1="150.591" x2="143.531" xlink:href="#lg3" y1="420.777" y2="392.538"/><linearGradient id="SVGID_88_" gradientUnits="userSpaceOnUse" x1="97.27" x2="201.651" xlink:href="#lg5" y1="317.101" y2="389.835"/><linearGradient id="SVGID_89_" gradientUnits="userSpaceOnUse" x1="145.709" x2="145.709" xlink:href="#lg6" y1="409.5" y2="341.055"/><linearGradient id="SVGID_90_" gradientUnits="userSpaceOnUse" x1="152.884" x2="152.884" xlink:href="#lg7" y1="384.014" y2="329.987"/><linearGradient id="SVGID_91_" gradientUnits="userSpaceOnUse" x1="110.933" x2="188.693" xlink:href="#lg1" y1="316.714" y2="360.284"/><linearGradient id="SVGID_92_" gradientUnits="userSpaceOnUse" x1="151.078" x2="151.078" xlink:href="#lg8" y1="371.376" y2="297.517"/><linearGradient id="SVGID_93_" gradientUnits="userSpaceOnUse" x1="105.543" x2="191.106" xlink:href="#lg5" y1="278.868" y2="338.489"/><linearGradient id="SVGID_94_" gradientUnits="userSpaceOnUse" x1="144.325" x2="144.325" xlink:href="#lg6" y1="350.65" y2="306.501"/><linearGradient id="SVGID_95_" gradientUnits="userSpaceOnUse" x1="108.165" x2="188.823" xlink:href="#lg1" y1="269.345" y2="325.548"/><linearGradient id="SVGID_96_" gradientUnits="userSpaceOnUse" x1="151.802" x2="151.802" xlink:href="#lg8" y1="316.309" y2="260.235"/><linearGradient id="SVGID_97_" gradientUnits="userSpaceOnUse" x1="112.177" x2="182.652" xlink:href="#lg5" y1="236.329" y2="285.436"/><linearGradient id="SVGID_98_" gradientUnits="userSpaceOnUse" x1="145.493" x2="145.493" xlink:href="#lg6" y1="286.64" y2="254.879"/><linearGradient id="SVGID_99_" gradientUnits="userSpaceOnUse" x1="129.92" x2="157.454" xlink:href="#lg1" y1="235.237" y2="248.852"/><linearGradient id="SVGID_100_" gradientUnits="userSpaceOnUse" x1="255" x2="255" xlink:href="#lg1" y1="440.574" y2="523.684"/><linearGradient id="SVGID_101_" gradientUnits="userSpaceOnUse" x1="401.789" x2="481.285" y1="91.061" y2="148.058"><stop offset="0" stop-color="#fff5d9"/><stop offset="1" stop-color="#ffce47"/></linearGradient><g><path d="m485.638 503h-461.276c-13.455 0-24.362-116.366-24.362-129.821v-348.817c0-13.455 10.907-24.362 24.362-24.362h461.275c13.456 0 24.363 10.907 24.363 24.362v377.046c0 13.455-10.907 101.592-24.362 101.592z" fill="url(#SVGID_1_)"/><g><circle cx="22.667" cy="20" fill="url(#SVGID_2_)" r="4.5"/><circle cx="32.667" cy="97.167" fill="url(#SVGID_3_)" r="4.5"/><circle cx="16" cy="260" fill="url(#SVGID_4_)" r="4.5"/><circle cx="256" cy="55.333" fill="url(#SVGID_5_)" r="4.5"/><circle cx="152.667" cy="106.5" fill="url(#SVGID_6_)" r="4.5"/><circle cx="81" cy="75" fill="url(#SVGID_7_)" r="4.5"/><circle cx="483" cy="164" fill="url(#SVGID_8_)" r="4.5"/><circle cx="30.667" cy="188" fill="url(#SVGID_9_)" r="4.5"/><circle cx="389.167" cy="241" fill="url(#SVGID_10_)" r="4.5"/><circle cx="105.333" cy="21.333" fill="url(#SVGID_11_)" r="4.5"/><circle cx="312" cy="34.667" fill="url(#SVGID_12_)" r="4.5"/><circle cx="372.667" cy="71.333" fill="url(#SVGID_13_)" r="4.5"/><circle cx="406" cy="187" fill="url(#SVGID_14_)" r="4.5"/><circle cx="469" cy="217" fill="url(#SVGID_15_)" r="4.5"/><circle cx="488" cy="88" fill="url(#SVGID_16_)" r="4.5"/><circle cx="361.5" cy="125" fill="url(#SVGID_17_)" r="4.5"/><circle cx="447" cy="270.5" fill="url(#SVGID_18_)" r="4.5"/><circle cx="119" cy="156" fill="url(#SVGID_19_)" r="4.5"/><circle cx="380.667" cy="22" fill="url(#SVGID_20_)" r="4.5"/><circle cx="464" cy="23.333" fill="url(#SVGID_21_)" r="4.5"/><circle cx="473" cy="326" fill="url(#SVGID_22_)" r="4.5"/><circle cx="425.5" cy="332" fill="url(#SVGID_23_)" r="4.5"/><circle cx="293.333" cy="106" fill="url(#SVGID_24_)" r="4.5"/><circle cx="254.667" cy="173.333" fill="url(#SVGID_25_)" r="4.5"/><circle cx="221.333" cy="17.333" fill="url(#SVGID_26_)" r="4.5"/><circle cx="164.667" cy="60.667" fill="url(#SVGID_27_)" r="4.5"/></g><g><g><g><path d="m322 432.536 54.149-61.873c15.218-17.388 33.864-17.453 49.111-.171l54.74 62.044z" fill="url(#SVGID_28_)"/><path d="m122.674 352.026c25.886-22.626 57.605-22.71 83.542-.223l93.117 80.732h-268.771z" fill="url(#SVGID_29_)"/><g><path d="m232.889 366.396h26.496c8.378 0 16.414-4.276 22.338-11.886 12.337-15.849 32.339-15.849 44.676 0l60.738 78.026h-218.818l42.232-54.253c5.925-7.611 13.96-11.887 22.338-11.887z" fill="url(#SVGID_30_)"/><path d="m210.551 378.283c5.924-7.611 13.96-11.886 22.338-11.886h26.496c8.292 0 16.344-4.068 22.162-11.659 7.237-9.443 17.17-13.356 26.646-11.759l-35.672 45.826c-6.252 8.032-14.732 12.544-23.575 12.544-8.842 0-17.322 4.512-23.575 12.544l-14.511 18.642h-42.542z" fill="url(#SVGID_31_)"/></g></g></g><g><path d="m510 401.408c-157.976-22.091-258.455 37.934-258.455 37.934h258.455z" fill="url(#SVGID_32_)"/><path d="m0 439.343h323.804s-125.92-105.376-323.804-66.164z" fill="url(#SVGID_33_)"/></g><g><g><path d="m289.22 364.652h41.858v94.335h-41.858z" fill="url(#SVGID_34_)"/><path d="m307.498 458.987h-13.251v-50.649c0-3.659 2.966-6.626 6.626-6.626 3.659 0 6.626 2.966 6.626 6.626v50.649z" fill="url(#SVGID_35_)"/><path d="m313.24 396.706c3.171 0 5.742 2.571 5.742 5.742v31.214c0 3.171 2.571 5.742 5.742 5.742h.61c3.171 0 5.742-2.571 5.742-5.742v-69.01h-23.579v26.312c.001 3.171 2.572 5.742 5.743 5.742z" fill="url(#SVGID_36_)"/></g><path d="m331.076 364.656v66.565l-41.582-41.582-.274 3.595v-28.578z" fill="url(#SVGID_37_)"/><g><path d="m389.364 341.218-66.578-101.555c-5.967-9.102-19.308-9.102-25.275 0l-64.764 98.788-3.762 5.442c-3.184 4.46-4.859 10.069-4.254 16.093 1.101 10.957 9.941 19.853 20.892 21.012 4.153.44 8.111-.204 11.634-1.68 5.294-2.218 11.402-.867 15.414 3.237 4.272 4.37 10.226 7.083 16.823 7.083 4.804 0 9.271-1.438 12.996-3.906 4.627-3.066 10.689-3.066 15.316 0 3.725 2.468 8.192 3.906 12.996 3.906 6.597 0 12.552-2.713 16.823-7.083 4.012-4.104 10.12-5.455 15.414-3.237 3.523 1.476 7.481 2.119 11.634 1.68 10.951-1.159 19.791-10.055 20.892-21.012.63-6.275-1.214-12.099-4.659-16.644-.528-.698-1.062-1.392-1.542-2.124z" fill="url(#SVGID_38_)"/><path d="m395.563 359.983c-1.098 10.959-9.94 19.858-20.892 21.013-4.15.442-8.107-.2-11.63-1.676-5.298-2.218-11.401-.87-15.416 3.237-4.271 4.371-10.225 7.08-16.821 7.08-4.806 0-9.27-1.44-12.999-3.907-4.628-3.066-10.688-3.066-15.316 0-3.722 2.467-8.193 3.907-12.999 3.907-6.596 0-12.549-2.71-16.821-7.08-3.979-4.071-10.011-5.433-15.28-3.294l-26.775-26.775v-10.959l2.132-3.08 64.765-98.784c5.968-9.106 19.309-9.106 25.27 0l66.584 101.551c.478.734 1.013 1.426 1.54 2.125 3.445 4.549 5.292 10.367 4.658 16.642z" fill="url(#SVGID_39_)"/><path d="m395.566 359.983c-1.104 10.963-9.938 19.859-20.893 21.016-4.152.442-8.11-.203-11.635-1.678-5.292-2.217-11.405-.866-15.416 3.233-4.267 4.373-10.221 7.085-16.82 7.085-4.806 0-9.267-1.44-12.995-3.905-.371-.247-.76-.477-1.148-.689l-69.136-69.136 49.983-76.247c5.972-9.099 19.311-9.099 25.283 0l66.574 101.557c.477.733 1.016 1.422 1.546 2.12 3.446 4.55 5.284 10.372 4.657 16.644z" fill="url(#SVGID_40_)"/><path d="m245.623 360.241c4.057.429 7.928-.174 11.39-1.579 5.349-2.17 11.564-1.092 15.58 3.055 4.277 4.418 10.264 7.165 16.902 7.165 4.804 0 9.271-1.438 12.996-3.906 4.615-3.058 10.701-3.058 15.316 0 3.725 2.468 8.192 3.906 12.996 3.906 6.638 0 12.625-2.747 16.902-7.165 4.016-4.147 10.23-5.225 15.58-3.055 3.461 1.404 7.333 2.008 11.39 1.579 6.777-.717 12.745-4.398 16.57-9.697 2.251-3.118 2.326-7.368.1-10.505-.205-.288-.416-.572-.633-.851-.405-.52-.805-1.043-1.167-1.594l-66.758-101.83c-5.967-9.102-19.308-9.102-25.275 0l-64.764 98.788-3.762 5.442c-.011.016-.023.032-.034.048-2.226 3.135-2.149 7.384.102 10.502 3.824 5.299 9.791 8.98 16.569 9.697z" fill="url(#SVGID_41_)"/><path d="m392.889 346.421c-.2 1.462-.749 2.881-1.647 4.121-3.822 5.298-9.79 8.984-16.571 9.697-4.05.428-7.922-.171-11.387-1.576-5.348-2.175-11.566-1.091-15.58 3.052-4.278 4.421-10.261 7.166-16.899 7.166-4.806 0-9.27-1.44-12.999-3.907-4.613-3.059-10.703-3.059-15.316 0-1.205.799-2.496 1.49-3.843 2.061l-52.665-52.665 42.191-64.352 9.341-14.254c5.968-9.098 19.309-9.098 25.27 0l66.762 101.829c.364.549.763 1.077 1.169 1.597.214.278.428.563.627.849 1.34 1.89 1.846 4.179 1.547 6.382z" fill="url(#SVGID_42_)"/><path d="m375.082 287.258-54.575-83.246c-4.891-7.461-15.827-7.461-20.718 0l-53.088 80.978-3.084 4.461c-2.61 3.656-3.983 8.254-3.487 13.192.902 8.982 8.148 16.274 17.125 17.224 3.404.36 6.649-.167 9.537-1.377 4.34-1.818 9.346-.711 12.635 2.654 3.502 3.582 8.383 5.806 13.79 5.806 3.938 0 7.599-1.179 10.653-3.202 3.793-2.513 8.762-2.513 12.555 0 3.054 2.023 6.715 3.202 10.653 3.202 5.408 0 10.289-2.224 13.79-5.806 3.289-3.365 8.296-4.472 12.635-2.654 2.888 1.21 6.133 1.737 9.537 1.377 8.977-.95 16.223-8.242 17.125-17.224.517-5.144-.995-9.918-3.819-13.644-.433-.572-.87-1.141-1.264-1.741z" fill="url(#SVGID_43_)"/><path d="m380.168 302.64c-.906 8.984-8.15 16.279-17.127 17.227-3.401.357-6.646-.171-9.533-1.376-4.342-1.818-9.348-.713-12.635 2.652-3.508 3.579-8.385 5.804-13.79 5.804-3.943 0-7.601-1.176-10.66-3.202-3.786-2.51-8.756-2.51-12.549 0-3.059 2.025-6.717 3.202-10.653 3.202-5.412 0-10.289-2.225-13.79-5.804-2.567-2.624-6.175-3.872-9.69-3.43l-26.967-26.974c.271-.442.549-.87.849-1.291l3.08-4.456 53.086-80.98c4.891-7.458 15.829-7.458 20.721 0l54.576 83.247c.392.599.827 1.169 1.262 1.74 2.822 3.723 4.334 8.5 3.82 13.641z" fill="url(#SVGID_44_)"/><path d="m257.256 300.257c3.342.354 6.531-.148 9.379-1.312 4.365-1.783 9.448-.866 12.728 2.522 3.506 3.621 8.414 5.873 13.855 5.873 3.938 0 7.599-1.179 10.653-3.202 3.783-2.507 8.772-2.507 12.555 0 3.054 2.023 6.715 3.202 10.653 3.202 5.441 0 10.349-2.252 13.855-5.873 3.28-3.388 8.363-4.305 12.728-2.522 2.848 1.164 6.037 1.665 9.379 1.312 5.495-.582 10.332-3.543 13.468-7.811 2.263-3.081 2.27-7.277.004-10.355-.09-.123-.182-.245-.276-.366-.365-.472-.727-.946-1.055-1.444l-54.675-83.399c-4.891-7.461-15.827-7.461-20.718 0l-53.088 80.978-3.084 4.461c-.013.018-.025.035-.038.053-2.053 2.897-2.07 6.839-.028 9.743 3.126 4.445 8.07 7.544 13.705 8.14z" fill="url(#SVGID_45_)"/><path d="m377.501 290.711c-.257.606-.592 1.184-.991 1.733-3.137 4.271-7.972 7.23-13.469 7.815-3.344.349-6.531-.15-9.376-1.312-4.371-1.783-9.448-.87-12.728 2.524-3.508 3.615-8.414 5.868-13.854 5.868-3.943 0-7.601-1.176-10.66-3.202-1.669-1.105-3.579-1.718-5.512-1.847l-48.458-48.458 25.677-39.167 11.658-17.783c4.891-7.458 15.829-7.458 20.721 0l54.676 83.397c.328.499.692.977 1.055 1.447.093.121.185.242.271.364 1.86 2.532 2.188 5.819.99 8.621z" fill="url(#SVGID_46_)"/><path d="m363.632 229.991-44.951-68.566c-4.029-6.145-13.036-6.145-17.065 0l-43.726 66.698-2.54 3.674c-2.149 3.011-3.281 6.798-2.872 10.865.743 7.398 6.711 13.404 14.105 14.187 2.804.297 5.476-.137 7.855-1.134 3.574-1.497 7.698-.586 10.407 2.186 2.884 2.95 6.904 4.782 11.358 4.782 3.243 0 6.259-.971 8.774-2.637 3.124-2.07 7.217-2.07 10.341 0 2.515 1.667 5.531 2.637 8.774 2.637 4.454 0 8.474-1.832 11.358-4.782 2.709-2.771 6.833-3.683 10.407-2.186 2.379.997 5.051 1.431 7.855 1.134 7.394-.783 13.362-6.789 14.105-14.187.426-4.237-.819-8.169-3.146-11.238-.355-.47-.715-.939-1.039-1.433z" fill="url(#SVGID_47_)"/><path d="m364.673 231.425c-.357-.471-.717-.939-1.041-1.433l-44.951-68.566c-4.029-6.145-13.036-6.145-17.065 0l-43.726 66.698 33.947 33.947c1.388.396 2.851.613 4.367.613 3.243 0 6.259-.971 8.774-2.637 3.124-2.07 7.217-2.07 10.341 0 2.515 1.667 5.531 2.637 8.774 2.637 4.454 0 8.474-1.832 11.358-4.782 2.709-2.771 6.833-3.683 10.407-2.186 2.379.997 5.051 1.431 7.855 1.134 7.394-.783 13.362-6.789 14.105-14.186.427-4.238-.819-8.171-3.145-11.239z" fill="url(#SVGID_48_)"/></g><path d="m318.681 156.563c-4.029-6.145-13.036-6.145-17.065 0l-43.726 66.698c-1.442 2.086-1.009 4.967 1.031 6.474 2.2 1.626 4.824 2.699 7.662 3 2.804.297 5.476-.137 7.855-1.134 3.568-1.495 7.689-.604 10.388 2.167 2.885 2.961 6.913 4.801 11.377 4.801 3.244 0 6.259-.971 8.774-2.637 3.121-2.068 7.22-2.068 10.341 0 2.515 1.667 5.531 2.637 8.774 2.637 4.464 0 8.491-1.84 11.377-4.801 2.7-2.771 6.82-3.662 10.388-2.167 2.379.997 5.051 1.431 7.855 1.134 3.772-.399 7.165-2.164 9.688-4.774.738-.764.823-1.929.24-2.817-.003-.005-.006-.01-.009-.014z" fill="url(#SVGID_49_)"/></g><path d="m395.57 359.989c-1.11 10.95-9.94 19.85-20.9 21.01-4.15.44-8.11-.2-11.63-1.68-5.29-2.22-11.4-.87-15.41 3.24-4.28 4.37-10.23 7.08-16.83 7.08-4.8 0-9.27-1.44-12.99-3.91-4.63-3.06-10.69-3.06-15.32 0-3.72 2.47-8.19 3.91-13 3.91-6.59 0-12.55-2.71-16.82-7.08-4.01-4.11-10.12-5.46-15.41-3.24-3.53 1.48-7.48 2.12-11.64 1.68-10.95-1.16-19.79-10.06-20.89-21.01-.49-4.93.56-9.57 2.69-13.55-.3-2.21.19-4.5 1.53-6.4.01-.01.02-.03.03-.05l3.77-5.44 13.15-20.06c-3.17-3.09-5.31-7.24-5.77-11.85-.44-4.38.6-8.48 2.65-11.91-1.2-2.69-.94-5.9.8-8.36.01-.01.02-.03.04-.05l3.08-4.46 14.74-22.48c-4.87-2.36-8.4-7.14-8.96-12.72-.41-4.06.72-7.85 2.87-10.86l2.35-3.41c-.92-1.54-.89-3.56.19-5.13l23.87-36.4 93.42 93.42c.33.5.69.97 1.06 1.45.09.12.18.24.27.36 1.86 2.53 2.17 5.8.97 8.6 2.08 3.43 3.13 7.55 2.69 11.95-.47 4.61-2.6 8.76-5.78 11.85l15.15 23.11c.37.55.77 1.07 1.17 1.59.22.28.43.56.63.85 1.34 1.89 1.83 4.17 1.54 6.37 2.14 3.98 3.18 8.64 2.69 13.58z" fill="url(#SVGID_50_)"/><g><g><path d="m184.412 342.379h51.74v116.608h-51.74z" fill="url(#SVGID_51_)"/><path d="m207.006 458.987h-16.38v-62.607c0-4.523 3.667-8.19 8.19-8.19 4.523 0 8.19 3.667 8.19 8.19z" fill="url(#SVGID_52_)"/><path d="m214.104 382.002c3.92 0 7.098 3.178 7.098 7.098v38.583c0 3.92 3.178 7.098 7.098 7.098h.754c3.92 0 7.098-3.178 7.098-7.098v-85.304h-29.146v32.525c0 3.92 3.178 7.098 7.098 7.098z" fill="url(#SVGID_53_)"/></g><path d="m236.151 342.384v82.282l-51.4-51.4-.338 4.444v-35.326z" fill="url(#SVGID_54_)"/><g><path d="m308.2 313.413-82.297-125.532c-7.376-11.25-23.867-11.25-31.242 0l-80.055 122.111-4.65 6.726c-3.935 5.513-6.006 12.446-5.258 19.892 1.361 13.544 12.287 24.54 25.824 25.973 5.133.543 10.026-.252 14.381-2.076 6.544-2.742 14.094-1.072 19.053 4.001 5.28 5.402 12.641 8.756 20.795 8.756 5.938 0 11.46-1.777 16.064-4.828 5.72-3.79 13.212-3.79 18.932 0 4.605 3.051 10.126 4.828 16.064 4.828 8.155 0 15.515-3.354 20.795-8.756 4.959-5.074 12.51-6.743 19.053-4.001 4.355 1.825 9.248 2.619 14.381 2.076 13.537-1.433 24.463-12.429 25.824-25.973.779-7.757-1.5-14.956-5.759-20.574-.652-.86-1.312-1.718-1.905-2.623z" fill="url(#SVGID_55_)"/><path d="m315.862 336.608c-1.357 13.547-12.287 24.547-25.825 25.974-5.13.546-10.021-.247-14.375-2.071-6.549-2.741-14.093-1.075-19.056 4.001-5.28 5.403-12.639 8.752-20.792 8.752-5.941 0-11.458-1.78-16.068-4.83-5.72-3.79-13.212-3.79-18.932 0-4.601 3.05-10.127 4.83-16.068 4.83-8.153 0-15.512-3.349-20.792-8.752-4.918-5.033-12.375-6.716-18.888-4.072l-33.096-33.096v-13.547l2.635-3.808 80.056-122.107c7.377-11.255 23.868-11.255 31.236 0l82.304 125.527c.591.908 1.252 1.763 1.904 2.626 4.259 5.625 6.542 12.817 5.757 20.573z" fill="url(#SVGID_56_)"/><path d="m315.866 336.608c-1.365 13.552-12.285 24.548-25.825 25.978-5.132.546-10.024-.251-14.381-2.075-6.541-2.741-14.098-1.07-19.055 3.997-5.274 5.405-12.634 8.758-20.791 8.758-5.94 0-11.455-1.78-16.063-4.826-.459-.306-.939-.59-1.42-.852l-85.459-85.459 61.785-94.249c7.382-11.247 23.871-11.247 31.253 0l82.29 125.534c.59.906 1.256 1.758 1.911 2.621 4.259 5.624 6.53 12.82 5.755 20.573z" fill="url(#SVGID_57_)"/><path d="m130.522 336.927c5.015.531 9.8-.216 14.079-1.952 6.612-2.683 14.294-1.35 19.258 3.776 5.287 5.461 12.688 8.856 20.893 8.856 5.938 0 11.46-1.777 16.064-4.828 5.705-3.78 13.228-3.78 18.932 0 4.605 3.051 10.126 4.828 16.064 4.828 8.205 0 15.606-3.396 20.893-8.856 4.964-5.127 12.646-6.459 19.258-3.776 4.279 1.736 9.064 2.482 14.079 1.952 8.377-.887 15.754-5.437 20.483-11.986 2.783-3.855 2.875-9.108.123-12.985-.253-.357-.514-.707-.783-1.052-.501-.642-.996-1.289-1.442-1.97l-82.52-125.872c-7.376-11.25-23.867-11.25-31.242 0l-80.055 122.111-4.65 6.726c-.014.02-.028.04-.042.06-2.751 3.875-2.656 9.128.126 12.981 4.728 6.55 12.104 11.101 20.482 11.987z" fill="url(#SVGID_58_)"/><path d="m312.557 319.844c-.247 1.807-.925 3.561-2.036 5.094-4.724 6.549-12.101 11.105-20.483 11.987-5.006.529-9.792-.212-14.076-1.948-6.61-2.688-14.296-1.348-19.258 3.772-5.288 5.465-12.683 8.858-20.889 8.858-5.941 0-11.458-1.78-16.068-4.83-5.703-3.781-13.23-3.781-18.932 0-1.49.987-3.085 1.842-4.751 2.547l-65.099-65.099 52.152-79.545 11.546-17.619c7.377-11.247 23.868-11.247 31.236 0l82.524 125.871c.449.679.943 1.331 1.445 1.974.264.344.529.696.776 1.049 1.657 2.336 2.283 5.166 1.913 7.889z" fill="url(#SVGID_59_)"/><path d="m290.547 246.713-67.46-102.9c-6.046-9.222-19.564-9.222-25.61 0l-65.622 100.096-3.812 5.514c-3.226 4.519-4.923 10.202-4.31 16.306 1.115 11.102 10.072 20.116 21.168 21.29 4.208.445 8.218-.206 11.788-1.702 5.364-2.247 11.553-.879 15.618 3.28 4.328 4.428 10.362 7.177 17.046 7.177 4.868 0 9.394-1.457 13.168-3.958 4.689-3.107 10.83-3.107 15.519 0 3.774 2.501 8.3 3.958 13.168 3.958 6.684 0 12.718-2.749 17.046-7.177 4.065-4.159 10.254-5.527 15.618-3.28 3.57 1.496 7.581 2.147 11.788 1.702 11.096-1.174 20.053-10.188 21.168-21.29.639-6.358-1.23-12.26-4.721-16.865-.533-.706-1.074-1.409-1.56-2.151z" fill="url(#SVGID_60_)"/><path d="m296.833 265.727c-1.119 11.105-10.074 20.122-21.171 21.294-4.204.441-8.215-.212-11.784-1.701-5.368-2.248-11.555-.881-15.618 3.279-4.336 4.425-10.365 7.175-17.046 7.175-4.874 0-9.396-1.454-13.177-3.957-4.68-3.103-10.823-3.103-15.512 0-3.781 2.503-8.303 3.957-13.168 3.957-6.69 0-12.718-2.75-17.046-7.175-3.173-3.243-7.633-4.786-11.978-4.239l-33.334-33.343c.335-.546.679-1.075 1.049-1.595l3.808-5.509 65.619-100.099c6.046-9.219 19.567-9.219 25.613 0l67.461 102.902c.485.74 1.022 1.445 1.56 2.151 3.49 4.6 5.359 10.505 4.724 16.86z" fill="url(#SVGID_61_)"/><path d="m144.901 262.782c4.132.437 8.073-.183 11.594-1.621 5.396-2.204 11.678-1.07 15.733 3.117 4.334 4.476 10.4 7.259 17.126 7.259 4.868 0 9.394-1.457 13.168-3.958 4.676-3.098 10.843-3.098 15.519 0 3.774 2.501 8.3 3.958 13.168 3.958 6.726 0 12.792-2.783 17.126-7.259 4.054-4.188 10.337-5.322 15.733-3.117 3.521 1.438 7.462 2.059 11.594 1.621 6.792-.719 12.772-4.379 16.647-9.656 2.797-3.808 2.806-8.995.005-12.8-.112-.152-.225-.303-.341-.452-.451-.583-.899-1.169-1.303-1.785l-67.584-103.089c-6.046-9.222-19.564-9.222-25.61 0l-65.622 100.096-3.812 5.514c-.016.022-.031.044-.047.066-2.537 3.581-2.559 8.454-.035 12.043 3.865 5.494 9.976 9.325 16.941 10.063z" fill="url(#SVGID_62_)"/><path d="m152.188 204.117 61.584 61.584c1.497.378 2.943 1.001 4.265 1.877 3.781 2.503 8.303 3.957 13.177 3.957 6.725 0 12.789-2.785 17.125-7.254 4.054-4.195 10.33-5.324 15.733-3.12 3.517 1.437 7.457 2.054 11.59 1.622 6.795-.723 12.771-4.38 16.649-9.66.494-.679.908-1.393 1.225-2.142 1.481-3.464 1.075-7.527-1.225-10.656-.106-.15-.22-.3-.335-.45-.45-.582-.899-1.172-1.305-1.789l-67.584-103.086c-6.046-9.219-19.567-9.219-25.613 0l-14.411 21.982-30.891 47.121c.005.005.011.009.016.014z" fill="url(#SVGID_63_)"/><path d="m276.392 175.926-55.564-84.754c-4.98-7.596-16.114-7.596-21.094 0l-54.05 82.445-3.14 4.541c-2.657 3.722-4.055 8.403-3.55 13.431.919 9.144 8.296 16.569 17.435 17.536 3.466.367 6.769-.17 9.71-1.402 4.418-1.851 9.516-.724 12.864 2.702 3.565 3.647 8.534 5.911 14.04 5.911 4.009 0 7.737-1.2 10.846-3.26 3.862-2.559 8.921-2.559 12.782 0 3.109 2.06 6.837 3.26 10.846 3.26 5.506 0 10.475-2.264 14.04-5.911 3.348-3.425 8.446-4.553 12.864-2.702 2.94 1.232 6.244 1.769 9.71 1.402 9.139-.967 16.517-8.392 17.435-17.536.526-5.237-1.013-10.098-3.889-13.891-.439-.583-.884-1.162-1.285-1.772z" fill="url(#SVGID_64_)"/><path d="m277.68 177.697c-.441-.582-.887-1.161-1.287-1.772l-55.564-84.754c-4.98-7.596-16.114-7.596-21.094 0l-54.05 82.445 41.962 41.962c1.715.49 3.524.758 5.398.758 4.009 0 7.737-1.2 10.846-3.26 3.862-2.559 8.921-2.559 12.782 0 3.109 2.06 6.837 3.26 10.846 3.26 5.506 0 10.475-2.264 14.04-5.911 3.348-3.425 8.446-4.553 12.864-2.702 2.94 1.232 6.244 1.769 9.71 1.402 9.139-.967 16.517-8.392 17.435-17.536.526-5.238-1.013-10.098-3.888-13.892z" fill="url(#SVGID_65_)"/></g><path d="m220.829 85.161c-4.98-7.596-16.114-7.596-21.094 0l-54.05 82.445c-1.783 2.579-1.247 6.14 1.274 8.003 2.72 2.009 5.963 3.336 9.472 3.708 3.466.367 6.769-.17 9.71-1.402 4.411-1.848 9.504-.747 12.841 2.678 3.567 3.661 8.546 5.935 14.063 5.935 4.009 0 7.737-1.2 10.846-3.26 3.858-2.556 8.924-2.556 12.782 0 3.109 2.06 6.837 3.26 10.846 3.26 5.517 0 10.496-2.274 14.063-5.935 3.337-3.425 8.43-4.526 12.841-2.678 2.94 1.232 6.244 1.769 9.71 1.402 4.662-.493 8.856-2.675 11.975-5.902.913-.944 1.018-2.385.296-3.482-.004-.006-.008-.012-.012-.018z" fill="url(#SVGID_66_)"/></g><g><g><path d="m64.832 364.329h42.001v94.658h-42.001z" fill="url(#SVGID_67_)"/><path d="m83.173 458.987h-13.297v-50.822c0-3.672 2.977-6.648 6.648-6.648 3.672 0 6.648 2.977 6.648 6.648v50.822z" fill="url(#SVGID_68_)"/><path d="m88.934 396.493c3.182 0 5.762 2.58 5.762 5.762v31.32c0 3.182 2.58 5.762 5.762 5.762h.612c3.182 0 5.762-2.58 5.762-5.762v-69.246h-23.66v26.402c.001 3.183 2.58 5.762 5.762 5.762z" fill="url(#SVGID_69_)"/></g><path d="m106.831 364.333v66.793l-41.724-41.724-.275 3.608v-28.677z" fill="url(#SVGID_70_)"/><g><path d="m165.318 340.816-66.805-101.902c-5.987-9.133-19.374-9.133-25.361 0l-64.986 99.125-3.775 5.46c-3.194 4.475-4.875 10.103-4.268 16.148 1.104 10.994 9.975 19.921 20.963 21.084 4.167.441 8.139-.204 11.674-1.685 5.312-2.225 11.441-.87 15.467 3.248 4.286 4.385 10.261 7.108 16.881 7.108 4.82 0 9.302-1.443 13.04-3.919 4.643-3.077 10.725-3.077 15.369 0 3.738 2.477 8.22 3.919 13.04 3.919 6.62 0 12.594-2.723 16.881-7.108 4.026-4.119 10.155-5.474 15.467-3.248 3.535 1.481 7.507 2.126 11.674 1.685 10.988-1.163 19.858-10.089 20.963-21.084.633-6.297-1.218-12.141-4.675-16.701-.532-.7-1.067-1.396-1.549-2.13z" fill="url(#SVGID_71_)"/><path d="m171.538 359.644c-1.102 10.997-9.974 19.926-20.963 21.085-4.164.444-8.135-.2-11.669-1.681-5.316-2.225-11.44-.873-15.469 3.248-4.286 4.386-10.26 7.105-16.878 7.105-4.822 0-9.301-1.445-13.043-3.921-4.643-3.077-10.725-3.077-15.368 0-3.735 2.476-8.221 3.921-13.043 3.921-6.618 0-12.592-2.719-16.878-7.105-3.992-4.085-10.045-5.452-15.333-3.305l-26.867-26.866v-10.997l2.139-3.091 64.987-99.122c5.989-9.137 19.375-9.137 25.356 0l66.811 101.898c.479.737 1.016 1.431 1.545 2.132 3.457 4.565 5.31 10.403 4.673 16.699z" fill="url(#SVGID_72_)"/><path d="m171.541 359.644c-1.108 11.001-9.972 19.927-20.964 21.088-4.166.443-8.137-.204-11.674-1.684-5.31-2.225-11.444-.869-15.468 3.244-4.281 4.388-10.256 7.109-16.878 7.109-4.822 0-9.299-1.445-13.039-3.918-.372-.248-.762-.479-1.152-.691l-69.373-69.372 50.154-76.508c5.992-9.13 19.377-9.13 25.37 0l66.801 101.904c.479.736 1.019 1.427 1.551 2.128 3.458 4.565 5.301 10.407 4.672 16.7z" fill="url(#SVGID_73_)"/><path d="m21.086 359.904c4.071.431 7.955-.175 11.429-1.584 5.368-2.178 11.604-1.096 15.633 3.065 4.292 4.433 10.3 7.189 16.96 7.189 4.82 0 9.303-1.443 13.04-3.92 4.631-3.068 10.738-3.068 15.368 0 3.738 2.477 8.22 3.92 13.04 3.92 6.661 0 12.669-2.757 16.96-7.189 4.029-4.162 10.265-5.243 15.633-3.065 3.473 1.409 7.358 2.015 11.429 1.584 6.8-.72 12.788-4.413 16.627-9.73 2.259-3.129 2.334-7.394.1-10.541-.205-.289-.417-.574-.635-.854-.407-.521-.808-1.047-1.171-1.6l-66.986-102.177c-5.987-9.133-19.374-9.133-25.361 0l-64.986 99.125-3.775 5.46c-.012.016-.023.032-.034.048-2.233 3.146-2.156 7.41.102 10.538 3.838 5.317 9.826 9.011 16.627 9.731z" fill="url(#SVGID_74_)"/><path d="m168.855 346.036c-.2 1.467-.751 2.891-1.653 4.135-3.835 5.316-9.823 9.015-16.628 9.73-4.064.429-7.949-.172-11.426-1.581-5.366-2.182-11.605-1.095-15.633 3.062-4.293 4.436-10.296 7.191-16.957 7.191-4.822 0-9.301-1.445-13.043-3.921-4.629-3.069-10.739-3.069-15.368 0-1.209.801-2.504 1.495-3.856 2.068l-52.845-52.845 42.335-64.572 9.373-14.302c5.989-9.129 19.375-9.129 25.356 0l66.99 102.177c.365.551.766 1.08 1.173 1.603.215.279.429.565.63.851 1.345 1.897 1.853 4.193 1.552 6.404z" fill="url(#SVGID_75_)"/><path d="m150.988 286.671-54.761-83.53c-4.908-7.486-15.881-7.486-20.789 0l-53.269 81.254-3.094 4.476c-2.618 3.669-3.996 8.282-3.499 13.237.905 9.012 8.176 16.329 17.184 17.283 3.416.362 6.671-.167 9.569-1.382 4.354-1.824 9.378-.713 12.678 2.663 3.513 3.594 8.411 5.826 13.837 5.826 3.951 0 7.625-1.183 10.689-3.213 3.806-2.522 8.792-2.522 12.598 0 3.064 2.03 6.738 3.213 10.689 3.213 5.426 0 10.324-2.232 13.837-5.826 3.3-3.376 8.324-4.487 12.678-2.663 2.898 1.214 6.154 1.743 9.569 1.382 9.007-.953 16.278-8.27 17.184-17.283.519-5.161-.998-9.952-3.832-13.69-.434-.574-.873-1.145-1.268-1.747z" fill="url(#SVGID_76_)"/><path d="m156.091 302.106c-.909 9.015-8.178 16.334-17.186 17.286-3.413.358-6.668-.172-9.566-1.381-4.357-1.824-9.38-.715-12.678 2.662-3.52 3.592-8.414 5.824-13.837 5.824-3.957 0-7.627-1.181-10.696-3.212-3.799-2.518-8.786-2.518-12.592 0-3.069 2.032-6.74 3.212-10.689 3.212-5.43 0-10.324-2.232-13.837-5.824-2.576-2.633-6.196-3.885-9.723-3.441l-27.059-27.066c.272-.444.551-.873.851-1.295l3.091-4.472 53.267-81.257c4.908-7.484 15.884-7.484 20.792 0l54.763 83.532c.394.601.83 1.173 1.266 1.746 2.831 3.734 4.348 8.527 3.833 13.686z" fill="url(#SVGID_77_)"/><path d="m32.759 299.715c3.354.355 6.553-.149 9.411-1.316 4.38-1.789 9.48-.869 12.771 2.531 3.518 3.633 8.443 5.893 13.902 5.893 3.951 0 7.625-1.183 10.689-3.213 3.796-2.515 8.802-2.515 12.598 0 3.064 2.03 6.738 3.213 10.689 3.213 5.46 0 10.384-2.259 13.902-5.893 3.291-3.399 8.391-4.32 12.771-2.531 2.858 1.168 6.058 1.671 9.411 1.316 5.513-.584 10.368-3.555 13.514-7.838 2.271-3.091 2.278-7.302.004-10.391-.091-.123-.183-.246-.277-.367-.366-.474-.73-.949-1.058-1.449l-54.862-83.684c-4.908-7.486-15.881-7.486-20.789 0l-53.269 81.254-3.094 4.476c-.013.018-.025.036-.038.053-2.06 2.907-2.077 6.862-.029 9.776 3.138 4.462 8.099 7.571 13.754 8.17z" fill="url(#SVGID_78_)"/><path d="m153.415 290.136c-.258.608-.594 1.188-.994 1.739-3.148 4.286-7.999 7.255-13.515 7.842-3.356.351-6.554-.15-9.409-1.316-4.386-1.789-9.48-.873-12.771 2.533-3.52 3.627-8.443 5.888-13.902 5.888-3.957 0-7.627-1.181-10.696-3.212-1.674-1.109-3.592-1.724-5.531-1.853l-48.624-48.624 25.764-39.301 11.698-17.844c4.908-7.484 15.884-7.484 20.792 0l54.863 83.682c.329.501.694.98 1.059 1.452.093.122.186.243.272.365 1.867 2.539 2.196 5.837.994 8.649z" fill="url(#SVGID_79_)"/><path d="m139.498 229.209-45.105-68.8c-4.042-6.166-13.081-6.166-17.123 0l-43.876 66.926-2.549 3.686c-2.157 3.022-3.292 6.821-2.882 10.902.746 7.423 6.734 13.45 14.153 14.235 2.813.298 5.495-.138 7.882-1.138 3.586-1.503 7.725-.588 10.443 2.193 2.894 2.96 6.928 4.799 11.397 4.799 3.255 0 6.281-.974 8.804-2.646 3.135-2.077 7.241-2.077 10.376 0 2.524 1.672 5.55 2.646 8.804 2.646 4.469 0 8.503-1.838 11.397-4.799 2.718-2.781 6.856-3.696 10.443-2.193 2.387 1 5.068 1.436 7.882 1.138 7.419-.785 13.408-6.812 14.153-14.235.427-4.251-.822-8.197-3.157-11.276-.355-.473-.717-.943-1.042-1.438z" fill="url(#SVGID_80_)"/><path d="m140.543 230.647c-.358-.473-.72-.942-1.045-1.438l-45.105-68.8c-4.042-6.166-13.081-6.166-17.123 0l-43.876 66.926 34.063 34.063c1.392.398 2.861.615 4.382.615 3.255 0 6.281-.974 8.804-2.646 3.135-2.077 7.241-2.077 10.376 0 2.524 1.672 5.55 2.646 8.804 2.646 4.469 0 8.503-1.838 11.397-4.799 2.718-2.781 6.856-3.696 10.443-2.193 2.387 1 5.068 1.436 7.882 1.138 7.419-.785 13.408-6.812 14.153-14.235.429-4.252-.821-8.198-3.155-11.277z" fill="url(#SVGID_81_)"/></g><path d="m94.393 155.53c-4.042-6.166-13.081-6.166-17.123 0l-43.876 66.926c-1.447 2.093-1.012 4.984 1.034 6.496 2.208 1.631 4.841 2.708 7.689 3.01 2.813.298 5.495-.138 7.882-1.138 3.58-1.5 7.715-.606 10.424 2.174 2.895 2.972 6.937 4.818 11.416 4.818 3.255 0 6.281-.974 8.804-2.646 3.131-2.075 7.245-2.075 10.376 0 2.524 1.672 5.55 2.646 8.804 2.646 4.479 0 8.521-1.846 11.416-4.818 2.709-2.78 6.843-3.674 10.424-2.174 2.387 1 5.069 1.436 7.882 1.138 3.784-.401 7.189-2.171 9.721-4.791.741-.766.826-1.936.24-2.826-.003-.005-.006-.01-.009-.014z" fill="url(#SVGID_82_)"/></g><path d="m144.814 360.546c6.54-2.714 14.182-1.116 19.129 3.951 5.281 5.41 12.647 8.769 20.808 8.769 5.938 0 11.46-1.777 16.064-4.828 5.705-3.78 13.228-3.78 18.932 0 4.605 3.051 10.126 4.828 16.064 4.828 8.205 0 15.606-3.396 20.893-8.856 4.964-5.127 12.646-6.459 19.259-3.776 4.279 1.736 9.064 2.482 14.078 1.951 5.465-.578 10.488-2.735 14.645-5.969l-152.498-152.499c-2.758-2.758-6.498-4.307-10.398-4.307 1.982 3.219 4.865 5.842 8.285 7.494l-18.22 27.792-3.812 5.514c-.016.022-.031.044-.047.066-2.156 3.043-2.489 7.017-.993 10.346-2.539 4.23-3.814 9.302-3.271 14.708.572 5.69 3.212 10.821 7.134 14.64l-16.262 24.805-4.65 6.726c-.014.02-.028.04-.042.06-1.656 2.332-2.273 5.162-1.902 7.887-2.639 4.9-3.92 10.637-3.318 16.72 1.348 13.622 12.217 24.578 25.83 26.019 5.099.537 9.96-.243 14.292-2.041z" fill="url(#SVGID_83_)"/><g><g><path d="m125.4 378.927h35.523v80.06h-35.523z" fill="url(#SVGID_84_)"/><path d="m140.912 458.987h-11.246v-42.984c0-3.105 2.517-5.623 5.623-5.623 3.105 0 5.623 2.517 5.623 5.623z" fill="url(#SVGID_85_)"/><path d="m145.785 406.131c2.691 0 4.873 2.182 4.873 4.873v26.49c0 2.691 2.182 4.873 4.873 4.873h.518c2.691 0 4.873-2.182 4.873-4.873v-58.567h-20.011v22.331c.001 2.691 2.183 4.873 4.874 4.873z" fill="url(#SVGID_86_)"/></g><path d="m160.922 378.931v56.492l-35.289-35.29-.233 3.051v-24.253z" fill="url(#SVGID_87_)"/><g><path d="m210.389 359.04-56.503-86.187c-5.064-7.724-16.386-7.724-21.45 0l-54.963 83.838-3.193 4.618c-2.702 3.785-4.124 8.545-3.61 13.658.934 9.299 8.436 16.849 17.73 17.832 3.524.373 6.884-.173 9.874-1.425 4.493-1.882 9.677-.736 13.082 2.747 3.625 3.709 8.679 6.011 14.277 6.011 4.077 0 7.868-1.22 11.029-3.315 3.927-2.602 9.071-2.602 12.998 0 3.161 2.095 6.952 3.315 11.029 3.315 5.599 0 10.652-2.303 14.277-6.011 3.405-3.483 8.589-4.63 13.082-2.747 2.99 1.253 6.349 1.798 9.874 1.425 9.294-.984 16.796-8.533 17.73-17.832.535-5.326-1.03-10.268-3.954-14.126-.448-.591-.901-1.18-1.309-1.801z" fill="url(#SVGID_88_)"/><path d="m215.65 374.965c-.932 9.301-8.436 16.853-17.731 17.833-3.522.375-6.88-.169-9.87-1.422-4.496-1.882-9.676-.738-13.083 2.747-3.625 3.709-8.678 6.009-14.275 6.009-4.079 0-7.867-1.222-11.032-3.316-3.927-2.602-9.071-2.602-12.998 0-3.159 2.094-6.953 3.316-11.032 3.316-5.598 0-10.65-2.3-14.275-6.009-3.377-3.455-8.496-4.611-12.968-2.796l-22.723-22.723v-9.301l1.809-2.614 54.965-83.836c5.065-7.728 16.387-7.728 21.446 0l56.508 86.184c.405.623.859 1.21 1.307 1.803 2.923 3.862 4.491 8.8 3.952 14.125z" fill="url(#SVGID_89_)"/><path d="m215.652 374.965c-.937 9.304-8.434 16.854-17.731 17.836-3.524.375-6.882-.172-9.874-1.424-4.491-1.882-9.679-.735-13.083 2.744-3.621 3.711-8.674 6.013-14.275 6.013-4.079 0-7.865-1.222-11.029-3.314-.315-.21-.645-.405-.975-.585l-58.674-58.674 42.42-64.709c5.068-7.722 16.389-7.722 21.457 0l56.499 86.189c.405.622.862 1.207 1.312 1.799 2.926 3.861 4.486 8.802 3.953 14.125z" fill="url(#SVGID_90_)"/><path d="m88.4 375.184c3.443.364 6.728-.148 9.666-1.34 4.54-1.842 9.814-.927 13.222 2.593 3.63 3.749 8.711 6.08 14.345 6.08 4.077 0 7.868-1.22 11.029-3.315 3.917-2.595 9.082-2.595 12.998 0 3.161 2.095 6.952 3.315 11.029 3.315 5.633 0 10.715-2.331 14.345-6.08 3.408-3.52 8.682-4.435 13.222-2.593 2.938 1.192 6.223 1.704 9.666 1.34 5.752-.609 10.816-3.733 14.063-8.23 1.911-2.646 1.974-6.253.085-8.915-.174-.245-.353-.486-.537-.722-.344-.441-.684-.885-.99-1.353l-56.656-86.42c-5.064-7.724-16.386-7.724-21.45 0l-54.963 83.839-3.193 4.618c-.01.014-.019.027-.029.041-1.889 2.661-1.824 6.267.086 8.913 3.246 4.496 8.31 7.62 14.062 8.229z" fill="url(#SVGID_91_)"/><path d="m213.381 363.455c-.169 1.241-.635 2.445-1.398 3.498-3.244 4.496-8.309 7.625-14.063 8.23-3.437.363-6.723-.145-9.664-1.337-4.539-1.846-9.815-.926-13.222 2.59-3.631 3.752-8.708 6.082-14.342 6.082-4.079 0-7.867-1.222-11.032-3.316-3.915-2.596-9.083-2.596-12.998 0-1.023.678-2.118 1.265-3.262 1.749l-44.695-44.695 35.806-54.614 7.927-12.097c5.065-7.722 16.387-7.722 21.446 0l56.659 86.42c.309.466.648.914.992 1.355.182.236.363.478.533.72 1.137 1.603 1.567 3.545 1.313 5.415z" fill="url(#SVGID_92_)"/><path d="m198.269 313.245-46.316-70.648c-4.151-6.332-13.432-6.332-17.583 0l-45.055 68.723-2.617 3.786c-2.215 3.103-3.38 7.005-2.959 11.195.766 7.622 6.915 13.811 14.534 14.617 2.889.306 5.643-.142 8.094-1.168 3.683-1.543 7.932-.603 10.723 2.252 2.972 3.04 7.114 4.928 11.703 4.928 3.342 0 6.449-1 9.041-2.717 3.219-2.133 7.436-2.133 10.655 0 2.591 1.717 5.699 2.717 9.041 2.717 4.589 0 8.732-1.888 11.703-4.928 2.791-2.855 7.04-3.795 10.723-2.252 2.451 1.027 5.205 1.474 8.094 1.168 7.618-.806 13.768-6.995 14.534-14.617.439-4.365-.844-8.417-3.241-11.579-.369-.485-.74-.967-1.074-1.477z" fill="url(#SVGID_93_)"/><path d="m202.585 326.3c-.769 7.625-6.917 13.815-14.535 14.62-2.887.303-5.64-.145-8.091-1.168-3.685-1.543-7.933-.605-10.723 2.251-2.977 3.038-7.116 4.926-11.703 4.926-3.346 0-6.451-.998-9.047-2.717-3.213-2.13-7.431-2.13-10.65 0-2.596 1.719-5.7 2.717-9.041 2.717-4.593 0-8.732-1.888-11.703-4.926-2.178-2.227-5.24-3.286-8.224-2.911l-22.887-22.892c.23-.375.466-.738.72-1.095l2.614-3.782 45.052-68.725c4.151-6.33 13.434-6.33 17.585 0l46.317 70.65c.333.508.702.992 1.071 1.477 2.398 3.157 3.681 7.212 3.245 11.575z" fill="url(#SVGID_94_)"/><path d="m98.273 324.277c2.837.3 5.543-.126 7.96-1.113 3.705-1.513 8.018-.735 10.802 2.14 2.975 3.073 7.141 4.984 11.758 4.984 3.342 0 6.449-1 9.041-2.717 3.21-2.127 7.444-2.127 10.655 0 2.591 1.717 5.699 2.717 9.041 2.717 4.618 0 8.783-1.911 11.758-4.984 2.784-2.875 7.097-3.654 10.802-2.14 2.417.988 5.123 1.413 7.96 1.113 4.663-.494 8.769-3.007 11.43-6.629 1.92-2.615 1.926-6.175.004-8.788-.077-.104-.155-.208-.234-.31-.31-.401-.617-.802-.895-1.226l-46.401-70.778c-4.151-6.332-13.432-6.332-17.583 0l-45.054 68.724-2.617 3.786c-.011.015-.021.03-.032.045-1.742 2.458-1.757 5.804-.024 8.269 2.651 3.771 6.847 6.401 11.629 6.907z" fill="url(#SVGID_95_)"/><path d="m200.322 316.176c-.218.514-.502 1.005-.841 1.47-2.663 3.625-6.765 6.136-11.431 6.632-2.838.297-5.543-.127-7.958-1.113-3.709-1.513-8.018-.738-10.802 2.142-2.977 3.068-7.141 4.98-11.758 4.98-3.346 0-6.451-.998-9.047-2.717-1.416-.938-3.038-1.458-4.678-1.567l-41.125-41.125 21.791-33.24 9.894-15.092c4.151-6.33 13.434-6.33 17.585 0l46.402 70.777c.278.424.587.829.896 1.228.079.103.157.206.23.309 1.58 2.148 1.859 4.938.842 7.316z" fill="url(#SVGID_96_)"/><path d="m188.551 264.644-38.149-58.19c-3.419-5.215-11.063-5.215-14.482 0l-37.109 56.605-2.156 3.118c-1.824 2.556-2.784 5.769-2.437 9.221.631 6.278 5.696 11.376 11.971 12.04 2.38.252 4.648-.117 6.666-.962 3.033-1.271 6.533-.497 8.832 1.855 2.448 2.504 5.86 4.059 9.64 4.059 2.753 0 5.312-.824 7.447-2.238 2.651-1.757 6.125-1.757 8.776 0 2.134 1.414 4.694 2.238 7.447 2.238 3.78 0 7.192-1.555 9.64-4.059 2.299-2.352 5.799-3.126 8.832-1.855 2.019.846 4.287 1.214 6.666.962 6.275-.664 11.34-5.761 11.971-12.04.361-3.596-.695-6.933-2.67-9.537-.304-.4-.61-.797-.885-1.217z" fill="url(#SVGID_97_)"/><path d="m189.435 265.861c-.303-.4-.609-.797-.884-1.217l-38.149-58.19c-3.419-5.215-11.063-5.215-14.482 0l-37.109 56.605 28.81 28.81c1.178.336 2.42.52 3.706.52 2.753 0 5.312-.824 7.447-2.238 2.651-1.757 6.125-1.757 8.776 0 2.134 1.414 4.694 2.238 7.447 2.238 3.78 0 7.192-1.555 9.64-4.059 2.299-2.352 5.799-3.126 8.832-1.855 2.019.846 4.287 1.214 6.666.962 6.275-.664 11.34-5.761 11.971-12.04.36-3.594-.697-6.932-2.671-9.536z" fill="url(#SVGID_98_)"/></g><path d="m150.402 202.328c-3.419-5.215-11.063-5.215-14.482 0l-37.109 56.605c-1.224 1.77-.856 4.215.875 5.494 1.867 1.38 4.094 2.291 6.503 2.546 2.38.252 4.648-.117 6.667-.963 3.028-1.269 6.525-.513 8.816 1.839 2.449 2.513 5.867 4.075 9.655 4.075 2.753 0 5.312-.824 7.447-2.238 2.649-1.755 6.127-1.755 8.776 0 2.134 1.414 4.694 2.238 7.447 2.238 3.788 0 7.207-1.561 9.655-4.075 2.291-2.352 5.788-3.108 8.816-1.839 2.019.846 4.287 1.214 6.667.963 3.201-.339 6.08-1.836 8.222-4.052.626-.648.699-1.637.203-2.39-.003-.004-.005-.008-.008-.012z" fill="url(#SVGID_99_)"/></g><path d="m510 485.638v-46.295h-510v46.295c0 13.455 10.907 24.362 24.362 24.362h461.276c13.455 0 24.362-10.907 24.362-24.362z" fill="url(#SVGID_100_)"/><path d="m408.457 29.201c-7.274-.276-14.298.614-20.906 2.494-5.379 1.53-6.8 8.533-2.424 12.016 15.403 12.262 25.279 31.166 25.279 52.384 0 21.221-9.88 40.128-25.286 52.389-4.345 3.458-2.995 10.459 2.345 11.986 5.844 1.671 12.014 2.568 18.395 2.568 37.995 0 68.597-31.653 66.874-70.028-1.553-34.549-29.719-62.495-64.277-63.809z" fill="url(#SVGID_101_)"/></g></g></svg>