

<svg id="Capa_1" enable-background="new 0 0 510 510" height="512" viewBox="0 0 510 510" width="512" xmlns="http://www.w3.org/2000/svg" xmlns:xlink="http://www.w3.org/1999/xlink"><linearGradient id="lg1"><stop offset="0" stop-color="#fff5d9"/><stop offset="1" stop-color="#ffce47"/></linearGradient><linearGradient id="SVGID_1_" gradientUnits="userSpaceOnUse" x1="255" x2="255" xlink:href="#lg1" y1="34.721" y2="483.763"/><linearGradient id="SVGID_2_" gradientUnits="userSpaceOnUse" x1="38.917" x2="21.417" y1="470.585" y2="434.835"><stop offset="0" stop-color="#6e566e" stop-opacity="0"/><stop offset=".2944" stop-color="#674d66" stop-opacity=".294"/><stop offset="1" stop-color="#593b56"/></linearGradient><linearGradient id="lg2"><stop offset="0" stop-color="#ff9356" stop-opacity="0"/><stop offset="1" stop-color="#ff755c"/></linearGradient><linearGradient id="SVGID_3_" gradientUnits="userSpaceOnUse" x1="322" x2="322" xlink:href="#lg2" y1="383.059" y2="240.974"/><linearGradient id="SVGID_4_" gradientUnits="userSpaceOnUse" x1="227.537" x2="278.667" xlink:href="#lg1" y1="300.513" y2="403.907"/><linearGradient id="SVGID_5_" gradientUnits="userSpaceOnUse" x1="298.686" x2="235.962" xlink:href="#lg2" y1="323.207" y2="364.064"/><linearGradient id="lg3"><stop offset="0" stop-color="#d3145a"/><stop offset="1" stop-color="#9d005d"/></linearGradient><linearGradient id="SVGID_6_" gradientUnits="userSpaceOnUse" x1="369.658" x2="364.324" xlink:href="#lg3" y1="339.263" y2="379.93"/><linearGradient id="SVGID_7_" gradientUnits="userSpaceOnUse" x1="148.684" x2="156.832" xlink:href="#lg3" y1="312.041" y2="370.433"/><linearGradient id="lg4"><stop offset="0" stop-color="#ffce47"/><stop offset="1" stop-color="#f6921e"/></linearGradient><linearGradient id="SVGID_8_" gradientUnits="userSpaceOnUse" x1="255" x2="255" xlink:href="#lg4" y1="391.308" y2="486.986"/><linearGradient id="lg5"><stop offset="0" stop-color="#ff755c" stop-opacity="0"/><stop offset=".147" stop-color="#f5705c" stop-opacity=".147"/><stop offset=".3941" stop-color="#db625d" stop-opacity=".394"/><stop offset=".7086" stop-color="#b14c5f" stop-opacity=".709"/><stop offset="1" stop-color="#843561"/></linearGradient><linearGradient id="SVGID_9_" gradientUnits="userSpaceOnUse" x1="269.142" x2="231.719" xlink:href="#lg5" y1="427.149" y2="352.304"/><linearGradient id="SVGID_10_" gradientUnits="userSpaceOnUse" x1="331.292" x2="331.292" y1="413.807" y2="480.414"><stop offset="0" stop-color="#c6b198"/><stop offset="1" stop-color="#988575"/></linearGradient><linearGradient id="SVGID_11_" gradientUnits="userSpaceOnUse" x1="435.315" x2="435.315" xlink:href="#lg4" y1="417.569" y2="481.571"/><linearGradient id="lg6"><stop offset="0" stop-color="#ff755c" stop-opacity="0"/><stop offset=".3171" stop-color="#db625d" stop-opacity=".317"/><stop offset="1" stop-color="#843561"/></linearGradient><linearGradient id="SVGID_12_" gradientUnits="userSpaceOnUse" x1="478.175" x2="435.186" xlink:href="#lg6" y1="471.063" y2="456.896"/><linearGradient id="SVGID_13_" gradientUnits="userSpaceOnUse" x1="178.509" x2="227.107" y1="356.832" y2="405.431"><stop offset="0" stop-color="#ffce47"/><stop offset="1" stop-color="#ff9356"/></linearGradient><linearGradient id="SVGID_14_" gradientUnits="userSpaceOnUse" x1="197.254" x2="228.522" xlink:href="#lg2" y1="363.215" y2="356.857"/><linearGradient id="SVGID_15_" gradientUnits="userSpaceOnUse" x1="203.589" x2="203.589" xlink:href="#lg2" y1="393.288" y2="407.783"/><linearGradient id="lg7"><stop offset="0" stop-color="#c59b6d"/><stop offset="1" stop-color="#8b6239"/></linearGradient><linearGradient id="SVGID_16_" gradientUnits="userSpaceOnUse" x1="166.249" x2="200.721" xlink:href="#lg7" y1="337.951" y2="337.951"/><linearGradient id="lg8"><stop offset="0" stop-color="#ff7044"/><stop offset="1" stop-color="#f82814"/></linearGradient><linearGradient id="SVGID_17_" gradientUnits="userSpaceOnUse" x1="147.136" x2="225.589" xlink:href="#lg8" y1="240.717" y2="307.848"/><linearGradient id="SVGID_18_" gradientUnits="userSpaceOnUse" x1="370.286" x2="394.537" xlink:href="#lg7" y1="359.571" y2="359.571"/><linearGradient id="SVGID_19_" gradientUnits="userSpaceOnUse" x1="356.84" x2="412.031" xlink:href="#lg4" y1="291.169" y2="338.394"/><linearGradient id="lg9"><stop offset="0" stop-color="#bada00"/><stop offset=".2187" stop-color="#b6d600"/><stop offset=".4501" stop-color="#acc900"/><stop offset=".6873" stop-color="#9ab400"/><stop offset=".9271" stop-color="#829700"/><stop offset="1" stop-color="#798c00"/></linearGradient><linearGradient id="SVGID_20_" gradientUnits="userSpaceOnUse" x1="197.158" x2="222.308" xlink:href="#lg9" y1="396.394" y2="421.545"/><linearGradient id="SVGID_21_" gradientUnits="userSpaceOnUse" x1="84.22" x2="192.664" xlink:href="#lg7" y1="317.671" y2="352.499"/><linearGradient id="lg10"><stop offset="0" stop-color="#754c24" stop-opacity="0"/><stop offset="1" stop-color="#754c24"/></linearGradient><linearGradient id="SVGID_22_" gradientUnits="userSpaceOnUse" x1="146.848" x2="81.149" xlink:href="#lg10" y1="331.588" y2="312.986"/><linearGradient id="SVGID_23_" gradientUnits="userSpaceOnUse" x1="155.243" x2="128.556" xlink:href="#lg10" y1="288.396" y2="216.09"/><linearGradient id="SVGID_24_" gradientUnits="userSpaceOnUse" x1="159.81" x2="132.897" xlink:href="#lg7" y1="304.874" y2="304.874"/><linearGradient id="SVGID_25_" gradientUnits="userSpaceOnUse" x1="53.077" x2="68.131" xlink:href="#lg4" y1="203.601" y2="266.555"/><linearGradient id="SVGID_26_" gradientUnits="userSpaceOnUse" x1="181.321" x2="229.062" xlink:href="#lg4" y1="119.45" y2="167.191"/><linearGradient id="SVGID_27_" gradientUnits="userSpaceOnUse" x1="246.75" x2="155.74" xlink:href="#lg4" y1="135.169" y2="254.919"/><linearGradient id="SVGID_28_" gradientUnits="userSpaceOnUse" x1="81.035" x2="188.982" xlink:href="#lg4" y1="133.858" y2="241.806"/><linearGradient id="SVGID_29_" gradientUnits="userSpaceOnUse" x1="132.106" x2="88.814" xlink:href="#lg7" y1="363.439" y2="363.439"/><linearGradient id="SVGID_30_" gradientUnits="userSpaceOnUse" x1="139.762" x2="97.81" xlink:href="#lg10" y1="397.115" y2="352.392"/><linearGradient id="SVGID_31_" gradientUnits="userSpaceOnUse" x1="439.287" x2="487.386" xlink:href="#lg7" y1="408.847" y2="408.847"/><linearGradient id="SVGID_32_" gradientUnits="userSpaceOnUse" x1="451.039" x2="431.335" xlink:href="#lg7" y1="421.489" y2="421.489"/><linearGradient id="SVGID_33_" gradientUnits="userSpaceOnUse" x1="478.16" x2="445.26" xlink:href="#lg7" y1="402.167" y2="402.167"/><linearGradient id="SVGID_34_" gradientUnits="userSpaceOnUse" x1="451.642" x2="451.642" xlink:href="#lg10" y1="414.659" y2="385.704"/><linearGradient id="SVGID_35_" gradientUnits="userSpaceOnUse" x1="441.752" x2="470.029" y1="355.778" y2="401.661"><stop offset="0" stop-color="#e4e08e"/><stop offset="1" stop-color="#6fa953"/></linearGradient><linearGradient id="SVGID_36_" gradientUnits="userSpaceOnUse" x1="459.458" x2="459.458" xlink:href="#lg9" y1="380.757" y2="337.325"/><linearGradient id="SVGID_37_" gradientUnits="userSpaceOnUse" x1="438.385" x2="482.672" xlink:href="#lg9" y1="309.761" y2="354.047"/><linearGradient id="lg11"><stop offset="0" stop-color="#43765a" stop-opacity="0"/><stop offset="1" stop-color="#43765a"/></linearGradient><linearGradient id="SVGID_38_" gradientUnits="userSpaceOnUse" x1="460.255" x2="460.255" xlink:href="#lg11" y1="332.843" y2="294.101"/><linearGradient id="SVGID_39_" gradientUnits="userSpaceOnUse" x1="437.304" x2="480.42" xlink:href="#lg9" y1="269.76" y2="312.875"/><linearGradient id="SVGID_40_" gradientUnits="userSpaceOnUse" x1="391.493" x2="450.032" xlink:href="#lg7" y1="453.421" y2="472.222"/><linearGradient id="SVGID_41_" gradientUnits="userSpaceOnUse" x1="429.519" x2="398.224" xlink:href="#lg10" y1="461.469" y2="452.608"/><linearGradient id="SVGID_42_" gradientUnits="userSpaceOnUse" x1="441.896" x2="423.144" xlink:href="#lg10" y1="453.558" y2="402.753"/><linearGradient id="SVGID_43_" gradientUnits="userSpaceOnUse" x1="445.105" x2="426.195" xlink:href="#lg7" y1="465.137" y2="465.137"/><linearGradient id="SVGID_44_" gradientUnits="userSpaceOnUse" x1="423.686" x2="399.936" xlink:href="#lg7" y1="497.729" y2="497.729"/><linearGradient id="SVGID_45_" gradientTransform="matrix(-1 0 0 1 845.443 0)" gradientUnits="userSpaceOnUse" x1="370.846" x2="381.423" xlink:href="#lg8" y1="396.979" y2="441.214"/><linearGradient id="SVGID_46_" gradientUnits="userSpaceOnUse" x1="354.11" x2="376.862" xlink:href="#lg8" y1="332.807" y2="355.558"/><linearGradient id="SVGID_47_" gradientTransform="matrix(-1 0 0 1 845.443 0)" gradientUnits="userSpaceOnUse" x1="506.929" x2="442.981" xlink:href="#lg8" y1="348.896" y2="433.038"/><linearGradient id="SVGID_48_" gradientUnits="userSpaceOnUse" x1="397.673" x2="473.521" xlink:href="#lg8" y1="347.975" y2="423.824"/><linearGradient id="SVGID_49_" gradientUnits="userSpaceOnUse" x1="118.459" x2="178.741" y1="413.862" y2="474.144"><stop offset="0" stop-color="#ff4181"/><stop offset="1" stop-color="#843561"/></linearGradient><linearGradient id="lg12"><stop offset="0" stop-color="#843561" stop-opacity="0"/><stop offset=".2156" stop-color="#7a345e" stop-opacity=".216"/><stop offset=".5776" stop-color="#603257" stop-opacity=".578"/><stop offset="1" stop-color="#3a2f4d"/></linearGradient><linearGradient id="SVGID_50_" gradientUnits="userSpaceOnUse" x1="141.711" x2="180.496" xlink:href="#lg12" y1="421.779" y2="413.893"/><linearGradient id="SVGID_51_" gradientUnits="userSpaceOnUse" x1="149.569" x2="149.569" xlink:href="#lg12" y1="459.082" y2="477.062"/><linearGradient id="SVGID_52_" gradientUnits="userSpaceOnUse" x1="78.292" x2="126.891" xlink:href="#lg8" y1="461.261" y2="509.859"/><linearGradient id="SVGID_53_" gradientUnits="userSpaceOnUse" x1="97.037" x2="128.305" xlink:href="#lg6" y1="467.644" y2="461.286"/><linearGradient id="SVGID_54_" gradientUnits="userSpaceOnUse" x1="103.372" x2="103.372" xlink:href="#lg6" y1="497.717" y2="512.212"/><linearGradient id="SVGID_55_" gradientUnits="userSpaceOnUse" x1="57.483" x2="117.585" xlink:href="#lg7" y1="469.791" y2="469.791"/><linearGradient id="SVGID_56_" gradientUnits="userSpaceOnUse" x1="72.168" x2="47.546" xlink:href="#lg7" y1="485.587" y2="485.587"/><linearGradient id="SVGID_57_" gradientUnits="userSpaceOnUse" x1="106.057" x2="64.946" xlink:href="#lg7" y1="461.444" y2="461.444"/><linearGradient id="SVGID_58_" gradientUnits="userSpaceOnUse" x1="72.921" x2="72.921" xlink:href="#lg10" y1="477.052" y2="440.872"/><linearGradient id="SVGID_59_" gradientUnits="userSpaceOnUse" x1="60.563" x2="95.897" xlink:href="#lg9" y1="403.478" y2="460.811"/><linearGradient id="SVGID_60_" gradientUnits="userSpaceOnUse" x1="82.688" x2="82.688" xlink:href="#lg11" y1="434.691" y2="380.421"/><linearGradient id="SVGID_61_" gradientUnits="userSpaceOnUse" x1="56.356" x2="111.694" xlink:href="#lg9" y1="345.978" y2="401.315"/><linearGradient id="SVGID_62_" gradientUnits="userSpaceOnUse" x1="83.683" x2="83.683" xlink:href="#lg11" y1="374.82" y2="326.411"/><linearGradient id="SVGID_63_" gradientUnits="userSpaceOnUse" x1="55.006" x2="108.88" xlink:href="#lg9" y1="295.996" y2="349.87"/><linearGradient id="SVGID_64_" gradientUnits="userSpaceOnUse" x1="381.107" x2="465.992" y1="80.819" y2="165.704"><stop offset="0" stop-color="#ffd945"/><stop offset=".3043" stop-color="#ffcd3e"/><stop offset=".8558" stop-color="#ffad2b"/><stop offset="1" stop-color="#ffa325"/></linearGradient><linearGradient id="SVGID_65_" gradientUnits="userSpaceOnUse" x1="347.16" x2="361.276" xlink:href="#lg4" y1="248.723" y2="262.839"/><linearGradient id="SVGID_66_" gradientUnits="userSpaceOnUse" x1="353.829" x2="347.829" xlink:href="#lg5" y1="266.091" y2="231.841"/><linearGradient id="SVGID_67_" gradientTransform="matrix(.252 .968 -.968 .252 561.619 31.41)" gradientUnits="userSpaceOnUse" x1="328.235" x2="342.351" xlink:href="#lg4" y1="394.416" y2="408.532"/><linearGradient id="SVGID_68_" gradientTransform="matrix(.252 .968 -.968 .252 561.619 31.41)" gradientUnits="userSpaceOnUse" x1="334.904" x2="328.904" xlink:href="#lg5" y1="411.784" y2="377.534"/><linearGradient id="SVGID_69_" gradientTransform="matrix(-.948 -.32 .32 -.948 522.95 820.308)" gradientUnits="userSpaceOnUse" x1="304.516" x2="318.631" xlink:href="#lg8" y1="246.135" y2="260.25"/><linearGradient id="SVGID_70_" gradientTransform="matrix(-.948 -.32 .32 -.948 522.95 820.308)" gradientUnits="userSpaceOnUse" x1="311.185" x2="305.185" xlink:href="#lg5" y1="263.502" y2="229.252"/><linearGradient id="SVGID_71_" gradientTransform="matrix(-.948 -.32 .32 -.948 522.95 820.308)" gradientUnits="userSpaceOnUse" x1="257.541" x2="271.656" y1="604.428" y2="618.544"><stop offset="0" stop-color="#ff755c"/><stop offset="1" stop-color="#ff4181"/></linearGradient><linearGradient id="SVGID_72_" gradientTransform="matrix(-.948 -.32 .32 -.948 522.95 820.308)" gradientUnits="userSpaceOnUse" x1="264.21" x2="258.21" xlink:href="#lg5" y1="621.796" y2="587.546"/><g><path d="m485.638 510h-461.276c-13.455 0-24.362-10.907-24.362-24.362v-461.276c0-13.455 10.907-24.362 24.362-24.362h461.275c13.456 0 24.363 10.907 24.363 24.362v461.275c0 13.456-10.907 24.363-24.362 24.363z" fill="url(#SVGID_1_)"/><g><path d="m6.333 437.906 33.175 33.174v-33.174z" fill="url(#SVGID_2_)"/></g><g><g><path d="m187.614 367.153 92.111-80.51c25.886-22.626 57.605-22.71 83.542-.223l93.117 80.733z" fill="url(#SVGID_3_)"/><g><path d="m305.331 301.014h-26.496c-8.378 0-16.414-4.276-22.338-11.886-12.337-15.849-32.339-15.849-44.676 0l-60.738 78.026h218.818l-42.232-54.254c-5.925-7.611-13.96-11.886-22.338-11.886z" fill="url(#SVGID_4_)"/><path d="m327.669 312.9c-5.924-7.611-13.96-11.886-22.338-11.886h-26.496c-8.292 0-16.344-4.068-22.162-11.659-7.237-9.443-17.17-13.356-26.646-11.759l35.672 45.826c6.252 8.032 14.732 12.544 23.575 12.544 8.842 0 17.322 4.512 23.575 12.544l14.512 18.642h42.542z" fill="url(#SVGID_5_)"/></g></g><path d="m252 367.153s88.761-53.617 228-32.791v32.791z" fill="url(#SVGID_6_)"/><path d="m312.748 367.153s-93.284-71.869-244.636-65.355c-38.191 1.644-68.112 30.545-68.112 65.355z" fill="url(#SVGID_7_)"/></g><path d="m510 485.638v-118.485h-510v118.484c0 13.456 10.907 24.363 24.362 24.363h461.275c13.456 0 24.363-10.907 24.363-24.362z" fill="url(#SVGID_8_)"/><path d="m239.367 367.153c-44.319 0-132.113 54.415-199.656 142.846h445.927c13.455.001 24.362-10.906 24.362-24.361v-118.485z" fill="url(#SVGID_9_)"/><path d="m506 367.153h-102.045c-101.93 0-196.163 54.415-247.372 142.846h204.046c13.455.001 145.371-10.906 145.371-24.361z" fill="url(#SVGID_10_)"/><path d="m510 372.74c-35.193 15.977-130.926 65.381-149.371 137.26h125.012c13.453-.002 24.359-10.908 24.359-24.362z" fill="url(#SVGID_11_)"/><path d="m439.29 419.912v90.088h25.649c3.686 0 15.061-8.059 15.061-18v-72.088z" fill="url(#SVGID_12_)"/><g><g><g><path d="m224.335 356.031c-2.685 0-5.27.429-7.692 1.219-2.59-8.45-10.453-14.595-19.752-14.595-11.408 0-20.657 9.248-20.657 20.657 0 1.648.194 3.251.559 4.788-9.736.686-17.422 8.801-17.422 18.712 0 10.361 8.399 18.76 18.76 18.76h46.204c13.68 0 24.77-11.09 24.77-24.77s-11.09-24.771-24.77-24.771z" fill="url(#SVGID_13_)"/><path d="m199.564 380.802c0 1.005.06 1.995.177 2.968-.932.131-1.884.198-2.852.198-11.409 0-20.655-9.249-20.655-20.658 0-11.406 9.247-20.655 20.655-20.655 9.299 0 17.164 6.145 19.753 14.596-9.913 3.233-17.078 12.555-17.078 23.551z" fill="url(#SVGID_14_)"/><path d="m159.516 389.146c1.15 9.259 9.045 16.425 18.615 16.425h46.204c10.752 0 19.902-6.851 23.327-16.425z" fill="url(#SVGID_15_)"/></g></g></g><g><path d="m210.57 404.532c-9.054-2.392-15.27-10.719-15.27-20.084v-124.16h-21.86v124.669c0 8.946-5.686 16.965-14.187 19.751-1.131.371-1.793.841-1.793 1.437v1.639c0 2.546 1.361 4.715 3.223 5.154 7.225 1.702 15.598 2.676 24.527 2.676s17.303-.974 24.527-2.676c1.861-.439 3.223-2.608 3.223-5.154v-1.639c.001-.695-.897-1.218-2.39-1.613z" fill="url(#SVGID_16_)"/><path d="m230.706 287.581c0 25.126-20.369 45.495-45.495 45.495s-45.495-20.369-45.495-45.495 20.369-82.287 45.495-82.287 45.495 57.161 45.495 82.287z" fill="url(#SVGID_17_)"/></g><g><path d="m401.465 406.409c-6.37-1.683-10.742-7.541-10.742-14.129v-87.344h-15.378v87.702c0 6.293-4 11.935-9.98 13.894-.796.261-1.261.592-1.261 1.011v1.153c0 1.791.958 3.317 2.267 3.626 5.082 1.197 10.973 1.882 17.254 1.882s12.172-.685 17.254-1.882c1.309-.309 2.267-1.834 2.267-3.626v-1.153c.001-.488-.631-.856-1.681-1.134z" fill="url(#SVGID_18_)"/><path d="m415.63 324.137c0 17.676-14.329 32.005-32.005 32.005s-32.005-14.329-32.005-32.005 14.329-57.887 32.005-57.887 32.005 40.211 32.005 57.887z" fill="url(#SVGID_19_)"/></g><path d="m236.667 412.156c0 15.602-56.499 15.602-56.499 0s12.648-28.25 28.25-28.25 28.249 12.648 28.249 28.25z" fill="url(#SVGID_20_)"/><g fill="#fff"><path d="m139.248 72.491h-11.748c0-14.706-11.922-26.627-26.627-26.627h-52.52c-14.706 0-26.627 11.922-26.627 26.627s11.922 26.627 26.627 26.627h11.747c0 14.706 11.922 26.627 26.627 26.627h52.52c14.706 0 26.627-11.922 26.627-26.627.002-14.705-11.92-26.627-26.626-26.627z"/><path d="m184.073 52.03h-33.178c-9.29 0-16.821-7.531-16.821-16.821 0-9.29 7.531-16.821 16.821-16.821h33.178c9.29 0 16.821 7.531 16.821 16.821 0 9.29-7.531 16.821-16.821 16.821z"/></g><g><g><g><path d="m190.368 401.599c-21.056-5.564-35.511-67.3-35.511-89.078v-13.549c0-5.781 2.296-11.324 6.384-15.412l23.971-23.971-9.524-9.524-20.831 20.831v-37.206h-50.835v51.939l-35.563-35.563-9.524 9.524 38.703 38.703c4.088 4.088 6.384 9.631 6.384 15.412 0 20.803-13.222 81.826-32.991 88.303-2.631.862-4.169 1.956-4.169 3.341v3.812c0 5.922 3.165 10.966 7.494 11.986 16.801 3.958 36.274 6.223 57.038 6.223 20.765 0 40.238-2.265 57.038-6.223 4.329-1.02 7.494-6.064 7.494-11.986v-3.812c.001-1.615-2.087-2.833-5.558-3.75z" fill="url(#SVGID_21_)"/><path d="m190.368 401.599c-21.056-5.564-35.511-67.3-35.511-89.078v-13.549c0-5.781 2.296-11.324 6.384-15.412l23.971-23.971-9.524-9.524-20.831 20.831v-37.206h-36.999v73.61c0 6.766 2.391 13.315 6.752 18.489 4.36 5.174 6.752 11.723 6.752 18.489v83.092c20.777.002 40.261-2.263 57.071-6.223 4.329-1.02 7.494-6.064 7.494-11.986v-3.812c0-1.615-2.088-2.833-5.559-3.75z" fill="url(#SVGID_22_)"/><path d="m154.856 270.895v-37.206h-50.835v25.93l50.835 50.835v-11.482c0-5.781 2.296-11.325 6.384-15.412l23.971-23.971-9.524-9.524z" fill="url(#SVGID_23_)"/><path d="m150.351 329.213c-1.422-14.842-2.08-32.311-.796-45.83.493-5.19-4.244-9.334-9.326-8.169-3.651.837-6.164 4.189-5.93 7.927.817 13.051 3.397 31.561 6.055 47.384.481 2.863 3.272 4.726 6.102 4.078 2.468-.566 4.136-2.87 3.895-5.39z" fill="url(#SVGID_24_)"/><g><circle cx="55.513" cy="213.786" fill="url(#SVGID_25_)" r="52.82"/><circle cx="199.348" cy="137.477" fill="url(#SVGID_26_)" r="38.399"/><circle cx="195.927" cy="202.042" fill="url(#SVGID_27_)" r="64.565"/><circle cx="121.795" cy="174.619" fill="url(#SVGID_28_)" r="86.823"/></g></g></g><path d="m109.374 338.183c-1.928 14.785-5.189 31.959-9.459 44.85-1.639 4.949 2.053 10.046 7.266 10.046 3.745 0 6.943-2.706 7.55-6.402 2.119-12.904 3.738-31.522 4.68-47.539.17-2.898-2.134-5.337-5.037-5.337-2.532-.002-4.672 1.871-5 4.382z" fill="url(#SVGID_29_)"/><path d="m190.368 401.599c-10.8-2.854-19.862-20.485-26.128-39.923-1.277-3.96-4.94-6.661-9.101-6.661-8.13 0-14.721 6.591-14.721 14.721v6.272c0 5.275-4.276 9.551-9.551 9.551-4.891 0-8.998 3.699-9.497 8.565-1.759 17.164-8.574 27.298-13.121 32.285 7.476.629 15.215.961 23.145.961 20.765 0 40.238-2.265 57.038-6.223 4.329-1.02 7.494-6.064 7.494-11.986v-3.812c.001-1.615-2.087-2.833-5.558-3.75z" fill="url(#SVGID_30_)"/></g><g><g><path d="m437.363 376.668h28.557v64.359h-28.557z" fill="url(#SVGID_31_)"/><path d="m449.834 441.027h-9.04v-34.555c0-2.496 2.024-4.52 4.52-4.52 2.496 0 4.52 2.024 4.52 4.52z" fill="url(#SVGID_32_)"/><path d="m453.751 398.537c2.164 0 3.918 1.754 3.918 3.918v21.295c0 2.164 1.754 3.918 3.918 3.918h.416c2.164 0 3.918-1.754 3.918-3.918v-47.081h-16.086v17.951c-.001 2.163 1.753 3.917 3.916 3.917z" fill="url(#SVGID_33_)"/></g><path d="m465.92 376.671v45.413l-28.369-28.369-.187 2.453v-19.497z" fill="url(#SVGID_34_)"/><g><path d="m505.685 360.681-45.422-69.284c-4.071-6.209-13.173-6.209-17.244 0l-44.184 67.397-2.567 3.712c-2.172 3.043-3.315 6.869-2.902 10.979.751 7.475 6.782 13.544 14.253 14.335 2.833.3 5.534-.139 7.937-1.146 3.612-1.513 7.779-.592 10.516 2.209 2.914 2.981 6.977 4.832 11.477 4.832 3.277 0 6.325-.981 8.866-2.665 3.157-2.092 7.292-2.092 10.449 0 2.541 1.684 5.589 2.665 8.866 2.665 4.501 0 8.563-1.851 11.477-4.832 2.737-2.8 6.904-3.722 10.516-2.209 2.404 1.007 5.104 1.446 7.937 1.146 7.471-.791 13.502-6.86 14.253-14.335.43-4.281-.828-8.255-3.179-11.355-.357-.477-.721-.95-1.049-1.449z" fill="url(#SVGID_35_)"/><path d="m509.916 373.482c-.753 7.48-6.78 13.549-14.254 14.338-2.833.301-5.533-.139-7.938-1.145-3.61-1.513-7.781-.591-10.517 2.206-2.911 2.983-6.973 4.834-11.475 4.834-3.279 0-6.322-.982-8.866-2.664-.253-.169-.518-.325-.783-.47l-47.167-47.167 34.101-52.019c4.074-6.208 13.175-6.208 17.249 0l45.419 69.286c.325.5.693.97 1.055 1.447 2.351 3.104 3.604 7.075 3.176 11.354z" fill="url(#SVGID_36_)"/><path d="m495.942 323.867-37.233-56.793c-3.337-5.09-10.798-5.09-14.135 0l-36.218 55.246-2.104 3.043c-1.78 2.494-2.717 5.631-2.379 9 .616 6.128 5.559 11.103 11.683 11.751 2.322.246 4.536-.114 6.506-.939 2.961-1.24 6.376-.485 8.62 1.81 2.389 2.444 5.719 3.961 9.408 3.961 2.687 0 5.185-.804 7.268-2.184 2.588-1.715 5.978-1.715 8.565 0 2.083 1.38 4.581 2.184 7.268 2.184 3.689 0 7.019-1.517 9.408-3.961 2.244-2.295 5.66-3.051 8.62-1.81 1.97.825 4.184 1.185 6.506.939 6.124-.648 11.068-5.623 11.683-11.751.353-3.509-.679-6.766-2.606-9.308-.293-.391-.591-.778-.86-1.188z" fill="url(#SVGID_37_)"/><path d="m499.411 334.362c-.615 6.129-5.563 11.102-11.686 11.753-2.32.247-4.532-.115-6.503-.94-2.959-1.242-6.377-.482-8.625 1.808-1.278 1.308-2.821 2.351-4.544 3.032l-47.022-47.028 23.541-35.909c3.339-5.093 10.8-5.093 14.139 0l37.229 56.792c.271.41.567.796.862 1.187 1.928 2.536 2.959 5.797 2.609 9.305z" fill="url(#SVGID_38_)"/><path d="m488.13 284.798-30.667-46.778c-2.748-4.192-8.894-4.192-11.642 0l-29.832 45.504-1.733 2.507c-1.466 2.054-2.238 4.638-1.959 7.413.507 5.047 4.579 9.145 9.623 9.679 1.913.202 3.736-.094 5.359-.774 2.438-1.022 5.252-.399 7.1 1.491 1.968 2.013 4.71 3.263 7.749 3.263 2.213 0 4.27-.662 5.986-1.799 2.131-1.412 4.923-1.412 7.055 0 1.716 1.137 3.773 1.799 5.986 1.799 3.039 0 5.781-1.25 7.749-3.263 1.848-1.891 4.662-2.513 7.1-1.491 1.623.68 3.446.976 5.359.774 5.044-.534 9.116-4.632 9.623-9.679.29-2.89-.559-5.573-2.146-7.667-.243-.323-.489-.642-.71-.979z" fill="url(#SVGID_39_)"/></g></g><g><g><path d="m441.62 470.509c0 8.42 3.07 25.32 8.3 39.49h-51.65c.44-1.27.86-2.56 1.26-3.86 4.06-13.11 6.38-27.49 6.38-34.8 0-4.06-1.62-7.95-4.49-10.83l-27.19-27.19 6.69-6.69 24.99 24.98v-36.49h35.71v26.14l14.64-14.63 6.69 6.69-16.84 16.84c-2.87 2.87-4.49 6.77-4.49 10.83z" fill="url(#SVGID_40_)"/><path d="m441.62 470.509c0 8.42 3.07 25.32 8.3 39.49h-24.8v-17.18c0-2.37-.42-4.71-1.22-6.91-.81-2.2-2-4.26-3.53-6.08-3.06-3.63-4.74-8.23-4.74-12.99v-51.72h25.99v26.14l14.64-14.63 6.69 6.69-16.84 16.84c-2.87 2.87-4.49 6.77-4.49 10.83z" fill="url(#SVGID_41_)"/><path d="m441.624 441.262v-26.143h-35.719v18.219l35.719 35.719v-8.068c0-4.062 1.613-7.957 4.486-10.829l16.843-16.843-6.692-6.692z" fill="url(#SVGID_42_)"/><path d="m438.459 482.238c-.999-10.429-1.461-22.703-.559-32.202.346-3.647-2.982-6.558-6.553-5.74-2.565.588-4.331 2.943-4.166 5.57.574 9.17 2.387 22.176 4.255 33.294.338 2.011 2.299 3.321 4.287 2.865 1.733-.397 2.905-2.016 2.736-3.787z" fill="url(#SVGID_43_)"/><path d="m416.72 489.209c-.39 6.7-.95 14.03-1.65 20.79h-9.26c1.65-6.98 2.96-14.59 3.86-21.46.11-.88.55-1.65 1.17-2.2.63-.55 1.45-.88 2.34-.88 2.04 0 3.66 1.72 3.54 3.75z" fill="url(#SVGID_44_)"/></g><g><g><g><circle cx="472.886" cy="404.136" fill="url(#SVGID_45_)" r="37.114"/><circle cx="371.821" cy="350.518" fill="url(#SVGID_46_)" r="26.981"/><circle cx="374.225" cy="395.884" fill="url(#SVGID_47_)" r="45.366"/><circle cx="426.313" cy="376.615" fill="url(#SVGID_48_)" r="61.006"/></g></g></g></g><g><g><g><path d="m175.302 412.867c-3.331 0-6.537.532-9.541 1.513-3.213-10.482-12.966-18.104-24.501-18.104-14.151 0-25.623 11.472-25.623 25.623 0 2.045.241 4.033.693 5.939-12.077.851-21.61 10.917-21.61 23.21 0 12.852 10.418 23.27 23.27 23.27h57.312c16.969 0 30.725-13.756 30.725-30.725s-13.755-30.726-30.725-30.726z" fill="url(#SVGID_49_)"/><path d="m144.576 443.594c0 1.246.075 2.475.22 3.682-1.156.163-2.337.246-3.537.246-14.151 0-25.621-11.473-25.621-25.624 0-14.149 11.47-25.621 25.621-25.621 11.535 0 21.29 7.623 24.502 18.105-12.298 4.009-21.185 15.572-21.185 29.212z" fill="url(#SVGID_50_)"/><path d="m94.9 453.945c1.426 11.485 11.22 20.373 23.09 20.373h57.312c13.337 0 24.687-8.498 28.936-20.373z" fill="url(#SVGID_51_)"/></g></g></g><g><g><g><path d="m124.118 460.459c-2.685 0-5.27.429-7.692 1.219-2.59-8.45-10.453-14.595-19.752-14.595-11.408 0-20.657 9.248-20.657 20.657 0 1.648.194 3.251.559 4.788-9.736.686-17.422 8.801-17.422 18.712 0 10.361 8.399 18.76 18.76 18.76h46.204c13.68 0 24.77-11.09 24.77-24.77 0-13.681-11.09-24.771-24.77-24.771z" fill="url(#SVGID_52_)"/><path d="m99.347 485.231c0 1.005.06 1.995.177 2.968-.932.131-1.884.198-2.852.198-11.409 0-20.655-9.249-20.655-20.658 0-11.406 9.247-20.655 20.655-20.655 9.299 0 17.164 6.145 19.753 14.596-9.913 3.233-17.078 12.555-17.078 23.551z" fill="url(#SVGID_53_)"/><path d="m59.299 493.575c1.15 9.259 9.045 16.425 18.615 16.425h46.204c10.752 0 19.902-6.851 23.327-16.425z" fill="url(#SVGID_54_)"/></g></g></g><g><g><path d="m55.08 429.581h35.683v80.419h-35.683z" fill="url(#SVGID_55_)"/><path d="m70.662 510h-11.297v-43.177c0-3.119 2.529-5.648 5.648-5.648 3.119 0 5.648 2.529 5.648 5.648v43.177z" fill="url(#SVGID_56_)"/><path d="m75.557 456.907c2.703 0 4.895 2.192 4.895 4.895v26.609c0 2.703 2.192 4.895 4.895 4.895h.52c2.703 0 4.895-2.192 4.895-4.895v-58.83h-20.1v22.431c0 2.703 2.191 4.895 4.895 4.895z" fill="url(#SVGID_57_)"/></g><path d="m90.762 429.585v56.745l-35.448-35.448-.234 3.065v-24.362z" fill="url(#SVGID_58_)"/><g><path d="m140.451 409.605-56.757-86.574c-5.087-7.759-16.46-7.759-21.547 0l-55.21 84.215-3.207 4.639c-2.714 3.802-4.142 8.583-3.626 13.719.938 9.341 8.474 16.924 17.81 17.912 3.54.375 6.914-.174 9.918-1.432 4.513-1.891 9.72-.739 13.14 2.76 3.641 3.725 8.718 6.038 14.341 6.038 4.095 0 7.903-1.226 11.079-3.33 3.945-2.614 9.112-2.614 13.057 0 3.176 2.104 6.983 3.33 11.079 3.33 5.624 0 10.7-2.313 14.341-6.038 3.42-3.499 8.627-4.65 13.14-2.76 3.004 1.258 6.378 1.807 9.918 1.432 9.336-.988 16.871-8.572 17.81-17.912.537-5.349-1.035-10.315-3.972-14.189-.45-.595-.905-1.186-1.314-1.81z" fill="url(#SVGID_59_)"/><path d="m145.737 425.601c-.941 9.346-8.472 16.93-17.811 17.916-3.539.377-6.913-.173-9.918-1.431-4.511-1.89-9.722-.738-13.141 2.756-3.637 3.728-8.713 6.04-14.339 6.04-4.097 0-7.9-1.228-11.078-3.329-.316-.211-.648-.407-.979-.587l-58.937-58.937 42.61-64.999c5.091-7.757 16.463-7.757 21.553 0l56.753 86.575c.407.625.866 1.213 1.318 1.808 2.938 3.878 4.504 8.841 3.969 14.188z" fill="url(#SVGID_60_)"/><path d="m128.276 363.605-46.524-70.966c-4.17-6.36-13.492-6.36-17.662 0l-45.256 69.032-2.629 3.802c-2.225 3.117-3.395 7.036-2.972 11.246.769 7.657 6.946 13.873 14.599 14.683 2.902.307 5.668-.142 8.13-1.174 3.699-1.55 7.968-.606 10.771 2.262 2.985 3.054 7.146 4.95 11.756 4.95 3.357 0 6.478-1.005 9.081-2.73 3.234-2.143 7.469-2.143 10.703 0 2.603 1.725 5.724 2.73 9.081 2.73 4.61 0 8.771-1.896 11.756-4.95 2.804-2.868 7.072-3.812 10.771-2.262 2.462 1.031 5.228 1.481 8.13 1.174 7.652-.81 13.83-7.026 14.599-14.683.441-4.385-.848-8.455-3.256-11.631-.37-.487-.743-.972-1.078-1.483z" fill="url(#SVGID_61_)"/><path d="m132.611 376.718c-.768 7.659-6.951 13.872-14.602 14.685-2.899.309-5.663-.143-8.126-1.175-3.698-1.551-7.968-.603-10.777 2.259-1.597 1.634-3.524 2.937-5.678 3.788l-58.756-58.764 29.416-44.869c4.172-6.364 13.495-6.364 17.668 0l46.519 70.964c.339.512.708.994 1.077 1.484 2.408 3.171 3.696 7.245 3.259 11.628z" fill="url(#SVGID_62_)"/><path d="m118.514 314.786-38.32-58.451c-3.434-5.239-11.113-5.239-14.547 0l-37.276 56.859-2.165 3.132c-1.832 2.567-2.797 5.795-2.448 9.262.634 6.306 5.721 11.427 12.024 12.094 2.39.253 4.668-.117 6.696-.967 3.047-1.277 6.563-.499 8.872 1.863 2.459 2.515 5.886 4.077 9.683 4.077 2.765 0 5.336-.828 7.48-2.248 2.663-1.765 6.152-1.765 8.815 0 2.144 1.421 4.715 2.248 7.48 2.248 3.797 0 7.224-1.562 9.683-4.077 2.309-2.362 5.825-3.14 8.872-1.863 2.028.85 4.306 1.22 6.696.967 6.303-.667 11.391-5.787 12.024-12.094.363-3.612-.699-6.964-2.682-9.58-.303-.402-.61-.801-.887-1.222z" fill="url(#SVGID_63_)"/></g></g><path d="m371.398 133.258h-7.964c0-9.968-8.081-18.049-18.049-18.049h-35.6c-9.968 0-18.049 8.081-18.049 18.049s8.081 18.049 18.049 18.049h7.963c0 9.968 8.081 18.049 18.049 18.049h35.6c9.968 0 18.049-8.081 18.049-18.049.001-9.968-8.08-18.049-18.048-18.049z" fill="#fff"/><circle cx="402.44" cy="102.152" fill="url(#SVGID_64_)" r="66.943"/><g><path d="m366.732 239.541c-.757 8.518-5.08 27.812-28.583 30.274-1.301.136-2.133-1.324-1.356-2.376 1.39-1.883 2.629-5.1 2.629-10.583 0-14.71 12.684-22.149 23.339-21.86 2.383.064 4.182 2.171 3.971 4.545z" fill="url(#SVGID_65_)"/><path d="m336.625 268.907c.239.563.803.983 1.523.907 23.503-2.462 27.826-21.756 28.583-30.274.115-1.288-.376-2.484-1.217-3.331-7.475 18.593-23.764 29.6-28.889 32.698z" fill="url(#SVGID_66_)"/></g><g><path d="m276.457 465.065c-8.434 1.413-28.195 2.092-36.499-20.033-.46-1.224.744-2.397 1.958-1.911 2.173.871 5.598 1.259 10.904-.122 14.235-3.707 24.63 6.693 27.036 17.078.537 2.322-1.049 4.594-3.399 4.988z" fill="url(#SVGID_67_)"/><path d="m240.452 443.329c-.485.373-.749 1.025-.494 1.703 8.305 22.124 28.066 21.446 36.499 20.033 1.275-.214 2.309-.989 2.917-2.017-19.877-2.55-34.633-15.54-38.922-19.719z" fill="url(#SVGID_68_)"/></g><g><path d="m291.582 492.211c3.44-7.829 13.702-24.73 36.759-19.552 1.276.287 1.598 1.936.526 2.685-1.919 1.34-4.121 3.992-5.874 9.188-4.701 13.938-19.097 16.934-29.101 13.255-2.237-.823-3.268-3.394-2.31-5.576z" fill="url(#SVGID_69_)"/><path d="m329.495 474.005c-.047-.61-.447-1.188-1.154-1.347-23.057-5.178-33.319 11.723-36.759 19.552-.52 1.184-.438 2.474.088 3.545 13.027-15.228 31.979-20.452 37.825-21.75z" fill="url(#SVGID_70_)"/></g><g><path d="m450.596 167.718c3.44-7.829 13.702-24.73 36.759-19.552 1.276.287 1.598 1.936.526 2.685-1.919 1.34-4.121 3.992-5.874 9.188-4.701 13.938-19.097 16.934-29.101 13.255-2.237-.823-3.268-3.394-2.31-5.576z" fill="url(#SVGID_71_)"/><path d="m488.509 149.512c-.047-.61-.447-1.188-1.154-1.347-23.057-5.178-33.319 11.723-36.759 19.552-.52 1.184-.438 2.474.088 3.545 13.027-15.228 31.979-20.452 37.825-21.75z" fill="url(#SVGID_72_)"/></g></g></svg>