

<svg id="Capa_1" enable-background="new 0 0 510 510" height="512" viewBox="0 0 510 510" width="512" xmlns="http://www.w3.org/2000/svg" xmlns:xlink="http://www.w3.org/1999/xlink"><linearGradient id="lg1"><stop offset="0" stop-color="#c7e9ff"/><stop offset=".3556" stop-color="#a3e6f2"/><stop offset="1" stop-color="#65e0db"/></linearGradient><linearGradient id="SVGID_1_" gradientUnits="userSpaceOnUse" x1="255" x2="255" xlink:href="#lg1" y1="34.721" y2="483.763"/><linearGradient id="lg2"><stop offset="0" stop-color="#edf5ff"/><stop offset="1" stop-color="#c7e9ff"/></linearGradient><linearGradient id="SVGID_2_" gradientTransform="matrix(-1 0 0 -1 -341.759 -504.764)" gradientUnits="userSpaceOnUse" x1="-659.117" x2="-768.773" xlink:href="#lg2" y1="-751.456" y2="-861.112"/><linearGradient id="SVGID_3_" gradientTransform="matrix(-1 0 0 -1 -341.759 -504.764)" gradientUnits="userSpaceOnUse" x1="-695.466" x2="-895.537" xlink:href="#lg2" y1="-683.138" y2="-883.209"/><linearGradient id="lg3"><stop offset="0" stop-color="#2f73a0" stop-opacity="0"/><stop offset="1" stop-color="#2f73a0"/></linearGradient><linearGradient id="SVGID_4_" gradientUnits="userSpaceOnUse" x1="441.933" x2="387.933" xlink:href="#lg3" y1="409.432" y2="272.432"/><linearGradient id="lg4"><stop offset="0" stop-color="#7acbff" stop-opacity="0"/><stop offset="1" stop-color="#2f73a0"/></linearGradient><linearGradient id="SVGID_5_" gradientUnits="userSpaceOnUse" x1="323.19" x2="281.486" xlink:href="#lg4" y1="405.743" y2="317.469"/><linearGradient id="SVGID_6_" gradientUnits="userSpaceOnUse" x1="101.175" x2="101.175" xlink:href="#lg4" y1="463.885" y2="321.8"/><linearGradient id="SVGID_7_" gradientUnits="userSpaceOnUse" x1="229.253" x2="273.92" xlink:href="#lg1" y1="368.835" y2="428.169"/><linearGradient id="SVGID_8_" gradientUnits="userSpaceOnUse" x1="327.028" x2="264.304" xlink:href="#lg3" y1="404.034" y2="444.89"/><linearGradient id="lg5"><stop offset="0" stop-color="#798c00"/><stop offset="1" stop-color="#1b444f"/></linearGradient><linearGradient id="SVGID_9_" gradientUnits="userSpaceOnUse" x1="384.588" x2="378.82" xlink:href="#lg5" y1="418.592" y2="462.568"/><linearGradient id="lg6"><stop offset="0" stop-color="#bada00"/><stop offset=".2187" stop-color="#b6d600"/><stop offset=".4501" stop-color="#acc900"/><stop offset=".6873" stop-color="#9ab400"/><stop offset=".9271" stop-color="#829700"/><stop offset="1" stop-color="#798c00"/></linearGradient><linearGradient id="SVGID_10_" gradientUnits="userSpaceOnUse" x1="126.256" x2="151.809" xlink:href="#lg6" y1="340.718" y2="415.957"/><linearGradient id="SVGID_11_" gradientUnits="userSpaceOnUse" x1="59.513" x2="101.473" xlink:href="#lg5" y1="411.779" y2="453.739"/><linearGradient id="SVGID_12_" gradientUnits="userSpaceOnUse" x1="75.697" x2="102.694" y1="417.29" y2="411.801"><stop offset="0" stop-color="#1b444f" stop-opacity="0"/><stop offset="1" stop-color="#1b444f"/></linearGradient><linearGradient id="lg7"><stop offset="0" stop-color="#43765a" stop-opacity="0"/><stop offset="1" stop-color="#43765a"/></linearGradient><linearGradient id="SVGID_13_" gradientUnits="userSpaceOnUse" x1="81.167" x2="81.167" xlink:href="#lg7" y1="443.255" y2="455.77"/><linearGradient id="SVGID_14_" gradientUnits="userSpaceOnUse" x1="324.781" x2="409.667" y1="80.819" y2="165.704"><stop offset="0" stop-color="#ffd945"/><stop offset=".3043" stop-color="#ffcd3e"/><stop offset=".8558" stop-color="#ffad2b"/><stop offset="1" stop-color="#ffa325"/></linearGradient><linearGradient id="SVGID_15_" gradientUnits="userSpaceOnUse" x1="127.334" x2="175.334" xlink:href="#lg2" y1="46.603" y2="112.603"/><linearGradient id="SVGID_16_" gradientUnits="userSpaceOnUse" x1="64.215" x2="112.215" xlink:href="#lg2" y1="92.507" y2="158.507"/><linearGradient id="lg8"><stop offset="0" stop-color="#d3145a"/><stop offset="1" stop-color="#9d005d"/></linearGradient><linearGradient id="SVGID_17_" gradientUnits="userSpaceOnUse" x1="115.387" x2="237.046" xlink:href="#lg8" y1="275.093" y2="360.634"/><linearGradient id="lg9"><stop offset="0" stop-color="#843561" stop-opacity="0"/><stop offset=".6525" stop-color="#503153" stop-opacity=".653"/><stop offset="1" stop-color="#3a2f4d"/></linearGradient><linearGradient id="SVGID_18_" gradientUnits="userSpaceOnUse" x1="225.267" x2="151.61" xlink:href="#lg9" y1="347.249" y2="241.594"/><linearGradient id="SVGID_19_" gradientUnits="userSpaceOnUse" x1="185.815" x2="185.815" xlink:href="#lg9" y1="202.86" y2="235.764"/><linearGradient id="SVGID_20_" gradientUnits="userSpaceOnUse" x1="185.815" x2="185.815" xlink:href="#lg8" y1="226.256" y2="264.292"/><linearGradient id="lg10"><stop offset="0" stop-color="#9da6ac"/><stop offset="1" stop-color="#5a7587"/></linearGradient><linearGradient id="SVGID_21_" gradientTransform="matrix(.707 -.707 .707 .707 -79.352 244.118)" gradientUnits="userSpaceOnUse" x1="197.454" x2="212.689" xlink:href="#lg10" y1="167.72" y2="167.72"/><linearGradient id="SVGID_22_" gradientTransform="matrix(.707 .707 -.707 .707 228.728 -116.507)" gradientUnits="userSpaceOnUse" x1="195.045" x2="210.28" xlink:href="#lg10" y1="265.563" y2="265.563"/><linearGradient id="SVGID_23_" gradientTransform="matrix(.707 -.707 .707 .707 -79.352 244.118)" gradientUnits="userSpaceOnUse" x1="170.381" x2="247.65" xlink:href="#lg2" y1="15.095" y2="92.364"/><linearGradient id="lg11"><stop offset="0" stop-color="#dfdfdf"/><stop offset="1" stop-color="#9da6ac"/></linearGradient><linearGradient id="SVGID_24_" gradientTransform="matrix(.707 -.707 .707 .707 -79.352 244.118)" gradientUnits="userSpaceOnUse" x1="167.272" x2="251.05" xlink:href="#lg11" y1="11.987" y2="95.765"/><linearGradient id="SVGID_25_" gradientTransform="matrix(.707 -.707 .707 .707 -79.352 244.118)" gradientUnits="userSpaceOnUse" x1="250.923" x2="121.256" xlink:href="#lg11" y1="51.997" y2="51.997"/><linearGradient id="SVGID_26_" gradientTransform="matrix(.707 -.707 .707 .707 -79.352 244.118)" gradientUnits="userSpaceOnUse" x1="170.381" x2="247.65" xlink:href="#lg2" y1="246.54" y2="323.81"/><linearGradient id="SVGID_27_" gradientTransform="matrix(.707 -.707 .707 .707 -79.352 244.118)" gradientUnits="userSpaceOnUse" x1="167.272" x2="251.05" xlink:href="#lg11" y1="243.432" y2="327.21"/><linearGradient id="SVGID_28_" gradientTransform="matrix(.707 -.707 .707 .707 -79.352 244.118)" gradientUnits="userSpaceOnUse" x1="250.923" x2="121.256" xlink:href="#lg11" y1="283.443" y2="283.443"/><linearGradient id="SVGID_29_" gradientTransform="matrix(.707 .707 -.707 .707 228.728 -116.507)" gradientUnits="userSpaceOnUse" x1="167.972" x2="245.241" xlink:href="#lg2" y1="112.938" y2="190.208"/><linearGradient id="SVGID_30_" gradientTransform="matrix(.707 .707 -.707 .707 228.728 -116.507)" gradientUnits="userSpaceOnUse" x1="164.864" x2="248.642" xlink:href="#lg11" y1="109.83" y2="193.608"/><linearGradient id="SVGID_31_" gradientTransform="matrix(.707 .707 -.707 .707 228.728 -116.507)" gradientUnits="userSpaceOnUse" x1="248.514" x2="118.848" xlink:href="#lg11" y1="149.84" y2="149.84"/><linearGradient id="SVGID_32_" gradientTransform="matrix(.707 .707 -.707 .707 228.728 -116.507)" gradientUnits="userSpaceOnUse" x1="167.972" x2="245.241" xlink:href="#lg2" y1="344.383" y2="421.653"/><linearGradient id="SVGID_33_" gradientTransform="matrix(.707 .707 -.707 .707 228.728 -116.507)" gradientUnits="userSpaceOnUse" x1="164.864" x2="248.642" xlink:href="#lg11" y1="341.275" y2="425.053"/><linearGradient id="SVGID_34_" gradientTransform="matrix(.707 .707 -.707 .707 228.728 -116.507)" gradientUnits="userSpaceOnUse" x1="248.514" x2="118.848" xlink:href="#lg11" y1="381.286" y2="381.286"/><linearGradient id="lg12"><stop offset="0" stop-color="#ffce47"/><stop offset="1" stop-color="#f6921e"/></linearGradient><linearGradient id="SVGID_35_" gradientUnits="userSpaceOnUse" x1="170.923" x2="202.38" xlink:href="#lg12" y1="201.251" y2="232.708"/><linearGradient id="SVGID_36_" gradientTransform="matrix(-1 0 0 -1 510 510)" gradientUnits="userSpaceOnUse" x1="312.087" x2="337.645" xlink:href="#lg12" y1="281.759" y2="307.317"/><linearGradient id="SVGID_37_" gradientUnits="userSpaceOnUse" x1="176.662" x2="195.996" xlink:href="#lg12" y1="206.99" y2="226.324"/><linearGradient id="SVGID_38_" gradientUnits="userSpaceOnUse" x1="169.009" x2="190.534" xlink:href="#lg2" y1="288.44" y2="309.965"/><linearGradient id="SVGID_39_" gradientUnits="userSpaceOnUse" x1="169.009" x2="190.534" xlink:href="#lg2" y1="330.731" y2="352.256"/><linearGradient id="SVGID_40_" gradientUnits="userSpaceOnUse" x1="188.289" x2="204.59" xlink:href="#lg9" y1="430.158" y2="370.388"/><linearGradient id="SVGID_41_" gradientUnits="userSpaceOnUse" x1="169.009" x2="190.534" xlink:href="#lg2" y1="373.021" y2="394.546"/><linearGradient id="SVGID_42_" gradientUnits="userSpaceOnUse" x1="255" x2="255" xlink:href="#lg6" y1="449.061" y2="522.011"/><linearGradient id="SVGID_43_" gradientUnits="userSpaceOnUse" x1="243.515" x2="285.955" xlink:href="#lg7" y1="437.557" y2="609.514"/><linearGradient id="SVGID_44_" gradientUnits="userSpaceOnUse" x1="131.914" x2="120.966" xlink:href="#lg7" y1="502.921" y2="466.708"/><linearGradient id="lg13"><stop offset="0" stop-color="#c59b6d"/><stop offset="1" stop-color="#8b6239"/></linearGradient><linearGradient id="SVGID_45_" gradientUnits="userSpaceOnUse" x1="99.778" x2="122.298" xlink:href="#lg13" y1="463.017" y2="485.538"/><linearGradient id="SVGID_46_" gradientUnits="userSpaceOnUse" x1="123.581" x2="113.824" y1="461.233" y2="473.37"><stop offset="0" stop-color="#754c24" stop-opacity="0"/><stop offset="1" stop-color="#754c24"/></linearGradient><linearGradient id="SVGID_47_" gradientUnits="userSpaceOnUse" x1="124.481" x2="135.742" xlink:href="#lg13" y1="474.739" y2="486"/><linearGradient id="SVGID_48_" gradientUnits="userSpaceOnUse" x1="413.505" x2="391.505" xlink:href="#lg7" y1="511.281" y2="471.281"/><linearGradient id="SVGID_49_" gradientUnits="userSpaceOnUse" x1="387.058" x2="402.829" xlink:href="#lg13" y1="475.051" y2="490.822"/><linearGradient id="SVGID_50_" gradientUnits="userSpaceOnUse" x1="417.899" x2="476.499" xlink:href="#lg2" y1="127.555" y2="186.155"/><g><g><path d="m485.638 510h-461.276c-13.455 0-24.362-10.907-24.362-24.362v-461.276c0-13.455 10.907-24.362 24.362-24.362h461.275c13.456 0 24.363 10.907 24.363 24.362v461.275c0 13.456-10.907 24.363-24.362 24.363z" fill="url(#SVGID_1_)"/></g><g><path d="m329.05 258.202h25.9c7.252 0 13.131 5.879 13.131 13.131 0 7.252-5.879 13.131-13.131 13.131h-25.9c-7.252 0-13.131-5.879-13.131-13.131 0-7.252 5.879-13.131 13.131-13.131z" fill="url(#SVGID_2_)"/></g><g><path d="m368.672 203.877h59.989c10.745 0 19.456 8.711 19.456 19.456 0 10.745-8.711 19.456-19.456 19.456h-59.989c-10.745 0-19.456-8.711-19.456-19.456 0-10.745 8.711-19.456 19.456-19.456z" fill="url(#SVGID_3_)"/></g><path d="m462.663 379.847-21.613-21.613v-.713c0-2.034-1.561-3.702-3.55-3.875v-.037c0-1.782-.257-3.503-.728-5.134.128-.091.255-.187.37-.302l25.521-25.521c1.117-1.117 1.117-2.927 0-4.043l-11.021-11.021c-1.117-1.117-2.927-1.117-4.044 0l-25.52 25.521c-.589.589-.859 1.371-.826 2.143-.738-.09-1.489-.141-2.251-.141s-1.513.052-2.251.141c.033-.772-.237-1.554-.826-2.143l-25.52-25.521c-1.117-1.117-2.927-1.117-4.044 0l-11.021 11.021c-1.117 1.117-1.117 2.927 0 4.043l25.521 25.521c.115.115.242.211.37.302-.47 1.631-.728 3.352-.728 5.134v.037c-1.989.174-3.55 1.841-3.55 3.875v.713l-21.613 21.613c-1.117 1.117-1.117 2.927 0 4.044l11.021 11.021c1.117 1.117 2.927 1.117 4.043 0l10.089-10.089c-.048 9.108-1.056 18.186-3.022 27.081l-1.228 5.557h4.259 36.999 4.259l-1.228-5.557c-1.966-8.895-2.974-17.973-3.022-27.081l10.089 10.089c1.117 1.117 2.927 1.117 4.043 0l11.021-11.021c1.117-1.117 1.117-2.927.001-4.044z" fill="url(#SVGID_4_)"/><g><g><path d="m206.289 447.98 93.804-96.233c26.362-27.045 58.664-27.146 85.078-.266l94.829 96.499z" fill="url(#SVGID_5_)"/><path d="m30.562 447.98 48.4-80.51c13.602-22.626 30.268-22.71 43.897-.223l48.928 80.733z" fill="url(#SVGID_6_)"/><g><path d="m333.673 381.84h-26.496c-8.378 0-16.414-4.276-22.338-11.886-12.337-15.849-32.339-15.849-44.676 0l-60.738 78.026h218.818l-42.232-54.253c-5.925-7.611-13.96-11.887-22.338-11.887z" fill="url(#SVGID_7_)"/><path d="m356.011 393.727c-5.924-7.611-13.96-11.886-22.338-11.886h-26.496c-8.292 0-16.344-4.068-22.162-11.659-7.237-9.443-17.17-13.356-26.646-11.759l35.672 45.826c6.252 8.032 14.732 12.544 23.575 12.544 8.842 0 17.322 4.512 23.575 12.544l14.512 18.642h42.542z" fill="url(#SVGID_8_)"/></g></g><path d="m510 414.012c-158.226-17.463-258.533 33.968-258.533 33.968h258.533z" fill="url(#SVGID_9_)"/><path d="m0 447.98h325.37s-126.321-90.751-325.37-59.049z" fill="url(#SVGID_10_)"/></g><g><g><g><path d="m99.079 411.087c-2.319 0-4.55.37-6.641 1.053-2.236-7.296-9.025-12.602-17.054-12.602-9.85 0-17.835 7.985-17.835 17.835 0 1.423.168 2.807.483 4.134-8.406.593-15.042 7.599-15.042 16.156 0 8.945 7.252 16.197 16.197 16.197h39.893c11.812 0 21.387-9.575 21.387-21.387s-9.576-21.386-21.388-21.386z" fill="url(#SVGID_11_)"/><path d="m77.692 432.474c0 .867.052 1.722.153 2.563-.804.113-1.627.171-2.462.171-9.85 0-17.834-7.986-17.834-17.836 0-9.848 7.984-17.834 17.834-17.834 8.029 0 14.819 5.306 17.055 12.602-8.56 2.792-14.746 10.84-14.746 20.334z" fill="url(#SVGID_12_)"/><path d="m43.114 439.679c.993 7.994 7.81 14.181 16.072 14.181h39.893c9.283 0 17.183-5.915 20.141-14.181z" fill="url(#SVGID_13_)"/></g></g></g><circle cx="346.114" cy="102.152" fill="url(#SVGID_14_)" r="66.943"/><g><path d="m187.852 63.6h-10.262c0-12.845-10.413-23.259-23.259-23.259h-45.876c-12.845 0-23.259 10.413-23.259 23.259s10.413 23.259 23.259 23.259h10.262c0 12.845 10.413 23.259 23.259 23.259h45.876c12.845 0 23.259-10.413 23.259-23.259s-10.414-23.259-23.259-23.259z" fill="url(#SVGID_15_)"/><path d="m98.281 104.732h-28.98c-8.115 0-14.693 6.578-14.693 14.693s6.578 14.693 14.693 14.693h28.981c8.115 0 14.693-6.578 14.693-14.693s-6.579-14.693-14.694-14.693z" fill="url(#SVGID_16_)"/></g><g><path d="m261.204 428.523c-7.055-31.924-10.614-64.522-10.614-97.216v-106.903c0-35.774-29.001-64.775-64.775-64.775-35.774 0-64.775 29.001-64.775 64.775v106.903c0 32.695-3.559 65.292-10.614 97.216l-4.3 19.457h14.914 129.55 14.914z" fill="url(#SVGID_17_)"/><path d="m121.039 246.325v84.982c0 1.216-.015 2.432-.025 3.648l113.025 113.025h16.551 14.914l-4.3-19.457c-7.055-31.924-10.614-64.522-10.614-97.216v-84.982z" fill="url(#SVGID_18_)"/><path d="m121.039 224.404v17.254h129.551v-17.254c0-9.278-1.965-18.093-5.478-26.072h-118.594c-3.514 7.979-5.479 16.794-5.479 26.072z" fill="url(#SVGID_19_)"/><path d="m249.39 261.116h-127.151c-7.528 0-13.63-6.102-13.63-13.63v-9.384c0-7.528 6.102-13.63 13.63-13.63h127.151c7.528 0 13.63 6.102 13.63 13.63v9.384c0 7.528-6.102 13.63-13.63 13.63z" fill="url(#SVGID_20_)"/><g><path d="m229.369 247.317-12.381 12.38-74.728-74.728 12.38-12.381z" fill="url(#SVGID_21_)"/><path d="m154.64 259.697-12.38-12.38 74.728-74.729 12.381 12.381z" fill="url(#SVGID_22_)"/><g><g><path d="m72.385 68.56-34.153 34.153c-3.46 3.46-3.284 9.246.393 12.923l84.04 84.04c3.677 3.677 9.463 3.853 12.923.393l34.153-34.153c3.46-3.46 3.284-9.246-.393-12.923l-84.04-84.04c-3.677-3.677-9.463-3.853-12.923-.393z" fill="url(#SVGID_23_)"/><path d="m71.523 63.26-38.591 38.591c-3.91 3.91-3.91 10.248 0 14.158l89.359 89.359c3.91 3.91 10.249 3.91 14.158 0l38.591-38.591c3.91-3.91 3.91-10.248 0-14.158l-89.359-89.359c-3.909-3.909-10.248-3.909-14.158 0zm13.563 12.416 10.312 10.312-16.067 16.067-16.007-16.007 10.372-10.372c3.145-3.145 8.245-3.145 11.39 0zm18.571 65.913 18.039 18.039-16.067 16.067-18.039-18.039zm-23.012 9.121-18.039-18.039 16.067-16.067 18.039 18.039zm30.616-16.725 16.067-16.067 18.039 18.039-16.067 16.067zm-6.945-6.946-18.04-18.039 16.067-16.067 18.039 18.039zm-58.968-23.015 10.372-10.371 16.007 16.007-16.067 16.066-10.312-10.312c-3.145-3.145-3.145-8.245 0-11.39zm77.539 88.928-10.312-10.312 16.067-16.067 16.007 16.007-10.372 10.372c-3.146 3.145-8.245 3.145-11.39 0zm39.737-28.348-10.372 10.372-16.007-16.007 16.067-16.067 10.312 10.312c3.145 3.146 3.145 8.245 0 11.39z" fill="url(#SVGID_24_)"/><path d="m72.385 68.56-34.153 34.153c-3.46 3.46-3.284 9.246.393 12.923l84.04 84.04c3.677 3.677 9.463 3.853 12.923.393l34.153-34.153c3.46-3.46 3.284-9.246-.393-12.923l-84.04-84.04c-3.677-3.677-9.463-3.853-12.923-.393zm72.263 114.021-10.372 10.372c-3.145 3.145-8.245 3.145-11.39 0l-10.312-10.312 16.067-16.067zm-22.952-22.952-16.067 16.067-18.039-18.04 16.067-16.067zm-24.985-24.985-16.066 16.066-18.039-18.039 16.067-16.067zm-24.984-24.985-16.067 16.067-10.312-10.312c-3.145-3.145-3.145-8.245 0-11.39l10.372-10.371zm90.897 43.556c3.145 3.145 3.145 8.245 0 11.39l-10.372 10.372-16.007-16.007 16.067-16.067zm-17.257-17.257-16.067 16.067-18.039-18.039 16.067-16.067zm-24.985-24.985-16.067 16.067-18.039-18.04 16.067-16.067zm-24.984-24.985-16.067 16.067-16.007-16.007 10.372-10.372c3.145-3.145 8.245-3.145 11.39 0z" fill="url(#SVGID_25_)"/></g><g><path d="m236.041 232.217-34.153 34.153c-3.46 3.46-3.284 9.246.393 12.923l84.04 84.04c3.677 3.677 9.463 3.853 12.923.393l34.153-34.153c3.46-3.46 3.284-9.246-.393-12.923l-84.04-84.04c-3.677-3.678-9.463-3.853-12.923-.393z" fill="url(#SVGID_26_)"/><path d="m235.18 226.917-38.591 38.591c-3.91 3.91-3.91 10.248 0 14.158l89.359 89.359c3.91 3.91 10.249 3.91 14.158 0l38.591-38.591c3.91-3.91 3.91-10.248 0-14.158l-89.359-89.359c-3.91-3.91-10.249-3.91-14.158 0zm13.562 12.416 10.312 10.312-16.067 16.067-16.007-16.007 10.372-10.372c3.146-3.145 8.245-3.145 11.39 0zm18.571 65.913 18.039 18.039-16.067 16.067-18.039-18.039zm-23.012 9.121-18.039-18.039 16.067-16.067 18.039 18.039zm30.617-16.726 16.067-16.067 18.039 18.039-16.067 16.067zm-6.946-6.945-18.039-18.039 16.067-16.067 18.039 18.039zm-58.967-23.015 10.372-10.372 16.007 16.007-16.067 16.067-10.312-10.312c-3.145-3.146-3.145-8.245 0-11.39zm77.538 88.928-10.312-10.312 16.067-16.067 16.007 16.007-10.372 10.372c-3.145 3.145-8.245 3.145-11.39 0zm39.738-28.348-10.372 10.372-16.007-16.007 16.067-16.067 10.312 10.312c3.145 3.145 3.145 8.245 0 11.39z" fill="url(#SVGID_27_)"/><path d="m236.041 232.217-34.153 34.153c-3.46 3.46-3.284 9.246.393 12.923l84.04 84.04c3.677 3.677 9.463 3.853 12.923.393l34.153-34.153c3.46-3.46 3.284-9.246-.393-12.923l-84.04-84.04c-3.677-3.678-9.463-3.853-12.923-.393zm72.264 114.02-10.372 10.372c-3.145 3.145-8.245 3.145-11.39 0l-10.312-10.312 16.067-16.067zm-22.953-22.952-16.067 16.067-18.039-18.039 16.067-16.067zm-24.984-24.984-16.067 16.067-18.039-18.039 16.067-16.067zm-24.985-24.985-16.067 16.067-10.312-10.312c-3.145-3.145-3.145-8.245 0-11.39l10.372-10.372zm90.898 43.555c3.145 3.145 3.145 8.245 0 11.39l-10.372 10.372-16.007-16.007 16.067-16.067zm-17.257-17.257-16.067 16.067-18.039-18.039 16.067-16.067zm-24.985-24.985-16.067 16.067-18.039-18.039 16.067-16.067zm-24.985-24.984-16.067 16.067-16.007-16.007 10.372-10.372c3.145-3.145 8.245-3.145 11.39 0z" fill="url(#SVGID_28_)"/></g><g><path d="m333.397 102.713-34.153-34.153c-3.46-3.46-9.246-3.284-12.923.393l-84.04 84.04c-3.677 3.677-3.853 9.463-.393 12.923l34.153 34.153c3.46 3.46 9.246 3.284 12.923-.393l84.04-84.04c3.677-3.677 3.853-9.463.393-12.923z" fill="url(#SVGID_29_)"/><path d="m338.697 101.851-38.591-38.591c-3.91-3.91-10.248-3.91-14.158 0l-89.359 89.359c-3.91 3.91-3.91 10.249 0 14.158l38.591 38.591c3.91 3.91 10.248 3.91 14.158 0l89.359-89.359c3.909-3.909 3.909-10.248 0-14.158zm-12.416 13.563-10.312 10.312-16.067-16.067 16.007-16.007 10.372 10.372c3.145 3.145 3.145 8.245 0 11.39zm-65.913 18.571-18.039 18.039-16.067-16.067 18.039-18.039zm-9.121-23.012 18.039-18.039 16.066 16.066-18.039 18.039zm16.725 30.616 16.067 16.067-18.039 18.039-16.067-16.067zm6.946-6.945 18.039-18.039 16.067 16.067-18.039 18.039zm23.015-58.968 10.372 10.372-16.007 16.007-16.067-16.067 10.312-10.312c3.145-3.145 8.245-3.145 11.39 0zm-88.928 77.539 10.312-10.312 16.067 16.067-16.007 16.007-10.372-10.372c-3.145-3.146-3.145-8.245 0-11.39zm28.348 39.737-10.372-10.372 16.007-16.007 16.067 16.067-10.312 10.312c-3.146 3.145-8.245 3.145-11.39 0z" fill="url(#SVGID_30_)"/><path d="m333.397 102.713-34.153-34.153c-3.46-3.46-9.246-3.284-12.923.393l-84.04 84.04c-3.677 3.677-3.853 9.463-.393 12.923l34.153 34.153c3.46 3.46 9.246 3.284 12.923-.393l84.04-84.04c3.677-3.677 3.853-9.463.393-12.923zm-114.021 72.263-10.372-10.372c-3.145-3.145-3.145-8.245 0-11.39l10.312-10.312 16.067 16.067zm22.952-22.952-16.067-16.067 18.039-18.039 16.067 16.067zm24.985-24.985-16.067-16.067 18.039-18.039 16.067 16.067zm24.985-24.984-16.067-16.067 10.312-10.312c3.145-3.145 8.245-3.145 11.39 0l10.372 10.372zm-43.556 90.897c-3.145 3.145-8.245 3.145-11.39 0l-10.372-10.372 16.007-16.007 16.067 16.067zm17.257-17.257-16.067-16.067 18.039-18.039 16.067 16.067zm24.985-24.985-16.067-16.067 18.039-18.039 16.067 16.067zm24.985-24.984-16.067-16.067 16.007-16.007 10.372 10.372c3.145 3.145 3.145 8.245 0 11.39z" fill="url(#SVGID_31_)"/></g><g><path d="m169.74 266.37-34.153-34.153c-3.46-3.46-9.246-3.284-12.923.393l-84.04 84.04c-3.677 3.677-3.853 9.463-.393 12.923l34.153 34.153c3.46 3.46 9.246 3.284 12.923-.393l84.04-84.04c3.678-3.678 3.853-9.463.393-12.923z" fill="url(#SVGID_32_)"/><path d="m175.04 265.508-38.591-38.591c-3.91-3.91-10.248-3.91-14.158 0l-89.359 89.359c-3.91 3.91-3.91 10.249 0 14.158l38.591 38.591c3.91 3.91 10.248 3.91 14.158 0l89.359-89.359c3.91-3.91 3.91-10.249 0-14.158zm-12.416 13.562-10.312 10.312-16.067-16.067 16.007-16.007 10.372 10.372c3.145 3.146 3.145 8.245 0 11.39zm-65.913 18.571-18.039 18.039-16.067-16.067 18.039-18.039zm-9.121-23.012 18.039-18.039 16.067 16.067-18.039 18.039zm16.726 30.617 16.067 16.067-18.039 18.039-16.067-16.067zm6.945-6.945 18.039-18.039 16.067 16.067-18.039 18.039zm23.015-58.968 10.372 10.372-16.007 16.007-16.067-16.067 10.312-10.312c3.146-3.145 8.245-3.145 11.39 0zm-88.928 77.538 10.312-10.312 16.067 16.067-16.007 16.007-10.372-10.372c-3.145-3.145-3.145-8.245 0-11.39zm28.348 39.738-10.372-10.372 16.007-16.007 16.067 16.067-10.312 10.312c-3.145 3.145-8.245 3.145-11.39 0z" fill="url(#SVGID_33_)"/><path d="m169.74 266.37-34.153-34.153c-3.46-3.46-9.246-3.284-12.923.393l-84.04 84.04c-3.677 3.677-3.853 9.463-.393 12.923l34.153 34.153c3.46 3.46 9.246 3.284 12.923-.393l84.04-84.04c3.678-3.678 3.853-9.463.393-12.923zm-114.02 72.263-10.372-10.372c-3.145-3.145-3.145-8.245 0-11.39l10.312-10.312 16.067 16.067zm22.952-22.952-16.067-16.067 18.039-18.039 16.067 16.067zm24.985-24.985-16.067-16.067 18.039-18.039 16.067 16.067zm24.984-24.985-16.067-16.067 10.312-10.312c3.145-3.145 8.245-3.145 11.39 0l10.372 10.372zm-43.555 90.898c-3.145 3.145-8.245 3.145-11.39 0l-10.372-10.372 16.007-16.007 16.067 16.067zm17.257-17.257-16.067-16.067 18.039-18.039 16.067 16.067zm24.985-24.985-16.067-16.067 18.039-18.039 16.067 16.067zm24.984-24.985-16.067-16.067 16.007-16.007 10.372 10.372c3.145 3.145 3.145 8.245 0 11.39z" fill="url(#SVGID_34_)"/></g></g></g><g><circle cx="185.814" cy="216.143" fill="url(#SVGID_35_)" r="28.977"/><circle cx="185.814" cy="216.143" fill="url(#SVGID_36_)" r="23.544"/><circle cx="185.814" cy="216.143" fill="url(#SVGID_37_)" r="17.81"/></g><g><path d="m193.323 319.815h-15.017c-3.899 0-7.06-3.161-7.06-7.06v-15.017c0-3.899 3.161-7.06 7.06-7.06h15.017c3.899 0 7.06 3.161 7.06 7.06v15.017c.001 3.899-3.16 7.06-7.06 7.06z" fill="url(#SVGID_38_)"/></g><g><path d="m193.323 362.105h-15.017c-3.899 0-7.06-3.161-7.06-7.06v-15.017c0-3.899 3.161-7.06 7.06-7.06h15.017c3.899 0 7.06 3.161 7.06 7.06v15.017c.001 3.899-3.16 7.06-7.06 7.06z" fill="url(#SVGID_39_)"/></g><path d="m110.425 428.523-4.3 19.457h14.914 129.551 14.914l-4.3-19.457c-2.829-12.803-5.087-25.715-6.787-38.697h-137.205c-1.701 12.983-3.958 25.895-6.787 38.697z" fill="url(#SVGID_40_)"/><g><path d="m193.323 404.396h-15.017c-3.899 0-7.06-3.161-7.06-7.06v-15.017c0-3.899 3.161-7.06 7.06-7.06h15.017c3.899 0 7.06 3.161 7.06 7.06v15.017c.001 3.899-3.16 7.06-7.06 7.06z" fill="url(#SVGID_41_)"/></g></g><path d="m510 485.638v-37.658h-510v37.658c0 13.455 10.907 24.362 24.362 24.362h461.275c13.456 0 24.363-10.907 24.363-24.362z" fill="url(#SVGID_42_)"/><path d="m510 485.638v-6.077h-127.059c-1.885-5.699-7.053-9.902-13.273-10.341.294-1.239.451-2.532.451-3.861 0-9.2-7.458-16.657-16.657-16.657-7.499 0-13.839 4.955-15.928 11.769-1.953-.637-4.037-.983-6.203-.983-7.794 0-14.528 4.474-17.82 10.985-1.252-.579-2.641-.912-4.111-.912-4.416 0-8.149 2.918-9.379 6.93-1.15-.375-2.377-.579-3.652-.579-3.347 0-6.36 1.405-8.502 3.649h-287.867v6.077c0 13.455 10.907 24.362 24.362 24.362h461.275c13.456 0 24.363-10.907 24.363-24.362z" fill="url(#SVGID_43_)"/><g><path d="m171.787 509.1-31.593-31.593h-53.969l32.493 32.493h48.367c1.662 0 3.245-.326 4.702-.9z" fill="url(#SVGID_44_)"/><g><g><path d="m89.053 478.621h37.085c6.382 0 9.579-7.717 5.066-12.23l-5.987-5.987c-3.727-3.727-8.781-5.82-14.052-5.82h-6.405c-10.975 0-19.872 8.897-19.872 19.872 0 2.3 1.865 4.165 4.165 4.165z" fill="url(#SVGID_45_)"/><path d="m125.217 460.404c-3.727-3.727-8.781-5.82-14.052-5.82-2.552 0-4.62 2.068-4.62 4.62v.518c0 2.552 2.068 4.62 4.62 4.62 2.832 0 5.549 1.125 7.551 3.128l10.483 10.483c4.208-1.966 5.718-7.847 2.004-11.561z" fill="url(#SVGID_46_)"/></g><path d="m119.119 482.541h18.543c3.191 0 4.789-3.858 2.533-6.115l-2.993-2.993c-1.863-1.863-4.391-2.91-7.026-2.91h-3.203c-5.488 0-9.936 4.449-9.936 9.936 0 1.15.932 2.082 2.082 2.082z" fill="url(#SVGID_47_)"/></g></g><g><path d="m408.906 484.346h-31.974l25.654 25.654h31.974z" fill="url(#SVGID_48_)"/><path d="m379.547 485.978h25.971c4.47 0 6.708-5.404 3.548-8.565l-4.193-4.193c-2.61-2.61-6.15-4.076-9.841-4.076h-4.486c-7.686 0-13.917 6.231-13.917 13.917.002 1.611 1.307 2.917 2.918 2.917z" fill="url(#SVGID_49_)"/></g><path d="m463.433 133.258h-7.964c0-9.968-8.081-18.049-18.049-18.049h-35.6c-9.968 0-18.049 8.081-18.049 18.049s8.081 18.049 18.049 18.049h7.963c0 9.968 8.081 18.049 18.049 18.049h35.6c9.968 0 18.049-8.081 18.049-18.049 0-9.968-8.08-18.049-18.048-18.049z" fill="url(#SVGID_50_)"/></g></svg>