

<svg id="Capa_1" enable-background="new 0 0 510 510" height="512" viewBox="0 0 510 510" width="512" xmlns="http://www.w3.org/2000/svg" xmlns:xlink="http://www.w3.org/1999/xlink"><linearGradient id="lg1"><stop offset="0" stop-color="#fff5d9"/><stop offset="1" stop-color="#ffce47"/></linearGradient><linearGradient id="SVGID_1_" gradientUnits="userSpaceOnUse" x1="255" x2="255" xlink:href="#lg1" y1="34.721" y2="483.763"/><linearGradient id="SVGID_2_" gradientUnits="userSpaceOnUse" x1="255" x2="255" y1="90.218" y2="544.795"><stop offset="0" stop-color="#ff9356" stop-opacity="0"/><stop offset="1" stop-color="#ff755c"/></linearGradient><linearGradient id="SVGID_3_" gradientUnits="userSpaceOnUse" x1="207.702" x2="301.152" y1="174.918" y2="326.774"><stop offset="0" stop-color="#ffd945"/><stop offset=".3043" stop-color="#ffcd3e"/><stop offset=".8558" stop-color="#ffad2b"/><stop offset="1" stop-color="#ffa325"/></linearGradient><linearGradient id="SVGID_4_" gradientUnits="userSpaceOnUse" x1="255" x2="255" y1="309.918" y2="485.992"><stop offset="0" stop-color="#ffce47"/><stop offset="1" stop-color="#29aae1"/></linearGradient><linearGradient id="SVGID_5_" gradientUnits="userSpaceOnUse" x1="255" x2="255" y1="449.411" y2="514.186"><stop offset="0" stop-color="#45a2e0" stop-opacity="0"/><stop offset="1" stop-color="#2f73a0"/></linearGradient><linearGradient id="SVGID_6_" gradientUnits="userSpaceOnUse" x1="255" x2="255" y1="426.209" y2="309.209"><stop offset="0" stop-color="#45a2e0" stop-opacity="0"/><stop offset="1" stop-color="#ffce47"/></linearGradient><linearGradient id="lg2"><stop offset="0" stop-color="#45a2e0" stop-opacity="0"/><stop offset="1" stop-color="#ff9356"/></linearGradient><linearGradient id="SVGID_7_" gradientUnits="userSpaceOnUse" x1="273.24" x2="273.24" xlink:href="#lg2" y1="424.209" y2="306.103"/><linearGradient id="SVGID_8_" gradientUnits="userSpaceOnUse" x1="366.635" x2="366.635" xlink:href="#lg2" y1="424.209" y2="306.103"/><linearGradient id="SVGID_9_" gradientUnits="userSpaceOnUse" x1="173.635" x2="173.635" xlink:href="#lg2" y1="424.209" y2="306.103"/><linearGradient id="SVGID_10_" gradientUnits="userSpaceOnUse" x1="311.635" x2="311.635" xlink:href="#lg2" y1="424.209" y2="306.103"/><linearGradient id="lg3"><stop offset="0" stop-color="#ffce47"/><stop offset="1" stop-color="#ff9356"/></linearGradient><linearGradient id="SVGID_11_" gradientUnits="userSpaceOnUse" x1="234.667" x2="266.685" xlink:href="#lg3" y1="48.537" y2="48.537"/><linearGradient id="lg4"><stop offset="0" stop-color="#ff9356"/><stop offset="1" stop-color="#ff755c"/></linearGradient><linearGradient id="SVGID_12_" gradientTransform="matrix(0 1 -1 0 506.777 -3.223)" gradientUnits="userSpaceOnUse" x1="234.667" x2="266.685" xlink:href="#lg4" y1="48.537" y2="48.537"/><linearGradient id="SVGID_13_" gradientTransform="matrix(0 1 -1 0 506.777 -3.223)" gradientUnits="userSpaceOnUse" x1="234.667" x2="266.685" xlink:href="#lg1" y1="455.017" y2="455.017"/><linearGradient id="SVGID_14_" gradientTransform="matrix(.707 .707 -.707 .707 252.721 -106.568)" gradientUnits="userSpaceOnUse" x1="234.667" x2="266.685" xlink:href="#lg4" y1="48.537" y2="48.537"/><linearGradient id="SVGID_15_" gradientUnits="userSpaceOnUse" x1="107.13" x2="125.894" xlink:href="#lg3" y1="112.223" y2="93.459"/><g><path d="m485.638 510h-461.276c-13.455 0-24.362-10.907-24.362-24.362v-461.276c0-13.455 10.907-24.362 24.362-24.362h461.275c13.456 0 24.363 10.907 24.363 24.362v461.275c0 13.456-10.907 24.363-24.362 24.363z" fill="url(#SVGID_1_)"/><circle cx="255" cy="251.777" fill="url(#SVGID_2_)" r="185.558"/><circle cx="255" cy="251.777" fill="url(#SVGID_3_)" r="141.451"/><path d="m510 485.638v-152.944h-510v152.944c0 13.455 10.907 24.362 24.362 24.362h461.276c13.455 0 24.362-10.907 24.362-24.362z" fill="url(#SVGID_4_)"/><path d="m510 485.638v-64.292h-510v64.292c0 13.455 10.907 24.362 24.362 24.362h461.276c13.455 0 24.362-10.907 24.362-24.362z" fill="url(#SVGID_5_)"/><path d="m90.443 332.694c29.893 60.677 92.344 102.43 164.557 102.43s134.664-41.754 164.557-102.43z" fill="url(#SVGID_6_)"/><g><path d="m403.5 336.689c-2.48-2.47-5.9-4-9.67-4h-254.85c1.863 2.664 3.806 5.258 5.84 7.782 3.461 4.295 8.724 6.738 14.24 6.738h46.905c7.23 0 13.488 5.464 14 12.676.295 4.16-1.279 7.969-3.965 10.654-2.48 2.47-5.9 4-9.67 4-3.1 0-4.88 2.46-4.88 4.93 0 1.85.99 3.69 3.16 4.52 15.65 5.97 32.64 9.24 50.39 9.24 10.995 0 21.686-1.255 31.953-3.625 1.384-.319 2.227-1.647 2.104-3.063-.025-.281-.037-.565-.037-.853 0-2.68 1.08-5.1 2.83-6.85s4.17-2.83 6.85-2.83h17.692c4.33 0 8.574-1.203 12.268-3.461 3.813-2.33 7.506-4.837 11.069-7.509 4.32-3.24 9.55-5.02 14.94-5.02h39.16c7.55 0 13.67-6.12 13.67-13.66.001-3.769-1.529-7.189-3.999-9.669z" fill="url(#SVGID_7_)"/><path d="m377.323 366.333h-21.376c-5.344 0-9.677 4.333-9.677 9.677s4.332 9.677 9.677 9.677h21.376c5.344 0 9.677-4.333 9.677-9.677s-4.332-9.677-9.677-9.677z" fill="url(#SVGID_8_)"/><path d="m184.323 366.333h-21.377c-5.344 0-9.677 4.333-9.677 9.677s4.332 9.677 9.677 9.677h21.377c5.344 0 9.677-4.333 9.677-9.677s-4.332-9.677-9.677-9.677z" fill="url(#SVGID_9_)"/><path d="m322.323 385.687h-21.377c-5.344 0-9.677 4.333-9.677 9.677 0 5.344 4.332 9.677 9.677 9.677h21.377c5.344 0 9.677-4.332 9.677-9.677 0-5.345-4.332-9.677-9.677-9.677z" fill="url(#SVGID_10_)"/></g><g><g><path d="m255 18.782c6.976 0 12.632 5.656 12.632 12.632v34.246c0 6.976-5.656 12.632-12.632 12.632-6.976 0-12.632-5.656-12.632-12.632v-34.246c0-6.976 5.656-12.632 12.632-12.632z" fill="url(#SVGID_11_)"/></g><g><path d="m487.995 251.777c0 6.977-5.656 12.632-12.632 12.632h-34.246c-6.976 0-12.632-5.656-12.632-12.632 0-6.976 5.656-12.632 12.632-12.632h34.246c6.976 0 12.632 5.656 12.632 12.632z" fill="url(#SVGID_12_)"/><path d="m81.515 251.777c0 6.977-5.656 12.632-12.632 12.632h-34.246c-6.976 0-12.632-5.656-12.632-12.632 0-6.976 5.656-12.632 12.632-12.632h34.246c6.977 0 12.632 5.656 12.632 12.632z" fill="url(#SVGID_13_)"/></g><g><path d="m419.752 87.025c4.933 4.933 4.933 12.931 0 17.864l-24.216 24.216c-4.933 4.933-12.931 4.933-17.864 0-4.933-4.933-4.933-12.931 0-17.864l24.216-24.216c4.933-4.933 12.931-4.933 17.864 0z" fill="url(#SVGID_14_)"/></g><path d="m132.328 111.24-24.216-24.215c-4.933-4.933-12.931-4.933-17.864 0s-4.933 12.931 0 17.864l24.216 24.216c4.933 4.933 12.931 4.933 17.864 0s4.933-12.931 0-17.865z" fill="url(#SVGID_15_)"/></g></g></svg>