<svg id="Capa_1" enable-background="new 0 0 510 510" height="512" viewBox="0 0 510 510" width="512" xmlns="http://www.w3.org/2000/svg" xmlns:xlink="http://www.w3.org/1999/xlink"><linearGradient id="SVGID_1_" gradientUnits="userSpaceOnUse" x1="255" x2="255" y1="34.721" y2="483.763"><stop offset="0" stop-color="#c7e9ff"/><stop offset=".3556" stop-color="#a3e6f2"/><stop offset="1" stop-color="#65e0db"/></linearGradient><linearGradient id="lg1"><stop offset="0" stop-color="#edf5ff"/><stop offset="1" stop-color="#c7e9ff"/></linearGradient><linearGradient id="SVGID_2_" gradientTransform="matrix(-1 0 0 -1 -1405.759 -504.764)" gradientUnits="userSpaceOnUse" x1="-1805.784" x2="-1915.44" xlink:href="#lg1" y1="-677.456" y2="-787.112"/><linearGradient id="SVGID_3_" gradientUnits="userSpaceOnUse" x1="49.229" x2="83.177" xlink:href="#lg1" y1="201.038" y2="234.987"/><linearGradient id="lg2"><stop offset="0" stop-color="#c59b6d"/><stop offset="1" stop-color="#8b6239"/></linearGradient><linearGradient id="SVGID_4_" gradientUnits="userSpaceOnUse" x1="430.629" x2="464.211" xlink:href="#lg2" y1="387.45" y2="387.45"/><linearGradient id="SVGID_5_" gradientUnits="userSpaceOnUse" x1="438.834" x2="425.077" xlink:href="#lg2" y1="396.276" y2="396.276"/><linearGradient id="SVGID_6_" gradientUnits="userSpaceOnUse" x1="457.77" x2="434.799" xlink:href="#lg2" y1="382.786" y2="382.786"/><linearGradient id="lg3"><stop offset="0" stop-color="#754c24" stop-opacity="0"/><stop offset="1" stop-color="#754c24"/></linearGradient><linearGradient id="SVGID_7_" gradientUnits="userSpaceOnUse" x1="439.255" x2="439.255" xlink:href="#lg3" y1="391.507" y2="371.292"/><linearGradient id="lg4"><stop offset="0" stop-color="#798c00"/><stop offset="1" stop-color="#1b444f"/></linearGradient><linearGradient id="SVGID_8_" gradientUnits="userSpaceOnUse" x1="406.946" x2="437.508" xlink:href="#lg4" y1="323.486" y2="348.954"/><linearGradient id="lg5"><stop offset="0" stop-color="#1b444f" stop-opacity="0"/><stop offset="1" stop-color="#1b444f"/></linearGradient><linearGradient id="SVGID_9_" gradientUnits="userSpaceOnUse" x1="444.712" x2="444.712" xlink:href="#lg5" y1="367.838" y2="337.514"/><linearGradient id="SVGID_10_" gradientUnits="userSpaceOnUse" x1="415.329" x2="442.835" xlink:href="#lg4" y1="303.993" y2="330.48"/><linearGradient id="SVGID_11_" gradientUnits="userSpaceOnUse" x1="445.269" x2="445.269" xlink:href="#lg5" y1="334.385" y2="307.336"/><linearGradient id="SVGID_12_" gradientUnits="userSpaceOnUse" x1="407.096" x2="444.534" xlink:href="#lg4" y1="264.444" y2="308.504"/><linearGradient id="SVGID_13_" gradientUnits="userSpaceOnUse" x1="376.836" x2="410.418" xlink:href="#lg2" y1="423.612" y2="423.612"/><linearGradient id="SVGID_14_" gradientUnits="userSpaceOnUse" x1="385.041" x2="371.284" xlink:href="#lg2" y1="432.438" y2="432.438"/><linearGradient id="SVGID_15_" gradientUnits="userSpaceOnUse" x1="403.977" x2="381.006" xlink:href="#lg2" y1="418.948" y2="418.948"/><linearGradient id="SVGID_16_" gradientUnits="userSpaceOnUse" x1="385.462" x2="385.462" xlink:href="#lg3" y1="427.669" y2="407.453"/><linearGradient id="SVGID_17_" gradientUnits="userSpaceOnUse" x1="353.153" x2="383.715" y1="359.648" y2="385.116"><stop offset="0" stop-color="#e4e08e"/><stop offset="1" stop-color="#43765a"/></linearGradient><linearGradient id="SVGID_18_" gradientUnits="userSpaceOnUse" x1="390.919" x2="390.919" xlink:href="#lg5" y1="403.999" y2="373.676"/><linearGradient id="lg6"><stop offset="0" stop-color="#bada00"/><stop offset=".2187" stop-color="#b6d600"/><stop offset=".4501" stop-color="#acc900"/><stop offset=".6873" stop-color="#9ab400"/><stop offset=".9271" stop-color="#829700"/><stop offset="1" stop-color="#798c00"/></linearGradient><linearGradient id="SVGID_19_" gradientUnits="userSpaceOnUse" x1="361.536" x2="389.042" xlink:href="#lg6" y1="340.155" y2="366.642"/><linearGradient id="lg7"><stop offset="0" stop-color="#43765a" stop-opacity="0"/><stop offset="1" stop-color="#43765a"/></linearGradient><linearGradient id="SVGID_20_" gradientUnits="userSpaceOnUse" x1="391.476" x2="391.476" xlink:href="#lg7" y1="370.546" y2="343.498"/><linearGradient id="SVGID_21_" gradientUnits="userSpaceOnUse" x1="365.586" x2="398.252" xlink:href="#lg6" y1="314.278" y2="355.612"/><linearGradient id="lg8"><stop offset="0" stop-color="#dfdfdf"/><stop offset="1" stop-color="#9da6ac"/></linearGradient><linearGradient id="SVGID_22_" gradientUnits="userSpaceOnUse" x1="242.554" x2="288.527" xlink:href="#lg8" y1="142.519" y2="188.492"/><linearGradient id="lg9"><stop offset="0" stop-color="#9da6ac" stop-opacity="0"/><stop offset=".2144" stop-color="#86959f" stop-opacity=".214"/><stop offset=".5076" stop-color="#6e8492" stop-opacity=".508"/><stop offset=".7775" stop-color="#5f798a" stop-opacity=".778"/><stop offset="1" stop-color="#5a7587"/></linearGradient><linearGradient id="SVGID_23_" gradientUnits="userSpaceOnUse" x1="258.751" x2="197.751" xlink:href="#lg9" y1="112.117" y2="128.117"/><linearGradient id="SVGID_24_" gradientUnits="userSpaceOnUse" x1="234.18" x2="276.68" xlink:href="#lg9" y1="171.827" y2="218.327"/><linearGradient id="SVGID_25_" gradientUnits="userSpaceOnUse" x1="250.343" x2="226.093" xlink:href="#lg9" y1="128.743" y2="212.743"/><linearGradient id="SVGID_26_" gradientUnits="userSpaceOnUse" x1="269.348" x2="287.681" xlink:href="#lg9" y1="146.135" y2="163.469"/><linearGradient id="SVGID_27_" gradientUnits="userSpaceOnUse" x1="209.53" x2="225.782" xlink:href="#lg8" y1="98.164" y2="114.416"/><linearGradient id="lg10"><stop offset="0" stop-color="#2f73a0"/><stop offset="1" stop-color="#174461"/></linearGradient><linearGradient id="SVGID_28_" gradientUnits="userSpaceOnUse" x1="242.134" x2="329.129" xlink:href="#lg10" y1="336.537" y2="336.537"/><linearGradient id="lg11"><stop offset="0" stop-color="#843561" stop-opacity="0"/><stop offset=".2156" stop-color="#7a345e" stop-opacity=".216"/><stop offset=".5776" stop-color="#603257" stop-opacity=".578"/><stop offset="1" stop-color="#3a2f4d"/></linearGradient><linearGradient id="SVGID_29_" gradientUnits="userSpaceOnUse" x1="257.537" x2="257.537" xlink:href="#lg11" y1="273.542" y2="148.98"/><linearGradient id="lg12"><stop offset="0" stop-color="#9da6ac"/><stop offset="1" stop-color="#5a7587"/></linearGradient><linearGradient id="SVGID_30_" gradientUnits="userSpaceOnUse" x1="257.029" x2="257.029" xlink:href="#lg12" y1="187.542" y2="211.545"/><linearGradient id="SVGID_31_" gradientUnits="userSpaceOnUse" x1="284.802" x2="358.26" xlink:href="#lg11" y1="412.614" y2="296.396"/><linearGradient id="SVGID_32_" gradientUnits="userSpaceOnUse" x1="287.536" x2="354.536" xlink:href="#lg11" y1="413.732" y2="307.732"/><linearGradient id="SVGID_33_" gradientUnits="userSpaceOnUse" x1="120.647" x2="164.167" xlink:href="#lg8" y1="126.226" y2="169.745"/><linearGradient id="SVGID_34_" gradientUnits="userSpaceOnUse" x1="135.98" x2="78.236" xlink:href="#lg9" y1="97.447" y2="112.593"/><linearGradient id="SVGID_35_" gradientUnits="userSpaceOnUse" x1="112.721" x2="152.952" xlink:href="#lg9" y1="153.969" y2="197.987"/><linearGradient id="SVGID_36_" gradientUnits="userSpaceOnUse" x1="128.02" x2="105.065" xlink:href="#lg9" y1="113.185" y2="192.701"/><linearGradient id="SVGID_37_" gradientUnits="userSpaceOnUse" x1="146.011" x2="163.366" xlink:href="#lg9" y1="129.649" y2="146.057"/><linearGradient id="SVGID_38_" gradientUnits="userSpaceOnUse" x1="206" x2="245.188" xlink:href="#lg4" y1="408.678" y2="447.867"/><linearGradient id="SVGID_39_" gradientUnits="userSpaceOnUse" x1="221.115" x2="246.329" xlink:href="#lg5" y1="413.825" y2="408.698"/><linearGradient id="SVGID_40_" gradientUnits="userSpaceOnUse" x1="226.224" x2="226.224" xlink:href="#lg5" y1="438.075" y2="449.764"/><linearGradient id="SVGID_41_" gradientUnits="userSpaceOnUse" x1="124.644" x2="207.296" xlink:href="#lg10" y1="309.954" y2="309.954"/><linearGradient id="SVGID_42_" gradientUnits="userSpaceOnUse" x1="255" x2="255" xlink:href="#lg6" y1="449.061" y2="522.011"/><linearGradient id="SVGID_43_" gradientUnits="userSpaceOnUse" x1="243.515" x2="285.955" xlink:href="#lg7" y1="437.557" y2="609.514"/><linearGradient id="SVGID_44_" gradientUnits="userSpaceOnUse" x1="133.078" x2="133.078" xlink:href="#lg11" y1="221.96" y2="97.397"/><linearGradient id="SVGID_45_" gradientUnits="userSpaceOnUse" x1="133.078" x2="133.078" xlink:href="#lg12" y1="138.508" y2="162.511"/><linearGradient id="SVGID_46_" gradientUnits="userSpaceOnUse" x1="162.014" x2="233.117" xlink:href="#lg11" y1="410.773" y2="298.283"/><linearGradient id="SVGID_47_" gradientUnits="userSpaceOnUse" x1="164.536" x2="229.18" xlink:href="#lg11" y1="412.227" y2="309.954"/><linearGradient id="SVGID_48_" gradientUnits="userSpaceOnUse" x1="162.395" x2="178.647" xlink:href="#lg8" y1="102.182" y2="118.434"/><linearGradient id="SVGID_49_" gradientUnits="userSpaceOnUse" x1="140.632" x2="156.884" xlink:href="#lg8" y1="45.395" y2="61.647"/><linearGradient id="SVGID_50_" gradientUnits="userSpaceOnUse" x1="160.982" x2="182.003" xlink:href="#lg8" y1="66.643" y2="87.663"/><linearGradient id="SVGID_51_" gradientUnits="userSpaceOnUse" x1="122.399" x2="89.501" xlink:href="#lg7" y1="509.066" y2="420.872"/><linearGradient id="SVGID_52_" gradientUnits="userSpaceOnUse" x1="22.691" x2="80.313" xlink:href="#lg6" y1="393.192" y2="450.813"/><linearGradient id="SVGID_53_" gradientUnits="userSpaceOnUse" x1="44.917" x2="81.99" xlink:href="#lg7" y1="400.76" y2="393.221"/><linearGradient id="SVGID_54_" gradientUnits="userSpaceOnUse" x1="52.428" x2="52.428" xlink:href="#lg7" y1="436.416" y2="453.603"/><linearGradient id="SVGID_55_" gradientUnits="userSpaceOnUse" x1="84.767" x2="131.322" xlink:href="#lg6" y1="413.731" y2="460.286"/><linearGradient id="SVGID_56_" gradientUnits="userSpaceOnUse" x1="102.724" x2="132.677" xlink:href="#lg7" y1="419.846" y2="413.755"/><linearGradient id="SVGID_57_" gradientUnits="userSpaceOnUse" x1="108.793" x2="108.793" xlink:href="#lg7" y1="448.654" y2="462.54"/><linearGradient id="SVGID_58_" gradientUnits="userSpaceOnUse" x1="406.434" x2="416.434" xlink:href="#lg1" y1="382.218" y2="455.218"/><linearGradient id="lg13"><stop offset="0" stop-color="#2f73a0" stop-opacity="0"/><stop offset="1" stop-color="#2f73a0"/></linearGradient><linearGradient id="SVGID_59_" gradientUnits="userSpaceOnUse" x1="410.333" x2="410.333" xlink:href="#lg13" y1="427.542" y2="332.118"/><linearGradient id="SVGID_60_" gradientUnits="userSpaceOnUse" x1="510.181" x2="410.553" xlink:href="#lg13" y1="441.528" y2="341.901"/><linearGradient id="SVGID_61_" gradientUnits="userSpaceOnUse" x1="403.266" x2="403.266" xlink:href="#lg12" y1="366.145" y2="387.316"/><linearGradient id="SVGID_62_" gradientUnits="userSpaceOnUse" x1="374.718" x2="374.718" xlink:href="#lg8" y1="366.145" y2="387.316"/><linearGradient id="SVGID_63_" gradientUnits="userSpaceOnUse" x1="377.583" x2="377.583" xlink:href="#lg10" y1="393.544" y2="426.827"/><linearGradient id="SVGID_64_" gradientUnits="userSpaceOnUse" x1="377.583" x2="377.583" xlink:href="#lg10" y1="422.754" y2="456.037"/><linearGradient id="SVGID_65_" gradientUnits="userSpaceOnUse" x1="280.261" x2="349.017" xlink:href="#lg8" y1="-24.283" y2="71.002"/><linearGradient id="SVGID_66_" gradientTransform="matrix(1 0 0 -1 0 -1810.285)" gradientUnits="userSpaceOnUse" x1="305.724" x2="348.996" xlink:href="#lg9" y1="-1868.902" y2="-1877.701"/><linearGradient id="SVGID_67_" gradientUnits="userSpaceOnUse" x1="241.545" x2="310.302" xlink:href="#lg8" y1="3.654" y2="98.938"/><linearGradient id="SVGID_68_" gradientTransform="matrix(1 0 0 -1 0 -1810.285)" gradientUnits="userSpaceOnUse" x1="244.688" x2="274.426" xlink:href="#lg9" y1="-1850.569" y2="-1856.616"/><linearGradient id="SVGID_69_" gradientUnits="userSpaceOnUse" x1="371.834" x2="391.324" xlink:href="#lg8" y1="-5.589" y2="42.053"/><linearGradient id="SVGID_70_" gradientTransform="matrix(1 0 0 -1 0 -1810.285)" gradientUnits="userSpaceOnUse" x1="375.715" x2="405.453" xlink:href="#lg9" y1="-1850.569" y2="-1856.616"/><linearGradient id="SVGID_71_" gradientUnits="userSpaceOnUse" x1="370.874" x2="387.125" xlink:href="#lg8" y1="71.569" y2="87.821"/><linearGradient id="SVGID_72_" gradientUnits="userSpaceOnUse" x1="377.276" x2="438.866" xlink:href="#lg1" y1="144.521" y2="206.112"/><g><g><path d="m485.638 510h-461.276c-13.455 0-24.362-10.907-24.362-24.362v-461.276c0-13.455 10.907-24.362 24.362-24.362h461.275c13.456 0 24.363 10.907 24.363 24.362v461.275c0 13.456-10.907 24.363-24.362 24.363z" fill="url(#SVGID_1_)"/></g><g><path d="m411.717 184.202h25.9c7.252 0 13.131 5.879 13.131 13.131 0 7.252-5.879 13.131-13.131 13.131h-25.9c-7.252 0-13.131-5.879-13.131-13.131-.001-7.252 5.878-13.131 13.131-13.131z" fill="url(#SVGID_2_)"/></g><path d="m27.42 201.012h7.964c0-9.968 8.081-18.049 18.049-18.049h35.6c9.968 0 18.049 8.081 18.049 18.049s-8.081 18.049-18.049 18.049h-7.963c0 9.968-8.081 18.049-18.049 18.049h-35.6c-9.968 0-18.049-8.081-18.049-18.049-.001-9.968 8.08-18.049 18.048-18.049z" fill="url(#SVGID_3_)"/><g><g><path d="m429.286 364.982h19.938v44.934h-19.938z" fill="url(#SVGID_4_)"/><path d="m437.993 409.917h-6.312v-24.125c0-1.743 1.413-3.156 3.156-3.156 1.743 0 3.156 1.413 3.156 3.156z" fill="url(#SVGID_5_)"/><path d="m440.728 380.251c1.511 0 2.735 1.225 2.735 2.735v14.868c0 1.511 1.225 2.735 2.735 2.735h.291c1.511 0 2.735-1.225 2.735-2.735v-32.872h-11.231v12.533c0 1.511 1.224 2.736 2.735 2.736z" fill="url(#SVGID_6_)"/></g><path d="m449.224 364.984v31.707l-19.807-19.806-.13 1.712v-13.613z" fill="url(#SVGID_7_)"/><g><path d="m476.988 353.821-31.713-48.373c-2.842-4.335-9.197-4.335-12.039 0l-30.849 47.055-1.792 2.592c-1.516 2.124-2.314 4.796-2.026 7.665.524 5.219 4.735 9.457 9.951 10.009 1.978.209 3.863-.097 5.542-.8 2.522-1.056 5.431-.413 7.342 1.542 2.035 2.081 4.871 3.374 8.013 3.374 2.288 0 4.416-.685 6.19-1.861 2.204-1.461 5.091-1.461 7.296 0 1.774 1.176 3.902 1.861 6.19 1.861 3.142 0 5.979-1.292 8.013-3.374 1.911-1.955 4.821-2.598 7.342-1.542 1.678.703 3.564 1.009 5.542.8 5.216-.552 9.427-4.789 9.951-10.009.3-2.989-.578-5.763-2.219-7.928-.252-.332-.506-.663-.734-1.011z" fill="url(#SVGID_8_)"/><path d="m479.942 362.758c-.526 5.222-4.734 9.459-9.952 10.011-1.978.21-3.863-.097-5.542-.799-2.521-1.056-5.432-.412-7.343 1.54-2.032 2.083-4.869 3.375-8.012 3.375-2.289 0-4.414-.686-6.19-1.86-.177-.118-.362-.227-.547-.328l-32.931-32.931 23.808-36.319c2.845-4.334 9.199-4.334 12.043 0l31.711 48.374c.227.349.484.678.736 1.01 1.642 2.167 2.517 4.94 2.219 7.927z" fill="url(#SVGID_9_)"/><path d="m470.185 328.118-25.995-39.652c-2.33-3.554-7.539-3.554-9.869 0l-25.287 38.572-1.469 2.125c-1.243 1.741-1.897 3.931-1.661 6.284.43 4.278 3.881 7.752 8.157 8.204 1.621.172 3.167-.079 4.543-.656 2.067-.866 4.452-.339 6.018 1.264 1.668 1.706 3.993 2.766 6.569 2.766 1.876 0 3.62-.561 5.074-1.525 1.807-1.197 4.173-1.197 5.98 0 1.454.964 3.199 1.525 5.074 1.525 2.576 0 4.901-1.059 6.569-2.766 1.567-1.603 3.951-2.13 6.018-1.264 1.376.576 2.921.827 4.543.656 4.276-.453 7.727-3.926 8.157-8.204.246-2.45-.474-4.724-1.819-6.499-.206-.273-.415-.544-.602-.83z" fill="url(#SVGID_10_)"/><path d="m472.607 335.445c-.429 4.279-3.884 7.751-8.159 8.205-1.62.172-3.164-.08-4.54-.656-2.066-.867-4.452-.337-6.022 1.262-.892.913-1.969 1.641-3.173 2.117l-32.83-32.834 16.436-25.071c2.331-3.556 7.541-3.556 9.872 0l25.992 39.651c.189.286.396.555.602.829 1.347 1.771 2.066 4.048 1.822 6.497z" fill="url(#SVGID_11_)"/><path d="m464.731 300.84-21.411-32.66c-1.919-2.927-6.209-2.927-8.128 0l-20.828 31.77-1.21 1.75c-1.024 1.434-1.563 3.238-1.368 5.175.354 3.524 3.197 6.385 6.719 6.757 1.336.141 2.608-.065 3.742-.54 1.703-.713 3.667-.279 4.957 1.041 1.374 1.405 3.289 2.278 5.41 2.278 1.545 0 2.981-.462 4.179-1.256 1.488-.986 3.438-.986 4.926 0 1.198.794 2.634 1.256 4.179 1.256 2.122 0 4.037-.873 5.41-2.278 1.29-1.32 3.255-1.754 4.957-1.041 1.133.475 2.406.682 3.742.54 3.522-.373 6.365-3.234 6.719-6.757.203-2.018-.39-3.891-1.498-5.353-.171-.223-.343-.446-.497-.682z" fill="url(#SVGID_12_)"/></g></g><g><g><path d="m375.493 401.144h19.938v44.934h-19.938z" fill="url(#SVGID_13_)"/><path d="m384.2 446.079h-6.312v-24.125c0-1.743 1.413-3.156 3.156-3.156 1.743 0 3.156 1.413 3.156 3.156z" fill="url(#SVGID_14_)"/><path d="m386.935 416.413c1.511 0 2.735 1.225 2.735 2.735v14.868c0 1.511 1.225 2.735 2.735 2.735h.291c1.511 0 2.735-1.225 2.735-2.735v-32.872h-11.231v12.533c0 1.511 1.224 2.736 2.735 2.736z" fill="url(#SVGID_15_)"/></g><path d="m395.431 401.146v31.707l-19.807-19.807-.13 1.713v-13.613z" fill="url(#SVGID_16_)"/><g><path d="m423.195 389.983-31.713-48.373c-2.842-4.335-9.197-4.335-12.039 0l-30.849 47.055-1.792 2.592c-1.516 2.125-2.314 4.796-2.026 7.666.524 5.219 4.735 9.456 9.951 10.009 1.978.209 3.863-.097 5.542-.8 2.522-1.056 5.431-.413 7.342 1.542 2.035 2.082 4.871 3.374 8.013 3.374 2.288 0 4.416-.685 6.19-1.861 2.204-1.46 5.091-1.46 7.296 0 1.774 1.176 3.902 1.861 6.19 1.861 3.142 0 5.979-1.292 8.013-3.374 1.911-1.955 4.821-2.598 7.342-1.542 1.678.703 3.564 1.009 5.542.8 5.216-.552 9.427-4.789 9.951-10.009.3-2.989-.578-5.763-2.219-7.928-.252-.333-.506-.664-.734-1.012z" fill="url(#SVGID_17_)"/><path d="m426.149 398.92c-.526 5.222-4.734 9.459-9.952 10.011-1.978.21-3.863-.097-5.542-.799-2.521-1.056-5.432-.412-7.343 1.54-2.032 2.083-4.869 3.375-8.012 3.375-2.289 0-4.414-.686-6.19-1.86-.177-.118-.362-.227-.547-.328l-32.931-32.931 23.808-36.319c2.845-4.334 9.199-4.334 12.043 0l31.711 48.374c.227.349.484.678.736 1.01 1.642 2.167 2.517 4.94 2.219 7.927z" fill="url(#SVGID_18_)"/><path d="m416.392 364.28-25.995-39.652c-2.33-3.554-7.539-3.554-9.869 0l-25.287 38.572-1.469 2.125c-1.243 1.741-1.897 3.931-1.661 6.284.43 4.278 3.881 7.752 8.157 8.204 1.621.172 3.167-.079 4.543-.656 2.067-.866 4.452-.339 6.018 1.264 1.668 1.706 3.993 2.766 6.569 2.766 1.876 0 3.62-.561 5.074-1.525 1.807-1.197 4.173-1.197 5.98 0 1.454.964 3.199 1.525 5.074 1.525 2.576 0 4.901-1.059 6.569-2.766 1.567-1.603 3.951-2.13 6.018-1.264 1.376.576 2.921.827 4.543.656 4.276-.453 7.727-3.926 8.157-8.204.246-2.45-.474-4.724-1.819-6.499-.206-.274-.415-.544-.602-.83z" fill="url(#SVGID_19_)"/><path d="m418.814 371.607c-.429 4.279-3.884 7.751-8.159 8.205-1.62.172-3.164-.08-4.54-.656-2.066-.867-4.452-.337-6.022 1.262-.892.913-1.969 1.641-3.173 2.117l-32.83-32.835 16.436-25.071c2.331-3.556 7.541-3.556 9.872 0l25.992 39.651c.189.286.396.555.602.829 1.347 1.772 2.066 4.049 1.822 6.498z" fill="url(#SVGID_20_)"/><path d="m410.938 337.002-21.411-32.66c-1.919-2.927-6.209-2.927-8.128 0l-20.828 31.77-1.21 1.75c-1.024 1.434-1.563 3.238-1.368 5.175.354 3.524 3.197 6.385 6.719 6.757 1.336.141 2.608-.065 3.742-.54 1.702-.713 3.667-.279 4.957 1.041 1.374 1.405 3.289 2.278 5.41 2.278 1.545 0 2.981-.462 4.179-1.256 1.488-.986 3.438-.986 4.926 0 1.198.794 2.634 1.256 4.179 1.256 2.122 0 4.037-.873 5.41-2.278 1.29-1.32 3.255-1.754 4.957-1.041 1.133.475 2.406.681 3.742.54 3.522-.373 6.365-3.234 6.719-6.757.203-2.018-.39-3.891-1.498-5.353-.171-.223-.343-.447-.497-.682z" fill="url(#SVGID_21_)"/></g></g><g><g><g><path d="m286.85 152.112c.471-1.574.732-3.239.732-4.966 0-9.461-7.601-17.136-17.028-17.279-.352-.961-.768-1.89-1.233-2.79 4.879-3.124 8.122-8.58 8.122-14.804 0-9.71-7.871-17.581-17.581-17.581s-17.581 7.871-17.581 17.581c0 .715.055 1.415.138 2.107-11.016 2.374-19.273 12.167-19.273 23.892 0 4.693 1.325 9.075 3.617 12.798-8.96 3.626-15.284 12.404-15.284 22.664 0 13.501 10.945 24.445 24.445 24.445 8.123 0 15.316-3.965 19.761-10.061 4.445 6.096 11.638 10.061 19.761 10.061 13.501 0 24.445-10.945 24.445-24.445.001-9.381-5.286-17.523-13.041-21.622z" fill="url(#SVGID_22_)"/><path d="m259.862 94.693c-9.71 0-17.581 7.871-17.581 17.581 0 .715.055 1.415.138 2.107 1.668-.359 3.397-.553 5.173-.553 9.465 0 17.667 5.382 21.729 13.25 4.879-3.124 8.122-8.58 8.122-14.804 0-9.71-7.871-17.581-17.581-17.581z" fill="url(#SVGID_23_)"/><circle cx="235.924" cy="173.735" fill="url(#SVGID_24_)" r="24.445"/><path d="m247.592 113.828c-13.501 0-24.445 10.945-24.445 24.445 0 4.693 1.325 9.075 3.617 12.798 2.83-1.145 5.92-1.781 9.161-1.781 8.808 0 16.526 4.66 20.828 11.648 8.96-3.626 15.284-12.404 15.284-22.664 0-13.502-10.944-24.446-24.445-24.446z" fill="url(#SVGID_25_)"/><path d="m275.447 149.289c4.119 0 7.998 1.023 11.403 2.823.471-1.574.732-3.239.732-4.966 0-9.55-7.742-17.292-17.292-17.292s-17.292 7.742-17.292 17.292c0 4.087 1.426 7.836 3.796 10.796 4.484-5.29 11.174-8.653 18.653-8.653z" fill="url(#SVGID_26_)"/></g><circle cx="216.58" cy="105.214" fill="url(#SVGID_27_)" r="10.167"/></g><g><path d="m298.876 272.483v-67.15h-83.694v67.15c0 45.587-12.015 90.368-34.835 129.832l-37.832 65.425h229.027l-37.832-65.425c-22.818-39.463-34.834-84.245-34.834-129.832z" fill="url(#SVGID_28_)"/><path d="m215.182 205.333v5.28l84.71 84.71c-.67-7.577-1.016-15.196-1.016-22.84v-67.15z" fill="url(#SVGID_29_)"/><path d="m297.779 209.709h-81.5c-6.489 0-11.75-5.261-11.75-11.75v-6c0-6.489 5.261-11.75 11.75-11.75h81.5c6.489 0 11.75 5.261 11.75 11.75v6c0 6.489-5.26 11.75-11.75 11.75z" fill="url(#SVGID_30_)"/><g><path d="m180.347 402.315-37.832 65.425h229.027l-37.832-65.425c-9.893-17.109-17.752-35.219-23.485-53.96h-106.392c-5.733 18.741-13.592 36.851-23.486 53.96z" fill="url(#SVGID_31_)"/><path d="m180.347 402.315-37.832 65.425h229.027l-37.832-65.425c-5.281-9.134-9.976-18.555-14.085-28.203h-125.192c-4.109 9.648-8.804 19.07-14.086 28.203z" fill="url(#SVGID_32_)"/></g></g><g><path d="m162.579 135.307c.446-1.49.693-3.066.693-4.701 0-8.956-7.195-16.221-16.119-16.357-.333-.91-.727-1.789-1.167-2.642 4.619-2.957 7.689-8.122 7.689-14.014 0-9.191-7.451-16.643-16.643-16.643-9.191 0-16.643 7.451-16.643 16.643 0 .676.052 1.34.131 1.995-10.428 2.247-18.244 11.517-18.244 22.617 0 4.442 1.254 8.591 3.424 12.115-8.482 3.432-14.469 11.742-14.469 21.454 0 12.78 10.36 23.141 23.141 23.141 7.689 0 14.498-3.753 18.706-9.524 4.208 5.771 11.017 9.524 18.706 9.524 12.78 0 23.141-10.36 23.141-23.141 0-8.879-5.005-16.587-12.346-20.467z" fill="url(#SVGID_33_)"/><path d="m137.032 80.952c-9.191 0-16.643 7.451-16.643 16.643 0 .676.052 1.34.131 1.995 1.579-.34 3.216-.524 4.896-.524 8.959 0 16.724 5.095 20.569 12.543 4.619-2.957 7.689-8.122 7.689-14.014 0-9.192-7.451-16.643-16.642-16.643z" fill="url(#SVGID_34_)"/><circle cx="114.372" cy="155.775" fill="url(#SVGID_35_)" r="23.141"/><path d="m125.416 99.066c-12.78 0-23.141 10.36-23.141 23.141 0 4.442 1.254 8.591 3.424 12.115 2.679-1.084 5.604-1.686 8.672-1.686 8.338 0 15.644 4.411 19.717 11.026 8.482-3.432 14.469-11.742 14.469-21.454 0-12.782-10.361-23.142-23.141-23.142z" fill="url(#SVGID_36_)"/><path d="m151.784 132.635c3.899 0 7.571.969 10.795 2.672.446-1.49.693-3.066.693-4.701 0-9.04-7.329-16.369-16.369-16.369s-16.369 7.329-16.369 16.369c0 3.869 1.35 7.418 3.594 10.219 4.244-5.008 10.577-8.19 17.656-8.19z" fill="url(#SVGID_37_)"/></g><g><g><g><path d="m242.953 408.032c-2.166 0-4.25.346-6.203.983-2.089-6.814-8.429-11.769-15.928-11.769-9.2 0-16.657 7.458-16.657 16.657 0 1.329.157 2.622.451 3.861-7.851.553-14.048 7.097-14.048 15.089 0 8.355 6.773 15.127 15.127 15.127h37.258c11.031 0 19.974-8.943 19.974-19.974 0-11.032-8.943-19.974-19.974-19.974z" fill="url(#SVGID_38_)"/><path d="m222.978 428.007c0 .81.049 1.609.143 2.394-.751.106-1.52.16-2.299.16-9.2 0-16.656-7.458-16.656-16.658 0-9.198 7.456-16.656 16.656-16.656 7.498 0 13.841 4.955 15.928 11.77-7.995 2.606-13.772 10.123-13.772 18.99z" fill="url(#SVGID_39_)"/><path d="m190.684 434.736c.927 7.466 7.294 13.244 15.011 13.244h37.258c8.67 0 16.048-5.524 18.811-13.244z" fill="url(#SVGID_40_)"/></g></g></g><g><path d="m174.925 272.483v-120.315h-83.694v120.315c0 45.587-12.015 90.368-34.835 129.832l-26.396 45.649v19.777h217.592l-37.832-65.425c-22.82-39.464-34.835-84.246-34.835-129.833z" fill="url(#SVGID_41_)"/><path d="m510 485.638v-37.658h-510v37.658c0 13.455 10.907 24.362 24.362 24.362h461.275c13.456 0 24.363-10.907 24.363-24.362z" fill="url(#SVGID_42_)"/><path d="m510 485.638v-6.077h-127.059c-1.885-5.699-7.053-9.902-13.273-10.341.294-1.239.451-2.532.451-3.861 0-9.2-7.458-16.657-16.657-16.657-7.499 0-13.839 4.955-15.928 11.769-1.953-.637-4.037-.983-6.203-.983-7.794 0-14.528 4.474-17.82 10.985-1.252-.579-2.641-.912-4.111-.912-4.416 0-8.149 2.918-9.379 6.93-1.15-.375-2.377-.579-3.652-.579-3.347 0-6.36 1.405-8.502 3.649h-287.867v6.077c0 13.455 10.907 24.362 24.362 24.362h461.275c13.456 0 24.363-10.907 24.363-24.362z" fill="url(#SVGID_43_)"/><path d="m91.231 153.751v5.28l83.694 84.709v-89.989z" fill="url(#SVGID_44_)"/><path d="m173.828 160.675h-81.5c-6.489 0-11.75-5.261-11.75-11.75v-6c0-6.489 5.261-11.75 11.75-11.75h81.5c6.489 0 11.75 5.261 11.75 11.75v6c0 6.489-5.261 11.75-11.75 11.75z" fill="url(#SVGID_45_)"/><g><path d="m56.396 402.315-26.396 45.649v19.777h217.592l-37.832-65.425c-9.893-17.109-17.752-35.219-23.485-53.96h-106.394c-5.733 18.74-13.592 36.85-23.485 53.959z" fill="url(#SVGID_46_)"/><path d="m56.396 402.315-26.396 45.649v19.777h217.592l-37.832-65.425c-5.281-9.134-9.976-18.555-14.085-28.203h-125.194c-4.109 9.647-8.804 19.069-14.085 28.202z" fill="url(#SVGID_47_)"/></g></g><circle cx="169.445" cy="109.233" fill="url(#SVGID_48_)" r="10.167"/><circle cx="147.682" cy="52.445" fill="url(#SVGID_49_)" r="10.167"/><circle cx="170.101" cy="75.761" fill="url(#SVGID_50_)" r="13.15"/></g><path d="m209.63 510-62.02-62.02h-134.881l62.729 62.02z" fill="url(#SVGID_51_)"/><g><g><g><path d="m77.026 392.241c-3.184 0-6.249.509-9.12 1.446-3.071-10.019-12.394-17.305-23.42-17.305-13.527 0-24.492 10.966-24.492 24.492 0 1.954.23 3.855.663 5.677-11.545.814-20.657 10.435-20.657 22.186 0 12.284 9.958 22.243 22.243 22.243h54.783c16.22 0 29.369-13.149 29.369-29.369s-13.149-29.37-29.369-29.37z" fill="url(#SVGID_52_)"/><path d="m47.656 421.612c0 1.191.072 2.365.21 3.52-1.105.156-2.234.235-3.381.235-13.527 0-24.491-10.966-24.491-24.493 0-13.524 10.964-24.491 24.491-24.491 11.026 0 20.351 7.286 23.42 17.306-11.755 3.832-20.249 14.885-20.249 27.923z" fill="url(#SVGID_53_)"/><path d="m.171 431.506c1.363 10.978 10.725 19.474 22.071 19.474h54.783c12.748 0 23.597-8.123 27.659-19.474z" fill="url(#SVGID_54_)"/></g></g></g><g><g><g><path d="m128.666 412.963c-2.573 0-5.049.411-7.369 1.168-2.481-8.095-10.014-13.982-18.922-13.982-10.929 0-19.788 8.86-19.788 19.788 0 1.579.186 3.115.535 4.587-9.327.657-16.689 8.431-16.689 17.925 0 9.925 8.046 17.971 17.971 17.971h44.261c13.105 0 23.729-10.624 23.729-23.729s-10.623-23.728-23.728-23.728z" fill="url(#SVGID_55_)"/><path d="m104.937 436.693c0 .963.058 1.911.17 2.844-.893.126-1.805.19-2.732.19-10.929 0-19.787-8.86-19.787-19.789 0-10.927 8.858-19.787 19.787-19.787 8.908 0 16.442 5.887 18.922 13.982-9.497 3.097-16.36 12.027-16.36 22.56z" fill="url(#SVGID_56_)"/><path d="m66.573 444.687c1.101 8.869 8.665 15.734 17.832 15.734h44.261c10.3 0 19.065-6.563 22.347-15.734z" fill="url(#SVGID_57_)"/></g></g></g><g><path d="m310.667 373.382h199.333v74.598h-199.333z" fill="url(#SVGID_58_)"/><path d="m310.667 373.382v10.665l63.933 63.933h135.4v-74.598z" fill="url(#SVGID_59_)"/><path d="m448.667 373.382h61.333v74.598h-61.333z" fill="url(#SVGID_60_)"/><g><path d="m510 384.047h-202.457c-6.082 0-11.012-4.93-11.012-11.012v-4.742c0-6.082 4.93-11.012 11.012-11.012h202.457z" fill="url(#SVGID_61_)"/><path d="m448.281 384.047h-140.738c-6.082 0-11.012-4.93-11.012-11.012v-4.742c0-6.082 4.93-11.012 11.012-11.012h140.738c2.553 0 4.623 2.07 4.623 4.623v17.52c0 2.553-2.07 4.623-4.623 4.623z" fill="url(#SVGID_62_)"/></g><g><path d="m431.667 410.049h-108.167c-1.565 0-2.833-1.269-2.833-2.833v-11.839c0-1.565 1.269-2.833 2.833-2.833h108.167c1.565 0 2.833 1.269 2.833 2.833v11.839c0 1.565-1.269 2.833-2.833 2.833z" fill="url(#SVGID_63_)"/><path d="m431.667 439.26h-108.167c-1.565 0-2.833-1.269-2.833-2.833v-11.839c0-1.565 1.269-2.833 2.833-2.833h108.167c1.565 0 2.833 1.269 2.833 2.833v11.839c0 1.564-1.269 2.833-2.833 2.833z" fill="url(#SVGID_64_)"/></g></g><g><g><g><g><g><g><path d="m343.202 68.56c-3.716 0-7.294-.594-10.645-1.688-3.585 11.695-14.466 20.199-27.335 20.199-15.788 0-28.587-12.799-28.587-28.587 0-2.281.269-4.499.774-6.626-13.474-.95-24.11-12.18-24.11-25.895-.001-14.34 11.622-25.963 25.96-25.963h78.027c18.932 0 20.195 15.348 20.195 34.28s-15.347 34.28-34.279 34.28z" fill="url(#SVGID_65_)"/><path d="m308.921 34.279c0-1.39.084-2.761.245-4.108-1.289-.182-2.608-.274-3.946-.274-15.788 0-28.585 12.8-28.585 28.588 0 15.786 12.797 28.585 28.585 28.585 12.869 0 23.753-8.504 27.336-20.199-13.72-4.474-23.635-17.375-23.635-32.592z" fill="url(#SVGID_66_)"/></g></g></g><g><g><g><path d="m270.444 47.117c-2.554 0-5.013-.408-7.316-1.16-2.463 8.037-9.942 13.881-18.786 13.881-10.85 0-19.646-8.796-19.646-19.646 0-1.568.185-3.092.532-4.554-9.26-.653-16.569-8.37-16.569-17.796 0-9.854 7.988-17.842 17.842-17.842h52.611c13.011 0 14.891 10.547 14.891 23.558s-10.548 23.559-23.559 23.559z" fill="url(#SVGID_67_)"/><path d="m246.885 23.558c0-.956.057-1.897.169-2.823-.886-.125-1.792-.188-2.712-.188-10.85 0-19.645 8.797-19.645 19.647 0 10.848 8.795 19.645 19.645 19.645 8.844 0 16.324-5.845 18.787-13.882-9.43-3.076-16.244-11.942-16.244-22.399z" fill="url(#SVGID_68_)"/></g></g></g><g><g><g><path d="m401.471 47.117c-2.554 0-5.013-.408-7.316-1.16-2.463 8.037-9.942 13.881-18.786 13.881-10.85 0-19.646-8.796-19.646-19.646 0-1.568.185-3.092.532-4.554-9.26-.653-16.569-8.37-16.569-17.796-.001-9.854 7.987-17.842 17.841-17.842h43.944c13.011 0 23.559 10.547 23.559 23.558s-10.548 23.559-23.559 23.559z" fill="url(#SVGID_69_)"/><path d="m377.912 23.558c0-.956.057-1.897.169-2.823-.886-.125-1.792-.188-2.712-.188-10.85 0-19.645 8.797-19.645 19.647 0 10.848 8.795 19.645 19.645 19.645 8.844 0 16.324-5.845 18.787-13.882-9.43-3.076-16.244-11.942-16.244-22.399z" fill="url(#SVGID_70_)"/></g></g></g></g></g><circle cx="377.924" cy="78.619" fill="url(#SVGID_71_)" r="10.167"/></g></g><path d="m440.667 145.307h-9.438c.402-1.58.638-3.226.638-4.931 0-11.037-8.947-19.984-19.984-19.984h-39.416c-11.037 0-19.984 8.947-19.984 19.984 0 1.705.237 3.351.638 4.931h-8.279c-8.115 0-14.693 6.578-14.693 14.693s6.578 14.693 14.693 14.693h95.824c8.115 0 14.693-6.578 14.693-14.693s-6.578-14.693-14.692-14.693z" fill="url(#SVGID_72_)"/></svg>