<svg id="Capa_1" enable-background="new 0 0 510 510" height="512" viewBox="0 0 510 510" width="512" xmlns="http://www.w3.org/2000/svg" xmlns:xlink="http://www.w3.org/1999/xlink"><linearGradient id="SVGID_1_" gradientUnits="userSpaceOnUse" x1="255" x2="255" y1="198" y2="382.068"><stop offset="0" stop-color="#fff5d9"/><stop offset="1" stop-color="#ffce47"/></linearGradient><linearGradient id="lg1"><stop offset="0" stop-color="#2f73a0"/><stop offset="1" stop-color="#174461"/></linearGradient><linearGradient id="SVGID_2_" gradientUnits="userSpaceOnUse" x1="305.326" x2="305.326" xlink:href="#lg1" y1="122.088" y2="149.354"/><linearGradient id="SVGID_3_" gradientUnits="userSpaceOnUse" x1="321.037" x2="321.037" xlink:href="#lg1" y1="170.845" y2="198.112"/><linearGradient id="SVGID_4_" gradientUnits="userSpaceOnUse" x1="381.857" x2="381.857" xlink:href="#lg1" y1="141.346" y2="168.613"/><linearGradient id="lg2"><stop offset="0" stop-color="#ff9356" stop-opacity="0"/><stop offset="1" stop-color="#ff755c"/></linearGradient><linearGradient id="SVGID_5_" gradientUnits="userSpaceOnUse" x1="59.036" x2="20.289" xlink:href="#lg2" y1="418.072" y2="363.346"/><linearGradient id="SVGID_6_" gradientUnits="userSpaceOnUse" x1="45.018" x2="-31.278" xlink:href="#lg2" y1="429.606" y2="265.83"/><linearGradient id="SVGID_7_" gradientUnits="userSpaceOnUse" x1="99.947" x2="184.832" y1="64.818" y2="149.704"><stop offset="0" stop-color="#ffd945"/><stop offset=".3043" stop-color="#ffcd3e"/><stop offset=".8558" stop-color="#ffad2b"/><stop offset="1" stop-color="#ffa325"/></linearGradient><linearGradient id="lg3"><stop offset="0" stop-color="#ff7044"/><stop offset="1" stop-color="#f82814"/></linearGradient><linearGradient id="SVGID_8_" gradientUnits="userSpaceOnUse" x1="127.731" x2="223.231" xlink:href="#lg3" y1="260.191" y2="418.191"/><linearGradient id="lg4"><stop offset="0" stop-color="#f82814" stop-opacity="0"/><stop offset="1" stop-color="#c0272d"/></linearGradient><linearGradient id="SVGID_9_" gradientUnits="userSpaceOnUse" x1="130.507" x2="140.507" xlink:href="#lg4" y1="271.953" y2="365.953"/><linearGradient id="SVGID_10_" gradientUnits="userSpaceOnUse" x1="189.755" x2="14.755" xlink:href="#lg4" y1="298.594" y2="236.094"/><linearGradient id="SVGID_11_" gradientUnits="userSpaceOnUse" x1="160.602" x2="83.936" xlink:href="#lg4" y1="356.299" y2="285.633"/><linearGradient id="SVGID_12_" gradientUnits="userSpaceOnUse" x1="113.567" x2="209.067" xlink:href="#lg3" y1="268.752" y2="426.752"/><linearGradient id="SVGID_13_" gradientUnits="userSpaceOnUse" x1="153.1" x2="64.1" xlink:href="#lg4" y1="315.076" y2="271.576"/><linearGradient id="SVGID_14_" gradientUnits="userSpaceOnUse" x1="182.057" x2="88.048" xlink:href="#lg4" y1="391.442" y2="391.442"/><linearGradient id="SVGID_15_" gradientUnits="userSpaceOnUse" x1="73.814" x2="143.814" xlink:href="#lg3" y1="372.768" y2="427.268"/><linearGradient id="SVGID_16_" gradientUnits="userSpaceOnUse" x1="223.966" x2="296.856" xlink:href="#lg3" y1="298.006" y2="370.896"/><linearGradient id="SVGID_17_" gradientUnits="userSpaceOnUse" x1="296.395" x2="170.983" xlink:href="#lg4" y1="346.886" y2="253.908"/><linearGradient id="SVGID_18_" gradientUnits="userSpaceOnUse" x1="275.995" x2="212.17" xlink:href="#lg4" y1="376.773" y2="317.943"/><linearGradient id="SVGID_19_" gradientUnits="userSpaceOnUse" x1="246.658" x2="255.471" xlink:href="#lg3" y1="294.277" y2="353.182"/><linearGradient id="SVGID_20_" gradientUnits="userSpaceOnUse" x1="266.678" x2="214.73" xlink:href="#lg4" y1="350.834" y2="311.254"/><linearGradient id="SVGID_21_" gradientUnits="userSpaceOnUse" x1="293.382" x2="206.174" y1="407.053" y2="407.053"><stop offset="0" stop-color="#843561" stop-opacity="0"/><stop offset=".2156" stop-color="#7a345e" stop-opacity=".216"/><stop offset=".5776" stop-color="#603257" stop-opacity=".578"/><stop offset="1" stop-color="#3a2f4d"/></linearGradient><linearGradient id="SVGID_22_" gradientUnits="userSpaceOnUse" x1="175.477" x2="214.879" xlink:href="#lg3" y1="352.909" y2="398.811"/><linearGradient id="SVGID_23_" gradientUnits="userSpaceOnUse" x1="215.134" x2="298.858" xlink:href="#lg3" y1="403.466" y2="487.19"/><linearGradient id="SVGID_24_" gradientUnits="userSpaceOnUse" x1="339.532" x2="267.281" xlink:href="#lg4" y1="406.014" y2="478.265"/><linearGradient id="lg5"><stop offset="0" stop-color="#ffce47"/><stop offset="1" stop-color="#f6921e"/></linearGradient><linearGradient id="SVGID_25_" gradientUnits="userSpaceOnUse" x1="344.035" x2="351.461" xlink:href="#lg5" y1="441.782" y2="472.973"/><linearGradient id="SVGID_26_" gradientUnits="userSpaceOnUse" x1="438.852" x2="455.45" y1="454.344" y2="470.942"><stop offset="0" stop-color="#798c00"/><stop offset="1" stop-color="#1b444f"/></linearGradient><linearGradient id="lg6"><stop offset="0" stop-color="#1b444f" stop-opacity="0"/><stop offset="1" stop-color="#1b444f"/></linearGradient><linearGradient id="SVGID_27_" gradientUnits="userSpaceOnUse" x1="445.33" x2="455.875" xlink:href="#lg6" y1="456.465" y2="454.32"/><linearGradient id="SVGID_28_" gradientUnits="userSpaceOnUse" x1="447.461" x2="447.461" xlink:href="#lg6" y1="466.905" y2="471.938"/><linearGradient id="SVGID_29_" gradientUnits="userSpaceOnUse" x1="455.159" x2="477.701" y1="454.546" y2="477.088"><stop offset="0" stop-color="#bada00"/><stop offset=".2187" stop-color="#b6d600"/><stop offset=".4501" stop-color="#acc900"/><stop offset=".6873" stop-color="#9ab400"/><stop offset=".9271" stop-color="#829700"/><stop offset="1" stop-color="#798c00"/></linearGradient><linearGradient id="lg7"><stop offset="0" stop-color="#43765a" stop-opacity="0"/><stop offset="1" stop-color="#43765a"/></linearGradient><linearGradient id="SVGID_30_" gradientUnits="userSpaceOnUse" x1="463.956" x2="478.279" xlink:href="#lg7" y1="457.426" y2="454.513"/><linearGradient id="SVGID_31_" gradientUnits="userSpaceOnUse" x1="466.85" x2="466.85" xlink:href="#lg7" y1="471.605" y2="478.441"/><linearGradient id="SVGID_32_" gradientUnits="userSpaceOnUse" x1="200.999" x2="294.348" xlink:href="#lg5" y1="347.77" y2="574.871"/><linearGradient id="SVGID_33_" gradientUnits="userSpaceOnUse" x1="167.931" x2="-55.108" xlink:href="#lg2" y1="523.093" y2="390.307"/><linearGradient id="SVGID_34_" gradientTransform="matrix(-1 0 0 1 777.45 0)" gradientUnits="userSpaceOnUse" x1="379.346" x2="305.905" xlink:href="#lg2" y1="394.465" y2="290.738"/><linearGradient id="SVGID_35_" gradientTransform="matrix(-1 0 0 1 777.45 0)" gradientUnits="userSpaceOnUse" x1="352.776" x2="208.165" xlink:href="#lg2" y1="416.327" y2="105.905"/><g><path d="m485.638 510h-461.276c-13.455 0-24.362-10.907-24.362-24.362v-461.276c0-13.455 10.907-24.362 24.362-24.362h461.275c13.456 0 24.363 10.907 24.363 24.362v461.275c0 13.456-10.907 24.363-24.362 24.363z" fill="url(#SVGID_1_)"/><g fill="#fff"><path d="m440.687 69.445h-10.262c0-12.845-10.413-23.259-23.259-23.259h-45.876c-12.845 0-23.259 10.413-23.259 23.259s10.413 23.259 23.259 23.259h10.262c0 12.845 10.413 23.259 23.259 23.259h45.876c12.845 0 23.259-10.413 23.259-23.259-.001-12.846-10.414-23.259-23.259-23.259z"/><path d="m479.841 51.572h-28.981c-8.115 0-14.693-6.578-14.693-14.693 0-8.115 6.578-14.693 14.693-14.693h28.981c8.115 0 14.693 6.578 14.693 14.693 0 8.114-6.579 14.693-14.693 14.693z"/></g><g><g><path d="m305.33 149.354c-3.941 0-7.679-1.916-10-5.125-3.552-4.911-9.266-10.765-16.317-10.765-3.141 0-5.688-2.547-5.688-5.688s2.547-5.688 5.688-5.688c9.384 0 18.214 5.351 25.535 15.475.4.553 1.164.55 1.563 0 7.312-10.124 16.139-15.475 25.528-15.475 3.141 0 5.688 2.547 5.688 5.688s-2.547 5.688-5.688 5.688c-7.054 0-12.761 5.851-16.306 10.76-2.32 3.212-6.058 5.13-10 5.131-.001-.001-.002-.001-.003-.001z" fill="url(#SVGID_2_)"/><path d="m321.04 198.112c-3.941 0-7.678-1.915-9.999-5.124-3.552-4.912-9.266-10.767-16.317-10.767-3.141 0-5.688-2.547-5.688-5.688s2.547-5.688 5.688-5.688c9.384 0 18.214 5.351 25.535 15.476.397.55 1.164.552 1.563-.001 7.312-10.124 16.139-15.475 25.528-15.475 3.141 0 5.688 2.547 5.688 5.688s-2.547 5.688-5.688 5.688c-7.053 0-12.76 5.851-16.306 10.76-2.32 3.211-6.057 5.129-9.999 5.131-.002 0-.004 0-.005 0z" fill="url(#SVGID_3_)"/><path d="m381.861 168.613c-3.941 0-7.679-1.916-10-5.125-3.552-4.912-9.266-10.766-16.318-10.766-3.141 0-5.688-2.547-5.688-5.688s2.547-5.688 5.688-5.688c9.384 0 18.214 5.351 25.535 15.475.4.552 1.164.553 1.563 0 7.312-10.124 16.139-15.475 25.528-15.475 3.141 0 5.688 2.547 5.688 5.688s-2.547 5.688-5.688 5.688c-7.053 0-12.76 5.851-16.306 10.76-2.32 3.212-6.058 5.129-10 5.131 0 0-.001 0-.002 0z" fill="url(#SVGID_4_)"/></g></g><g><path d="m50.052 378.025c8.84 0 16.006 7.166 16.006 16.006v50.407h-16.006z" fill="url(#SVGID_5_)"/><path d="m38.156 319.694h-4.185c-6.57 0-11.896 5.326-11.896 11.896-7.725 0-13.988 6.263-13.988 13.988v5.951c-.47-.029-.943-.05-1.421-.05h-6.666v92.958h8.088 20.982 20.982v-112.847c0-6.57-5.326-11.896-11.896-11.896z" fill="url(#SVGID_6_)"/></g><circle cx="121.28" cy="86.152" fill="url(#SVGID_7_)" r="66.943"/><g><path d="m185.496 150.279c0-9.022-7.314-16.335-16.335-16.335h-32.768c-22.277 0-40.335 18.059-40.335 40.335v281.106h139.439v-255.107c0-18.592-15.072-33.664-33.664-33.664-9.023 0-16.337-7.314-16.337-16.335z" fill="url(#SVGID_8_)"/><path d="m96.057 218.709h69.72v114.191h-69.72z" fill="url(#SVGID_9_)"/><path d="m235.496 455.385v-255.107c0-18.592-15.072-33.664-33.664-33.664-9.097 0-16.225-7.444-16.337-16.54-.11-8.927-7.381-16.131-16.334-16.131-9.446 0-17.104 7.658-17.104 17.104v57.848c0 9.234 7.486 16.72 16.72 16.72 9.234 0 16.72 7.486 16.72 16.72v213.051h49.999z" fill="url(#SVGID_10_)"/><path d="m169.1 455.385h66.396v-116.11l-66.396-66.397z" fill="url(#SVGID_11_)"/><path d="m129.725 283.281c-11.782 0-21.333 9.551-21.333 21.333v43.433h64v-64.767c0-10.02-8.122-18.142-18.142-18.142h-6.382c-10.02.001-18.143 8.123-18.143 18.143z" fill="url(#SVGID_12_)"/><path d="m172.392 348.047v-64.767c0-3.874-1.224-7.456-3.292-10.403-1.595-.459-3.275-.719-5.017-.719h-6.383c-10.02 0-18.142 8.123-18.142 18.142-11.782 0-21.333 9.551-21.333 21.333v36.412h54.167z" fill="url(#SVGID_13_)"/><path d="m133.718 455.385h101.778v-26.108l-101.778-101.778z" fill="url(#SVGID_14_)"/><path d="m92.109 313.614h14.116c18.87 0 34.167 15.297 34.167 34.167v107.604h-80.588v-109.466c0-17.842 14.463-32.305 32.305-32.305z" fill="url(#SVGID_15_)"/></g><g><path d="m259.986 243.614c0-8.369 6.784-15.153 15.153-15.153h30.397c20.665 0 37.417 16.752 37.417 37.417v188.382h-129.349v-164.264c0-17.247 13.982-31.229 31.229-31.229 8.369 0 15.153-6.784 15.153-15.153z" fill="url(#SVGID_16_)"/><path d="m305.537 228.46c-8.025 0-14.531 6.506-14.531 14.531v54.997c0 8.591-7.03 15.45-15.62 15.51-8.515.059-15.399 6.98-15.399 15.509v125.253h82.967v-188.383c0-20.665-16.752-37.417-37.417-37.417z" fill="url(#SVGID_17_)"/><g><path d="m281.361 454.26h61.593v-83.49l-61.593-61.592z" fill="url(#SVGID_18_)"/><path d="m244.836 318.828c-10.93 0-19.79 8.86-19.79 19.79v40.29h59.369v-60.08c0-9.295-7.535-16.829-16.829-16.829h-5.921c-9.294-.001-16.829 7.534-16.829 16.829z" fill="url(#SVGID_19_)"/><path d="m284.415 378.908v-60.08c0-3.593-1.135-6.916-3.054-9.65-1.48-.426-3.038-.667-4.654-.667h-5.921c-9.295 0-16.829 7.535-16.829 16.829-10.93 0-19.79 8.86-19.79 19.79v33.777h50.248z" fill="url(#SVGID_20_)"/></g><g><path d="m248.54 454.26h94.414l-94.414-94.413z" fill="url(#SVGID_21_)"/><path d="m217.927 346.966h5.109c17.505 0 31.695 14.19 31.695 31.695v75.599h-59.479v-84.619c0-12.523 10.152-22.675 22.675-22.675z" fill="url(#SVGID_22_)"/></g></g><g><path d="m341.749 387.079h-39.336c-12.439 0-24.368-4.941-33.163-13.737-18.315-18.315-48.011-18.315-66.326 0l-90.171 90.171h324.856l-62.698-62.698c-8.795-8.795-20.724-13.736-33.162-13.736z" fill="url(#SVGID_23_)"/><path d="m374.912 400.816c-8.795-8.795-20.724-13.736-33.163-13.736h-39.336c-12.31 0-24.265-4.702-32.902-13.473-10.745-10.912-25.49-15.435-39.559-13.589l52.958 52.959c9.282 9.282 21.872 14.497 34.999 14.497 13.127 0 25.716 5.215 34.999 14.497l21.544 21.544h63.157z" fill="url(#SVGID_24_)"/></g><g><path d="m510 437.409c-198.061-24.447-324.042 41.876-324.042 41.876h324.042z" fill="url(#SVGID_25_)"/><g><g><g><g><path d="m454.447 453.968c-.904 0-1.775.149-2.59.423-.872-2.934-3.52-5.068-6.652-5.068-3.842 0-6.956 3.211-6.956 7.173 0 .572.065 1.129.188 1.663-3.279.238-5.867 3.056-5.867 6.497 0 3.598 2.828 6.514 6.317 6.514h15.559c4.607 0 8.341-3.851 8.341-8.601.001-4.75-3.733-8.601-8.34-8.601z" fill="url(#SVGID_26_)"/><path d="m446.105 462.57c0 .349.02.693.06 1.031-.314.046-.635.069-.96.069-3.842 0-6.956-3.212-6.956-7.173s3.114-7.172 6.956-7.172c3.131 0 5.78 2.134 6.652 5.068-3.339 1.122-5.752 4.359-5.752 8.177z" fill="url(#SVGID_27_)"/><path d="m432.619 465.467c.387 3.215 3.046 5.703 6.269 5.703h15.559c3.621 0 6.702-2.379 7.855-5.703z" fill="url(#SVGID_28_)"/></g></g></g><g><g><g><path d="m476.338 454.035c-1.228 0-2.41.202-3.518.575-1.185-3.985-4.781-6.883-9.034-6.883-5.218 0-9.447 4.361-9.447 9.742 0 .777.089 1.533.256 2.258-4.453.324-7.968 4.15-7.968 8.824 0 4.886 3.841 8.847 8.58 8.847h21.131c6.257 0 11.329-5.23 11.329-11.681s-5.072-11.682-11.329-11.682z" fill="url(#SVGID_29_)"/><path d="m465.01 465.717c0 .474.028.941.081 1.4-.426.062-.862.093-1.304.093-5.218 0-9.447-4.362-9.447-9.742 0-5.379 4.229-9.741 9.447-9.741 4.253 0 7.85 2.898 9.034 6.883-4.535 1.525-7.811 5.921-7.811 11.107z" fill="url(#SVGID_30_)"/><path d="m446.693 469.652c.526 4.366 4.137 7.746 8.514 7.746h21.131c4.917 0 9.102-3.231 10.669-7.746z" fill="url(#SVGID_31_)"/></g></g></g></g><path d="m479.399 467.823c-68.482 0-135.967-6.777-196.795-19.764l-87.88-18.761c-60.802-12.981-132.567-13.705-194.724-2.068v58.408c0 13.455 10.907 24.362 24.362 24.362h461.275c13.456 0 24.363-10.907 24.363-24.362v-17.815z" fill="url(#SVGID_32_)"/><path d="m147.533 439.881c4.538-18.915-83.327-19.939-86.53-19.97-20.863 1.215-41.405 3.663-61.003 7.331v58.395c0 13.456 10.907 24.363 24.362 24.363h209.042c-97.92-8.61-201.093-17.396-196.805-28.891 8.089-21.686 104.535-14.554 110.934-41.228z" fill="url(#SVGID_33_)"/></g><g><path d="m415.132 318.56c-16.755 0-30.337 13.582-30.337 30.337v95.54h30.337z" fill="url(#SVGID_34_)"/><path d="m437.679 208h7.932c12.452 0 22.547 10.094 22.547 22.547 14.643 0 26.513 11.87 26.513 26.513v11.279c.892-.056 1.788-.094 2.693-.094h12.636v176.192h-15.329-39.769-39.769v-213.89c-.001-12.452 10.093-22.547 22.546-22.547z" fill="url(#SVGID_35_)"/></g><path d="m90.61 53.124h-7.964c0-9.968-8.081-18.049-18.049-18.049h-35.6c-9.968 0-18.049 8.081-18.049 18.049s8.081 18.049 18.049 18.049h7.963c0 9.968 8.081 18.049 18.049 18.049h35.6c9.968 0 18.049-8.081 18.049-18.049.001-9.968-8.08-18.049-18.048-18.049z" fill="#fff"/></g></svg>