<svg id="Capa_1" enable-background="new 0 0 510 510" height="512" viewBox="0 0 510 510" width="512" xmlns="http://www.w3.org/2000/svg" xmlns:xlink="http://www.w3.org/1999/xlink"><linearGradient id="SVGID_1_" gradientUnits="userSpaceOnUse" x1="255" x2="255" y1="34.721" y2="483.763"><stop offset="0" stop-color="#c7e9ff"/><stop offset=".3556" stop-color="#a3e6f2"/><stop offset="1" stop-color="#65e0db"/></linearGradient><linearGradient id="lg1"><stop offset="0" stop-color="#edf5ff"/><stop offset="1" stop-color="#c7e9ff"/></linearGradient><linearGradient id="SVGID_2_" gradientUnits="userSpaceOnUse" x1="71.484" x2="126.006" xlink:href="#lg1" y1="86.591" y2="141.113"/><linearGradient id="SVGID_3_" gradientUnits="userSpaceOnUse" x1="81.61" x2="113.233" xlink:href="#lg1" y1="223.261" y2="254.885"/><linearGradient id="lg2"><stop offset="0" stop-color="#bada00"/><stop offset=".2187" stop-color="#b6d600"/><stop offset=".4501" stop-color="#acc900"/><stop offset=".6873" stop-color="#9ab400"/><stop offset=".9271" stop-color="#829700"/><stop offset="1" stop-color="#798c00"/></linearGradient><linearGradient id="SVGID_4_" gradientUnits="userSpaceOnUse" x1="255" x2="255" xlink:href="#lg2" y1="321.209" y2="514.212"/><linearGradient id="lg3"><stop offset="0" stop-color="#798c00"/><stop offset="1" stop-color="#1b444f"/></linearGradient><linearGradient id="SVGID_5_" gradientUnits="userSpaceOnUse" x1="316.14" x2="306.589" xlink:href="#lg3" y1="307.884" y2="382.166"/><linearGradient id="SVGID_6_" gradientUnits="userSpaceOnUse" x1="95.042" x2="116.814" xlink:href="#lg2" y1="270.936" y2="335.043"/><linearGradient id="lg4"><stop offset="0" stop-color="#43765a" stop-opacity="0"/><stop offset="1" stop-color="#43765a"/></linearGradient><linearGradient id="SVGID_7_" gradientUnits="userSpaceOnUse" x1="252.98" x2="275.053" xlink:href="#lg4" y1="452.628" y2="331.757"/><linearGradient id="SVGID_8_" gradientUnits="userSpaceOnUse" x1="253.075" x2="270.195" xlink:href="#lg4" y1="474.975" y2="381.222"/><linearGradient id="SVGID_9_" gradientUnits="userSpaceOnUse" x1="253.504" x2="306.838" y1="404.18" y2="527.514"><stop offset="0" stop-color="#c6b198"/><stop offset="1" stop-color="#988575"/></linearGradient><linearGradient id="lg5"><stop offset="0" stop-color="#18cefb"/><stop offset="1" stop-color="#4a97f6"/></linearGradient><linearGradient id="SVGID_10_" gradientUnits="userSpaceOnUse" x1="210.667" x2="223.333" xlink:href="#lg5" y1="269.042" y2="269.042"/><linearGradient id="SVGID_11_" gradientUnits="userSpaceOnUse" x1="279.116" x2="296.701" xlink:href="#lg5" y1="260.709" y2="260.709"/><linearGradient id="SVGID_12_" gradientUnits="userSpaceOnUse" x1="372.412" x2="404.566" xlink:href="#lg3" y1="356.082" y2="388.235"/><linearGradient id="lg6"><stop offset="0" stop-color="#1b444f" stop-opacity="0"/><stop offset="1" stop-color="#1b444f"/></linearGradient><linearGradient id="SVGID_13_" gradientUnits="userSpaceOnUse" x1="384.814" x2="405.501" xlink:href="#lg6" y1="360.305" y2="356.098"/><linearGradient id="SVGID_14_" gradientUnits="userSpaceOnUse" x1="389.005" x2="389.005" xlink:href="#lg6" y1="380.201" y2="389.791"/><linearGradient id="SVGID_15_" gradientUnits="userSpaceOnUse" x1="404.565" x2="448.234" xlink:href="#lg2" y1="356.399" y2="400.068"/><linearGradient id="SVGID_16_" gradientUnits="userSpaceOnUse" x1="421.408" x2="449.504" xlink:href="#lg4" y1="362.134" y2="356.421"/><linearGradient id="SVGID_17_" gradientUnits="userSpaceOnUse" x1="427.101" x2="427.101" xlink:href="#lg4" y1="389.157" y2="402.182"/><linearGradient id="SVGID_18_" gradientUnits="userSpaceOnUse" x1="101.49" x2="133.644" xlink:href="#lg3" y1="362.946" y2="395.099"/><linearGradient id="SVGID_19_" gradientUnits="userSpaceOnUse" x1="113.892" x2="134.58" xlink:href="#lg6" y1="367.169" y2="362.963"/><linearGradient id="SVGID_20_" gradientUnits="userSpaceOnUse" x1="118.084" x2="118.084" xlink:href="#lg6" y1="387.066" y2="396.656"/><linearGradient id="SVGID_21_" gradientUnits="userSpaceOnUse" x1="133.643" x2="177.312" xlink:href="#lg2" y1="363.263" y2="406.932"/><linearGradient id="SVGID_22_" gradientUnits="userSpaceOnUse" x1="150.486" x2="178.583" xlink:href="#lg4" y1="368.999" y2="363.286"/><linearGradient id="SVGID_23_" gradientUnits="userSpaceOnUse" x1="156.179" x2="156.179" xlink:href="#lg4" y1="396.021" y2="409.046"/><linearGradient id="lg7"><stop offset="0" stop-color="#754c24" stop-opacity="0"/><stop offset="1" stop-color="#754c24"/></linearGradient><linearGradient id="SVGID_24_" gradientUnits="userSpaceOnUse" x1="298.567" x2="267.9" xlink:href="#lg7" y1="482.212" y2="354.212"/><linearGradient id="SVGID_25_" gradientUnits="userSpaceOnUse" x1="315.666" x2="275.666" xlink:href="#lg7" y1="501.436" y2="376.436"/><linearGradient id="lg8"><stop offset="0" stop-color="#c59b6d"/><stop offset="1" stop-color="#8b6239"/></linearGradient><linearGradient id="SVGID_26_" gradientUnits="userSpaceOnUse" x1="271.799" x2="294.32" xlink:href="#lg8" y1="444.782" y2="467.303"/><linearGradient id="SVGID_27_" gradientUnits="userSpaceOnUse" x1="295.603" x2="285.845" xlink:href="#lg7" y1="442.998" y2="455.135"/><linearGradient id="SVGID_28_" gradientUnits="userSpaceOnUse" x1="296.503" x2="307.763" xlink:href="#lg8" y1="456.504" y2="467.765"/><linearGradient id="SVGID_29_" gradientUnits="userSpaceOnUse" x1="343.781" x2="428.667" y1="62.819" y2="147.704"><stop offset="0" stop-color="#ffd945"/><stop offset=".3043" stop-color="#ffcd3e"/><stop offset=".8558" stop-color="#ffad2b"/><stop offset="1" stop-color="#ffa325"/></linearGradient><linearGradient id="SVGID_30_" gradientUnits="userSpaceOnUse" x1="398.471" x2="413.804" xlink:href="#lg1" y1="187.943" y2="236.61"/><linearGradient id="SVGID_31_" gradientUnits="userSpaceOnUse" x1="134.978" x2="166.602" xlink:href="#lg1" y1="25.487" y2="57.11"/><linearGradient id="SVGID_32_" gradientUnits="userSpaceOnUse" x1="436.899" x2="495.499" xlink:href="#lg1" y1="58.074" y2="116.674"/><linearGradient id="SVGID_33_" gradientUnits="userSpaceOnUse" x1="203.827" x2="248.827" xlink:href="#lg5" y1="91.642" y2="128.142"/><linearGradient id="lg9"><stop offset="0" stop-color="#4a97f6" stop-opacity="0"/><stop offset="1" stop-color="#0469bb"/></linearGradient><linearGradient id="SVGID_34_" gradientUnits="userSpaceOnUse" x1="234.835" x2="279.835" xlink:href="#lg9" y1="111.072" y2="40.572"/><linearGradient id="SVGID_35_" gradientUnits="userSpaceOnUse" x1="242.992" x2="316.544" xlink:href="#lg5" y1="96.218" y2="169.77"/><linearGradient id="SVGID_36_" gradientUnits="userSpaceOnUse" x1="290.476" x2="242.476" xlink:href="#lg9" y1="148.575" y2="51.075"/><linearGradient id="SVGID_37_" gradientUnits="userSpaceOnUse" x1="242.589" x2="276.089" xlink:href="#lg9" y1="135.526" y2="156.026"/><linearGradient id="SVGID_38_" gradientTransform="matrix(-.006 1 1 .006 1201.159 -2253.424)" gradientUnits="userSpaceOnUse" x1="2300.658" x2="2320.945" xlink:href="#lg5" y1="-902.753" y2="-902.753"/><linearGradient id="SVGID_39_" gradientUnits="userSpaceOnUse" x1="213.748" x2="226.605" xlink:href="#lg5" y1="97.58" y2="97.58"/><linearGradient id="SVGID_40_" gradientUnits="userSpaceOnUse" x1="244" x2="272.032" xlink:href="#lg1" y1="239.887" y2="239.887"/><linearGradient id="lg10"><stop offset="0" stop-color="#2f73a0" stop-opacity="0"/><stop offset="1" stop-color="#2f73a0"/></linearGradient><linearGradient id="SVGID_41_" gradientUnits="userSpaceOnUse" x1="255" x2="255" xlink:href="#lg10" y1="281.209" y2="202.508"/><linearGradient id="SVGID_42_" gradientUnits="userSpaceOnUse" x1="255" x2="255" xlink:href="#lg1" y1="229.51" y2="250.595"/><linearGradient id="SVGID_43_" gradientUnits="userSpaceOnUse" x1="251.259" x2="163.259" xlink:href="#lg10" y1="224.98" y2="173.313"/><linearGradient id="SVGID_44_" gradientUnits="userSpaceOnUse" x1="255" x2="255" xlink:href="#lg1" y1="319.492" y2="340.576"/><linearGradient id="SVGID_45_" gradientUnits="userSpaceOnUse" x1="255" x2="255" xlink:href="#lg10" y1="326.542" y2="286.542"/><linearGradient id="SVGID_46_" gradientUnits="userSpaceOnUse" x1="255" x2="255" xlink:href="#lg1" y1="301.139" y2="310.671"/><linearGradient id="SVGID_47_" gradientUnits="userSpaceOnUse" x1="255" x2="255" xlink:href="#lg1" y1="357.838" y2="404.889"/><linearGradient id="SVGID_48_" gradientUnits="userSpaceOnUse" x1="176.355" x2="151.855" xlink:href="#lg1" y1="388.964" y2="378.464"/><linearGradient id="SVGID_49_" gradientUnits="userSpaceOnUse" x1="213.355" x2="188.855" xlink:href="#lg1" y1="388.964" y2="378.464"/><linearGradient id="SVGID_50_" gradientUnits="userSpaceOnUse" x1="250.355" x2="225.855" xlink:href="#lg1" y1="388.964" y2="378.464"/><linearGradient id="SVGID_51_" gradientUnits="userSpaceOnUse" x1="287.355" x2="262.855" xlink:href="#lg1" y1="388.964" y2="378.464"/><linearGradient id="SVGID_52_" gradientUnits="userSpaceOnUse" x1="324.355" x2="299.855" xlink:href="#lg1" y1="388.964" y2="378.464"/><linearGradient id="SVGID_53_" gradientUnits="userSpaceOnUse" x1="361.355" x2="336.855" xlink:href="#lg1" y1="388.964" y2="378.464"/><linearGradient id="SVGID_54_" gradientUnits="userSpaceOnUse" x1="255" x2="255" xlink:href="#lg10" y1="370.709" y2="415.809"/><linearGradient id="SVGID_55_" gradientUnits="userSpaceOnUse" x1="255" x2="255" xlink:href="#lg1" y1="395.199" y2="404.731"/><linearGradient id="SVGID_56_" gradientUnits="userSpaceOnUse" x1="255" x2="255" xlink:href="#lg1" y1="414.589" y2="425.235"/><linearGradient id="SVGID_57_" gradientUnits="userSpaceOnUse" x1="42.053" x2="72.66" xlink:href="#lg3" y1="420.488" y2="451.096"/><linearGradient id="SVGID_58_" gradientUnits="userSpaceOnUse" x1="53.859" x2="73.551" xlink:href="#lg6" y1="424.508" y2="420.504"/><linearGradient id="SVGID_59_" gradientUnits="userSpaceOnUse" x1="57.848" x2="57.848" xlink:href="#lg6" y1="443.448" y2="452.577"/><linearGradient id="SVGID_60_" gradientUnits="userSpaceOnUse" x1="72.659" x2="114.228" xlink:href="#lg2" y1="420.79" y2="462.359"/><linearGradient id="SVGID_61_" gradientUnits="userSpaceOnUse" x1="88.693" x2="115.438" xlink:href="#lg4" y1="426.25" y2="420.812"/><linearGradient id="SVGID_62_" gradientUnits="userSpaceOnUse" x1="94.112" x2="94.112" xlink:href="#lg4" y1="451.973" y2="464.371"/><linearGradient id="SVGID_63_" gradientUnits="userSpaceOnUse" x1="193.27" x2="209.36" xlink:href="#lg5" y1="265.042" y2="265.042"/><linearGradient id="SVGID_64_" gradientUnits="userSpaceOnUse" x1="300.784" x2="316.874" xlink:href="#lg5" y1="277.876" y2="277.876"/><linearGradient id="SVGID_65_" gradientUnits="userSpaceOnUse" x1="180.811" x2="191.081" xlink:href="#lg5" y1="277.876" y2="277.876"/><linearGradient id="SVGID_66_" gradientUnits="userSpaceOnUse" x1="301.446" x2="289.113" xlink:href="#lg10" y1="248.783" y2="195.45"/><linearGradient id="SVGID_67_" gradientUnits="userSpaceOnUse" x1="277.212" x2="327.242" xlink:href="#lg5" y1="203.824" y2="253.853"/><linearGradient id="SVGID_68_" gradientUnits="userSpaceOnUse" x1="303.546" x2="279.546" xlink:href="#lg9" y1="229.72" y2="239.72"/><linearGradient id="SVGID_69_" gradientUnits="userSpaceOnUse" x1="314.098" x2="286.098" xlink:href="#lg9" y1="232.945" y2="215.195"/><linearGradient id="SVGID_70_" gradientUnits="userSpaceOnUse" x1="326.258" x2="334.495" xlink:href="#lg5" y1="188.588" y2="196.824"/><linearGradient id="SVGID_71_" gradientTransform="matrix(.707 .707 -.707 .707 -833.09 -944.745)" gradientUnits="userSpaceOnUse" x1="1509.984" x2="1530.271" xlink:href="#lg5" y1="63.923" y2="63.923"/><linearGradient id="SVGID_72_" gradientTransform="matrix(-.707 .707 .707 .707 2542.241 -944.745)" gradientUnits="userSpaceOnUse" x1="2357.911" x2="2378.199" xlink:href="#lg5" y1="-784.005" y2="-784.005"/><linearGradient id="SVGID_73_" gradientUnits="userSpaceOnUse" x1="213.138" x2="230.723" xlink:href="#lg5" y1="214.813" y2="214.813"/><linearGradient id="SVGID_74_" gradientUnits="userSpaceOnUse" x1="160.923" x2="182.465" xlink:href="#lg5" y1="158.123" y2="158.123"/><g><path d="m485.638 510h-461.276c-13.455 0-24.362-10.907-24.362-24.362v-461.276c0-13.455 10.907-24.362 24.362-24.362h461.275c13.456 0 24.363 10.907 24.363 24.362v461.275c0 13.456-10.907 24.363-24.362 24.363z" fill="url(#SVGID_1_)"/><path d="m154 84.451c0-14.58-11.819-26.399-26.399-26.399h-52.069c-14.58 0-26.399 11.819-26.399 26.399h-11.647c-14.58 0-26.399 11.819-26.399 26.399s11.819 26.399 26.399 26.399h5.769c1.889 7.948 9.016 13.867 17.542 13.867h35.6c9.968 0 18.049-8.081 18.049-18.049h7.963c9.968 0 18.049-8.081 18.049-18.049 0-2.411-.482-4.707-1.339-6.809 8.808-4.278 14.881-13.308 14.881-23.758z" fill="url(#SVGID_2_)"/><path d="m104.048 245.902h-28.981c-8.115 0-14.693-6.578-14.693-14.693 0-8.115 6.578-14.693 14.693-14.693h28.981c8.115 0 14.693 6.578 14.693 14.693-.001 8.115-6.579 14.693-14.693 14.693z" fill="url(#SVGID_3_)"/><path d="m510 485.638v-152.944h-510v152.944c0 13.455 10.907 24.362 24.362 24.362h461.276c13.455 0 24.362-10.907 24.362-24.362z" fill="url(#SVGID_4_)"/><path d="m510 307.989c-245.978-35.241-402.61 57.797-402.61 57.797h402.61z" fill="url(#SVGID_5_)"/><path d="m0 365.786h254.511s-98.981-92.583-254.511-58.027z" fill="url(#SVGID_6_)"/><path d="m510 485.638v-90.369h-510v90.369c0 13.455 10.907 24.362 24.362 24.362h461.276c13.455 0 24.362-10.907 24.362-24.362z" fill="url(#SVGID_7_)"/><path d="m510 485.638v-44.64h-510v44.64c0 13.455 10.907 24.362 24.362 24.362h461.276c13.455 0 24.362-10.907 24.362-24.362z" fill="url(#SVGID_8_)"/><path d="m414.372 395.269h-316.744c-5.87 0-10.628 4.758-10.628 10.628 0 27.442 22.246 49.688 49.688 49.688h33.799c17.182 0 31.111 13.929 31.111 31.111v23.304h106.803v-23.303c0-17.182 13.929-31.111 31.111-31.111h35.799c27.442 0 49.688-22.246 49.688-49.688.001-5.871-4.757-10.629-10.627-10.629z" fill="url(#SVGID_9_)"/><path d="m209.667 241.542h12.333v55h-12.333z" fill="url(#SVGID_10_)"/><path d="m286.289 279.876c-4.728 0-8.561-3.833-8.561-8.561v-29.772h17.122v29.772c0 4.728-3.833 8.561-8.561 8.561z" fill="url(#SVGID_11_)"/><g><g><g><g><path d="m402.731 355.551c-1.777 0-3.487.284-5.089.807-1.714-5.591-6.916-9.657-13.069-9.657-7.548 0-13.667 6.119-13.667 13.667 0 1.091.129 2.151.37 3.168-6.442.454-11.526 5.823-11.526 12.38 0 6.855 5.557 12.412 12.412 12.412h30.569c9.051 0 16.388-7.337 16.388-16.388.001-9.052-7.337-16.389-16.388-16.389z" fill="url(#SVGID_12_)"/><path d="m386.342 371.94c0 .665.04 1.32.117 1.964-.616.087-1.247.131-1.887.131-7.548 0-13.666-6.119-13.666-13.667 0-7.547 6.118-13.666 13.666-13.666 6.152 0 11.356 4.066 13.069 9.657-6.558 2.139-11.299 8.306-11.299 15.581z" fill="url(#SVGID_13_)"/><path d="m359.846 377.461c.761 6.126 5.985 10.867 12.316 10.867h30.569c7.113 0 13.167-4.533 15.434-10.867z" fill="url(#SVGID_14_)"/></g></g></g><g><g><g><path d="m445.742 355.678c-2.413 0-4.736.386-6.912 1.096-2.327-7.593-9.393-13.115-17.749-13.115-10.251 0-18.562 8.31-18.562 18.562 0 1.481.174 2.921.502 4.302-8.749.617-15.654 7.908-15.654 16.814 0 9.31 7.547 16.857 16.857 16.857h41.518c12.293 0 22.258-9.965 22.258-22.258s-9.965-22.258-22.258-22.258z" fill="url(#SVGID_15_)"/><path d="m423.484 377.937c0 .903.054 1.793.159 2.667-.837.118-1.693.178-2.562.178-10.251 0-18.56-8.311-18.56-18.562 0-10.25 8.309-18.56 18.56-18.56 8.356 0 15.423 5.522 17.749 13.115-8.908 2.905-15.346 11.281-15.346 21.162z" fill="url(#SVGID_16_)"/><path d="m387.497 385.435c1.033 8.32 8.128 14.759 16.727 14.759h41.518c9.661 0 17.883-6.156 20.961-14.759z" fill="url(#SVGID_17_)"/></g></g></g></g><g><g><g><g><path d="m131.81 362.415c-1.777 0-3.487.284-5.089.807-1.714-5.591-6.916-9.657-13.068-9.657-7.548 0-13.667 6.119-13.667 13.667 0 1.091.128 2.151.37 3.168-6.442.454-11.526 5.823-11.526 12.38 0 6.855 5.557 12.412 12.412 12.412h30.569c9.051 0 16.388-7.337 16.388-16.388-.001-9.051-7.338-16.389-16.389-16.389z" fill="url(#SVGID_18_)"/><path d="m115.421 378.805c0 .665.04 1.32.117 1.964-.616.087-1.247.131-1.887.131-7.548 0-13.666-6.119-13.666-13.667 0-7.547 6.118-13.666 13.666-13.666 6.152 0 11.356 4.066 13.069 9.657-6.559 2.138-11.299 8.306-11.299 15.581z" fill="url(#SVGID_19_)"/><path d="m88.924 384.326c.761 6.126 5.985 10.867 12.316 10.867h30.569c7.113 0 13.167-4.533 15.434-10.867z" fill="url(#SVGID_20_)"/></g></g></g><g><g><g><path d="m174.821 362.543c-2.413 0-4.736.386-6.912 1.096-2.327-7.593-9.393-13.115-17.749-13.115-10.251 0-18.562 8.31-18.562 18.562 0 1.481.174 2.921.502 4.302-8.749.617-15.654 7.908-15.654 16.814 0 9.31 7.547 16.857 16.857 16.857h41.518c12.293 0 22.258-9.965 22.258-22.258s-9.966-22.258-22.258-22.258z" fill="url(#SVGID_21_)"/><path d="m152.562 384.801c0 .903.054 1.793.159 2.667-.837.118-1.693.178-2.562.178-10.251 0-18.56-8.311-18.56-18.562 0-10.25 8.309-18.56 18.56-18.56 8.356 0 15.423 5.522 17.749 13.115-8.908 2.905-15.346 11.282-15.346 21.162z" fill="url(#SVGID_22_)"/><path d="m116.576 392.3c1.033 8.32 8.128 14.759 16.727 14.759h41.518c9.661 0 17.883-6.156 20.961-14.759z" fill="url(#SVGID_23_)"/></g></g></g></g><path d="m480 492v-8.837l-74.776-74.776c-2.639-3.634-6.91-6.006-11.744-6.006h-276.96c-8.019 0-14.52 6.501-14.52 14.52 0 3.604 1.903 6.756 4.752 8.53l84.569 84.569h270.679c9.941 0 18-8.059 18-18z" fill="url(#SVGID_24_)"/><g><path d="m362.044 509.1-49.828-49.828h-53.969l50.728 50.728h48.367c1.661 0 3.244-.326 4.702-.9z" fill="url(#SVGID_25_)"/><g><g><path d="m261.075 460.386h37.085c6.382 0 9.579-7.717 5.066-12.23l-5.987-5.987c-3.727-3.727-8.781-5.82-14.052-5.82h-6.405c-10.975 0-19.872 8.897-19.872 19.872 0 2.3 1.865 4.165 4.165 4.165z" fill="url(#SVGID_26_)"/><path d="m297.239 442.169c-3.727-3.727-8.781-5.82-14.052-5.82-2.552 0-4.62 2.068-4.62 4.62v.518c0 2.552 2.068 4.62 4.62 4.62 2.832 0 5.549 1.125 7.551 3.128l10.483 10.483c4.208-1.966 5.718-7.847 2.004-11.561z" fill="url(#SVGID_27_)"/></g><path d="m291.141 464.306h18.543c3.191 0 4.789-3.858 2.533-6.115l-2.993-2.993c-1.863-1.863-4.391-2.91-7.026-2.91h-3.203c-5.488 0-9.936 4.449-9.936 9.936-.001 1.15.932 2.082 2.082 2.082z" fill="url(#SVGID_28_)"/></g></g><circle cx="365.114" cy="84.152" fill="url(#SVGID_29_)" r="66.943"/><g><path d="m446.262 225.259h-10.262c0 12.845-10.413 23.259-23.259 23.259h-45.876c-12.845 0-23.259-10.413-23.259-23.259s10.414-23.259 23.259-23.259h10.262c0-12.845 10.413-23.259 23.259-23.259h45.876c12.845 0 23.259 10.413 23.259 23.259 0 12.845-10.413 23.259-23.259 23.259z" fill="url(#SVGID_30_)"/><path d="m157.416 48.127h-28.981c-8.115 0-14.693-6.578-14.693-14.693 0-8.115 6.578-14.693 14.693-14.693h28.981c8.115 0 14.693 6.578 14.693 14.693 0 8.115-6.578 14.693-14.693 14.693z" fill="url(#SVGID_31_)"/></g><path d="m482.433 63.777h-7.964c0-9.968-8.081-18.049-18.049-18.049h-35.6c-9.968 0-18.049 8.081-18.049 18.049s8.081 18.049 18.049 18.049h7.963c0 9.968 8.081 18.049 18.049 18.049h35.6c9.968 0 18.049-8.081 18.049-18.049 0-9.968-8.08-18.049-18.048-18.049z" fill="url(#SVGID_32_)"/><g><g><g><path d="m255 209.333c-8.284 0-15-6.716-15-15v-102.624c0-14.612-11.888-26.5-26.5-26.5s-26.5 11.888-26.5 26.5v25.833c0 8.284-6.716 15-15 15s-15-6.716-15-15v-25.833c0-31.154 25.346-56.5 56.5-56.5s56.5 25.346 56.5 56.5v102.624c0 8.284-6.716 15-15 15z" fill="url(#SVGID_33_)"/><path d="m213.5 47.153c-31.041 0-44 25.346-44 56.5v28.664c.815.137 1.646.225 2.5.225 8.284 0 15-6.716 15-15v-25.833c0-14.612 11.888-26.5 26.5-26.5s26.5 11.888 26.5 26.5v102.624c0 8.284 6.716 15 15 15 .854 0 1.685-.088 2.5-.225v-105.455c0-31.154-12.959-56.5-44-56.5z" fill="url(#SVGID_34_)"/><path d="m255 209.333c-8.284 0-15-6.716-15-15v-72.062c0-31.154 25.346-56.5 56.5-56.5s56.5 25.346 56.5 56.5c0 8.284-6.716 15-15 15s-15-6.716-15-15c0-14.612-11.888-26.5-26.5-26.5s-26.5 11.888-26.5 26.5v72.062c0 8.284-6.716 15-15 15z" fill="url(#SVGID_35_)"/></g><path d="m296.5 95.771c14.612 0 26.5 11.888 26.5 26.5 0 8.284 6.716 15 15 15 3.441 0 6.601-1.171 9.132-3.119-2.901-30.35-23.26-53.943-47.882-53.943-26.605 0-48.25 12.5-48.25 61.395v67.173c1.275.353 2.613.556 4 .556 8.284 0 15-6.716 15-15v-72.062c0-14.612 11.888-26.5 26.5-26.5z" fill="url(#SVGID_36_)"/><path d="m261.25 78.149v129.81c-1.9.88-4.02 1.37-6.25 1.37-8.28 0-15-6.71-15-15v-72.06c0-17.83 8.31-33.76 21.25-44.12z" fill="url(#SVGID_37_)"/></g><path d="m298.055 51.49c-.917 4.039-4.381 6.653-8.974 5.654-9.34-2.031-10.976 7.127-14.545 5.024-3.569-2.105-.294-22.335 17.864-19.653 3.545.524 5.861 3.907 5.842 7.349-.003.537-.063 1.081-.187 1.626z" fill="url(#SVGID_38_)"/><circle cx="220.176" cy="97.58" fill="url(#SVGID_39_)" r="6.428"/></g><g><path d="m275.333 319.649h-40.667v-141.982c0-9.688 7.854-17.542 17.542-17.542h5.582c9.688 0 17.542 7.854 17.542 17.542v141.982z" fill="url(#SVGID_40_)"/><path d="m275.333 244.542h-40.666v9.455l40.666 40.667z" fill="url(#SVGID_41_)"/><path d="m294.605 253.997h-79.21c-18.444 0-33.395-14.952-33.395-33.395 0-8.433 6.836-15.269 15.269-15.269h115.462c8.433 0 15.269 6.836 15.269 15.269 0 18.444-14.952 33.395-33.395 33.395z" fill="url(#SVGID_42_)"/><path d="m275.333 253.997v-48.664h-61.585v19.267l29.398 29.397z" fill="url(#SVGID_43_)"/><g><path d="m323.906 343.979h-137.812c-18.444 0-33.395-14.952-33.395-33.395 0-8.433 6.836-15.269 15.269-15.269h174.065c8.433 0 15.269 6.836 15.269 15.269-.001 18.444-14.952 33.395-33.396 33.395z" fill="url(#SVGID_44_)"/><path d="m357.3 310.579c0 9.23-3.74 17.57-9.78 23.62-6.04 6.04-14.39 9.78-23.61 9.78h-137.82l-33.39-33.4c0-4.21 1.71-8.03 4.47-10.79 2.77-2.76 6.59-4.47 10.8-4.47h174.06c8.43 0 15.27 6.83 15.27 15.26z" fill="url(#SVGID_45_)"/><path d="m352 312.209h-194c-4.971 0-9-4.029-9-9v-4c0-4.971 4.029-9 9-9h194c4.971 0 9 4.029 9 9v4c0 4.971-4.029 9-9 9z" fill="url(#SVGID_46_)"/></g><path d="m341.205 340.727h-172.41c-23.074 0-41.779 18.705-41.779 41.779v11.547c0 4.173 3.383 7.556 7.556 7.556h240.857c4.173 0 7.556-3.383 7.556-7.556v-11.547c-.001-23.074-18.706-41.779-41.78-41.779z" fill="url(#SVGID_47_)"/><g><path d="m174.75 401.608h-24.5v-29.082c0-6.765 5.485-12.25 12.25-12.25 6.765 0 12.25 5.484 12.25 12.25z" fill="url(#SVGID_48_)"/><path d="m211.75 401.608h-24.5v-29.082c0-6.765 5.485-12.25 12.25-12.25 6.765 0 12.25 5.484 12.25 12.25z" fill="url(#SVGID_49_)"/><path d="m248.75 401.608h-24.5v-29.082c0-6.765 5.485-12.25 12.25-12.25 6.765 0 12.25 5.484 12.25 12.25z" fill="url(#SVGID_50_)"/><path d="m285.75 401.608h-24.5v-29.082c0-6.765 5.484-12.25 12.25-12.25 6.766 0 12.25 5.484 12.25 12.25z" fill="url(#SVGID_51_)"/><path d="m322.75 401.608h-24.5v-29.082c0-6.765 5.484-12.25 12.25-12.25 6.766 0 12.25 5.484 12.25 12.25z" fill="url(#SVGID_52_)"/><path d="m359.75 401.608h-24.5v-29.082c0-6.765 5.484-12.25 12.25-12.25 6.766 0 12.25 5.484 12.25 12.25z" fill="url(#SVGID_53_)"/></g><path d="m127.016 382.506v11.547c0 4.173 3.383 7.555 7.556 7.555h240.857c4.173 0 7.556-3.383 7.556-7.555v-11.547c0-8.173-2.355-15.791-6.412-22.23h-243.145c-4.056 6.439-6.412 14.057-6.412 22.23z" fill="url(#SVGID_54_)"/><path d="m382.984 406.269h-255.968c-4.971 0-9-4.029-9-9v-4c0-4.971 4.029-9 9-9h255.968c4.971 0 9 4.029 9 9v4c0 4.971-4.03 9-9 9z" fill="url(#SVGID_55_)"/><path d="m397.948 426.953h-285.896c-5.552 0-10.052-4.501-10.052-10.052 0-8.019 6.501-14.52 14.52-14.52h276.96c8.019 0 14.52 6.501 14.52 14.52 0 5.552-4.501 10.052-10.052 10.052z" fill="url(#SVGID_56_)"/></g><g><g><g><g><path d="m70.914 419.983c-1.691 0-3.319.27-4.844.768-1.631-5.322-6.583-9.192-12.44-9.192-7.185 0-13.01 5.825-13.01 13.01 0 1.038.122 2.048.352 3.016-6.132.432-10.972 5.542-10.972 11.784 0 6.525 5.29 11.815 11.815 11.815h29.099c8.616 0 15.6-6.984 15.6-15.6s-6.984-15.601-15.6-15.601z" fill="url(#SVGID_57_)"/><path d="m55.314 435.584c0 .633.038 1.256.112 1.869-.587.083-1.187.125-1.796.125-7.185 0-13.009-5.825-13.009-13.01 0-7.184 5.824-13.009 13.009-13.009 5.857 0 10.81 3.87 12.44 9.192-6.244 2.037-10.756 7.908-10.756 14.833z" fill="url(#SVGID_58_)"/><path d="m30.091 440.84c.724 5.831 5.697 10.344 11.724 10.344h29.099c6.771 0 12.534-4.315 14.692-10.344z" fill="url(#SVGID_59_)"/></g></g></g><g><g><g><path d="m111.857 420.105c-2.297 0-4.508.367-6.579 1.043-2.216-7.228-8.941-12.484-16.895-12.484-9.758 0-17.669 7.911-17.669 17.669 0 1.41.166 2.781.478 4.096-8.328.587-14.902 7.528-14.902 16.005 0 8.862 7.184 16.046 16.046 16.046h39.521c11.702 0 21.187-9.486 21.187-21.187s-9.486-21.188-21.187-21.188z" fill="url(#SVGID_60_)"/><path d="m90.669 441.293c0 .859.052 1.706.152 2.539-.797.112-1.612.169-2.439.169-9.758 0-17.668-7.911-17.668-17.67 0-9.757 7.909-17.668 17.668-17.668 7.954 0 14.681 5.256 16.896 12.485-8.481 2.766-14.609 10.739-14.609 20.145z" fill="url(#SVGID_61_)"/><path d="m56.413 448.431c.983 7.919 7.737 14.049 15.923 14.049h39.521c9.197 0 17.023-5.86 19.953-14.049z" fill="url(#SVGID_62_)"/></g></g></g></g><circle cx="199.833" cy="265.042" fill="url(#SVGID_63_)" r="7.833"/><circle cx="307.347" cy="277.876" fill="url(#SVGID_64_)" r="7.833"/><circle cx="185" cy="277.876" fill="url(#SVGID_65_)" r="5"/><g><path d="m328 220.602c0-3.171-.968-6.115-2.622-8.556-1.873-.383-3.688-1.124-5.339-2.238-5.029-3.401-11.609-3.401-16.631-.006l-.006.006c-2.508 1.697-5.402 2.546-8.303 2.546-2.907 0-5.808-.849-8.322-2.546-2.508-1.704-5.415-2.552-8.309-2.552-2.907 0-5.801.849-8.316 2.552-1.799 1.216-2.52 1.995-4.572 2.337-.532 1.634-.817 3.382-.817 5.187v14.978c0 3.775.576 7.106 3.4 9.171l12.517 12.517h13.925c18.443-.001 33.395-14.952 33.395-33.396z" fill="url(#SVGID_66_)"/><g><path d="m315.746 200.523c-12.414-1.523-24.968-1.523-37.382 0-8.49 1.041-14.871 8.252-14.871 16.806v14.982c0 6.276 5.088 11.364 11.364 11.364 6.276 0 11.364-5.088 11.364-11.364v-4.149c0-2.845 2.306-5.151 5.151-5.151 2.845 0 5.151 2.306 5.151 5.151v24.569c0 6.276 5.088 11.364 11.364 11.364 6.276 0 11.364-5.088 11.364-11.364v-24.039c0-3.138 2.544-5.682 5.682-5.682 3.138 0 5.682-2.544 5.682-5.682.002-8.553-6.378-15.763-14.869-16.805z" fill="url(#SVGID_67_)"/><path d="m315.746 200.523c-9.778-1.199-19.643-1.439-29.458-.749v27.597c.382-2.468 2.509-4.36 5.084-4.36 2.845 0 5.151 2.306 5.151 5.151v24.569c0 6.276 5.088 11.364 11.364 11.364 6.276 0 11.364-5.088 11.364-11.364v-24.039c0-3.138 2.544-5.682 5.682-5.682 3.138 0 5.682-2.544 5.682-5.682.002-8.553-6.378-15.763-14.869-16.805z" fill="url(#SVGID_68_)"/><path d="m315.746 200.523c-.028-.003-.056-.007-.084-.01-4.427-.54-8.316 2.956-8.316 7.416v56.14c.181.009.359.027.542.027 6.276 0 11.364-5.088 11.364-11.364v-24.039c0-3.138 2.544-5.682 5.682-5.682 3.077 0 5.653-2.449 5.681-5.526.079-8.622-6.327-15.914-14.869-16.962z" fill="url(#SVGID_69_)"/></g></g><g><circle cx="331.008" cy="193.337" fill="url(#SVGID_70_)" r="4.667"/><g><path d="m185.947 182.326c-2.433-2.433-3.167-6.467-1.014-9.333 11.024-14.677 27.579-2.596 26.521 1.41-1.059 4.004-8.662-1.355-13.874 6.656-2.563 3.94-6.864 4.518-10.356 2.291-.472-.3-.898-.645-1.277-1.024z" fill="url(#SVGID_71_)"/><path d="m322.777 183.35c-3.492 2.227-7.793 1.649-10.356-2.291-5.212-8.012-12.816-2.652-13.874-6.656-1.058-4.006 15.497-16.087 26.521-1.41 2.152 2.865 1.419 6.899-1.014 9.333-.38.379-.806.724-1.277 1.024z" fill="url(#SVGID_72_)"/></g></g><path d="m220.311 227.667c-4.728 0-8.561-3.833-8.561-8.561v-11.836c0-2.933 2.378-5.311 5.311-5.311h6.5c2.933 0 5.311 2.378 5.311 5.311v11.836c0 4.728-3.833 8.561-8.561 8.561z" fill="url(#SVGID_73_)"/><circle cx="171.694" cy="158.123" fill="url(#SVGID_74_)" r="10.771"/></g></svg>