<svg id="Capa_1" enable-background="new 0 0 510.485 510.485" height="512" viewBox="0 0 510.485 510.485" width="512" xmlns="http://www.w3.org/2000/svg" xmlns:xlink="http://www.w3.org/1999/xlink"><linearGradient id="lg1"><stop offset="0" stop-color="#c7e9ff"/><stop offset=".3556" stop-color="#a3e6f2"/><stop offset="1" stop-color="#65e0db"/></linearGradient><linearGradient id="SVGID_1_" gradientUnits="userSpaceOnUse" x1="255.485" x2="255.485" xlink:href="#lg1" y1="34.964" y2="484.005"/><linearGradient id="lg2"><stop offset="0" stop-color="#edf5ff"/><stop offset="1" stop-color="#c7e9ff"/></linearGradient><linearGradient id="SVGID_2_" gradientUnits="userSpaceOnUse" x1="164.893" x2="198.842" xlink:href="#lg2" y1="223.667" y2="257.615"/><linearGradient id="SVGID_3_" gradientUnits="userSpaceOnUse" x1="229.978" x2="245.56" y1="411.479" y2="450.955"><stop offset="0" stop-color="#18cefb"/><stop offset="1" stop-color="#4a97f6"/></linearGradient><linearGradient id="lg3"><stop offset="0" stop-color="#4a97f6" stop-opacity="0"/><stop offset="1" stop-color="#0469bb"/></linearGradient><linearGradient id="SVGID_4_" gradientUnits="userSpaceOnUse" x1="255.98" x2="233.608" xlink:href="#lg3" y1="466.368" y2="343.663"/><linearGradient id="SVGID_5_" gradientUnits="userSpaceOnUse" x1="198.866" x2="32.843" xlink:href="#lg3" y1="445.772" y2="441.478"/><linearGradient id="lg4"><stop offset="0" stop-color="#18cefb" stop-opacity="0"/><stop offset="1" stop-color="#0469bb"/></linearGradient><linearGradient id="SVGID_6_" gradientUnits="userSpaceOnUse" x1="419.111" x2="431.778" xlink:href="#lg4" y1="362.842" y2="295.509"/><linearGradient id="SVGID_7_" gradientUnits="userSpaceOnUse" x1="171.433" x2="171.433" xlink:href="#lg4" y1="401.568" y2="259.483"/><linearGradient id="SVGID_8_" gradientUnits="userSpaceOnUse" x1="223.901" x2="264.846" xlink:href="#lg1" y1="279.893" y2="394.107"/><linearGradient id="SVGID_9_" gradientUnits="userSpaceOnUse" x1="286.483" x2="135.657" y1="341.21" y2="183.736"><stop offset="0" stop-color="#2f73a0" stop-opacity="0"/><stop offset="1" stop-color="#2f73a0"/></linearGradient><linearGradient id="SVGID_10_" gradientUnits="userSpaceOnUse" x1="329.219" x2="335.219" xlink:href="#lg1" y1="309.423" y2="390.757"/><linearGradient id="SVGID_11_" gradientUnits="userSpaceOnUse" x1="385.239" x2="379.572" y1="357.039" y2="400.252"><stop offset="0" stop-color="#798c00"/><stop offset="1" stop-color="#1b444f"/></linearGradient><linearGradient id="SVGID_12_" gradientUnits="userSpaceOnUse" x1="109.191" x2="132.411" y1="286.529" y2="354.9"><stop offset="0" stop-color="#bada00"/><stop offset=".2187" stop-color="#b6d600"/><stop offset=".4501" stop-color="#acc900"/><stop offset=".6873" stop-color="#9ab400"/><stop offset=".9271" stop-color="#829700"/><stop offset="1" stop-color="#798c00"/></linearGradient><linearGradient id="lg5"><stop offset="0" stop-color="#ffe0ea"/><stop offset="1" stop-color="#ff80ab"/></linearGradient><linearGradient id="SVGID_13_" gradientUnits="userSpaceOnUse" x1="46.154" x2="85.942" xlink:href="#lg5" y1="359.38" y2="399.169"/><linearGradient id="lg6"><stop offset="0" stop-color="#ff4181" stop-opacity="0"/><stop offset="1" stop-color="#ff4181"/></linearGradient><linearGradient id="SVGID_14_" gradientUnits="userSpaceOnUse" x1="61.151" x2="130.771" xlink:href="#lg6" y1="364.691" y2="356.24"/><linearGradient id="SVGID_15_" gradientUnits="userSpaceOnUse" x1="66.687" x2="66.687" xlink:href="#lg6" y1="389.227" y2="401.095"/><linearGradient id="SVGID_16_" gradientUnits="userSpaceOnUse" x1="143.17" x2="187.444" xlink:href="#lg5" y1="354.882" y2="399.156"/><linearGradient id="SVGID_17_" gradientUnits="userSpaceOnUse" x1="159.859" x2="237.328" xlink:href="#lg6" y1="360.79" y2="351.387"/><linearGradient id="SVGID_18_" gradientUnits="userSpaceOnUse" x1="166.019" x2="166.019" xlink:href="#lg6" y1="388.094" y2="401.299"/><linearGradient id="SVGID_19_" gradientUnits="userSpaceOnUse" x1="100.412" x2="130.063" xlink:href="#lg5" y1="369.547" y2="399.198"/><linearGradient id="SVGID_20_" gradientUnits="userSpaceOnUse" x1="111.589" x2="163.472" xlink:href="#lg6" y1="373.504" y2="367.206"/><linearGradient id="SVGID_21_" gradientUnits="userSpaceOnUse" x1="115.714" x2="115.714" xlink:href="#lg6" y1="391.789" y2="400.633"/><linearGradient id="SVGID_22_" gradientUnits="userSpaceOnUse" x1="131.226" x2="168.094" xlink:href="#lg5" y1="357.284" y2="450.162"/><linearGradient id="SVGID_23_" gradientUnits="userSpaceOnUse" x1="300.7" x2="340.801" xlink:href="#lg5" y1="377.607" y2="440.118"/><linearGradient id="SVGID_24_" gradientUnits="userSpaceOnUse" x1="308.249" x2="360.09" xlink:href="#lg6" y1="380.623" y2="370.082"/><linearGradient id="SVGID_25_" gradientUnits="userSpaceOnUse" x1="430.428" x2="467.235" xlink:href="#lg5" y1="361.168" y2="418.542"/><linearGradient id="SVGID_26_" gradientUnits="userSpaceOnUse" x1="436.43" x2="480.827" xlink:href="#lg6" y1="363.028" y2="354"/><linearGradient id="SVGID_27_" gradientUnits="userSpaceOnUse" x1="343.243" x2="431.987" xlink:href="#lg2" y1="73.82" y2="162.563"/><linearGradient id="SVGID_28_" gradientUnits="userSpaceOnUse" x1="445.829" x2="482.033" xlink:href="#lg2" y1="18.174" y2="54.377"/><linearGradient id="lg7"><stop offset="0" stop-color="#ff755c"/><stop offset="1" stop-color="#ff4181"/></linearGradient><linearGradient id="SVGID_29_" gradientUnits="userSpaceOnUse" x1="315.785" x2="351.416" xlink:href="#lg7" y1="256.152" y2="291.784"/><linearGradient id="SVGID_30_" gradientUnits="userSpaceOnUse" x1="378.106" x2="413.737" xlink:href="#lg7" y1="256.152" y2="291.784"/><linearGradient id="SVGID_31_" gradientUnits="userSpaceOnUse" x1="413.849" x2="449.481" xlink:href="#lg7" y1="248.769" y2="284.401"/><linearGradient id="SVGID_32_" gradientUnits="userSpaceOnUse" x1="442.968" x2="478.6" xlink:href="#lg7" y1="233.86" y2="269.492"/><linearGradient id="SVGID_33_" gradientUnits="userSpaceOnUse" x1="279.152" x2="308.08" xlink:href="#lg7" y1="252.441" y2="281.368"/><linearGradient id="lg8"><stop offset="0" stop-color="#c59b6d"/><stop offset="1" stop-color="#8b6239"/></linearGradient><linearGradient id="SVGID_34_" gradientUnits="userSpaceOnUse" x1="331.465" x2="439.908" xlink:href="#lg8" y1="317.913" y2="352.742"/><linearGradient id="lg9"><stop offset="0" stop-color="#754c24" stop-opacity="0"/><stop offset="1" stop-color="#754c24"/></linearGradient><linearGradient id="SVGID_35_" gradientUnits="userSpaceOnUse" x1="394.092" x2="328.393" xlink:href="#lg9" y1="331.83" y2="313.229"/><linearGradient id="SVGID_36_" gradientUnits="userSpaceOnUse" x1="402.487" x2="375.8" xlink:href="#lg9" y1="288.638" y2="216.332"/><linearGradient id="SVGID_37_" gradientUnits="userSpaceOnUse" x1="407.055" x2="380.142" xlink:href="#lg8" y1="305.117" y2="305.117"/><linearGradient id="SVGID_38_" gradientUnits="userSpaceOnUse" x1="379.35" x2="336.058" xlink:href="#lg8" y1="363.681" y2="363.681"/><linearGradient id="SVGID_39_" gradientUnits="userSpaceOnUse" x1="387.007" x2="345.054" xlink:href="#lg9" y1="397.357" y2="352.634"/><linearGradient id="SVGID_40_" gradientUnits="userSpaceOnUse" x1="447.988" x2="468.488" xlink:href="#lg5" y1="139.297" y2="192.797"/><linearGradient id="SVGID_41_" gradientUnits="userSpaceOnUse" x1="349.96" x2="436.96" xlink:href="#lg5" y1="152.609" y2="229.109"/><linearGradient id="SVGID_42_" gradientUnits="userSpaceOnUse" x1="356.079" x2="414.311" xlink:href="#lg6" y1="133.611" y2="121.771"/><linearGradient id="SVGID_43_" gradientUnits="userSpaceOnUse" x1="267.114" x2="318.114" xlink:href="#lg5" y1="182.472" y2="261.972"/><linearGradient id="SVGID_44_" gradientUnits="userSpaceOnUse" x1="276.715" x2="316.166" xlink:href="#lg6" y1="186.309" y2="178.287"/><linearGradient id="SVGID_45_" gradientUnits="userSpaceOnUse" x1="424.448" x2="456.352" xlink:href="#lg5" y1="139.325" y2="257.124"/><linearGradient id="SVGID_46_" gradientUnits="userSpaceOnUse" x1="435.97" x2="480.904" xlink:href="#lg6" y1="189.915" y2="180.778"/><linearGradient id="SVGID_47_" gradientUnits="userSpaceOnUse" x1="364.963" x2="424.63" xlink:href="#lg5" y1="160.561" y2="276.228"/><linearGradient id="SVGID_48_" gradientUnits="userSpaceOnUse" x1="256.127" x2="310.793" xlink:href="#lg5" y1="219.639" y2="335.639"/><linearGradient id="SVGID_49_" gradientUnits="userSpaceOnUse" x1="287.69" x2="349.296" xlink:href="#lg5" y1="195.617" y2="326.342"/><linearGradient id="SVGID_50_" gradientUnits="userSpaceOnUse" x1="313.55" x2="410.55" xlink:href="#lg6" y1="248.425" y2="382.925"/><linearGradient id="SVGID_51_" gradientUnits="userSpaceOnUse" x1="321.738" x2="399.17" xlink:href="#lg5" y1="390.122" y2="544.987"/><linearGradient id="SVGID_52_" gradientUnits="userSpaceOnUse" x1="380.09" x2="396.331" xlink:href="#lg6" y1="448.711" y2="156.981"/><linearGradient id="SVGID_53_" gradientUnits="userSpaceOnUse" x1="139.025" x2="153.14" xlink:href="#lg5" y1="220.571" y2="234.687"/><linearGradient id="SVGID_54_" gradientUnits="userSpaceOnUse" x1="145.694" x2="139.694" xlink:href="#lg6" y1="237.939" y2="203.689"/><linearGradient id="SVGID_55_" gradientTransform="matrix(.252 .968 -.968 .252 47.383 -366.824)" gradientUnits="userSpaceOnUse" x1="790.372" x2="804.488" xlink:href="#lg5" y1="168.638" y2="182.754"/><linearGradient id="SVGID_56_" gradientTransform="matrix(.252 .968 -.968 .252 47.383 -366.824)" gradientUnits="userSpaceOnUse" x1="797.041" x2="791.041" xlink:href="#lg6" y1="186.006" y2="151.756"/><linearGradient id="SVGID_57_" gradientTransform="matrix(-.948 -.32 .32 -.948 693.832 -215.167)" gradientUnits="userSpaceOnUse" x1="286.388" x2="300.504" xlink:href="#lg5" y1="-812.85" y2="-798.734"/><linearGradient id="SVGID_58_" gradientTransform="matrix(-.948 -.32 .32 -.948 693.832 -215.167)" gradientUnits="userSpaceOnUse" x1="293.058" x2="287.058" xlink:href="#lg6" y1="-795.482" y2="-829.732"/><linearGradient id="SVGID_59_" gradientTransform="matrix(-.948 -.32 .32 -.948 693.832 -215.167)" gradientUnits="userSpaceOnUse" x1="292.209" x2="306.325" xlink:href="#lg5" y1="-449.437" y2="-435.321"/><linearGradient id="SVGID_60_" gradientTransform="matrix(-.948 -.32 .32 -.948 693.832 -215.167)" gradientUnits="userSpaceOnUse" x1="298.879" x2="292.879" xlink:href="#lg6" y1="-432.069" y2="-466.319"/><linearGradient id="SVGID_61_" gradientUnits="userSpaceOnUse" x1="34.128" x2="92.728" xlink:href="#lg2" y1="127.798" y2="186.398"/><linearGradient id="SVGID_62_" gradientUnits="userSpaceOnUse" x1="89.37" x2="174.256" y1="81.061" y2="165.947"><stop offset="0" stop-color="#ffd945"/><stop offset=".3043" stop-color="#ffcd3e"/><stop offset=".8558" stop-color="#ffad2b"/><stop offset="1" stop-color="#ffa325"/></linearGradient><g><path d="m486.123 510.242h-461.276c-13.455 0-24.362-10.907-24.362-24.362v-461.275c0-13.455 10.907-24.362 24.362-24.362h461.275c13.455 0 24.362 10.907 24.362 24.362v461.275c.001 13.455-10.906 24.362-24.361 24.362z" fill="url(#SVGID_1_)"/><path d="m143.085 223.64h7.964c0-9.968 8.081-18.049 18.049-18.049h35.6c9.968 0 18.049 8.081 18.049 18.049s-8.081 18.049-18.049 18.049h-7.963c0 9.968-8.081 18.049-18.049 18.049h-35.6c-9.968 0-18.049-8.081-18.049-18.049-.001-9.968 8.08-18.049 18.048-18.049z" fill="url(#SVGID_2_)"/><path d="m480.485 492.242v-106.58h-480v100.218c0 13.455 10.907 24.362 24.362 24.362h436.318c10.67 0 19.32-8.058 19.32-18z" fill="url(#SVGID_3_)"/><path d="m24.76 510.24c.016 0 .032.001.049.001h436.356c10.669 0 19.32-8.06 19.32-18v-106.58h-155.837c-148.323 0-256.45 84.109-299.888 124.579z" fill="url(#SVGID_4_)"/><path d="m480.485 385.661v106.58c0 9.94-8.651 18-19.32 18h-375.345c31.878-40.79 119.14-124.58 267.464-124.58z" fill="url(#SVGID_5_)"/><g><g><path d="m322.485 385.662 63.288-61.873c17.786-17.388 39.579-17.453 57.4-.171l63.979 62.044z" fill="url(#SVGID_6_)"/><path d="m5.714 385.662 113.588-80.51c31.922-22.626 71.036-22.71 103.021-.223l114.829 80.733z" fill="url(#SVGID_7_)"/><g><path d="m285.959 292.024c-11.398-9.159-36.883-9.159-48.281 0l-116.526 93.639h281.333z" fill="url(#SVGID_8_)"/><path d="m285.959 292.024c-9.591-7.707-29.153-8.927-41.907-3.664l28.243 25.339c4.379 3.929-1.948 8.563-11.693 8.563-9.467 0-15.803 4.396-11.965 8.303l23.707 24.131c4.467 4.547-2.908 9.665-13.928 9.665-10.996 0-18.372 5.097-13.951 9.642l11.344 11.661h146.677z" fill="url(#SVGID_9_)"/></g><g><path d="m351.036 322.85c-7.646-6.144-24.741-6.144-32.386 0l-78.165 62.812h188.716z" fill="url(#SVGID_10_)"/></g></g><path d="m252.485 385.662s118.761-53.617 258-32.791v32.791z" fill="url(#SVGID_11_)"/><path d="m285.233 385.662s-110.853-93.802-284.748-57.366v57.366z" fill="url(#SVGID_12_)"/></g><g><g><g><path d="m83.672 358.724c-2.199 0-4.315.351-6.298.998-2.121-6.919-8.558-11.949-16.172-11.949-9.34 0-16.912 7.572-16.912 16.912 0 1.35.159 2.662.458 3.92-7.971.562-14.263 7.206-14.263 15.32 0 8.483 6.876 15.359 15.359 15.359h37.828c11.2 0 20.28-9.08 20.28-20.28s-9.08-20.28-20.28-20.28z" fill="url(#SVGID_13_)"/><path d="m63.392 379.005c0 .823.049 1.633.145 2.43-.763.108-1.543.162-2.335.162-9.34 0-16.911-7.572-16.911-16.913 0-9.339 7.571-16.911 16.911-16.911 7.613 0 14.052 5.031 16.172 11.95-8.117 2.647-13.982 10.279-13.982 19.282z" fill="url(#SVGID_14_)"/><path d="m30.603 385.837c.941 7.58 7.406 13.447 15.241 13.447h37.828c8.803 0 16.294-5.609 19.099-13.447z" fill="url(#SVGID_15_)"/></g></g></g><g><g><g><path d="m184.919 354.151c-2.447 0-4.801.391-7.008 1.111-2.36-7.699-9.523-13.297-17.995-13.297-10.393 0-18.819 8.426-18.819 18.819 0 1.502.177 2.962.509 4.362-8.87.625-15.871 8.018-15.871 17.047 0 9.439 7.652 17.091 17.091 17.091h42.093c12.463 0 22.566-10.103 22.566-22.566s-10.103-22.567-22.566-22.567z" fill="url(#SVGID_16_)"/><path d="m162.352 376.718c0 .915.055 1.817.161 2.704-.849.12-1.717.18-2.598.18-10.393 0-18.818-8.426-18.818-18.82 0-10.392 8.424-18.818 18.818-18.818 8.472 0 15.637 5.598 17.995 13.297-9.031 2.947-15.558 11.44-15.558 21.457z" fill="url(#SVGID_17_)"/><path d="m125.867 384.321c1.047 8.435 8.24 14.963 16.959 14.963h42.093c9.795 0 18.131-6.241 21.252-14.963z" fill="url(#SVGID_18_)"/></g></g></g><g><g><g><path d="m128.372 369.057c-1.639 0-3.216.262-4.693.744-1.58-5.156-6.378-8.905-12.052-8.905-6.961 0-12.604 5.643-12.604 12.604 0 1.006.118 1.984.341 2.921-5.94.419-10.63 5.37-10.63 11.417 0 6.321 5.125 11.446 11.446 11.446h28.191c8.347 0 15.113-6.766 15.113-15.113s-6.766-15.114-15.112-15.114z" fill="url(#SVGID_19_)"/><path d="m113.258 384.171c0 .613.037 1.217.108 1.811-.569.08-1.15.121-1.74.121-6.961 0-12.603-5.643-12.603-12.604 0-6.96 5.642-12.603 12.603-12.603 5.674 0 10.472 3.749 12.052 8.905-6.049 1.974-10.42 7.661-10.42 14.37z" fill="url(#SVGID_20_)"/><path d="m88.823 389.263c.701 5.649 5.519 10.021 11.358 10.021h28.191c6.56 0 12.143-4.18 14.233-10.021z" fill="url(#SVGID_21_)"/></g></g></g><path d="m.485 385.662v100.218c0 .336.012.67.025 1.003 37.979-27.213 156.652-101.22 324.14-101.22h-324.165z" fill="url(#SVGID_22_)"/><g><g><g><path d="m335.116 373.495c-2.664 0-5.229.426-7.631 1.21-2.57-8.384-10.371-14.48-19.596-14.48-11.318 0-20.494 9.175-20.494 20.493 0 1.635.193 3.226.555 4.75-9.659.681-17.284 8.731-17.284 18.564 0 10.279 8.333 18.611 18.611 18.611h54.88c13.572 0 15.533-11.002 15.533-24.574s-11.002-24.574-24.574-24.574z" fill="url(#SVGID_23_)"/><path d="m310.541 398.07c0 .997.06 1.979.176 2.945-.924.13-1.87.196-2.829.196-11.318 0-20.492-9.176-20.492-20.494 0-11.316 9.174-20.492 20.492-20.492 9.225 0 17.028 6.097 19.597 14.48-9.836 3.208-16.944 12.457-16.944 23.365z" fill="url(#SVGID_24_)"/></g></g></g><g><g><g><path d="m459.439 356.923c-2.282 0-4.478.365-6.535 1.036-2.201-7.18-8.882-12.401-16.782-12.401-9.693 0-17.551 7.858-17.551 17.551 0 1.401.165 2.762.475 4.068-8.272.583-14.802 7.478-14.802 15.898 0 8.803 7.136 15.939 15.939 15.939h60.303v-21.046c-.001-11.622-9.424-21.045-21.047-21.045z" fill="url(#SVGID_25_)"/><path d="m438.393 377.97c0 .854.051 1.695.151 2.522-.792.112-1.601.168-2.423.168-9.693 0-17.55-7.858-17.55-17.551 0-9.691 7.857-17.55 17.55-17.55 7.901 0 14.583 5.221 16.783 12.401-8.424 2.747-14.511 10.667-14.511 20.01z" fill="url(#SVGID_26_)"/></g></g></g><g><path d="m426.692 64.555h-11.748c0-14.706-11.922-26.627-26.627-26.627h-52.52c-14.706 0-26.627 11.922-26.627 26.627 0 3.493.679 6.825 1.902 9.88h-6.672c-14.706 0-26.627 11.922-26.627 26.627 0 14.706 11.922 26.627 26.627 26.627h11.748c0 14.706 11.922 26.627 26.627 26.627h52.52c14.706 0 26.627-11.922 26.627-26.627 0-3.492-.679-6.824-1.902-9.881h6.67c14.706 0 26.627-11.921 26.627-26.627.002-14.705-11.919-26.626-26.625-26.626z" fill="url(#SVGID_27_)"/><path d="m471.517 44.093h-33.178c-9.29 0-16.821-7.531-16.821-16.821 0-9.29 7.531-16.821 16.821-16.821h33.178c9.29 0 16.821 7.531 16.821 16.821 0 9.29-7.531 16.821-16.821 16.821z" fill="url(#SVGID_28_)"/></g><g><g><circle cx="335.297" cy="275.665" fill="url(#SVGID_29_)" r="29.119"/><circle cx="397.618" cy="275.665" fill="url(#SVGID_30_)" r="29.119"/><circle cx="433.362" cy="268.282" fill="url(#SVGID_31_)" r="29.119"/><circle cx="462.481" cy="253.373" fill="url(#SVGID_32_)" r="29.119"/><circle cx="294.993" cy="268.282" fill="url(#SVGID_33_)" r="23.64"/></g><g><path d="m437.612 401.842c-21.056-5.564-35.511-67.3-35.511-89.078v-13.549c0-5.781 2.296-11.325 6.384-15.412l23.971-23.971-9.524-9.524-20.831 20.831v-37.206h-50.835v51.939l-35.563-35.563-9.524 9.524 38.703 38.703c4.088 4.088 6.384 9.631 6.384 15.412 0 20.803-13.222 81.826-32.991 88.303-2.631.862-4.169 1.956-4.169 3.341v3.812c0 5.922 3.165 10.966 7.494 11.986 16.801 3.958 36.274 6.223 57.038 6.223 20.765 0 40.238-2.265 57.038-6.223 4.329-1.02 7.494-6.064 7.494-11.986v-3.812c.001-1.615-2.087-2.833-5.558-3.75z" fill="url(#SVGID_34_)"/><path d="m437.612 401.842c-21.056-5.564-35.511-67.3-35.511-89.078v-13.549c0-5.781 2.296-11.324 6.384-15.412l23.971-23.971-9.524-9.524-20.831 20.831v-37.206h-36.999v73.61c0 6.766 2.391 13.315 6.752 18.489 4.36 5.174 6.752 11.723 6.752 18.489v83.092c20.777.002 40.261-2.263 57.071-6.223 4.329-1.02 7.494-6.064 7.494-11.986v-3.812c0-1.615-2.088-2.833-5.559-3.75z" fill="url(#SVGID_35_)"/><path d="m402.101 271.138v-37.206h-50.835v25.93l50.835 50.835v-11.482c0-5.781 2.296-11.325 6.384-15.412l23.971-23.971-9.524-9.524z" fill="url(#SVGID_36_)"/><path d="m397.595 329.455c-1.422-14.842-2.08-32.311-.796-45.83.493-5.19-4.244-9.334-9.326-8.169-3.651.836-6.164 4.189-5.93 7.927.817 13.051 3.397 31.561 6.055 47.384.481 2.863 3.272 4.726 6.102 4.078 2.468-.565 4.137-2.87 3.895-5.39z" fill="url(#SVGID_37_)"/><path d="m356.619 338.425c-1.928 14.785-5.189 31.959-9.459 44.85-1.639 4.949 2.053 10.046 7.266 10.046 3.745 0 6.943-2.706 7.55-6.402 2.119-12.904 3.738-31.522 4.68-47.539.171-2.898-2.134-5.337-5.037-5.337-2.532-.001-4.673 1.872-5 4.382z" fill="url(#SVGID_38_)"/><path d="m437.612 401.842c-10.8-2.854-19.862-20.485-26.128-39.923-1.277-3.96-4.94-6.661-9.101-6.661-8.13 0-14.721 6.591-14.721 14.721v6.272c0 5.275-4.276 9.551-9.551 9.551-4.891 0-8.998 3.699-9.497 8.565-1.759 17.164-8.574 27.298-13.121 32.285 7.476.629 15.215.961 23.145.961 20.765 0 40.238-2.265 57.038-6.223 4.329-1.02 7.494-6.064 7.494-11.986v-3.812c.001-1.615-2.087-2.833-5.558-3.75z" fill="url(#SVGID_39_)"/><circle cx="459.807" cy="170.141" fill="url(#SVGID_40_)" r="34.247"/><g><g><g><path d="m406.513 120.23c-5.001 0-9.815.799-14.325 2.271-4.824-15.738-19.468-27.182-36.786-27.182-21.247 0-38.471 17.224-38.471 38.471 0 3.07.362 6.055 1.041 8.917-18.132 1.278-32.445 16.391-32.445 34.848 0 19.295 15.642 34.937 34.937 34.937h105.002c25.478 0 27.177-20.654 27.177-46.131.002-25.477-20.652-46.131-46.13-46.131z" fill="url(#SVGID_41_)"/><path d="m360.381 166.363c0 1.871.113 3.715.33 5.528-1.735.245-3.509.369-5.311.369-21.247 0-38.468-17.225-38.468-38.472 0-21.243 17.221-38.468 38.468-38.468 17.318 0 31.965 11.444 36.787 27.183-18.463 6.021-31.806 23.382-31.806 43.86z" fill="url(#SVGID_42_)"/></g></g></g><g><g><g><path d="m310.884 177.243c-3.388 0-6.65.541-9.705 1.538-3.268-10.662-13.189-18.415-24.922-18.415-14.394 0-26.063 11.669-26.063 26.063 0 2.08.245 4.102.705 6.041-12.284.866-21.981 11.104-21.981 23.609 0 13.072 10.597 23.669 23.669 23.669h69.794c17.26 0 19.755-13.992 19.755-31.253s-13.992-31.252-31.252-31.252z" fill="url(#SVGID_43_)"/><path d="m279.63 208.497c0 1.268.076 2.517.224 3.745-1.176.166-2.378.25-3.598.25-14.394 0-26.061-11.669-26.061-26.064 0-14.392 11.667-26.061 26.061-26.061 11.733 0 21.656 7.753 24.922 18.416-12.508 4.079-21.548 15.841-21.548 29.714z" fill="url(#SVGID_44_)"/></g></g></g><g><g><g><path d="m474.888 179.59c-3.859 0-7.574.617-11.054 1.752-3.722-12.144-15.022-20.975-28.386-20.975-16.395 0-29.686 13.291-29.686 29.686 0 2.369.279 4.672.803 6.881-13.992.986-25.036 12.648-25.036 26.89 0 14.889 12.07 26.96 26.96 26.96h66.399c19.66 0 35.597-15.937 35.597-35.597s-15.938-35.597-35.597-35.597z" fill="url(#SVGID_45_)"/><path d="m439.29 215.188c0 1.444.087 2.867.255 4.266-1.339.189-2.708.285-4.098.285-16.395 0-29.684-13.292-29.684-29.687 0-16.392 13.289-29.684 29.684-29.684 13.364 0 24.666 8.831 28.387 20.976-14.248 4.646-24.544 18.042-24.544 33.844z" fill="url(#SVGID_46_)"/></g></g></g><path d="m443.171 213.14c-.05 0-.1 0-.15.001-7.25.049-13.698-4.676-15.581-11.677-6.054-22.508-27.01-38.909-51.638-37.974-26.638 1.012-48.344 22.717-49.355 49.355-1.113 29.297 22.308 53.398 51.357 53.398 11.273 0 21.69-3.639 30.163-9.792 3.573 17.197 19.427 29.894 37.979 28.502 17.639-1.324 31.877-15.656 33.094-33.303 1.451-21.014-15.166-38.51-35.869-38.51z" fill="url(#SVGID_47_)"/><circle cx="265.604" cy="239.749" fill="url(#SVGID_48_)" r="24.663"/><circle cx="310.743" cy="244.533" fill="url(#SVGID_49_)" r="40.523"/><circle cx="310.743" cy="244.533" fill="url(#SVGID_50_)" r="40.523"/></g></g><path d="m185.111 510.242h307.374c9.941 0 18-8.059 18-18v-118c-238-8-308.178 106.503-325.374 136z" fill="url(#SVGID_51_)"/><path d="m243.818 510.242h248.667c9.941 0 18-8.059 18-18v-102.98c-163.552.001-246 86.856-266.667 120.98z" fill="url(#SVGID_52_)"/><g><g><path d="m158.596 211.389c-.757 8.518-5.08 27.812-28.583 30.274-1.301.136-2.133-1.324-1.356-2.376 1.39-1.883 2.629-5.1 2.629-10.583 0-14.71 12.684-22.149 23.339-21.86 2.383.064 4.182 2.171 3.971 4.545z" fill="url(#SVGID_53_)"/><path d="m128.489 240.756c.239.563.803.983 1.523.907 23.503-2.462 27.826-21.756 28.583-30.274.115-1.288-.376-2.484-1.217-3.331-7.475 18.593-23.764 29.6-28.889 32.698z" fill="url(#SVGID_54_)"/></g><g><path d="m97.163 457.164c-8.434 1.413-28.195 2.092-36.499-20.033-.46-1.225.744-2.398 1.958-1.911 2.173.871 5.598 1.259 10.904-.122 14.235-3.707 24.63 6.693 27.036 17.078.536 2.322-1.049 4.594-3.399 4.988z" fill="url(#SVGID_55_)"/><path d="m61.157 435.429c-.485.373-.749 1.025-.494 1.703 8.305 22.124 28.066 21.446 36.499 20.033 1.275-.214 2.309-.989 2.917-2.017-19.876-2.551-34.632-15.541-38.922-19.719z" fill="url(#SVGID_56_)"/></g><g><path d="m141.214 465.981c3.44-7.829 13.702-24.73 36.759-19.552 1.276.287 1.598 1.936.525 2.685-1.919 1.34-4.121 3.992-5.874 9.188-4.701 13.938-19.097 16.934-29.101 13.255-2.236-.823-3.268-3.394-2.309-5.576z" fill="url(#SVGID_57_)"/><path d="m179.127 447.775c-.047-.61-.447-1.188-1.154-1.347-23.057-5.178-33.319 11.723-36.759 19.552-.52 1.184-.438 2.474.088 3.545 13.026-15.228 31.979-20.452 37.825-21.75z" fill="url(#SVGID_58_)"/></g><g><path d="m251.837 119.764c3.44-7.829 13.702-24.73 36.759-19.552 1.276.287 1.598 1.936.526 2.685-1.919 1.34-4.121 3.992-5.874 9.188-4.701 13.938-19.097 16.934-29.101 13.255-2.237-.823-3.269-3.394-2.31-5.576z" fill="url(#SVGID_59_)"/><path d="m289.75 101.559c-.047-.61-.447-1.188-1.154-1.347-23.057-5.178-33.319 11.723-36.759 19.552-.52 1.184-.438 2.474.088 3.545 13.026-15.228 31.979-20.452 37.825-21.75z" fill="url(#SVGID_60_)"/></g></g><path d="m79.661 133.5h-7.964c0-9.968-8.081-18.049-18.049-18.049h-35.6c-9.967 0-18.048 8.081-18.048 18.049s8.081 18.049 18.049 18.049h7.963c0 9.968 8.081 18.049 18.049 18.049h35.6c9.968 0 18.049-8.081 18.049-18.049 0-9.968-8.081-18.049-18.049-18.049z" fill="url(#SVGID_61_)"/><circle cx="110.703" cy="102.394" fill="url(#SVGID_62_)" r="66.943"/></g></svg>