

<svg id="Capa_1" enable-background="new 0 0 510 510" height="512" viewBox="0 0 510 510" width="512" xmlns="http://www.w3.org/2000/svg" xmlns:xlink="http://www.w3.org/1999/xlink"><linearGradient id="SVGID_1_" gradientUnits="userSpaceOnUse" x1="255" x2="255" y1="83.666" y2="330.023"><stop offset="0" stop-color="#092a40"/><stop offset="1" stop-color="#3a2f4d"/></linearGradient><linearGradient id="SVGID_2_" gradientUnits="userSpaceOnUse" x1="255" x2="255" y1="354.215" y2="296.017"><stop offset="0" stop-color="#2f73a0"/><stop offset="1" stop-color="#174461" stop-opacity="0"/></linearGradient><linearGradient id="lg1"><stop offset="0" stop-color="#ff4181" stop-opacity="0"/><stop offset="1" stop-color="#24d678"/></linearGradient><linearGradient id="SVGID_3_" gradientUnits="userSpaceOnUse" x1="249.146" x2="285.802" xlink:href="#lg1" y1="229.1" y2="312.719"/><linearGradient id="lg2"><stop offset="0" stop-color="#ff4181" stop-opacity="0"/><stop offset="1" stop-color="#c91fe4"/></linearGradient><linearGradient id="SVGID_4_" gradientUnits="userSpaceOnUse" x1="278.568" x2="288.234" xlink:href="#lg2" y1="197.298" y2="283.965"/><linearGradient id="SVGID_5_" gradientUnits="userSpaceOnUse" x1="273.984" x2="309.851" xlink:href="#lg1" y1="198.264" y2="280.085"/><linearGradient id="SVGID_6_" gradientUnits="userSpaceOnUse" x1="308.557" x2="192.231" xlink:href="#lg2" y1="174.957" y2="121.38"/><linearGradient id="SVGID_7_" gradientUnits="userSpaceOnUse" x1="147.333" x2="194.178" xlink:href="#lg2" y1="339.032" y2="339.032"/><linearGradient id="lg3"><stop offset="0" stop-color="#2f73a0" stop-opacity="0"/><stop offset=".5026" stop-color="#345278" stop-opacity=".503"/><stop offset="1" stop-color="#3a2f4d"/></linearGradient><linearGradient id="SVGID_8_" gradientUnits="userSpaceOnUse" x1="15.019" x2="74.519" xlink:href="#lg3" y1="331.674" y2="269.341"/><linearGradient id="SVGID_9_" gradientUnits="userSpaceOnUse" x1="67.776" x2="118.209" xlink:href="#lg3" y1="337.944" y2="292.61"/><linearGradient id="SVGID_10_" gradientUnits="userSpaceOnUse" x1="135.234" x2="185.668" xlink:href="#lg3" y1="337.944" y2="292.61"/><linearGradient id="SVGID_11_" gradientUnits="userSpaceOnUse" x1="105.96" x2="130.893" xlink:href="#lg3" y1="295.5" y2="222.966"/><linearGradient id="SVGID_12_" gradientUnits="userSpaceOnUse" x1="100.788" x2="141.972" xlink:href="#lg3" y1="341.097" y2="304.078"/><linearGradient id="lg4"><stop offset="0" stop-color="#2f73a0"/><stop offset="1" stop-color="#3a2f4d"/></linearGradient><linearGradient id="SVGID_13_" gradientUnits="userSpaceOnUse" x1="345.777" x2="432.977" xlink:href="#lg4" y1="237.5" y2="355.088"/><linearGradient id="lg5"><stop offset="0" stop-color="#3a2f4d" stop-opacity="0"/><stop offset="1" stop-color="#3a2f4d"/></linearGradient><linearGradient id="SVGID_14_" gradientUnits="userSpaceOnUse" x1="450.813" x2="333.025" xlink:href="#lg5" y1="253.115" y2="220.244"/><linearGradient id="SVGID_15_" gradientUnits="userSpaceOnUse" x1="255.873" x2="366.873" xlink:href="#lg4" y1="289.315" y2="391.207"/><linearGradient id="SVGID_16_" gradientUnits="userSpaceOnUse" x1="354.719" x2="227.781" xlink:href="#lg5" y1="326.346" y2="254.623"/><linearGradient id="SVGID_17_" gradientTransform="matrix(-1 0 0 1 169.371 0)" gradientUnits="userSpaceOnUse" x1="-327.807" x2="-277.012" xlink:href="#lg5" y1="323.474" y2="270.26"/><linearGradient id="SVGID_18_" gradientUnits="userSpaceOnUse" x1="449.539" x2="429.139" xlink:href="#lg5" y1="337.476" y2="321.987"/><linearGradient id="SVGID_19_" gradientUnits="userSpaceOnUse" x1="430.956" x2="395.067" xlink:href="#lg5" y1="332.938" y2="314.427"/><linearGradient id="SVGID_20_" gradientUnits="userSpaceOnUse" x1="255" x2="255" xlink:href="#lg4" y1="277.755" y2="419.746"/><linearGradient id="SVGID_21_" gradientUnits="userSpaceOnUse" x1="89.487" x2="251.631" y1="391.137" y2="518.536"><stop offset="0" stop-color="#2f73a0"/><stop offset="1" stop-color="#174461"/></linearGradient><linearGradient id="lg6"><stop offset="0" stop-color="#ff4181" stop-opacity="0"/><stop offset="1" stop-color="#ff4181"/></linearGradient><linearGradient id="SVGID_22_" gradientUnits="userSpaceOnUse" x1="175.557" x2="267.357" xlink:href="#lg6" y1="444.957" y2="611.557"/><linearGradient id="lg7"><stop offset="0" stop-color="#174461" stop-opacity="0"/><stop offset="1" stop-color="#3a2f4d"/></linearGradient><linearGradient id="SVGID_23_" gradientUnits="userSpaceOnUse" x1="208.578" x2="17.82" xlink:href="#lg7" y1="453.702" y2="322.687"/><linearGradient id="SVGID_24_" gradientUnits="userSpaceOnUse" x1="295.502" x2="145.696" xlink:href="#lg7" y1="414.849" y2="536.37"/><linearGradient id="SVGID_25_" gradientUnits="userSpaceOnUse" x1="202.29" x2="19.257" y1="421.281" y2="588.447"><stop offset="0" stop-color="#3a2f4d" stop-opacity="0"/><stop offset=".0923" stop-color="#384152" stop-opacity=".092"/><stop offset=".5332" stop-color="#2d9166" stop-opacity=".533"/><stop offset=".8462" stop-color="#27c373" stop-opacity=".846"/><stop offset="1" stop-color="#24d678"/></linearGradient><linearGradient id="SVGID_26_" gradientUnits="userSpaceOnUse" x1="93.272" x2="145.406" y1="234.979" y2="219.112"><stop offset="0" stop-color="#3a2f4d" stop-opacity="0"/><stop offset="1" stop-color="#662d90"/></linearGradient><linearGradient id="SVGID_27_" gradientTransform="matrix(-1 0 0 1 320.833 0)" gradientUnits="userSpaceOnUse" x1="187.478" x2="187.478" xlink:href="#lg1" y1="254.909" y2="319.553"/><linearGradient id="SVGID_28_" gradientUnits="userSpaceOnUse" x1="151.937" x2="129.554" xlink:href="#lg6" y1="302.542" y2="333.709"/><linearGradient id="SVGID_29_" gradientUnits="userSpaceOnUse" x1="152.549" x2="175.652" xlink:href="#lg2" y1="307.431" y2="306.381"/><linearGradient id="SVGID_30_" gradientUnits="userSpaceOnUse" x1="140.167" x2="171.471" xlink:href="#lg6" y1="249.472" y2="317.605"/><linearGradient id="SVGID_31_" gradientUnits="userSpaceOnUse" x1="123.89" x2="169.587" xlink:href="#lg2" y1="251.699" y2="268.924"/><linearGradient id="SVGID_32_" gradientUnits="userSpaceOnUse" x1="112.334" x2="80.223" xlink:href="#lg2" y1="253.813" y2="244.368"/><linearGradient id="SVGID_33_" gradientUnits="userSpaceOnUse" x1="90.353" x2="146.605" y1="133.153" y2="251.682"><stop offset="0" stop-color="#3a2f4d"/><stop offset=".1251" stop-color="#39354e"/><stop offset=".2859" stop-color="#374553"/><stop offset=".4663" stop-color="#345f59"/><stop offset=".661" stop-color="#2f8463"/><stop offset=".8648" stop-color="#29b36f"/><stop offset="1" stop-color="#24d678"/></linearGradient><linearGradient id="SVGID_34_" gradientUnits="userSpaceOnUse" x1="95.686" x2="224.896" xlink:href="#lg1" y1="143.269" y2="251.673"/><linearGradient id="SVGID_35_" gradientUnits="userSpaceOnUse" x1="102.6" x2="231.643" xlink:href="#lg6" y1="143.064" y2="175.058"/><g><path d="m485.638 510h-461.276c-13.455 0-24.362-10.907-24.362-24.362v-461.276c0-13.455 10.907-24.362 24.362-24.362h461.275c13.456 0 24.363 10.907 24.363 24.362v461.275c0 13.456-10.907 24.363-24.362 24.363z" fill="url(#SVGID_1_)"/><path d="m489.6 184.355h-469.2c-11.267 0-20.4 9.134-20.4 20.4v280.882c0 13.456 10.907 24.363 24.362 24.363h461.275c13.456 0 24.363-10.907 24.363-24.362v-280.882c0-11.267-9.133-20.401-20.4-20.401z" fill="url(#SVGID_2_)"/><g><path d="m244.128 315h50.198v-110.826h-70.745v90.279c0 11.348 9.2 20.547 20.547 20.547z" fill="url(#SVGID_3_)"/><g><path d="m214.906 239.584c.183 8.325 6.975 15.021 15.345 15.021h104.276c7.166 0 12.974 5.809 12.974 12.974v-65.869h-94.059c-21.065.001-38.172 16.897-38.536 37.874z" fill="url(#SVGID_4_)"/><path d="m361.691 263.249h-104.732c-18.434 0-33.378 14.944-33.378 33.378v-111.624h138.11z" fill="url(#SVGID_5_)"/><path d="m405.876 201.711h-152.434c-21.292 0-38.553 17.261-38.553 38.553v-40.851c0-48.645 39.434-88.079 88.079-88.079h102.909v90.377z" fill="url(#SVGID_6_)"/></g></g><path d="m153.856 349.026h-37.691c-7.795 0-14.114 6.319-14.114 14.114v-48.216h68.515v17.391c.001 9.23-7.481 16.711-16.71 16.711z" fill="url(#SVGID_7_)"/><g><path d="m0 260.047v154.526h22.101v-38.121c3.563-.045 6.777-1.52 9.092-3.888 2.209-2.254 5.567-2.995 8.471-1.777 1.936.809 4.115 1.165 6.399.923 6.013-.635 10.877-5.529 11.482-11.55.333-3.305-.59-6.391-2.337-8.842l-2.072-2.988-8.123-12.397c2.231-1.74 3.774-4.349 4.069-7.284.272-2.715-.484-5.242-1.921-7.253l-1.694-2.451-10.211-15.574c3.729-.719 6.656-3.865 7.034-7.692.227-2.231-.393-4.311-1.573-5.968l-1.399-2.019-24.03-36.654c-2.216-3.381-7.163-3.381-9.379 0z" fill="url(#SVGID_8_)"/><path d="m19.063 360.968c.245-.323.492-.645.715-.984l7.694-11.736c-1.884-1.468-3.182-3.664-3.431-6.145-.239-2.384.461-4.597 1.77-6.324.201-.265.404-.529.586-.807l9.301-14.187c-3.143-.606-5.61-3.259-5.934-6.484-.197-1.964.38-3.787 1.458-5.209.165-.218.333-.435.483-.664l20.836-31.781c1.867-2.848 6.042-2.848 7.91 0l20.268 30.916 1.177 1.703c.996 1.396 1.521 3.151 1.331 5.036-.324 3.225-2.791 5.878-5.934 6.484l8.611 13.135 1.429 2.068c1.21 1.695 1.846 3.826 1.616 6.114-.249 2.48-1.547 4.676-3.431 6.145l6.853 10.454 1.744 2.522c1.476 2.067 2.252 4.667 1.972 7.459-.51 5.079-4.608 9.202-9.684 9.739-1.925.204-3.76-.094-5.393-.778-2.454-1.028-5.285-.402-7.145 1.5-1.952 1.997-4.664 3.242-7.671 3.277v32.15h-19.4v-32.15c-3.006-.035-5.718-1.28-7.671-3.277-1.86-1.902-4.691-2.528-7.145-1.5-1.633.684-3.468.982-5.393.778-5.076-.537-9.173-4.661-9.684-9.739-.29-2.909.564-5.609 2.162-7.715z" fill="url(#SVGID_9_)"/><path d="m86.521 360.968c.245-.323.493-.645.715-.984l7.694-11.736c-1.884-1.468-3.182-3.664-3.431-6.145-.239-2.384.461-4.597 1.77-6.324.201-.265.404-.529.586-.807l9.301-14.187c-3.143-.606-5.61-3.259-5.934-6.484-.197-1.964.38-3.787 1.458-5.209.165-.218.333-.435.483-.664l20.836-31.781c1.867-2.848 6.042-2.848 7.91 0l20.268 30.916 1.177 1.703c.996 1.396 1.521 3.151 1.331 5.036-.324 3.225-2.791 5.878-5.934 6.484l8.611 13.135 1.429 2.068c1.21 1.695 1.846 3.826 1.616 6.114-.249 2.48-1.547 4.676-3.431 6.145l6.853 10.454 1.744 2.522c1.476 2.067 2.252 4.667 1.972 7.459-.51 5.079-4.608 9.202-9.684 9.739-1.925.204-3.76-.094-5.393-.778-2.454-1.028-5.285-.402-7.145 1.5-1.952 1.997-4.664 3.242-7.671 3.277v32.15h-19.402v-32.15c-3.006-.035-5.718-1.28-7.671-3.277-1.86-1.902-4.691-2.528-7.145-1.5-1.633.684-3.468.982-5.393.778-5.076-.537-9.173-4.661-9.684-9.739-.288-2.909.567-5.609 2.164-7.715z" fill="url(#SVGID_10_)"/><path d="m54.144 338.726c.245-.323.492-.645.715-.984l7.694-11.736c-1.884-1.468-3.182-3.664-3.431-6.145-.239-2.384.461-4.597 1.77-6.324.201-.265.404-.529.586-.807l9.301-14.187c-3.143-.606-5.61-3.259-5.934-6.484-.197-1.964.38-3.787 1.458-5.209.165-.218.333-.435.483-.664l20.836-31.782c1.867-2.848 6.042-2.848 7.91 0l20.268 30.916 1.177 1.703c.996 1.396 1.521 3.151 1.331 5.036-.324 3.225-2.791 5.878-5.934 6.484l8.611 13.135 1.429 2.068c1.21 1.695 1.846 3.826 1.616 6.114-.249 2.48-1.547 4.676-3.431 6.145l6.853 10.454 1.744 2.522c1.476 2.067 2.252 4.667 1.972 7.459-.51 5.079-4.608 9.202-9.684 9.739-1.925.204-3.76-.094-5.393-.778-2.454-1.028-5.285-.402-7.145 1.5-1.952 1.997-4.664 3.242-7.671 3.277v32.15h-19.399v-32.15c-3.006-.035-5.718-1.28-7.671-3.277-1.86-1.902-4.691-2.528-7.145-1.5-1.633.684-3.468.982-5.393.778-5.076-.537-9.173-4.661-9.684-9.739-.291-2.907.564-5.607 2.161-7.714z" fill="url(#SVGID_11_)"/><path d="m61.01 359.898c.2-.264.402-.527.584-.804l6.283-9.584c-1.539-1.199-2.598-2.992-2.802-5.018-.196-1.947.377-3.754 1.446-5.164.164-.216.33-.432.479-.659l7.595-11.585c-2.567-.495-4.581-2.662-4.845-5.295-.161-1.604.31-3.092 1.191-4.254.135-.178.272-.355.394-.543l17.014-25.952c1.525-2.326 4.934-2.326 6.459 0l16.55 25.245.961 1.391c.814 1.14 1.242 2.573 1.087 4.113-.265 2.633-2.279 4.8-4.845 5.295l7.032 10.726 1.167 1.688c.988 1.384 1.508 3.124 1.32 4.993-.203 2.025-1.263 3.819-2.802 5.018l5.596 8.536 1.424 2.06c1.205 1.688 1.839 3.811 1.61 6.091-.417 4.147-3.763 7.514-7.907 7.953-1.572.166-3.07-.077-4.404-.636-2.004-.839-4.316-.328-5.834 1.225-1.594 1.631-3.809 2.647-6.264 2.676v26.254h-15.844v-26.254c-2.455-.028-4.67-1.045-6.264-2.676-1.519-1.554-3.831-2.065-5.834-1.225-1.334.559-2.832.802-4.404.636-4.145-.439-7.491-3.806-7.907-7.953-.238-2.373.46-4.578 1.764-6.298z" fill="url(#SVGID_12_)"/></g><g><path d="m510 204.758v197.359h-252.801l88.989-217.759 12.421-30.396 24.605-55.533c6.449-14.552 27.064-14.631 33.626-.136l12.489 27.585c4.318 9.531 17.578 10.268 22.916 1.269 2.516-4.239 6.823-6.335 11.118-6.335 4.579 0 9.157 2.391 11.549 7.072l13.283 26.078 17.963 38.896c.011 0 .011.011.011.011l3.241 7.015v.023c.386 1.553.59 3.185.59 4.851z" fill="url(#SVGID_13_)"/><path d="m510 204.758v197.359h-70.663l-24.31-56.191c-1.122-2.584-1.632-5.225-1.632-7.797 0-10.336 8.33-19.584 19.618-19.584 14.563 0 24.038-15.345 17.51-28.367l-43.611-105.819-.759-1.847c-.714-1.417-1.031-2.867-1.031-4.295 0-5.032 4.035-9.588 9.588-9.588 6.641 0 11.265-6.585 9.021-12.818l-.657-1.847-23.891-66.47c7.049-.329 14.246 3.275 17.657 10.801l12.489 27.585c4.318 9.531 17.578 10.268 22.916 1.269 5.202-8.761 18.031-8.353 22.667.737l13.283 26.078 17.975 38.907 3.241 7.015c.385 1.563.589 3.195.589 4.872z" fill="url(#SVGID_14_)"/></g><g><path d="m438.911 402.116h-213.445c-7.622 0-13.803-6.181-13.803-13.803v-22.377l82.222-146.376c10.03-17.86 32.453-17.86 42.483 0z" fill="url(#SVGID_15_)"/><path d="m336.368 219.56c-8.44-15.026-25.654-17.404-36.877-7.144l24.853 49.401c3.854 7.66-1.715 16.694-10.289 16.694-8.331 0-13.906 8.571-10.529 16.187l20.862 47.045c3.931 8.865-2.559 18.842-12.256 18.842-9.677 0-16.167 9.938-12.276 18.798l9.982 22.734h129.071z" fill="url(#SVGID_16_)"/></g><g><path d="m510 262.326v131.921h-18.868v-32.544c-3.041-.039-5.786-1.298-7.762-3.319-1.885-1.924-4.753-2.557-7.232-1.517-1.653.691-3.513.994-5.463.788-5.133-.542-9.285-4.72-9.802-9.86-.284-2.822.504-5.456 1.995-7.548l1.769-2.551 6.935-10.583c-1.905-1.485-3.222-3.713-3.474-6.218-.232-2.318.413-4.475 1.64-6.192l1.446-2.092 8.717-13.295c-3.183-.613-5.682-3.3-6.005-6.567-.194-1.905.336-3.681 1.343-5.095l1.195-1.724 20.514-31.292c1.892-2.886 6.115-2.886 8.007 0z" fill="url(#SVGID_17_)"/><path d="m486.04 353.828c-.185-.244-.371-.486-.539-.742l-5.801-8.849c1.421-1.107 2.399-2.763 2.587-4.633.181-1.798-.348-3.466-1.335-4.768-.151-.2-.304-.398-.442-.608l-7.013-10.697c2.37-.457 4.23-2.458 4.474-4.889.149-1.481-.286-2.855-1.099-3.928-.125-.165-.251-.328-.364-.501l-15.71-23.963c-1.408-2.148-4.556-2.148-5.964 0l-15.282 23.31-.888 1.284c-.751 1.053-1.146 2.376-1.004 3.797.244 2.431 2.104 4.432 4.474 4.889l-6.493 9.904-1.078 1.559c-.912 1.278-1.392 2.885-1.219 4.61.188 1.87 1.166 3.526 2.587 4.633l-5.167 7.882-1.315 1.902c-1.113 1.559-1.698 3.519-1.487 5.624.385 3.829 3.474 6.938 7.301 7.343 1.451.154 2.835-.071 4.066-.587 1.85-.775 3.985-.303 5.387 1.131 1.472 1.506 3.517 2.444 5.784 2.471v24.241h14.629v-24.241c2.267-.026 4.312-.965 5.784-2.471 1.402-1.434 3.537-1.906 5.387-1.131 1.231.516 2.615.741 4.066.587 3.827-.405 6.917-3.514 7.301-7.343.222-2.192-.423-4.228-1.627-5.816z" fill="url(#SVGID_18_)"/><path d="m457.715 342.738c-.193-.255-.388-.508-.563-.775l-6.057-9.24c1.483-1.156 2.505-2.885 2.701-4.837.189-1.877-.363-3.619-1.394-4.979-.158-.209-.318-.416-.461-.635l-7.322-11.169c2.475-.477 4.416-2.566 4.671-5.105.155-1.546-.299-2.981-1.148-4.101-.13-.172-.262-.343-.38-.523l-16.403-25.02c-1.47-2.242-4.757-2.242-6.227 0l-15.956 24.339-.927 1.341c-.784 1.099-1.197 2.481-1.048 3.965.255 2.539 2.197 4.628 4.671 5.105l-6.779 10.341-1.125 1.628c-.952 1.334-1.453 3.012-1.272 4.814.196 1.952 1.218 3.681 2.701 4.837l-5.395 8.23-1.373 1.986c-1.162 1.628-1.773 3.674-1.552 5.873.402 3.998 3.627 7.245 7.624 7.668 1.515.16 2.96-.074 4.245-.613 1.932-.809 4.161-.317 5.625 1.181 1.537 1.572 3.672 2.552 6.039 2.58v25.311h15.274v-25.311c2.367-.027 4.502-1.007 6.039-2.58 1.464-1.498 3.693-1.991 5.625-1.181 1.286.539 2.73.773 4.245.613 3.996-.423 7.222-3.669 7.624-7.668.229-2.291-.444-4.417-1.702-6.075z" fill="url(#SVGID_19_)"/></g><path d="m0 485.638c0 13.455 10.907 24.362 24.362 24.362h461.275c13.456 0 24.363-10.907 24.363-24.362v-133.872h-510z" fill="url(#SVGID_20_)"/><g><g><path d="m191.654 351.766c-171.768 24.607-88.513 43.296-42.066 60.739s27.167 35.198-36.807 54.51c-63.975 19.312-94.648 42.985-94.648 42.985h334.772c-124.444-39.558 10.516-33.952 10.516-71.641 0-35.198-151.12-42.711-162.209-62.764-9.559-17.287 60.209-23.829 60.209-23.829z" fill="url(#SVGID_21_)"/></g><path d="m363.422 438.359c0-35.198-151.12-42.711-162.209-62.764-9.559-17.287 60.209-23.828 60.209-23.828h-69.768c-171.768 24.607-88.513 43.296-42.066 60.739s27.167 35.198-36.807 54.51c-63.975 19.311-94.648 42.984-94.648 42.984h334.772c-124.443-39.558 10.517-33.952 10.517-71.641z" fill="url(#SVGID_22_)"/><g><path d="m363.418 438.355c0-19.866-48.155-30.914-92.083-40.365-33.909-7.309-65.291-13.663-70.119-22.391-9.565-17.295 57.913-23.832 57.913-23.832h-46.285c-119.397 24.417-60.747 43.386-27.937 60.743 32.969 17.438 19.289 35.197-26.135 54.51-45.424 19.303-67.195 42.98-67.195 42.98h261.324c-124.44-39.562 10.517-33.949 10.517-71.645z" fill="url(#SVGID_23_)"/><path d="m363.418 438.355c0-35.197-151.119-42.703-162.203-62.756-9.565-17.295 57.913-23.832 57.913-23.832h-46.444s-37.717 6.537-32.368 23.832c6.188 20.053 90.667 27.558 90.667 62.756 0 37.696-75.446 32.083-5.882 71.644h87.799c-124.439-39.561 10.518-33.948 10.518-71.644z" fill="url(#SVGID_24_)"/></g></g><path d="m270.984 438.355c0-35.197-84.479-42.703-90.667-62.756-5.349-17.295 32.368-23.832 32.368-23.832h-21.031c-171.768 24.607-88.513 43.296-42.066 60.739s27.167 35.198-36.807 54.51c-63.975 19.311-94.648 42.984-94.648 42.984l246.968-.001c-69.563-39.561 5.883-33.948 5.883-71.644z" fill="url(#SVGID_25_)"/><path d="m120.986 184.356h-24.842v99.499c0-11.755 9.529-21.284 21.284-21.284h3.558z" fill="url(#SVGID_26_)"/><g><path d="m114.296 318.094h40.94c8.467 0 15.33 6.864 15.33 15.33v-103.681h-74.422v70.2c0 10.025 8.127 18.151 18.152 18.151z" fill="url(#SVGID_27_)"/><path d="m126.556 318.094h28.681c8.467 0 15.33 6.864 15.33 15.33v-52.364h-44.011z" fill="url(#SVGID_28_)"/><path d="m142.8 318.094h12.436c8.467 0 15.33 6.864 15.33 15.33v-52.364h-27.766z" fill="url(#SVGID_29_)"/></g><g><path d="m174.267 281.17h-56.838c-11.755 0-21.284 9.529-21.284 21.284v-72.71h103.322v26.227c0 13.916-11.283 25.199-25.2 25.199z" fill="url(#SVGID_30_)"/><path d="m156.967 202.955h-60.823v99.499c0-11.755 9.529-21.284 21.284-21.284h19.155c11.257 0 20.383-9.126 20.383-20.383v-57.832z" fill="url(#SVGID_31_)"/><path d="m120.986 202.955h-24.842v99.499c0-11.755 9.529-21.284 21.284-21.284h3.558z" fill="url(#SVGID_32_)"/></g><g><path d="m116.592 35.843h-116.592v163.014c0 17.058 13.828 30.887 30.887 30.887h139.376c16.129 0 29.204 13.075 29.204 29.204v-140.23c0-45.771-37.105-82.875-82.875-82.875z" fill="url(#SVGID_33_)"/><path d="m116.592 35.843h-116.592v163.014c0 17.058 13.828 30.887 30.887 30.887h139.376c16.129 0 29.204 13.075 29.204 29.204v-140.23c0-45.771-37.105-82.875-82.875-82.875z" fill="url(#SVGID_34_)"/><path d="m90.216 35.843h-90.216v163.014c0 17.058 13.828 30.887 30.887 30.887h100.34v-152.891c-.001-22.649-18.362-41.01-41.011-41.01z" fill="url(#SVGID_35_)"/></g></g></svg>