<svg id="Capa_1" enable-background="new 0 0 510 510" height="512" viewBox="0 0 510 510" width="512" xmlns="http://www.w3.org/2000/svg" xmlns:xlink="http://www.w3.org/1999/xlink"><linearGradient id="SVGID_1_" gradientUnits="userSpaceOnUse" x1="255" x2="255" y1="34.721" y2="483.763"><stop offset="0" stop-color="#c7e9ff"/><stop offset=".3556" stop-color="#a3e6f2"/><stop offset="1" stop-color="#65e0db"/></linearGradient><linearGradient id="lg1"><stop offset="0" stop-color="#edf5ff"/><stop offset="1" stop-color="#c7e9ff"/></linearGradient><linearGradient id="SVGID_2_" gradientUnits="userSpaceOnUse" x1="442.899" x2="501.499" xlink:href="#lg1" y1="96.555" y2="155.155"/><linearGradient id="SVGID_3_" gradientUnits="userSpaceOnUse" x1="349.781" x2="434.667" y1="49.819" y2="134.704"><stop offset="0" stop-color="#ffd945"/><stop offset=".3043" stop-color="#ffcd3e"/><stop offset=".8558" stop-color="#ffad2b"/><stop offset="1" stop-color="#ffa325"/></linearGradient><linearGradient id="SVGID_4_" gradientUnits="userSpaceOnUse" x1="215.225" x2="298.337" xlink:href="#lg1" y1="214.842" y2="326.917"/><linearGradient id="lg2"><stop offset="0" stop-color="#2f73a0" stop-opacity="0"/><stop offset="1" stop-color="#2f73a0"/></linearGradient><linearGradient id="SVGID_5_" gradientUnits="userSpaceOnUse" x1="292.313" x2="57.313" xlink:href="#lg2" y1="219.555" y2="96.555"/><linearGradient id="SVGID_6_" gradientUnits="userSpaceOnUse" x1="136.502" x2="234.002" xlink:href="#lg1" y1="239.901" y2="329.401"/><linearGradient id="SVGID_7_" gradientUnits="userSpaceOnUse" x1="210.6" x2="66.6" xlink:href="#lg2" y1="253.57" y2="193.57"/><linearGradient id="SVGID_8_" gradientUnits="userSpaceOnUse" x1="228.147" x2="284.542" xlink:href="#lg1" y1="292.247" y2="348.642"/><linearGradient id="SVGID_9_" gradientUnits="userSpaceOnUse" x1="296.023" x2="192.023" xlink:href="#lg2" y1="302.469" y2="342.469"/><linearGradient id="SVGID_10_" gradientUnits="userSpaceOnUse" x1="255" x2="255" xlink:href="#lg2" y1="306.209" y2="408.209"/><linearGradient id="SVGID_11_" gradientUnits="userSpaceOnUse" x1="255" x2="255" xlink:href="#lg1" y1="323.437" y2="487.614"/><linearGradient id="SVGID_12_" gradientUnits="userSpaceOnUse" x1="288.646" x2="691.313" xlink:href="#lg2" y1="408.075" y2="712.742"/><linearGradient id="SVGID_13_" gradientUnits="userSpaceOnUse" x1="300.346" x2="-40.321" xlink:href="#lg2" y1="433.219" y2="599.886"/><linearGradient id="SVGID_14_" gradientUnits="userSpaceOnUse" x1="259.137" x2="525.803" xlink:href="#lg2" y1="423.984" y2="415.984"/><linearGradient id="SVGID_15_" gradientUnits="userSpaceOnUse" x1="216.369" x2="109.702" xlink:href="#lg2" y1="411.546" y2="346.213"/><linearGradient id="SVGID_16_" gradientUnits="userSpaceOnUse" x1="396.564" x2="377.757" xlink:href="#lg1" y1="316.854" y2="350.044"/><linearGradient id="SVGID_17_" gradientUnits="userSpaceOnUse" x1="166.845" x2="150.86" xlink:href="#lg1" y1="296.052" y2="354.131"/><linearGradient id="SVGID_18_" gradientUnits="userSpaceOnUse" x1="255" x2="255" xlink:href="#lg2" y1="323.209" y2="391.212"/><linearGradient id="SVGID_19_" gradientUnits="userSpaceOnUse" x1="255" x2="255" xlink:href="#lg2" y1="358.54" y2="539.202"/><linearGradient id="SVGID_20_" gradientUnits="userSpaceOnUse" x1="155.667" x2="155.667" xlink:href="#lg2" y1="483.121" y2="357.307"/><linearGradient id="SVGID_21_" gradientUnits="userSpaceOnUse" x1="188.484" x2="188.484" xlink:href="#lg2" y1="488.209" y2="386.209"/><linearGradient id="SVGID_22_" gradientUnits="userSpaceOnUse" x1="205.348" x2="205.348" xlink:href="#lg2" y1="488.209" y2="386.209"/><linearGradient id="lg3"><stop offset="0" stop-color="#c7e9ff"/><stop offset="1" stop-color="#7acbff"/></linearGradient><linearGradient id="SVGID_23_" gradientUnits="userSpaceOnUse" x1="113.599" x2="154.964" xlink:href="#lg3" y1="361.11" y2="448.598"/><linearGradient id="SVGID_24_" gradientUnits="userSpaceOnUse" x1="140.438" x2="193.586" xlink:href="#lg3" y1="385.628" y2="426.863"/><linearGradient id="SVGID_25_" gradientUnits="userSpaceOnUse" x1="139.78" x2="139.78" xlink:href="#lg2" y1="441.007" y2="460.046"/><linearGradient id="SVGID_26_" gradientUnits="userSpaceOnUse" x1="195.17" x2="224.454" xlink:href="#lg3" y1="389.786" y2="452.859"/><linearGradient id="lg4"><stop offset="0" stop-color="#092a40"/><stop offset="1" stop-color="#3a2f4d"/></linearGradient><linearGradient id="SVGID_27_" gradientUnits="userSpaceOnUse" x1="203.148" x2="225.597" xlink:href="#lg4" y1="403.783" y2="452.134"/><linearGradient id="SVGID_28_" gradientUnits="userSpaceOnUse" x1="390.781" x2="390.781" xlink:href="#lg3" y1="463.648" y2="431.299"/><linearGradient id="SVGID_29_" gradientUnits="userSpaceOnUse" x1="390.781" x2="390.781" xlink:href="#lg4" y1="458.114" y2="441.94"/><linearGradient id="SVGID_30_" gradientUnits="userSpaceOnUse" x1="76.591" x2="163.043" xlink:href="#lg1" y1="93.433" y2="179.885"/><linearGradient id="SVGID_31_" gradientUnits="userSpaceOnUse" x1="156.967" x2="179.894" xlink:href="#lg1" y1="70.269" y2="93.196"/><g><g><path d="m485.638 510h-461.276c-13.455 0-24.362-10.907-24.362-24.362v-461.276c0-13.455 10.907-24.362 24.362-24.362h461.275c13.456 0 24.363 10.907 24.363 24.362v461.275c0 13.456-10.907 24.363-24.362 24.363z" fill="url(#SVGID_1_)"/></g><path d="m488.433 102.258h-7.964c0-9.968-8.081-18.049-18.049-18.049h-35.6c-9.968 0-18.049 8.081-18.049 18.049s8.081 18.049 18.049 18.049h7.963c0 9.968 8.081 18.049 18.049 18.049h35.6c9.968 0 18.049-8.081 18.049-18.049 0-9.968-8.08-18.049-18.048-18.049z" fill="url(#SVGID_2_)"/><circle cx="371.114" cy="71.152" fill="url(#SVGID_3_)" r="66.943"/><g><g><path d="m130.559 332.694 106.537-240.49c5.449-12.3 22.878-12.37 28.426-.115l10.559 23.323c3.648 8.059 14.856 8.681 19.374 1.074 4.401-7.411 15.244-7.059 19.156.621l109.794 215.587z" fill="url(#SVGID_4_)"/><path d="m314.611 117.107c-3.911-7.68-14.755-8.032-19.156-.621-4.517 7.606-15.725 6.985-19.374-1.074l-10.559-23.323c-2.883-6.368-8.974-9.4-14.925-9.125h-.001l20.752 57.75c1.897 5.278-2.015 10.841-7.624 10.841-6.027 0-9.944 6.347-7.241 11.734l37.508 74.765c5.526 11.014-2.482 23.991-14.805 23.991-11.915 0-19.933 12.204-15.202 23.14l20.553 47.51h139.867z" fill="url(#SVGID_5_)"/></g><g><path d="m212.982 172.34c-8.81-15.685-28.509-15.685-37.319 0l-90.068 160.354h217.456z" fill="url(#SVGID_6_)"/><path d="m212.982 172.34c-7.413-13.198-22.534-15.288-32.392-6.275l21.83 43.392c3.385 6.728-1.506 14.664-9.038 14.664-7.318 0-12.215 7.529-9.249 14.218l18.324 41.323c3.453 7.787-2.248 16.551-10.766 16.551-8.5 0-14.2 8.729-10.783 16.512l8.768 19.969h113.373z" fill="url(#SVGID_7_)"/></g><g><path d="m313.433 281.209h-26.496c-8.378 0-16.414-3.328-22.338-9.253-12.337-12.337-32.339-12.337-44.676 0l-60.738 60.738h218.818l-42.232-42.232c-5.925-5.925-13.96-9.253-22.338-9.253z" fill="url(#SVGID_8_)"/><path d="m335.771 290.462c-5.924-5.924-13.96-9.253-22.338-9.253h-26.496c-8.292 0-16.344-3.167-22.162-9.075-7.237-7.35-17.17-10.397-26.646-9.153l35.672 35.672c6.252 6.252 14.732 9.765 23.575 9.765 8.842 0 17.322 3.513 23.575 9.765l14.512 14.511h42.542z" fill="url(#SVGID_9_)"/></g></g><path d="m85.595 332.694h338.81l-44.273-86.932h-245.708z" fill="url(#SVGID_10_)"/><path d="m510 485.638v-140.964h-510v140.964c0 13.455 10.907 24.362 24.362 24.362h461.275c13.456 0 24.363-10.907 24.363-24.362z" fill="url(#SVGID_11_)"/><g><g><path d="m424.4 344.669-84.19 165.33h-136.41l-73.24-165.33z" fill="url(#SVGID_12_)"/><path d="m284.54 344.669-20.56 47.52c-.94 2.18-1.38 4.41-1.38 6.58 0 8.73 7.05 16.55 16.59 16.55 12.32 0 20.33 12.98 14.8 24l-35.46 70.68h81.68l84.19-165.33z" fill="url(#SVGID_13_)"/></g><g><path d="m303.05 344.669-90.07 160.36c-1.06 1.88-2.27 3.54-3.61 4.97h-30.1c-1.34-1.43-2.55-3.09-3.61-4.97l-90.06-160.36z" fill="url(#SVGID_14_)"/></g><path d="m303.05 344.669-90.07 160.36c-1.06 1.88-2.27 3.54-3.61 4.97h-28.13l21.18-42.09c3.39-6.73-1.51-14.66-9.04-14.66-5.83 0-10.13-4.79-10.13-10.12 0-1.36.28-2.75.88-4.1l18.33-41.32c3.45-7.79-2.25-16.55-10.77-16.55-6.79 0-11.79-5.57-11.79-11.77 0-1.57.32-3.18 1.01-4.75l8.77-19.97z" fill="url(#SVGID_15_)"/></g><g><path d="m251.6 344.674s100.595-53.617 258.4-32.791v32.791z" fill="url(#SVGID_16_)"/><path d="m322.714 344.674s-125.633-93.802-322.714-57.366v57.366z" fill="url(#SVGID_17_)"/></g><path d="m294.89 327.817c-47.335-25.145-152.441-66.845-294.89-40.51v57.366h251.6 71.114 187.286v-32.791c-96.291-12.707-171.278 2.302-215.11 15.935z" fill="url(#SVGID_18_)"/><path d="m510 344.674h-184.896-73.624-251.48v58.888c142.899 23.103 248.295-17.401 296.298-42.031 44.004 13.22 118.339 27.731 213.702 17.011z" fill="url(#SVGID_19_)"/><g><path d="m47.333 441.876h216.667v68.124h-216.667z" fill="url(#SVGID_20_)"/><path d="m129.32 454.77h118.327v55.23h-118.327z" fill="url(#SVGID_21_)"/><path d="m163.05 454.77h84.597v55.23h-84.597z" fill="url(#SVGID_22_)"/></g><g><path d="m215.044 455.058h-150.528c-9.49 0-17.183-7.693-17.183-17.183v-25.843c0-51.057 41.39-92.447 92.447-92.447 51.057 0 92.447 41.39 92.447 92.447v25.843c0 9.49-7.693 17.183-17.183 17.183z" fill="url(#SVGID_23_)"/><g><path d="m179.792 364.278c-27.872 0-50.472 22.601-50.472 50.483v40.298h84.209v-90.782h-33.737z" fill="url(#SVGID_24_)"/></g><path d="m47.333 424.476v13.399c0 9.49 7.693 17.183 17.183 17.183h150.528c9.49 0 17.183-7.693 17.183-17.183v-13.399z" fill="url(#SVGID_25_)"/><g><g fill="#7acbff"><path d="m158.419 409.67h-12.785c-1.393 0-2.523-1.13-2.523-2.523v-8.431c0-1.393 1.13-2.523 2.523-2.523h12.785c1.393 0 2.523 1.13 2.523 2.523v8.431c0 1.393-1.129 2.523-2.523 2.523z"/><path d="m85.106 376.452h30.617c1.393 0 2.523-1.13 2.523-2.523v-8.431c0-1.393-1.13-2.523-2.523-2.523h-30.617c-1.393 0-2.523 1.13-2.523 2.523v8.431c0 1.393 1.129 2.523 2.523 2.523z"/><path d="m120.768 364.219h30.617c1.393 0 2.523-1.13 2.523-2.523v-8.431c0-1.393-1.13-2.523-2.523-2.523h-30.617c-1.393 0-2.523 1.13-2.523 2.523v8.431c0 1.393 1.13 2.523 2.523 2.523z"/><g><path d="m61.211 443.448h12.785c1.393 0 2.523-1.13 2.523-2.523v-8.431c0-1.393-1.13-2.523-2.523-2.523h-12.785c-1.393 0-2.523 1.13-2.523 2.523v8.431c0 1.393 1.13 2.523 2.523 2.523z"/><path d="m147.515 341.64h12.785c1.393 0 2.523-1.13 2.523-2.523v-8.431c0-1.393-1.13-2.523-2.523-2.523h-12.785c-1.393 0-2.523 1.13-2.523 2.523v8.431c0 1.394 1.13 2.523 2.523 2.523z"/><path d="m79.042 431.215h30.617c1.393 0 2.523-1.13 2.523-2.523v-8.431c0-1.393-1.13-2.523-2.523-2.523h-30.617c-1.393 0-2.523 1.13-2.523 2.523v8.431c0 1.393 1.13 2.523 2.523 2.523z"/></g></g></g><path d="m254.618 455.058h-91.568v-40.3c0-27.877 22.598-50.475 50.475-50.475 27.877 0 50.475 22.598 50.475 50.475v30.918c0 5.181-4.2 9.382-9.382 9.382z" fill="url(#SVGID_26_)"/><path d="m247.647 455.058h-62.996v-39.571c0-17.396 14.102-31.498 31.498-31.498 17.396 0 31.498 14.102 31.498 31.498z" fill="url(#SVGID_27_)"/></g><g><ellipse cx="390.781" cy="443.448" fill="url(#SVGID_28_)" rx="44.667" ry="9.134"/><ellipse cx="390.781" cy="448.015" fill="url(#SVGID_29_)" rx="38.676" ry="4.567"/></g></g><g><path d="m139.8 105.813h-11.748c0-5.996-1.983-11.529-5.328-15.98 4.362-3.039 7.222-8.084 7.222-13.803 0-9.29-7.531-16.821-16.821-16.821h-33.178c-9.29 0-16.821 7.531-16.821 16.821 0 1.079.111 2.132.306 3.155h-14.529c-14.706 0-26.627 11.922-26.627 26.627s11.922 26.627 26.627 26.627h11.748c0 14.706 11.921 26.627 26.627 26.627h52.52c14.706 0 26.627-11.921 26.627-26.627s-11.919-26.626-26.625-26.626z" fill="url(#SVGID_30_)"/><path d="m164.511 92.852h-3.564c-9.29 0-16.821-7.531-16.821-16.821 0-9.29 7.531-16.821 16.821-16.821h3.564c9.29 0 16.821 7.531 16.821 16.821 0 9.29-7.531 16.821-16.821 16.821z" fill="url(#SVGID_31_)"/></g></svg>