<svg id="Capa_1" enable-background="new 0 0 510 510" height="512" viewBox="0 0 510 510" width="512" xmlns="http://www.w3.org/2000/svg" xmlns:xlink="http://www.w3.org/1999/xlink"><linearGradient id="lg1"><stop offset="0" stop-color="#c7e9ff"/><stop offset=".3556" stop-color="#a3e6f2"/><stop offset="1" stop-color="#65e0db"/></linearGradient><linearGradient id="SVGID_1_" gradientUnits="userSpaceOnUse" x1="255" x2="255" xlink:href="#lg1" y1="34.721" y2="483.763"/><linearGradient id="SVGID_2_" gradientUnits="userSpaceOnUse" x1="255" x2="255" y1="358.197" y2="505.651"><stop offset="0" stop-color="#18cefb"/><stop offset="1" stop-color="#4a97f6"/></linearGradient><linearGradient id="lg2"><stop offset="0" stop-color="#4a97f6" stop-opacity="0"/><stop offset="1" stop-color="#0469bb"/></linearGradient><linearGradient id="SVGID_3_" gradientUnits="userSpaceOnUse" x1="252.984" x2="274.848" xlink:href="#lg2" y1="453.568" y2="333.837"/><linearGradient id="SVGID_4_" gradientUnits="userSpaceOnUse" x1="253.105" x2="268.626" xlink:href="#lg2" y1="482.194" y2="397.202"/><linearGradient id="lg3"><stop offset="0" stop-color="#18cefb" stop-opacity="0"/><stop offset="1" stop-color="#0469bb"/></linearGradient><linearGradient id="SVGID_5_" gradientTransform="matrix(-1 0 0 1 1574.562 0)" gradientUnits="userSpaceOnUse" x1="1483.342" x2="1483.342" xlink:href="#lg3" y1="362.741" y2="236.655"/><linearGradient id="SVGID_6_" gradientTransform="matrix(-1 0 0 1 1574.562 0)" gradientUnits="userSpaceOnUse" x1="1219.735" x2="1219.735" xlink:href="#lg3" y1="366.992" y2="202.929"/><linearGradient id="SVGID_7_" gradientUnits="userSpaceOnUse" x1="137.988" x2="210.733" xlink:href="#lg1" y1="220.932" y2="322.544"/><linearGradient id="SVGID_8_" gradientUnits="userSpaceOnUse" x1="273.507" x2="201.081" y1="297.882" y2="345.059"><stop offset="0" stop-color="#2f73a0" stop-opacity="0"/><stop offset="1" stop-color="#2f73a0"/></linearGradient><linearGradient id="SVGID_9_" gradientUnits="userSpaceOnUse" x1="382.822" x2="402.676" xlink:href="#lg2" y1="458.825" y2="341.227"/><linearGradient id="SVGID_10_" gradientUnits="userSpaceOnUse" x1="378.148" x2="408.989" y1="258.659" y2="383.74"><stop offset="0" stop-color="#bada00"/><stop offset=".2187" stop-color="#b6d600"/><stop offset=".4501" stop-color="#acc900"/><stop offset=".6873" stop-color="#9ab400"/><stop offset=".9271" stop-color="#829700"/><stop offset="1" stop-color="#798c00"/></linearGradient><linearGradient id="lg4"><stop offset="0" stop-color="#edf5ff"/><stop offset="1" stop-color="#c7e9ff"/></linearGradient><linearGradient id="SVGID_11_" gradientUnits="userSpaceOnUse" x1="218.057" x2="339.557" xlink:href="#lg4" y1="250.264" y2="351.764"/><linearGradient id="SVGID_12_" gradientUnits="userSpaceOnUse" x1="240.484" x2="276.484" xlink:href="#lg4" y1="268.653" y2="285.153"/><linearGradient id="SVGID_13_" gradientTransform="matrix(-.879 0 0 1 400.749 0)" gradientUnits="userSpaceOnUse" x1="229.613" x2="330.753" xlink:href="#lg4" y1="284.55" y2="369.041"/><linearGradient id="SVGID_14_" gradientTransform="matrix(-.879 0 0 1 400.749 0)" gradientUnits="userSpaceOnUse" x1="241.82" x2="271.882" xlink:href="#lg4" y1="302.265" y2="316.044"/><linearGradient id="lg5"><stop offset="0" stop-color="#ff7044"/><stop offset="1" stop-color="#f82814"/></linearGradient><linearGradient id="SVGID_15_" gradientTransform="matrix(.982 .19 -.19 .982 42.866 -50.56)" gradientUnits="userSpaceOnUse" x1="144.997" x2="159.611" xlink:href="#lg5" y1="214.314" y2="210.084"/><linearGradient id="lg6"><stop offset="0" stop-color="#ffd945"/><stop offset=".3043" stop-color="#ffcd3e"/><stop offset=".8558" stop-color="#ffad2b"/><stop offset="1" stop-color="#ffa325"/></linearGradient><linearGradient id="SVGID_16_" gradientTransform="matrix(.982 .19 -.19 .982 42.866 -50.56)" gradientUnits="userSpaceOnUse" x1="189.209" x2="198.724" xlink:href="#lg6" y1="215.226" y2="227.961"/><linearGradient id="SVGID_17_" gradientUnits="userSpaceOnUse" x1="185.136" x2="194.865" xlink:href="#lg5" y1="155.714" y2="193.656"/><linearGradient id="SVGID_18_" gradientUnits="userSpaceOnUse" x1="204.789" x2="224.646" y1="263.047" y2="263.047"><stop offset="0" stop-color="#efdcfb"/><stop offset=".4428" stop-color="#c1aec7"/><stop offset="1" stop-color="#8a7889"/></linearGradient><linearGradient id="SVGID_19_" gradientUnits="userSpaceOnUse" x1="212.614" x2="212.614" y1="400.145" y2="456.463"><stop offset="0" stop-color="#ffce47"/><stop offset="1" stop-color="#f6921e"/></linearGradient><linearGradient id="lg7"><stop offset="0" stop-color="#ff9356" stop-opacity="0"/><stop offset="1" stop-color="#ff755c"/></linearGradient><linearGradient id="SVGID_20_" gradientUnits="userSpaceOnUse" x1="212.616" x2="212.616" xlink:href="#lg7" y1="426.669" y2="363.327"/><linearGradient id="SVGID_21_" gradientUnits="userSpaceOnUse" x1="212.614" x2="212.614" xlink:href="#lg5" y1="365.378" y2="380.618"/><linearGradient id="SVGID_22_" gradientUnits="userSpaceOnUse" x1="211.642" x2="215.142" xlink:href="#lg7" y1="427.735" y2="404.235"/><linearGradient id="SVGID_23_" gradientUnits="userSpaceOnUse" x1="210.848" x2="215.356" xlink:href="#lg7" y1="418.566" y2="388.295"/><linearGradient id="SVGID_24_" gradientUnits="userSpaceOnUse" x1="212.614" x2="212.614" xlink:href="#lg2" y1="508.709" y2="445.677"/><linearGradient id="SVGID_25_" gradientUnits="userSpaceOnUse" x1="458.344" x2="494.548" xlink:href="#lg4" y1="42.931" y2="79.135"/><linearGradient id="SVGID_26_" gradientUnits="userSpaceOnUse" x1="365.102" x2="451.554" xlink:href="#lg4" y1="87.829" y2="174.281"/><linearGradient id="SVGID_27_" gradientUnits="userSpaceOnUse" x1="88.885" x2="173.771" xlink:href="#lg6" y1="55.819" y2="140.704"/><linearGradient id="SVGID_28_" gradientUnits="userSpaceOnUse" x1="40.643" x2="99.243" xlink:href="#lg4" y1="127.555" y2="186.155"/><g><path d="m485.638 510h-461.276c-13.455 0-24.362-10.907-24.362-24.362v-461.276c0-13.455 10.907-24.362 24.362-24.362h461.275c13.456 0 24.363 10.907 24.363 24.362v461.275c0 13.456-10.907 24.363-24.362 24.363z" fill="url(#SVGID_1_)"/><path d="m510 485.638v-137.012h-510v137.011c0 13.456 10.907 24.363 24.362 24.363h461.275c13.456 0 24.363-10.907 24.363-24.362z" fill="url(#SVGID_2_)"/><path d="m510 485.638v-88.445h-510v88.445c0 13.455 10.907 24.362 24.362 24.362h461.275c13.456 0 24.363-10.907 24.363-24.362z" fill="url(#SVGID_3_)"/><path d="m510 485.638v-29.867h-510v29.867c0 13.455 10.907 24.362 24.362 24.362h461.275c13.456 0 24.363-10.907 24.363-24.362z" fill="url(#SVGID_4_)"/><g><path d="m182.44 348.626-62.525-71.444c-17.571-20.078-39.102-20.153-56.708-.198l-63.207 71.642z" fill="url(#SVGID_5_)"/><path d="m510 348.626-106.36-92.963c-29.89-26.126-66.516-26.223-96.465-.257l-107.521 93.22z" fill="url(#SVGID_6_)"/><g><path d="m281.18 272.256h-30.594c-9.674 0-18.953-4.937-25.793-13.725-14.245-18.3-37.341-18.3-51.587 0l-70.133 90.095h252.666l-48.765-62.645c-6.842-8.788-16.12-13.725-25.794-13.725z" fill="url(#SVGID_7_)"/><path d="m306.973 285.981c-6.841-8.788-16.119-13.725-25.793-13.725h-30.595c-9.575 0-18.873-4.698-25.59-13.462-8.357-10.903-19.825-15.422-30.768-13.577l41.19 52.914c7.22 9.275 17.011 14.485 27.221 14.485 10.21 0 20.002 5.21 27.221 14.485l16.756 21.526h49.122z" fill="url(#SVGID_8_)"/></g></g><path d="m510 348.626h-215.91c-15.848 0-22.735 20.071-10.203 29.771 41.595 32.198 121.156 75.277 226.113 46.291z" fill="url(#SVGID_9_)"/><path d="m510 291.102c-104.957-28.986-184.518 14.093-226.113 46.291-12.532 9.701-5.644 29.771 10.203 29.771h215.91z" fill="url(#SVGID_10_)"/><g><path d="m213.333 149.209s150.255 43.332 150.255 213.999c0 0-78.255-41.334-150.255 0 0 0 70-119.332 0-213.999z" fill="url(#SVGID_11_)"/><path d="m213.333 149.209c70 94.667 0 214 0 214 142.834-119.501 0-214 0-214z" fill="url(#SVGID_12_)"/></g><g><path d="m213.333 215.209s-132 29.968-132 148c0 0 68.747-28.586 132 0 0-.001-61.495-82.53 0-148z" fill="url(#SVGID_13_)"/><path d="m213.333 215.209c-61.496 65.47 0 148 0 148-125.48-82.646 0-148 0-148z" fill="url(#SVGID_14_)"/></g><g><path d="m199.446 201.596-5.391-40.349c-12.092-.285-44.895 2.139-57.092 3.434-3.016.32-4.59 3.754-2.864 6.247l8.735 12.618c.69.997.89 2.254.543 3.416l-5.113 17.11c-.813 2.722 1.397 5.406 4.223 5.115 10.791-1.112 42.175-3.411 52.84-3.056 2.482.082 4.448-2.072 4.119-4.535z" fill="url(#SVGID_15_)"/><path d="m199.688 201.596-.535-4.001s-9.886-1.058-21.304 1.007c0 0 15.315 6.602 17.719 7.528 2.483.083 4.449-2.072 4.12-4.534z" fill="url(#SVGID_16_)"/><path d="m206.43 152.72v44.836c-8.806-.097-17.666.307-26.549 1.211-3.516.361-6.679-2.131-7.168-5.631-1.467-10.463-2.93-20.93-4.393-31.396-.516-3.683 2.127-7.063 5.829-7.455 10.793-1.142 21.566-1.662 32.281-1.565z" fill="url(#SVGID_17_)"/></g><g><path d="m212.614 384.638c-4.282 0-7.753-3.471-7.753-7.753v-227.676c0-4.282 3.471-7.753 7.753-7.753 4.282 0 7.753 3.471 7.753 7.753v227.676c0 4.282-3.471 7.753-7.753 7.753z" fill="url(#SVGID_18_)"/><path d="m299.424 446h-173.621c-10.007 0-19.473-4.546-25.729-12.356l-35.724-44.597c-5.94-7.415-.661-18.408 8.84-18.408h278.848c9.501 0 14.78 10.993 8.84 18.408l-35.724 44.597c-6.257 7.81-15.722 12.356-25.73 12.356z" fill="url(#SVGID_19_)"/><path d="m352.038 370.639h-278.848c-7.694 0-12.614 7.209-11.055 13.889l61.384 61.384c.758.053 1.519.088 2.284.088h173.622c10.007 0 19.473-4.546 25.729-12.356l35.724-44.597c5.94-7.415.66-18.408-8.84-18.408z" fill="url(#SVGID_20_)"/><path d="m363.588 384.033h-301.949c-5.75 0-10.412-4.662-10.412-10.412 0-5.75 4.662-10.412 10.412-10.412h301.949c5.75 0 10.412 4.662 10.412 10.412 0 5.75-4.662 10.412-10.412 10.412z" fill="url(#SVGID_21_)"/></g><path d="m90.113 421.209 9.961 12.435c6.256 7.81 15.722 12.356 25.729 12.356h173.622c10.007 0 19.473-4.546 25.729-12.356l9.961-12.435z" fill="url(#SVGID_22_)"/><path d="m78.498 406.709 21.576 26.935c6.256 7.81 15.722 12.356 25.729 12.356h173.622c10.007 0 19.473-4.546 25.729-12.356l21.576-26.935z" fill="url(#SVGID_23_)"/><path d="m325.154 458.356c-6.257-7.81-15.722-12.356-25.73-12.356h-173.621c-10.007 0-19.473 4.546-25.729 12.356l-35.724 44.597c-1.734 2.165-2.506 4.634-2.502 7.047h301.532c.004-2.412-.768-4.882-2.502-7.047z" fill="url(#SVGID_24_)"/><g><path d="m484.032 68.851h-33.178c-9.29 0-16.821-7.531-16.821-16.821 0-9.29 7.531-16.821 16.821-16.821h33.178c9.29 0 16.821 7.531 16.821 16.821 0 9.29-7.531 16.821-16.821 16.821z" fill="url(#SVGID_25_)"/><path d="m439.207 89.312h-11.748c0-14.706-11.922-26.627-26.627-26.627h-52.52c-14.706 0-26.627 11.922-26.627 26.627s11.922 26.627 26.627 26.627h11.748c0 4.821 1.288 9.339 3.528 13.239h-.177c-9.29 0-16.821 7.531-16.821 16.821 0 9.29 7.531 16.821 16.821 16.821h33.178c9.29 0 16.821-7.531 16.821-16.821 0-1.177-.123-2.324-.353-3.433h26.15c14.706 0 26.627-11.921 26.627-26.627.001-14.705-11.921-26.627-26.627-26.627z" fill="url(#SVGID_26_)"/></g><circle cx="110.218" cy="77.152" fill="url(#SVGID_27_)" r="66.943"/><path d="m86.176 133.258h-7.964c0-9.968-8.081-18.049-18.049-18.049h-35.6c-9.968 0-18.049 8.081-18.049 18.049s8.081 18.049 18.049 18.049h7.963c0 9.968 8.081 18.049 18.049 18.049h35.6c9.968 0 18.049-8.081 18.049-18.049.001-9.968-8.079-18.049-18.048-18.049z" fill="url(#SVGID_28_)"/></g></svg>