<!--
  - Copyright (c) 2023. Selldone® Business OS™
  -
  - Author: M.Pajuhaan
  - Web: https://selldone.com
  - ━━━━━━━━━━━━━━━━━━━━━━━━━━━━━━━━━━━━━━━━━━━━━━━━━━━━━━
  -
  - All rights reserved. In the weave of time, where traditions and innovations intermingle, this content was crafted.
  - From the essence of thought, through the corridors of creativity, each word, and sentiment has been molded.
  - Not just to exist, but to inspire. Like an artist's stroke or a sculptor's chisel, every nuance is deliberate.
  - Our journey is not just about reaching a destination, but about creating a masterpiece.
  - Tread carefully, for you're treading on dreams.
  -->

<svg id="Capa_1" enable-background="new 0 0 510 510" height="512" viewBox="0 0 510 510" width="512" xmlns="http://www.w3.org/2000/svg" xmlns:xlink="http://www.w3.org/1999/xlink"><linearGradient id="lg1"><stop offset="0" stop-color="#092a40"/><stop offset="1" stop-color="#3a2f4d"/></linearGradient><linearGradient id="SVGID_1_" gradientUnits="userSpaceOnUse" x1="255" x2="255" xlink:href="#lg1" y1="77.488" y2="305.655"/><linearGradient id="SVGID_2_" gradientUnits="userSpaceOnUse" x1="255" x2="255" xlink:href="#lg1" y1="148.32" y2="353.946"/><linearGradient id="lg2"><stop offset="0" stop-color="#2f73a0" stop-opacity="0"/><stop offset=".5026" stop-color="#345278" stop-opacity=".503"/><stop offset="1" stop-color="#3a2f4d"/></linearGradient><linearGradient id="SVGID_3_" gradientUnits="userSpaceOnUse" x1="127.669" x2="88.409" xlink:href="#lg2" y1="228.778" y2="228.778"/><linearGradient id="SVGID_4_" gradientUnits="userSpaceOnUse" x1="231.669" x2="192.409" xlink:href="#lg2" y1="228.778" y2="228.778"/><linearGradient id="SVGID_5_" gradientUnits="userSpaceOnUse" x1="176.425" x2="137.165" xlink:href="#lg2" y1="228.778" y2="228.778"/><linearGradient id="SVGID_6_" gradientUnits="userSpaceOnUse" x1="352.925" x2="313.665" xlink:href="#lg2" y1="228.778" y2="228.778"/><linearGradient id="SVGID_7_" gradientUnits="userSpaceOnUse" x1="391.17" x2="360.025" xlink:href="#lg2" y1="227.612" y2="227.612"/><linearGradient id="SVGID_8_" gradientUnits="userSpaceOnUse" x1="286.831" x2="258.594" xlink:href="#lg2" y1="227.612" y2="227.612"/><linearGradient id="SVGID_9_" gradientUnits="userSpaceOnUse" x1="427.115" x2="398.879" xlink:href="#lg2" y1="227.612" y2="227.612"/><linearGradient id="lg3"><stop offset="0" stop-color="#9da6ac"/><stop offset="1" stop-color="#5a7587"/></linearGradient><linearGradient id="SVGID_10_" gradientUnits="userSpaceOnUse" x1="94" x2="117.585" xlink:href="#lg3" y1="238.303" y2="261.888"/><linearGradient id="SVGID_11_" gradientUnits="userSpaceOnUse" x1="43.29" x2="32.326" xlink:href="#lg3" y1="306.111" y2="317.075"/><linearGradient id="SVGID_12_" gradientUnits="userSpaceOnUse" x1="21.5" x2="31.16" xlink:href="#lg3" y1="128.153" y2="128.153"/><linearGradient id="SVGID_13_" gradientUnits="userSpaceOnUse" x1="34.161" x2="23.661" xlink:href="#lg3" y1="147.57" y2="158.07"/><linearGradient id="SVGID_14_" gradientTransform="matrix(-1 0 0 1 218.416 0)" gradientUnits="userSpaceOnUse" x1="105.552" x2="115.212" xlink:href="#lg3" y1="53.671" y2="53.671"/><linearGradient id="SVGID_15_" gradientTransform="matrix(-1 0 0 1 218.416 0)" gradientUnits="userSpaceOnUse" x1="118.213" x2="107.713" xlink:href="#lg3" y1="64.894" y2="75.394"/><linearGradient id="SVGID_16_" gradientUnits="userSpaceOnUse" x1="55.333" x2="95.472" xlink:href="#lg3" y1="225.925" y2="225.925"/><linearGradient id="SVGID_17_" gradientUnits="userSpaceOnUse" x1="72.235" x2="72.235" xlink:href="#lg3" y1="337.179" y2="318.512"/><linearGradient id="SVGID_18_" gradientUnits="userSpaceOnUse" x1="72.235" x2="72.235" xlink:href="#lg3" y1="415.246" y2="396.579"/><linearGradient id="SVGID_19_" gradientUnits="userSpaceOnUse" x1="72.235" x2="72.235" xlink:href="#lg3" y1="257.148" y2="238.482"/><linearGradient id="SVGID_20_" gradientUnits="userSpaceOnUse" x1="72.235" x2="72.235" xlink:href="#lg3" y1="177.118" y2="158.452"/><linearGradient id="SVGID_21_" gradientUnits="userSpaceOnUse" x1="72.235" x2="72.235" xlink:href="#lg3" y1="97.088" y2="78.421"/><linearGradient id="SVGID_22_" gradientUnits="userSpaceOnUse" x1="72.235" x2="72.235" xlink:href="#lg3" y1="117.338" y2="98.671"/><linearGradient id="lg4"><stop offset="0" stop-color="#5a7587"/><stop offset="1" stop-color="#9da6ac"/></linearGradient><linearGradient id="SVGID_23_" gradientTransform="matrix(-1 0 0 -1 144.469 646.644)" gradientUnits="userSpaceOnUse" x1="85.098" x2="85.098" xlink:href="#lg4" y1="446.669" y2="428.002"/><linearGradient id="SVGID_24_" gradientTransform="matrix(-1 0 0 -1 144.469 646.644)" gradientUnits="userSpaceOnUse" x1="85.098" x2="85.098" xlink:href="#lg4" y1="524.736" y2="506.069"/><linearGradient id="SVGID_25_" gradientTransform="matrix(-1 0 0 -1 144.469 646.644)" gradientUnits="userSpaceOnUse" x1="85.098" x2="85.098" xlink:href="#lg4" y1="366.639" y2="347.972"/><linearGradient id="SVGID_26_" gradientTransform="matrix(-1 0 0 -1 144.469 646.644)" gradientUnits="userSpaceOnUse" x1="85.098" x2="85.098" xlink:href="#lg4" y1="280.17" y2="261.503"/><linearGradient id="SVGID_27_" gradientTransform="matrix(-1 0 0 -1 144.469 646.644)" gradientUnits="userSpaceOnUse" x1="85.098" x2="85.098" xlink:href="#lg4" y1="300.419" y2="281.753"/><linearGradient id="SVGID_28_" gradientTransform="matrix(-1 0 0 1 805.757 0)" gradientUnits="userSpaceOnUse" x1="389.757" x2="413.342" xlink:href="#lg3" y1="291.146" y2="314.731"/><linearGradient id="SVGID_29_" gradientTransform="matrix(-1 0 0 1 805.757 0)" gradientUnits="userSpaceOnUse" x1="339.727" x2="328.737" xlink:href="#lg3" y1="352.049" y2="363.039"/><linearGradient id="SVGID_30_" gradientTransform="matrix(-1 0 0 1 805.757 0)" gradientUnits="userSpaceOnUse" x1="317.257" x2="326.917" xlink:href="#lg3" y1="62.595" y2="62.595"/><linearGradient id="SVGID_31_" gradientTransform="matrix(-1 0 0 1 805.757 0)" gradientUnits="userSpaceOnUse" x1="329.918" x2="319.418" xlink:href="#lg3" y1="82.011" y2="92.511"/><linearGradient id="SVGID_32_" gradientUnits="userSpaceOnUse" x1="397.136" x2="406.796" xlink:href="#lg3" y1="193.09" y2="193.09"/><linearGradient id="SVGID_33_" gradientUnits="userSpaceOnUse" x1="409.797" x2="399.297" xlink:href="#lg3" y1="204.313" y2="214.813"/><linearGradient id="SVGID_34_" gradientUnits="userSpaceOnUse" x1="433.727" x2="473.866" xlink:href="#lg3" y1="225.425" y2="225.425"/><linearGradient id="SVGID_35_" gradientUnits="userSpaceOnUse" x1="450.628" x2="450.628" xlink:href="#lg3" y1="333.179" y2="314.512"/><linearGradient id="SVGID_36_" gradientUnits="userSpaceOnUse" x1="450.628" x2="450.628" xlink:href="#lg3" y1="411.246" y2="392.579"/><linearGradient id="SVGID_37_" gradientUnits="userSpaceOnUse" x1="450.628" x2="450.628" xlink:href="#lg3" y1="253.148" y2="234.482"/><linearGradient id="SVGID_38_" gradientUnits="userSpaceOnUse" x1="450.628" x2="450.628" xlink:href="#lg3" y1="173.118" y2="154.452"/><linearGradient id="SVGID_39_" gradientUnits="userSpaceOnUse" x1="450.628" x2="450.628" xlink:href="#lg3" y1="93.088" y2="74.421"/><linearGradient id="SVGID_40_" gradientUnits="userSpaceOnUse" x1="450.628" x2="450.628" xlink:href="#lg3" y1="113.338" y2="94.671"/><linearGradient id="SVGID_41_" gradientTransform="matrix(-1 0 0 -1 152.279 646.644)" gradientUnits="userSpaceOnUse" x1="-285.486" x2="-285.486" xlink:href="#lg4" y1="450.669" y2="432.002"/><linearGradient id="SVGID_42_" gradientTransform="matrix(-1 0 0 -1 152.279 646.644)" gradientUnits="userSpaceOnUse" x1="-285.486" x2="-285.486" xlink:href="#lg4" y1="528.736" y2="510.069"/><linearGradient id="SVGID_43_" gradientTransform="matrix(-1 0 0 -1 152.279 646.644)" gradientUnits="userSpaceOnUse" x1="-285.486" x2="-285.486" xlink:href="#lg4" y1="370.639" y2="351.972"/><linearGradient id="SVGID_44_" gradientTransform="matrix(-1 0 0 -1 152.279 646.644)" gradientUnits="userSpaceOnUse" x1="-285.486" x2="-285.486" xlink:href="#lg4" y1="284.17" y2="265.503"/><linearGradient id="SVGID_45_" gradientTransform="matrix(-1 0 0 -1 152.279 646.644)" gradientUnits="userSpaceOnUse" x1="-285.486" x2="-285.486" xlink:href="#lg4" y1="304.419" y2="285.753"/><linearGradient id="lg5"><stop offset="0" stop-color="#edf5ff"/><stop offset="1" stop-color="#c7e9ff"/></linearGradient><linearGradient id="SVGID_46_" gradientUnits="userSpaceOnUse" x1="255" x2="255" xlink:href="#lg5" y1="449.061" y2="522.011"/><linearGradient id="lg6"><stop offset="0" stop-color="#2f73a0" stop-opacity="0"/><stop offset="1" stop-color="#2f73a0"/></linearGradient><linearGradient id="SVGID_47_" gradientUnits="userSpaceOnUse" x1="303.546" x2="303.546" xlink:href="#lg6" y1="495.209" y2="393.56"/><linearGradient id="lg7"><stop offset="0" stop-color="#c59b6d"/><stop offset="1" stop-color="#8b6239"/></linearGradient><linearGradient id="SVGID_48_" gradientUnits="userSpaceOnUse" x1="125.6" x2="172.042" xlink:href="#lg7" y1="356.919" y2="400.629"/><linearGradient id="lg8"><stop offset="0" stop-color="#3a2f4d" stop-opacity="0"/><stop offset="1" stop-color="#3a2f4d"/></linearGradient><linearGradient id="SVGID_49_" gradientUnits="userSpaceOnUse" x1="192.747" x2="150.511" xlink:href="#lg8" y1="384.401" y2="342.165"/><linearGradient id="lg9"><stop offset="0" stop-color="#754c24"/><stop offset="1" stop-color="#3a2f4d"/></linearGradient><linearGradient id="SVGID_50_" gradientUnits="userSpaceOnUse" x1="139.054" x2="162.515" xlink:href="#lg9" y1="327.986" y2="364.482"/><linearGradient id="SVGID_51_" gradientUnits="userSpaceOnUse" x1="141.161" x2="141.161" xlink:href="#lg5" y1="281.519" y2="316.672"/><linearGradient id="SVGID_52_" gradientUnits="userSpaceOnUse" x1="152.09" x2="152.09" xlink:href="#lg8" y1="360.892" y2="263.121"/><linearGradient id="SVGID_53_" gradientUnits="userSpaceOnUse" x1="148.491" x2="153.88" xlink:href="#lg7" y1="426.369" y2="447.924"/><linearGradient id="SVGID_54_" gradientUnits="userSpaceOnUse" x1="173.199" x2="133.485" xlink:href="#lg9" y1="421.401" y2="381.687"/><linearGradient id="lg10"><stop offset="0" stop-color="#ffd945"/><stop offset=".3043" stop-color="#ffcd3e"/><stop offset=".8558" stop-color="#ffad2b"/><stop offset="1" stop-color="#ffa325"/></linearGradient><linearGradient id="SVGID_55_" gradientUnits="userSpaceOnUse" x1="166.588" x2="139.314" xlink:href="#lg10" y1="414.789" y2="387.516"/><linearGradient id="SVGID_56_" gradientUnits="userSpaceOnUse" x1="273.191" x2="280.982" xlink:href="#lg7" y1="289.497" y2="336.244"/><linearGradient id="SVGID_57_" gradientUnits="userSpaceOnUse" x1="264.138" x2="264.138" xlink:href="#lg7" y1="324.367" y2="307.381"/><linearGradient id="SVGID_58_" gradientUnits="userSpaceOnUse" x1="348.274" x2="348.274" xlink:href="#lg7" y1="317.522" y2="301.042"/><linearGradient id="SVGID_59_" gradientUnits="userSpaceOnUse" x1="273.191" x2="280.982" xlink:href="#lg7" y1="315.457" y2="362.204"/><linearGradient id="SVGID_60_" gradientTransform="matrix(-1 0 0 1 -554 0)" gradientUnits="userSpaceOnUse" x1="-842.593" x2="-842.593" xlink:href="#lg7" y1="350.327" y2="333.341"/><linearGradient id="SVGID_61_" gradientTransform="matrix(-1 0 0 1 -554 0)" gradientUnits="userSpaceOnUse" x1="-758.457" x2="-758.457" xlink:href="#lg7" y1="343.482" y2="327.002"/><linearGradient id="SVGID_62_" gradientUnits="userSpaceOnUse" x1="273.191" x2="280.982" xlink:href="#lg7" y1="341.417" y2="388.164"/><linearGradient id="SVGID_63_" gradientUnits="userSpaceOnUse" x1="264.138" x2="264.138" xlink:href="#lg7" y1="376.287" y2="359.301"/><linearGradient id="SVGID_64_" gradientUnits="userSpaceOnUse" x1="348.274" x2="348.274" xlink:href="#lg7" y1="369.442" y2="352.962"/><linearGradient id="SVGID_65_" gradientUnits="userSpaceOnUse" x1="273.191" x2="280.982" xlink:href="#lg7" y1="367.377" y2="414.124"/><linearGradient id="SVGID_66_" gradientTransform="matrix(-1 0 0 1 -554 0)" gradientUnits="userSpaceOnUse" x1="-842.593" x2="-842.593" xlink:href="#lg7" y1="402.247" y2="385.261"/><linearGradient id="SVGID_67_" gradientTransform="matrix(-1 0 0 1 -554 0)" gradientUnits="userSpaceOnUse" x1="-758.457" x2="-758.457" xlink:href="#lg7" y1="395.402" y2="378.922"/><linearGradient id="SVGID_68_" gradientUnits="userSpaceOnUse" x1="273.191" x2="280.982" xlink:href="#lg7" y1="393.337" y2="440.084"/><linearGradient id="SVGID_69_" gradientUnits="userSpaceOnUse" x1="264.138" x2="264.138" xlink:href="#lg7" y1="428.207" y2="411.221"/><linearGradient id="SVGID_70_" gradientUnits="userSpaceOnUse" x1="348.274" x2="348.274" xlink:href="#lg7" y1="421.362" y2="404.882"/><linearGradient id="SVGID_71_" gradientUnits="userSpaceOnUse" x1="273.191" x2="280.982" xlink:href="#lg7" y1="419.297" y2="466.044"/><linearGradient id="SVGID_72_" gradientTransform="matrix(-1 0 0 1 -554 0)" gradientUnits="userSpaceOnUse" x1="-842.593" x2="-842.593" xlink:href="#lg7" y1="454.167" y2="437.181"/><linearGradient id="SVGID_73_" gradientTransform="matrix(-1 0 0 1 -554 0)" gradientUnits="userSpaceOnUse" x1="-758.457" x2="-758.457" xlink:href="#lg7" y1="447.322" y2="430.842"/><linearGradient id="SVGID_74_" gradientUnits="userSpaceOnUse" x1="298.619" x2="212.901" xlink:href="#lg9" y1="317.184" y2="231.466"/><linearGradient id="SVGID_75_" gradientUnits="userSpaceOnUse" x1="248.064" x2="294.714" xlink:href="#lg9" y1="235.549" y2="315.665"/><linearGradient id="SVGID_76_" gradientUnits="userSpaceOnUse" x1="285.339" x2="216.848" xlink:href="#lg8" y1="309.156" y2="240.665"/><linearGradient id="lg11"><stop offset="0" stop-color="#dfdfdf"/><stop offset="1" stop-color="#9da6ac"/></linearGradient><linearGradient id="SVGID_77_" gradientUnits="userSpaceOnUse" x1="194.086" x2="220.667" xlink:href="#lg11" y1="173.15" y2="199.732"/><linearGradient id="lg12"><stop offset="0" stop-color="#9da6ac" stop-opacity="0"/><stop offset=".2144" stop-color="#86959f" stop-opacity=".214"/><stop offset=".5076" stop-color="#6e8492" stop-opacity=".508"/><stop offset=".7775" stop-color="#5f798a" stop-opacity=".778"/><stop offset="1" stop-color="#5a7587"/></linearGradient><linearGradient id="SVGID_78_" gradientUnits="userSpaceOnUse" x1="203.451" x2="168.181" xlink:href="#lg12" y1="155.572" y2="164.823"/><linearGradient id="SVGID_79_" gradientUnits="userSpaceOnUse" x1="189.244" x2="213.817" xlink:href="#lg12" y1="190.096" y2="216.982"/><linearGradient id="SVGID_80_" gradientUnits="userSpaceOnUse" x1="198.589" x2="184.568" xlink:href="#lg12" y1="165.185" y2="213.753"/><linearGradient id="SVGID_81_" gradientUnits="userSpaceOnUse" x1="209.578" x2="220.178" xlink:href="#lg12" y1="175.241" y2="185.263"/><linearGradient id="SVGID_82_" gradientUnits="userSpaceOnUse" x1="219.585" x2="229.512" xlink:href="#lg11" y1="158.465" y2="168.391"/><linearGradient id="SVGID_83_" gradientUnits="userSpaceOnUse" x1="206.292" x2="216.219" xlink:href="#lg11" y1="123.779" y2="133.706"/><linearGradient id="SVGID_84_" gradientUnits="userSpaceOnUse" x1="218.722" x2="231.561" xlink:href="#lg11" y1="136.757" y2="149.597"/><linearGradient id="SVGID_85_" gradientUnits="userSpaceOnUse" x1="187.695" x2="203.371" xlink:href="#lg9" y1="211.712" y2="238.453"/><linearGradient id="SVGID_86_" gradientUnits="userSpaceOnUse" x1="201.32" x2="201.32" xlink:href="#lg8" y1="240.887" y2="208.033"/><linearGradient id="SVGID_87_" gradientUnits="userSpaceOnUse" x1="194.779" x2="204.138" xlink:href="#lg7" y1="188.327" y2="204.292"/><linearGradient id="SVGID_88_" gradientUnits="userSpaceOnUse" x1="181.632" x2="186.279" xlink:href="#lg5" y1="186.917" y2="194.845"/><linearGradient id="SVGID_89_" gradientUnits="userSpaceOnUse" x1="198.109" x2="228.563" xlink:href="#lg5" y1="186.665" y2="217.12"/><linearGradient id="SVGID_90_" gradientUnits="userSpaceOnUse" x1="211.665" x2="180.416" xlink:href="#lg6" y1="203.489" y2="213.228"/><linearGradient id="SVGID_91_" gradientUnits="userSpaceOnUse" x1="215.351" x2="198.306" xlink:href="#lg6" y1="198.15" y2="179.482"/><linearGradient id="SVGID_92_" gradientUnits="userSpaceOnUse" x1="276.366" x2="276.366" xlink:href="#lg7" y1="184.518" y2="336.161"/><linearGradient id="lg13"><stop offset="0" stop-color="#754c24" stop-opacity="0"/><stop offset="1" stop-color="#754c24"/></linearGradient><linearGradient id="SVGID_93_" gradientUnits="userSpaceOnUse" x1="296.624" x2="248.96" xlink:href="#lg13" y1="213.519" y2="180.56"/><linearGradient id="SVGID_94_" gradientUnits="userSpaceOnUse" x1="258.926" x2="299.531" xlink:href="#lg9" y1="374.436" y2="444.172"/><linearGradient id="SVGID_95_" gradientUnits="userSpaceOnUse" x1="245.652" x2="301.654" xlink:href="#lg7" y1="377.62" y2="433.622"/><linearGradient id="SVGID_96_" gradientUnits="userSpaceOnUse" x1="310.865" x2="280.727" xlink:href="#lg13" y1="429.81" y2="399.671"/><linearGradient id="SVGID_97_" gradientUnits="userSpaceOnUse" x1="284.25" x2="291.145" xlink:href="#lg10" y1="403.194" y2="410.089"/><linearGradient id="SVGID_98_" gradientTransform="matrix(-1 0 0 -1 2639.734 -5545.734)" gradientUnits="userSpaceOnUse" x1="2350.152" x2="2354.013" xlink:href="#lg10" y1="-5954.26" y2="-5950.399"/><linearGradient id="SVGID_99_" gradientUnits="userSpaceOnUse" x1="255" x2="255" xlink:href="#lg7" y1="444.394" y2="466.6"/><linearGradient id="SVGID_100_" gradientUnits="userSpaceOnUse" x1="365.225" x2="383.747" xlink:href="#lg5" y1="435.324" y2="473.631"/><linearGradient id="SVGID_101_" gradientUnits="userSpaceOnUse" x1="101.587" x2="146.244" xlink:href="#lg5" y1="414.021" y2="458.677"/><linearGradient id="SVGID_102_" gradientUnits="userSpaceOnUse" x1="145.493" x2="160.835" xlink:href="#lg5" y1="446.115" y2="477.846"/><linearGradient id="SVGID_103_" gradientUnits="userSpaceOnUse" x1="276.449" x2="276.449" xlink:href="#lg5" y1="170.209" y2="216.712"/><linearGradient id="SVGID_104_" gradientUnits="userSpaceOnUse" x1="291.291" x2="235.292" xlink:href="#lg6" y1="197.141" y2="153.141"/><linearGradient id="SVGID_105_" gradientUnits="userSpaceOnUse" x1="368.942" x2="325.942" xlink:href="#lg8" y1="350.135" y2="265.801"/><linearGradient id="SVGID_106_" gradientUnits="userSpaceOnUse" x1="315.31" x2="360.778" xlink:href="#lg5" y1="276.553" y2="322.021"/><linearGradient id="SVGID_107_" gradientUnits="userSpaceOnUse" x1="335.549" x2="288.896" xlink:href="#lg6" y1="301.67" y2="316.211"/><linearGradient id="SVGID_108_" gradientUnits="userSpaceOnUse" x1="341.052" x2="315.605" xlink:href="#lg6" y1="293.699" y2="265.829"/><linearGradient id="SVGID_109_" gradientUnits="userSpaceOnUse" x1="223.061" x2="228.14" xlink:href="#lg5" y1="288.077" y2="298.581"/><linearGradient id="SVGID_110_" gradientUnits="userSpaceOnUse" x1="285.356" x2="289.614" xlink:href="#lg5" y1="346.41" y2="355.216"/><linearGradient id="SVGID_111_" gradientUnits="userSpaceOnUse" x1="288.981" x2="293.413" xlink:href="#lg5" y1="399.546" y2="403.978"/><g><path d="m485.638 472.342h-461.276c-13.455 0-24.362-10.907-24.362-24.362v-423.618c0-13.455 10.907-24.362 24.362-24.362h461.275c13.456 0 24.363 10.907 24.363 24.362v423.618c0 13.455-10.907 24.362-24.362 24.362z" fill="url(#SVGID_1_)"/><path d="m462 510h-414c-9.941 0-18-8.059-18-18v-251.333c0-9.941 8.059-18 18-18h414c9.941 0 18 8.059 18 18v251.333c0 9.941-8.059 18-18 18z" fill="url(#SVGID_2_)"/><g><path d="m173.931 266.233-43.061 43.073v148.25h-31.703v-101.534l-12.807-12.807v-20.875l12.807 12.807v-98.739l-30.77-30.77c-3.882-3.87-6.051-9.126-6.051-14.61v-3.756c0-3.164 3.82-4.74 6.051-2.508l30.77 30.77v-215.534h31.703v288.431l22.186-22.198z" fill="url(#SVGID_3_)"/><path d="m277.931 128.427-43.061 43.073v286.056h-31.703v-239.34l-12.807-12.807v-20.875l12.807 12.807v-98.739l-30.77-30.77c-3.882-3.87-6.051-9.126-6.051-14.61v-3.756c0-3.164 3.82-4.74 6.051-2.508l30.77 30.77v-77.728h31.703v150.625l22.186-22.198z" fill="url(#SVGID_4_)"/><path d="m222.687 266.233-43.061 43.073v148.25h-31.703v-101.534l-12.807-12.807v-20.875l12.807 12.807v-98.739l-30.77-30.77c-3.882-3.87-6.051-9.126-6.051-14.61v-3.756c0-3.164 3.82-4.74 6.051-2.508l30.77 30.77v-215.534h31.703v288.431l22.186-22.198z" fill="url(#SVGID_5_)"/><path d="m399.187 266.233-43.061 43.073v148.25h-31.703v-101.534l-12.807-12.807v-20.875l12.807 12.807v-98.739l-30.77-30.77c-3.882-3.87-6.051-9.126-6.051-14.61v-3.756c0-3.164 3.82-4.74 6.051-2.508l30.77 30.77v-215.534h31.703v288.431l22.186-22.198z" fill="url(#SVGID_6_)"/></g><g><path d="m427.87 106.5-34.16 34.17v314.553h-25.15v-277.493l-8.445-8.445c-1.098-1.098-1.715-2.587-1.715-4.14 0-5.216 6.307-7.828 9.995-4.14l.165.165v-78.33l-24.41-24.41c-3.08-3.07-4.8-7.24-4.8-11.59v-2.982c0-2.505 3.029-3.76 4.8-1.988l24.41 24.41v-66.28h25.15v124.11l17.6-17.61z" fill="url(#SVGID_7_)"/><path d="m318.378 180.106-24.168 24.174v250.943h-25.15v-213.883l-8.445-8.445c-1.098-1.098-1.715-2.587-1.715-4.14 0-5.216 6.307-7.828 9.995-4.14l.165.165v-78.33l-24.41-24.41c-3.08-3.07-4.8-7.24-4.8-11.59v-2.982c0-2.505 3.029-3.76 4.8-1.988l24.41 24.41v-129.89h25.15v187.72l15.885-15.894c1.098-1.099 2.588-1.716 4.142-1.716 5.216 0 7.828 6.306 4.141 9.996z" fill="url(#SVGID_8_)"/><path d="m458.662 180.106-24.168 24.175v250.943h-25.15v-213.884l-8.445-8.445c-1.098-1.098-1.715-2.587-1.715-4.14 0-5.216 6.307-7.828 9.995-4.14l.165.165v-78.33l-24.41-24.41c-3.08-3.07-4.8-7.24-4.8-11.59v-2.98c0-2.506 3.029-3.761 4.801-1.989l24.409 24.409v-129.89h25.15v187.72l15.885-15.894c1.098-1.099 2.588-1.716 4.142-1.716 5.216 0 7.829 6.306 4.141 9.996z" fill="url(#SVGID_9_)"/></g><g><path d="m79 283.719 60.416-60.416h-26.085l-34.331 34.331z" fill="url(#SVGID_10_)"/><path d="m16.197 306.821 33.719 32.569v-26.085l-20.684-19.979c-5.955-5.752-15.899-1.532-15.899 6.748 0 2.544 1.034 4.979 2.864 6.747z" fill="url(#SVGID_11_)"/><g><path d="m24.625 154.172c-1.864 0-3.375-1.511-3.375-3.375v-45.289c0-1.864 1.511-3.375 3.375-3.375 1.864 0 3.375 1.511 3.375 3.375v45.289c0 1.864-1.511 3.375-3.375 3.375z" fill="url(#SVGID_12_)"/><path d="m7.563 147.601 42.748 42.748v-26.085l-42.748-42.749c-2.791-2.791-7.563-.814-7.563 3.133v4.693c0 6.849 2.721 13.417 7.563 18.26z" fill="url(#SVGID_13_)"/></g><g><path d="m109.739 71.496c1.864 0 3.375-1.511 3.375-3.375v-28.901c0-1.864-1.511-3.375-3.375-3.375-1.864 0-3.375 1.511-3.375 3.375v28.901c0 1.864 1.511 3.375 3.375 3.375z" fill="url(#SVGID_14_)"/><path d="m126.8 64.925-42.748 42.748v-26.086l42.748-42.748c2.791-2.791 7.563-.814 7.563 3.133v4.693c.001 6.849-2.72 13.417-7.563 18.26z" fill="url(#SVGID_15_)"/></g><g><path d="m85.606 451.85h-39.606v-444.547c0-4.033 3.27-7.303 7.303-7.303h25c4.033 0 7.303 3.27 7.303 7.303z" fill="url(#SVGID_16_)"/><path d="m85.606 315.263c-10 2.335-18.161 5.125-24.215 7.557-5.283 2.122-1.738 5.866 5.567 5.866h18.648z" fill="url(#SVGID_17_)"/><path d="m85.606 393.33c-10 2.335-18.161 5.125-24.215 7.557-5.283 2.122-1.738 5.866 5.567 5.866h18.648z" fill="url(#SVGID_18_)"/><path d="m85.606 235.233c-10 2.335-18.161 5.125-24.215 7.557-5.283 2.122-1.738 5.866 5.567 5.866h18.648z" fill="url(#SVGID_19_)"/><path d="m85.606 155.203c-10 2.335-18.161 5.125-24.215 7.557-5.283 2.122-1.738 5.866 5.567 5.866h18.648z" fill="url(#SVGID_20_)"/><path d="m85.606 75.173c-10 2.335-18.161 5.125-24.215 7.557-5.283 2.122-1.738 5.866 5.567 5.866h18.648z" fill="url(#SVGID_21_)"/><path d="m85.606 95.422c-10 2.335-18.161 5.125-24.215 7.557-5.283 2.122-1.738 5.866 5.567 5.866h18.648z" fill="url(#SVGID_22_)"/><g><path d="m46 221.89c10-2.335 18.161-5.125 24.215-7.557 5.283-2.122 1.738-5.866-5.567-5.866h-18.648z" fill="url(#SVGID_23_)"/><path d="m46 143.823c10-2.335 18.161-5.125 24.215-7.557 5.283-2.122 1.738-5.866-5.567-5.866h-18.648z" fill="url(#SVGID_24_)"/><path d="m46 301.92c10-2.335 18.161-5.125 24.215-7.557 5.283-2.122 1.738-5.866-5.567-5.866h-18.648z" fill="url(#SVGID_25_)"/><path d="m46 388.389c10-2.335 18.161-5.125 24.215-7.557 5.283-2.122 1.738-5.866-5.567-5.866h-18.648z" fill="url(#SVGID_26_)"/><path d="m46 368.14c10-2.335 18.161-5.125 24.215-7.557 5.283-2.122 1.738-5.866-5.567-5.866h-18.648z" fill="url(#SVGID_27_)"/></g></g></g><g><path d="m431 336.562-60.416-60.416h26.085l34.331 34.33z" fill="url(#SVGID_28_)"/><path d="m492.453 353.494-32.369 31.154v-26.085l19.336-18.61c5.97-5.746 15.914-1.515 15.914 6.771-.001 2.554-1.041 4.999-2.881 6.77z" fill="url(#SVGID_29_)"/><g><path d="m485.375 88.614c1.864 0 3.375-1.511 3.375-3.375v-45.288c0-1.864-1.511-3.375-3.375-3.375-1.864 0-3.375 1.511-3.375 3.375v45.289c0 1.863 1.511 3.374 3.375 3.374z" fill="url(#SVGID_30_)"/><path d="m502.437 82.043-42.748 42.748v-26.086l42.748-42.748c2.791-2.791 7.563-.814 7.563 3.133v4.693c0 6.849-2.721 13.417-7.563 18.26z" fill="url(#SVGID_31_)"/></g><g><path d="m400.261 210.916c-1.864 0-3.375-1.511-3.375-3.375v-28.901c0-1.864 1.511-3.375 3.375-3.375 1.864 0 3.375 1.511 3.375 3.375v28.901c0 1.864-1.511 3.375-3.375 3.375z" fill="url(#SVGID_32_)"/><path d="m383.2 204.344 42.748 42.748v-26.085l-42.748-42.748c-2.791-2.791-7.563-.814-7.563 3.133v4.693c-.001 6.848 2.72 13.416 7.563 18.259z" fill="url(#SVGID_33_)"/></g><g><path d="m464 450.85h-39.606v-443.547c0-4.033 3.27-7.303 7.303-7.303h25c4.033 0 7.303 3.27 7.303 7.303z" fill="url(#SVGID_34_)"/><path d="m464 311.263c-10 2.335-18.161 5.125-24.215 7.557-5.283 2.122-1.738 5.866 5.567 5.866h18.648z" fill="url(#SVGID_35_)"/><path d="m464 389.33c-10 2.335-18.161 5.125-24.215 7.557-5.283 2.122-1.738 5.866 5.567 5.866h18.648z" fill="url(#SVGID_36_)"/><path d="m464 231.233c-10 2.335-18.161 5.125-24.215 7.557-5.283 2.122-1.738 5.866 5.567 5.866h18.648z" fill="url(#SVGID_37_)"/><path d="m464 151.203c-10 2.335-18.161 5.125-24.215 7.557-5.283 2.122-1.738 5.866 5.567 5.866h18.648z" fill="url(#SVGID_38_)"/><path d="m464 71.173c-10 2.335-18.161 5.125-24.215 7.557-5.283 2.122-1.738 5.866 5.567 5.866h18.648z" fill="url(#SVGID_39_)"/><path d="m464 91.422c-10 2.335-18.161 5.125-24.215 7.557-5.283 2.122-1.738 5.866 5.567 5.866h18.648z" fill="url(#SVGID_40_)"/><g><path d="m424.394 217.89c10-2.335 18.161-5.125 24.215-7.557 5.283-2.122 1.738-5.866-5.567-5.866h-18.648z" fill="url(#SVGID_41_)"/><path d="m424.394 139.823c10-2.335 18.161-5.125 24.215-7.557 5.283-2.122 1.738-5.866-5.567-5.866h-18.648z" fill="url(#SVGID_42_)"/><path d="m424.394 297.92c10-2.335 18.161-5.125 24.215-7.557 5.283-2.122 1.738-5.866-5.567-5.866h-18.648z" fill="url(#SVGID_43_)"/><path d="m424.394 384.389c10-2.335 18.161-5.125 24.215-7.557 5.283-2.122 1.738-5.866-5.567-5.866h-18.648z" fill="url(#SVGID_44_)"/><path d="m424.394 364.14c10-2.335 18.161-5.125 24.215-7.557 5.283-2.122 1.738-5.866-5.567-5.866h-18.648z" fill="url(#SVGID_45_)"/></g></g></g><g><path d="m510 485.638v-37.658h-510v37.658c0 13.455 10.907 24.362 24.362 24.362h461.276c13.455 0 24.362-10.907 24.362-24.362z" fill="url(#SVGID_46_)"/><path d="m510 485.638v-37.658h-395.491c-6.623 0-12.718 3.616-15.893 9.429-2.65 4.852-1.784 10.87 2.125 14.779l37.812 37.812h347.085c13.455 0 24.362-10.907 24.362-24.362z" fill="url(#SVGID_47_)"/></g><g><g><g><path d="m127.995 451.326h51.268v-136.053l-51.268 51.267z" fill="url(#SVGID_48_)"/><path d="m127.995 375.293 51.268 51.268v-111.288l-51.268 51.267z" fill="url(#SVGID_49_)"/><path d="m179.263 296.833-70.867 70.867c-2.722 2.721-.794 7.375 3.055 7.375h24.919c6.24 0 12.225-2.479 16.637-6.891l26.257-26.257v-45.094z" fill="url(#SVGID_50_)"/><path d="m185.398 275.492-86.438 86.438c-2.714 2.714-2.714 7.115 0 9.829l6.88 6.88c2.714 2.714 7.115 2.714 9.829 0l69.728-69.728v-33.419z" fill="url(#SVGID_51_)"/><path d="m179.263 320.727v21.2l-26.257 26.257c-4.412 4.412-10.395 6.889-16.638 6.889h-11.45z" fill="url(#SVGID_52_)"/></g><path d="m179.263 451.326h-52.146c-2.43 0-4.399-1.97-4.399-4.399v-17.27c0-2.43 1.969-4.399 4.399-4.399h52.146z" fill="url(#SVGID_53_)"/><g><path d="m156.285 417.359h-8.382c-5.291 0-9.58-4.289-9.58-9.58v-14.968c0-5.291 4.289-9.58 9.58-9.58h8.382c5.291 0 9.58 4.289 9.58 9.58v14.968c0 5.291-4.289 9.58-9.58 9.58z" fill="url(#SVGID_54_)"/><path d="m154.972 412.014h-5.757c-3.633 0-6.579-2.945-6.579-6.579v-10.28c0-3.633 2.945-6.579 6.579-6.579h5.757c3.633 0 6.579 2.945 6.579 6.579v10.28c0 3.633-2.946 6.579-6.579 6.579z" fill="url(#SVGID_55_)"/></g></g><g><g><path d="m374.027 321.526h-195.323c-4.201 0-7.607-3.406-7.607-7.607v-10.745c0-4.201 3.406-7.607 7.607-7.607h195.323c4.201 0 7.607 3.406 7.607 7.607v10.745c0 4.201-3.406 7.607-7.607 7.607z" fill="url(#SVGID_56_)"/><path d="m343.196 316.152h-117.814c-3.14 0-6.152-1.157-8.372-3.217-2.221-2.06-5.232-3.217-8.372-3.217h-37.541v4.481c0 4.047 3.536 7.327 7.898 7.327h178.184c-3.708-3.441-8.738-5.374-13.983-5.374z" fill="url(#SVGID_57_)"/><path d="m319.936 311.271h61.698v-8.378c0-.319-.024-.633-.067-.942h-61.631c-2.774 0-5.023 2.086-5.023 4.66 0 2.573 2.249 4.66 5.023 4.66z" fill="url(#SVGID_58_)"/></g><g><path d="m374.027 347.486h-195.323c-4.201 0-7.607-3.406-7.607-7.607v-10.745c0-4.201 3.406-7.607 7.607-7.607h195.323c4.201 0 7.607 3.406 7.607 7.607v10.745c0 4.201-3.406 7.607-7.607 7.607z" fill="url(#SVGID_59_)"/><path d="m209.535 342.112h117.814c3.14 0 6.152-1.157 8.372-3.217 2.221-2.06 5.232-3.217 8.372-3.217h37.541v4.481c0 4.047-3.536 7.327-7.898 7.327h-178.184c3.709-3.441 8.739-5.374 13.983-5.374z" fill="url(#SVGID_60_)"/><path d="m232.795 337.231h-61.698v-8.378c0-.319.024-.633.067-.942h61.631c2.774 0 5.023 2.086 5.023 4.66 0 2.573-2.249 4.66-5.023 4.66z" fill="url(#SVGID_61_)"/></g><g><path d="m374.027 373.446h-195.323c-4.201 0-7.607-3.406-7.607-7.607v-10.745c0-4.201 3.406-7.607 7.607-7.607h195.323c4.201 0 7.607 3.406 7.607 7.607v10.745c0 4.201-3.406 7.607-7.607 7.607z" fill="url(#SVGID_62_)"/><path d="m343.196 368.072h-117.814c-3.14 0-6.152-1.157-8.372-3.217-2.221-2.06-5.232-3.217-8.372-3.217h-37.541v4.481c0 4.047 3.536 7.327 7.898 7.327h178.184c-3.708-3.441-8.738-5.374-13.983-5.374z" fill="url(#SVGID_63_)"/><path d="m319.936 363.191h61.698v-8.378c0-.319-.024-.633-.067-.942h-61.631c-2.774 0-5.023 2.086-5.023 4.66 0 2.573 2.249 4.66 5.023 4.66z" fill="url(#SVGID_64_)"/></g><g><path d="m374.027 399.406h-195.323c-4.201 0-7.607-3.406-7.607-7.607v-10.745c0-4.201 3.406-7.607 7.607-7.607h195.323c4.201 0 7.607 3.406 7.607 7.607v10.745c0 4.201-3.406 7.607-7.607 7.607z" fill="url(#SVGID_65_)"/><path d="m209.535 394.032h117.814c3.14 0 6.152-1.157 8.372-3.217 2.221-2.06 5.232-3.217 8.372-3.217h37.541v4.481c0 4.047-3.536 7.327-7.898 7.327h-178.184c3.709-3.441 8.739-5.374 13.983-5.374z" fill="url(#SVGID_66_)"/><path d="m232.795 389.151h-61.698v-8.378c0-.319.024-.633.067-.942h61.631c2.774 0 5.023 2.086 5.023 4.66 0 2.573-2.249 4.66-5.023 4.66z" fill="url(#SVGID_67_)"/></g><g><path d="m374.027 425.366h-195.323c-4.201 0-7.607-3.406-7.607-7.607v-10.745c0-4.201 3.406-7.607 7.607-7.607h195.323c4.201 0 7.607 3.406 7.607 7.607v10.745c0 4.201-3.406 7.607-7.607 7.607z" fill="url(#SVGID_68_)"/><path d="m343.196 419.992h-117.814c-3.14 0-6.152-1.157-8.372-3.217-2.221-2.06-5.232-3.217-8.372-3.217h-37.541v4.481c0 4.047 3.536 7.327 7.898 7.327h178.184c-3.708-3.441-8.738-5.374-13.983-5.374z" fill="url(#SVGID_69_)"/><path d="m319.936 415.111h61.698v-8.378c0-.319-.024-.633-.067-.942h-61.631c-2.774 0-5.023 2.086-5.023 4.66 0 2.573 2.249 4.66 5.023 4.66z" fill="url(#SVGID_70_)"/></g><g><path d="m374.027 451.326h-195.323c-4.201 0-7.607-3.406-7.607-7.607v-10.745c0-4.201 3.406-7.607 7.607-7.607h195.323c4.201 0 7.607 3.406 7.607 7.607v10.745c0 4.201-3.406 7.607-7.607 7.607z" fill="url(#SVGID_71_)"/><path d="m209.535 445.952h117.814c3.14 0 6.152-1.157 8.372-3.217 2.221-2.06 5.232-3.217 8.372-3.217h37.541v4.481c0 4.047-3.536 7.327-7.898 7.327h-178.184c3.709-3.441 8.739-5.374 13.983-5.374z" fill="url(#SVGID_72_)"/><path d="m232.795 441.071h-61.698v-8.378c0-.319.024-.633.067-.942h61.631c2.774 0 5.023 2.086 5.023 4.66 0 2.573-2.249 4.66-5.023 4.66z" fill="url(#SVGID_73_)"/></g></g><path d="m276.366 187.051-107.245 108.515h214.489z" fill="url(#SVGID_74_)"/><path d="m276.366 187.051-97.103 97.103h194.206z" fill="url(#SVGID_75_)"/><path d="m171.606 300.454 150.761 150.76h51.369v-158.691l-97.363-97.363z" fill="url(#SVGID_76_)"/><g><g><path d="m219.697 178.697c.273-.91.423-1.872.423-2.871 0-5.47-4.395-9.908-9.845-9.99-.203-.556-.444-1.093-.713-1.613 2.821-1.806 4.696-4.961 4.696-8.559 0-5.614-4.551-10.165-10.165-10.165s-10.165 4.551-10.165 10.165c0 .413.032.818.08 1.218-6.369 1.373-11.143 7.035-11.143 13.814 0 2.713.766 5.247 2.091 7.4-5.181 2.096-8.837 7.172-8.837 13.104 0 7.806 6.328 14.134 14.134 14.134 4.696 0 8.856-2.292 11.426-5.817 2.57 3.525 6.729 5.817 11.426 5.817 7.806 0 14.134-6.328 14.134-14.134-.001-5.425-3.058-10.133-7.542-12.503z" fill="url(#SVGID_77_)"/><path d="m204.093 145.498c-5.614 0-10.165 4.551-10.165 10.165 0 .413.032.818.08 1.218.964-.208 1.964-.32 2.991-.32 5.472 0 10.215 3.112 12.563 7.661 2.821-1.806 4.696-4.961 4.696-8.559 0-5.614-4.551-10.165-10.165-10.165z" fill="url(#SVGID_78_)"/><circle cx="190.253" cy="191.199" fill="url(#SVGID_79_)" r="14.134"/><path d="m196.999 156.561c-7.806 0-14.134 6.328-14.134 14.134 0 2.713.766 5.247 2.091 7.4 1.636-.662 3.423-1.03 5.297-1.03 5.093 0 9.555 2.695 12.043 6.735 5.181-2.096 8.837-7.172 8.837-13.104 0-7.807-6.328-14.135-14.134-14.135z" fill="url(#SVGID_80_)"/><path d="m213.104 177.065c2.382 0 4.624.592 6.593 1.632.273-.91.423-1.872.423-2.871 0-5.522-4.476-9.998-9.998-9.998s-9.998 4.476-9.998 9.998c0 2.363.824 4.531 2.195 6.242 2.593-3.059 6.461-5.003 10.785-5.003z" fill="url(#SVGID_81_)"/></g><circle cx="223.891" cy="162.771" fill="url(#SVGID_82_)" r="6.21"/><circle cx="210.598" cy="128.085" fill="url(#SVGID_83_)" r="6.21"/><circle cx="224.292" cy="142.327" fill="url(#SVGID_84_)" r="8.032"/></g><g><path d="m194.648 266.25h-15.316v-62.593h43.976v33.932c0 15.83-12.832 28.661-28.66 28.661z" fill="url(#SVGID_85_)"/><path d="m179.332 208.775 43.976 40.163v-45.28h-43.976z" fill="url(#SVGID_86_)"/><path d="m222.444 208.874h-42.248c-3.316 0-6.004-2.688-6.004-6.004v-6.77c0-3.316 2.688-6.004 6.004-6.004h42.248c3.316 0 6.004 2.688 6.004 6.004v6.77c0 3.316-2.688 6.004-6.004 6.004z" fill="url(#SVGID_87_)"/><path d="m195.46 197.542h-18.507c-2.953 0-5.346-2.394-5.346-5.346v-.18c0-2.953 2.394-5.346 5.346-5.346h18.507z" fill="url(#SVGID_88_)"/><g><g><path d="m221.566 184.656c-7.557-.927-15.199-.927-22.756 0-5.168.634-9.052 5.023-9.052 10.23v9.12c0 3.821 3.097 6.918 6.918 6.918 3.821 0 6.918-3.097 6.918-6.918v-2.525c0-1.732 1.404-3.136 3.136-3.136 1.732 0 3.136 1.404 3.136 3.136v14.956c0 3.821 3.097 6.918 6.918 6.918 3.821 0 6.918-3.097 6.918-6.918v-14.633c0-1.91 1.549-3.459 3.459-3.459 1.91 0 3.459-1.549 3.459-3.459-.002-5.207-3.886-9.596-9.054-10.23z" fill="url(#SVGID_89_)"/><path d="m221.566 184.656c-5.952-.73-11.957-.876-17.932-.456v16.799c.232-1.503 1.527-2.654 3.095-2.654 1.732 0 3.136 1.404 3.136 3.136v14.956c0 3.821 3.097 6.918 6.918 6.918 3.821 0 6.918-3.097 6.918-6.918v-14.633c0-1.91 1.549-3.459 3.459-3.459 1.91 0 3.459-1.549 3.459-3.459-.001-5.207-3.885-9.596-9.053-10.23z" fill="url(#SVGID_90_)"/><path d="m221.566 184.656c-.017-.002-.034-.004-.051-.006-2.695-.329-5.062 1.799-5.062 4.514v34.174c.11.005.219.017.33.017 3.821 0 6.918-3.097 6.918-6.918v-14.633c0-1.91 1.549-3.459 3.459-3.459 1.873 0 3.441-1.491 3.458-3.364.047-5.248-3.852-9.687-9.052-10.325z" fill="url(#SVGID_91_)"/></g></g></g><path d="m265.304 176.95-104.795 104.794c-2.714 2.714-2.714 7.115 0 9.829l6.88 6.88c2.714 2.714 7.115 2.714 9.829 0l94.385-94.385c2.63-2.63 6.894-2.63 9.523 0l94.385 94.385c2.714 2.714 7.115 2.714 9.829 0l6.88-6.88c2.714-2.714 2.714-7.115 0-9.829l-104.792-104.794c-6.11-6.11-16.015-6.11-22.124 0z" fill="url(#SVGID_92_)"/><path d="m287.428 176.95c-3.055-3.055-7.058-4.582-11.062-4.582v29.729c1.723 0 3.447.657 4.762 1.972l94.385 94.385c2.714 2.714 7.115 2.714 9.829 0l6.88-6.88c2.714-2.714 2.714-7.115 0-9.829z" fill="url(#SVGID_93_)"/><path d="m308.691 451.326h-64.651v-91.912c0-4.014 3.254-7.268 7.268-7.268h50.115c4.014 0 7.268 3.254 7.268 7.268z" fill="url(#SVGID_94_)"/><path d="m299.564 451.326h-46.396v-83.363c0-3.493 2.832-6.325 6.325-6.325h33.746c3.493 0 6.325 2.832 6.325 6.325z" fill="url(#SVGID_95_)"/><g><path d="m308.801 415.777-14.834-14.835-11.969 11.969 26.65 26.65z" fill="url(#SVGID_96_)"/><g><circle cx="287.668" cy="406.612" fill="url(#SVGID_97_)" r="8.507"/><circle cx="287.668" cy="406.612" fill="url(#SVGID_98_)" r="4.764"/></g></g><path d="m395.272 461.376h-280.544c-4.201 0-7.606-3.405-7.606-7.606v-3.549c0-4.201 3.405-7.606 7.606-7.606h280.545c4.201 0 7.606 3.405 7.606 7.606v3.549c-.001 4.201-3.406 7.606-7.607 7.606z" fill="url(#SVGID_99_)"/></g><path d="m314.191 451.094c13.892-13.268 36.527-30.113 66.04-35.795 31.357-6.037 60.406 18.181 60.406 50.114 0 1.816-1.472 3.288-3.288 3.288h-116.129c-9.222.001-13.698-11.237-7.029-17.607z" fill="url(#SVGID_100_)"/><g><path d="m199.897 452.062c-11.619-12.539-30.549-28.458-55.231-33.827-26.225-5.705-50.519 17.181-50.519 47.359 0 1.716 1.231 3.108 2.75 3.108h97.122c7.712 0 11.455-10.62 5.878-16.64z" fill="url(#SVGID_101_)"/><path d="m92.002 458.237c13.892-7.886 36.528-17.898 66.04-21.275 31.357-3.588 60.406 10.806 60.406 29.785 0 1.079-1.472 1.954-3.288 1.954h-116.13c-9.222.001-13.697-6.679-7.028-10.464z" fill="url(#SVGID_102_)"/></g><g><path d="m265.304 166.819-115.65 115.649c-2.714 2.714-2.714 7.115 0 9.829l6.88 6.88c2.714 2.714 7.115 2.714 9.829 0l105.24-105.24c2.63-2.63 6.894-2.63 9.523 0l105.406 105.406c2.714 2.714 7.115 2.714 9.829 0l6.88-6.88c2.714-2.714 2.714-7.115 0-9.829l-115.813-115.815c-6.11-6.11-16.015-6.11-22.124 0z" fill="url(#SVGID_103_)"/><path d="m403.24 292.459-6.88 6.88c-2.71 2.72-7.11 2.72-9.83 0l-25.87-25.87-79.53-79.53c-1.31-1.31-3.03-1.97-4.76-1.97v-29.73c4.01 0 8.01 1.53 11.06 4.58l13.97 13.97 101.84 101.84c2.72 2.72 2.72 7.12 0 9.83z" fill="url(#SVGID_104_)"/></g><path d="m305.841 309.717 75.793 75.793v-4.458c0-4.201-3.406-7.607-7.607-7.607 4.201 0 7.607-3.406 7.607-7.607v-10.745c0-4.201-3.406-7.607-7.607-7.607 4.201 0 7.607-3.406 7.607-7.607v-10.745c0-4.202-3.406-7.607-7.607-7.607 4.201 0 7.607-3.406 7.607-7.607v-10.745c0-4.201-3.406-7.607-7.607-7.607h9.583l-12.542-12.69h-65.227z" fill="url(#SVGID_105_)"/><g><g><path d="m350.331 273.553c-11.282-1.384-22.692-1.384-33.974 0-7.716.946-13.515 7.5-13.515 15.274v13.616c0 5.704 4.624 10.328 10.328 10.328 5.704 0 10.328-4.624 10.328-10.328v-3.77c0-2.586 2.096-4.682 4.682-4.682 2.586 0 4.682 2.096 4.682 4.682v22.329c0 5.704 4.624 10.328 10.328 10.328 5.704 0 10.328-4.624 10.328-10.328v-21.847c0-2.852 2.312-5.164 5.164-5.164 2.852 0 5.164-2.312 5.164-5.164 0-7.774-5.799-14.327-13.515-15.274z" fill="url(#SVGID_106_)"/><path d="m350.331 273.553c-8.887-1.09-17.852-1.308-26.772-.681v25.081c.347-2.243 2.28-3.962 4.621-3.962 2.586 0 4.682 2.096 4.682 4.682v22.329c0 5.704 4.624 10.328 10.328 10.328 5.704 0 10.328-4.624 10.328-10.328v-21.847c0-2.852 2.312-5.164 5.164-5.164 2.852 0 5.164-2.312 5.164-5.164 0-7.774-5.799-14.327-13.515-15.274z" fill="url(#SVGID_107_)"/><path d="m350.331 273.553c-.025-.003-.051-.006-.076-.009-4.023-.491-7.558 2.686-7.558 6.739v51.022c.164.008.326.025.493.025 5.704 0 10.328-4.624 10.328-10.328v-21.847c0-2.852 2.312-5.164 5.164-5.164 2.797 0 5.138-2.226 5.163-5.022.071-7.836-5.751-14.463-13.514-15.416z" fill="url(#SVGID_108_)"/></g></g><path d="m205.352 292.09c4.599-2.611 12.093-5.925 21.863-7.043 10.381-1.188 19.997 3.577 19.997 9.861 0 .357-.487.647-1.089.647h-38.445c-3.052-.001-4.533-2.212-2.326-3.465z" fill="url(#SVGID_109_)"/><path d="m271.716 349.781c3.596-2.611 9.455-5.925 17.094-7.043 8.117-1.188 15.636 3.577 15.636 9.861 0 .357-.381.647-.851.647h-30.059c-2.387-.001-3.546-2.212-1.82-3.465z" fill="url(#SVGID_110_)"/><path d="m296.97 399.632c-6.212-8.27-15.541-1.463-14.945.794.597 2.257 4.881-.764 7.818 3.751 1.444 2.22 3.868 2.546 5.836 1.291.266-.169.506-.364.719-.577 1.371-1.371 1.784-3.644.572-5.259z" fill="url(#SVGID_111_)"/></g></svg>