<svg id="Capa_1" enable-background="new 0 0 510 510" height="512" viewBox="0 0 510 510" width="512" xmlns="http://www.w3.org/2000/svg" xmlns:xlink="http://www.w3.org/1999/xlink"><linearGradient id="SVGID_1_" gradientUnits="userSpaceOnUse" x1="255" x2="255" y1="34.721" y2="483.763"><stop offset="0" stop-color="#c7e9ff"/><stop offset=".3556" stop-color="#a3e6f2"/><stop offset="1" stop-color="#65e0db"/></linearGradient><linearGradient id="lg1"><stop offset="0" stop-color="#18cefb" stop-opacity="0"/><stop offset="1" stop-color="#0469bb"/></linearGradient><linearGradient id="SVGID_2_" gradientUnits="userSpaceOnUse" x1="419.541" x2="436.874" xlink:href="#lg1" y1="329.839" y2="258.505"/><linearGradient id="SVGID_3_" gradientUnits="userSpaceOnUse" x1="80.255" x2="-13.745" xlink:href="#lg1" y1="349.227" y2="232.56"/><linearGradient id="SVGID_4_" gradientUnits="userSpaceOnUse" x1="146.901" x2="126.235" xlink:href="#lg1" y1="348.305" y2="248.971"/><linearGradient id="SVGID_5_" gradientUnits="userSpaceOnUse" x1="294.611" x2="275.443" xlink:href="#lg1" y1="357.072" y2="267.362"/><linearGradient id="SVGID_6_" gradientUnits="userSpaceOnUse" x1="129.2" x2="129.2" y1="342.77" y2="389.361"><stop offset="0" stop-color="#798c00"/><stop offset="1" stop-color="#1b444f"/></linearGradient><linearGradient id="lg2"><stop offset="0" stop-color="#bada00"/><stop offset=".2187" stop-color="#b6d600"/><stop offset=".4501" stop-color="#acc900"/><stop offset=".6873" stop-color="#9ab400"/><stop offset=".9271" stop-color="#829700"/><stop offset="1" stop-color="#798c00"/></linearGradient><linearGradient id="SVGID_7_" gradientTransform="matrix(-1 0 0 1 510 0)" gradientUnits="userSpaceOnUse" x1="123.2" x2="149.517" xlink:href="#lg2" y1="279.392" y2="356.879"/><linearGradient id="SVGID_8_" gradientUnits="userSpaceOnUse" x1="255" x2="255" y1="362.507" y2="505.774"><stop offset="0" stop-color="#18cefb"/><stop offset="1" stop-color="#4a97f6"/></linearGradient><linearGradient id="lg3"><stop offset="0" stop-color="#4a97f6" stop-opacity="0"/><stop offset="1" stop-color="#0469bb"/></linearGradient><linearGradient id="SVGID_9_" gradientUnits="userSpaceOnUse" x1="252.935" x2="277.41" xlink:href="#lg3" y1="441.782" y2="307.748"/><linearGradient id="SVGID_10_" gradientUnits="userSpaceOnUse" x1="265.853" x2="219.735" xlink:href="#lg3" y1="512.353" y2="329.321"/><linearGradient id="lg4"><stop offset="0" stop-color="#edf5ff"/><stop offset="1" stop-color="#c7e9ff"/></linearGradient><linearGradient id="SVGID_11_" gradientUnits="userSpaceOnUse" x1="337.455" x2="423.907" xlink:href="#lg4" y1="82.9" y2="169.352"/><linearGradient id="SVGID_12_" gradientUnits="userSpaceOnUse" x1="455.315" x2="491.519" xlink:href="#lg4" y1="65.707" y2="101.91"/><linearGradient id="SVGID_13_" gradientUnits="userSpaceOnUse" x1="48.657" x2="108.34" xlink:href="#lg4" y1="28.665" y2="88.347"/><linearGradient id="lg5"><stop offset="0" stop-color="#ffdecf"/><stop offset="1" stop-color="#faa68e"/></linearGradient><linearGradient id="SVGID_14_" gradientUnits="userSpaceOnUse" x1="218.758" x2="246.364" xlink:href="#lg5" y1="274.524" y2="268.684"/><linearGradient id="lg6"><stop offset="0" stop-color="#ff9356" stop-opacity="0"/><stop offset="1" stop-color="#ff4181"/></linearGradient><linearGradient id="SVGID_15_" gradientUnits="userSpaceOnUse" x1="227.793" x2="229.959" xlink:href="#lg6" y1="185.189" y2="148.523"/><linearGradient id="SVGID_16_" gradientUnits="userSpaceOnUse" x1="255.482" x2="270.449" xlink:href="#lg6" y1="209.474" y2="146.115"/><linearGradient id="SVGID_17_" gradientUnits="userSpaceOnUse" x1="254.241" x2="267.483" xlink:href="#lg6" y1="228.945" y2="172.884"/><linearGradient id="SVGID_18_" gradientUnits="userSpaceOnUse" x1="253.457" x2="264.91" xlink:href="#lg6" y1="249.275" y2="200.793"/><linearGradient id="SVGID_19_" gradientUnits="userSpaceOnUse" x1="252.931" x2="262.567" xlink:href="#lg6" y1="269.969" y2="229.176"/><linearGradient id="SVGID_20_" gradientUnits="userSpaceOnUse" x1="254.19" x2="262.076" xlink:href="#lg6" y1="291.135" y2="257.753"/><linearGradient id="SVGID_21_" gradientUnits="userSpaceOnUse" x1="256.749" x2="263.11" xlink:href="#lg6" y1="310.697" y2="283.768"/><linearGradient id="SVGID_22_" gradientUnits="userSpaceOnUse" x1="260.232" x2="265.207" xlink:href="#lg6" y1="329.135" y2="308.074"/><linearGradient id="SVGID_23_" gradientUnits="userSpaceOnUse" x1="265.888" x2="269.414" xlink:href="#lg6" y1="349.559" y2="334.635"/><linearGradient id="lg7"><stop offset="0" stop-color="#6fa953"/><stop offset="1" stop-color="#43765a"/></linearGradient><linearGradient id="SVGID_24_" gradientUnits="userSpaceOnUse" x1="230.757" x2="231.007" xlink:href="#lg7" y1="45.73" y2="67.23"/><linearGradient id="SVGID_25_" gradientUnits="userSpaceOnUse" x1="192.788" x2="194.788" xlink:href="#lg7" y1="56.172" y2="75.172"/><linearGradient id="SVGID_26_" gradientUnits="userSpaceOnUse" x1="110.878" x2="146.878" xlink:href="#lg2" y1="41.456" y2="101.956"/><linearGradient id="lg8"><stop offset="0" stop-color="#43765a" stop-opacity="0"/><stop offset="1" stop-color="#43765a"/></linearGradient><linearGradient id="SVGID_27_" gradientTransform="matrix(.755 .655 -.655 .755 -1364.947 -397.366)" gradientUnits="userSpaceOnUse" x1="1468.398" x2="1423.426" xlink:href="#lg8" y1="-629.29" y2="-667.117"/><linearGradient id="SVGID_28_" gradientTransform="matrix(.755 .655 -.655 .755 -1364.947 -397.366)" gradientUnits="userSpaceOnUse" x1="1492.852" x2="1427.285" xlink:href="#lg8" y1="-633.297" y2="-690.037"/><linearGradient id="SVGID_29_" gradientTransform="matrix(.755 .655 -.655 .755 -1364.947 -397.366)" gradientUnits="userSpaceOnUse" x1="1535.31" x2="1489.603" xlink:href="#lg8" y1="-648.505" y2="-632.429"/><linearGradient id="SVGID_30_" gradientTransform="matrix(-.469 .675 .741 .514 1060.288 -844.934)" gradientUnits="userSpaceOnUse" x1="1422.167" x2="1477.646" xlink:href="#lg2" y1="-147.956" y2="-101.303"/><linearGradient id="SVGID_31_" gradientTransform="matrix(-.469 .675 .741 .514 1060.288 -844.934)" gradientUnits="userSpaceOnUse" x1="1456.532" x2="1411.56" xlink:href="#lg8" y1="-131.449" y2="-169.276"/><linearGradient id="SVGID_32_" gradientTransform="matrix(-.469 .675 .741 .514 1060.288 -844.934)" gradientUnits="userSpaceOnUse" x1="1480.987" x2="1415.42" xlink:href="#lg8" y1="-135.456" y2="-192.196"/><linearGradient id="SVGID_33_" gradientTransform="matrix(-.469 .675 .741 .514 1060.288 -844.934)" gradientUnits="userSpaceOnUse" x1="1523.445" x2="1477.737" xlink:href="#lg8" y1="-150.665" y2="-134.588"/><linearGradient id="SVGID_34_" gradientUnits="userSpaceOnUse" x1="78.177" x2="163.677" xlink:href="#lg2" y1="108.425" y2="168.925"/><linearGradient id="SVGID_35_" gradientUnits="userSpaceOnUse" x1="152.432" x2="107.46" xlink:href="#lg8" y1="147.292" y2="109.465"/><linearGradient id="SVGID_36_" gradientUnits="userSpaceOnUse" x1="176.887" x2="111.32" xlink:href="#lg8" y1="143.285" y2="86.545"/><linearGradient id="SVGID_37_" gradientUnits="userSpaceOnUse" x1="219.345" x2="173.637" xlink:href="#lg8" y1="128.076" y2="144.153"/><linearGradient id="SVGID_38_" gradientUnits="userSpaceOnUse" x1="340.913" x2="302.413" xlink:href="#lg2" y1="132.889" y2="165.389"/><linearGradient id="SVGID_39_" gradientTransform="matrix(-1 0 0 1 -526.602 0)" gradientUnits="userSpaceOnUse" x1="-835.81" x2="-880.782" xlink:href="#lg8" y1="147.292" y2="109.465"/><linearGradient id="SVGID_40_" gradientTransform="matrix(-1 0 0 1 -526.602 0)" gradientUnits="userSpaceOnUse" x1="-811.355" x2="-876.922" xlink:href="#lg8" y1="143.285" y2="86.545"/><linearGradient id="SVGID_41_" gradientTransform="matrix(-1 0 0 1 -526.602 0)" gradientUnits="userSpaceOnUse" x1="-768.897" x2="-814.605" xlink:href="#lg8" y1="128.076" y2="144.153"/><linearGradient id="lg9"><stop offset="0" stop-color="#c59b6d"/><stop offset="1" stop-color="#8b6239"/></linearGradient><linearGradient id="SVGID_42_" gradientUnits="userSpaceOnUse" x1="206.342" x2="225.675" xlink:href="#lg9" y1="150.575" y2="144.242"/><linearGradient id="SVGID_43_" gradientUnits="userSpaceOnUse" x1="210.663" x2="200.39" xlink:href="#lg9" y1="140.362" y2="132.074"/><linearGradient id="SVGID_44_" gradientTransform="matrix(.6 .089 .089 .6 -122.138 -932.967)" gradientUnits="userSpaceOnUse" x1="288.23" x2="277.957" xlink:href="#lg9" y1="1759.897" y2="1751.609"/><linearGradient id="SVGID_45_" gradientTransform="matrix(.6 .089 .089 .6 -122.138 -932.967)" gradientUnits="userSpaceOnUse" x1="301.537" x2="291.264" xlink:href="#lg9" y1="1754.987" y2="1746.7"/><linearGradient id="SVGID_46_" gradientUnits="userSpaceOnUse" x1="226.073" x2="248.058" xlink:href="#lg9" y1="124.067" y2="146.052"/><linearGradient id="SVGID_47_" gradientUnits="userSpaceOnUse" x1="224.794" x2="214.521" xlink:href="#lg9" y1="123.024" y2="114.736"/><linearGradient id="SVGID_48_" gradientTransform="matrix(.6 .089 .089 .6 -122.138 -932.967)" gradientUnits="userSpaceOnUse" x1="316.669" x2="306.396" xlink:href="#lg9" y1="1726.803" y2="1718.515"/><linearGradient id="SVGID_49_" gradientTransform="matrix(.6 .089 .089 .6 -122.138 -932.967)" gradientUnits="userSpaceOnUse" x1="329.976" x2="319.703" xlink:href="#lg9" y1="1721.894" y2="1713.606"/><linearGradient id="SVGID_50_" gradientUnits="userSpaceOnUse" x1="240.174" x2="262.159" xlink:href="#lg9" y1="145.531" y2="167.517"/><linearGradient id="SVGID_51_" gradientUnits="userSpaceOnUse" x1="238.896" x2="228.622" xlink:href="#lg9" y1="144.488" y2="136.2"/><linearGradient id="SVGID_52_" gradientTransform="matrix(.6 .089 .089 .6 -122.138 -932.967)" gradientUnits="userSpaceOnUse" x1="335.279" x2="325.006" xlink:href="#lg9" y1="1759.81" y2="1751.523"/><linearGradient id="SVGID_53_" gradientTransform="matrix(.6 .089 .089 .6 -122.138 -932.967)" gradientUnits="userSpaceOnUse" x1="348.586" x2="338.313" xlink:href="#lg9" y1="1754.901" y2="1746.613"/><linearGradient id="SVGID_54_" gradientTransform="matrix(-1 0 0 1 556.89 0)" gradientUnits="userSpaceOnUse" x1="255.163" x2="272.759" xlink:href="#lg5" y1="321.22" y2="317.498"/><linearGradient id="SVGID_55_" gradientTransform="matrix(-1 0 0 1 556.89 0)" gradientUnits="userSpaceOnUse" x1="260.921" x2="262.303" xlink:href="#lg6" y1="264.277" y2="240.905"/><linearGradient id="SVGID_56_" gradientTransform="matrix(-1 0 0 1 556.89 0)" gradientUnits="userSpaceOnUse" x1="278.571" x2="288.111" xlink:href="#lg6" y1="279.756" y2="239.371"/><linearGradient id="SVGID_57_" gradientTransform="matrix(-1 0 0 1 556.89 0)" gradientUnits="userSpaceOnUse" x1="277.78" x2="286.221" xlink:href="#lg6" y1="292.167" y2="256.433"/><linearGradient id="SVGID_58_" gradientTransform="matrix(-1 0 0 1 556.89 0)" gradientUnits="userSpaceOnUse" x1="277.28" x2="284.58" xlink:href="#lg6" y1="305.126" y2="274.223"/><linearGradient id="SVGID_59_" gradientTransform="matrix(-1 0 0 1 556.89 0)" gradientUnits="userSpaceOnUse" x1="276.945" x2="283.087" xlink:href="#lg6" y1="318.317" y2="292.314"/><linearGradient id="SVGID_60_" gradientTransform="matrix(-1 0 0 1 556.89 0)" gradientUnits="userSpaceOnUse" x1="277.748" x2="282.774" xlink:href="#lg6" y1="331.808" y2="310.53"/><linearGradient id="SVGID_61_" gradientTransform="matrix(-1 0 0 1 556.89 0)" gradientUnits="userSpaceOnUse" x1="279.378" x2="283.433" xlink:href="#lg6" y1="344.277" y2="327.113"/><linearGradient id="SVGID_62_" gradientTransform="matrix(-1 0 0 1 556.89 0)" gradientUnits="userSpaceOnUse" x1="281.599" x2="284.77" xlink:href="#lg6" y1="356.03" y2="342.605"/><linearGradient id="SVGID_63_" gradientTransform="matrix(-1 0 0 1 556.89 0)" gradientUnits="userSpaceOnUse" x1="285.204" x2="287.451" xlink:href="#lg6" y1="369.049" y2="359.535"/><linearGradient id="SVGID_64_" gradientUnits="userSpaceOnUse" x1="310.237" x2="298.237" xlink:href="#lg7" y1="175.609" y2="193.359"/><linearGradient id="SVGID_65_" gradientUnits="userSpaceOnUse" x1="302.776" x2="314.026" xlink:href="#lg7" y1="174.434" y2="198.184"/><linearGradient id="SVGID_66_" gradientTransform="matrix(-1 0 0 1 556.89 0)" gradientUnits="userSpaceOnUse" x1="186.399" x2="209.346" xlink:href="#lg2" y1="172.66" y2="211.223"/><linearGradient id="SVGID_67_" gradientTransform="matrix(-.755 .655 .655 .755 1921.837 -397.366)" gradientUnits="userSpaceOnUse" x1="1587.473" x2="1558.807" xlink:href="#lg8" y1="-581.976" y2="-606.088"/><linearGradient id="SVGID_68_" gradientTransform="matrix(-.755 .655 .655 .755 1921.837 -397.366)" gradientUnits="userSpaceOnUse" x1="1603.06" x2="1561.267" xlink:href="#lg8" y1="-584.53" y2="-620.697"/><linearGradient id="SVGID_69_" gradientTransform="matrix(-.755 .655 .655 .755 1921.837 -397.366)" gradientUnits="userSpaceOnUse" x1="1630.124" x2="1600.989" xlink:href="#lg8" y1="-594.224" y2="-583.977"/><linearGradient id="SVGID_70_" gradientTransform="matrix(.469 .675 -.741 .514 -503.397 -844.934)" gradientUnits="userSpaceOnUse" x1="1545.48" x2="1580.843" xlink:href="#lg2" y1="-53" y2="-23.262"/><linearGradient id="SVGID_71_" gradientTransform="matrix(.469 .675 -.741 .514 -503.397 -844.934)" gradientUnits="userSpaceOnUse" x1="1567.385" x2="1538.719" xlink:href="#lg8" y1="-42.478" y2="-66.589"/><linearGradient id="SVGID_72_" gradientTransform="matrix(.469 .675 -.741 .514 -503.397 -844.934)" gradientUnits="userSpaceOnUse" x1="1582.972" x2="1541.179" xlink:href="#lg8" y1="-45.032" y2="-81.199"/><linearGradient id="SVGID_73_" gradientTransform="matrix(.469 .675 -.741 .514 -503.397 -844.934)" gradientUnits="userSpaceOnUse" x1="1610.036" x2="1580.901" xlink:href="#lg8" y1="-54.726" y2="-44.479"/><linearGradient id="SVGID_74_" gradientTransform="matrix(-1 0 0 1 556.89 0)" gradientUnits="userSpaceOnUse" x1="165.554" x2="220.053" xlink:href="#lg2" y1="215.346" y2="253.91"/><linearGradient id="SVGID_75_" gradientTransform="matrix(-1 0 0 1 556.89 0)" gradientUnits="userSpaceOnUse" x1="212.886" x2="184.22" xlink:href="#lg8" y1="240.121" y2="216.009"/><linearGradient id="SVGID_76_" gradientTransform="matrix(-1 0 0 1 556.89 0)" gradientUnits="userSpaceOnUse" x1="228.473" x2="186.68" xlink:href="#lg8" y1="237.567" y2="201.4"/><linearGradient id="SVGID_77_" gradientTransform="matrix(-1 0 0 1 556.89 0)" gradientUnits="userSpaceOnUse" x1="255.537" x2="226.402" xlink:href="#lg8" y1="227.872" y2="238.12"/><linearGradient id="SVGID_78_" gradientTransform="matrix(-1 0 0 1 556.89 0)" gradientUnits="userSpaceOnUse" x1="333.026" x2="308.485" xlink:href="#lg2" y1="230.94" y2="251.656"/><linearGradient id="SVGID_79_" gradientUnits="userSpaceOnUse" x1="244.073" x2="215.408" xlink:href="#lg8" y1="240.121" y2="216.009"/><linearGradient id="SVGID_80_" gradientUnits="userSpaceOnUse" x1="259.661" x2="217.868" xlink:href="#lg8" y1="237.567" y2="201.4"/><linearGradient id="SVGID_81_" gradientUnits="userSpaceOnUse" x1="286.724" x2="257.59" xlink:href="#lg8" y1="227.872" y2="238.12"/><linearGradient id="SVGID_82_" gradientTransform="matrix(-1 0 0 1 556.89 0)" gradientUnits="userSpaceOnUse" x1="247.248" x2="259.572" xlink:href="#lg9" y1="242.213" y2="238.176"/><linearGradient id="SVGID_83_" gradientTransform="matrix(-1 0 0 1 556.89 0)" gradientUnits="userSpaceOnUse" x1="250.003" x2="243.454" xlink:href="#lg9" y1="235.703" y2="230.421"/><linearGradient id="SVGID_84_" gradientTransform="matrix(-.6 .089 -.089 .6 679.029 -932.967)" gradientUnits="userSpaceOnUse" x1="334.172" x2="327.624" xlink:href="#lg9" y1="1906.744" y2="1901.461"/><linearGradient id="SVGID_85_" gradientTransform="matrix(-.6 .089 -.089 .6 679.029 -932.967)" gradientUnits="userSpaceOnUse" x1="342.654" x2="336.106" xlink:href="#lg9" y1="1903.614" y2="1898.331"/><linearGradient id="SVGID_86_" gradientTransform="matrix(-1 0 0 1 556.89 0)" gradientUnits="userSpaceOnUse" x1="259.825" x2="273.839" xlink:href="#lg9" y1="225.317" y2="239.331"/><linearGradient id="SVGID_87_" gradientTransform="matrix(-1 0 0 1 556.89 0)" gradientUnits="userSpaceOnUse" x1="259.01" x2="252.462" xlink:href="#lg9" y1="224.652" y2="219.369"/><linearGradient id="SVGID_88_" gradientTransform="matrix(-.6 .089 -.089 .6 679.029 -932.967)" gradientUnits="userSpaceOnUse" x1="352.3" x2="345.751" xlink:href="#lg9" y1="1885.649" y2="1880.367"/><linearGradient id="SVGID_89_" gradientTransform="matrix(-.6 .089 -.089 .6 679.029 -932.967)" gradientUnits="userSpaceOnUse" x1="360.782" x2="354.233" xlink:href="#lg9" y1="1882.52" y2="1877.237"/><linearGradient id="SVGID_90_" gradientTransform="matrix(-1 0 0 1 556.89 0)" gradientUnits="userSpaceOnUse" x1="268.813" x2="282.827" xlink:href="#lg9" y1="238.998" y2="253.012"/><linearGradient id="SVGID_91_" gradientTransform="matrix(-1 0 0 1 556.89 0)" gradientUnits="userSpaceOnUse" x1="267.999" x2="261.45" xlink:href="#lg9" y1="238.333" y2="233.051"/><linearGradient id="SVGID_92_" gradientTransform="matrix(-.6 .089 -.089 .6 679.029 -932.967)" gradientUnits="userSpaceOnUse" x1="364.162" x2="357.613" xlink:href="#lg9" y1="1906.689" y2="1901.406"/><linearGradient id="SVGID_93_" gradientTransform="matrix(-.6 .089 -.089 .6 679.029 -932.967)" gradientUnits="userSpaceOnUse" x1="372.644" x2="366.095" xlink:href="#lg9" y1="1903.559" y2="1898.276"/><linearGradient id="SVGID_94_" gradientUnits="userSpaceOnUse" x1="262.587" x2="184.059" xlink:href="#lg3" y1="435.633" y2="213.262"/><linearGradient id="SVGID_95_" gradientTransform="matrix(-1 0 0 -1 510 776.554)" gradientUnits="userSpaceOnUse" x1="267.89" x2="201.887" xlink:href="#lg3" y1="389.571" y2="202.663"/><linearGradient id="SVGID_96_" gradientTransform="matrix(1 0 0 -1 0 776.554)" gradientUnits="userSpaceOnUse" x1="265.66" x2="211.077" xlink:href="#lg3" y1="394.588" y2="240.021"/><linearGradient id="SVGID_97_" gradientUnits="userSpaceOnUse" x1="294.723" x2="294.723" xlink:href="#lg3" y1="489.209" y2="367.486"/><linearGradient id="SVGID_98_" gradientUnits="userSpaceOnUse" x1="255" x2="255" y1="374.16" y2="410.696"><stop offset="0" stop-color="#fff5d9"/><stop offset="1" stop-color="#ffce47"/></linearGradient><linearGradient id="SVGID_99_" gradientUnits="userSpaceOnUse" x1="322.979" x2="262.979" y1="396.534" y2="215.534"><stop offset="0" stop-color="#ff9356" stop-opacity="0"/><stop offset="1" stop-color="#ff755c"/></linearGradient><g><path d="m485.638 510h-461.276c-13.455 0-24.362-10.907-24.362-24.362v-461.276c0-13.455 10.907-24.362 24.362-24.362h461.275c13.456 0 24.363 10.907 24.363 24.362v461.275c0 13.456-10.907 24.363-24.362 24.363z" fill="url(#SVGID_1_)"/><g><g><path d="m306 377.333 69.914-74.837c19.648-21.032 43.723-21.11 63.409-.207l70.677 75.044z" fill="url(#SVGID_2_)"/><path d="m1.333 377.333 57.576-112.806c16.181-31.702 36.007-31.821 52.22-.312l58.205 113.118z" fill="url(#SVGID_3_)"/><path d="m.637 377.333 104.393-76.828c29.338-21.591 65.286-21.672 94.681-.213l105.533 77.041z" fill="url(#SVGID_4_)"/><path d="m146.637 377.333 104.393-65.483c29.338-18.403 65.286-18.472 94.681-.181l105.533 65.664z" fill="url(#SVGID_5_)"/></g><path d="m258.4 391.743s-100.595-95.886-258.4-58.641v58.641z" fill="url(#SVGID_6_)"/><path d="m187.286 391.743s125.633-106.309 322.714-65.015v65.015z" fill="url(#SVGID_7_)"/></g><path d="m510 485.638v-132.429h-510v132.429c0 13.455 10.907 24.362 24.362 24.362h461.275c13.456 0 24.363-10.907 24.363-24.362z" fill="url(#SVGID_8_)"/><path d="m510 485.638v-112.564h-510v112.564c0 13.455 10.907 24.362 24.362 24.362h461.275c13.456 0 24.363-10.907 24.363-24.362z" fill="url(#SVGID_9_)"/><path d="m510 485.638v-35.762h-510v35.762c0 13.455 10.907 24.362 24.362 24.362h461.275c13.456 0 24.363-10.907 24.363-24.362z" fill="url(#SVGID_10_)"/><g><path d="m404.63 91.314h-11.749c0-14.706-11.922-26.627-26.627-26.627h-52.52c-14.706 0-26.627 11.922-26.627 26.627s11.922 26.627 26.627 26.627h11.748c0 14.706 11.922 26.627 26.627 26.627h52.52c14.706 0 26.627-11.922 26.627-26.627.001-14.706-11.92-26.627-26.626-26.627z" fill="url(#SVGID_11_)"/><path d="m481.003 91.626h-33.178c-9.29 0-16.821-7.531-16.821-16.821 0-9.29 7.531-16.821 16.821-16.821h33.178c9.29 0 16.821 7.531 16.821 16.821 0 9.29-7.531 16.821-16.821 16.821z" fill="url(#SVGID_12_)"/></g><path d="m110.808 64.528h-9.611c0 12.03-9.753 21.783-21.783 21.783h-42.964c-12.03 0-21.783-9.753-21.783-21.783s9.753-21.783 21.783-21.783h9.611c0-12.03 9.753-21.783 21.783-21.783h42.965c12.03 0 21.783 9.753 21.783 21.783-.001 12.03-9.754 21.783-21.784 21.783z" fill="url(#SVGID_13_)"/><g><g><path d="m262.725 388.884c-2.783-5.042-5.455-10.249-8.014-15.618-14.282-29.962-25.123-65.078-32.222-104.371-11.992-66.376-9.229-121.363-9.106-123.671.442-8.273 7.51-14.627 15.78-14.177 8.271.442 14.617 7.503 14.178 15.773-.028.536-2.686 54.32 8.781 117.352 5.801 31.887 15.989 69.925 33.869 104.393 13.94 26.874-6.227 51.193-23.266 20.319z" fill="url(#SVGID_14_)"/><path d="m243.34 146.82c.439-8.27-5.907-15.331-14.178-15.773-8.27-.45-15.338 5.904-15.78 14.177-.041.772-.378 7.448-.358 18.468l30.98 30.98c-1.62-28.535-.681-47.534-.664-47.852z" fill="url(#SVGID_15_)"/><path d="m252.121 264.172c-5.73-31.494-7.933-60.679-8.7-82.067-5.882.779-12.049 1.194-18.403 1.194-3.959 0-7.843-.166-11.633-.475.786 22.352 3.088 52.778 9.104 86.072 7.099 39.293 17.94 74.408 32.222 104.371 18.232 38.25 7.734-52.346-2.59-109.095z" fill="url(#SVGID_16_)"/><path d="m254.708 373.27c-14.28-29.97-25.12-65.08-32.22-104.37-4.13-22.9-6.52-44.43-7.86-62.92 3.39.25 6.86.38 10.39.38 6.81 0 13.4-.48 19.66-1.37 1.29 17.52 3.55 37.82 7.44 59.18 10.33 56.75 20.83 147.35 2.59 109.1z" fill="url(#SVGID_17_)"/><path d="m254.708 373.27c-14.28-29.97-25.12-65.08-32.22-104.37-2.42-13.4-4.24-26.33-5.6-38.46 2.67.16 5.38.24 8.13.24 7.63 0 14.98-.6 21.91-1.71 1.28 11.18 2.97 23.02 5.19 35.2 10.33 56.75 20.83 147.35 2.59 109.1z" fill="url(#SVGID_18_)"/><path d="m254.708 373.27c-14.28-29.97-25.12-65.08-32.22-104.37-.9-5-1.72-9.93-2.47-14.78 4.08.36 8.27.55 12.54.55 6.12 0 12.06-.38 17.74-1.11.56 3.5 1.17 7.04 1.82 10.61 10.33 56.75 20.83 147.35 2.59 109.1z" fill="url(#SVGID_19_)"/><path d="m254.708 373.27c-12.81-26.89-22.85-57.92-29.91-92.39 1.18.04 2.37.05 3.56.05 9.37 0 18.33-.9 26.57-2.54 11.68 54.71 18.02 133.13-.22 94.88z" fill="url(#SVGID_20_)"/><path d="m254.708 373.27c-9.76-20.49-17.91-43.38-24.36-68.37 10.75-.15 20.93-1.48 30.06-3.76 13.37 49.62 12.54 110.38-5.7 72.13z" fill="url(#SVGID_21_)"/><path d="m254.708 373.27c-6.9-14.48-12.99-30.16-18.24-46.93 10.87-.14 21.14-1.49 30.35-3.8 14.35 43.35 6.13 88.98-12.11 50.73z" fill="url(#SVGID_22_)"/><path d="m254.708 373.27c-3.67-7.7-7.11-15.73-10.31-24.09.62.01 1.25.01 1.88.01 10.41 0 20.31-1.11 29.29-3.12 14.63 35.32-2.62 65.45-20.86 27.2z" fill="url(#SVGID_23_)"/></g><g><g><path d="m248.936 62.649s-18.812-59.818-35.405 16.69v31.385s18.389-40.047 35.405-48.075z" fill="url(#SVGID_24_)"/><path d="m163.638 61.937s26.086-56.135 52.479-5.703c6.963 13.306 10.355 27.616 10.355 42.023v21.421s-32.636-48.099-62.834-57.741z" fill="url(#SVGID_25_)"/><g><path d="m62.755 99.171c8.18 5.198 22.817 13.45 42.802 20.564 2.306.821 4.882.133 6.486-1.716l7.166-8.26c1.76-2.029 5.042-.22 4.267 2.351l-1.91 6.34c-.975 3.238.93 6.644 4.204 7.489 11.02 2.845 23.164 5.14 36.33 6.431 1.65.162 3.291-.388 4.526-1.494l17.351-15.525c1.543-1.381 4-.385 4.146 1.68l.762 10.74c.228 3.217 2.972 5.658 6.194 5.535 14.397-.55 29.665-2.384 45.726-5.966 0 0-32.552-130.934-178.048-38.239-3.686 2.349-3.692 7.725-.002 10.07z" fill="url(#SVGID_26_)"/><path d="m188.124 117.031.762 10.74c.228 3.217 2.972 5.658 6.194 5.535 14.397-.55 29.665-2.384 45.726-5.966 0 0-13.65-54.898-62.776-68.431-22.286-6.139-46.155.416-62.499 16.763l-33.967 33.972c6.803 3.333 14.832 6.83 23.986 10.089 2.307.821 4.887.136 6.492-1.714l7.166-8.26c1.76-2.029 5.042-.22 4.267 2.351l-1.91 6.34c-.975 3.238.93 6.644 4.204 7.489 11.02 2.845 23.164 5.14 36.33 6.431 1.65.162 3.291-.388 4.526-1.494l17.351-15.525c1.545-1.381 4.002-.386 4.148 1.68z" fill="url(#SVGID_27_)"/><path d="m240.807 127.341c-16.063 3.584-31.329 5.413-45.73 5.965-3.218.121-5.961-2.317-6.189-5.536l-.766-10.739c-.142-2.068-2.604-3.06-4.142-1.682l-17.352 15.528c-1.24 1.102-2.877 1.652-4.524 1.492-13.168-1.292-25.317-3.585-36.335-6.433-3.273-.845-5.177-4.249-4.205-7.487l1.91-6.339c.774-2.575-2.51-4.381-4.269-2.352l28.78-33.174c13.253-15.277 35.87-18.56 52.671-7.302 30.856 20.675 40.151 58.059 40.151 58.059z" fill="url(#SVGID_28_)"/><path d="m188.122 117.031.766 10.739c.228 3.219 2.971 5.657 6.189 5.536 14.401-.552 29.667-2.381 45.73-5.965 0 0-2.738-11.005-10.17-24.375-5.884-10.585-20.195-12.751-28.975-4.41l-17.681 16.795c1.537-1.38 3.999-.388 4.141 1.68z" fill="url(#SVGID_29_)"/></g><g><path d="m361.74 62.488c-5.553 5.733-15.756 15.12-30.735 24.485-1.728 1.081-4.066.954-5.88-.305l-8.106-5.625c-1.991-1.381-4.289.688-2.988 2.691l3.207 4.938c1.638 2.522.899 5.681-1.636 6.949-8.533 4.269-18.148 8.275-28.876 11.623-1.344.419-2.861.246-4.178-.459l-18.494-9.901c-1.645-.881-3.456.371-3.056 2.113l2.077 9.056c.622 2.712-1.064 5.215-3.801 5.67-12.226 2.031-25.509 3.147-39.9 2.946 0 0-5.782-114.422 139.817-62.548 3.689 1.315 5.054 5.781 2.549 8.367z" fill="url(#SVGID_30_)"/><path d="m260.998 98.998 2.077 9.056c.622 2.712-1.064 5.215-3.801 5.67-12.226 2.031-25.509 3.147-39.9 2.946 0 0-2.423-47.975 35.4-67.711 17.159-8.953 38.856-7.632 56.713 3.126l37.11 22.357c-4.869 3.946-10.725 8.239-17.587 12.529-1.73 1.081-4.069.958-5.884-.302l-8.106-5.625c-1.991-1.381-4.289.688-2.988 2.691l3.207 4.938c1.638 2.522.899 5.681-1.636 6.949-8.533 4.269-18.149 8.275-28.876 11.623-1.344.419-2.861.246-4.178-.459l-18.494-9.901c-1.646-.88-3.457.371-3.057 2.113z" fill="url(#SVGID_31_)"/><path d="m219.373 116.671c14.392.202 27.673-.917 39.903-2.947 2.733-.456 4.419-2.955 3.796-5.67l-2.072-9.056c-.404-1.743 1.412-2.993 3.052-2.113l18.495 9.903c1.32.702 2.833.875 4.176.458 10.729-3.349 20.35-7.355 28.879-11.625 2.535-1.268 3.272-4.426 1.637-6.948l-3.207-4.937c-1.301-2.006.999-4.074 2.99-2.692l-32.553-22.591c-14.99-10.403-34.81-9.222-46.069 3.037-20.677 22.511-19.027 55.181-19.027 55.181z" fill="url(#SVGID_32_)"/><path d="m261 98.998 2.072 9.055c.622 2.715-1.064 5.214-3.796 5.67-12.23 2.03-25.51 3.149-39.903 2.947 0 0-.485-9.617 2.374-22.012 2.263-9.812 13.731-14.086 23.212-8.673l19.092 10.899c-1.639-.879-3.455.371-3.051 2.114z" fill="url(#SVGID_33_)"/></g><g><path d="m87.853 216.069c9.585-1.434 26.049-4.793 45.806-12.515 2.28-.891 3.775-3.099 3.775-5.547v-10.936c0-2.686 3.664-3.47 4.764-1.02l2.712 6.04c1.385 3.085 5.056 4.409 8.083 2.902 10.189-5.072 20.866-11.297 31.656-18.95 1.352-.959 2.231-2.45 2.44-4.094l2.933-23.097c.261-2.054 2.769-2.912 4.233-1.448l7.614 7.614c2.28 2.28 5.952 2.326 8.306.122 10.514-9.85 20.846-21.24 30.63-34.471 0 0-110.39-77.572-159.55 87.792-1.244 4.19 2.274 8.255 6.598 7.608z" fill="url(#SVGID_34_)"/><path d="m194.256 147.405 7.614 7.614c2.28 2.28 5.952 2.326 8.306.122 10.514-9.85 20.846-21.24 30.63-34.471 0 0-46.286-32.523-92.262-10.554-20.857 9.967-34.591 30.559-36.225 53.618l-3.395 47.92c7.323-1.94 15.679-4.56 24.729-8.097 2.281-.892 3.781-3.1 3.781-5.549v-10.936c0-2.686 3.664-3.47 4.764-1.02l2.712 6.04c1.385 3.085 5.056 4.409 8.083 2.902 10.189-5.072 20.866-11.297 31.657-18.95 1.352-.959 2.231-2.45 2.44-4.094l2.933-23.097c.261-2.055 2.769-2.913 4.233-1.448z" fill="url(#SVGID_35_)"/><path d="m240.807 120.669c-9.785 13.233-20.118 24.619-30.633 34.473-2.352 2.2-6.021 2.156-8.303-.126l-7.616-7.61c-1.463-1.469-3.972-.605-4.23 1.444l-2.932 23.1c-.214 1.646-1.091 3.133-2.44 4.092-10.793 7.654-21.473 13.882-31.661 18.951-3.026 1.507-6.695.183-8.082-2.9l-2.711-6.04c-1.103-2.452-4.766-1.664-4.766 1.021v-43.918c0-20.224 14.933-37.525 35.001-40.032 36.854-4.602 68.373 17.545 68.373 17.545z" fill="url(#SVGID_36_)"/><path d="m194.255 147.406 7.616 7.61c2.282 2.282 5.951 2.326 8.303.126 10.516-9.854 20.849-21.24 30.633-34.473 0 0-9.28-6.519-23.655-11.748-11.381-4.139-23.61 3.602-24.777 15.656l-2.35 24.272c.258-2.048 2.767-2.912 4.23-1.443z" fill="url(#SVGID_37_)"/></g><g><path d="m373.788 216.069c-9.585-1.434-26.049-4.793-45.806-12.515-2.28-.891-3.775-3.099-3.775-5.547v-10.936c0-2.686-3.664-3.47-4.764-1.02l-2.712 6.04c-1.385 3.085-5.056 4.409-8.083 2.902-10.189-5.072-20.866-11.297-31.656-18.95-1.352-.959-2.231-2.45-2.44-4.094l-2.933-23.097c-.261-2.054-2.769-2.912-4.233-1.448l-7.614 7.614c-2.28 2.28-5.952 2.326-8.306.122-10.514-9.85-20.846-21.24-30.63-34.471 0 0 110.39-77.572 159.55 87.792 1.244 4.19-2.275 8.255-6.598 7.608z" fill="url(#SVGID_38_)"/><path d="m267.384 147.405-7.614 7.614c-2.28 2.28-5.952 2.326-8.306.122-10.514-9.85-20.846-21.24-30.63-34.471 0 0 46.286-32.523 92.262-10.554 20.857 9.967 34.591 30.559 36.225 53.618l3.395 47.92c-7.323-1.94-15.679-4.56-24.729-8.097-2.281-.892-3.781-3.1-3.781-5.549v-10.936c0-2.686-3.664-3.47-4.764-1.02l-2.712 6.04c-1.385 3.085-5.056 4.409-8.083 2.902-10.189-5.072-20.866-11.297-31.657-18.95-1.352-.959-2.231-2.45-2.44-4.094l-2.933-23.097c-.261-2.055-2.769-2.913-4.233-1.448z" fill="url(#SVGID_39_)"/><path d="m220.833 120.669c9.785 13.233 20.118 24.619 30.633 34.473 2.352 2.2 6.021 2.156 8.303-.126l7.616-7.61c1.463-1.469 3.972-.605 4.23 1.444l2.932 23.1c.214 1.646 1.091 3.133 2.44 4.092 10.793 7.654 21.473 13.882 31.661 18.951 3.026 1.507 6.695.183 8.082-2.9l2.711-6.04c1.103-2.452 4.766-1.664 4.766 1.021v-43.918c0-20.224-14.933-37.525-35.001-40.032-36.853-4.602-68.373 17.545-68.373 17.545z" fill="url(#SVGID_40_)"/><path d="m267.386 147.406-7.616 7.61c-2.282 2.282-5.951 2.326-8.303.126-10.516-9.854-20.849-21.24-30.633-34.473 0 0 9.28-6.519 23.655-11.748 11.381-4.139 23.61 3.602 24.777 15.656l2.35 24.272c-.259-2.048-2.768-2.912-4.23-1.443z" fill="url(#SVGID_41_)"/></g></g><g><g><circle cx="217.467" cy="146.931" fill="url(#SVGID_42_)" r="17.338"/><path d="m212.715 135.179c1.444 1.444.92 4.31-1.17 6.4s-4.956 2.614-6.4 1.17-.92-4.31 1.17-6.4 4.956-2.614 6.4-1.17z" fill="url(#SVGID_43_)"/><path d="m207.916 146.039c.995.995.935 2.668-.134 3.738s-2.742 1.129-3.738.134c-.995-.995-.935-2.668.134-3.738s2.743-1.129 3.738-.134z" fill="url(#SVGID_44_)"/><path d="m215.467 144.274c.995.995.935 2.668-.134 3.738-1.069 1.069-2.742 1.129-3.738.134-.995-.995-.935-2.668.134-3.738s2.743-1.129 3.738-.134z" fill="url(#SVGID_45_)"/></g><g><circle cx="231.598" cy="129.592" fill="url(#SVGID_46_)" r="17.338"/><path d="m226.847 117.841c1.444 1.444.92 4.31-1.17 6.4s-4.956 2.614-6.4 1.17-.92-4.31 1.17-6.4 4.955-2.614 6.4-1.17z" fill="url(#SVGID_47_)"/><path d="m222.047 128.701c.995.995.935 2.668-.134 3.738s-2.742 1.129-3.738.134c-.995-.995-.935-2.668.134-3.738s2.743-1.129 3.738-.134z" fill="url(#SVGID_48_)"/><path d="m229.598 126.936c.995.995.935 2.668-.134 3.738s-2.742 1.129-3.738.134c-.995-.995-.935-2.668.134-3.738s2.743-1.13 3.738-.134z" fill="url(#SVGID_49_)"/></g><g><circle cx="245.699" cy="151.057" fill="url(#SVGID_50_)" r="17.338"/><path d="m240.948 139.305c1.444 1.444.92 4.31-1.17 6.4s-4.956 2.614-6.4 1.17-.92-4.31 1.17-6.4 4.956-2.614 6.4-1.17z" fill="url(#SVGID_51_)"/><path d="m236.148 150.165c.995.995.935 2.668-.134 3.738s-2.742 1.129-3.738.134-.935-2.668.134-3.738 2.743-1.129 3.738-.134z" fill="url(#SVGID_52_)"/><path d="m243.699 148.4c.995.995.935 2.668-.134 3.738s-2.742 1.129-3.738.134c-.995-.995-.935-2.668.134-3.738 1.07-1.069 2.743-1.129 3.738-.134z" fill="url(#SVGID_53_)"/></g></g></g></g><g><g><path d="m273.703 394.115c1.774-3.214 3.477-6.533 5.108-9.955 9.104-19.098 16.014-41.481 20.539-66.527 7.644-42.309 5.883-77.358 5.804-78.829-.282-5.273-4.787-9.324-10.058-9.037-5.272.282-9.317 4.783-9.037 10.054.018.342 1.712 34.624-5.597 74.802-3.698 20.325-10.192 44.571-21.589 66.541-8.886 17.129 3.969 32.63 14.83 12.951z" fill="url(#SVGID_54_)"/><path d="m286.059 239.82c-.28-5.271 3.765-9.772 9.037-10.054 5.271-.287 9.777 3.763 10.058 9.037.026.492.241 4.748.228 11.772l-19.747 19.747c1.033-18.189.435-30.3.424-30.502z" fill="url(#SVGID_55_)"/><path d="m280.462 314.622c3.652-20.075 5.057-38.678 5.545-52.311 3.75.497 7.68.761 11.731.761 2.524 0 4.999-.106 7.415-.303-.501 14.247-1.969 33.641-5.803 54.863-4.525 25.046-11.435 47.429-20.539 66.527-11.622 24.382-4.93-33.365 1.651-69.537z" fill="url(#SVGID_56_)"/><path d="m278.813 384.162c9.102-19.103 16.012-41.483 20.537-66.527 2.633-14.597 4.156-28.32 5.01-40.106-2.161.159-4.373.242-6.623.242-4.341 0-8.541-.306-12.532-.873-.822 11.167-2.263 24.107-4.742 37.722-6.584 36.173-13.277 93.923-1.65 69.542z" fill="url(#SVGID_57_)"/><path d="m278.813 384.162c9.102-19.103 16.012-41.483 20.537-66.527 1.543-8.541 2.703-16.783 3.569-24.515-1.702.102-3.429.153-5.182.153-4.863 0-9.548-.382-13.966-1.09-.816 7.126-1.893 14.673-3.308 22.437-6.584 36.173-13.277 93.923-1.65 69.542z" fill="url(#SVGID_58_)"/><path d="m278.813 384.162c9.102-19.103 16.012-41.483 20.537-66.527.574-3.187 1.096-6.329 1.574-9.421-2.601.229-5.271.351-7.993.351-3.901 0-7.687-.242-11.308-.708-.357 2.231-.746 4.487-1.16 6.763-6.584 36.173-13.277 93.923-1.65 69.542z" fill="url(#SVGID_59_)"/><path d="m278.813 384.162c8.165-17.14 14.565-36.919 19.065-58.891-.752.025-1.511.032-2.269.032-5.973 0-11.684-.574-16.936-1.619-7.445 34.873-11.487 84.859.14 60.478z" fill="url(#SVGID_60_)"/><path d="m278.813 384.162c6.221-13.061 11.416-27.651 15.527-43.58-6.852-.096-13.341-.943-19.161-2.397-8.522 31.629-7.993 70.358 3.634 45.977z" fill="url(#SVGID_61_)"/><path d="m278.813 384.162c4.398-9.23 8.28-19.224 11.626-29.914-6.929-.089-13.475-.95-19.345-2.422-9.147 27.632-3.908 56.717 7.719 32.336z" fill="url(#SVGID_62_)"/><path d="m278.813 384.162c2.339-4.908 4.532-10.027 6.572-15.355-.395.006-.797.006-1.198.006-6.635 0-12.946-.708-18.67-1.989-9.326 22.514 1.669 41.719 13.296 17.338z" fill="url(#SVGID_63_)"/></g><g><g><path d="m282.492 186.168s11.991-38.129 22.568 10.638v20.005c-.001.001-11.722-25.526-22.568-30.643z" fill="url(#SVGID_64_)"/><path d="m336.862 185.714s-16.628-35.781-33.451-3.635c-4.439 8.481-6.6 17.603-6.6 26.786v13.654s20.802-30.659 40.051-36.805z" fill="url(#SVGID_65_)"/><g><path d="m401.166 209.448c-5.214 3.313-14.544 8.573-27.282 13.108-1.47.523-3.112.085-4.135-1.094l-4.568-5.265c-1.122-1.293-3.214-.14-2.72 1.499l1.217 4.041c.622 2.064-.593 4.235-2.68 4.774-7.024 1.814-14.765 3.276-23.157 4.099-1.051.103-2.098-.248-2.885-.952l-11.06-9.896c-.984-.88-2.549-.246-2.643 1.071l-.486 6.846c-.145 2.05-1.894 3.606-3.948 3.528-9.177-.351-18.909-1.519-29.147-3.803 0 0 20.749-83.459 113.49-24.374 2.352 1.496 2.356 4.923.004 6.418z" fill="url(#SVGID_66_)"/><path d="m321.254 220.832-.486 6.846c-.145 2.05-1.894 3.606-3.948 3.528-9.177-.351-18.909-1.519-29.147-3.803 0 0 8.701-34.993 40.014-43.619 14.205-3.913 29.419.265 39.838 10.685l21.651 21.654c-4.337 2.125-9.454 4.354-15.289 6.431-1.471.524-3.115.087-4.138-1.092l-4.568-5.265c-1.122-1.293-3.214-.14-2.72 1.499l1.217 4.041c.622 2.064-.593 4.235-2.68 4.774-7.024 1.814-14.765 3.276-23.157 4.099-1.051.103-2.098-.248-2.885-.952l-11.06-9.896c-.983-.881-2.549-.247-2.642 1.07z" fill="url(#SVGID_67_)"/><path d="m287.673 227.403c10.239 2.284 19.97 3.45 29.149 3.802 2.051.077 3.799-1.477 3.945-3.529l.488-6.845c.091-1.318 1.66-1.95 2.64-1.072l11.06 9.897c.791.703 1.834 1.053 2.884.951 8.394-.823 16.138-2.285 23.16-4.1 2.086-.539 3.3-2.709 2.68-4.772l-1.218-4.04c-.493-1.642 1.6-2.792 2.721-1.499l-18.345-21.146c-8.448-9.738-22.864-11.83-33.573-4.654-19.666 13.178-25.591 37.007-25.591 37.007z" fill="url(#SVGID_68_)"/><path d="m321.255 220.832-.488 6.845c-.146 2.052-1.894 3.606-3.945 3.529-9.179-.352-18.91-1.518-29.149-3.802 0 0 1.745-7.015 6.483-15.537 3.751-6.747 12.872-8.128 18.469-2.811l11.27 10.705c-.98-.879-2.549-.247-2.64 1.071z" fill="url(#SVGID_69_)"/></g><g><path d="m210.589 186.066c3.54 3.654 10.043 9.638 19.591 15.607 1.102.689 2.591.608 3.748-.194l5.167-3.586c1.269-.881 2.734.439 1.905 1.715l-2.044 3.147c-1.044 1.607-.573 3.621 1.043 4.43 5.439 2.721 11.568 5.274 18.406 7.409.857.267 1.824.157 2.663-.292l11.788-6.311c1.049-.561 2.203.237 1.948 1.347l-1.324 5.772c-.396 1.729.678 3.324 2.423 3.614 7.793 1.295 16.26 2.006 25.433 1.878 0 0 3.686-72.934-89.121-39.869-2.353.838-3.223 3.684-1.626 5.333z" fill="url(#SVGID_70_)"/><path d="m274.803 209.337-1.324 5.772c-.396 1.729.678 3.324 2.423 3.614 7.793 1.295 16.26 2.006 25.433 1.878 0 0 1.544-30.58-22.564-43.16-10.937-5.707-24.767-4.865-36.149 1.992l-23.654 14.251c3.104 2.515 6.836 5.252 11.21 7.986 1.102.689 2.594.611 3.751-.192l5.167-3.586c1.269-.881 2.734.439 1.905 1.715l-2.044 3.147c-1.044 1.607-.573 3.621 1.043 4.43 5.439 2.721 11.568 5.274 18.406 7.409.857.267 1.824.157 2.663-.292l11.788-6.311c1.047-.561 2.201.237 1.946 1.347z" fill="url(#SVGID_71_)"/><path d="m301.336 220.602c-9.174.129-17.639-.585-25.435-1.879-1.742-.29-2.817-1.884-2.42-3.614l1.321-5.772c.257-1.111-.9-1.907-1.945-1.347l-11.789 6.312c-.841.447-1.806.558-2.662.292-6.839-2.135-12.971-4.688-18.408-7.41-1.616-.808-2.086-2.821-1.043-4.429l2.044-3.147c.829-1.279-.637-2.597-1.906-1.716l20.75-14.4c9.555-6.631 22.188-5.878 29.365 1.936 13.179 14.35 12.128 35.174 12.128 35.174z" fill="url(#SVGID_72_)"/><path d="m274.802 209.337-1.321 5.772c-.397 1.73.678 3.324 2.42 3.614 7.796 1.294 16.261 2.007 25.435 1.879 0 0 .309-6.13-1.514-14.031-1.443-6.254-8.752-8.978-14.796-5.528l-12.169 6.947c1.045-.56 2.203.236 1.945 1.347z" fill="url(#SVGID_73_)"/></g><g><path d="m385.168 283.96c-6.109-.914-16.604-3.055-29.198-7.977-1.453-.568-2.406-1.975-2.406-3.535v-6.971c0-1.712-2.335-2.212-3.037-.65l-1.729 3.85c-.883 1.966-3.223 2.81-5.152 1.85-6.494-3.233-13.3-7.201-20.178-12.079-.862-.611-1.422-1.562-1.555-2.61l-1.87-14.722c-.166-1.309-1.765-1.856-2.698-.923l-4.853 4.853c-1.453 1.453-3.794 1.483-5.294.077-6.702-6.278-13.287-13.539-19.524-21.972 0 0 70.364-49.445 101.699 55.959.794 2.671-1.449 5.262-4.205 4.85z" fill="url(#SVGID_74_)"/><path d="m317.345 240.192-4.853 4.853c-1.454 1.454-3.794 1.483-5.294.077-6.702-6.278-13.287-13.539-19.524-21.972 0 0 29.503-20.731 58.809-6.727 13.295 6.353 22.049 19.479 23.09 34.177l2.164 30.545c-4.668-1.237-9.994-2.906-15.763-5.161-1.454-.568-2.41-1.976-2.41-3.537v-6.971c0-1.712-2.336-2.212-3.037-.65l-1.729 3.85c-.883 1.966-3.223 2.81-5.152 1.85-6.494-3.233-13.3-7.201-20.178-12.079-.862-.611-1.422-1.562-1.555-2.61l-1.87-14.722c-.166-1.309-1.764-1.856-2.698-.923z" fill="url(#SVGID_75_)"/><path d="m287.673 223.151c6.237 8.435 12.823 15.692 19.526 21.974 1.499 1.402 3.838 1.374 5.292-.08l4.854-4.85c.932-.936 2.532-.386 2.696.92l1.869 14.724c.137 1.049.695 1.997 1.555 2.608 6.88 4.879 13.687 8.849 20.181 12.08 1.929.96 4.268.117 5.152-1.849l1.728-3.85c.703-1.563 3.038-1.061 3.038.651v-27.994c0-12.891-9.518-23.919-22.31-25.517-23.49-2.934-43.581 11.183-43.581 11.183z" fill="url(#SVGID_76_)"/><path d="m317.346 240.194-4.854 4.85c-1.455 1.455-3.794 1.483-5.292.08-6.703-6.281-13.289-13.539-19.526-21.974 0 0 5.915-4.155 15.078-7.488 7.254-2.639 15.049 2.296 15.793 9.979l1.498 15.472c-.165-1.305-1.764-1.856-2.697-.919z" fill="url(#SVGID_77_)"/></g><g><path d="m202.91 283.96c6.109-.914 16.604-3.055 29.198-7.977 1.453-.568 2.406-1.975 2.406-3.535v-6.971c0-1.712 2.336-2.212 3.037-.65l1.729 3.85c.883 1.966 3.223 2.81 5.152 1.85 6.494-3.233 13.3-7.201 20.178-12.079.862-.611 1.422-1.562 1.555-2.61l1.87-14.722c.166-1.309 1.765-1.856 2.698-.923l4.853 4.853c1.453 1.453 3.794 1.483 5.294.077 6.702-6.278 13.287-13.539 19.524-21.972 0 0-70.364-49.445-101.699 55.959-.794 2.671 1.449 5.262 4.205 4.85z" fill="url(#SVGID_78_)"/><path d="m270.733 240.192 4.853 4.853c1.454 1.454 3.794 1.483 5.294.077 6.702-6.278 13.287-13.539 19.524-21.972 0 0-29.503-20.731-58.809-6.727-13.295 6.353-22.049 19.479-23.09 34.177l-2.164 30.545c4.668-1.237 9.994-2.906 15.763-5.161 1.454-.568 2.41-1.976 2.41-3.537v-6.971c0-1.712 2.336-2.212 3.037-.65l1.729 3.85c.883 1.966 3.223 2.81 5.152 1.85 6.494-3.233 13.3-7.201 20.178-12.079.862-.611 1.422-1.562 1.555-2.61l1.869-14.722c.167-1.309 1.765-1.856 2.699-.923z" fill="url(#SVGID_79_)"/><path d="m300.405 223.151c-6.237 8.435-12.823 15.692-19.526 21.974-1.499 1.402-3.838 1.374-5.292-.08l-4.854-4.85c-.932-.936-2.532-.386-2.696.92l-1.869 14.724c-.137 1.049-.695 1.997-1.555 2.608-6.88 4.879-13.687 8.849-20.181 12.08-1.929.96-4.268.117-5.152-1.849l-1.728-3.85c-.703-1.563-3.038-1.061-3.038.651v-27.994c0-12.891 9.518-23.919 22.31-25.517 23.49-2.934 43.581 11.183 43.581 11.183z" fill="url(#SVGID_80_)"/><path d="m270.732 240.194 4.854 4.85c1.455 1.455 3.794 1.483 5.292.08 6.703-6.281 13.289-13.539 19.526-21.974 0 0-5.915-4.155-15.078-7.488-7.254-2.639-15.049 2.296-15.793 9.979l-1.498 15.472c.165-1.305 1.764-1.856 2.697-.919z" fill="url(#SVGID_81_)"/></g></g><g><g><circle cx="302.551" cy="239.89" fill="url(#SVGID_82_)" r="11.052"/><path d="m305.579 232.4c-.921.921-.587 2.747.746 4.079 1.332 1.332 3.159 1.666 4.079.746.921-.921.587-2.747-.746-4.079-1.332-1.333-3.158-1.667-4.079-.746z" fill="url(#SVGID_83_)"/><path d="m308.639 239.322c-.634.634-.596 1.701.085 2.382s1.748.72 2.382.085c.634-.634.596-1.701-.085-2.382s-1.748-.719-2.382-.085z" fill="url(#SVGID_84_)"/><path d="m303.825 238.197c-.634.634-.596 1.701.085 2.382s1.748.72 2.382.085c.634-.634.596-1.701-.085-2.382s-1.747-.719-2.382-.085z" fill="url(#SVGID_85_)"/></g><g><circle cx="293.543" cy="228.839" fill="url(#SVGID_86_)" r="11.052"/><path d="m296.572 221.348c-.921.921-.587 2.747.746 4.079 1.332 1.332 3.159 1.666 4.079.746s.587-2.747-.746-4.079c-1.332-1.333-3.159-1.666-4.079-.746z" fill="url(#SVGID_87_)"/><path d="m299.631 228.27c-.634.634-.596 1.701.085 2.382s1.748.72 2.382.085.596-1.701-.085-2.382-1.747-.719-2.382-.085z" fill="url(#SVGID_88_)"/><path d="m294.818 227.145c-.634.634-.596 1.701.085 2.382s1.748.72 2.382.085c.634-.634.596-1.701-.085-2.382s-1.748-.719-2.382-.085z" fill="url(#SVGID_89_)"/></g><g><circle cx="284.555" cy="242.52" fill="url(#SVGID_90_)" r="11.052"/><path d="m287.584 235.03c-.921.921-.587 2.747.746 4.079 1.332 1.332 3.159 1.666 4.079.746.921-.921.587-2.747-.746-4.079-1.332-1.333-3.159-1.667-4.079-.746z" fill="url(#SVGID_91_)"/><path d="m290.643 241.952c-.634.634-.596 1.701.085 2.382s1.748.72 2.382.085c.634-.634.596-1.701-.085-2.382s-1.748-.719-2.382-.085z" fill="url(#SVGID_92_)"/><path d="m285.83 240.827c-.634.634-.596 1.701.085 2.382s1.748.72 2.382.085.596-1.701-.085-2.382-1.748-.719-2.382-.085z" fill="url(#SVGID_93_)"/></g></g></g></g><ellipse cx="255" cy="414.15" fill="url(#SVGID_94_)" rx="201" ry="58.392"/><ellipse cx="255" cy="423.486" fill="url(#SVGID_95_)" rx="169" ry="49.056"/><ellipse cx="255" cy="412.153" fill="url(#SVGID_96_)" rx="146" ry="37.723"/><path d="m462 510h-255.108l-79.446-118.106h255.108z" fill="url(#SVGID_97_)"/><path d="m382.554 391.894c0 32.931-255.108 32.931-255.108 0s57.108-59.627 127.554-59.627 127.554 26.696 127.554 59.627z" fill="url(#SVGID_98_)"/><path d="m382.554 391.894c0-32.931-57.108-59.627-127.554-59.627-5.36 0-10.642.157-15.828.457 7.019 3.263 60.186 29.477 75.435 81.294 38.692-3.599 67.947-10.973 67.947-22.124z" fill="url(#SVGID_99_)"/></g></svg>