<!--
  - Copyright (c) 2023. Selldone® Business OS™
  -
  - Author: M.Pajuhaan
  - Web: https://selldone.com
  - ━━━━━━━━━━━━━━━━━━━━━━━━━━━━━━━━━━━━━━━━━━━━━━━━━━━━━━
  -
  - All rights reserved. In the weave of time, where traditions and innovations intermingle, this content was crafted.
  - From the essence of thought, through the corridors of creativity, each word, and sentiment has been molded.
  - Not just to exist, but to inspire. Like an artist's stroke or a sculptor's chisel, every nuance is deliberate.
  - Our journey is not just about reaching a destination, but about creating a masterpiece.
  - Tread carefully, for you're treading on dreams.
  -->

<svg id="Capa_1" enable-background="new 0 0 510 510" height="512" viewBox="0 0 510 510" width="512" xmlns="http://www.w3.org/2000/svg" xmlns:xlink="http://www.w3.org/1999/xlink"><linearGradient id="lg1"><stop offset="0" stop-color="#c7e9ff"/><stop offset=".3556" stop-color="#a3e6f2"/><stop offset="1" stop-color="#65e0db"/></linearGradient><linearGradient id="SVGID_1_" gradientUnits="userSpaceOnUse" x1="255" x2="255" xlink:href="#lg1" y1="34.721" y2="483.763"/><linearGradient id="lg2"><stop offset="0" stop-color="#18cefb" stop-opacity="0"/><stop offset="1" stop-color="#0469bb"/></linearGradient><linearGradient id="SVGID_2_" gradientTransform="matrix(-1 0 0 1 -2359.113 0)" gradientUnits="userSpaceOnUse" x1="-2374.124" x2="-2437.124" xlink:href="#lg2" y1="354.147" y2="293.147"/><linearGradient id="SVGID_3_" gradientTransform="matrix(-1 0 0 1 -2359.113 0)" gradientUnits="userSpaceOnUse" x1="-2427.74" x2="-2494.74" xlink:href="#lg2" y1="374.615" y2="326.615"/><linearGradient id="SVGID_4_" gradientUnits="userSpaceOnUse" x1="513.468" x2="436.135" xlink:href="#lg2" y1="376.605" y2="337.271"/><linearGradient id="SVGID_5_" gradientUnits="userSpaceOnUse" x1="473.513" x2="424.18" xlink:href="#lg2" y1="396.307" y2="371.64"/><linearGradient id="lg3"><stop offset="0" stop-color="#c59b6d"/><stop offset="1" stop-color="#8b6239"/></linearGradient><linearGradient id="SVGID_6_" gradientUnits="userSpaceOnUse" x1="127.224" x2="177.569" xlink:href="#lg3" y1="425.305" y2="425.305"/><linearGradient id="SVGID_7_" gradientUnits="userSpaceOnUse" x1="139.525" x2="118.9" xlink:href="#lg3" y1="438.537" y2="438.537"/><linearGradient id="SVGID_8_" gradientUnits="userSpaceOnUse" x1="167.913" x2="133.476" xlink:href="#lg3" y1="418.313" y2="418.313"/><linearGradient id="lg4"><stop offset="0" stop-color="#754c24" stop-opacity="0"/><stop offset="1" stop-color="#754c24"/></linearGradient><linearGradient id="SVGID_9_" gradientUnits="userSpaceOnUse" x1="140.156" x2="140.156" xlink:href="#lg4" y1="431.388" y2="401.081"/><linearGradient id="lg5"><stop offset="0" stop-color="#798c00"/><stop offset="1" stop-color="#1b444f"/></linearGradient><linearGradient id="SVGID_10_" gradientUnits="userSpaceOnUse" x1="91.718" x2="137.536" xlink:href="#lg5" y1="329.412" y2="367.593"/><linearGradient id="lg6"><stop offset="0" stop-color="#1b444f" stop-opacity="0"/><stop offset="1" stop-color="#1b444f"/></linearGradient><linearGradient id="SVGID_11_" gradientUnits="userSpaceOnUse" x1="148.337" x2="148.337" xlink:href="#lg6" y1="395.903" y2="350.443"/><linearGradient id="SVGID_12_" gradientUnits="userSpaceOnUse" x1="104.286" x2="145.522" xlink:href="#lg5" y1="300.19" y2="339.898"/><linearGradient id="SVGID_13_" gradientUnits="userSpaceOnUse" x1="149.171" x2="149.171" xlink:href="#lg6" y1="345.751" y2="305.2"/><linearGradient id="SVGID_14_" gradientUnits="userSpaceOnUse" x1="91.944" x2="148.07" xlink:href="#lg5" y1="240.899" y2="306.953"/><linearGradient id="SVGID_15_" gradientUnits="userSpaceOnUse" x1="55.6" x2="120.609" xlink:href="#lg5" y1="419.724" y2="484.733"/><linearGradient id="SVGID_16_" gradientUnits="userSpaceOnUse" x1="80.675" x2="122.501" xlink:href="#lg6" y1="428.263" y2="419.758"/><linearGradient id="SVGID_17_" gradientUnits="userSpaceOnUse" x1="89.149" x2="89.149" xlink:href="#lg6" y1="468.49" y2="487.88"/><linearGradient id="lg7"><stop offset="0" stop-color="#bada00"/><stop offset=".2187" stop-color="#b6d600"/><stop offset=".4501" stop-color="#acc900"/><stop offset=".6873" stop-color="#9ab400"/><stop offset=".9271" stop-color="#829700"/><stop offset="1" stop-color="#798c00"/></linearGradient><linearGradient id="SVGID_18_" gradientUnits="userSpaceOnUse" x1="117.068" x2="182.076" xlink:href="#lg7" y1="419.724" y2="484.733"/><linearGradient id="lg8"><stop offset="0" stop-color="#43765a" stop-opacity="0"/><stop offset="1" stop-color="#43765a"/></linearGradient><linearGradient id="SVGID_19_" gradientUnits="userSpaceOnUse" x1="142.142" x2="183.968" xlink:href="#lg8" y1="428.263" y2="419.758"/><linearGradient id="SVGID_20_" gradientUnits="userSpaceOnUse" x1="150.617" x2="150.617" xlink:href="#lg6" y1="468.49" y2="487.88"/><linearGradient id="SVGID_21_" gradientUnits="userSpaceOnUse" x1="417.241" x2="460.444" xlink:href="#lg7" y1="422.124" y2="465.328"/><linearGradient id="SVGID_22_" gradientUnits="userSpaceOnUse" x1="433.905" x2="461.702" xlink:href="#lg8" y1="427.799" y2="422.147"/><linearGradient id="SVGID_23_" gradientUnits="userSpaceOnUse" x1="439.537" x2="439.537" xlink:href="#lg6" y1="454.533" y2="467.419"/><linearGradient id="lg9"><stop offset="0" stop-color="#edf5ff"/><stop offset="1" stop-color="#c7e9ff"/></linearGradient><linearGradient id="SVGID_24_" gradientUnits="userSpaceOnUse" x1="55.273" x2="113.873" xlink:href="#lg9" y1="82.898" y2="141.498"/><linearGradient id="SVGID_25_" gradientUnits="userSpaceOnUse" x1="143.789" x2="228.675" y1="80.819" y2="165.704"><stop offset="0" stop-color="#ffd945"/><stop offset=".3043" stop-color="#ffcd3e"/><stop offset=".8558" stop-color="#ffad2b"/><stop offset="1" stop-color="#ffa325"/></linearGradient><linearGradient id="SVGID_26_" gradientUnits="userSpaceOnUse" x1="436.743" x2="472.947" xlink:href="#lg9" y1="42.931" y2="79.135"/><linearGradient id="SVGID_27_" gradientUnits="userSpaceOnUse" x1="332.625" x2="419.077" xlink:href="#lg9" y1="93.704" y2="180.156"/><linearGradient id="SVGID_28_" gradientUnits="userSpaceOnUse" x1="392.671" x2="472.479" xlink:href="#lg3" y1="405.594" y2="405.594"/><linearGradient id="SVGID_29_" gradientUnits="userSpaceOnUse" x1="412.171" x2="379.478" xlink:href="#lg3" y1="426.57" y2="426.57"/><linearGradient id="SVGID_30_" gradientUnits="userSpaceOnUse" x1="457.171" x2="402.582" xlink:href="#lg3" y1="394.511" y2="394.511"/><linearGradient id="SVGID_31_" gradientUnits="userSpaceOnUse" x1="413.171" x2="413.171" xlink:href="#lg4" y1="415.237" y2="367.195"/><linearGradient id="SVGID_32_" gradientUnits="userSpaceOnUse" x1="351.96" x2="491.186" xlink:href="#lg7" y1="269.738" y2="366.751"/><linearGradient id="SVGID_33_" gradientUnits="userSpaceOnUse" x1="426.14" x2="426.14" xlink:href="#lg8" y1="358.987" y2="286.924"/><linearGradient id="SVGID_34_" gradientUnits="userSpaceOnUse" x1="362.996" x2="477.121" xlink:href="#lg7" y1="218.741" y2="298.264"/><linearGradient id="SVGID_35_" gradientUnits="userSpaceOnUse" x1="427.462" x2="427.462" xlink:href="#lg8" y1="279.487" y2="215.206"/><linearGradient id="SVGID_36_" gradientUnits="userSpaceOnUse" x1="371.844" x2="465.844" xlink:href="#lg7" y1="162.002" y2="227.502"/><linearGradient id="SVGID_37_" gradientUnits="userSpaceOnUse" x1="255" x2="255" xlink:href="#lg7" y1="449.061" y2="522.011"/><linearGradient id="SVGID_38_" gradientUnits="userSpaceOnUse" x1="309.558" x2="309.558" xlink:href="#lg8" y1="504.459" y2="454.194"/><linearGradient id="SVGID_39_" gradientUnits="userSpaceOnUse" x1="244.263" x2="283.929" xlink:href="#lg8" y1="446.063" y2="606.779"/><linearGradient id="SVGID_40_" gradientUnits="userSpaceOnUse" x1="126.76" x2="175.659" xlink:href="#lg3" y1="351.394" y2="397.416"/><linearGradient id="lg10"><stop offset="0" stop-color="#3a2f4d" stop-opacity="0"/><stop offset="1" stop-color="#3a2f4d"/></linearGradient><linearGradient id="SVGID_41_" gradientUnits="userSpaceOnUse" x1="197.459" x2="152.989" xlink:href="#lg10" y1="380.33" y2="335.86"/><linearGradient id="lg11"><stop offset="0" stop-color="#754c24"/><stop offset="1" stop-color="#3a2f4d"/></linearGradient><linearGradient id="SVGID_42_" gradientUnits="userSpaceOnUse" x1="140.925" x2="165.628" xlink:href="#lg11" y1="320.93" y2="359.356"/><linearGradient id="SVGID_43_" gradientUnits="userSpaceOnUse" x1="154.651" x2="154.651" xlink:href="#lg10" y1="355.577" y2="252.634"/><linearGradient id="SVGID_44_" gradientUnits="userSpaceOnUse" x1="150.862" x2="156.536" xlink:href="#lg3" y1="424.517" y2="447.212"/><linearGradient id="SVGID_45_" gradientUnits="userSpaceOnUse" x1="176.877" x2="135.062" xlink:href="#lg11" y1="419.286" y2="377.471"/><linearGradient id="SVGID_46_" gradientUnits="userSpaceOnUse" x1="169.916" x2="141.2" xlink:href="#lg1" y1="412.325" y2="383.609"/><linearGradient id="SVGID_47_" gradientUnits="userSpaceOnUse" x1="282.158" x2="290.361" xlink:href="#lg3" y1="280.405" y2="329.625"/><linearGradient id="SVGID_48_" gradientUnits="userSpaceOnUse" x1="272.626" x2="272.626" xlink:href="#lg3" y1="317.12" y2="299.235"/><linearGradient id="SVGID_49_" gradientUnits="userSpaceOnUse" x1="361.213" x2="361.213" xlink:href="#lg3" y1="309.913" y2="292.561"/><linearGradient id="SVGID_50_" gradientUnits="userSpaceOnUse" x1="282.158" x2="290.361" xlink:href="#lg3" y1="307.738" y2="356.958"/><linearGradient id="SVGID_51_" gradientTransform="matrix(-1 0 0 1 -2682 0)" gradientUnits="userSpaceOnUse" x1="-2980.375" x2="-2980.375" xlink:href="#lg3" y1="344.453" y2="326.568"/><linearGradient id="SVGID_52_" gradientTransform="matrix(-1 0 0 1 -2682 0)" gradientUnits="userSpaceOnUse" x1="-2891.789" x2="-2891.789" xlink:href="#lg3" y1="337.246" y2="319.894"/><linearGradient id="SVGID_53_" gradientUnits="userSpaceOnUse" x1="282.158" x2="290.361" xlink:href="#lg3" y1="335.072" y2="384.291"/><linearGradient id="SVGID_54_" gradientUnits="userSpaceOnUse" x1="272.626" x2="272.626" xlink:href="#lg3" y1="371.786" y2="353.901"/><linearGradient id="SVGID_55_" gradientUnits="userSpaceOnUse" x1="361.213" x2="361.213" xlink:href="#lg3" y1="364.579" y2="347.228"/><linearGradient id="SVGID_56_" gradientUnits="userSpaceOnUse" x1="282.158" x2="290.361" xlink:href="#lg3" y1="362.405" y2="411.624"/><linearGradient id="SVGID_57_" gradientTransform="matrix(-1 0 0 1 -2682 0)" gradientUnits="userSpaceOnUse" x1="-2980.375" x2="-2980.375" xlink:href="#lg3" y1="399.12" y2="381.234"/><linearGradient id="SVGID_58_" gradientTransform="matrix(-1 0 0 1 -2682 0)" gradientUnits="userSpaceOnUse" x1="-2891.789" x2="-2891.789" xlink:href="#lg3" y1="391.912" y2="374.561"/><linearGradient id="SVGID_59_" gradientUnits="userSpaceOnUse" x1="282.158" x2="290.361" xlink:href="#lg3" y1="389.738" y2="438.958"/><linearGradient id="SVGID_60_" gradientUnits="userSpaceOnUse" x1="272.626" x2="272.626" xlink:href="#lg3" y1="426.453" y2="408.568"/><linearGradient id="SVGID_61_" gradientUnits="userSpaceOnUse" x1="361.213" x2="361.213" xlink:href="#lg3" y1="419.245" y2="401.894"/><linearGradient id="SVGID_62_" gradientUnits="userSpaceOnUse" x1="282.158" x2="290.361" xlink:href="#lg3" y1="417.071" y2="466.291"/><linearGradient id="SVGID_63_" gradientTransform="matrix(-1 0 0 1 -2682 0)" gradientUnits="userSpaceOnUse" x1="-2980.375" x2="-2980.375" xlink:href="#lg3" y1="453.786" y2="435.901"/><linearGradient id="SVGID_64_" gradientTransform="matrix(-1 0 0 1 -2682 0)" gradientUnits="userSpaceOnUse" x1="-2891.789" x2="-2891.789" xlink:href="#lg3" y1="446.579" y2="429.227"/><linearGradient id="SVGID_65_" gradientUnits="userSpaceOnUse" x1="308.931" x2="218.679" xlink:href="#lg11" y1="309.556" y2="219.304"/><linearGradient id="SVGID_66_" gradientUnits="userSpaceOnUse" x1="255.702" x2="304.819" xlink:href="#lg11" y1="223.603" y2="307.958"/><linearGradient id="SVGID_67_" gradientUnits="userSpaceOnUse" x1="294.949" x2="222.835" xlink:href="#lg10" y1="301.104" y2="228.99"/><linearGradient id="lg12"><stop offset="0" stop-color="#dfdfdf"/><stop offset="1" stop-color="#9da6ac"/></linearGradient><linearGradient id="SVGID_68_" gradientUnits="userSpaceOnUse" x1="200.466" x2="225.92" xlink:href="#lg12" y1="168.141" y2="193.595"/><linearGradient id="lg13"><stop offset="0" stop-color="#9da6ac" stop-opacity="0"/><stop offset=".2144" stop-color="#86959f" stop-opacity=".214"/><stop offset=".5076" stop-color="#6e8492" stop-opacity=".508"/><stop offset=".7775" stop-color="#5f798a" stop-opacity=".778"/><stop offset="1" stop-color="#5a7587"/></linearGradient><linearGradient id="SVGID_69_" gradientUnits="userSpaceOnUse" x1="209.434" x2="175.661" xlink:href="#lg13" y1="151.309" y2="160.168"/><linearGradient id="SVGID_70_" gradientUnits="userSpaceOnUse" x1="195.83" x2="219.361" xlink:href="#lg13" y1="184.368" y2="210.113"/><linearGradient id="SVGID_71_" gradientUnits="userSpaceOnUse" x1="204.778" x2="191.352" xlink:href="#lg13" y1="160.514" y2="207.021"/><linearGradient id="SVGID_72_" gradientUnits="userSpaceOnUse" x1="215.301" x2="225.451" xlink:href="#lg13" y1="170.143" y2="179.74"/><linearGradient id="SVGID_73_" gradientUnits="userSpaceOnUse" x1="224.884" x2="234.389" xlink:href="#lg12" y1="154.079" y2="163.584"/><linearGradient id="SVGID_74_" gradientUnits="userSpaceOnUse" x1="212.155" x2="221.66" xlink:href="#lg12" y1="120.865" y2="130.37"/><linearGradient id="SVGID_75_" gradientUnits="userSpaceOnUse" x1="224.057" x2="236.352" xlink:href="#lg12" y1="133.292" y2="145.587"/><linearGradient id="SVGID_76_" gradientUnits="userSpaceOnUse" x1="192.118" x2="208.561" xlink:href="#lg11" y1="198.468" y2="226.518"/><linearGradient id="SVGID_77_" gradientUnits="userSpaceOnUse" x1="206.485" x2="206.485" xlink:href="#lg10" y1="229.224" y2="194.631"/><linearGradient id="SVGID_78_" gradientUnits="userSpaceOnUse" x1="199.598" x2="209.452" xlink:href="#lg3" y1="173.883" y2="190.693"/><linearGradient id="SVGID_79_" gradientUnits="userSpaceOnUse" x1="285.501" x2="285.501" xlink:href="#lg3" y1="169.873" y2="329.538"/><linearGradient id="SVGID_80_" gradientUnits="userSpaceOnUse" x1="306.83" x2="256.645" xlink:href="#lg4" y1="200.408" y2="165.705"/><linearGradient id="SVGID_81_" gradientUnits="userSpaceOnUse" x1="267.138" x2="309.892" xlink:href="#lg11" y1="369.837" y2="443.262"/><linearGradient id="SVGID_82_" gradientUnits="userSpaceOnUse" x1="253.162" x2="312.126" xlink:href="#lg3" y1="373.19" y2="432.154"/><linearGradient id="SVGID_83_" gradientUnits="userSpaceOnUse" x1="321.825" x2="290.092" xlink:href="#lg4" y1="428.14" y2="396.407"/><linearGradient id="lg14"><stop offset="0" stop-color="#ffebb4"/><stop offset="1" stop-color="#ffce47"/></linearGradient><linearGradient id="SVGID_84_" gradientUnits="userSpaceOnUse" x1="293.802" x2="301.062" xlink:href="#lg14" y1="400.116" y2="407.376"/><linearGradient id="SVGID_85_" gradientTransform="matrix(-1 0 0 -1 511.734 -5545.734)" gradientUnits="userSpaceOnUse" x1="212.318" x2="216.383" xlink:href="#lg14" y1="-5951.464" y2="-5947.399"/><linearGradient id="SVGID_86_" gradientUnits="userSpaceOnUse" x1="263.005" x2="263.005" xlink:href="#lg3" y1="443.496" y2="466.876"/><linearGradient id="SVGID_87_" gradientUnits="userSpaceOnUse" x1="96.218" x2="85.517" xlink:href="#lg8" y1="501.537" y2="466.139"/><linearGradient id="SVGID_88_" gradientUnits="userSpaceOnUse" x1="66.85" x2="82.43" xlink:href="#lg3" y1="464.882" y2="480.462"/><linearGradient id="SVGID_89_" gradientUnits="userSpaceOnUse" x1="83.317" x2="76.567" xlink:href="#lg4" y1="463.647" y2="472.044"/><linearGradient id="SVGID_90_" gradientUnits="userSpaceOnUse" x1="83.94" x2="91.73" xlink:href="#lg3" y1="472.991" y2="480.781"/><g><path d="m485.638 510h-461.276c-13.455 0-24.362-10.907-24.362-24.362v-461.276c0-13.455 10.907-24.362 24.362-24.362h461.275c13.456 0 24.363 10.907 24.363 24.362v461.275c0 13.456-10.907 24.363-24.362 24.363z" fill="url(#SVGID_1_)"/><g><path d="m0 254.689v204.3h29.22v-50.4c4.71-.06 8.96-2.01 12.02-5.14 2.92-2.98 7.36-3.96 11.2-2.35 2.56 1.07 5.44 1.54 8.46 1.22 7.95-.84 14.38-7.31 15.18-15.27.44-4.37-.78-8.45-3.09-11.69l-2.74-3.95-10.74-16.39c2.95-2.3 4.99-5.75 5.38-9.63.36-3.59-.64-6.93-2.54-9.59l-2.24-3.24-13.5-20.59c4.93-.95 8.8-5.11 9.3-10.17.3-2.95-.52-5.7-2.08-7.89l-1.85-2.67-31.77-48.46c-2.93-4.47-9.47-4.47-12.4 0z" fill="url(#SVGID_2_)"/><path d="m25.203 388.117c.324-.427.651-.852.945-1.301l10.172-15.517c-2.491-1.941-4.206-4.845-4.536-8.124-.317-3.152.61-6.078 2.341-8.361.266-.35.534-.699.775-1.066l12.296-18.756c-4.156-.802-7.417-4.309-7.845-8.573-.261-2.596.502-5.006 1.928-6.887.219-.288.44-.576.638-.878l27.547-42.018c2.469-3.766 7.989-3.766 10.458 0l26.796 40.874 1.557 2.251c1.317 1.846 2.01 4.166 1.76 6.659-.428 4.264-3.689 7.771-7.845 8.573l11.385 17.366 1.89 2.734c1.599 2.241 2.441 5.058 2.137 8.084-.329 3.279-2.045 6.182-4.536 8.124l9.061 13.821 2.305 3.335c1.951 2.733 2.978 6.17 2.607 9.862-.675 6.715-6.092 12.166-12.803 12.877-2.545.269-4.971-.125-7.13-1.029-3.244-1.359-6.987-.532-9.446 1.984-2.581 2.64-6.166 4.286-10.141 4.332v42.506h-25.652v-42.509c-3.975-.046-7.56-1.692-10.141-4.332-2.459-2.515-6.202-3.343-9.446-1.984-2.159.905-4.585 1.299-7.13 1.029-6.711-.71-12.128-6.162-12.803-12.877-.386-3.845.744-7.414 2.856-10.199z" fill="url(#SVGID_3_)"/></g><g><path d="m510 285.762v173.227h-24.776v-42.734c-3.994-.051-7.597-1.704-10.192-4.358-2.476-2.527-6.241-3.358-9.497-1.993-2.171.907-4.613 1.306-7.173 1.034-6.741-.712-12.193-6.198-12.871-12.947-.373-3.705.661-7.165 2.62-9.912l2.323-3.349 9.106-13.897c-2.501-1.95-4.231-4.875-4.562-8.165-.305-3.044.543-5.876 2.154-8.131l1.899-2.747 11.447-17.458c-4.18-.805-7.462-4.333-7.885-8.623-.254-2.501.441-4.833 1.764-6.69l1.569-2.264 26.938-41.089c2.484-3.79 8.03-3.79 10.514 0z" fill="url(#SVGID_4_)"/><path d="m488.631 398.896c-.275-.362-.552-.723-.801-1.103l-8.625-13.157c2.112-1.646 3.567-4.108 3.846-6.888.268-2.673-.517-5.154-1.985-7.089-.225-.297-.453-.592-.657-.904l-10.426-15.904c3.524-.68 6.289-3.654 6.652-7.269.221-2.202-.426-4.245-1.635-5.839-.186-.245-.373-.488-.541-.745l-23.357-35.628c-2.093-3.193-6.774-3.193-8.867 0l-22.721 34.657-1.32 1.909c-1.117 1.565-1.705 3.532-1.492 5.646.363 3.615 3.128 6.589 6.652 7.269l-9.653 14.725-1.602 2.318c-1.356 1.9-2.07 4.289-1.812 6.854.279 2.78 1.734 5.242 3.846 6.888l-7.683 11.719-1.955 2.827c-1.654 2.318-2.525 5.232-2.21 8.362.572 5.693 5.165 10.316 10.856 10.918 2.158.228 4.215-.106 6.045-.873 2.751-1.152 5.925-.451 8.009 1.682 2.188 2.239 5.229 3.634 8.599 3.673v36.041h21.75v-36.041c3.37-.039 6.41-1.435 8.599-3.673 2.085-2.133 5.259-2.834 8.009-1.682 1.831.767 3.887 1.101 6.045.873 5.69-.602 10.284-5.225 10.855-10.918.327-3.26-.631-6.286-2.421-8.648z" fill="url(#SVGID_5_)"/></g><g><g><path d="m125.211 391.623h29.89v67.364h-29.89z" fill="url(#SVGID_6_)"/><path d="m138.263 458.987h-9.463v-36.168c0-2.613 2.118-4.731 4.731-4.731 2.613 0 4.731 2.118 4.731 4.731v36.168z" fill="url(#SVGID_7_)"/><path d="m142.364 414.513c2.265 0 4.1 1.836 4.1 4.1v22.29c0 2.265 1.836 4.1 4.1 4.1h.436c2.265 0 4.1-1.836 4.1-4.1v-49.28h-16.838v18.789c.001 2.265 1.837 4.101 4.102 4.101z" fill="url(#SVGID_8_)"/></g><path d="m155.1 391.626v47.533l-29.693-29.693-.196 2.567v-20.407z" fill="url(#SVGID_9_)"/><g><path d="m196.723 374.889-47.543-72.52c-4.261-6.499-13.788-6.499-18.049 0l-46.247 70.544-2.686 3.886c-2.273 3.185-3.47 7.19-3.038 11.492.786 7.824 7.098 14.177 14.919 15.005 2.965.314 5.792-.145 8.308-1.199 3.78-1.584 8.142-.619 11.007 2.312 3.05 3.121 7.302 5.058 12.013 5.058 3.431 0 6.62-1.027 9.28-2.789 3.304-2.19 7.633-2.19 10.937 0 2.66 1.763 5.85 2.789 9.28 2.789 4.711 0 8.963-1.938 12.013-5.058 2.865-2.931 7.227-3.895 11.007-2.312 2.516 1.054 5.342 1.513 8.308 1.199 7.82-.828 14.132-7.18 14.919-15.005.45-4.481-.867-8.64-3.327-11.886-.377-.498-.758-.993-1.101-1.516z" fill="url(#SVGID_10_)"/><path d="m201.151 388.289c-.789 7.829-7.097 14.181-14.919 15.008-2.965.315-5.791-.145-8.308-1.199-3.779-1.583-8.144-.618-11.008 2.309-3.047 3.123-7.299 5.059-12.011 5.059-3.432 0-6.617-1.028-9.28-2.788-.265-.177-.543-.341-.82-.492l-49.369-49.369 35.693-54.448c4.264-6.498 13.79-6.498 18.055 0l47.54 72.521c.341.524.725 1.016 1.104 1.514 2.459 3.248 3.771 7.406 3.323 11.885z" fill="url(#SVGID_11_)"/><path d="m186.525 336.356-38.972-59.445c-3.493-5.328-11.302-5.328-14.795 0l-37.91 57.826-2.202 3.185c-1.863 2.611-2.844 5.894-2.49 9.42.644 6.414 5.819 11.621 12.229 12.299 2.431.257 4.748-.119 6.81-.983 3.099-1.298 6.674-.508 9.023 1.895 2.5 2.558 5.986 4.146 9.848 4.146 2.812 0 5.427-.842 7.607-2.286 2.709-1.795 6.257-1.795 8.965 0 2.18 1.445 4.795 2.286 7.607 2.286 3.862 0 7.347-1.588 9.848-4.146 2.349-2.403 5.924-3.193 9.023-1.895 2.062.864 4.379 1.24 6.81.983 6.41-.678 11.585-5.886 12.229-12.299.369-3.673-.71-7.082-2.727-9.743-.31-.408-.622-.814-.903-1.243z" fill="url(#SVGID_12_)"/><path d="m190.156 347.341c-.643 6.416-5.823 11.62-12.232 12.301-2.429.259-4.744-.12-6.807-.984-3.097-1.299-6.674-.505-9.027 1.893-1.337 1.369-2.952 2.46-4.757 3.173l-49.218-49.224 24.641-37.585c3.495-5.331 11.305-5.331 14.799 0l38.967 59.444c.284.429.593.833.902 1.243 2.019 2.655 3.098 6.067 2.732 9.739z" fill="url(#SVGID_13_)"/><path d="m178.348 295.463-32.099-48.963c-2.877-4.388-9.309-4.388-12.186 0l-31.225 47.628-1.814 2.624c-1.535 2.15-2.343 4.854-2.051 7.759.531 5.283 4.793 9.572 10.072 10.131 2.002.212 3.911-.098 5.609-.81 2.552-1.069 5.497-.418 7.432 1.561 2.059 2.107 4.93 3.415 8.111 3.415 2.316 0 4.47-.693 6.266-1.883 2.231-1.478 5.153-1.478 7.384 0 1.796 1.19 3.95 1.883 6.266 1.883 3.181 0 6.051-1.308 8.111-3.415 1.934-1.979 4.879-2.63 7.432-1.561 1.699.712 3.607 1.022 5.609.81 5.28-.559 9.542-4.848 10.072-10.131.304-3.025-.585-5.833-2.246-8.025-.255-.336-.512-.671-.743-1.023z" fill="url(#SVGID_14_)"/></g></g><g><g><g><path d="m116.9 418.652c-3.592 0-7.05.574-10.289 1.631-3.465-11.304-13.983-19.524-26.422-19.524-15.261 0-27.632 12.371-27.632 27.632 0 2.205.26 4.349.748 6.405-13.024.919-23.305 11.773-23.305 25.031 0 13.859 11.235 25.094 25.094 25.094h61.806c18.3 0 33.135-14.835 33.135-33.135 0-18.299-14.835-33.134-33.135-33.134z" fill="url(#SVGID_15_)"/><path d="m83.765 451.788c0 1.344.081 2.669.237 3.971-1.246.176-2.521.265-3.815.265-15.261 0-27.63-12.372-27.63-27.633 0-15.258 12.369-27.63 27.63-27.63 12.439 0 22.96 8.22 26.423 19.524-13.261 4.324-22.845 16.794-22.845 31.503z" fill="url(#SVGID_16_)"/><path d="m30.193 462.95c1.538 12.385 12.1 21.971 24.901 21.971h61.806c14.382 0 26.622-9.164 31.205-21.971z" fill="url(#SVGID_17_)"/></g></g></g><g><g><g><path d="m178.368 418.652c-3.592 0-7.05.574-10.289 1.631-3.465-11.304-13.983-19.524-26.422-19.524-15.261 0-27.632 12.371-27.632 27.632 0 2.205.26 4.349.748 6.405-13.024.918-23.304 11.773-23.304 25.03 0 13.859 11.235 25.094 25.094 25.094h61.806c18.3 0 33.135-14.835 33.135-33.135-.002-18.298-14.837-33.133-33.136-33.133z" fill="url(#SVGID_18_)"/><path d="m145.232 451.788c0 1.344.081 2.669.237 3.971-1.246.176-2.521.265-3.815.265-15.261 0-27.63-12.372-27.63-27.633 0-15.258 12.369-27.63 27.63-27.63 12.439 0 22.96 8.22 26.423 19.524-13.261 4.324-22.845 16.794-22.845 31.503z" fill="url(#SVGID_19_)"/><path d="m91.661 462.95c1.538 12.385 12.1 21.971 24.901 21.971h61.806c14.382 0 26.622-9.164 31.205-21.971z" fill="url(#SVGID_20_)"/></g></g></g><g><g><g><path d="m457.98 421.412c-2.387 0-4.685.381-6.838 1.084-2.303-7.512-9.293-12.975-17.56-12.975-10.142 0-18.364 8.222-18.364 18.364 0 1.465.173 2.89.497 4.257-8.655.61-15.488 7.824-15.488 16.634 0 9.211 7.467 16.677 16.677 16.677h41.075c12.162 0 22.02-9.859 22.02-22.02s-9.858-22.021-22.019-22.021z" fill="url(#SVGID_21_)"/><path d="m435.959 443.433c0 .893.054 1.773.158 2.639-.828.117-1.675.176-2.535.176-10.142 0-18.363-8.222-18.363-18.364 0-10.14 8.22-18.362 18.363-18.362 8.267 0 15.259 5.463 17.56 12.976-8.814 2.873-15.183 11.16-15.183 20.935z" fill="url(#SVGID_22_)"/><path d="m400.356 450.851c1.022 8.231 8.041 14.601 16.549 14.601h41.075c9.558 0 17.693-6.09 20.738-14.601z" fill="url(#SVGID_23_)"/></g></g></g><path d="m100.806 88.601h-7.964c0-9.968-8.081-18.049-18.049-18.049h-35.6c-9.968 0-18.049 8.081-18.049 18.049s8.081 18.049 18.049 18.049h7.963c0 9.968 8.081 18.049 18.049 18.049h35.6c9.968 0 18.049-8.081 18.049-18.049.001-9.968-8.08-18.049-18.048-18.049z" fill="url(#SVGID_24_)"/><circle cx="165.123" cy="102.152" fill="url(#SVGID_25_)" r="66.943"/><g><path d="m462.43 68.851h-33.178c-9.29 0-16.821-7.531-16.821-16.821 0-9.29 7.531-16.821 16.821-16.821h33.178c9.29 0 16.821 7.531 16.821 16.821 0 9.29-7.531 16.821-16.821 16.821z" fill="url(#SVGID_26_)"/><path d="m417.606 84.312h-11.749c0-14.706-11.922-26.627-26.627-26.627h-52.52c-14.706 0-26.627 11.922-26.627 26.627 0 5.506 1.672 10.622 4.535 14.868h-13.335c-13.402 0-24.266 10.864-24.266 24.266 0 13.402 10.864 24.266 24.266 24.266h47.863c8.41 0 15.819-4.28 20.173-10.778 1.858.411 3.787.634 5.768.634h52.521c14.706 0 26.627-11.922 26.627-26.627-.002-14.708-11.923-26.629-26.629-26.629z" fill="url(#SVGID_27_)"/></g><g><g><path d="m389.481 352.202h47.382v106.785h-47.382z" fill="url(#SVGID_28_)"/><path d="m410.171 458.987h-15v-57.333c0-4.142 3.358-7.5 7.5-7.5 4.142 0 7.5 3.358 7.5 7.5z" fill="url(#SVGID_29_)"/><path d="m416.671 388.487c3.59 0 6.5 2.91 6.5 6.5v35.333c0 3.59 2.91 6.5 6.5 6.5h.691c3.59 0 6.5-2.91 6.5-6.5v-78.118h-26.691v29.785c0 3.589 2.911 6.5 6.5 6.5z" fill="url(#SVGID_30_)"/></g><path d="m436.861 352.207v75.35l-47.07-47.07-.31 4.07v-32.35z" fill="url(#SVGID_31_)"/><g><path d="m502.841 325.676-75.365-114.957c-6.754-10.303-21.856-10.303-28.611 0l-73.311 111.825-4.259 6.16c-3.604 5.049-5.5 11.398-4.815 18.217 1.246 12.403 11.252 22.473 23.649 23.785 4.701.498 9.181-.23 13.17-1.901 5.993-2.511 12.907-.982 17.449 3.664 4.835 4.947 11.576 8.018 19.043 8.018 5.438 0 10.494-1.628 14.711-4.422 5.238-3.471 12.099-3.471 17.338 0 4.217 2.794 9.273 4.422 14.711 4.422 7.468 0 14.208-3.072 19.043-8.018 4.542-4.646 11.456-6.175 17.448-3.664 3.988 1.671 8.469 2.399 13.17 1.901 12.396-1.312 22.403-11.382 23.649-23.785.714-7.103-1.374-13.696-5.274-18.841-.598-.79-1.202-1.576-1.746-2.404z" fill="url(#SVGID_32_)"/><path d="m509.861 346.917c-1.25 12.41-11.25 22.48-23.65 23.79-4.7.5-9.18-.23-13.17-1.9-5.99-2.51-12.91-.98-17.45 3.66-4.83 4.95-11.57 8.02-19.04 8.02-5.44 0-10.49-1.63-14.71-4.42-.42-.28-.86-.54-1.3-.78l-78.26-78.26 56.58-86.31c6.76-10.3 21.86-10.3 28.62 0l75.36 114.96c.54.83 1.15 1.61 1.75 2.4 3.9 5.15 5.98 11.74 5.27 18.84z" fill="url(#SVGID_33_)"/><path d="m486.675 264.594-61.777-94.232c-5.537-8.445-17.916-8.445-23.453 0l-60.094 91.665-3.491 5.049c-2.954 4.139-4.508 9.343-3.947 14.933 1.021 10.167 9.224 18.422 19.385 19.497 3.853.408 7.526-.189 10.795-1.559 4.912-2.058 10.58-.805 14.303 3.004 3.964 4.055 9.489 6.573 15.61 6.573 4.458 0 8.602-1.334 12.059-3.624 4.294-2.845 9.918-2.845 14.212 0 3.457 2.29 7.601 3.624 12.059 3.624 6.121 0 11.647-2.518 15.61-6.573 3.723-3.809 9.391-5.062 14.303-3.004 3.269 1.37 6.942 1.966 10.795 1.559 10.161-1.075 18.364-9.33 19.385-19.497.585-5.823-1.126-11.227-4.323-15.444-.49-.648-.986-1.292-1.431-1.971z" fill="url(#SVGID_34_)"/><path d="m492.431 282.007c-1.02 10.17-9.23 18.42-19.39 19.5-3.85.41-7.52-.19-10.79-1.56-4.91-2.06-10.58-.8-14.31 3-2.12 2.17-4.68 3.9-7.54 5.03l-78.02-78.03 39.06-59.58c5.54-8.45 17.92-8.45 23.46 0l61.77 94.23c.45.68.94 1.32 1.43 1.97 3.2 4.21 4.91 9.62 4.33 15.44z" fill="url(#SVGID_35_)"/><path d="m473.713 199.77-50.883-77.615c-4.56-6.956-14.757-6.956-19.317 0l-49.497 75.5-2.875 4.159c-2.433 3.409-3.713 7.695-3.251 12.299.841 8.374 7.597 15.173 15.967 16.059 3.174.336 6.199-.156 8.892-1.284 4.046-1.695 8.714-.663 11.781 2.474 3.265 3.34 7.816 5.414 12.857 5.414 3.672 0 7.085-1.099 9.932-2.985 3.537-2.343 8.169-2.343 11.706 0 2.847 1.886 6.261 2.985 9.932 2.985 5.042 0 9.593-2.074 12.857-5.414 3.066-3.137 7.735-4.169 11.781-2.474 2.693 1.128 5.718 1.62 8.892 1.284 8.37-.886 15.125-7.685 15.967-16.059.482-4.796-.928-9.247-3.561-12.721-.405-.533-.813-1.063-1.18-1.622z" fill="url(#SVGID_36_)"/></g></g><path d="m510 485.638v-37.658h-510v37.658c0 13.455 10.907 24.362 24.362 24.362h461.275c13.456 0 24.363-10.907 24.363-24.362z" fill="url(#SVGID_37_)"/><path d="m510 485.638v-37.658h-400.884v10.172l51.848 51.848h324.674c13.455 0 24.362-10.907 24.362-24.362z" fill="url(#SVGID_38_)"/><path d="m509.716 489.365h-126.775c-1.885-5.699-7.053-9.903-13.273-10.341.294-1.239.451-2.532.451-3.861 0-9.199-7.458-16.657-16.657-16.657-7.499 0-13.839 4.955-15.928 11.769-1.953-.637-4.037-.983-6.203-.983-7.794 0-14.528 4.474-17.82 10.985-1.252-.579-2.641-.912-4.111-.912-4.416 0-8.149 2.918-9.379 6.93-1.15-.375-2.377-.579-3.652-.579-3.347 0-6.36 1.405-8.502 3.649h-287.583c1.794 11.686 11.891 20.635 24.078 20.635h461.275c12.188 0 22.285-8.949 24.079-20.635z" fill="url(#SVGID_39_)"/><g><g><g><path d="m129.282 450.794h53.979v-143.25l-53.979 53.98z" fill="url(#SVGID_40_)"/><path d="m129.282 370.74 53.979 53.979v-117.175l-53.979 53.98z" fill="url(#SVGID_41_)"/><path d="m183.261 288.129-74.616 74.616c-2.865 2.865-.836 7.765 3.216 7.765h26.237c6.57 0 12.871-2.61 17.517-7.256l27.645-27.645v-47.48z" fill="url(#SVGID_42_)"/><path d="m183.261 313.288v22.321l-27.646 27.646c-4.645 4.645-10.944 7.253-17.518 7.253h-12.056z" fill="url(#SVGID_43_)"/></g><path d="m183.261 450.794h-54.905c-2.558 0-4.632-2.074-4.632-4.632v-18.184c0-2.558 2.074-4.632 4.632-4.632h54.905z" fill="url(#SVGID_44_)"/><g><path d="m159.068 415.031h-8.826c-5.571 0-10.087-4.516-10.087-10.087v-15.76c0-5.571 4.516-10.087 10.087-10.087h8.826c5.571 0 10.087 4.516 10.087 10.087v15.76c-.001 5.571-4.516 10.087-10.087 10.087z" fill="url(#SVGID_45_)"/><path d="m157.686 409.403h-6.061c-3.826 0-6.927-3.101-6.927-6.927v-10.823c0-3.826 3.101-6.927 6.927-6.927h6.061c3.826 0 6.927 3.101 6.927 6.927v10.823c0 3.826-3.102 6.927-6.927 6.927z" fill="url(#SVGID_46_)"/></g></g><g><g><path d="m388.328 314.128h-205.655c-4.424 0-8.01-3.586-8.01-8.01v-11.314c0-4.424 3.586-8.01 8.01-8.01h205.655c4.424 0 8.01 3.586 8.01 8.01v11.314c0 4.424-3.586 8.01-8.01 8.01z" fill="url(#SVGID_47_)"/><path d="m355.866 308.47h-124.045c-3.306 0-6.477-1.219-8.815-3.388-2.338-2.169-5.509-3.388-8.815-3.388h-39.526v4.718c0 4.261 3.723 7.715 8.316 7.715h187.609c-3.906-3.622-9.202-5.657-14.724-5.657z" fill="url(#SVGID_48_)"/><path d="m331.376 303.33h64.962v-8.821c0-.336-.026-.667-.071-.992h-64.891c-2.921 0-5.288 2.197-5.288 4.906-.001 2.711 2.367 4.907 5.288 4.907z" fill="url(#SVGID_49_)"/></g><g><path d="m388.328 341.461h-205.655c-4.424 0-8.01-3.586-8.01-8.01v-11.314c0-4.424 3.586-8.01 8.01-8.01h205.655c4.424 0 8.01 3.586 8.01 8.01v11.314c0 4.424-3.586 8.01-8.01 8.01z" fill="url(#SVGID_50_)"/><path d="m215.135 335.803h124.046c3.306 0 6.477-1.219 8.815-3.388 2.338-2.169 5.509-3.388 8.815-3.388h39.526v4.718c0 4.261-3.723 7.715-8.316 7.715h-187.609c3.905-3.621 9.201-5.657 14.723-5.657z" fill="url(#SVGID_51_)"/><path d="m239.626 330.664h-64.962v-8.821c0-.336.026-.667.071-.992h64.891c2.921 0 5.288 2.197 5.288 4.906 0 2.71-2.368 4.907-5.288 4.907z" fill="url(#SVGID_52_)"/></g><g><path d="m388.328 368.794h-205.655c-4.424 0-8.01-3.586-8.01-8.01v-11.314c0-4.424 3.586-8.01 8.01-8.01h205.655c4.424 0 8.01 3.586 8.01 8.01v11.314c0 4.424-3.586 8.01-8.01 8.01z" fill="url(#SVGID_53_)"/><path d="m355.866 363.137h-124.045c-3.306 0-6.477-1.219-8.815-3.388-2.338-2.169-5.509-3.388-8.815-3.388h-39.526v4.718c0 4.261 3.723 7.715 8.316 7.715h187.609c-3.906-3.622-9.202-5.657-14.724-5.657z" fill="url(#SVGID_54_)"/><path d="m331.376 357.997h64.962v-8.821c0-.336-.026-.667-.071-.992h-64.891c-2.921 0-5.288 2.197-5.288 4.906-.001 2.71 2.367 4.907 5.288 4.907z" fill="url(#SVGID_55_)"/></g><g><path d="m388.328 396.128h-205.655c-4.424 0-8.01-3.586-8.01-8.01v-11.314c0-4.424 3.586-8.01 8.01-8.01h205.655c4.424 0 8.01 3.586 8.01 8.01v11.314c0 4.423-3.586 8.01-8.01 8.01z" fill="url(#SVGID_56_)"/><path d="m215.135 390.47h124.046c3.306 0 6.477-1.219 8.815-3.388 2.338-2.169 5.509-3.388 8.815-3.388h39.526v4.718c0 4.261-3.723 7.715-8.316 7.715h-187.609c3.905-3.622 9.201-5.657 14.723-5.657z" fill="url(#SVGID_57_)"/><path d="m239.626 385.33h-64.962v-8.821c0-.336.026-.667.071-.992h64.891c2.921 0 5.288 2.197 5.288 4.906 0 2.71-2.368 4.907-5.288 4.907z" fill="url(#SVGID_58_)"/></g><g><path d="m388.328 423.461h-205.655c-4.424 0-8.01-3.586-8.01-8.01v-11.314c0-4.424 3.586-8.01 8.01-8.01h205.655c4.424 0 8.01 3.586 8.01 8.01v11.314c0 4.424-3.586 8.01-8.01 8.01z" fill="url(#SVGID_59_)"/><path d="m355.866 417.803h-124.045c-3.306 0-6.477-1.219-8.815-3.388-2.338-2.169-5.509-3.388-8.815-3.388h-39.526v4.718c0 4.261 3.723 7.715 8.316 7.715h187.609c-3.906-3.622-9.202-5.657-14.724-5.657z" fill="url(#SVGID_60_)"/><path d="m331.376 412.663h64.962v-8.821c0-.336-.026-.667-.071-.992h-64.891c-2.921 0-5.288 2.197-5.288 4.906-.001 2.711 2.367 4.907 5.288 4.907z" fill="url(#SVGID_61_)"/></g><g><path d="m388.328 450.794h-205.655c-4.424 0-8.01-3.586-8.01-8.01v-11.314c0-4.424 3.586-8.01 8.01-8.01h205.655c4.424 0 8.01 3.586 8.01 8.01v11.314c0 4.424-3.586 8.01-8.01 8.01z" fill="url(#SVGID_62_)"/><path d="m215.135 445.136h124.046c3.306 0 6.477-1.219 8.815-3.388 2.338-2.169 5.509-3.388 8.815-3.388h39.526v4.718c0 4.261-3.723 7.715-8.316 7.715h-187.609c3.905-3.622 9.201-5.657 14.723-5.657z" fill="url(#SVGID_63_)"/><path d="m239.626 439.996h-64.962v-8.821c0-.336.026-.667.071-.992h64.891c2.921 0 5.288 2.197 5.288 4.906 0 2.711-2.368 4.907-5.288 4.907z" fill="url(#SVGID_64_)"/></g></g><path d="m285.501 172.54-112.918 114.255h225.835z" fill="url(#SVGID_65_)"/><path d="m285.501 172.54-102.24 102.24h204.479z" fill="url(#SVGID_66_)"/><path d="m175.2 291.941 158.735 158.736h54.087v-167.086l-102.514-102.514z" fill="url(#SVGID_67_)"/><g><g><path d="m224.991 173.453c.261-.871.405-1.793.405-2.749 0-5.238-4.208-9.488-9.428-9.567-.195-.532-.425-1.047-.683-1.545 2.702-1.73 4.497-4.75 4.497-8.196 0-5.376-4.358-9.734-9.734-9.734s-9.734 4.358-9.734 9.734c0 .396.031.783.076 1.167-6.099 1.314-10.671 6.736-10.671 13.228 0 2.598.734 5.024 2.003 7.086-4.961 2.007-8.462 6.868-8.462 12.548 0 7.475 6.06 13.534 13.534 13.534 4.497 0 8.48-2.195 10.941-5.571 2.461 3.375 6.444 5.571 10.941 5.571 7.475 0 13.535-6.06 13.535-13.534.001-5.195-2.926-9.703-7.22-11.972z" fill="url(#SVGID_68_)"/><path d="m210.049 141.662c-5.376 0-9.734 4.358-9.734 9.734 0 .396.031.783.076 1.167.923-.199 1.881-.306 2.864-.306 5.24 0 9.781 2.98 12.03 7.336 2.702-1.73 4.497-4.75 4.497-8.196.001-5.377-4.357-9.735-9.733-9.735z" fill="url(#SVGID_69_)"/><circle cx="196.796" cy="185.424" fill="url(#SVGID_70_)" r="13.534"/><path d="m203.255 152.256c-7.475 0-13.534 6.06-13.534 13.534 0 2.598.734 5.024 2.003 7.086 1.567-.634 3.278-.986 5.072-.986 4.877 0 9.15 2.58 11.532 6.449 4.961-2.007 8.462-6.868 8.462-12.548 0-7.476-6.06-13.535-13.535-13.535z" fill="url(#SVGID_71_)"/><path d="m218.678 171.89c2.281 0 4.428.567 6.313 1.563.261-.871.405-1.793.405-2.749 0-5.288-4.286-9.574-9.574-9.574s-9.574 4.286-9.574 9.574c0 2.263.789 4.339 2.102 5.977 2.483-2.93 6.187-4.791 10.328-4.791z" fill="url(#SVGID_72_)"/></g><circle cx="229.007" cy="158.202" fill="url(#SVGID_73_)" r="5.946"/><circle cx="216.278" cy="124.988" fill="url(#SVGID_74_)" r="5.946"/><circle cx="229.39" cy="138.626" fill="url(#SVGID_75_)" r="7.691"/></g><g><path d="m198.757 255.929h-15.423v-65.904h46.302v35.024c0 17.055-13.825 30.88-30.879 30.88z" fill="url(#SVGID_76_)"/><path d="m183.334 195.413 46.302 42.288v-47.676h-46.302z" fill="url(#SVGID_77_)"/><path d="m228.727 195.517h-44.483c-3.491 0-6.321-2.83-6.321-6.321v-7.128c0-3.491 2.83-6.321 6.321-6.321h44.483c3.491 0 6.321 2.83 6.321 6.321v7.128c0 3.491-2.83 6.321-6.321 6.321z" fill="url(#SVGID_78_)"/></g><path d="m273.853 161.904-110.338 110.338c-2.858 2.858-2.858 7.491 0 10.349l7.244 7.244c2.858 2.858 7.491 2.858 10.349 0l99.378-99.378c2.769-2.769 7.258-2.769 10.027 0l99.378 99.378c2.858 2.858 7.491 2.858 10.349 0l7.244-7.244c2.858-2.858 2.858-7.491 0-10.349l-110.336-110.338c-6.433-6.432-16.862-6.432-23.295 0z" fill="url(#SVGID_79_)"/><path d="m297.148 161.904c-3.216-3.216-7.432-4.825-11.647-4.825v31.302c1.815 0 3.629.692 5.014 2.077l99.378 99.378c2.858 2.858 7.491 2.858 10.349 0l7.244-7.244c2.858-2.858 2.858-7.491 0-10.349z" fill="url(#SVGID_80_)"/><path d="m319.536 450.794h-68.071v-96.774c0-4.226 3.426-7.653 7.653-7.653h52.766c4.226 0 7.653 3.426 7.653 7.653v96.774z" fill="url(#SVGID_81_)"/><path d="m309.926 450.794h-48.851v-87.773c0-3.678 2.982-6.66 6.66-6.66h35.531c3.678 0 6.66 2.982 6.66 6.66z" fill="url(#SVGID_82_)"/><g><path d="m319.652 413.364-15.619-15.619-12.602 12.602 28.059 28.06z" fill="url(#SVGID_83_)"/><g><circle cx="297.401" cy="403.715" fill="url(#SVGID_84_)" r="8.957"/><circle cx="297.401" cy="403.715" fill="url(#SVGID_85_)" r="5.016"/></g></g><path d="m410.697 461.376h-295.385c-4.423 0-8.008-3.585-8.008-8.008v-3.737c0-4.423 3.585-8.008 8.008-8.008h295.385c4.423 0 8.008 3.585 8.008 8.008v3.737c.001 4.423-3.585 8.008-8.008 8.008z" fill="url(#SVGID_86_)"/></g><g><path d="m129.282 509.377-34.472-34.471h-37.336l35.094 35.094h33.461c1.149 0 2.244-.225 3.253-.623z" fill="url(#SVGID_87_)"/><g><g><path d="m59.43 475.676h25.656c4.415 0 6.627-5.338 3.505-8.461l-4.142-4.142c-2.578-2.578-6.075-4.027-9.721-4.027h-4.431c-7.593 0-13.748 6.155-13.748 13.748 0 1.592 1.29 2.882 2.881 2.882z" fill="url(#SVGID_88_)"/><path d="m84.449 463.074c-2.578-2.578-6.075-4.027-9.721-4.027-1.765 0-3.196 1.431-3.196 3.196v.358c0 1.765 1.431 3.196 3.196 3.196 1.959 0 3.839.778 5.224 2.164l7.252 7.252c2.911-1.36 3.956-5.429 1.386-7.998z" fill="url(#SVGID_89_)"/></g><path d="m80.23 478.388h12.828c2.208 0 3.313-2.669 1.752-4.23l-2.071-2.071c-1.289-1.289-3.038-2.013-4.861-2.013h-2.216c-3.796 0-6.874 3.078-6.874 6.874.002.795.647 1.44 1.442 1.44z" fill="url(#SVGID_90_)"/></g></g></g></svg>