<!--
  - Copyright (c) 2023. Selldone® Business OS™
  -
  - Author: M.Pajuhaan
  - Web: https://selldone.com
  - ━━━━━━━━━━━━━━━━━━━━━━━━━━━━━━━━━━━━━━━━━━━━━━━━━━━━━━
  -
  - All rights reserved. In the weave of time, where traditions and innovations intermingle, this content was crafted.
  - From the essence of thought, through the corridors of creativity, each word, and sentiment has been molded.
  - Not just to exist, but to inspire. Like an artist's stroke or a sculptor's chisel, every nuance is deliberate.
  - Our journey is not just about reaching a destination, but about creating a masterpiece.
  - Tread carefully, for you're treading on dreams.
  -->

<svg id="Capa_1" enable-background="new 0 0 510 510" height="512" viewBox="0 0 510 510" width="512" xmlns="http://www.w3.org/2000/svg" xmlns:xlink="http://www.w3.org/1999/xlink"><linearGradient id="SVGID_1_" gradientUnits="userSpaceOnUse" x1="255" x2="255" y1="34.721" y2="483.763"><stop offset="0" stop-color="#c7e9ff"/><stop offset=".3556" stop-color="#a3e6f2"/><stop offset="1" stop-color="#65e0db"/></linearGradient><linearGradient id="SVGID_2_" gradientUnits="userSpaceOnUse" x1="255" x2="255" y1="409.649" y2="517.342"><stop offset="0" stop-color="#2f73a0"/><stop offset="1" stop-color="#174461"/></linearGradient><linearGradient id="lg1"><stop offset="0" stop-color="#45a2e0"/><stop offset="1" stop-color="#2f73a0"/></linearGradient><linearGradient id="SVGID_3_" gradientUnits="userSpaceOnUse" x1="148.96" x2="171.96" xlink:href="#lg1" y1="428.166" y2="395.166"/><linearGradient id="lg2"><stop offset="0" stop-color="#174461" stop-opacity="0"/><stop offset="1" stop-color="#174461"/></linearGradient><linearGradient id="SVGID_4_" gradientUnits="userSpaceOnUse" x1="159.294" x2="180.794" xlink:href="#lg2" y1="412.967" y2="388.467"/><linearGradient id="SVGID_5_" gradientTransform="matrix(1 0 0 -1 0 422.852)" gradientUnits="userSpaceOnUse" x1="207.725" x2="116.496" xlink:href="#lg2" y1="11.413" y2="-14.57"/><linearGradient id="SVGID_6_" gradientUnits="userSpaceOnUse" x1="203.921" x2="378.921" xlink:href="#lg1" y1="426.795" y2="296.795"/><linearGradient id="SVGID_7_" gradientUnits="userSpaceOnUse" x1="343.127" x2="206.206" xlink:href="#lg2" y1="416.913" y2="395.925"/><linearGradient id="SVGID_8_" gradientUnits="userSpaceOnUse" x1="288.545" x2="224.215" xlink:href="#lg2" y1="389.227" y2="327.605"/><linearGradient id="SVGID_9_" gradientTransform="matrix(1 0 0 -1 0 297.485)" gradientUnits="userSpaceOnUse" x1="119.922" x2="176.791" xlink:href="#lg1" y1="-76.774" y2="-19.905"/><linearGradient id="SVGID_10_" gradientTransform="matrix(1 0 0 -1 0 297.485)" gradientUnits="userSpaceOnUse" x1="196.248" x2="118.881" xlink:href="#lg2" y1="-67.044" y2="10.322"/><linearGradient id="SVGID_11_" gradientUnits="userSpaceOnUse" x1="255" x2="255" xlink:href="#lg2" y1="459.209" y2="323.415"/><linearGradient id="lg3"><stop offset="0" stop-color="#edf5ff"/><stop offset="1" stop-color="#c7e9ff"/></linearGradient><linearGradient id="SVGID_12_" gradientUnits="userSpaceOnUse" x1="152.284" x2="251.279" xlink:href="#lg3" y1="192.32" y2="325.813"/><linearGradient id="lg4"><stop offset="0" stop-color="#7acbff" stop-opacity="0"/><stop offset="1" stop-color="#2f73a0"/></linearGradient><linearGradient id="SVGID_13_" gradientUnits="userSpaceOnUse" x1="278.057" x2="-10.943" xlink:href="#lg4" y1="214.636" y2="68.636"/><linearGradient id="SVGID_14_" gradientUnits="userSpaceOnUse" x1="205.419" x2="286.753" xlink:href="#lg4" y1="246.485" y2="350.485"/><linearGradient id="SVGID_15_" gradientUnits="userSpaceOnUse" x1="293.751" x2="336.388" xlink:href="#lg3" y1="240.776" y2="283.413"/><linearGradient id="SVGID_16_" gradientUnits="userSpaceOnUse" x1="364.771" x2="254.966" xlink:href="#lg4" y1="251.164" y2="219.89"/><linearGradient id="SVGID_17_" gradientUnits="userSpaceOnUse" x1="349.557" x2="282.891" xlink:href="#lg4" y1="271.874" y2="339.874"/><linearGradient id="SVGID_18_" gradientUnits="userSpaceOnUse" x1="242.068" x2="298.463" xlink:href="#lg3" y1="292.247" y2="348.642"/><linearGradient id="SVGID_19_" gradientUnits="userSpaceOnUse" x1="325.86" x2="277.193" xlink:href="#lg4" y1="293.964" y2="342.63"/><linearGradient id="SVGID_20_" gradientUnits="userSpaceOnUse" x1="391.724" x2="476.609" y1="80.819" y2="165.704"><stop offset="0" stop-color="#ffd945"/><stop offset=".3043" stop-color="#ffcd3e"/><stop offset=".8558" stop-color="#ffad2b"/><stop offset="1" stop-color="#ffa325"/></linearGradient><g><path d="m485.638 510h-461.276c-13.455 0-24.362-10.907-24.362-24.362v-461.276c0-13.455 10.907-24.362 24.362-24.362h461.275c13.456 0 24.363 10.907 24.363 24.362v461.275c0 13.456-10.907 24.363-24.362 24.363z" fill="url(#SVGID_1_)"/><path d="m510 485.638v-152.944h-510v152.944c0 13.455 10.907 24.362 24.362 24.362h461.275c13.456 0 24.363-10.907 24.363-24.362z" fill="url(#SVGID_2_)"/><g><g><path d="m112.105 332.694 70.582 152.752c6.904 14.942 22.341 14.942 29.245 0l70.582-152.752z" fill="url(#SVGID_3_)"/><path d="m112.105 332.694 70.582 152.752c6.904 14.942 22.341 14.942 29.245 0l70.582-152.752z" fill="url(#SVGID_4_)"/><path d="m211.932 485.446c-5.809 12.572-17.659 14.563-25.384 5.978l17.107-41.335c2.653-6.409-1.18-13.969-7.082-13.969-5.734 0-9.572-7.172-7.248-13.544l14.36-39.364c2.706-7.418-1.761-15.766-8.437-15.766-6.661 0-11.128-8.315-8.45-15.729l6.871-19.022h88.845z" fill="url(#SVGID_5_)"/></g><g><g><path d="m119.439 332.694 140.462 165.188c13.739 16.158 44.459 16.158 58.198 0l140.462-165.188z" fill="url(#SVGID_6_)"/><path d="m318.099 497.882c-11.561 13.596-35.142 15.748-50.515 6.464l34.044-44.7c5.279-6.931-2.349-15.106-14.095-15.106-11.412 0-19.049-7.756-14.423-14.647l28.577-42.569c5.385-8.022-3.505-17.05-16.789-17.05-13.255 0-22.145-8.992-16.816-17.009l13.674-20.571h176.806z" fill="url(#SVGID_7_)"/></g><path d="m119.439 332.694h250.04l-118.903 154.222z" fill="url(#SVGID_8_)"/><g><path d="m205.687 385.731h-26.496c-8.378 0-16.414 3.429-22.338 9.532-12.337 12.709-32.339 12.709-44.676 0l-60.738-62.568h218.818l-42.232 43.505c-5.925 6.102-13.96 9.531-22.338 9.531z" fill="url(#SVGID_9_)"/><path d="m228.025 376.199c-5.924 6.103-13.96 9.532-22.338 9.532h-26.496c-8.292 0-16.344 3.262-22.162 9.349-7.237 7.572-17.169 10.71-26.646 9.429l-5.091-25.977c-2.11-10.768 5.882-20.829 16.546-20.829 4.477 0 8.77-1.832 11.936-5.093l19.333-19.915h97.152z" fill="url(#SVGID_10_)"/></g></g></g><path d="m0 332.694h510v134.907h-510z" fill="url(#SVGID_11_)"/><g><g><path d="m51.439 332.694 126.896-286.449c6.49-14.65 27.25-14.734 33.858-.137l12.576 27.78c4.346 9.599 17.696 10.339 23.076 1.28 5.242-8.827 18.158-8.408 22.817.74l130.776 256.786z" fill="url(#SVGID_12_)"/><path d="m270.663 75.908c-4.659-9.148-17.575-9.567-22.817-.74-5.38 9.06-18.73 8.32-23.076-1.28l-12.576-27.78c-3.434-7.585-10.689-11.196-17.777-10.869h-.002l24.717 68.786c2.259 6.287-2.4 12.912-9.081 12.912-7.179 0-11.844 7.56-8.625 13.976l44.676 89.053c6.582 13.119-2.956 28.575-17.634 28.575-14.192 0-23.742 14.536-18.107 27.562l24.481 56.59h166.596z" fill="url(#SVGID_13_)"/></g><path d="m87.501 332.694h313.938l-105.933-208.005z" fill="url(#SVGID_14_)"/><g><g><path d="m458.561 332.694-90.069-160.354c-8.81-15.685-28.508-15.685-37.319 0l-90.068 160.354z" fill="url(#SVGID_15_)"/></g><path d="m368.492 172.339c-7.413-13.198-22.534-15.288-32.392-6.275l21.83 43.392c3.385 6.728-1.506 14.664-9.038 14.664-7.318 0-12.215 7.529-9.249 14.218l18.324 41.323c3.453 7.787-2.248 16.551-10.766 16.551-8.5 0-14.2 8.729-10.783 16.512l8.768 19.969h113.373z" fill="url(#SVGID_16_)"/></g><path d="m241.105 332.694h160.334l-76.244-149.71z" fill="url(#SVGID_17_)"/><g><path d="m327.353 281.209h-26.496c-8.378 0-16.414-3.328-22.338-9.253-12.337-12.337-32.339-12.337-44.676 0l-60.738 60.738h218.818l-42.232-42.232c-5.924-5.925-13.959-9.253-22.338-9.253z" fill="url(#SVGID_18_)"/><path d="m349.692 290.462c-5.924-5.924-13.96-9.253-22.338-9.253h-26.496c-8.292 0-16.344-3.167-22.162-9.075-7.237-7.35-17.169-10.397-26.646-9.153l35.672 35.672c6.252 6.252 14.732 9.765 23.575 9.765 8.842 0 17.322 3.513 23.575 9.765l14.512 14.511h42.542z" fill="url(#SVGID_19_)"/></g></g><circle cx="413.057" cy="102.152" fill="url(#SVGID_20_)" r="66.943"/></g></svg>