

<svg id="Capa_1" enable-background="new 0 0 514.411 514.411" height="512" viewBox="0 0 514.411 514.411" width="512" xmlns="http://www.w3.org/2000/svg" xmlns:xlink="http://www.w3.org/1999/xlink"><linearGradient id="lg1"><stop offset="0" stop-color="#c7e9ff"/><stop offset=".3556" stop-color="#a3e6f2"/><stop offset="1" stop-color="#65e0db"/></linearGradient><linearGradient id="SVGID_1_" gradientUnits="userSpaceOnUse" x1="259.411" x2="259.411" xlink:href="#lg1" y1="36.927" y2="485.968"/><linearGradient id="lg2"><stop offset="0" stop-color="#edf5ff"/><stop offset="1" stop-color="#c7e9ff"/></linearGradient><linearGradient id="SVGID_2_" gradientUnits="userSpaceOnUse" x1="82.703" x2="169.155" xlink:href="#lg2" y1="103.909" y2="190.361"/><linearGradient id="SVGID_3_" gradientUnits="userSpaceOnUse" x1="315.078" x2="399.963" y1="60.024" y2="144.91"><stop offset="0" stop-color="#ffd945"/><stop offset=".3043" stop-color="#ffcd3e"/><stop offset=".8558" stop-color="#ffad2b"/><stop offset="1" stop-color="#ffa325"/></linearGradient><linearGradient id="SVGID_4_" gradientUnits="userSpaceOnUse" x1="64.404" x2="100.244" xlink:href="#lg2" y1="284.198" y2="320.038"/><linearGradient id="SVGID_5_" gradientUnits="userSpaceOnUse" x1="160.691" x2="184.691" xlink:href="#lg2" y1="180.194" y2="260.861"/><linearGradient id="SVGID_6_" gradientUnits="userSpaceOnUse" x1="107.429" x2="119.429" xlink:href="#lg1" y1="356.72" y2="410.72"/><linearGradient id="lg3"><stop offset="0" stop-color="#18cefb" stop-opacity="0"/><stop offset="1" stop-color="#0469bb"/></linearGradient><linearGradient id="SVGID_7_" gradientUnits="userSpaceOnUse" x1="73.545" x2="73.545" xlink:href="#lg3" y1="457.582" y2="317.64"/><linearGradient id="SVGID_8_" gradientUnits="userSpaceOnUse" x1="205.755" x2="161.178" xlink:href="#lg3" y1="419.128" y2="309.573"/><linearGradient id="SVGID_9_" gradientUnits="userSpaceOnUse" x1="121.84" x2="129.173" xlink:href="#lg1" y1="380.603" y2="433.936"/><linearGradient id="SVGID_10_" gradientUnits="userSpaceOnUse" x1="255.528" x2="338.136" xlink:href="#lg2" y1="271.946" y2="354.555"/><linearGradient id="lg4"><stop offset="0" stop-color="#2f73a0" stop-opacity="0"/><stop offset="1" stop-color="#2f73a0"/></linearGradient><linearGradient id="SVGID_11_" gradientUnits="userSpaceOnUse" x1="343.365" x2="343.365" xlink:href="#lg4" y1="286.909" y2="-350.728"/><linearGradient id="SVGID_12_" gradientUnits="userSpaceOnUse" x1="337.1" x2="155.199" xlink:href="#lg4" y1="379.792" y2="236.992"/><linearGradient id="SVGID_13_" gradientUnits="userSpaceOnUse" x1="281.245" x2="291.233" xlink:href="#lg2" y1="267.719" y2="334.478"/><linearGradient id="SVGID_14_" gradientUnits="userSpaceOnUse" x1="334.198" x2="235.364" xlink:href="#lg4" y1="395.533" y2="395.533"/><linearGradient id="SVGID_15_" gradientUnits="userSpaceOnUse" x1="200.573" x2="245.229" xlink:href="#lg2" y1="334.17" y2="386.192"/><linearGradient id="SVGID_16_" gradientUnits="userSpaceOnUse" x1="392.278" x2="500.511" xlink:href="#lg2" y1="229.089" y2="408.155"/><linearGradient id="SVGID_17_" gradientUnits="userSpaceOnUse" x1="395.424" x2="406.757" xlink:href="#lg4" y1="242.419" y2="348.952"/><linearGradient id="SVGID_18_" gradientUnits="userSpaceOnUse" x1="470.431" x2="202.965" xlink:href="#lg4" y1="250.502" y2="-645.964"/><linearGradient id="SVGID_19_" gradientUnits="userSpaceOnUse" x1="429.531" x2="342.643" xlink:href="#lg4" y1="338.012" y2="257.923"/><linearGradient id="SVGID_20_" gradientUnits="userSpaceOnUse" x1="376.224" x2="484.458" xlink:href="#lg2" y1="238.792" y2="417.858"/><linearGradient id="SVGID_21_" gradientUnits="userSpaceOnUse" x1="453.847" x2="347.303" xlink:href="#lg4" y1="377.84" y2="377.84"/><linearGradient id="SVGID_22_" gradientUnits="userSpaceOnUse" x1="331.171" x2="410.504" xlink:href="#lg2" y1="356.676" y2="418.443"/><linearGradient id="SVGID_23_" gradientUnits="userSpaceOnUse" x1="212.765" x2="276.358" xlink:href="#lg2" y1="413.912" y2="477.505"/><linearGradient id="SVGID_24_" gradientUnits="userSpaceOnUse" x1="307.251" x2="252.374" xlink:href="#lg4" y1="415.848" y2="470.725"/><linearGradient id="SVGID_25_" gradientUnits="userSpaceOnUse" x1="259.411" x2="259.411" y1="458.043" y2="516.987"><stop offset="0" stop-color="#18cefb"/><stop offset="1" stop-color="#4a97f6"/></linearGradient><linearGradient id="SVGID_26_" gradientUnits="userSpaceOnUse" x1="155.039" x2="155.039" y1="513.576" y2="470.181"><stop offset="0" stop-color="#4a97f6" stop-opacity="0"/><stop offset="1" stop-color="#0469bb"/></linearGradient><linearGradient id="SVGID_27_" gradientUnits="userSpaceOnUse" x1="91.997" x2="132.763" xlink:href="#lg2" y1="441.786" y2="482.552"/><linearGradient id="SVGID_28_" gradientUnits="userSpaceOnUse" x1="158.41" x2="172.799" xlink:href="#lg2" y1="469.144" y2="498.903"/><linearGradient id="SVGID_29_" gradientUnits="userSpaceOnUse" x1="260.208" x2="318.808" xlink:href="#lg2" y1="42.627" y2="101.227"/><g><path d="m490.049 512.206h-461.275c-13.455 0-24.362-10.907-24.362-24.362v-461.276c0-13.455 10.907-24.362 24.362-24.362h461.275c13.455 0 24.362 10.907 24.362 24.362v461.275c0 13.455-10.907 24.363-24.362 24.363z" fill="url(#SVGID_1_)"/><path d="m167.684 94.517h-11.749c0-14.706-11.922-26.627-26.627-26.627h-52.52c-14.706 0-26.627 11.922-26.627 26.627 0 5.506 1.672 10.622 4.535 14.868h-13.337c-13.402 0-24.266 10.864-24.266 24.266 0 13.402 10.864 24.266 24.266 24.266h47.863c8.41 0 15.819-4.28 20.173-10.778 1.858.411 3.787.634 5.768.634h52.521c14.706 0 26.627-11.922 26.627-26.627 0-14.707-11.922-26.629-26.627-26.629z" fill="url(#SVGID_2_)"/><circle cx="336.411" cy="81.357" fill="url(#SVGID_3_)" r="66.943"/><g opacity=".46"><path d="m89.834 309.858h-32.845c-9.197 0-16.652-7.455-16.652-16.652 0-9.197 7.455-16.652 16.652-16.652h32.845c9.197 0 16.652 7.455 16.652 16.652 0 9.196-7.456 16.652-16.652 16.652z" fill="url(#SVGID_4_)"/></g><path d="m217.129 214.796c.352-1.427.56-2.91.56-4.445 0-10.222-8.286-18.508-18.507-18.508h-36.505c-10.221 0-18.507 8.286-18.507 18.508 0 1.147.119 2.265.319 3.354-12.772 2.861-22.319 14.259-22.319 27.894 0 15.791 12.801 28.593 28.593 28.593h56.397c15.791 0 28.593-12.802 28.593-28.593-.001-12.285-7.749-22.756-18.624-26.803z" fill="url(#SVGID_5_)" opacity=".46"/><path d="m0 441.916 86.611-73.064c24.341-20.533 54.165-20.61 78.554-.202l87.557 73.266z" fill="url(#SVGID_6_)"/><path d="m4.411 355.625v86.291h138.267l-77.001-79.52c-18.9-19.519-41.512-21.762-61.266-6.771z" fill="url(#SVGID_7_)"/><g><path d="m88.667 441.916 86.611-73.064c24.341-20.533 54.165-20.61 78.554-.202l87.557 73.266z" fill="url(#SVGID_8_)"/><g><path d="m90.499 393.784h23.502c7.432 0 14.559-3.112 19.814-8.65 10.943-11.534 28.685-11.534 39.627 0l53.874 56.783h-194.09l37.46-39.482c5.254-5.539 12.381-8.651 19.813-8.651z" fill="url(#SVGID_9_)"/></g></g><g><path d="m296.351 210.301c0-9.485 7.689-17.174 17.174-17.174h34.45c23.42 0 42.406 18.986 42.406 42.406v213.501h-146.597v-186.167c0-19.547 15.846-35.392 35.392-35.392 9.486 0 17.175-7.689 17.175-17.174z" fill="url(#SVGID_10_)"/><path d="m347.975 193.127c-9.095 0-16.469 7.373-16.469 16.469v62.33c0 9.736-7.967 17.51-17.703 17.578-9.65.067-17.453 7.911-17.453 17.577v141.953h94.03v-213.501c0-23.42-18.985-42.406-42.405-42.406z" fill="url(#SVGID_11_)"/><g><path d="m320.576 449.034h69.804v-94.622l-69.804-69.805z" fill="url(#SVGID_12_)"/><path d="m279.18 295.544c-12.387 0-22.428 10.042-22.428 22.428v45.663h67.285v-68.091c0-10.534-8.539-19.073-19.073-19.073h-6.71c-10.534-.001-19.074 8.539-19.074 19.073z" fill="url(#SVGID_13_)"/></g><g><path d="m283.378 449.034h107.002l-107.002-107.002z" fill="url(#SVGID_14_)"/><path d="m248.683 327.434h5.791c19.839 0 35.921 16.082 35.921 35.921v85.679h-67.41v-95.902c0-14.193 11.505-25.698 25.698-25.698z" fill="url(#SVGID_15_)"/></g></g><g><path d="m457.745 104.521c0-10.225-8.289-18.514-18.513-18.514h-37.137c-25.247 0-45.714 20.467-45.714 45.714v318.587h158.031v-289.12c0-21.071-17.082-38.153-38.153-38.153-10.226 0-18.514-8.289-18.514-18.514z" fill="url(#SVGID_16_)"/><path d="m356.38 182.076h79.015v129.416h-79.015z" fill="url(#SVGID_17_)"/><path d="m514.411 450.309v-289.121c0-21.071-17.082-38.153-38.153-38.153-10.31 0-18.388-8.436-18.515-18.746-.124-10.118-8.365-18.281-18.512-18.281-10.706 0-19.384 8.679-19.384 19.384v65.561c0 10.465 8.484 18.949 18.949 18.949 10.465 0 18.949 8.484 18.949 18.949v241.458z" fill="url(#SVGID_18_)"/><path d="m439.162 450.309h75.249v-131.592l-75.249-75.249z" fill="url(#SVGID_19_)"/><path d="m394.537 255.257c-13.353 0-24.178 10.825-24.178 24.178v49.224h72.533v-73.402c0-11.356-9.206-20.561-20.561-20.561h-7.233c-11.355 0-20.561 9.206-20.561 20.561z" fill="url(#SVGID_20_)"/><path d="m399.063 450.309h115.348v-29.589l-115.348-115.348z" fill="url(#SVGID_21_)"/><path d="m351.906 289.635h15.998c21.386 0 38.723 17.337 38.723 38.723v121.951h-91.333v-124.062c-.001-20.22 16.391-36.612 36.612-36.612z" fill="url(#SVGID_22_)"/></g><g><path d="m308.935 401.465h-29.877c-9.448 0-18.508-3.753-25.189-10.434-13.911-13.911-36.466-13.911-50.378 0l-68.489 68.489h246.744l-47.622-47.622c-6.68-6.68-15.741-10.433-25.189-10.433z" fill="url(#SVGID_23_)"/><path d="m334.124 411.899c-6.68-6.68-15.741-10.434-25.189-10.434h-29.878c-9.35 0-18.43-3.571-24.99-10.234-8.161-8.288-19.361-11.723-30.047-10.321l40.225 40.225c7.05 7.05 16.613 11.011 26.583 11.011 9.971 0 19.533 3.961 26.583 11.011l16.363 16.363h47.971z" fill="url(#SVGID_24_)"/></g><path d="m4.411 487.843c0 13.455 10.907 24.362 24.362 24.362h461.276c13.455 0 24.362-10.907 24.362-24.362v-45.927h-510v45.927z" fill="url(#SVGID_25_)"/><path d="m226.168 486.462h-47.97-.001-94.812c-1.483 0-2.685 1.029-2.685 2.298 0 9.054 3.906 17.22 10.259 23.446h72.81c1.534-.817 3.024-1.648 4.459-2.492.729.07 1.444.151 2.182.215 30.611 2.653 58.969-7.989 58.969-22.021-.001-.799-1.438-1.446-3.211-1.446z" fill="url(#SVGID_26_)"/><g><path d="m183.935 476.71c-11.342-9.27-29.822-21.039-53.917-25.009-25.601-4.218-49.317 12.702-49.317 35.013 0 1.269 1.202 2.297 2.685 2.297h94.812c7.528.001 11.182-7.851 5.737-12.301z" fill="url(#SVGID_27_)"/><path d="m105.94 481.275c13.562-5.83 35.659-13.232 64.469-15.729 30.611-2.653 58.969 7.989 58.969 22.021 0 .798-1.437 1.445-3.21 1.445h-113.367c-9.002 0-13.371-4.938-6.861-7.737z" fill="url(#SVGID_28_)"/></g><path d="m305.741 48.33h-7.964c0-9.968-8.081-18.049-18.049-18.049h-35.6c-9.968 0-18.049 8.081-18.049 18.049s8.081 18.049 18.049 18.049h7.963c0 9.968 8.081 18.049 18.049 18.049h35.6c9.968 0 18.049-8.081 18.049-18.049.001-9.968-8.079-18.049-18.048-18.049z" fill="url(#SVGID_29_)"/></g></svg>