<!--
  - Copyright (c) 2023. Selldone® Business OS™
  -
  - Author: M.Pajuhaan
  - Web: https://selldone.com
  - ━━━━━━━━━━━━━━━━━━━━━━━━━━━━━━━━━━━━━━━━━━━━━━━━━━━━━━
  -
  - All rights reserved. In the weave of time, where traditions and innovations intermingle, this content was crafted.
  - From the essence of thought, through the corridors of creativity, each word, and sentiment has been molded.
  - Not just to exist, but to inspire. Like an artist's stroke or a sculptor's chisel, every nuance is deliberate.
  - Our journey is not just about reaching a destination, but about creating a masterpiece.
  - Tread carefully, for you're treading on dreams.
  -->

<svg id="Capa_1" enable-background="new 0 0 510 510" height="512" viewBox="0 0 510 510" width="512" xmlns="http://www.w3.org/2000/svg" xmlns:xlink="http://www.w3.org/1999/xlink"><linearGradient id="SVGID_1_" gradientUnits="userSpaceOnUse" x1="255" x2="255" y1="198" y2="382.068"><stop offset="0" stop-color="#fff5d9"/><stop offset="1" stop-color="#ffce47"/></linearGradient><linearGradient id="SVGID_2_" gradientUnits="userSpaceOnUse" x1="255" x2="255" y1="354.667" y2="448.705"><stop offset="0" stop-color="#ff755c"/><stop offset="1" stop-color="#45a2e0"/></linearGradient><linearGradient id="lg1"><stop offset="0" stop-color="#edf5ff"/><stop offset="1" stop-color="#c7e9ff"/></linearGradient><linearGradient id="SVGID_3_" gradientUnits="userSpaceOnUse" x1="38.584" x2="56.69" xlink:href="#lg1" y1="255.828" y2="255.828"/><linearGradient id="lg2"><stop offset="0" stop-color="#7acbff" stop-opacity="0"/><stop offset="1" stop-color="#2f73a0"/></linearGradient><linearGradient id="SVGID_4_" gradientUnits="userSpaceOnUse" x1="55.097" x2="46.925" xlink:href="#lg2" y1="249.863" y2="214.959"/><linearGradient id="SVGID_5_" gradientUnits="userSpaceOnUse" x1="77.452" x2="95.558" xlink:href="#lg1" y1="251.839" y2="251.839"/><linearGradient id="SVGID_6_" gradientUnits="userSpaceOnUse" x1="93.785" x2="85.94" xlink:href="#lg2" y1="240.387" y2="206.884"/><linearGradient id="SVGID_7_" gradientUnits="userSpaceOnUse" x1="116.32" x2="134.426" xlink:href="#lg1" y1="240.339" y2="240.339"/><linearGradient id="SVGID_8_" gradientUnits="userSpaceOnUse" x1="133.122" x2="125.102" xlink:href="#lg2" y1="221.462" y2="187.21"/><linearGradient id="SVGID_9_" gradientUnits="userSpaceOnUse" x1="85.786" x2="87.574" xlink:href="#lg1" y1="138.553" y2="227.976"/><linearGradient id="SVGID_10_" gradientUnits="userSpaceOnUse" x1="451.451" x2="469.557" xlink:href="#lg1" y1="255.828" y2="255.828"/><linearGradient id="SVGID_11_" gradientUnits="userSpaceOnUse" x1="467.717" x2="459.995" xlink:href="#lg2" y1="247.807" y2="214.826"/><linearGradient id="SVGID_12_" gradientUnits="userSpaceOnUse" x1="412.583" x2="430.689" xlink:href="#lg1" y1="252.91" y2="252.91"/><linearGradient id="SVGID_13_" gradientUnits="userSpaceOnUse" x1="428.37" x2="421.521" xlink:href="#lg2" y1="237.985" y2="208.733"/><linearGradient id="SVGID_14_" gradientUnits="userSpaceOnUse" x1="373.716" x2="391.822" xlink:href="#lg1" y1="245.497" y2="245.497"/><linearGradient id="SVGID_15_" gradientUnits="userSpaceOnUse" x1="388.956" x2="383.103" xlink:href="#lg2" y1="218.612" y2="193.614"/><linearGradient id="SVGID_16_" gradientTransform="matrix(-1 0 0 1 233.333 0)" gradientUnits="userSpaceOnUse" x1="-190.881" x2="-189.093" xlink:href="#lg1" y1="138.553" y2="227.976"/><linearGradient id="SVGID_17_" gradientUnits="userSpaceOnUse" x1="255" x2="255" y1="491.209" y2="349.926"><stop offset="0" stop-color="#174461" stop-opacity="0"/><stop offset="1" stop-color="#45a2e0"/></linearGradient><linearGradient id="lg3"><stop offset="0" stop-color="#ff7044"/><stop offset="1" stop-color="#f82814"/></linearGradient><linearGradient id="SVGID_18_" gradientUnits="userSpaceOnUse" x1="254.57" x2="256.72" xlink:href="#lg3" y1="297.029" y2="404.529"/><linearGradient id="SVGID_19_" gradientUnits="userSpaceOnUse" x1="197.916" x2="216.022" xlink:href="#lg1" y1="251.714" y2="251.714"/><linearGradient id="SVGID_20_" gradientUnits="userSpaceOnUse" x1="213.332" x2="207.159" xlink:href="#lg2" y1="232.509" y2="206.142"/><linearGradient id="SVGID_21_" gradientUnits="userSpaceOnUse" x1="245.017" x2="263.123" xlink:href="#lg1" y1="258.66" y2="258.66"/><linearGradient id="SVGID_22_" gradientUnits="userSpaceOnUse" x1="260.804" x2="253.955" xlink:href="#lg2" y1="249.485" y2="220.233"/><linearGradient id="SVGID_23_" gradientUnits="userSpaceOnUse" x1="292.118" x2="310.224" xlink:href="#lg1" y1="252.339" y2="252.339"/><linearGradient id="SVGID_24_" gradientUnits="userSpaceOnUse" x1="308.571" x2="300.508" xlink:href="#lg2" y1="242.386" y2="207.948"/><linearGradient id="SVGID_25_" gradientUnits="userSpaceOnUse" x1="255" x2="255" xlink:href="#lg1" y1="183.188" y2="232.231"/><linearGradient id="SVGID_26_" gradientUnits="userSpaceOnUse" x1="233.667" x2="318.552" y1="58.32" y2="143.205"><stop offset="0" stop-color="#ffd945"/><stop offset=".3043" stop-color="#ffcd3e"/><stop offset=".8558" stop-color="#ffad2b"/><stop offset="1" stop-color="#ffa325"/></linearGradient><linearGradient id="SVGID_27_" gradientUnits="userSpaceOnUse" x1="146.677" x2="208.01" xlink:href="#lg3" y1="191.777" y2="219.443"/><linearGradient id="lg4"><stop offset="0" stop-color="#843561" stop-opacity="0"/><stop offset="1" stop-color="#3a2f4d"/></linearGradient><linearGradient id="SVGID_28_" gradientUnits="userSpaceOnUse" x1="174.266" x2="163.933" xlink:href="#lg4" y1="147.145" y2="100.145"/><linearGradient id="SVGID_29_" gradientUnits="userSpaceOnUse" x1="158.876" x2="182.854" xlink:href="#lg3" y1="84.442" y2="99.453"/><linearGradient id="SVGID_30_" gradientUnits="userSpaceOnUse" x1="166.667" x2="166.667" xlink:href="#lg4" y1="95.105" y2="72.076"/><linearGradient id="SVGID_31_" gradientUnits="userSpaceOnUse" x1="156.36" x2="156.36" xlink:href="#lg4" y1="97.822" y2="82.707"/><linearGradient id="SVGID_32_" gradientUnits="userSpaceOnUse" x1="166.667" x2="166.667" xlink:href="#lg4" y1="97.822" y2="82.707"/><linearGradient id="SVGID_33_" gradientUnits="userSpaceOnUse" x1="176.974" x2="176.974" xlink:href="#lg4" y1="97.822" y2="82.707"/><linearGradient id="SVGID_34_" gradientUnits="userSpaceOnUse" x1="163.238" x2="172.322" xlink:href="#lg3" y1="97.995" y2="123.795"/><linearGradient id="SVGID_35_" gradientUnits="userSpaceOnUse" x1="164.088" x2="170.92" xlink:href="#lg3" y1="70.975" y2="90.378"/><linearGradient id="SVGID_36_" gradientUnits="userSpaceOnUse" x1="323.344" x2="384.677" xlink:href="#lg3" y1="191.777" y2="219.443"/><linearGradient id="SVGID_37_" gradientUnits="userSpaceOnUse" x1="350.933" x2="340.6" xlink:href="#lg4" y1="147.145" y2="100.145"/><linearGradient id="SVGID_38_" gradientUnits="userSpaceOnUse" x1="335.542" x2="359.521" xlink:href="#lg3" y1="84.442" y2="99.453"/><linearGradient id="SVGID_39_" gradientUnits="userSpaceOnUse" x1="343.334" x2="343.334" xlink:href="#lg4" y1="95.105" y2="72.076"/><linearGradient id="SVGID_40_" gradientUnits="userSpaceOnUse" x1="333.026" x2="333.026" xlink:href="#lg4" y1="97.822" y2="82.707"/><linearGradient id="SVGID_41_" gradientUnits="userSpaceOnUse" x1="343.333" x2="343.333" xlink:href="#lg4" y1="97.822" y2="82.707"/><linearGradient id="SVGID_42_" gradientUnits="userSpaceOnUse" x1="353.64" x2="353.64" xlink:href="#lg4" y1="97.822" y2="82.707"/><linearGradient id="SVGID_43_" gradientUnits="userSpaceOnUse" x1="339.904" x2="348.989" xlink:href="#lg3" y1="97.995" y2="123.795"/><linearGradient id="SVGID_44_" gradientUnits="userSpaceOnUse" x1="340.755" x2="347.587" xlink:href="#lg3" y1="70.975" y2="90.378"/><linearGradient id="SVGID_45_" gradientUnits="userSpaceOnUse" x1="255" x2="255" xlink:href="#lg3" y1="293.876" y2="310.556"/><linearGradient id="SVGID_46_" gradientUnits="userSpaceOnUse" x1="255" x2="255" y1="488.274" y2="380.133"><stop offset="0" stop-color="#2f73a0" stop-opacity="0"/><stop offset="1" stop-color="#174461"/></linearGradient><g><path d="m485.638 510h-461.276c-13.455 0-24.362-10.907-24.362-24.362v-461.276c0-13.455 10.907-24.362 24.362-24.362h461.275c13.456 0 24.363 10.907 24.363 24.362v461.275c0 13.456-10.907 24.363-24.362 24.363z" fill="url(#SVGID_1_)"/><path d="m510 485.638v-132.429h-510v132.429c0 13.455 10.907 24.362 24.362 24.362h461.275c13.456 0 24.363-10.907 24.363-24.362z" fill="url(#SVGID_2_)"/><g><g><path d="m39.357 215.188h18.419v81.281h-18.419z" fill="url(#SVGID_3_)"/><path d="m57.776 215.188h-18.419v13.565l18.419 18.42z" fill="url(#SVGID_4_)"/></g><g><path d="m78.225 207.209h18.419v89.26h-18.419z" fill="url(#SVGID_5_)"/><path d="m96.644 207.209h-18.42v12.109l18.42 18.42z" fill="url(#SVGID_6_)"/></g><g><path d="m135.512 296.469h-18.419v-96.01c0-8.975 7.275-16.25 16.25-16.25h2.169z" fill="url(#SVGID_7_)"/><path d="m135.512 184.209h-2.169c-8.975 0-16.25 7.275-16.25 16.25l18.419 18.419z" fill="url(#SVGID_8_)"/></g><path d="m173.333 137.144c0 25.294-16.096 48.8-45.328 66.193-28.028 16.678-65.114 25.868-104.437 25.868-7.97 0-15.839-.38-23.569-1.126v-16.135c7.698.8 15.575 1.204 23.569 1.204 36.107 0 69.938-8.296 95.247-23.359 24.105-14.348 37.381-33.046 37.381-52.646h17.137z" fill="url(#SVGID_9_)"/></g><g><g><path d="m452.224 215.188h18.419v81.281h-18.419z" fill="url(#SVGID_10_)"/><path d="m470.643 215.188h-18.419v11.565l18.419 18.42z" fill="url(#SVGID_11_)"/></g><g><path d="m413.356 209.352h18.419v87.117h-18.419z" fill="url(#SVGID_12_)"/><path d="m431.775 209.352h-18.419v7.688l18.419 18.419z" fill="url(#SVGID_13_)"/></g><g><path d="m374.488 194.525h18.419v101.944h-18.419z" fill="url(#SVGID_14_)"/><path d="m392.908 194.525h-18.42v3.265l18.42 18.419z" fill="url(#SVGID_15_)"/></g><path d="m336.667 137.144c0 25.294 16.096 48.8 45.328 66.193 28.028 16.678 65.114 25.868 104.437 25.868 7.97 0 15.839-.38 23.569-1.126v-16.135c-7.698.8-15.575 1.204-23.569 1.204-36.107 0-69.938-8.296-95.247-23.359-24.105-14.348-37.381-33.046-37.381-52.646h-17.137z" fill="url(#SVGID_16_)"/></g><path d="m510 485.638v-87.446c-13.09-14.747-50.206-21.876-65.255-12.522-8.463 5.261-26.161 5.33-34.692.18l-14.553-8.786c-17.265-10.424-38.891-10.397-56.13.069l-.746.453c-17.094 10.378-38.586 10.204-55.509-.451-17.295-10.443-38.952-10.443-56.247 0-17.295 10.443-38.952 10.443-56.247 0l-.002-.001c-17.711-10.253-39.599-10.052-57.117.526l-12.96 7.825c-8.791 5.308-26.8 5.308-35.591 0-14.821-8.95-51.248-2.118-64.951 12.097v88.056c0 13.455 10.907 24.362 24.362 24.362h461.275c13.456 0 24.363-10.907 24.363-24.362z" fill="url(#SVGID_17_)"/><path d="m0 303.876v29.333h69.667c25.353 0 46.812 16.651 54.05 39.612 12.034-4.277 25.196-4.313 37.267-.102 7.27-22.908 28.701-39.51 54.016-39.51h80c25.248 0 46.629 16.516 53.955 39.33 12.069-4.396 25.334-4.357 37.385.115 7.29-22.874 28.703-39.445 53.993-39.445h69.667v-29.333z" fill="url(#SVGID_18_)"/><g><g><path d="m198.689 206.959h18.419v89.51h-18.419z" fill="url(#SVGID_19_)"/><path d="m217.109 206.959h-18.42v4.688l18.42 18.419z" fill="url(#SVGID_20_)"/></g><g><path d="m245.79 220.852h18.419v75.617h-18.419z" fill="url(#SVGID_21_)"/><path d="m264.21 220.852h-18.42v7.688l18.42 18.419z" fill="url(#SVGID_22_)"/></g><g><path d="m292.891 208.209h18.419v88.26h-18.419z" fill="url(#SVGID_23_)"/><path d="m311.31 208.209h-18.419v13.081l18.419 18.419z" fill="url(#SVGID_24_)"/></g></g><path d="m338.687 137.145c0 19.599-8.377 38.297-23.587 52.646-15.97 15.063-37.317 23.359-60.1 23.359-22.783 0-44.13-8.296-60.1-23.359-15.21-14.348-23.587-33.046-23.587-52.646h-10.813c0 25.293 10.156 50.8 28.601 68.193 17.685 16.678 41.086 25.868 65.899 25.868 24.812 0 48.213-9.19 65.899-25.868 18.445-17.393 28.602-42.9 28.602-68.193z" fill="url(#SVGID_25_)"/><circle cx="255" cy="79.653" fill="url(#SVGID_26_)" r="66.943"/><g fill="#fff"><path d="m407.63 62.815h-11.749c0-14.706-11.922-26.627-26.627-26.627h-52.52c-14.706 0-26.627 11.922-26.627 26.627s11.922 26.627 26.627 26.627h11.748c0 14.706 11.922 26.627 26.627 26.627h52.52c14.706 0 26.627-11.922 26.627-26.627.001-14.705-11.92-26.627-26.626-26.627z"/><path d="m484.003 63.128h-33.178c-9.29 0-16.821-7.531-16.821-16.821 0-9.29 7.531-16.821 16.821-16.821h33.178c9.29 0 16.821 7.531 16.821 16.821 0 9.29-7.531 16.821-16.821 16.821z"/></g><g><g><path d="m150.582 107.709h32.169v186.169h-32.169z" fill="url(#SVGID_27_)"/><path d="m150.582 117.449 32.169 32.169v-41.909h-32.169z" fill="url(#SVGID_28_)"/><g><path d="m145.919 78.299c2.816 7.44 4.263 15.391 4.263 23.416v1.294h32.97v-1.294c0-8.025 1.447-15.976 4.263-23.416z" fill="url(#SVGID_29_)"/><path d="m187.413 78.3c-2.813 7.44-4.263 15.388-4.263 23.417v1.292h-15.666l-19.983-19.988c-.469-1.592-.992-3.167-1.581-4.72h41.493z" fill="url(#SVGID_30_)"/><g><path d="m159.843 103.009h-6.966v-12.733c0-1.924 1.559-3.483 3.483-3.483 1.924 0 3.483 1.559 3.483 3.483z" fill="url(#SVGID_31_)"/><path d="m170.15 103.009h-6.966v-12.733c0-1.924 1.559-3.483 3.483-3.483 1.924 0 3.483 1.559 3.483 3.483z" fill="url(#SVGID_32_)"/><path d="m180.457 103.009h-6.966v-12.733c0-1.924 1.559-3.483 3.483-3.483 1.924 0 3.483 1.559 3.483 3.483z" fill="url(#SVGID_33_)"/></g><path d="m183.564 116.636h-33.795c-2.91 0-5.269-2.359-5.269-5.269v-7.268c0-2.91 2.359-5.269 5.269-5.269h33.795c2.91 0 5.269 2.359 5.269 5.269v7.268c0 2.91-2.359 5.269-5.269 5.269z" fill="url(#SVGID_34_)"/><path d="m184.995 83.023h-36.657c-2.12 0-3.838-1.718-3.838-3.838v-1.772c0-2.12 1.718-3.838 3.838-3.838h36.657c2.12 0 3.838 1.718 3.838 3.838v1.772c0 2.119-1.718 3.838-3.838 3.838z" fill="url(#SVGID_35_)"/></g></g><g><path d="m327.249 107.709h32.169v186.169h-32.169z" fill="url(#SVGID_36_)"/><path d="m327.249 117.449 32.169 32.169v-41.909h-32.169z" fill="url(#SVGID_37_)"/><g><path d="m322.585 78.299c2.816 7.44 4.263 15.391 4.263 23.416v1.294h32.97v-1.294c0-8.025 1.447-15.976 4.263-23.416z" fill="url(#SVGID_38_)"/><path d="m364.08 78.3c-2.813 7.44-4.263 15.388-4.263 23.417v1.292h-15.666l-19.983-19.988c-.469-1.592-.992-3.167-1.581-4.72h41.493z" fill="url(#SVGID_39_)"/><g><path d="m336.509 103.009h-6.966v-12.733c0-1.924 1.559-3.483 3.483-3.483 1.924 0 3.483 1.559 3.483 3.483z" fill="url(#SVGID_40_)"/><path d="m346.816 103.009h-6.966v-12.733c0-1.924 1.559-3.483 3.483-3.483 1.924 0 3.483 1.559 3.483 3.483z" fill="url(#SVGID_41_)"/><path d="m357.123 103.009h-6.966v-12.733c0-1.924 1.559-3.483 3.483-3.483 1.924 0 3.483 1.559 3.483 3.483z" fill="url(#SVGID_42_)"/></g><path d="m360.231 116.636h-33.795c-2.91 0-5.269-2.359-5.269-5.269v-7.268c0-2.91 2.359-5.269 5.269-5.269h33.795c2.91 0 5.269 2.359 5.269 5.269v7.268c0 2.91-2.359 5.269-5.269 5.269z" fill="url(#SVGID_43_)"/><path d="m361.662 83.023h-36.657c-2.12 0-3.838-1.718-3.838-3.838v-1.772c0-2.12 1.718-3.838 3.838-3.838h36.657c2.12 0 3.838 1.718 3.838 3.838v1.772c0 2.119-1.718 3.838-3.838 3.838z" fill="url(#SVGID_44_)"/></g></g></g><path d="m0 291.209h510v19.333h-510z" fill="url(#SVGID_45_)"/><path d="m110.808 141.528h-9.611c0 12.03-9.753 21.783-21.783 21.783h-42.965c-12.03 0-21.783-9.753-21.783-21.783s9.753-21.783 21.783-21.783h9.611c0-12.03 9.753-21.783 21.783-21.783h42.965c12.03 0 21.783 9.753 21.783 21.783 0 12.03-9.753 21.783-21.783 21.783z" fill="#fff"/><g fill="#ff755c"><g><path d="m108.651 336.866h10.551c1.15 0 2.082-.932 2.082-2.082v-6.958c0-1.15-.932-2.082-2.082-2.082h-10.551c-1.15 0-2.082.932-2.082 2.082v6.958c0 1.15.932 2.082 2.082 2.082z"/><path d="m123.366 326.77h25.267c1.15 0 2.082-.932 2.082-2.082v-6.958c0-1.15-.932-2.082-2.082-2.082h-25.267c-1.15 0-2.082.932-2.082 2.082v6.958c0 1.15.933 2.082 2.082 2.082z"/></g><path d="m272.941 328.866h25.267c1.15 0 2.082-.932 2.082-2.082v-6.958c0-1.15-.932-2.082-2.082-2.082h-25.267c-1.15 0-2.082.932-2.082 2.082v6.958c0 1.15.932 2.082 2.082 2.082z"/><path d="m386.878 339.988h10.551c1.15 0 2.082-.932 2.082-2.082v-6.958c0-1.15-.932-2.082-2.082-2.082h-10.551c-1.15 0-2.082.932-2.082 2.082v6.958c0 1.15.933 2.082 2.082 2.082z"/></g><path d="m510 485.638v-41.318c-10.108-7.106-24.046-8.617-36.156-1.305-10.51 6.346-23.672 6.346-34.182 0l-15.494-9.355c-20.945-12.646-47.113-12.887-68.287-.629l-.003.001c-20.677 12.485-46.57 12.485-67.247 0-20.677-12.486-46.569-12.486-67.246-.001-20.232 12.739-45.927 12.948-66.364.54l-.892-.542c-20.611-12.513-46.465-12.545-67.107-.083l-17.398 10.505c-10.199 6.158-22.989 6.074-33.107-.215-12.166-7.563-26.297-6.103-36.518 1.079v41.322c.001 13.456 10.908 24.363 24.363 24.363h461.275c13.456 0 24.363-10.907 24.363-24.362z" fill="url(#SVGID_46_)"/></g></svg>