<!--
  - Copyright (c) 2023. Selldone® Business OS™
  -
  - Author: M.Pajuhaan
  - Web: https://selldone.com
  - ━━━━━━━━━━━━━━━━━━━━━━━━━━━━━━━━━━━━━━━━━━━━━━━━━━━━━━
  -
  - All rights reserved. In the weave of time, where traditions and innovations intermingle, this content was crafted.
  - From the essence of thought, through the corridors of creativity, each word, and sentiment has been molded.
  - Not just to exist, but to inspire. Like an artist's stroke or a sculptor's chisel, every nuance is deliberate.
  - Our journey is not just about reaching a destination, but about creating a masterpiece.
  - Tread carefully, for you're treading on dreams.
  -->

<svg id="Capa_1" enable-background="new 0 0 510 510" height="512" viewBox="0 0 510 510" width="512" xmlns="http://www.w3.org/2000/svg" xmlns:xlink="http://www.w3.org/1999/xlink"><linearGradient id="SVGID_1_" gradientUnits="userSpaceOnUse" x1="255" x2="255" y1="83.666" y2="330.023"><stop offset="0" stop-color="#092a40"/><stop offset="1" stop-color="#3a2f4d"/></linearGradient><linearGradient id="lg1"><stop offset="0" stop-color="#edf5ff"/><stop offset="1" stop-color="#c7e9ff"/></linearGradient><linearGradient id="SVGID_2_" gradientUnits="userSpaceOnUse" x1="21.233" x2="26.939" xlink:href="#lg1" y1="18.566" y2="24.272"/><linearGradient id="SVGID_3_" gradientUnits="userSpaceOnUse" x1="31.233" x2="36.939" xlink:href="#lg1" y1="95.733" y2="101.439"/><linearGradient id="SVGID_4_" gradientUnits="userSpaceOnUse" x1="25.733" x2="31.439" xlink:href="#lg1" y1="297.899" y2="303.605"/><linearGradient id="SVGID_5_" gradientUnits="userSpaceOnUse" x1="254.566" x2="260.272" xlink:href="#lg1" y1="53.899" y2="59.605"/><linearGradient id="SVGID_6_" gradientUnits="userSpaceOnUse" x1="151.233" x2="156.939" xlink:href="#lg1" y1="105.066" y2="110.772"/><linearGradient id="SVGID_7_" gradientUnits="userSpaceOnUse" x1="103.233" x2="108.939" xlink:href="#lg1" y1="173.899" y2="179.605"/><linearGradient id="SVGID_8_" gradientUnits="userSpaceOnUse" x1="406.066" x2="411.772" xlink:href="#lg1" y1="233.233" y2="238.939"/><linearGradient id="SVGID_9_" gradientUnits="userSpaceOnUse" x1="29.233" x2="34.939" xlink:href="#lg1" y1="186.566" y2="192.272"/><linearGradient id="SVGID_10_" gradientUnits="userSpaceOnUse" x1="351.233" x2="356.939" xlink:href="#lg1" y1="261.899" y2="267.605"/><linearGradient id="SVGID_11_" gradientUnits="userSpaceOnUse" x1="103.899" x2="109.605" xlink:href="#lg1" y1="19.899" y2="25.605"/><linearGradient id="SVGID_12_" gradientUnits="userSpaceOnUse" x1="310.566" x2="316.272" xlink:href="#lg1" y1="33.233" y2="38.939"/><linearGradient id="SVGID_13_" gradientUnits="userSpaceOnUse" x1="371.233" x2="376.939" xlink:href="#lg1" y1="69.899" y2="75.605"/><linearGradient id="SVGID_14_" gradientUnits="userSpaceOnUse" x1="461.233" x2="466.939" xlink:href="#lg1" y1="157.233" y2="162.939"/><linearGradient id="SVGID_15_" gradientUnits="userSpaceOnUse" x1="386.399" x2="392.105" xlink:href="#lg1" y1="176.566" y2="182.272"/><linearGradient id="SVGID_16_" gradientUnits="userSpaceOnUse" x1="486.566" x2="492.272" xlink:href="#lg1" y1="86.566" y2="92.272"/><linearGradient id="SVGID_17_" gradientUnits="userSpaceOnUse" x1="167.899" x2="173.605" xlink:href="#lg1" y1="159.899" y2="165.605"/><linearGradient id="SVGID_18_" gradientUnits="userSpaceOnUse" x1="487.066" x2="492.772" xlink:href="#lg1" y1="220.566" y2="226.272"/><linearGradient id="SVGID_19_" gradientUnits="userSpaceOnUse" x1="57.233" x2="62.939" xlink:href="#lg1" y1="225.899" y2="231.605"/><linearGradient id="SVGID_20_" gradientUnits="userSpaceOnUse" x1="379.233" x2="384.939" xlink:href="#lg1" y1="20.566" y2="26.272"/><linearGradient id="SVGID_21_" gradientUnits="userSpaceOnUse" x1="462.566" x2="468.272" xlink:href="#lg1" y1="21.899" y2="27.605"/><linearGradient id="SVGID_22_" gradientUnits="userSpaceOnUse" x1="455.233" x2="460.939" xlink:href="#lg1" y1="275.899" y2="281.605"/><linearGradient id="SVGID_23_" gradientUnits="userSpaceOnUse" x1="215.233" x2="220.939" xlink:href="#lg1" y1="119.399" y2="125.105"/><linearGradient id="SVGID_24_" gradientUnits="userSpaceOnUse" x1="275.899" x2="281.605" xlink:href="#lg1" y1="109.899" y2="115.605"/><linearGradient id="SVGID_25_" gradientUnits="userSpaceOnUse" x1="386.399" x2="392.105" xlink:href="#lg1" y1="120.566" y2="126.272"/><linearGradient id="SVGID_26_" gradientUnits="userSpaceOnUse" x1="219.899" x2="225.605" xlink:href="#lg1" y1="15.899" y2="21.605"/><linearGradient id="SVGID_27_" gradientUnits="userSpaceOnUse" x1="179.233" x2="184.939" xlink:href="#lg1" y1="45.233" y2="50.939"/><linearGradient id="lg2"><stop offset="0" stop-color="#2f73a0" stop-opacity="0"/><stop offset=".5026" stop-color="#345278" stop-opacity=".503"/><stop offset="1" stop-color="#3a2f4d"/></linearGradient><linearGradient id="SVGID_28_" gradientTransform="matrix(-1 0 0 1 510 0)" gradientUnits="userSpaceOnUse" x1="16.279" x2="80.772" xlink:href="#lg2" y1="369.573" y2="302.009"/><linearGradient id="SVGID_29_" gradientTransform="matrix(-1 0 0 1 510 0)" gradientUnits="userSpaceOnUse" x1="73.464" x2="128.129" xlink:href="#lg2" y1="376.369" y2="327.231"/><linearGradient id="SVGID_30_" gradientTransform="matrix(-1 0 0 1 510 0)" gradientUnits="userSpaceOnUse" x1="146.584" x2="201.25" xlink:href="#lg2" y1="376.369" y2="327.231"/><linearGradient id="SVGID_31_" gradientTransform="matrix(-1 0 0 1 510 0)" gradientUnits="userSpaceOnUse" x1="114.852" x2="141.878" xlink:href="#lg2" y1="330.363" y2="251.743"/><linearGradient id="SVGID_32_" gradientTransform="matrix(-1 0 0 1 510 0)" gradientUnits="userSpaceOnUse" x1="109.247" x2="153.886" xlink:href="#lg2" y1="379.787" y2="339.662"/><linearGradient id="lg3"><stop offset="0" stop-color="#43765a"/><stop offset="1" stop-color="#174461"/></linearGradient><linearGradient id="SVGID_33_" gradientUnits="userSpaceOnUse" x1="364.057" x2="413.296" xlink:href="#lg3" y1="400.789" y2="450.028"/><linearGradient id="lg4"><stop offset="0" stop-color="#1b444f" stop-opacity="0"/><stop offset="1" stop-color="#1b444f"/></linearGradient><linearGradient id="SVGID_34_" gradientUnits="userSpaceOnUse" x1="383.049" x2="414.729" xlink:href="#lg4" y1="407.256" y2="400.814"/><linearGradient id="SVGID_35_" gradientUnits="userSpaceOnUse" x1="389.467" x2="389.467" xlink:href="#lg4" y1="437.725" y2="452.411"/><linearGradient id="lg5"><stop offset="0" stop-color="#798c00"/><stop offset="1" stop-color="#1b444f"/></linearGradient><linearGradient id="SVGID_36_" gradientUnits="userSpaceOnUse" x1="311.395" x2="352.964" xlink:href="#lg5" y1="416.655" y2="458.224"/><linearGradient id="SVGID_37_" gradientUnits="userSpaceOnUse" x1="327.428" x2="354.174" xlink:href="#lg4" y1="422.115" y2="416.677"/><linearGradient id="SVGID_38_" gradientUnits="userSpaceOnUse" x1="332.847" x2="332.847" xlink:href="#lg4" y1="447.838" y2="460.236"/><linearGradient id="SVGID_39_" gradientUnits="userSpaceOnUse" x1="429.021" x2="462.869" xlink:href="#lg5" y1="424.399" y2="458.246"/><linearGradient id="SVGID_40_" gradientUnits="userSpaceOnUse" x1="442.076" x2="463.854" xlink:href="#lg4" y1="428.844" y2="424.416"/><linearGradient id="SVGID_41_" gradientUnits="userSpaceOnUse" x1="446.489" x2="446.489" xlink:href="#lg4" y1="449.789" y2="459.885"/><linearGradient id="SVGID_42_" gradientTransform="matrix(-1 0 0 1 510 0)" gradientUnits="userSpaceOnUse" x1="488.281" x2="414.821" xlink:href="#lg2" y1="372.11" y2="316.868"/><linearGradient id="SVGID_43_" gradientTransform="matrix(-1 0 0 1 510 0)" gradientUnits="userSpaceOnUse" x1="448.691" x2="405.202" xlink:href="#lg2" y1="393.65" y2="358.389"/><linearGradient id="SVGID_44_" gradientTransform="matrix(-1 0 0 1 510 0)" gradientUnits="userSpaceOnUse" x1="429.096" x2="360.925" xlink:href="#lg2" y1="389.57" y2="345.494"/><linearGradient id="SVGID_45_" gradientUnits="userSpaceOnUse" x1="255" x2="255" xlink:href="#lg3" y1="449.061" y2="522.011"/><linearGradient id="SVGID_46_" gradientUnits="userSpaceOnUse" x1="277.876" x2="270.723" xlink:href="#lg4" y1="484.032" y2="406.374"/><linearGradient id="SVGID_47_" gradientUnits="userSpaceOnUse" x1="244.262" x2="283.926" xlink:href="#lg4" y1="446.062" y2="606.769"/><linearGradient id="lg6"><stop offset="0" stop-color="#9da6ac"/><stop offset="1" stop-color="#5a7587"/></linearGradient><linearGradient id="SVGID_48_" gradientUnits="userSpaceOnUse" x1="203.405" x2="204.851" xlink:href="#lg6" y1="324.182" y2="370.428"/><linearGradient id="SVGID_49_" gradientUnits="userSpaceOnUse" x1="203.416" x2="204.826" xlink:href="#lg1" y1="324.527" y2="369.655"/><linearGradient id="SVGID_50_" gradientUnits="userSpaceOnUse" x1="203.438" x2="204.777" xlink:href="#lg6" y1="325.235" y2="368.072"/><linearGradient id="SVGID_51_" gradientUnits="userSpaceOnUse" x1="203.45" x2="204.751" xlink:href="#lg1" y1="325.606" y2="367.241"/><linearGradient id="lg7"><stop offset="0" stop-color="#2f73a0" stop-opacity="0"/><stop offset="1" stop-color="#2f73a0"/></linearGradient><linearGradient id="SVGID_52_" gradientUnits="userSpaceOnUse" x1="203" x2="203" xlink:href="#lg7" y1="337.209" y2="309.209"/><linearGradient id="lg8"><stop offset="0" stop-color="#dfdfdf"/><stop offset="1" stop-color="#9da6ac"/></linearGradient><linearGradient id="SVGID_53_" gradientUnits="userSpaceOnUse" x1="158.615" x2="272.929" xlink:href="#lg8" y1="232.599" y2="346.913"/><linearGradient id="SVGID_54_" gradientUnits="userSpaceOnUse" x1="238.175" x2="159.986" xlink:href="#lg8" y1="329.367" y2="251.178"/><linearGradient id="SVGID_55_" gradientUnits="userSpaceOnUse" x1="190.498" x2="222.142" xlink:href="#lg8" y1="286.736" y2="318.38"/><linearGradient id="SVGID_56_" gradientUnits="userSpaceOnUse" x1="202.81" x2="203.476" xlink:href="#lg8" y1="301.788" y2="323.121"/><linearGradient id="SVGID_57_" gradientUnits="userSpaceOnUse" x1="200.959" x2="203.033" xlink:href="#lg8" y1="389.571" y2="455.918"/><linearGradient id="SVGID_58_" gradientUnits="userSpaceOnUse" x1="242.322" x2="244.294" xlink:href="#lg6" y1="390.496" y2="453.601"/><linearGradient id="SVGID_59_" gradientUnits="userSpaceOnUse" x1="242.328" x2="244.277" xlink:href="#lg1" y1="390.705" y2="453.078"/><linearGradient id="SVGID_60_" gradientUnits="userSpaceOnUse" x1="242.342" x2="244.243" xlink:href="#lg6" y1="391.138" y2="451.994"/><linearGradient id="SVGID_61_" gradientUnits="userSpaceOnUse" x1="201.551" x2="201.551" xlink:href="#lg7" y1="412.209" y2="342.74"/><linearGradient id="SVGID_62_" gradientUnits="userSpaceOnUse" x1="202.81" x2="203.476" xlink:href="#lg8" y1="363.788" y2="385.121"/><linearGradient id="SVGID_63_" gradientUnits="userSpaceOnUse" x1="274.162" x2="235.309" xlink:href="#lg2" y1="200.704" y2="239.557"/><linearGradient id="SVGID_64_" gradientUnits="userSpaceOnUse" x1="297.03" x2="276.53" xlink:href="#lg2" y1="244.459" y2="223.209"/><linearGradient id="SVGID_65_" gradientUnits="userSpaceOnUse" x1="270.625" x2="300.651" xlink:href="#lg6" y1="171.834" y2="201.86"/><linearGradient id="SVGID_66_" gradientTransform="matrix(.707 .707 -.707 .707 146.425 -150.598)" gradientUnits="userSpaceOnUse" x1="337.526" x2="337.526" xlink:href="#lg2" y1="168.575" y2="143.929"/><linearGradient id="SVGID_67_" gradientTransform="matrix(.707 .707 -.707 .707 146.425 -150.598)" gradientUnits="userSpaceOnUse" x1="337.526" x2="337.526" xlink:href="#lg2" y1="107.95" y2="85.95"/><linearGradient id="SVGID_68_" gradientTransform="matrix(.707 .707 -.707 .707 146.425 -150.598)" gradientUnits="userSpaceOnUse" x1="322.779" x2="356.502" xlink:href="#lg8" y1="145.7" y2="145.7"/><linearGradient id="SVGID_69_" gradientTransform="matrix(.707 .707 -.707 .707 146.425 -150.598)" gradientUnits="userSpaceOnUse" x1="337.526" x2="337.526" xlink:href="#lg8" y1="62.867" y2="72.533"/><linearGradient id="SVGID_70_" gradientTransform="matrix(.707 .707 -.707 .707 146.425 -150.598)" gradientUnits="userSpaceOnUse" x1="320.166" x2="359.865" xlink:href="#lg8" y1="81.83" y2="81.83"/><linearGradient id="SVGID_71_" gradientUnits="userSpaceOnUse" x1="49.122" x2="79.729" xlink:href="#lg3" y1="422.353" y2="452.96"/><linearGradient id="SVGID_72_" gradientUnits="userSpaceOnUse" x1="60.928" x2="80.62" xlink:href="#lg4" y1="426.373" y2="422.369"/><linearGradient id="SVGID_73_" gradientUnits="userSpaceOnUse" x1="64.917" x2="64.917" xlink:href="#lg4" y1="445.313" y2="454.442"/><linearGradient id="SVGID_74_" gradientUnits="userSpaceOnUse" x1="79.728" x2="121.297" xlink:href="#lg5" y1="422.655" y2="464.224"/><linearGradient id="SVGID_75_" gradientUnits="userSpaceOnUse" x1="95.762" x2="122.507" xlink:href="#lg4" y1="428.115" y2="422.677"/><linearGradient id="SVGID_76_" gradientUnits="userSpaceOnUse" x1="101.181" x2="101.181" xlink:href="#lg4" y1="453.838" y2="466.236"/><linearGradient id="lg9"><stop offset="0" stop-color="#ff9356" stop-opacity="0"/><stop offset="1" stop-color="#ff755c"/></linearGradient><linearGradient id="SVGID_77_" gradientUnits="userSpaceOnUse" x1="367.321" x2="419.126" xlink:href="#lg9" y1="47.567" y2="-56.043"/><linearGradient id="SVGID_78_" gradientUnits="userSpaceOnUse" x1="358.488" x2="410.293" xlink:href="#lg9" y1="56.4" y2="-47.21"/><linearGradient id="SVGID_79_" gradientTransform="matrix(.933 .361 -.361 .933 122.147 -136.603)" gradientUnits="userSpaceOnUse" x1="361.372" x2="378.092" y1="78.708" y2="95.428"><stop offset="0" stop-color="#ffd945"/><stop offset=".3043" stop-color="#ffcd3e"/><stop offset=".8558" stop-color="#ffad2b"/><stop offset="1" stop-color="#ffa325"/></linearGradient><linearGradient id="SVGID_80_" gradientUnits="userSpaceOnUse" x1="71.736" x2="151.232" y1="89.118" y2="146.116"><stop offset="0" stop-color="#fff5d9"/><stop offset="1" stop-color="#ffce47"/></linearGradient><g><path d="m485.638 510h-461.276c-13.455 0-24.362-10.907-24.362-24.362v-461.276c0-13.455 10.907-24.362 24.362-24.362h461.275c13.456 0 24.363 10.907 24.363 24.362v461.275c0 13.456-10.907 24.363-24.362 24.363z" fill="url(#SVGID_1_)"/><g><circle cx="22.667" cy="20" fill="url(#SVGID_2_)" r="4.5"/><circle cx="32.667" cy="97.167" fill="url(#SVGID_3_)" r="4.5"/><circle cx="27.167" cy="299.333" fill="url(#SVGID_4_)" r="4.5"/><circle cx="256" cy="55.333" fill="url(#SVGID_5_)" r="4.5"/><circle cx="152.667" cy="106.5" fill="url(#SVGID_6_)" r="4.5"/><circle cx="104.667" cy="175.333" fill="url(#SVGID_7_)" r="4.5"/><circle cx="407.5" cy="234.667" fill="url(#SVGID_8_)" r="4.5"/><circle cx="30.667" cy="188" fill="url(#SVGID_9_)" r="4.5"/><circle cx="352.667" cy="263.333" fill="url(#SVGID_10_)" r="4.5"/><circle cx="105.333" cy="21.333" fill="url(#SVGID_11_)" r="4.5"/><circle cx="312" cy="34.667" fill="url(#SVGID_12_)" r="4.5"/><circle cx="372.667" cy="71.333" fill="url(#SVGID_13_)" r="4.5"/><circle cx="462.667" cy="158.667" fill="url(#SVGID_14_)" r="4.5"/><circle cx="387.833" cy="178" fill="url(#SVGID_15_)" r="4.5"/><circle cx="488" cy="88" fill="url(#SVGID_16_)" r="4.5"/><circle cx="169.333" cy="161.333" fill="url(#SVGID_17_)" r="4.5"/><circle cx="488.5" cy="222" fill="url(#SVGID_18_)" r="4.5"/><circle cx="58.667" cy="227.333" fill="url(#SVGID_19_)" r="4.5"/><circle cx="380.667" cy="22" fill="url(#SVGID_20_)" r="4.5"/><circle cx="464" cy="23.333" fill="url(#SVGID_21_)" r="4.5"/><circle cx="456.667" cy="277.333" fill="url(#SVGID_22_)" r="4.5"/><circle cx="216.667" cy="120.833" fill="url(#SVGID_23_)" r="4.5"/><circle cx="277.333" cy="111.333" fill="url(#SVGID_24_)" r="4.5"/><circle cx="387.833" cy="122" fill="url(#SVGID_25_)" r="4.5"/><circle cx="221.333" cy="17.333" fill="url(#SVGID_26_)" r="4.5"/><circle cx="180.667" cy="46.667" fill="url(#SVGID_27_)" r="4.5"/></g><g><path d="m510 291.935v167.495h-23.956v-41.32c-3.861-.049-7.346-1.648-9.855-4.214-2.394-2.443-6.034-3.247-9.182-1.927-2.099.877-4.46 1.262-6.936 1-6.518-.689-11.789-5.993-12.445-12.519-.361-3.583.64-6.928 2.533-9.584l2.246-3.238 8.805-13.437c-2.419-1.886-4.091-4.714-4.411-7.895-.295-2.943.525-5.681 2.082-7.862l1.836-2.656 11.068-16.881c-4.042-.779-7.215-4.189-7.625-8.338-.246-2.419.426-4.673 1.705-6.469l1.517-2.189 26.046-39.73c2.402-3.665 7.764-3.665 10.166 0z" fill="url(#SVGID_28_)"/><path d="m489.338 401.325c-.266-.35-.534-.699-.775-1.067l-8.34-12.721c2.042-1.591 3.449-3.972 3.719-6.66.26-2.584-.5-4.983-1.919-6.855-.218-.287-.438-.573-.635-.874l-10.081-15.377c3.407-.657 6.081-3.533 6.432-7.028.214-2.129-.412-4.104-1.581-5.646-.179-.237-.36-.472-.523-.72l-22.584-34.449c-2.024-3.087-6.55-3.087-8.574 0l-21.969 33.51-1.276 1.846c-1.08 1.513-1.648 3.416-1.443 5.459.351 3.495 3.025 6.371 6.432 7.028l-9.334 14.238-1.549 2.241c-1.311 1.837-2.001 4.147-1.752 6.628.27 2.688 1.676 5.069 3.719 6.66l-7.428 11.331-1.89 2.734c-1.599 2.241-2.441 5.059-2.137 8.085.553 5.505 4.994 9.974 10.496 10.557 2.086.221 4.075-.102 5.845-.844 2.66-1.114 5.729-.436 7.744 1.626 2.116 2.165 5.055 3.514 8.314 3.552v34.849h21.03v-34.849c3.259-.038 6.198-1.387 8.314-3.552 2.016-2.062 5.085-2.741 7.744-1.626 1.77.742 3.759 1.065 5.845.844 5.502-.582 9.943-5.052 10.496-10.557.317-3.153-.609-6.079-2.34-8.363z" fill="url(#SVGID_29_)"/><path d="m416.218 401.325c-.266-.35-.534-.699-.775-1.067l-8.34-12.721c2.042-1.591 3.449-3.972 3.719-6.66.26-2.584-.5-4.983-1.919-6.855-.218-.287-.438-.573-.635-.874l-10.081-15.377c3.407-.657 6.081-3.533 6.432-7.028.214-2.129-.412-4.104-1.581-5.646-.179-.237-.36-.472-.523-.72l-22.584-34.449c-2.024-3.087-6.55-3.087-8.574 0l-21.969 33.51-1.276 1.846c-1.08 1.513-1.648 3.416-1.443 5.459.351 3.495 3.025 6.371 6.432 7.028l-9.334 14.238-1.549 2.241c-1.311 1.837-2.001 4.147-1.752 6.628.27 2.688 1.676 5.069 3.719 6.66l-7.428 11.331-1.89 2.734c-1.599 2.241-2.441 5.059-2.137 8.085.553 5.505 4.994 9.974 10.496 10.557 2.086.221 4.075-.102 5.845-.844 2.66-1.114 5.729-.436 7.744 1.626 2.116 2.165 5.056 3.514 8.314 3.552v34.849h21.03v-34.849c3.259-.038 6.198-1.387 8.314-3.552 2.016-2.062 5.085-2.741 7.744-1.626 1.77.742 3.759 1.065 5.845.844 5.502-.582 9.943-5.052 10.496-10.557.317-3.153-.609-6.079-2.34-8.363z" fill="url(#SVGID_30_)"/><path d="m451.312 377.218c-.266-.35-.534-.699-.775-1.067l-8.34-12.721c2.042-1.591 3.449-3.972 3.719-6.66.26-2.584-.5-4.983-1.919-6.855-.218-.287-.438-.573-.635-.874l-10.081-15.377c3.407-.657 6.081-3.533 6.432-7.028.214-2.129-.412-4.104-1.581-5.646-.179-.236-.36-.472-.523-.72l-22.584-34.449c-2.024-3.087-6.55-3.087-8.574 0l-21.969 33.51-1.276 1.846c-1.08 1.513-1.648 3.416-1.443 5.459.351 3.495 3.025 6.371 6.432 7.028l-9.334 14.238-1.549 2.241c-1.311 1.837-2.001 4.147-1.752 6.628.27 2.688 1.676 5.069 3.719 6.66l-7.428 11.331-1.89 2.734c-1.599 2.241-2.441 5.059-2.137 8.085.553 5.505 4.994 9.974 10.496 10.557 2.086.221 4.075-.102 5.845-.844 2.66-1.114 5.729-.436 7.744 1.626 2.116 2.165 5.055 3.514 8.314 3.552v34.849h21.03v-34.849c3.259-.038 6.198-1.387 8.314-3.552 2.016-2.062 5.085-2.741 7.744-1.626 1.77.742 3.759 1.065 5.845.844 5.502-.582 9.943-5.052 10.496-10.557.317-3.154-.609-6.08-2.34-8.363z" fill="url(#SVGID_31_)"/><path d="m443.87 400.166c-.217-.286-.436-.571-.633-.871l-6.81-10.388c1.668-1.3 2.816-3.243 3.037-5.439.212-2.11-.408-4.069-1.567-5.598-.178-.234-.357-.468-.519-.714l-8.232-12.557c2.782-.537 4.965-2.885 5.252-5.739.175-1.738-.336-3.352-1.291-4.611-.146-.193-.294-.385-.427-.588l-18.442-28.13c-1.653-2.521-5.348-2.521-7.001 0l-17.939 27.364-1.042 1.507c-.882 1.236-1.346 2.789-1.178 4.458.287 2.854 2.47 5.203 5.252 5.739l-7.622 11.626-1.265 1.83c-1.071 1.5-1.634 3.386-1.431 5.412.221 2.195 1.369 4.139 3.037 5.439l-6.066 9.253-1.543 2.232c-1.306 1.83-1.993 4.131-1.745 6.603.452 4.495 4.078 8.145 8.571 8.621 1.704.18 3.328-.083 4.773-.689 2.172-.91 4.678-.356 6.324 1.328 1.728 1.768 4.128 2.87 6.789 2.9v28.457h17.173v-28.457c2.661-.031 5.061-1.133 6.789-2.9 1.646-1.684 4.152-2.238 6.324-1.328 1.445.606 3.069.869 4.773.689 4.493-.475 8.12-4.125 8.571-8.621.258-2.574-.499-4.963-1.912-6.828z" fill="url(#SVGID_32_)"/></g><g><g><g><path d="m410.487 399.976c-2.721 0-5.34.435-7.793 1.236-2.624-8.562-10.591-14.788-20.013-14.788-11.559 0-20.929 9.37-20.929 20.929 0 1.67.197 3.294.566 4.851-9.864.695-17.651 8.917-17.651 18.958 0 10.497 8.51 19.007 19.007 19.007h46.813c13.861 0 25.097-11.236 25.097-25.097s-11.237-25.096-25.097-25.096z" fill="url(#SVGID_33_)"/><path d="m385.389 425.074c0 1.018.061 2.021.18 3.007-.944.133-1.909.201-2.889.201-11.559 0-20.928-9.371-20.928-20.93 0-11.557 9.369-20.928 20.928-20.928 9.422 0 17.39 6.226 20.013 14.788-10.045 3.277-17.304 12.721-17.304 23.862z" fill="url(#SVGID_34_)"/><path d="m344.813 433.529c1.165 9.381 9.164 16.641 18.861 16.641h46.813c10.893 0 20.164-6.941 23.635-16.641z" fill="url(#SVGID_35_)"/></g></g></g><g><g><g><path d="m350.592 415.969c-2.297 0-4.508.367-6.579 1.043-2.216-7.228-8.941-12.484-16.895-12.484-9.758 0-17.669 7.911-17.669 17.669 0 1.41.166 2.781.478 4.096-8.328.587-14.902 7.528-14.902 16.005 0 8.862 7.184 16.046 16.046 16.046h39.521c11.702 0 21.187-9.486 21.187-21.187.001-11.702-9.485-21.188-21.187-21.188z" fill="url(#SVGID_36_)"/><path d="m329.404 437.158c0 .859.052 1.706.152 2.539-.797.112-1.612.169-2.439.169-9.758 0-17.668-7.911-17.668-17.67 0-9.757 7.909-17.668 17.668-17.668 7.954 0 14.681 5.256 16.896 12.485-8.48 2.766-14.609 10.739-14.609 20.145z" fill="url(#SVGID_37_)"/><path d="m295.149 444.295c.983 7.919 7.737 14.049 15.923 14.049h39.521c9.197 0 17.023-5.86 19.953-14.049z" fill="url(#SVGID_38_)"/></g></g></g><g><g><g><path d="m460.938 423.84c-1.87 0-3.671.299-5.357.849-1.804-5.886-7.28-10.165-13.757-10.165-7.946 0-14.387 6.441-14.387 14.387 0 1.148.135 2.264.389 3.335-6.781.478-12.134 6.13-12.134 13.032 0 7.216 5.85 13.066 13.066 13.066h32.18c9.528 0 17.252-7.724 17.252-17.252s-7.724-17.252-17.252-17.252z" fill="url(#SVGID_39_)"/><path d="m443.685 441.093c0 .7.042 1.389.123 2.067-.649.091-1.312.138-1.986.138-7.946 0-14.386-6.442-14.386-14.388 0-7.944 6.44-14.386 14.386-14.386 6.477 0 11.954 4.28 13.757 10.166-6.904 2.252-11.894 8.745-11.894 16.403z" fill="url(#SVGID_40_)"/><path d="m415.792 446.905c.801 6.448 6.3 11.439 12.965 11.439h32.18c7.488 0 13.861-4.771 16.247-11.439z" fill="url(#SVGID_41_)"/></g></g></g><g><path d="m0 314.887v136.813h19.568v-33.751c3.154-.04 6-1.346 8.049-3.442 1.955-1.996 4.929-2.652 7.5-1.574 1.714.717 3.643 1.031 5.665.817 5.324-.563 9.63-4.895 10.166-10.226.295-2.927-.522-5.659-2.069-7.828l-1.835-2.645-7.192-10.976c1.976-1.54 3.342-3.851 3.603-6.449.241-2.404-.429-4.641-1.701-6.422l-1.5-2.17-9.041-13.788c3.301-.636 5.893-3.422 6.228-6.81.201-1.976-.348-3.817-1.393-5.284l-1.239-1.788-21.275-32.452c-1.962-2.993-6.342-2.993-8.304 0z" fill="url(#SVGID_42_)"/><path d="m24.849 409.783c.192-.253.385-.504.559-.77l6.017-9.177c-1.473-1.148-2.488-2.865-2.683-4.805-.187-1.864.361-3.595 1.384-4.945.157-.207.316-.413.458-.631l7.273-11.093c-2.458-.474-4.387-2.549-4.64-5.07-.154-1.536.297-2.961 1.14-4.073.129-.171.26-.34.377-.52l16.293-24.852c1.46-2.227 4.725-2.227 6.185 0l15.849 24.175.921 1.332c.779 1.092 1.189 2.464 1.041 3.938-.253 2.522-2.182 4.596-4.64 5.07l6.734 10.271 1.118 1.617c.946 1.325 1.444 2.991 1.264 4.781-.195 1.939-1.209 3.657-2.683 4.805l5.359 8.174 1.364 1.972c1.154 1.617 1.761 3.65 1.542 5.833-.399 3.971-3.603 7.196-7.572 7.616-1.505.159-2.94-.074-4.217-.609-1.919-.804-4.133-.314-5.587 1.173-1.526 1.562-3.647 2.535-5.998 2.562v25.14h-15.173v-25.14c-2.351-.027-4.472-1.001-5.998-2.562-1.454-1.488-3.668-1.977-5.587-1.173-1.277.535-2.712.768-4.217.609-3.969-.42-7.173-3.644-7.572-7.616-.229-2.273.44-4.385 1.689-6.032z" fill="url(#SVGID_43_)"/><path d="m54.224 398.282c.2-.264.402-.526.584-.804l6.282-9.582c-1.538-1.199-2.598-2.992-2.801-5.017-.196-1.947.377-3.753 1.445-5.163.164-.216.33-.432.478-.659l7.594-11.583c-2.566-.495-4.58-2.661-4.845-5.294-.161-1.603.31-3.092 1.191-4.253.135-.178.271-.355.394-.542l17.011-25.948c1.525-2.326 4.933-2.326 6.458 0l16.548 25.241.961 1.39c.813 1.14 1.241 2.573 1.087 4.112-.264 2.633-2.278 4.799-4.845 5.294l7.031 10.724 1.167 1.688c.988 1.384 1.507 3.124 1.32 4.992-.203 2.025-1.263 3.818-2.801 5.017l5.595 8.535 1.424 2.059c1.205 1.688 1.839 3.811 1.61 6.09-.417 4.147-3.762 7.513-7.906 7.952-1.572.166-3.07-.077-4.403-.636-2.003-.839-4.315-.328-5.833 1.225-1.594 1.631-3.808 2.647-6.263 2.675v26.25h-15.841v-26.25c-2.455-.028-4.669-1.045-6.263-2.675-1.518-1.553-3.83-2.064-5.833-1.225-1.333.559-2.831.802-4.403.636-4.144-.439-7.49-3.805-7.906-7.952-.239-2.373.459-4.577 1.763-6.297z" fill="url(#SVGID_44_)"/></g><g><path d="m510 485.638v-37.658h-510v37.658c0 13.455 10.907 24.362 24.362 24.362h461.275c13.456 0 24.363-10.907 24.363-24.362z" fill="url(#SVGID_45_)"/><path d="m39.11 447.979 62.02 62.02h384.546c13.438-.021 24.324-10.919 24.324-24.361v-37.659z" fill="url(#SVGID_46_)"/><path d="m509.716 489.365h-126.775c-1.885-5.699-7.053-9.903-13.273-10.341.294-1.239.451-2.532.451-3.861 0-9.199-7.458-16.657-16.657-16.657-7.499 0-13.839 4.955-15.928 11.769-1.953-.637-4.037-.983-6.203-.983-7.794 0-14.528 4.474-17.82 10.985-1.252-.579-2.641-.912-4.111-.912-4.416 0-8.149 2.918-9.379 6.93-1.15-.375-2.377-.579-3.652-.579-3.347 0-6.36 1.405-8.502 3.649h-287.583c1.794 11.686 11.891 20.635 24.078 20.635h445.638c6.774 0 12.991-.068 18.704-.199 10.78-1.354 19.371-9.747 21.012-20.436z" fill="url(#SVGID_47_)"/></g><g><g><path d="m320.842 363.876h-235.684l-8.825-52.667h253.334z" fill="url(#SVGID_48_)"/><path d="m298.359 363.876h-190.718l-7.141-52.667h205z" fill="url(#SVGID_49_)"/><path d="m252.307 363.876h-98.614l-3.693-52.667h106z" fill="url(#SVGID_50_)"/><path d="m228.119 363.876h-50.238l-1.881-52.667h54z" fill="url(#SVGID_51_)"/></g><path d="m82.617 348.709h240.766l6.284-37.5h-253.334z" fill="url(#SVGID_52_)"/><g><path d="m331.234 303.542h-256.468c0-70.822 57.412-128.234 128.234-128.234s128.234 57.412 128.234 128.234z" fill="url(#SVGID_53_)"/><g><path d="m262.65 303.542h-119.3c3.24-30.08 28.71-53.5 59.65-53.5s56.41 23.42 59.65 53.5z" fill="url(#SVGID_54_)"/><path d="m237.39 303.542h-68.78c3.04-16.23 17.28-28.5 34.39-28.5s31.35 12.27 34.39 28.5z" fill="url(#SVGID_55_)"/></g><path d="m328.013 317.876h-250.026c-3.859 0-6.987-3.128-6.987-6.987v-6.026c0-3.859 3.128-6.987 6.987-6.987h250.026c3.859 0 6.987 3.128 6.987 6.987v6.026c0 3.858-3.128 6.987-6.987 6.987z" fill="url(#SVGID_56_)"/></g><path d="m80.435 369.028h242.231v78.952h-242.231z" fill="url(#SVGID_57_)"/><path d="m189.42 369.028h106.929v78.952h-106.929z" fill="url(#SVGID_58_)"/><path d="m204.683 369.028h76.403v78.952h-76.403z" fill="url(#SVGID_59_)"/><path d="m236.338 369.028h13.093v78.952h-13.093z" fill="url(#SVGID_60_)"/><path d="m80.435 369.028v10.95l68.003 68.002h174.229v-78.952z" fill="url(#SVGID_61_)"/><path d="m328.013 379.876h-250.026c-3.859 0-6.987-3.128-6.987-6.987v-6.026c0-3.859 3.128-6.987 6.987-6.987h250.026c3.859 0 6.987 3.128 6.987 6.987v6.026c0 3.858-3.128 6.987-6.987 6.987z" fill="url(#SVGID_62_)"/><path d="m206 175.346v15.505c0 6.411 4.62 11.806 10.917 13.007 22.383 4.269 41.173 18.652 51.439 38.211 2.294 4.371 6.788 7.14 11.724 7.14h39.097c-20.053-42.806-63.059-72.712-113.177-73.863z" fill="url(#SVGID_63_)"/><path d="m280.081 249.209h39.097c-7.814-16.678-19.124-31.385-32.969-43.209l-25 25c2.695 3.458 5.094 7.158 7.147 11.069 2.295 4.371 6.789 7.14 11.725 7.14z" fill="url(#SVGID_64_)"/><g><path d="m340.4 168.109-48.05 43.47-27.35 24.74c-7.3-11.29-17.6-20.46-29.77-26.38l20.91-23.12 48.91-54.06z" fill="url(#SVGID_65_)"/><path d="m275.247 227.055 21.904-19.815-31.231-31.231-19.815 21.904z" fill="url(#SVGID_66_)"/><path d="m287.359 152.311 33.491 33.49 19.552-17.688-35.355-35.355z" fill="url(#SVGID_67_)"/><path d="m294.425 212.174-33.438-33.438c-1.05-1.05-1.05-2.753 0-3.803l4.918-4.918c1.05-1.05 2.753-1.05 3.803 0l33.438 33.438c1.05 1.05 1.05 2.752 0 3.803l-4.918 4.918c-1.051 1.05-2.753 1.05-3.803 0z" fill="url(#SVGID_68_)"/><path d="m342.973 165.533-35.345-35.345c-1.11-1.11-1.11-2.909 0-4.019l9.266-9.266c1.11-1.11 2.909-1.11 4.019 0l35.345 35.345c1.11 1.11 1.11 2.909 0 4.019l-9.266 9.266c-1.11 1.11-2.909 1.11-4.019 0z" fill="url(#SVGID_69_)"/><path d="m339.513 173.012-39.364-39.364c-1.236-1.236-1.236-3.24 0-4.476l10.32-10.32c1.236-1.236 3.24-1.236 4.476 0l39.364 39.364c1.236 1.236 1.236 3.24 0 4.476l-10.32 10.32c-1.236 1.236-3.24 1.236-4.476 0z" fill="url(#SVGID_70_)"/></g></g><g><g><g><g><path d="m77.983 421.848c-1.691 0-3.319.27-4.844.768-1.631-5.322-6.583-9.192-12.44-9.192-7.185 0-13.01 5.825-13.01 13.01 0 1.038.122 2.048.352 3.016-6.132.432-10.972 5.543-10.972 11.785 0 6.525 5.29 11.815 11.815 11.815h29.099c8.616 0 15.6-6.984 15.6-15.6s-6.984-15.602-15.6-15.602z" fill="url(#SVGID_71_)"/><path d="m62.383 437.449c0 .633.038 1.256.112 1.869-.587.083-1.187.125-1.796.125-7.185 0-13.009-5.825-13.009-13.01 0-7.184 5.824-13.009 13.009-13.009 5.857 0 10.81 3.87 12.44 9.192-6.244 2.037-10.756 7.908-10.756 14.833z" fill="url(#SVGID_72_)"/><path d="m37.16 442.705c.724 5.831 5.697 10.344 11.724 10.344h29.099c6.771 0 12.534-4.315 14.692-10.344z" fill="url(#SVGID_73_)"/></g></g></g><g><g><g><path d="m118.926 421.969c-2.297 0-4.508.367-6.579 1.043-2.216-7.228-8.941-12.484-16.895-12.484-9.758 0-17.669 7.911-17.669 17.669 0 1.41.166 2.781.478 4.096-8.328.587-14.902 7.528-14.902 16.005 0 8.862 7.184 16.046 16.046 16.046h39.521c11.702 0 21.187-9.486 21.187-21.187 0-11.702-9.486-21.188-21.187-21.188z" fill="url(#SVGID_74_)"/><path d="m97.738 443.158c0 .859.052 1.706.152 2.539-.797.112-1.612.169-2.439.169-9.758 0-17.668-7.911-17.668-17.67 0-9.757 7.909-17.668 17.668-17.668 7.954 0 14.681 5.256 16.896 12.485-8.481 2.766-14.609 10.739-14.609 20.145z" fill="url(#SVGID_75_)"/><path d="m63.482 450.295c.983 7.919 7.737 14.049 15.923 14.049h39.521c9.197 0 17.023-5.86 19.953-14.049z" fill="url(#SVGID_76_)"/></g></g></g></g><path d="m441 56.542s-43.311-45.333-133.667-45.333c0 0 84.334 125.333 133.667 45.333z" fill="url(#SVGID_77_)"/><path d="m432.167 65.376s-43.311-45.333-133.667-45.333c0-.001 84.333 125.333 133.667 45.333z" fill="url(#SVGID_78_)"/><path d="m444.337 60.888.314 3.51c.15 1.677 1.116 3.172 2.582 3.999l3.069 1.731c3.693 2.082 3.394 7.495-.505 9.159l-3.241 1.383c-1.548.661-2.672 2.041-3.006 3.691l-.698 3.454c-.839 4.155-6.079 5.544-8.867 2.351l-2.317-2.655c-1.107-1.268-2.767-1.911-4.44-1.718l-3.5.404c-4.211.486-7.152-4.069-4.976-7.707l1.809-3.024c.864-1.445.962-3.222.262-4.753l-1.466-3.204c-1.763-3.855 1.659-8.059 5.792-7.114l3.435.786c1.641.375 3.362-.081 4.601-1.22l2.595-2.384c3.123-2.868 8.179-.911 8.557 3.311z" fill="url(#SVGID_79_)"/><path d="m78.404 27.258c-7.274-.276-14.298.614-20.906 2.494-5.379 1.53-6.8 8.533-2.424 12.016 15.402 12.262 25.279 31.166 25.279 52.384 0 21.221-9.88 40.128-25.286 52.389-4.345 3.458-2.995 10.459 2.345 11.986 5.844 1.671 12.014 2.568 18.395 2.568 37.995 0 68.597-31.653 66.874-70.028-1.553-34.549-29.719-62.495-64.277-63.809z" fill="url(#SVGID_80_)"/></g></svg>