

<svg id="Capa_1" enable-background="new 0 0 514.608 514.608" height="512" viewBox="0 0 514.608 514.608" width="512" xmlns="http://www.w3.org/2000/svg" xmlns:xlink="http://www.w3.org/1999/xlink"><linearGradient id="lg1"><stop offset="0" stop-color="#c7e9ff"/><stop offset=".3556" stop-color="#a3e6f2"/><stop offset="1" stop-color="#65e0db"/></linearGradient><linearGradient id="SVGID_1_" gradientUnits="userSpaceOnUse" x1="257.304" x2="257.304" xlink:href="#lg1" y1="34.721" y2="483.763"/><linearGradient id="lg2"><stop offset="0" stop-color="#18cefb" stop-opacity="0"/><stop offset="1" stop-color="#0469bb"/></linearGradient><linearGradient id="SVGID_2_" gradientUnits="userSpaceOnUse" x1="415.166" x2="435.833" xlink:href="#lg2" y1="369.297" y2="321.963"/><linearGradient id="SVGID_3_" gradientUnits="userSpaceOnUse" x1="167.252" x2="167.252" xlink:href="#lg2" y1="420.42" y2="329.184"/><linearGradient id="SVGID_4_" gradientUnits="userSpaceOnUse" x1="281.661" x2="289.661" xlink:href="#lg1" y1="356.506" y2="401.839"/><linearGradient id="SVGID_5_" gradientUnits="userSpaceOnUse" x1="88.083" x2="98.119" xlink:href="#lg1" y1="335.027" y2="391.899"/><linearGradient id="SVGID_6_" gradientUnits="userSpaceOnUse" x1="125.304" x2="125.304" y1="395.795" y2="440.15"><stop offset="0" stop-color="#798c00"/><stop offset="1" stop-color="#1b444f"/></linearGradient><linearGradient id="lg3"><stop offset="0" stop-color="#bada00"/><stop offset=".2187" stop-color="#b6d600"/><stop offset=".4501" stop-color="#acc900"/><stop offset=".6873" stop-color="#9ab400"/><stop offset=".9271" stop-color="#829700"/><stop offset="1" stop-color="#798c00"/></linearGradient><linearGradient id="SVGID_7_" gradientTransform="matrix(-1 0 0 1 -1613.392 0)" gradientUnits="userSpaceOnUse" x1="-2016.99" x2="-1993.769" xlink:href="#lg3" y1="343.285" y2="411.655"/><linearGradient id="lg4"><stop offset="0" stop-color="#ffd945"/><stop offset=".3043" stop-color="#ffcd3e"/><stop offset=".8558" stop-color="#ffad2b"/><stop offset="1" stop-color="#ffa325"/></linearGradient><linearGradient id="SVGID_8_" gradientUnits="userSpaceOnUse" x1="64.701" x2="149.587" xlink:href="#lg4" y1="64.149" y2="149.035"/><linearGradient id="lg5"><stop offset="0" stop-color="#edf5ff"/><stop offset="1" stop-color="#c7e9ff"/></linearGradient><linearGradient id="SVGID_9_" gradientUnits="userSpaceOnUse" x1="112.314" x2="187.829" xlink:href="#lg5" y1="193.427" y2="268.942"/><linearGradient id="SVGID_10_" gradientUnits="userSpaceOnUse" x1="213.357" x2="244.98" xlink:href="#lg5" y1="47.052" y2="78.676"/><linearGradient id="SVGID_11_" gradientUnits="userSpaceOnUse" x1="432.871" x2="483.13" xlink:href="#lg5" y1="32.027" y2="82.286"/><linearGradient id="SVGID_12_" gradientUnits="userSpaceOnUse" x1="269.204" x2="396.998" xlink:href="#lg5" y1="145.825" y2="273.619"/><linearGradient id="SVGID_13_" gradientTransform="matrix(-1 0 0 -1 514.608 -2740.79)" gradientUnits="userSpaceOnUse" x1="126.843" x2="243.203" xlink:href="#lg5" y1="-3005.17" y2="-2888.811"/><linearGradient id="lg6"><stop offset="0" stop-color="#2f73a0" stop-opacity="0"/><stop offset="1" stop-color="#2f73a0"/></linearGradient><linearGradient id="SVGID_14_" gradientUnits="userSpaceOnUse" x1="207.751" x2="202.204" xlink:href="#lg6" y1="212.502" y2="166.389"/><linearGradient id="SVGID_15_" gradientUnits="userSpaceOnUse" x1="288.933" x2="269.863" xlink:href="#lg6" y1="329.547" y2="321.572"/><linearGradient id="SVGID_16_" gradientUnits="userSpaceOnUse" x1="260.312" x2="240.55" xlink:href="#lg6" y1="315.954" y2="297.578"/><linearGradient id="SVGID_17_" gradientUnits="userSpaceOnUse" x1="392.58" x2="341.266" xlink:href="#lg6" y1="350.495" y2="309.929"/><linearGradient id="SVGID_18_" gradientUnits="userSpaceOnUse" x1="402.084" x2="345.569" xlink:href="#lg6" y1="106.583" y2="71.565"/><linearGradient id="SVGID_19_" gradientUnits="userSpaceOnUse" x1="458.967" x2="457.58" xlink:href="#lg6" y1="208.156" y2="177.992"/><linearGradient id="SVGID_20_" gradientUnits="userSpaceOnUse" x1="353.258" x2="255.651" y1="449.842" y2="204.54"><stop offset="0" stop-color="#2f73a0"/><stop offset="1" stop-color="#3a2f4d"/></linearGradient><linearGradient id="SVGID_21_" gradientUnits="userSpaceOnUse" x1="317.521" x2="364.094" xlink:href="#lg5" y1="207.881" y2="207.881"/><linearGradient id="SVGID_22_" gradientUnits="userSpaceOnUse" x1="340.619" x2="323.776" xlink:href="#lg6" y1="267.899" y2="225.57"/><linearGradient id="SVGID_23_" gradientUnits="userSpaceOnUse" x1="340.154" x2="324.879" xlink:href="#lg6" y1="138.717" y2="100.329"/><linearGradient id="SVGID_24_" gradientTransform="matrix(.494 .869 -.869 .494 -186.358 830.294)" gradientUnits="userSpaceOnUse" x1="-299.046" x2="-252.473" xlink:href="#lg5" y1="-757.58" y2="-757.58"/><linearGradient id="SVGID_25_" gradientUnits="userSpaceOnUse" x1="252.823" x2="241.447" xlink:href="#lg6" y1="262.893" y2="234.303"/><linearGradient id="SVGID_26_" gradientTransform="matrix(-.494 .869 .869 .494 -1427.034 830.294)" gradientUnits="userSpaceOnUse" x1="-1423.752" x2="-1377.179" xlink:href="#lg5" y1="1221.01" y2="1221.01"/><linearGradient id="SVGID_27_" gradientUnits="userSpaceOnUse" x1="266.21" x2="235.352" xlink:href="#lg6" y1="170.586" y2="155.33"/><linearGradient id="SVGID_28_" gradientUnits="userSpaceOnUse" x1="390.883" x2="348.931" xlink:href="#lg6" y1="208.666" y2="177.462"/><linearGradient id="SVGID_29_" gradientUnits="userSpaceOnUse" x1="383.816" x2="360.472" xlink:href="#lg6" y1="238.205" y2="223.874"/><linearGradient id="SVGID_30_" gradientUnits="userSpaceOnUse" x1="312.534" x2="351.098" xlink:href="#lg4" y1="189.155" y2="227.719"/><linearGradient id="SVGID_31_" gradientTransform="matrix(-1 0 0 -1 -1613.392 510)" gradientUnits="userSpaceOnUse" x1="-1959.711" x2="-1928.701" xlink:href="#lg4" y1="287.06" y2="318.07"/><linearGradient id="SVGID_32_" gradientUnits="userSpaceOnUse" x1="319.967" x2="343.225" xlink:href="#lg4" y1="196.587" y2="219.845"/><linearGradient id="lg7"><stop offset="0" stop-color="#ff7044"/><stop offset="1" stop-color="#f82814"/></linearGradient><linearGradient id="SVGID_33_" gradientUnits="userSpaceOnUse" x1="310.51" x2="369.354" xlink:href="#lg7" y1="56.785" y2="115.628"/><linearGradient id="SVGID_34_" gradientUnits="userSpaceOnUse" x1="331.261" x2="331.261" y1="109.629" y2="116.581"><stop offset="0" stop-color="#f82814" stop-opacity="0"/><stop offset="1" stop-color="#c0272d"/></linearGradient><linearGradient id="SVGID_35_" gradientUnits="userSpaceOnUse" x1="336.162" x2="321.878" xlink:href="#lg7" y1="95.774" y2="25.239"/><linearGradient id="SVGID_36_" gradientUnits="userSpaceOnUse" x1="327.283" x2="336.65" xlink:href="#lg5" y1="56.933" y2="85.033"/><linearGradient id="SVGID_37_" gradientUnits="userSpaceOnUse" x1="330.772" x2="332.368" xlink:href="#lg7" y1="42.985" y2="47.774"/><linearGradient id="SVGID_38_" gradientUnits="userSpaceOnUse" x1="331.261" x2="331.261" xlink:href="#lg7" y1="112.236" y2="105.827"/><linearGradient id="SVGID_39_" gradientUnits="userSpaceOnUse" x1="331.261" x2="331.261" xlink:href="#lg7" y1="105.828" y2="99.419"/><linearGradient id="SVGID_40_" gradientUnits="userSpaceOnUse" x1="331.261" x2="331.261" xlink:href="#lg7" y1="99.42" y2="93.011"/><linearGradient id="lg8"><stop offset="0" stop-color="#18cefb"/><stop offset="1" stop-color="#4a97f6"/></linearGradient><linearGradient id="SVGID_41_" gradientUnits="userSpaceOnUse" x1="426.033" x2="484.876" xlink:href="#lg8" y1="126.264" y2="185.108"/><linearGradient id="SVGID_42_" gradientUnits="userSpaceOnUse" x1="446.784" x2="446.784" y1="179.108" y2="186.06"><stop offset="0" stop-color="#4a97f6" stop-opacity="0"/><stop offset="1" stop-color="#0469bb"/></linearGradient><linearGradient id="SVGID_43_" gradientUnits="userSpaceOnUse" x1="451.684" x2="437.401" xlink:href="#lg8" y1="165.253" y2="94.718"/><linearGradient id="SVGID_44_" gradientUnits="userSpaceOnUse" x1="442.806" x2="452.173" xlink:href="#lg5" y1="126.412" y2="154.512"/><linearGradient id="SVGID_45_" gradientUnits="userSpaceOnUse" x1="446.294" x2="447.891" xlink:href="#lg8" y1="112.464" y2="117.253"/><linearGradient id="SVGID_46_" gradientUnits="userSpaceOnUse" x1="446.784" x2="446.784" xlink:href="#lg8" y1="181.715" y2="175.307"/><linearGradient id="SVGID_47_" gradientUnits="userSpaceOnUse" x1="446.784" x2="446.784" xlink:href="#lg8" y1="175.307" y2="168.898"/><linearGradient id="SVGID_48_" gradientUnits="userSpaceOnUse" x1="446.784" x2="446.784" xlink:href="#lg8" y1="168.899" y2="162.49"/><linearGradient id="SVGID_49_" gradientUnits="userSpaceOnUse" x1="310.51" x2="369.354" xlink:href="#lg4" y1="318.342" y2="377.186"/><linearGradient id="SVGID_50_" gradientUnits="userSpaceOnUse" x1="331.261" x2="331.261" y1="371.186" y2="378.138"><stop offset="0" stop-color="#e87264" stop-opacity="0"/><stop offset=".6519" stop-color="#f67150" stop-opacity=".652"/><stop offset="1" stop-color="#ff7044"/></linearGradient><linearGradient id="SVGID_51_" gradientUnits="userSpaceOnUse" x1="336.162" x2="321.878" xlink:href="#lg4" y1="357.331" y2="286.796"/><linearGradient id="SVGID_52_" gradientUnits="userSpaceOnUse" x1="327.283" x2="336.65" xlink:href="#lg5" y1="318.49" y2="346.59"/><linearGradient id="SVGID_53_" gradientUnits="userSpaceOnUse" x1="330.772" x2="332.368" xlink:href="#lg4" y1="304.542" y2="309.331"/><linearGradient id="SVGID_54_" gradientUnits="userSpaceOnUse" x1="331.261" x2="331.261" xlink:href="#lg4" y1="373.793" y2="367.384"/><linearGradient id="SVGID_55_" gradientUnits="userSpaceOnUse" x1="331.261" x2="331.261" xlink:href="#lg4" y1="367.385" y2="360.976"/><linearGradient id="SVGID_56_" gradientUnits="userSpaceOnUse" x1="331.261" x2="331.261" xlink:href="#lg4" y1="360.977" y2="354.568"/><linearGradient id="lg9"><stop offset="0" stop-color="#d3145a"/><stop offset="1" stop-color="#9d005d"/></linearGradient><linearGradient id="SVGID_57_" gradientUnits="userSpaceOnUse" x1="194.988" x2="253.831" xlink:href="#lg9" y1="248.863" y2="307.706"/><linearGradient id="lg10"><stop offset="0" stop-color="#843561" stop-opacity="0"/><stop offset=".6525" stop-color="#503153" stop-opacity=".653"/><stop offset="1" stop-color="#3a2f4d"/></linearGradient><linearGradient id="SVGID_58_" gradientUnits="userSpaceOnUse" x1="215.738" x2="215.738" xlink:href="#lg10" y1="301.707" y2="314.109"/><linearGradient id="SVGID_59_" gradientUnits="userSpaceOnUse" x1="220.639" x2="206.356" xlink:href="#lg9" y1="287.852" y2="217.316"/><linearGradient id="SVGID_60_" gradientUnits="userSpaceOnUse" x1="211.761" x2="221.128" xlink:href="#lg5" y1="249.011" y2="277.111"/><linearGradient id="SVGID_61_" gradientUnits="userSpaceOnUse" x1="215.249" x2="216.846" xlink:href="#lg9" y1="235.063" y2="239.852"/><linearGradient id="SVGID_62_" gradientUnits="userSpaceOnUse" x1="215.739" x2="215.739" xlink:href="#lg9" y1="304.314" y2="297.905"/><linearGradient id="SVGID_63_" gradientUnits="userSpaceOnUse" x1="215.739" x2="215.739" xlink:href="#lg9" y1="297.906" y2="291.497"/><linearGradient id="SVGID_64_" gradientUnits="userSpaceOnUse" x1="215.739" x2="215.739" xlink:href="#lg9" y1="291.498" y2="285.089"/><linearGradient id="lg11"><stop offset="0" stop-color="#ffe0ea"/><stop offset="1" stop-color="#ff80ab"/></linearGradient><linearGradient id="SVGID_65_" gradientUnits="userSpaceOnUse" x1="194.988" x2="253.831" xlink:href="#lg11" y1="126.264" y2="185.108"/><linearGradient id="SVGID_66_" gradientUnits="userSpaceOnUse" x1="215.738" x2="215.738" y1="179.108" y2="186.06"><stop offset="0" stop-color="#ff4181" stop-opacity="0"/><stop offset="1" stop-color="#ff4181"/></linearGradient><linearGradient id="SVGID_67_" gradientUnits="userSpaceOnUse" x1="220.639" x2="206.356" xlink:href="#lg11" y1="165.253" y2="94.718"/><linearGradient id="SVGID_68_" gradientUnits="userSpaceOnUse" x1="211.761" x2="221.128" xlink:href="#lg5" y1="126.412" y2="154.512"/><linearGradient id="SVGID_69_" gradientUnits="userSpaceOnUse" x1="215.249" x2="216.846" xlink:href="#lg11" y1="112.464" y2="117.253"/><linearGradient id="SVGID_70_" gradientUnits="userSpaceOnUse" x1="215.739" x2="215.739" xlink:href="#lg11" y1="181.715" y2="175.307"/><linearGradient id="SVGID_71_" gradientUnits="userSpaceOnUse" x1="215.739" x2="215.739" xlink:href="#lg11" y1="175.307" y2="168.898"/><linearGradient id="SVGID_72_" gradientUnits="userSpaceOnUse" x1="215.739" x2="215.739" xlink:href="#lg11" y1="168.899" y2="162.49"/><linearGradient id="SVGID_73_" gradientUnits="userSpaceOnUse" x1="426.033" x2="484.876" xlink:href="#lg3" y1="248.863" y2="307.706"/><linearGradient id="lg12"><stop offset="0" stop-color="#43765a" stop-opacity="0"/><stop offset="1" stop-color="#43765a"/></linearGradient><linearGradient id="SVGID_74_" gradientUnits="userSpaceOnUse" x1="446.784" x2="446.784" xlink:href="#lg12" y1="301.707" y2="308.659"/><linearGradient id="SVGID_75_" gradientUnits="userSpaceOnUse" x1="451.684" x2="437.401" xlink:href="#lg3" y1="287.852" y2="217.316"/><linearGradient id="SVGID_76_" gradientUnits="userSpaceOnUse" x1="442.806" x2="452.173" xlink:href="#lg5" y1="249.011" y2="277.111"/><linearGradient id="SVGID_77_" gradientUnits="userSpaceOnUse" x1="446.294" x2="447.891" xlink:href="#lg3" y1="235.063" y2="239.852"/><linearGradient id="SVGID_78_" gradientUnits="userSpaceOnUse" x1="446.784" x2="446.784" xlink:href="#lg3" y1="304.314" y2="297.905"/><linearGradient id="SVGID_79_" gradientUnits="userSpaceOnUse" x1="446.784" x2="446.784" xlink:href="#lg3" y1="297.906" y2="291.497"/><linearGradient id="SVGID_80_" gradientUnits="userSpaceOnUse" x1="446.784" x2="446.784" xlink:href="#lg3" y1="291.498" y2="285.089"/><linearGradient id="SVGID_81_" gradientUnits="userSpaceOnUse" x1="405.677" x2="458.427" xlink:href="#lg3" y1="381.304" y2="434.054"/><linearGradient id="SVGID_82_" gradientUnits="userSpaceOnUse" x1="426.023" x2="459.962" xlink:href="#lg12" y1="388.232" y2="381.331"/><linearGradient id="SVGID_83_" gradientUnits="userSpaceOnUse" x1="432.899" x2="432.899" xlink:href="#lg12" y1="420.874" y2="436.607"/><linearGradient id="SVGID_84_" gradientUnits="userSpaceOnUse" x1="257.304" x2="257.304" xlink:href="#lg3" y1="391.699" y2="539.066"/><linearGradient id="SVGID_85_" gradientUnits="userSpaceOnUse" x1="238.701" x2="275.701" xlink:href="#lg12" y1="406.965" y2="539.965"/><linearGradient id="SVGID_86_" gradientUnits="userSpaceOnUse" x1="21.591" x2="42.111" xlink:href="#lg9" y1="408.305" y2="408.305"/><linearGradient id="SVGID_87_" gradientUnits="userSpaceOnUse" x1="40.102" x2="31.211" xlink:href="#lg10" y1="344.211" y2="306.241"/><linearGradient id="SVGID_88_" gradientUnits="userSpaceOnUse" x1="71.457" x2="91.978" xlink:href="#lg9" y1="403.205" y2="403.205"/><linearGradient id="SVGID_89_" gradientUnits="userSpaceOnUse" x1="89.969" x2="81.078" xlink:href="#lg10" y1="334.011" y2="296.041"/><linearGradient id="SVGID_90_" gradientUnits="userSpaceOnUse" x1="121.324" x2="141.844" xlink:href="#lg9" y1="407.738" y2="407.738"/><linearGradient id="SVGID_91_" gradientUnits="userSpaceOnUse" x1="139.835" x2="130.945" xlink:href="#lg10" y1="343.078" y2="305.107"/><linearGradient id="SVGID_92_" gradientUnits="userSpaceOnUse" x1="171.191" x2="191.711" xlink:href="#lg9" y1="419.921" y2="419.921"/><linearGradient id="SVGID_93_" gradientUnits="userSpaceOnUse" x1="189.702" x2="180.811" xlink:href="#lg10" y1="367.444" y2="329.474"/><linearGradient id="SVGID_94_" gradientUnits="userSpaceOnUse" x1="221.057" x2="241.578" xlink:href="#lg9" y1="438.338" y2="438.338"/><linearGradient id="SVGID_95_" gradientUnits="userSpaceOnUse" x1="239.569" x2="230.678" xlink:href="#lg10" y1="404.278" y2="366.307"/><linearGradient id="SVGID_96_" gradientUnits="userSpaceOnUse" x1="270.924" x2="291.444" xlink:href="#lg9" y1="462.138" y2="462.138"/><linearGradient id="SVGID_97_" gradientUnits="userSpaceOnUse" x1="289.435" x2="280.545" xlink:href="#lg10" y1="451.878" y2="413.907"/><linearGradient id="SVGID_98_" gradientUnits="userSpaceOnUse" x1="320.791" x2="341.311" xlink:href="#lg9" y1="482.821" y2="482.821"/><linearGradient id="SVGID_99_" gradientUnits="userSpaceOnUse" x1="339.302" x2="330.411" xlink:href="#lg10" y1="493.244" y2="455.274"/><linearGradient id="SVGID_100_" gradientUnits="userSpaceOnUse" x1="370.657" x2="391.178" xlink:href="#lg9" y1="493.305" y2="493.305"/><linearGradient id="SVGID_101_" gradientUnits="userSpaceOnUse" x1="389.169" x2="380.278" xlink:href="#lg10" y1="514.211" y2="476.241"/><linearGradient id="SVGID_102_" gradientUnits="userSpaceOnUse" x1="420.524" x2="441.044" xlink:href="#lg9" y1="495.005" y2="495.005"/><linearGradient id="SVGID_103_" gradientUnits="userSpaceOnUse" x1="439.035" x2="430.145" xlink:href="#lg10" y1="517.611" y2="479.641"/><linearGradient id="SVGID_104_" gradientUnits="userSpaceOnUse" x1="470.391" x2="490.911" xlink:href="#lg9" y1="489.905" y2="489.905"/><linearGradient id="SVGID_105_" gradientUnits="userSpaceOnUse" x1="488.902" x2="480.011" xlink:href="#lg10" y1="507.411" y2="469.441"/><linearGradient id="SVGID_106_" gradientUnits="userSpaceOnUse" x1="277.55" x2="219.75" xlink:href="#lg7" y1="348.722" y2="431.455"/><linearGradient id="SVGID_107_" gradientUnits="userSpaceOnUse" x1="204.424" x2="245.224" xlink:href="#lg7" y1="422.717" y2="380.406"/><g><path d="m487.942 510h-461.276c-13.455 0-24.362-10.907-24.362-24.362v-461.276c0-13.455 10.908-24.362 24.362-24.362h461.275c13.455 0 24.362 10.907 24.362 24.362v461.275c.001 13.456-10.906 24.363-24.361 24.363z" fill="url(#SVGID_1_)"/><g><path d="m287.638 410.206 75.168-62.902c21.125-17.677 47.009-17.744 68.176-.174l75.989 63.076z" fill="url(#SVGID_2_)"/><path d="m32.866 410.206 92.111-51.697c25.886-14.529 57.605-14.583 83.542-.143l93.117 51.84z" fill="url(#SVGID_3_)"/><g><path d="m335.977 367.737h-26.496c-8.378 0-16.414-2.746-22.338-7.633-12.337-10.177-32.339-10.177-44.676 0l-60.738 50.102h218.818l-42.232-34.837c-5.925-4.887-13.96-7.632-22.338-7.632z" fill="url(#SVGID_4_)"/></g><g><path d="m138.899 349.245h-22.189c-7.016 0-13.745-3.941-18.706-10.956-10.331-14.608-27.081-14.608-37.413 0l-50.862 71.917h183.242l-35.366-50.006c-4.961-7.014-11.69-10.955-18.706-10.955z" fill="url(#SVGID_5_)"/></g></g><path d="m248.304 442.417s-95.768-91.285-246-55.827v55.827z" fill="url(#SVGID_6_)"/><path d="m227.556 442.417s110.853-93.802 284.748-57.366v57.366z" fill="url(#SVGID_7_)"/><circle cx="86.034" cy="85.483" fill="url(#SVGID_8_)" r="66.943"/><g><path d="m170.991 200.775h-10.262c0-12.845-10.413-23.259-23.259-23.259h-45.876c-12.845 0-23.259 10.413-23.259 23.259s10.413 23.259 23.259 23.259h10.262c0 12.845 10.413 23.259 23.259 23.259h45.876c12.845 0 23.259-10.413 23.259-23.259 0-12.845-10.414-23.259-23.259-23.259z" fill="url(#SVGID_9_)"/><path d="m235.794 69.693h-28.981c-8.115 0-14.693-6.578-14.693-14.693 0-8.115 6.578-14.693 14.693-14.693h28.981c8.115 0 14.693 6.578 14.693 14.693 0 8.115-6.578 14.693-14.693 14.693z" fill="url(#SVGID_10_)"/><path d="m468.531 68.01h-46.059c-12.897 0-23.351-10.455-23.351-23.351 0-12.897 10.455-23.351 23.351-23.351h46.059c12.897 0 23.351 10.455 23.351 23.351 0 12.896-10.454 23.351-23.351 23.351z" fill="url(#SVGID_11_)"/></g><g><g><path d="m331.261 65.407c-78.686 0-142.474 63.788-142.474 142.474s63.788 142.474 142.474 142.474 142.474-63.788 142.474-142.474-63.788-142.474-142.474-142.474zm0 257.993c-63.798 0-115.519-51.721-115.519-115.519 0-63.807 51.721-115.528 115.519-115.528s115.519 51.721 115.519 115.528c0 63.798-51.721 115.519-115.519 115.519z" fill="url(#SVGID_12_)"/><path d="m331.261 337.6c71.648 0 129.728-58.08 129.728-129.728 0-71.639-58.08-129.718-129.728-129.718s-129.728 58.08-129.728 129.718c0 71.648 58.08 129.728 129.728 129.728zm0-245.247c63.798 0 115.519 51.721 115.519 115.519 0 63.807-51.721 115.528-115.519 115.528s-115.519-51.721-115.519-115.528c0-63.798 51.721-115.519 115.519-115.519z" fill="url(#SVGID_13_)"/><path d="m215.742 207.881c0-8.823.993-17.412 2.866-25.668h-27.51c-.319 1.754-.601 3.52-.855 5.296l25.623 25.623c-.078-1.741-.124-3.49-.124-5.251z" fill="url(#SVGID_14_)"/><path d="m296.243 317.99c-7.86-2.498-15.357-5.809-22.388-9.843l-8.886 25.867c9.806 5.164 20.284 9.222 31.274 11.999z" fill="url(#SVGID_15_)"/><path d="m274.118 308.294c-8.795-5.016-16.865-11.155-24.02-18.221l-19.061 19.061c10.01 9.909 21.482 18.34 34.063 24.949z" fill="url(#SVGID_16_)"/><path d="m371.592 316.157c-2.202.821-4.436 1.575-6.7 2.263v27.931c9.493-2.298 18.614-5.543 27.258-9.636z" fill="url(#SVGID_17_)"/><path d="m361.772 68.693v27.741c23.662 6.464 44.293 20.26 59.305 38.799h15.412l-63.658-63.658c-3.627-1.104-7.316-2.065-11.059-2.882z" fill="url(#SVGID_18_)"/><path d="m445.246 189.064 28.175 28.175c.201-3.094.314-6.212.314-9.357 0-10.601-1.168-20.928-3.364-30.869h-27.768c1.089 3.936 1.972 7.957 2.643 12.051z" fill="url(#SVGID_19_)"/></g><path d="m428.85 419.748c-4.644 1.55-9.665-.958-11.215-5.602l-69.41-207.943c-2.475-6.703-9.279-11.2-16.964-11.2-7.686 0-14.489 4.496-16.964 11.199l-69.41 207.943c-1.55 4.644-6.571 7.152-11.215 5.602-4.644-1.55-7.152-6.571-5.602-11.215l69.522-208.273c4.978-13.749 18.509-22.986 33.668-22.986s28.689 9.237 33.668 22.986l.074.211 69.449 208.062c1.551 4.645-.957 9.666-5.601 11.216z" fill="url(#SVGID_20_)"/><g><path d="m318.56 69.223h25.402v277.316h-25.402z" fill="url(#SVGID_21_)"/><path d="m343.962 239.794h-25.402v9.174l25.402 25.402z" fill="url(#SVGID_22_)"/><path d="m343.962 113.861h-25.402v5.013l25.402 25.402z" fill="url(#SVGID_23_)"/><path d="m216.994 287.445-12.553-22.084 241.087-137.043 12.553 22.084z" fill="url(#SVGID_24_)"/><path d="m246.471 270.689 24.586-13.92-18.63-18.63-24.586 13.92z" fill="url(#SVGID_25_)"/><path d="m445.528 287.445 12.553-22.084-241.087-137.043-12.553 22.084z" fill="url(#SVGID_26_)"/><path d="m247.009 174.599 29.818 16.949v-29.219l-29.818-16.949z" fill="url(#SVGID_27_)"/></g><path d="m368.227 201.478 11.092-6.305-18.63-18.629-11.092 6.305z" fill="url(#SVGID_28_)"/><path d="m366.198 213.131-18.63 18.63 34.1 19.384c6.701-6.701 13.94-13.94 18.63-18.63z" fill="url(#SVGID_29_)"/><circle cx="331.261" cy="207.881" fill="url(#SVGID_30_)" r="42.994"/><circle cx="331.261" cy="207.881" fill="url(#SVGID_31_)" r="34.572"/><circle cx="331.261" cy="207.881" fill="url(#SVGID_32_)" r="25.929"/><g><g><g><path d="m369.897 45.132c-.868-5.711-5.791-9.926-11.568-9.926h-54.135c-5.777 0-10.701 4.214-11.568 9.926-3.319 21.847-3.229 43.844.272 65.682.756 4.719 4.839 8.185 9.619 8.185h57.491c4.779 0 8.862-3.466 9.619-8.185 3.498-21.838 3.589-43.835.27-65.682z" fill="url(#SVGID_33_)"/><path d="m291.716 102.374c.338 2.815.731 5.629 1.181 8.44.756 4.719 4.839 8.185 9.619 8.185h57.491c4.779 0 8.862-3.466 9.619-8.185.451-2.811.844-5.624 1.181-8.44z" fill="url(#SVGID_34_)"/><path d="m366.393 48.924c-.79-5.21-5.254-9.069-10.524-9.069h-49.215c-5.27 0-9.734 3.859-10.524 9.069-1.742 11.481-2.446 23.008-2.116 34.526.082 2.866 2.445 5.14 5.312 5.14h63.871c2.867 0 5.23-2.274 5.312-5.14.33-11.518-.375-23.045-2.116-34.526z" fill="url(#SVGID_35_)"/><path d="m364.236 81.244c-.072 2.538-2.165 4.551-4.703 4.551h-56.546c-2.538 0-4.631-2.014-4.703-4.551-.293-10.197.33-20.402 1.872-30.565.7-4.613 4.653-8.03 9.318-8.03h9.462c1.766 0 3.198 1.432 3.198 3.198 0 1.766 1.432 3.198 3.198 3.198h11.853c1.766 0 3.198-1.432 3.198-3.198 0-1.766 1.432-3.198 3.198-3.198h9.462c4.665 0 8.618 3.416 9.318 8.03 1.545 10.163 2.168 20.368 1.875 30.565z" fill="url(#SVGID_36_)"/><path d="m337.158 47.556h-11.794c-.96 0-1.738-.778-1.738-1.738v-2.731c0-.96.778-1.738 1.738-1.738h11.794c.96 0 1.738.778 1.738 1.738v2.731c0 .96-.778 1.738-1.738 1.738z" fill="url(#SVGID_37_)"/><g><path d="m346.948 111.367h-31.374c-1.2 0-2.173-.973-2.173-2.173 0-1.2.973-2.173 2.173-2.173h31.374c1.2 0 2.173.973 2.173 2.173-.001 1.2-.973 2.173-2.173 2.173z" fill="url(#SVGID_38_)"/><path d="m346.948 104.959h-31.374c-1.2 0-2.173-.973-2.173-2.173 0-1.2.973-2.173 2.173-2.173h31.374c1.2 0 2.173.973 2.173 2.173-.001 1.2-.973 2.173-2.173 2.173z" fill="url(#SVGID_39_)"/><path d="m346.948 98.551h-31.374c-1.2 0-2.173-.973-2.173-2.173 0-1.2.973-2.173 2.173-2.173h31.374c1.2 0 2.173.973 2.173 2.173-.001 1.2-.973 2.173-2.173 2.173z" fill="url(#SVGID_40_)"/></g></g></g><g><g><path d="m485.419 114.611c-.868-5.711-5.791-9.926-11.568-9.926h-54.135c-5.777 0-10.701 4.214-11.568 9.926-3.319 21.847-3.229 43.844.272 65.682.756 4.719 4.839 8.185 9.619 8.185h57.491c4.779 0 8.862-3.466 9.619-8.185 3.499-21.838 3.59-43.834.27-65.682z" fill="url(#SVGID_41_)"/><path d="m407.238 171.854c.338 2.815.731 5.629 1.181 8.44.756 4.719 4.839 8.185 9.619 8.185h57.491c4.779 0 8.862-3.466 9.619-8.185.451-2.811.844-5.624 1.181-8.44z" fill="url(#SVGID_42_)"/><path d="m481.915 118.404c-.79-5.21-5.254-9.069-10.524-9.069h-49.215c-5.27 0-9.734 3.859-10.524 9.069-1.742 11.481-2.446 23.008-2.116 34.526.082 2.866 2.445 5.14 5.312 5.14h63.871c2.867 0 5.23-2.274 5.312-5.14.33-11.518-.374-23.045-2.116-34.526z" fill="url(#SVGID_43_)"/><path d="m479.759 150.724c-.072 2.538-2.165 4.551-4.703 4.551h-56.546c-2.538 0-4.631-2.014-4.703-4.551-.293-10.197.33-20.402 1.872-30.565.7-4.613 4.653-8.03 9.318-8.03h9.462c1.766 0 3.198 1.432 3.198 3.198 0 1.766 1.432 3.198 3.198 3.198h11.853c1.766 0 3.198-1.432 3.198-3.198 0-1.766 1.432-3.198 3.198-3.198h9.462c4.665 0 8.618 3.416 9.318 8.03 1.545 10.163 2.168 20.367 1.875 30.565z" fill="url(#SVGID_44_)"/><path d="m452.68 117.035h-11.794c-.96 0-1.738-.778-1.738-1.738v-2.731c0-.96.778-1.738 1.738-1.738h11.794c.96 0 1.738.778 1.738 1.738v2.731c.001.96-.778 1.738-1.738 1.738z" fill="url(#SVGID_45_)"/><g><path d="m462.47 180.846h-31.374c-1.2 0-2.173-.973-2.173-2.173 0-1.2.973-2.173 2.173-2.173h31.374c1.2 0 2.173.973 2.173 2.173 0 1.201-.973 2.173-2.173 2.173z" fill="url(#SVGID_46_)"/><path d="m462.47 174.438h-31.374c-1.2 0-2.173-.973-2.173-2.173 0-1.2.973-2.173 2.173-2.173h31.374c1.2 0 2.173.973 2.173 2.173 0 1.2-.973 2.173-2.173 2.173z" fill="url(#SVGID_47_)"/><path d="m462.47 168.03h-31.374c-1.2 0-2.173-.973-2.173-2.173 0-1.2.973-2.173 2.173-2.173h31.374c1.2 0 2.173.973 2.173 2.173 0 1.2-.973 2.173-2.173 2.173z" fill="url(#SVGID_48_)"/></g></g></g><g><g><path d="m369.897 306.689c-.868-5.711-5.791-9.926-11.568-9.926h-54.135c-5.777 0-10.701 4.214-11.568 9.926-3.319 21.847-3.229 43.844.272 65.682.756 4.719 4.839 8.185 9.619 8.185h57.491c4.779 0 8.862-3.466 9.619-8.185 3.498-21.838 3.589-43.835.27-65.682z" fill="url(#SVGID_49_)"/><path d="m291.716 363.932c.338 2.815.731 5.629 1.181 8.44.756 4.719 4.839 8.185 9.619 8.185h57.491c4.779 0 8.862-3.466 9.619-8.185.451-2.811.844-5.624 1.181-8.44z" fill="url(#SVGID_50_)"/><path d="m366.393 310.481c-.79-5.21-5.254-9.069-10.524-9.069h-49.215c-5.27 0-9.734 3.859-10.524 9.069-1.742 11.481-2.446 23.008-2.116 34.526.082 2.866 2.445 5.14 5.312 5.14h63.871c2.867 0 5.23-2.274 5.312-5.14.33-11.517-.375-23.044-2.116-34.526z" fill="url(#SVGID_51_)"/><path d="m364.236 342.802c-.072 2.538-2.165 4.551-4.703 4.551h-56.546c-2.538 0-4.631-2.014-4.703-4.551-.293-10.197.33-20.402 1.872-30.565.7-4.613 4.653-8.03 9.318-8.03h9.462c1.766 0 3.198 1.432 3.198 3.198 0 1.766 1.432 3.198 3.198 3.198h11.853c1.766 0 3.198-1.432 3.198-3.198 0-1.766 1.432-3.198 3.198-3.198h9.462c4.665 0 8.618 3.416 9.318 8.03 1.545 10.162 2.168 20.367 1.875 30.565z" fill="url(#SVGID_52_)"/><path d="m337.158 309.113h-11.794c-.96 0-1.738-.778-1.738-1.738v-2.731c0-.96.778-1.738 1.738-1.738h11.794c.96 0 1.738.778 1.738 1.738v2.731c0 .96-.778 1.738-1.738 1.738z" fill="url(#SVGID_53_)"/><g><path d="m346.948 372.924h-31.374c-1.2 0-2.173-.973-2.173-2.173 0-1.2.973-2.173 2.173-2.173h31.374c1.2 0 2.173.973 2.173 2.173-.001 1.201-.973 2.173-2.173 2.173z" fill="url(#SVGID_54_)"/><path d="m346.948 366.516h-31.374c-1.2 0-2.173-.973-2.173-2.173 0-1.2.973-2.173 2.173-2.173h31.374c1.2 0 2.173.973 2.173 2.173-.001 1.2-.973 2.173-2.173 2.173z" fill="url(#SVGID_55_)"/><path d="m346.948 360.108h-31.374c-1.2 0-2.173-.973-2.173-2.173 0-1.2.973-2.173 2.173-2.173h31.374c1.2 0 2.173.973 2.173 2.173-.001 1.2-.973 2.173-2.173 2.173z" fill="url(#SVGID_56_)"/></g></g></g><g><g><path d="m254.374 237.21c-.868-5.711-5.791-9.926-11.568-9.926h-54.135c-5.777 0-10.701 4.214-11.568 9.926-3.319 21.847-3.229 43.844.272 65.682.756 4.719 4.839 8.185 9.619 8.185h57.491c4.779 0 8.862-3.466 9.619-8.185 3.499-21.838 3.59-43.835.27-65.682z" fill="url(#SVGID_57_)"/><path d="m176.193 294.452c.338 2.815.731 5.629 1.181 8.44.756 4.719 4.839 8.185 9.619 8.185h57.491c4.779 0 8.862-3.466 9.619-8.185.451-2.811.844-5.624 1.181-8.44z" fill="url(#SVGID_58_)"/><path d="m250.87 241.002c-.79-5.21-5.254-9.069-10.524-9.069h-49.215c-5.27 0-9.734 3.859-10.524 9.069-1.742 11.481-2.446 23.008-2.116 34.526.082 2.866 2.445 5.14 5.312 5.14h63.871c2.867 0 5.23-2.274 5.312-5.14.33-11.518-.374-23.045-2.116-34.526z" fill="url(#SVGID_59_)"/><path d="m248.714 273.322c-.072 2.538-2.165 4.551-4.703 4.551h-56.546c-2.538 0-4.631-2.014-4.703-4.551-.293-10.197.33-20.402 1.872-30.565.7-4.613 4.653-8.03 9.318-8.03h9.462c1.766 0 3.198 1.432 3.198 3.198 0 1.766 1.432 3.198 3.198 3.198h11.853c1.766 0 3.198-1.432 3.198-3.198 0-1.766 1.432-3.198 3.198-3.198h9.462c4.665 0 8.618 3.416 9.318 8.03 1.545 10.163 2.168 20.368 1.875 30.565z" fill="url(#SVGID_60_)"/><path d="m221.635 239.634h-11.794c-.96 0-1.738-.778-1.738-1.738v-2.731c0-.96.778-1.738 1.738-1.738h11.794c.96 0 1.738.778 1.738 1.738v2.731c0 .96-.778 1.738-1.738 1.738z" fill="url(#SVGID_61_)"/><g><path d="m231.425 303.445h-31.374c-1.2 0-2.173-.973-2.173-2.173 0-1.2.973-2.173 2.173-2.173h31.374c1.2 0 2.173.973 2.173 2.173 0 1.2-.973 2.173-2.173 2.173z" fill="url(#SVGID_62_)"/><path d="m231.425 297.037h-31.374c-1.2 0-2.173-.973-2.173-2.173 0-1.2.973-2.173 2.173-2.173h31.374c1.2 0 2.173.973 2.173 2.173 0 1.2-.973 2.173-2.173 2.173z" fill="url(#SVGID_63_)"/><path d="m231.425 290.629h-31.374c-1.2 0-2.173-.973-2.173-2.173 0-1.2.973-2.173 2.173-2.173h31.374c1.2 0 2.173.973 2.173 2.173 0 1.2-.973 2.173-2.173 2.173z" fill="url(#SVGID_64_)"/></g></g></g><g><g><path d="m254.374 114.611c-.868-5.711-5.791-9.926-11.568-9.926h-54.135c-5.777 0-10.701 4.214-11.568 9.926-3.319 21.847-3.229 43.844.272 65.682.756 4.719 4.839 8.185 9.619 8.185h57.491c4.779 0 8.862-3.466 9.619-8.185 3.499-21.838 3.59-43.834.27-65.682z" fill="url(#SVGID_65_)"/><path d="m176.193 171.854c.338 2.815.731 5.629 1.181 8.44.756 4.719 4.839 8.185 9.619 8.185h57.491c4.779 0 8.862-3.466 9.619-8.185.451-2.811.844-5.624 1.181-8.44z" fill="url(#SVGID_66_)"/><path d="m250.87 118.404c-.79-5.21-5.254-9.069-10.524-9.069h-49.215c-5.27 0-9.734 3.859-10.524 9.069-1.742 11.481-2.446 23.008-2.116 34.526.082 2.866 2.445 5.14 5.312 5.14h63.871c2.867 0 5.23-2.274 5.312-5.14.33-11.518-.374-23.045-2.116-34.526z" fill="url(#SVGID_67_)"/><path d="m248.714 150.724c-.072 2.538-2.165 4.551-4.703 4.551h-56.546c-2.538 0-4.631-2.014-4.703-4.551-.293-10.197.33-20.402 1.872-30.565.7-4.613 4.653-8.03 9.318-8.03h9.462c1.766 0 3.198 1.432 3.198 3.198 0 1.766 1.432 3.198 3.198 3.198h11.853c1.766 0 3.198-1.432 3.198-3.198 0-1.766 1.432-3.198 3.198-3.198h9.462c4.665 0 8.618 3.416 9.318 8.03 1.545 10.163 2.168 20.367 1.875 30.565z" fill="url(#SVGID_68_)"/><path d="m221.635 117.035h-11.794c-.96 0-1.738-.778-1.738-1.738v-2.731c0-.96.778-1.738 1.738-1.738h11.794c.96 0 1.738.778 1.738 1.738v2.731c0 .96-.778 1.738-1.738 1.738z" fill="url(#SVGID_69_)"/><g><path d="m231.425 180.846h-31.374c-1.2 0-2.173-.973-2.173-2.173 0-1.2.973-2.173 2.173-2.173h31.374c1.2 0 2.173.973 2.173 2.173 0 1.201-.973 2.173-2.173 2.173z" fill="url(#SVGID_70_)"/><path d="m231.425 174.438h-31.374c-1.2 0-2.173-.973-2.173-2.173 0-1.2.973-2.173 2.173-2.173h31.374c1.2 0 2.173.973 2.173 2.173 0 1.2-.973 2.173-2.173 2.173z" fill="url(#SVGID_71_)"/><path d="m231.425 168.03h-31.374c-1.2 0-2.173-.973-2.173-2.173 0-1.2.973-2.173 2.173-2.173h31.374c1.2 0 2.173.973 2.173 2.173 0 1.2-.973 2.173-2.173 2.173z" fill="url(#SVGID_72_)"/></g></g></g><g><g><path d="m485.419 237.21c-.868-5.711-5.791-9.926-11.568-9.926h-54.135c-5.777 0-10.701 4.214-11.568 9.926-3.319 21.847-3.229 43.844.272 65.682.756 4.719 4.839 8.185 9.619 8.185h57.491c4.779 0 8.862-3.466 9.619-8.185 3.499-21.838 3.59-43.835.27-65.682z" fill="url(#SVGID_73_)"/><path d="m407.238 294.452c.338 2.815.731 5.629 1.181 8.44.756 4.719 4.839 8.185 9.619 8.185h57.491c4.779 0 8.862-3.466 9.619-8.185.451-2.811.844-5.624 1.181-8.44z" fill="url(#SVGID_74_)"/><path d="m481.915 241.002c-.79-5.21-5.254-9.069-10.524-9.069h-49.215c-5.27 0-9.734 3.859-10.524 9.069-1.742 11.481-2.446 23.008-2.116 34.526.082 2.866 2.445 5.14 5.312 5.14h63.871c2.867 0 5.23-2.274 5.312-5.14.33-11.518-.374-23.045-2.116-34.526z" fill="url(#SVGID_75_)"/><path d="m479.759 273.322c-.072 2.538-2.165 4.551-4.703 4.551h-56.546c-2.538 0-4.631-2.014-4.703-4.551-.293-10.197.33-20.402 1.872-30.565.7-4.613 4.653-8.03 9.318-8.03h9.462c1.766 0 3.198 1.432 3.198 3.198 0 1.766 1.432 3.198 3.198 3.198h11.853c1.766 0 3.198-1.432 3.198-3.198 0-1.766 1.432-3.198 3.198-3.198h9.462c4.665 0 8.618 3.416 9.318 8.03 1.545 10.163 2.168 20.368 1.875 30.565z" fill="url(#SVGID_76_)"/><path d="m452.68 239.634h-11.794c-.96 0-1.738-.778-1.738-1.738v-2.731c0-.96.778-1.738 1.738-1.738h11.794c.96 0 1.738.778 1.738 1.738v2.731c.001.96-.778 1.738-1.738 1.738z" fill="url(#SVGID_77_)"/><g><path d="m462.47 303.445h-31.374c-1.2 0-2.173-.973-2.173-2.173 0-1.2.973-2.173 2.173-2.173h31.374c1.2 0 2.173.973 2.173 2.173 0 1.2-.973 2.173-2.173 2.173z" fill="url(#SVGID_78_)"/><path d="m462.47 297.037h-31.374c-1.2 0-2.173-.973-2.173-2.173 0-1.2.973-2.173 2.173-2.173h31.374c1.2 0 2.173.973 2.173 2.173 0 1.2-.973 2.173-2.173 2.173z" fill="url(#SVGID_79_)"/><path d="m462.47 290.629h-31.374c-1.2 0-2.173-.973-2.173-2.173 0-1.2.973-2.173 2.173-2.173h31.374c1.2 0 2.173.973 2.173 2.173 0 1.2-.973 2.173-2.173 2.173z" fill="url(#SVGID_80_)"/></g></g></g></g></g><g><g><g><path d="m455.418 380.433c-2.915 0-5.721.466-8.349 1.324-2.811-9.172-11.346-15.842-21.44-15.842-12.383 0-22.422 10.039-22.422 22.422 0 1.789.211 3.529.607 5.197-10.568.745-18.91 9.553-18.91 20.31 0 11.246 9.117 20.362 20.362 20.362h50.152c14.849 0 26.887-12.037 26.887-26.887-.001-14.848-12.038-26.886-26.887-26.886z" fill="url(#SVGID_81_)"/><path d="m428.531 407.321c0 1.091.066 2.165.192 3.222-1.011.143-2.045.215-3.095.215-12.383 0-22.42-10.039-22.42-22.422 0-12.381 10.037-22.42 22.42-22.42 10.093 0 18.63 6.67 21.44 15.843-10.761 3.508-18.537 13.627-18.537 25.562z" fill="url(#SVGID_82_)"/><path d="m385.061 416.379c1.248 10.05 9.818 17.828 20.206 17.828h50.152c11.67 0 21.602-7.436 25.32-17.828z" fill="url(#SVGID_83_)"/></g></g></g><path d="m512.304 409.698h-510v75.94c0 13.421 10.853 24.305 24.261 24.36h461.479c13.408-.055 24.261-10.939 24.261-24.36v-75.94z" fill="url(#SVGID_84_)"/><path d="m290.171 453.196c2.142-2.244 5.155-3.648 8.502-3.648 1.275 0 2.503.204 3.652.579 1.23-4.012 4.964-6.93 9.379-6.93 1.47 0 2.859.332 4.111.912 3.291-6.51 10.025-10.984 17.82-10.984 2.166 0 4.25.346 6.203.983 2.089-6.814 8.429-11.768 15.928-11.768 9.2 0 16.657 7.457 16.657 16.656 0 1.329-.157 2.622-.451 3.861 6.219.438 11.388 4.642 13.273 10.34h97.059v38.806c0 9.94-8.059 17.999-18 17.999h-414c-9.941 0-18-8.058-18-17.999v-38.806h257.867z" fill="url(#SVGID_85_)"/><g><g><g><path d="m22.467 306.609h20.875v203.391h-20.875z" fill="url(#SVGID_86_)"/><path d="m43.342 306.609h-20.875v13.724l20.875 20.875z" fill="url(#SVGID_87_)"/></g><g><path d="m72.333 296.409h20.875v213.591h-20.875z" fill="url(#SVGID_88_)"/><path d="m93.208 296.409h-20.875v13.724l20.875 20.875z" fill="url(#SVGID_89_)"/></g><g><path d="m122.2 305.476h20.875v204.524h-20.875z" fill="url(#SVGID_90_)"/><path d="m143.075 305.476h-20.875v13.724l20.875 20.875z" fill="url(#SVGID_91_)"/></g><g><path d="m172.067 329.843h20.875v180.157h-20.875z" fill="url(#SVGID_92_)"/><path d="m192.942 329.843h-20.875v13.724l20.875 20.875z" fill="url(#SVGID_93_)"/></g><g><path d="m221.933 366.676h20.875v143.324h-20.875z" fill="url(#SVGID_94_)"/><path d="m242.808 366.676h-20.875v13.724l20.875 20.875z" fill="url(#SVGID_95_)"/></g><g><path d="m271.8 414.276h20.875v95.724h-20.875z" fill="url(#SVGID_96_)"/><path d="m292.675 414.276h-20.875v13.724l20.875 20.875z" fill="url(#SVGID_97_)"/></g><g><path d="m321.667 455.643h20.875v54.357h-20.875z" fill="url(#SVGID_98_)"/><path d="m342.542 455.643h-20.875v13.724l20.875 20.875z" fill="url(#SVGID_99_)"/></g><g><path d="m371.533 476.609h20.875v33.391h-20.875z" fill="url(#SVGID_100_)"/><path d="m392.408 476.609h-20.875v13.724l20.875 20.875z" fill="url(#SVGID_101_)"/></g><g><path d="m421.4 480.009h20.875v29.991h-20.875z" fill="url(#SVGID_102_)"/><path d="m442.275 480.009h-20.875v13.724l20.875 20.875z" fill="url(#SVGID_103_)"/></g><g><path d="m471.267 469.809h20.875v40.191h-20.875z" fill="url(#SVGID_104_)"/><path d="m492.142 469.809h-20.875v13.724l20.875 20.875z" fill="url(#SVGID_105_)"/></g></g><g><path d="m512.304 416.763c-5.308 5.729-13.667 13.164-24.877 20.488-13.747 8.98-35.806 20.44-62.825 24.037-41.876 5.567-80.869-9.621-115.902-45.157-51.444-52.185-95.328-88.078-134.161-109.73-35.567-19.832-68.808-29.069-104.613-29.069-28.844 0-51.273 7.7-67.622 16.641v41.028c10.05-8.905 32.066-23.669 67.622-23.669 30.182 0 57.339 7.638 88.055 24.764 35.976 20.06 77.357 54.048 126.506 103.904 44.079 44.714 88.973 56.374 123.806 56.373 7.423 0 14.391-.53 20.795-1.382 31.77-4.228 61.174-18.011 83.217-33.562v-44.666z" fill="url(#SVGID_106_)"/><path d="m487.427 437.251c-13.747 8.98-35.806 20.44-62.825 24.037-41.876 5.567-80.869-9.621-115.902-45.157-51.444-52.185-95.328-88.078-134.161-109.73-35.567-19.832-68.808-29.069-104.613-29.069-28.844 0-51.273 7.7-67.622 16.641v21.383c10.05-8.905 32.066-23.669 67.622-23.669 30.182 0 57.339 7.638 88.055 24.764 35.976 20.06 77.357 54.048 126.506 103.904 44.079 44.714 88.973 56.374 123.806 56.373 7.423 0 14.391-.53 20.795-1.382 31.77-4.228 61.174-18.011 83.217-33.562v-25.021c-5.309 5.729-13.667 13.165-24.878 20.488z" fill="url(#SVGID_107_)"/></g></g></g></svg>