<!--
  - Copyright (c) 2023. Selldone® Business OS™
  -
  - Author: M.Pajuhaan
  - Web: https://selldone.com
  - ━━━━━━━━━━━━━━━━━━━━━━━━━━━━━━━━━━━━━━━━━━━━━━━━━━━━━━
  -
  - All rights reserved. In the weave of time, where traditions and innovations intermingle, this content was crafted.
  - From the essence of thought, through the corridors of creativity, each word, and sentiment has been molded.
  - Not just to exist, but to inspire. Like an artist's stroke or a sculptor's chisel, every nuance is deliberate.
  - Our journey is not just about reaching a destination, but about creating a masterpiece.
  - Tread carefully, for you're treading on dreams.
  -->

<svg id="Capa_1" enable-background="new 0 0 510 510" height="512" viewBox="0 0 510 510" width="512" xmlns="http://www.w3.org/2000/svg" xmlns:xlink="http://www.w3.org/1999/xlink"><linearGradient id="SVGID_1_" gradientUnits="userSpaceOnUse" x1="255" x2="255" y1="34.721" y2="483.763"><stop offset="0" stop-color="#c7e9ff"/><stop offset=".3556" stop-color="#a3e6f2"/><stop offset="1" stop-color="#65e0db"/></linearGradient><linearGradient id="lg1"><stop offset="0" stop-color="#edf5ff"/><stop offset="1" stop-color="#c7e9ff"/></linearGradient><linearGradient id="SVGID_2_" gradientTransform="matrix(-1 0 0 -1 2850.242 -4760.764)" gradientUnits="userSpaceOnUse" x1="2716.033" x2="2606.377" xlink:href="#lg1" y1="-4765.397" y2="-4875.053"/><linearGradient id="SVGID_3_" gradientUnits="userSpaceOnUse" x1="66.126" x2="127.716" xlink:href="#lg1" y1="45.796" y2="107.386"/><linearGradient id="lg2"><stop offset="0" stop-color="#c6b198"/><stop offset="1" stop-color="#988575"/></linearGradient><linearGradient id="SVGID_4_" gradientUnits="userSpaceOnUse" x1="255" x2="255" xlink:href="#lg2" y1="174.925" y2="401.419"/><linearGradient id="lg3"><stop offset="0" stop-color="#3a2f4d" stop-opacity="0"/><stop offset="1" stop-color="#3a2f4d"/></linearGradient><linearGradient id="SVGID_5_" gradientUnits="userSpaceOnUse" x1="508" x2="440.814" xlink:href="#lg3" y1="366.333" y2="366.333"/><linearGradient id="SVGID_6_" gradientUnits="userSpaceOnUse" x1="375.333" x2="460.219" y1="54.819" y2="139.704"><stop offset="0" stop-color="#ffd945"/><stop offset=".3043" stop-color="#ffcd3e"/><stop offset=".8558" stop-color="#ffad2b"/><stop offset="1" stop-color="#ffa325"/></linearGradient><linearGradient id="SVGID_7_" gradientUnits="userSpaceOnUse" x1="255" x2="255" xlink:href="#lg2" y1="171.209" y2="308.557"/><linearGradient id="SVGID_8_" gradientUnits="userSpaceOnUse" x1="320.463" x2="379.063" xlink:href="#lg1" y1="37.422" y2="96.022"/><linearGradient id="SVGID_9_" gradientUnits="userSpaceOnUse" x1="255" x2="255" xlink:href="#lg2" y1="138.709" y2="153.218"/><linearGradient id="SVGID_10_" gradientUnits="userSpaceOnUse" x1="184.333" x2="140.076" xlink:href="#lg2" y1="229.876" y2="185.618"/><linearGradient id="SVGID_11_" gradientUnits="userSpaceOnUse" x1="178.993" x2="145.815" xlink:href="#lg3" y1="224.535" y2="191.357"/><linearGradient id="SVGID_12_" gradientUnits="userSpaceOnUse" x1="164.667" x2="83.975" xlink:href="#lg3" y1="302.285" y2="302.285"/><linearGradient id="SVGID_13_" gradientUnits="userSpaceOnUse" x1="368.333" x2="324.076" xlink:href="#lg2" y1="229.876" y2="185.618"/><linearGradient id="SVGID_14_" gradientUnits="userSpaceOnUse" x1="362.993" x2="329.815" xlink:href="#lg3" y1="224.535" y2="191.357"/><linearGradient id="SVGID_15_" gradientUnits="userSpaceOnUse" x1="276.333" x2="232.076" xlink:href="#lg2" y1="229.876" y2="185.618"/><linearGradient id="SVGID_16_" gradientUnits="userSpaceOnUse" x1="270.993" x2="237.815" xlink:href="#lg3" y1="224.535" y2="191.357"/><linearGradient id="SVGID_17_" gradientUnits="userSpaceOnUse" x1="228.5" x2="187.424" xlink:href="#lg3" y1="320.845" y2="320.845"/><linearGradient id="SVGID_18_" gradientUnits="userSpaceOnUse" x1="320.5" x2="279.424" xlink:href="#lg3" y1="320.845" y2="320.845"/><linearGradient id="SVGID_19_" gradientUnits="userSpaceOnUse" x1="412.5" x2="371.424" xlink:href="#lg3" y1="320.845" y2="320.845"/><linearGradient id="lg4"><stop offset="0" stop-color="#18cefb"/><stop offset="1" stop-color="#4a97f6"/></linearGradient><linearGradient id="SVGID_20_" gradientUnits="userSpaceOnUse" x1="113.688" x2="189.921" xlink:href="#lg4" y1="273.23" y2="349.464"/><linearGradient id="lg5"><stop offset="0" stop-color="#4a97f6" stop-opacity="0"/><stop offset="1" stop-color="#0469bb"/></linearGradient><linearGradient id="SVGID_21_" gradientUnits="userSpaceOnUse" x1="166.226" x2="31.632" xlink:href="#lg5" y1="320.175" y2="392.167"/><linearGradient id="SVGID_22_" gradientUnits="userSpaceOnUse" x1="166.919" x2="53.689" xlink:href="#lg5" y1="313.923" y2="264.602"/><linearGradient id="SVGID_23_" gradientUnits="userSpaceOnUse" x1="209.891" x2="114.854" xlink:href="#lg5" y1="310.477" y2="328.872"/><linearGradient id="SVGID_24_" gradientUnits="userSpaceOnUse" x1="205.688" x2="281.921" xlink:href="#lg4" y1="273.23" y2="349.464"/><linearGradient id="SVGID_25_" gradientUnits="userSpaceOnUse" x1="258.226" x2="123.632" xlink:href="#lg5" y1="320.175" y2="392.167"/><linearGradient id="SVGID_26_" gradientUnits="userSpaceOnUse" x1="258.919" x2="145.689" xlink:href="#lg5" y1="313.923" y2="264.602"/><linearGradient id="SVGID_27_" gradientUnits="userSpaceOnUse" x1="301.891" x2="206.854" xlink:href="#lg5" y1="310.477" y2="328.872"/><linearGradient id="SVGID_28_" gradientUnits="userSpaceOnUse" x1="297.688" x2="373.921" xlink:href="#lg4" y1="273.23" y2="349.464"/><linearGradient id="SVGID_29_" gradientUnits="userSpaceOnUse" x1="350.226" x2="215.632" xlink:href="#lg5" y1="320.175" y2="392.167"/><linearGradient id="SVGID_30_" gradientUnits="userSpaceOnUse" x1="350.919" x2="237.689" xlink:href="#lg5" y1="313.923" y2="264.602"/><linearGradient id="SVGID_31_" gradientUnits="userSpaceOnUse" x1="393.891" x2="298.854" xlink:href="#lg5" y1="310.477" y2="328.872"/><linearGradient id="SVGID_32_" gradientUnits="userSpaceOnUse" x1="45.221" x2="159.801" xlink:href="#lg2" y1="277.924" y2="349.653"/><linearGradient id="SVGID_33_" gradientUnits="userSpaceOnUse" x1="63.71" x2="107.692" xlink:href="#lg2" y1="114.853" y2="142.386"/><linearGradient id="SVGID_34_" gradientUnits="userSpaceOnUse" x1="78.001" x2="78.001" xlink:href="#lg3" y1="134.412" y2="92.17"/><linearGradient id="SVGID_35_" gradientUnits="userSpaceOnUse" x1="78" x2="78" xlink:href="#lg3" y1="221.395" y2="122.356"/><linearGradient id="SVGID_36_" gradientUnits="userSpaceOnUse" x1="59.095" x2="59.095" xlink:href="#lg3" y1="139.394" y2="111.671"/><linearGradient id="SVGID_37_" gradientUnits="userSpaceOnUse" x1="78" x2="78" xlink:href="#lg3" y1="139.394" y2="111.671"/><linearGradient id="SVGID_38_" gradientUnits="userSpaceOnUse" x1="96.906" x2="96.906" xlink:href="#lg3" y1="139.394" y2="111.671"/><linearGradient id="SVGID_39_" gradientUnits="userSpaceOnUse" x1="71.711" x2="88.374" xlink:href="#lg2" y1="139.712" y2="187.036"/><linearGradient id="SVGID_40_" gradientUnits="userSpaceOnUse" x1="73.27" x2="85.802" xlink:href="#lg2" y1="90.151" y2="125.741"/><linearGradient id="SVGID_41_" gradientUnits="userSpaceOnUse" x1="399.221" x2="513.801" xlink:href="#lg2" y1="277.924" y2="349.653"/><linearGradient id="SVGID_42_" gradientUnits="userSpaceOnUse" x1="417.71" x2="461.692" xlink:href="#lg2" y1="114.853" y2="142.386"/><linearGradient id="SVGID_43_" gradientUnits="userSpaceOnUse" x1="432.001" x2="432.001" xlink:href="#lg3" y1="134.412" y2="92.17"/><linearGradient id="SVGID_44_" gradientUnits="userSpaceOnUse" x1="432" x2="432" xlink:href="#lg3" y1="221.395" y2="122.356"/><linearGradient id="SVGID_45_" gradientUnits="userSpaceOnUse" x1="413.095" x2="413.095" xlink:href="#lg3" y1="139.394" y2="111.671"/><linearGradient id="SVGID_46_" gradientUnits="userSpaceOnUse" x1="432" x2="432" xlink:href="#lg3" y1="139.394" y2="111.671"/><linearGradient id="SVGID_47_" gradientUnits="userSpaceOnUse" x1="450.906" x2="450.906" xlink:href="#lg3" y1="139.394" y2="111.671"/><linearGradient id="SVGID_48_" gradientUnits="userSpaceOnUse" x1="425.711" x2="442.374" xlink:href="#lg2" y1="139.712" y2="187.036"/><linearGradient id="SVGID_49_" gradientUnits="userSpaceOnUse" x1="427.27" x2="439.802" xlink:href="#lg2" y1="90.151" y2="125.741"/><linearGradient id="SVGID_50_" gradientUnits="userSpaceOnUse" x1="276.138" x2="338.252" xlink:href="#lg1" y1="403.98" y2="466.094"/><linearGradient id="lg6"><stop offset="0" stop-color="#7acbff" stop-opacity="0"/><stop offset="1" stop-color="#2f73a0"/></linearGradient><linearGradient id="SVGID_51_" gradientUnits="userSpaceOnUse" x1="300.096" x2="340.059" xlink:href="#lg6" y1="412.138" y2="404.012"/><linearGradient id="SVGID_52_" gradientUnits="userSpaceOnUse" x1="308.193" x2="308.193" xlink:href="#lg6" y1="450.574" y2="469.101"/><linearGradient id="SVGID_53_" gradientUnits="userSpaceOnUse" x1="227.261" x2="269.948" xlink:href="#lg1" y1="423.463" y2="466.15"/><linearGradient id="SVGID_54_" gradientUnits="userSpaceOnUse" x1="243.726" x2="271.191" xlink:href="#lg6" y1="429.069" y2="423.485"/><linearGradient id="SVGID_55_" gradientUnits="userSpaceOnUse" x1="249.291" x2="249.291" xlink:href="#lg6" y1="455.484" y2="468.216"/><linearGradient id="SVGID_56_" gradientUnits="userSpaceOnUse" x1="160.734" x2="217.042" xlink:href="#lg1" y1="409.802" y2="466.111"/><linearGradient id="SVGID_57_" gradientUnits="userSpaceOnUse" x1="182.452" x2="218.681" xlink:href="#lg6" y1="417.198" y2="409.831"/><linearGradient id="SVGID_58_" gradientUnits="userSpaceOnUse" x1="189.793" x2="189.793" xlink:href="#lg6" y1="452.042" y2="468.836"/><linearGradient id="SVGID_59_" gradientUnits="userSpaceOnUse" x1="116.53" x2="159.217" xlink:href="#lg1" y1="423.463" y2="466.15"/><linearGradient id="SVGID_60_" gradientUnits="userSpaceOnUse" x1="132.995" x2="160.459" xlink:href="#lg6" y1="429.069" y2="423.485"/><linearGradient id="SVGID_61_" gradientUnits="userSpaceOnUse" x1="138.559" x2="138.559" xlink:href="#lg6" y1="455.484" y2="468.216"/><linearGradient id="SVGID_62_" gradientUnits="userSpaceOnUse" x1="348.271" x2="390.958" xlink:href="#lg1" y1="423.463" y2="466.15"/><linearGradient id="SVGID_63_" gradientUnits="userSpaceOnUse" x1="364.736" x2="392.201" xlink:href="#lg6" y1="429.069" y2="423.485"/><linearGradient id="SVGID_64_" gradientUnits="userSpaceOnUse" x1="370.3" x2="370.3" xlink:href="#lg6" y1="455.484" y2="468.216"/><linearGradient id="SVGID_65_" gradientUnits="userSpaceOnUse" x1="255" x2="255" xlink:href="#lg4" y1="449.061" y2="522.011"/><linearGradient id="SVGID_66_" gradientUnits="userSpaceOnUse" x1="253.125" x2="260.551" xlink:href="#lg5" y1="491.006" y2="423.113"/><linearGradient id="SVGID_67_" gradientUnits="userSpaceOnUse" x1="253.287" x2="259.143" xlink:href="#lg5" y1="500.359" y2="446.818"/><g><path d="m485.638 510h-461.276c-13.455 0-24.362-10.907-24.362-24.362v-461.276c0-13.455 10.907-24.362 24.362-24.362h461.275c13.456 0 24.363 10.907 24.363 24.362v461.275c0 13.456-10.907 24.363-24.362 24.363z" fill="url(#SVGID_1_)"/><g><g><path d="m145.9 16.143h25.9c7.252 0 13.131 5.879 13.131 13.131 0 7.252-5.879 13.131-13.131 13.131h-25.9c-7.252 0-13.131-5.879-13.131-13.131 0-7.252 5.879-13.131 13.131-13.131z" fill="url(#SVGID_2_)"/></g><path d="m129.517 46.582h-9.438c.402-1.58.638-3.226.638-4.931 0-11.037-8.947-19.984-19.984-19.984h-39.416c-11.037 0-19.984 8.947-19.984 19.984 0 1.705.237 3.351.638 4.931h-8.279c-8.114 0-14.692 6.578-14.692 14.693s6.578 14.693 14.693 14.693h95.824c8.115 0 14.693-6.578 14.693-14.693s-6.579-14.693-14.693-14.693z" fill="url(#SVGID_3_)"/></g><g><path d="m510 485.638v-262.971h-510v262.971c0 13.455 10.907 24.362 24.362 24.362h461.275c13.456 0 24.363-10.907 24.363-24.362z" fill="url(#SVGID_4_)"/><path d="m456 510h29.638c13.455 0 24.362-10.907 24.362-24.362v-262.971h-54z" fill="url(#SVGID_5_)"/><circle cx="396.667" cy="76.152" fill="url(#SVGID_6_)" r="66.943"/><path d="m89.667 156.589h330.667v291.391h-330.667z" fill="url(#SVGID_7_)"/><path d="m365.997 43.124h-7.964c0-9.968-8.081-18.049-18.049-18.049h-35.6c-9.968 0-18.049 8.081-18.049 18.049s8.081 18.049 18.049 18.049h7.963c0 9.968 8.081 18.049 18.049 18.049h35.6c9.968 0 18.049-8.081 18.049-18.049.001-9.968-8.08-18.049-18.048-18.049z" fill="url(#SVGID_8_)"/><path d="m89.667 133.168h330.667v23.421h-330.667z" fill="url(#SVGID_9_)"/><g><path d="m168.043 248.889h-10.087c-22.283 0-40.347-18.064-40.347-40.347 0-22.283 18.064-40.347 40.347-40.347h10.087c22.283 0 40.347 18.064 40.347 40.347 0 22.283-18.064 40.347-40.347 40.347z" fill="url(#SVGID_10_)"/><path d="m166.781 238.789h-7.562c-16.705 0-30.246-13.542-30.246-30.247 0-16.705 13.542-30.246 30.246-30.246h7.562c16.705 0 30.246 13.542 30.246 30.246 0 16.705-13.541 30.247-30.246 30.247z" fill="url(#SVGID_11_)"/></g><path d="m89.667 156.589h109.99v291.391h-109.99z" fill="url(#SVGID_12_)"/><g><path d="m352.043 248.889h-10.087c-22.283 0-40.347-18.064-40.347-40.347 0-22.283 18.064-40.347 40.347-40.347h10.087c22.283 0 40.347 18.064 40.347 40.347 0 22.283-18.064 40.347-40.347 40.347z" fill="url(#SVGID_13_)"/><path d="m350.781 238.789h-7.562c-16.705 0-30.246-13.542-30.246-30.247 0-16.705 13.542-30.246 30.246-30.246h7.562c16.705 0 30.246 13.542 30.246 30.246 0 16.705-13.541 30.247-30.246 30.247z" fill="url(#SVGID_14_)"/></g><g><path d="m260.043 248.889h-10.087c-22.283 0-40.347-18.064-40.347-40.347 0-22.283 18.064-40.347 40.347-40.347h10.087c22.283 0 40.347 18.064 40.347 40.347 0 22.283-18.064 40.347-40.347 40.347z" fill="url(#SVGID_15_)"/><path d="m258.781 238.789h-7.562c-16.705 0-30.246-13.542-30.246-30.247 0-16.705 13.542-30.246 30.246-30.246h7.562c16.705 0 30.246 13.542 30.246 30.246 0 16.705-13.541 30.247-30.246 30.247z" fill="url(#SVGID_16_)"/></g><path d="m231 447.98v-216.771l-37.5-37.5v254.271z" fill="url(#SVGID_17_)"/><path d="m323 447.98v-216.771l-37.5-37.5v254.271z" fill="url(#SVGID_18_)"/><path d="m415 447.98v-216.771l-37.5-37.5v254.271z" fill="url(#SVGID_19_)"/><g><path d="m198.336 447.98h-70.672v-240.426c0-13.931 11.293-25.224 25.224-25.224h20.224c13.931 0 25.224 11.293 25.224 25.224z" fill="url(#SVGID_20_)"/><path d="m173.112 182.33h-20.224v265.65h45.448v-240.426c0-13.931-11.293-25.224-25.224-25.224z" fill="url(#SVGID_21_)"/><path d="m173.112 182.33h-12v265.65h37.224v-240.426c0-13.931-11.293-25.224-25.224-25.224z" fill="url(#SVGID_22_)"/><path d="m173.112 182.33v265.65h25.224v-240.426c0-13.931-11.293-25.224-25.224-25.224z" fill="url(#SVGID_23_)"/></g><g><path d="m290.336 447.98h-70.672v-240.426c0-13.931 11.293-25.224 25.224-25.224h20.224c13.931 0 25.224 11.293 25.224 25.224z" fill="url(#SVGID_24_)"/><path d="m265.112 182.33h-20.224v265.65h45.448v-240.426c0-13.931-11.293-25.224-25.224-25.224z" fill="url(#SVGID_25_)"/><path d="m265.112 182.33h-12v265.65h37.224v-240.426c0-13.931-11.293-25.224-25.224-25.224z" fill="url(#SVGID_26_)"/><path d="m265.112 182.33v265.65h25.224v-240.426c0-13.931-11.293-25.224-25.224-25.224z" fill="url(#SVGID_27_)"/></g><g><path d="m382.336 447.98h-70.672v-240.426c0-13.931 11.293-25.224 25.224-25.224h20.224c13.931 0 25.224 11.293 25.224 25.224z" fill="url(#SVGID_28_)"/><path d="m357.112 182.33h-20.224v265.65h45.448v-240.426c0-13.931-11.293-25.224-25.224-25.224z" fill="url(#SVGID_29_)"/><path d="m357.112 182.33h-12v265.65h37.224v-240.426c0-13.931-11.293-25.224-25.224-25.224z" fill="url(#SVGID_30_)"/><path d="m357.112 182.33v265.65h25.224v-240.426c0-13.931-11.293-25.224-25.224-25.224z" fill="url(#SVGID_31_)"/></g><g><g><g><path d="m45.696 148.909h64.609v299.071h-64.609z" fill="url(#SVGID_32_)"/><path d="m39.943 103.584c5.165 13.647 7.82 28.23 7.82 42.95v2.374h60.474v-2.374c0-14.721 2.655-29.303 7.82-42.95z" fill="url(#SVGID_33_)"/><path d="m116.053 103.587c-5.159 13.647-7.819 28.225-7.819 42.952v2.37h-28.734l-36.653-36.663c-.86-2.919-1.82-5.809-2.899-8.658h76.105z" fill="url(#SVGID_34_)"/><g fill="#988575"><path d="m99.715 281.944h-18.136c-1.977 0-3.579-1.602-3.579-3.579v-11.96c0-1.977 1.602-3.579 3.579-3.579h18.136c1.977 0 3.579 1.602 3.579 3.579v11.96c0 1.976-1.602 3.579-3.579 3.579z"/><path d="m99.715 377.268h-18.136c-1.977 0-3.579-1.602-3.579-3.579v-11.96c0-1.977 1.602-3.579 3.579-3.579h18.136c1.977 0 3.579 1.602 3.579 3.579v11.96c0 1.977-1.602 3.579-3.579 3.579z"/><path d="m76.97 207.431h-18.137c-1.977 0-3.579-1.602-3.579-3.579v-11.96c0-1.977 1.602-3.579 3.579-3.579h18.137c1.977 0 3.579 1.602 3.579 3.579v11.96c0 1.977-1.603 3.579-3.579 3.579z"/><path d="m76.97 351.931h-18.137c-1.977 0-3.579-1.602-3.579-3.579v-11.96c0-1.977 1.602-3.579 3.579-3.579h18.137c1.977 0 3.579 1.602 3.579 3.579v11.96c0 1.977-1.603 3.579-3.579 3.579z"/><path d="m99.715 253.701h-43.43c-1.977 0-3.579-1.602-3.579-3.579v-11.96c0-1.977 1.602-3.579 3.579-3.579h43.431c1.977 0 3.579 1.602 3.579 3.579v11.96c-.001 1.976-1.603 3.579-3.58 3.579z"/></g><path d="m45.696 172.957 1.31.947 63.298 63.298v-75.775h-64.608z" fill="url(#SVGID_35_)"/><g><path d="m65.483 148.909h-12.777v-23.356c0-3.528 2.86-6.389 6.389-6.389 3.528 0 6.389 2.86 6.389 6.389v23.356z" fill="url(#SVGID_36_)"/><path d="m84.389 148.909h-12.778v-23.356c0-3.528 2.86-6.389 6.389-6.389 3.528 0 6.389 2.86 6.389 6.389z" fill="url(#SVGID_37_)"/><path d="m103.294 148.909h-12.777v-23.356c0-3.528 2.86-6.389 6.389-6.389 3.528 0 6.389 2.86 6.389 6.389v23.356z" fill="url(#SVGID_38_)"/></g><path d="m108.994 173.904h-61.988c-5.338 0-9.665-4.327-9.665-9.665v-13.331c0-5.338 4.327-9.665 9.665-9.665h61.988c5.338 0 9.665 4.327 9.665 9.665v13.331c0 5.338-4.327 9.665-9.665 9.665z" fill="url(#SVGID_39_)"/><path d="m111.619 112.249h-67.238c-3.888 0-7.04-3.152-7.04-7.04v-3.25c0-3.888 3.152-7.04 7.04-7.04h67.237c3.888 0 7.04 3.152 7.04 7.04v3.25c.001 3.888-3.151 7.04-7.039 7.04z" fill="url(#SVGID_40_)"/></g></g><g><g><path d="m399.696 148.909h64.609v299.071h-64.609z" fill="url(#SVGID_41_)"/><path d="m393.943 103.584c5.165 13.647 7.82 28.23 7.82 42.95v2.374h60.474v-2.374c0-14.721 2.655-29.303 7.82-42.95z" fill="url(#SVGID_42_)"/><path d="m470.053 103.587c-5.159 13.647-7.819 28.225-7.819 42.952v2.37h-28.734l-36.653-36.663c-.86-2.919-1.82-5.809-2.899-8.658h76.105z" fill="url(#SVGID_43_)"/><g fill="#988575"><path d="m453.715 281.944h-18.136c-1.977 0-3.579-1.602-3.579-3.579v-11.96c0-1.977 1.602-3.579 3.579-3.579h18.136c1.977 0 3.579 1.602 3.579 3.579v11.96c0 1.976-1.602 3.579-3.579 3.579z"/><path d="m453.715 372.444h-18.136c-1.977 0-3.579-1.602-3.579-3.579v-11.96c0-1.977 1.602-3.579 3.579-3.579h18.136c1.977 0 3.579 1.602 3.579 3.579v11.96c0 1.976-1.602 3.579-3.579 3.579z"/><path d="m430.97 207.431h-18.136c-1.977 0-3.579-1.602-3.579-3.579v-11.96c0-1.977 1.602-3.579 3.579-3.579h18.136c1.977 0 3.579 1.602 3.579 3.579v11.96c0 1.977-1.603 3.579-3.579 3.579z"/><path d="m430.97 401.431h-18.136c-1.977 0-3.579-1.602-3.579-3.579v-11.96c0-1.977 1.602-3.579 3.579-3.579h18.136c1.977 0 3.579 1.602 3.579 3.579v11.96c0 1.977-1.603 3.579-3.579 3.579z"/><path d="m453.715 253.701h-43.431c-1.977 0-3.579-1.602-3.579-3.579v-11.96c0-1.977 1.602-3.579 3.579-3.579h43.431c1.977 0 3.579 1.602 3.579 3.579v11.96c0 1.976-1.602 3.579-3.579 3.579z"/></g><path d="m399.696 172.957 1.31.947 63.298 63.298v-75.775h-64.608z" fill="url(#SVGID_44_)"/><g><path d="m419.483 148.909h-12.777v-23.356c0-3.528 2.86-6.389 6.389-6.389 3.528 0 6.389 2.86 6.389 6.389v23.356z" fill="url(#SVGID_45_)"/><path d="m438.389 148.909h-12.777v-23.356c0-3.528 2.86-6.389 6.389-6.389 3.528 0 6.389 2.86 6.389 6.389v23.356z" fill="url(#SVGID_46_)"/><path d="m457.294 148.909h-12.777v-23.356c0-3.528 2.86-6.389 6.389-6.389 3.528 0 6.389 2.86 6.389 6.389v23.356z" fill="url(#SVGID_47_)"/></g><path d="m462.994 173.904h-61.988c-5.338 0-9.665-4.327-9.665-9.665v-13.331c0-5.338 4.327-9.665 9.665-9.665h61.988c5.338 0 9.665 4.327 9.665 9.665v13.331c0 5.338-4.327 9.665-9.665 9.665z" fill="url(#SVGID_48_)"/><path d="m465.619 112.249h-67.237c-3.888 0-7.04-3.152-7.04-7.04v-3.25c0-3.888 3.152-7.04 7.04-7.04h67.237c3.888 0 7.04 3.152 7.04 7.04v3.25c0 3.888-3.152 7.04-7.04 7.04z" fill="url(#SVGID_49_)"/></g></g></g><g><g><g><g><path d="m334.708 402.955c-3.432 0-6.736.548-9.831 1.559-3.311-10.801-13.361-18.654-25.246-18.654-14.581 0-26.402 11.821-26.402 26.402 0 2.107.248 4.155.714 6.12-12.444.877-22.267 11.249-22.267 23.916 0 13.242 10.735 23.977 23.977 23.977h59.054c17.485 0 31.659-14.174 31.659-31.659s-14.173-31.661-31.658-31.661z" fill="url(#SVGID_50_)"/><path d="m303.048 434.616c0 1.284.077 2.55.226 3.794-1.191.168-2.408.253-3.645.253-14.581 0-26.4-11.821-26.4-26.403 0-14.579 11.819-26.4 26.4-26.4 11.885 0 21.937 7.854 25.246 18.655-12.67 4.132-21.827 16.047-21.827 30.101z" fill="url(#SVGID_51_)"/><path d="m251.862 445.281c1.469 11.834 11.561 20.993 23.792 20.993h59.054c13.742 0 25.437-8.756 29.815-20.993z" fill="url(#SVGID_52_)"/></g></g></g><g><g><g><path d="m267.513 422.759c-2.359 0-4.629.377-6.756 1.071-2.275-7.423-9.182-12.82-17.35-12.82-10.021 0-18.144 8.124-18.144 18.144 0 1.448.171 2.856.491 4.206-8.552.603-15.303 7.731-15.303 16.436 0 9.101 7.377 16.478 16.478 16.478h40.584c12.016 0 21.757-9.741 21.757-21.758.001-12.016-9.741-21.757-21.757-21.757z" fill="url(#SVGID_53_)"/><path d="m245.755 444.517c0 .883.053 1.752.156 2.607-.818.115-1.655.174-2.505.174-10.021 0-18.143-8.124-18.143-18.145 0-10.019 8.122-18.143 18.143-18.143 8.168 0 15.076 5.398 17.35 12.821-8.708 2.839-15.001 11.028-15.001 20.686z" fill="url(#SVGID_54_)"/><path d="m210.578 451.847c1.01 8.133 7.945 14.427 16.351 14.427h40.584c9.444 0 17.481-6.017 20.49-14.427z" fill="url(#SVGID_55_)"/></g></g></g><g><g><g><path d="m213.83 408.873c-3.112 0-6.107.497-8.912 1.413-3.001-9.791-12.112-16.911-22.886-16.911-13.219 0-23.934 10.716-23.934 23.934 0 1.91.225 3.767.648 5.548-11.281.795-20.186 10.197-20.186 21.68 0 12.004 9.732 21.736 21.736 21.736h53.535c15.851 0 28.7-12.849 28.7-28.7s-12.85-28.7-28.701-28.7z" fill="url(#SVGID_56_)"/><path d="m185.129 437.574c0 1.164.07 2.311.205 3.439-1.08.152-2.183.229-3.304.229-13.219 0-23.933-10.716-23.933-23.935 0-13.216 10.714-23.933 23.933-23.933 10.774 0 19.887 7.12 22.887 16.911-11.487 3.748-19.788 14.549-19.788 27.289z" fill="url(#SVGID_57_)"/><path d="m138.727 447.243c1.332 10.728 10.48 19.03 21.569 19.03h53.535c12.457 0 23.059-7.938 27.029-19.03z" fill="url(#SVGID_58_)"/></g></g></g><g><g><g><path d="m156.782 422.759c-2.359 0-4.629.377-6.756 1.071-2.275-7.423-9.182-12.82-17.35-12.82-10.021 0-18.144 8.124-18.144 18.144 0 1.448.171 2.856.491 4.206-8.552.603-15.303 7.731-15.303 16.436 0 9.101 7.377 16.478 16.478 16.478h40.584c12.016 0 21.758-9.741 21.758-21.758-.001-12.016-9.742-21.757-21.758-21.757z" fill="url(#SVGID_59_)"/><path d="m135.024 444.517c0 .883.053 1.752.156 2.607-.818.115-1.655.174-2.505.174-10.021 0-18.143-8.124-18.143-18.145 0-10.019 8.122-18.143 18.143-18.143 8.168 0 15.076 5.398 17.35 12.821-8.708 2.839-15.001 11.028-15.001 20.686z" fill="url(#SVGID_60_)"/><path d="m99.846 451.847c1.01 8.133 7.945 14.427 16.351 14.427h40.584c9.444 0 17.481-6.017 20.49-14.427z" fill="url(#SVGID_61_)"/></g></g></g><g><g><g><path d="m388.523 422.759c-2.359 0-4.629.377-6.756 1.071-2.275-7.423-9.182-12.82-17.35-12.82-10.021 0-18.144 8.124-18.144 18.144 0 1.448.171 2.856.491 4.206-8.552.603-15.303 7.731-15.303 16.436 0 9.101 7.377 16.478 16.478 16.478h40.584c12.016 0 21.758-9.741 21.758-21.758-.001-12.016-9.742-21.757-21.758-21.757z" fill="url(#SVGID_62_)"/><path d="m366.765 444.517c0 .883.053 1.752.156 2.607-.818.115-1.655.174-2.505.174-10.021 0-18.143-8.124-18.143-18.145 0-10.019 8.122-18.143 18.143-18.143 8.168 0 15.076 5.398 17.35 12.821-8.708 2.839-15.001 11.028-15.001 20.686z" fill="url(#SVGID_63_)"/><path d="m331.588 451.847c1.01 8.133 7.945 14.427 16.351 14.427h40.584c9.444 0 17.481-6.017 20.49-14.427z" fill="url(#SVGID_64_)"/></g></g></g></g><path d="m510 485.638v-37.658h-510v37.658c0 13.455 10.907 24.362 24.362 24.362h461.275c13.456 0 24.363-10.907 24.363-24.362z" fill="url(#SVGID_65_)"/><path d="m510 485.638v-24.893h-510v24.893c0 13.455 10.907 24.362 24.362 24.362h461.275c13.456 0 24.363-10.907 24.363-24.362z" fill="url(#SVGID_66_)"/><path d="m510 485.638v-3.221h-510v3.221c0 13.455 10.907 24.362 24.362 24.362h461.275c13.456 0 24.363-10.907 24.363-24.362z" fill="url(#SVGID_67_)"/></g></g></svg>