

<svg id="Capa_1" enable-background="new 0 0 510 510" height="512" viewBox="0 0 510 510" width="512" xmlns="http://www.w3.org/2000/svg" xmlns:xlink="http://www.w3.org/1999/xlink"><linearGradient id="SVGID_1_" gradientUnits="userSpaceOnUse" x1="255" x2="255" y1="83.666" y2="330.023"><stop offset="0" stop-color="#092a40"/><stop offset="1" stop-color="#3a2f4d"/></linearGradient><linearGradient id="lg1"><stop offset="0" stop-color="#edf5ff"/><stop offset="1" stop-color="#c7e9ff"/></linearGradient><linearGradient id="SVGID_2_" gradientUnits="userSpaceOnUse" x1="19.316" x2="25.022" xlink:href="#lg1" y1="18.566" y2="24.272"/><linearGradient id="SVGID_3_" gradientUnits="userSpaceOnUse" x1="20.649" x2="26.355" xlink:href="#lg1" y1="85.233" y2="90.939"/><linearGradient id="SVGID_4_" gradientUnits="userSpaceOnUse" x1="135.983" x2="141.689" xlink:href="#lg1" y1="215.899" y2="221.605"/><linearGradient id="SVGID_5_" gradientUnits="userSpaceOnUse" x1="185.149" x2="190.855" xlink:href="#lg1" y1="57.899" y2="63.605"/><linearGradient id="SVGID_6_" gradientUnits="userSpaceOnUse" x1="149.316" x2="155.022" xlink:href="#lg1" y1="105.066" y2="110.772"/><linearGradient id="SVGID_7_" gradientUnits="userSpaceOnUse" x1="333.983" x2="339.689" xlink:href="#lg1" y1="173.233" y2="178.939"/><linearGradient id="SVGID_8_" gradientUnits="userSpaceOnUse" x1="406.649" x2="412.355" xlink:href="#lg1" y1="227.066" y2="232.772"/><linearGradient id="SVGID_9_" gradientUnits="userSpaceOnUse" x1="13.316" x2="19.022" xlink:href="#lg1" y1="167.899" y2="173.605"/><linearGradient id="SVGID_10_" gradientUnits="userSpaceOnUse" x1="14.649" x2="20.355" xlink:href="#lg1" y1="235.899" y2="241.605"/><linearGradient id="SVGID_11_" gradientUnits="userSpaceOnUse" x1="349.316" x2="355.022" xlink:href="#lg1" y1="261.899" y2="267.605"/><linearGradient id="SVGID_12_" gradientUnits="userSpaceOnUse" x1="413.316" x2="419.022" xlink:href="#lg1" y1="74.566" y2="80.272"/><linearGradient id="SVGID_13_" gradientUnits="userSpaceOnUse" x1="196.649" x2="202.355" xlink:href="#lg1" y1="233.899" y2="239.605"/><linearGradient id="SVGID_14_" gradientUnits="userSpaceOnUse" x1="219.983" x2="225.689" xlink:href="#lg1" y1="179.733" y2="185.439"/><linearGradient id="SVGID_15_" gradientUnits="userSpaceOnUse" x1="238.649" x2="244.355" xlink:href="#lg1" y1="256.566" y2="262.272"/><linearGradient id="SVGID_16_" gradientUnits="userSpaceOnUse" x1="323.316" x2="329.022" xlink:href="#lg1" y1="24.566" y2="30.272"/><linearGradient id="SVGID_17_" gradientUnits="userSpaceOnUse" x1="477.316" x2="483.022" xlink:href="#lg1" y1="163.233" y2="168.939"/><linearGradient id="SVGID_18_" gradientUnits="userSpaceOnUse" x1="489.149" x2="494.855" xlink:href="#lg1" y1="86.566" y2="92.272"/><linearGradient id="SVGID_19_" gradientUnits="userSpaceOnUse" x1="165.983" x2="171.689" xlink:href="#lg1" y1="159.899" y2="165.605"/><linearGradient id="SVGID_20_" gradientUnits="userSpaceOnUse" x1="493.816" x2="499.522" xlink:href="#lg1" y1="227.899" y2="233.605"/><linearGradient id="SVGID_21_" gradientUnits="userSpaceOnUse" x1="287.983" x2="293.689" xlink:href="#lg1" y1="225.233" y2="230.939"/><linearGradient id="SVGID_22_" gradientUnits="userSpaceOnUse" x1="479.316" x2="485.022" xlink:href="#lg1" y1="17.233" y2="22.939"/><linearGradient id="SVGID_23_" gradientUnits="userSpaceOnUse" x1="453.316" x2="459.022" xlink:href="#lg1" y1="275.899" y2="281.605"/><linearGradient id="SVGID_24_" gradientUnits="userSpaceOnUse" x1="213.316" x2="219.022" xlink:href="#lg1" y1="119.399" y2="125.105"/><linearGradient id="SVGID_25_" gradientUnits="userSpaceOnUse" x1="243.316" x2="249.022" xlink:href="#lg1" y1="89.233" y2="94.939"/><linearGradient id="SVGID_26_" gradientUnits="userSpaceOnUse" x1="221.816" x2="227.522" xlink:href="#lg1" y1="19.233" y2="24.939"/><linearGradient id="SVGID_27_" gradientUnits="userSpaceOnUse" x1="138.649" x2="144.355" xlink:href="#lg1" y1="31.066" y2="36.772"/><linearGradient id="lg2"><stop offset="0" stop-color="#fff5d9"/><stop offset="1" stop-color="#ffce47"/></linearGradient><linearGradient id="SVGID_28_" gradientUnits="userSpaceOnUse" x1="276.455" x2="355.952" xlink:href="#lg2" y1="97.118" y2="154.116"/><linearGradient id="lg3"><stop offset="0" stop-color="#43765a"/><stop offset="1" stop-color="#174461"/></linearGradient><linearGradient id="SVGID_29_" gradientUnits="userSpaceOnUse" x1="422.472" x2="476.295" xlink:href="#lg3" y1="387.843" y2="387.843"/><linearGradient id="lg4"><stop offset="0" stop-color="#1b444f" stop-opacity="0"/><stop offset="1" stop-color="#1b444f"/></linearGradient><linearGradient id="SVGID_30_" gradientUnits="userSpaceOnUse" x1="447.074" x2="447.074" xlink:href="#lg4" y1="418.64" y2="432.956"/><linearGradient id="SVGID_31_" gradientUnits="userSpaceOnUse" x1="447.145" x2="447.145" xlink:href="#lg4" y1="363.845" y2="334.576"/><linearGradient id="SVGID_32_" gradientUnits="userSpaceOnUse" x1="443.191" x2="403.593" xlink:href="#lg4" y1="381.888" y2="360.823"/><linearGradient id="SVGID_33_" gradientUnits="userSpaceOnUse" x1="456.517" x2="417.053" xlink:href="#lg4" y1="391.101" y2="444.164"/><linearGradient id="lg5"><stop offset="0" stop-color="#bada00"/><stop offset=".2187" stop-color="#b6d600"/><stop offset=".4501" stop-color="#acc900"/><stop offset=".6873" stop-color="#9ab400"/><stop offset=".9271" stop-color="#829700"/><stop offset="1" stop-color="#798c00"/></linearGradient><linearGradient id="SVGID_34_" gradientUnits="userSpaceOnUse" x1="447.074" x2="447.074" xlink:href="#lg5" y1="340.887" y2="345.016"/><linearGradient id="SVGID_35_" gradientUnits="userSpaceOnUse" x1="447.074" x2="447.074" xlink:href="#lg2" y1="433.147" y2="437.276"/><linearGradient id="SVGID_36_" gradientUnits="userSpaceOnUse" x1="422.472" x2="476.295" xlink:href="#lg3" y1="290.424" y2="290.424"/><linearGradient id="SVGID_37_" gradientUnits="userSpaceOnUse" x1="447.074" x2="447.074" xlink:href="#lg4" y1="321.221" y2="335.537"/><linearGradient id="SVGID_38_" gradientUnits="userSpaceOnUse" x1="447.145" x2="447.145" xlink:href="#lg4" y1="266.426" y2="237.157"/><linearGradient id="SVGID_39_" gradientUnits="userSpaceOnUse" x1="443.191" x2="403.593" xlink:href="#lg4" y1="284.47" y2="263.404"/><linearGradient id="SVGID_40_" gradientUnits="userSpaceOnUse" x1="456.517" x2="417.053" xlink:href="#lg4" y1="293.682" y2="346.745"/><linearGradient id="SVGID_41_" gradientUnits="userSpaceOnUse" x1="447.074" x2="447.074" xlink:href="#lg5" y1="243.469" y2="247.597"/><linearGradient id="SVGID_42_" gradientUnits="userSpaceOnUse" x1="447.074" x2="447.074" xlink:href="#lg5" y1="335.728" y2="339.857"/><linearGradient id="SVGID_43_" gradientUnits="userSpaceOnUse" x1="422.472" x2="476.295" xlink:href="#lg3" y1="193.005" y2="193.005"/><linearGradient id="SVGID_44_" gradientUnits="userSpaceOnUse" x1="447.074" x2="447.074" xlink:href="#lg4" y1="223.803" y2="238.118"/><linearGradient id="SVGID_45_" gradientUnits="userSpaceOnUse" x1="447.145" x2="447.145" xlink:href="#lg4" y1="169.007" y2="139.739"/><linearGradient id="SVGID_46_" gradientUnits="userSpaceOnUse" x1="443.191" x2="403.593" xlink:href="#lg4" y1="187.051" y2="165.985"/><linearGradient id="SVGID_47_" gradientUnits="userSpaceOnUse" x1="456.517" x2="417.053" xlink:href="#lg4" y1="196.263" y2="249.326"/><linearGradient id="SVGID_48_" gradientUnits="userSpaceOnUse" x1="447.074" x2="447.074" xlink:href="#lg5" y1="146.05" y2="150.179"/><linearGradient id="SVGID_49_" gradientUnits="userSpaceOnUse" x1="447.074" x2="447.074" xlink:href="#lg5" y1="238.309" y2="242.438"/><linearGradient id="SVGID_50_" gradientUnits="userSpaceOnUse" x1="422.472" x2="476.295" xlink:href="#lg3" y1="95.586" y2="95.586"/><linearGradient id="SVGID_51_" gradientUnits="userSpaceOnUse" x1="447.074" x2="447.074" xlink:href="#lg4" y1="126.384" y2="140.7"/><linearGradient id="SVGID_52_" gradientUnits="userSpaceOnUse" x1="447.145" x2="447.145" xlink:href="#lg4" y1="71.588" y2="42.32"/><linearGradient id="SVGID_53_" gradientUnits="userSpaceOnUse" x1="443.191" x2="403.593" xlink:href="#lg4" y1="89.632" y2="68.566"/><linearGradient id="SVGID_54_" gradientUnits="userSpaceOnUse" x1="456.517" x2="417.053" xlink:href="#lg4" y1="98.845" y2="151.908"/><linearGradient id="SVGID_55_" gradientUnits="userSpaceOnUse" x1="447.074" x2="447.074" xlink:href="#lg5" y1="48.631" y2="52.76"/><linearGradient id="SVGID_56_" gradientUnits="userSpaceOnUse" x1="447.074" x2="447.074" xlink:href="#lg5" y1="140.89" y2="145.019"/><linearGradient id="SVGID_57_" gradientUnits="userSpaceOnUse" x1="422.472" x2="476.293" xlink:href="#lg3" y1="22.483" y2="22.483"/><linearGradient id="SVGID_58_" gradientUnits="userSpaceOnUse" x1="447.074" x2="447.074" xlink:href="#lg4" y1="28.965" y2="43.281"/><linearGradient id="SVGID_59_" gradientUnits="userSpaceOnUse" x1="456.597" x2="436.275" xlink:href="#lg4" y1="25.632" y2="52.956"/><linearGradient id="SVGID_60_" gradientUnits="userSpaceOnUse" x1="447.074" x2="447.074" xlink:href="#lg5" y1="43.472" y2="47.6"/><linearGradient id="SVGID_61_" gradientTransform="matrix(-.917 .4 .4 .917 28.44 53.96)" gradientUnits="userSpaceOnUse" x1="-226.076" x2="-188.82" xlink:href="#lg3" y1="340.128" y2="340.128"/><linearGradient id="SVGID_62_" gradientTransform="matrix(-.917 .4 .4 .917 28.44 53.96)" gradientUnits="userSpaceOnUse" x1="-202.184" x2="-239.942" xlink:href="#lg4" y1="337.088" y2="349.766"/><linearGradient id="SVGID_63_" gradientTransform="matrix(-.488 .873 .612 .342 345.642 -161.227)" gradientUnits="userSpaceOnUse" x1="399.519" x2="436.773" xlink:href="#lg5" y1="331.24" y2="331.24"/><linearGradient id="lg6"><stop offset="0" stop-color="#43765a" stop-opacity="0"/><stop offset="1" stop-color="#43765a"/></linearGradient><linearGradient id="SVGID_64_" gradientTransform="matrix(-.488 .873 .612 .342 345.642 -161.227)" gradientUnits="userSpaceOnUse" x1="423.41" x2="385.652" xlink:href="#lg6" y1="328.201" y2="340.879"/><linearGradient id="SVGID_65_" gradientTransform="matrix(-.488 .873 .612 .342 345.642 -161.227)" gradientUnits="userSpaceOnUse" x1="201.64" x2="238.894" xlink:href="#lg5" y1="165.929" y2="165.929"/><linearGradient id="SVGID_66_" gradientTransform="matrix(-.488 .873 .612 .342 345.642 -161.227)" gradientUnits="userSpaceOnUse" x1="225.531" x2="187.773" xlink:href="#lg6" y1="162.89" y2="175.568"/><linearGradient id="lg7"><stop offset="0" stop-color="#798c00"/><stop offset="1" stop-color="#1b444f"/></linearGradient><linearGradient id="SVGID_67_" gradientUnits="userSpaceOnUse" x1="357.983" x2="411.806" xlink:href="#lg7" y1="340.966" y2="340.966"/><linearGradient id="SVGID_68_" gradientUnits="userSpaceOnUse" x1="382.585" x2="382.585" xlink:href="#lg4" y1="371.764" y2="386.079"/><linearGradient id="SVGID_69_" gradientUnits="userSpaceOnUse" x1="382.656" x2="382.656" xlink:href="#lg4" y1="316.968" y2="287.7"/><linearGradient id="SVGID_70_" gradientUnits="userSpaceOnUse" x1="378.702" x2="339.104" xlink:href="#lg4" y1="335.012" y2="313.946"/><linearGradient id="SVGID_71_" gradientUnits="userSpaceOnUse" x1="392.028" x2="352.564" xlink:href="#lg4" y1="344.224" y2="397.287"/><linearGradient id="SVGID_72_" gradientUnits="userSpaceOnUse" x1="382.585" x2="382.585" xlink:href="#lg2" y1="294.011" y2="298.14"/><linearGradient id="SVGID_73_" gradientUnits="userSpaceOnUse" x1="382.585" x2="382.585" xlink:href="#lg2" y1="386.27" y2="390.399"/><linearGradient id="SVGID_74_" gradientUnits="userSpaceOnUse" x1="357.983" x2="411.806" xlink:href="#lg7" y1="243.547" y2="243.547"/><linearGradient id="SVGID_75_" gradientUnits="userSpaceOnUse" x1="382.585" x2="382.585" xlink:href="#lg4" y1="274.345" y2="288.661"/><linearGradient id="SVGID_76_" gradientUnits="userSpaceOnUse" x1="382.656" x2="382.656" xlink:href="#lg4" y1="219.549" y2="190.281"/><linearGradient id="SVGID_77_" gradientUnits="userSpaceOnUse" x1="378.702" x2="339.104" xlink:href="#lg4" y1="237.593" y2="216.527"/><linearGradient id="SVGID_78_" gradientUnits="userSpaceOnUse" x1="392.028" x2="352.564" xlink:href="#lg4" y1="246.806" y2="299.869"/><linearGradient id="SVGID_79_" gradientUnits="userSpaceOnUse" x1="382.585" x2="382.585" xlink:href="#lg2" y1="196.592" y2="200.721"/><linearGradient id="SVGID_80_" gradientUnits="userSpaceOnUse" x1="382.585" x2="382.585" xlink:href="#lg2" y1="288.851" y2="292.98"/><linearGradient id="SVGID_81_" gradientUnits="userSpaceOnUse" x1="357.983" x2="411.806" xlink:href="#lg7" y1="146.128" y2="146.128"/><linearGradient id="SVGID_82_" gradientUnits="userSpaceOnUse" x1="382.585" x2="382.585" xlink:href="#lg4" y1="176.926" y2="191.242"/><linearGradient id="SVGID_83_" gradientUnits="userSpaceOnUse" x1="382.656" x2="382.656" xlink:href="#lg4" y1="122.13" y2="92.862"/><linearGradient id="SVGID_84_" gradientUnits="userSpaceOnUse" x1="378.702" x2="339.104" xlink:href="#lg4" y1="140.174" y2="119.108"/><linearGradient id="SVGID_85_" gradientUnits="userSpaceOnUse" x1="392.028" x2="352.564" xlink:href="#lg4" y1="149.387" y2="202.45"/><linearGradient id="SVGID_86_" gradientUnits="userSpaceOnUse" x1="382.585" x2="382.585" xlink:href="#lg2" y1="99.173" y2="103.302"/><linearGradient id="SVGID_87_" gradientUnits="userSpaceOnUse" x1="382.585" x2="382.585" xlink:href="#lg2" y1="191.432" y2="195.561"/><linearGradient id="SVGID_88_" gradientUnits="userSpaceOnUse" x1="357.983" x2="411.806" xlink:href="#lg7" y1="48.709" y2="48.709"/><linearGradient id="SVGID_89_" gradientUnits="userSpaceOnUse" x1="382.585" x2="382.585" xlink:href="#lg4" y1="79.507" y2="93.823"/><linearGradient id="SVGID_90_" gradientUnits="userSpaceOnUse" x1="382.656" x2="382.656" xlink:href="#lg4" y1="24.711" y2="-4.557"/><linearGradient id="SVGID_91_" gradientUnits="userSpaceOnUse" x1="378.702" x2="339.104" xlink:href="#lg4" y1="42.755" y2="21.69"/><linearGradient id="SVGID_92_" gradientUnits="userSpaceOnUse" x1="392.028" x2="352.564" xlink:href="#lg4" y1="51.968" y2="105.031"/><linearGradient id="SVGID_93_" gradientUnits="userSpaceOnUse" x1="382.585" x2="382.585" xlink:href="#lg2" y1="1.754" y2="5.883"/><linearGradient id="SVGID_94_" gradientUnits="userSpaceOnUse" x1="382.585" x2="382.585" xlink:href="#lg2" y1="94.014" y2="98.142"/><linearGradient id="SVGID_95_" gradientTransform="matrix(.963 .271 -.271 .963 -239.574 79.766)" gradientUnits="userSpaceOnUse" x1="351.217" x2="388.473" xlink:href="#lg7" y1="-27.39" y2="-27.39"/><linearGradient id="SVGID_96_" gradientTransform="matrix(.963 .271 -.271 .963 -239.574 79.766)" gradientUnits="userSpaceOnUse" x1="375.11" x2="337.352" xlink:href="#lg4" y1="-30.429" y2="-17.751"/><linearGradient id="SVGID_97_" gradientTransform="matrix(.718 .696 -.554 .571 -559.41 -94.791)" gradientUnits="userSpaceOnUse" x1="731.054" x2="768.309" xlink:href="#lg7" y1="-272.051" y2="-272.051"/><linearGradient id="SVGID_98_" gradientTransform="matrix(.718 .696 -.554 .571 -559.41 -94.791)" gradientUnits="userSpaceOnUse" x1="754.945" x2="717.187" xlink:href="#lg4" y1="-275.09" y2="-262.412"/><linearGradient id="SVGID_99_" gradientUnits="userSpaceOnUse" x1="65.524" x2="119.347" xlink:href="#lg3" y1="340.966" y2="340.966"/><linearGradient id="SVGID_100_" gradientUnits="userSpaceOnUse" x1="90.126" x2="90.126" xlink:href="#lg4" y1="371.764" y2="386.079"/><linearGradient id="SVGID_101_" gradientUnits="userSpaceOnUse" x1="90.198" x2="90.198" xlink:href="#lg4" y1="316.968" y2="287.7"/><linearGradient id="SVGID_102_" gradientUnits="userSpaceOnUse" x1="86.243" x2="46.645" xlink:href="#lg4" y1="335.012" y2="313.946"/><linearGradient id="SVGID_103_" gradientUnits="userSpaceOnUse" x1="99.569" x2="60.105" xlink:href="#lg4" y1="344.224" y2="397.287"/><linearGradient id="SVGID_104_" gradientUnits="userSpaceOnUse" x1="90.126" x2="90.126" xlink:href="#lg7" y1="294.011" y2="298.14"/><linearGradient id="SVGID_105_" gradientUnits="userSpaceOnUse" x1="90.126" x2="90.126" xlink:href="#lg7" y1="386.27" y2="390.399"/><linearGradient id="SVGID_106_" gradientUnits="userSpaceOnUse" x1="65.524" x2="119.347" xlink:href="#lg3" y1="243.547" y2="243.547"/><linearGradient id="SVGID_107_" gradientUnits="userSpaceOnUse" x1="90.126" x2="90.126" xlink:href="#lg4" y1="274.345" y2="288.661"/><linearGradient id="SVGID_108_" gradientUnits="userSpaceOnUse" x1="90.198" x2="90.198" xlink:href="#lg4" y1="219.549" y2="190.281"/><linearGradient id="SVGID_109_" gradientUnits="userSpaceOnUse" x1="86.243" x2="46.645" xlink:href="#lg4" y1="237.593" y2="216.527"/><linearGradient id="SVGID_110_" gradientUnits="userSpaceOnUse" x1="99.569" x2="60.105" xlink:href="#lg4" y1="246.806" y2="299.869"/><linearGradient id="SVGID_111_" gradientUnits="userSpaceOnUse" x1="90.126" x2="90.126" xlink:href="#lg7" y1="196.592" y2="200.721"/><linearGradient id="SVGID_112_" gradientUnits="userSpaceOnUse" x1="90.126" x2="90.126" xlink:href="#lg7" y1="288.851" y2="292.98"/><linearGradient id="SVGID_113_" gradientUnits="userSpaceOnUse" x1="65.524" x2="119.347" xlink:href="#lg3" y1="146.128" y2="146.128"/><linearGradient id="SVGID_114_" gradientUnits="userSpaceOnUse" x1="90.126" x2="90.126" xlink:href="#lg4" y1="176.926" y2="191.242"/><linearGradient id="SVGID_115_" gradientUnits="userSpaceOnUse" x1="90.198" x2="90.198" xlink:href="#lg4" y1="122.13" y2="92.862"/><linearGradient id="SVGID_116_" gradientUnits="userSpaceOnUse" x1="86.243" x2="46.645" xlink:href="#lg4" y1="140.174" y2="119.108"/><linearGradient id="SVGID_117_" gradientUnits="userSpaceOnUse" x1="99.569" x2="60.105" xlink:href="#lg4" y1="149.387" y2="202.45"/><linearGradient id="SVGID_118_" gradientUnits="userSpaceOnUse" x1="90.126" x2="90.126" xlink:href="#lg7" y1="99.173" y2="103.302"/><linearGradient id="SVGID_119_" gradientUnits="userSpaceOnUse" x1="90.126" x2="90.126" xlink:href="#lg7" y1="191.432" y2="195.561"/><linearGradient id="SVGID_120_" gradientUnits="userSpaceOnUse" x1="65.524" x2="119.347" xlink:href="#lg3" y1="48.709" y2="48.709"/><linearGradient id="SVGID_121_" gradientUnits="userSpaceOnUse" x1="90.126" x2="90.126" xlink:href="#lg4" y1="79.507" y2="93.823"/><linearGradient id="SVGID_122_" gradientUnits="userSpaceOnUse" x1="90.198" x2="90.198" xlink:href="#lg4" y1="24.711" y2="-4.557"/><linearGradient id="SVGID_123_" gradientUnits="userSpaceOnUse" x1="86.243" x2="46.645" xlink:href="#lg4" y1="42.755" y2="21.69"/><linearGradient id="SVGID_124_" gradientUnits="userSpaceOnUse" x1="99.569" x2="60.105" xlink:href="#lg4" y1="51.968" y2="105.031"/><linearGradient id="SVGID_125_" gradientUnits="userSpaceOnUse" x1="90.126" x2="90.126" xlink:href="#lg7" y1="1.754" y2="5.883"/><linearGradient id="SVGID_126_" gradientUnits="userSpaceOnUse" x1="90.126" x2="90.126" xlink:href="#lg7" y1="94.014" y2="98.142"/><linearGradient id="SVGID_127_" gradientUnits="userSpaceOnUse" x1="36.602" x2="90.425" xlink:href="#lg7" y1="387.843" y2="387.843"/><linearGradient id="SVGID_128_" gradientUnits="userSpaceOnUse" x1="61.204" x2="61.204" xlink:href="#lg6" y1="418.64" y2="432.956"/><linearGradient id="SVGID_129_" gradientUnits="userSpaceOnUse" x1="61.275" x2="61.275" xlink:href="#lg4" y1="363.845" y2="334.576"/><linearGradient id="SVGID_130_" gradientUnits="userSpaceOnUse" x1="57.321" x2="17.723" xlink:href="#lg4" y1="381.888" y2="360.823"/><linearGradient id="SVGID_131_" gradientUnits="userSpaceOnUse" x1="70.647" x2="31.183" xlink:href="#lg4" y1="391.101" y2="444.164"/><linearGradient id="SVGID_132_" gradientUnits="userSpaceOnUse" x1="61.204" x2="61.204" xlink:href="#lg5" y1="340.887" y2="345.016"/><linearGradient id="SVGID_133_" gradientUnits="userSpaceOnUse" x1="61.204" x2="61.204" xlink:href="#lg2" y1="433.147" y2="437.276"/><linearGradient id="SVGID_134_" gradientUnits="userSpaceOnUse" x1="36.602" x2="90.425" xlink:href="#lg7" y1="290.424" y2="290.424"/><linearGradient id="SVGID_135_" gradientUnits="userSpaceOnUse" x1="61.204" x2="61.204" xlink:href="#lg4" y1="321.221" y2="335.537"/><linearGradient id="SVGID_136_" gradientUnits="userSpaceOnUse" x1="61.275" x2="61.275" xlink:href="#lg4" y1="266.426" y2="237.157"/><linearGradient id="SVGID_137_" gradientUnits="userSpaceOnUse" x1="57.321" x2="17.723" xlink:href="#lg4" y1="284.47" y2="263.404"/><linearGradient id="SVGID_138_" gradientUnits="userSpaceOnUse" x1="70.647" x2="31.183" xlink:href="#lg4" y1="293.682" y2="346.745"/><linearGradient id="SVGID_139_" gradientUnits="userSpaceOnUse" x1="61.204" x2="61.204" xlink:href="#lg5" y1="243.469" y2="247.597"/><linearGradient id="SVGID_140_" gradientUnits="userSpaceOnUse" x1="61.204" x2="61.204" xlink:href="#lg5" y1="335.728" y2="339.857"/><linearGradient id="SVGID_141_" gradientUnits="userSpaceOnUse" x1="36.602" x2="90.425" xlink:href="#lg7" y1="193.005" y2="193.005"/><linearGradient id="SVGID_142_" gradientUnits="userSpaceOnUse" x1="61.204" x2="61.204" xlink:href="#lg4" y1="223.803" y2="238.118"/><linearGradient id="SVGID_143_" gradientUnits="userSpaceOnUse" x1="61.275" x2="61.275" xlink:href="#lg4" y1="169.007" y2="139.739"/><linearGradient id="SVGID_144_" gradientUnits="userSpaceOnUse" x1="57.321" x2="17.723" xlink:href="#lg4" y1="187.051" y2="165.985"/><linearGradient id="SVGID_145_" gradientUnits="userSpaceOnUse" x1="70.647" x2="31.183" xlink:href="#lg4" y1="196.263" y2="249.326"/><linearGradient id="SVGID_146_" gradientUnits="userSpaceOnUse" x1="61.204" x2="61.204" xlink:href="#lg5" y1="146.05" y2="150.179"/><linearGradient id="SVGID_147_" gradientUnits="userSpaceOnUse" x1="61.204" x2="61.204" xlink:href="#lg5" y1="238.309" y2="242.438"/><linearGradient id="SVGID_148_" gradientUnits="userSpaceOnUse" x1="36.602" x2="90.425" xlink:href="#lg7" y1="95.586" y2="95.586"/><linearGradient id="SVGID_149_" gradientUnits="userSpaceOnUse" x1="61.204" x2="61.204" xlink:href="#lg4" y1="126.384" y2="140.7"/><linearGradient id="SVGID_150_" gradientUnits="userSpaceOnUse" x1="61.275" x2="61.275" xlink:href="#lg4" y1="71.588" y2="42.32"/><linearGradient id="SVGID_151_" gradientUnits="userSpaceOnUse" x1="57.321" x2="17.723" xlink:href="#lg4" y1="89.632" y2="68.566"/><linearGradient id="SVGID_152_" gradientUnits="userSpaceOnUse" x1="70.647" x2="31.183" xlink:href="#lg4" y1="98.845" y2="151.908"/><linearGradient id="SVGID_153_" gradientUnits="userSpaceOnUse" x1="61.204" x2="61.204" xlink:href="#lg5" y1="48.631" y2="52.76"/><linearGradient id="SVGID_154_" gradientUnits="userSpaceOnUse" x1="61.204" x2="61.204" xlink:href="#lg5" y1="140.89" y2="145.019"/><linearGradient id="SVGID_155_" gradientUnits="userSpaceOnUse" x1="36.602" x2="90.423" xlink:href="#lg7" y1="22.483" y2="22.483"/><linearGradient id="SVGID_156_" gradientUnits="userSpaceOnUse" x1="61.204" x2="61.204" xlink:href="#lg4" y1="28.965" y2="43.281"/><linearGradient id="SVGID_157_" gradientUnits="userSpaceOnUse" x1="70.727" x2="50.405" xlink:href="#lg4" y1="25.632" y2="52.956"/><linearGradient id="SVGID_158_" gradientUnits="userSpaceOnUse" x1="61.204" x2="61.204" xlink:href="#lg5" y1="43.472" y2="47.6"/><linearGradient id="lg8"><stop offset="0" stop-color="#7acbff" stop-opacity="0"/><stop offset="1" stop-color="#2f73a0"/></linearGradient><linearGradient id="SVGID_159_" gradientUnits="userSpaceOnUse" x1="333.778" x2="347.778" xlink:href="#lg8" y1="315.563" y2="164.063"/><linearGradient id="SVGID_160_" gradientUnits="userSpaceOnUse" x1="247.431" x2="242.431" xlink:href="#lg8" y1="331.251" y2="251.751"/><linearGradient id="SVGID_161_" gradientUnits="userSpaceOnUse" x1="162.115" x2="219.115" xlink:href="#lg8" y1="323.789" y2="153.789"/><linearGradient id="SVGID_162_" gradientUnits="userSpaceOnUse" x1="87.105" x2="87.105" xlink:href="#lg8" y1="337.709" y2="194.705"/><linearGradient id="SVGID_163_" gradientUnits="userSpaceOnUse" x1="423.892" x2="401.892" xlink:href="#lg8" y1="338.285" y2="220.785"/><linearGradient id="SVGID_164_" gradientTransform="matrix(-.963 .271 .271 .963 370.504 79.766)" gradientUnits="userSpaceOnUse" x1="9.26" x2="35.423" xlink:href="#lg7" y1="191.796" y2="191.796"/><linearGradient id="SVGID_165_" gradientTransform="matrix(-.963 .271 .271 .963 370.504 79.766)" gradientUnits="userSpaceOnUse" x1="26.039" x2="-.477" xlink:href="#lg4" y1="189.662" y2="198.565"/><linearGradient id="SVGID_166_" gradientTransform="matrix(-.602 .798 .56 .423 714.076 -90.177)" gradientUnits="userSpaceOnUse" x1="487.887" x2="514.049" xlink:href="#lg5" y1="-38.615" y2="-38.615"/><linearGradient id="SVGID_167_" gradientTransform="matrix(-.602 .798 .56 .423 714.076 -90.177)" gradientUnits="userSpaceOnUse" x1="504.665" x2="478.149" xlink:href="#lg6" y1="-40.75" y2="-31.846"/><linearGradient id="lg9"><stop offset="0" stop-color="#dfdfdf"/><stop offset="1" stop-color="#9da6ac"/></linearGradient><linearGradient id="SVGID_168_" gradientTransform="matrix(-1 0 0 1 283.18 0)" gradientUnits="userSpaceOnUse" x1="-47.418" x2="-22.61" xlink:href="#lg9" y1="336.7" y2="361.508"/><linearGradient id="lg10"><stop offset="0" stop-color="#2f73a0" stop-opacity="0"/><stop offset=".5026" stop-color="#345278" stop-opacity=".503"/><stop offset="1" stop-color="#3a2f4d"/></linearGradient><linearGradient id="SVGID_169_" gradientTransform="matrix(-1 0 0 1 283.18 0)" gradientUnits="userSpaceOnUse" x1="-30.278" x2="-39.612" xlink:href="#lg10" y1="339.786" y2="360.452"/><linearGradient id="SVGID_170_" gradientUnits="userSpaceOnUse" x1="348.728" x2="369.394" xlink:href="#lg9" y1="303.041" y2="333.041"/><linearGradient id="SVGID_171_" gradientTransform="matrix(-1 0 0 1 742.5 0)" gradientUnits="userSpaceOnUse" x1="399.762" x2="269.756" xlink:href="#lg10" y1="331.985" y2="281.487"/><linearGradient id="SVGID_172_" gradientUnits="userSpaceOnUse" x1="372.546" x2="388.213" xlink:href="#lg9" y1="314.847" y2="345.513"/><linearGradient id="SVGID_173_" gradientUnits="userSpaceOnUse" x1="364.103" x2="382.103" xlink:href="#lg10" y1="329.343" y2="361.01"/><linearGradient id="SVGID_174_" gradientTransform="matrix(-1 0 0 1 742.5 0)" gradientUnits="userSpaceOnUse" x1="323.847" x2="348.655" xlink:href="#lg9" y1="344.824" y2="369.632"/><linearGradient id="SVGID_175_" gradientTransform="matrix(-1 0 0 1 742.5 0)" gradientUnits="userSpaceOnUse" x1="340.987" x2="331.653" xlink:href="#lg10" y1="347.91" y2="368.577"/><linearGradient id="SVGID_176_" gradientUnits="userSpaceOnUse" x1="452.049" x2="476.715" xlink:href="#lg9" y1="287.427" y2="353.427"/><linearGradient id="SVGID_177_" gradientTransform="matrix(-1 0 0 1 742.5 0)" gradientUnits="userSpaceOnUse" x1="307.932" x2="146.598" xlink:href="#lg10" y1="324.912" y2="262.246"/><linearGradient id="SVGID_178_" gradientUnits="userSpaceOnUse" x1="467.048" x2="404.048" xlink:href="#lg10" y1="342.144" y2="310.811"/><linearGradient id="lg11"><stop offset="0" stop-color="#2f73a0"/><stop offset="1" stop-color="#174461"/></linearGradient><linearGradient id="SVGID_179_" gradientUnits="userSpaceOnUse" x1="403.367" x2="425.987" xlink:href="#lg11" y1="309.541" y2="332.161"/><linearGradient id="lg12"><stop offset="0" stop-color="#174461" stop-opacity="0"/><stop offset="1" stop-color="#3a2f4d"/></linearGradient><linearGradient id="SVGID_180_" gradientUnits="userSpaceOnUse" x1="420.928" x2="380.035" xlink:href="#lg12" y1="322.266" y2="344.139"/><linearGradient id="SVGID_181_" gradientUnits="userSpaceOnUse" x1="422.447" x2="386.642" xlink:href="#lg12" y1="320.654" y2="305.058"/><linearGradient id="SVGID_182_" gradientUnits="userSpaceOnUse" x1="437.525" x2="406.28" xlink:href="#lg12" y1="318.814" y2="324.861"/><linearGradient id="SVGID_183_" gradientUnits="userSpaceOnUse" x1="409.697" x2="442.011" xlink:href="#lg1" y1="335.423" y2="367.737"/><linearGradient id="SVGID_184_" gradientUnits="userSpaceOnUse" x1="422.161" x2="442.951" xlink:href="#lg8" y1="339.667" y2="335.44"/><linearGradient id="SVGID_185_" gradientUnits="userSpaceOnUse" x1="426.373" x2="426.373" xlink:href="#lg8" y1="359.663" y2="369.301"/><linearGradient id="SVGID_186_" gradientUnits="userSpaceOnUse" x1="384.33" x2="408.827" xlink:href="#lg1" y1="343.263" y2="367.759"/><linearGradient id="SVGID_187_" gradientUnits="userSpaceOnUse" x1="393.779" x2="409.54" xlink:href="#lg8" y1="346.48" y2="343.275"/><linearGradient id="SVGID_188_" gradientUnits="userSpaceOnUse" x1="396.972" x2="396.972" xlink:href="#lg8" y1="361.639" y2="368.945"/><linearGradient id="SVGID_189_" gradientTransform="matrix(-1 0 0 1 493.09 0)" gradientUnits="userSpaceOnUse" x1="423.576" x2="449.794" xlink:href="#lg9" y1="286.049" y2="324.108"/><linearGradient id="SVGID_190_" gradientTransform="matrix(-1 0 0 1 493.09 0)" gradientUnits="userSpaceOnUse" x1="408.025" x2="467.65" xlink:href="#lg10" y1="298.406" y2="336.041"/><linearGradient id="SVGID_191_" gradientUnits="userSpaceOnUse" x1="119.125" x2="150.597" xlink:href="#lg9" y1="339.056" y2="370.528"/><linearGradient id="SVGID_192_" gradientUnits="userSpaceOnUse" x1="140.869" x2="129.029" xlink:href="#lg10" y1="342.971" y2="369.189"/><linearGradient id="SVGID_193_" gradientTransform="matrix(-1 0 0 1 493.09 0)" gradientUnits="userSpaceOnUse" x1="403.598" x2="408.009" xlink:href="#lg9" y1="323.375" y2="362.196"/><linearGradient id="SVGID_194_" gradientUnits="userSpaceOnUse" x1="105.965" x2="95.083" xlink:href="#lg10" y1="335.502" y2="364.323"/><linearGradient id="SVGID_195_" gradientUnits="userSpaceOnUse" x1="255" x2="255" xlink:href="#lg11" y1="362.507" y2="505.774"/><linearGradient id="SVGID_196_" gradientUnits="userSpaceOnUse" x1="261.946" x2="190.048" xlink:href="#lg12" y1="434.879" y2="231.28"/><linearGradient id="SVGID_197_" gradientTransform="matrix(-1 0 0 -1 1574 -1351.446)" gradientUnits="userSpaceOnUse" x1="1330.801" x2="1270.374" xlink:href="#lg12" y1="-1732.339" y2="-1903.455"/><linearGradient id="SVGID_198_" gradientTransform="matrix(1 0 0 -1 0 -1351.446)" gradientUnits="userSpaceOnUse" x1="264.655" x2="215.217" xlink:href="#lg12" y1="-1726.901" y2="-1866.898"/><linearGradient id="SVGID_199_" gradientUnits="userSpaceOnUse" x1="360.092" x2="370.359" xlink:href="#lg8" y1="476.66" y2="365.547"/><linearGradient id="SVGID_200_" gradientUnits="userSpaceOnUse" x1="313.763" x2="310.096" xlink:href="#lg8" y1="488.166" y2="429.859"/><linearGradient id="SVGID_201_" gradientUnits="userSpaceOnUse" x1="243.524" x2="285.329" xlink:href="#lg8" y1="482.692" y2="358.011"/><linearGradient id="SVGID_202_" gradientUnits="userSpaceOnUse" x1="182.844" x2="182.844" xlink:href="#lg8" y1="492.902" y2="388.02"/><linearGradient id="SVGID_203_" gradientUnits="userSpaceOnUse" x1="406.849" x2="390.714" xlink:href="#lg8" y1="493.324" y2="407.147"/><linearGradient id="SVGID_204_" gradientUnits="userSpaceOnUse" x1="150.881" x2="141.881" xlink:href="#lg9" y1="458.185" y2="503.185"/><linearGradient id="SVGID_205_" gradientUnits="userSpaceOnUse" x1="165.037" x2="152.704" xlink:href="#lg10" y1="482.233" y2="514.9"/><linearGradient id="SVGID_206_" gradientTransform="matrix(-.963 .271 .271 .963 370.504 79.766)" gradientUnits="userSpaceOnUse" x1="410.734" x2="436.898" xlink:href="#lg7" y1="254.324" y2="254.324"/><linearGradient id="SVGID_207_" gradientTransform="matrix(-.963 .271 .271 .963 370.504 79.766)" gradientUnits="userSpaceOnUse" x1="427.513" x2="400.998" xlink:href="#lg4" y1="252.189" y2="261.092"/><linearGradient id="SVGID_208_" gradientTransform="matrix(-.602 .798 .56 .423 714.076 -90.177)" gradientUnits="userSpaceOnUse" x1="845.375" x2="871.537" xlink:href="#lg5" y1="-313.865" y2="-313.865"/><linearGradient id="SVGID_209_" gradientTransform="matrix(-.602 .798 .56 .423 714.076 -90.177)" gradientUnits="userSpaceOnUse" x1="862.153" x2="835.637" xlink:href="#lg6" y1="-315.999" y2="-307.096"/><linearGradient id="SVGID_210_" gradientTransform="matrix(.999 -.044 .044 .999 417.081 72.298)" gradientUnits="userSpaceOnUse" x1="26.253" x2="54.986" xlink:href="#lg7" y1="348.823" y2="348.823"/><linearGradient id="SVGID_211_" gradientTransform="matrix(.999 -.044 .044 .999 417.081 72.298)" gradientUnits="userSpaceOnUse" x1="44.679" x2="15.559" xlink:href="#lg4" y1="346.478" y2="356.256"/><linearGradient id="SVGID_212_" gradientTransform="matrix(.822 .57 -.4 .577 37.6 18.299)" gradientUnits="userSpaceOnUse" x1="598.567" x2="627.3" xlink:href="#lg5" y1="124.603" y2="124.603"/><linearGradient id="SVGID_213_" gradientTransform="matrix(.822 .57 -.4 .577 37.6 18.299)" gradientUnits="userSpaceOnUse" x1="616.994" x2="587.873" xlink:href="#lg6" y1="122.259" y2="132.037"/><linearGradient id="SVGID_214_" gradientUnits="userSpaceOnUse" x1="113.415" x2="138.223" xlink:href="#lg9" y1="493.491" y2="518.299"/><linearGradient id="SVGID_215_" gradientUnits="userSpaceOnUse" x1="130.555" x2="121.222" xlink:href="#lg10" y1="496.577" y2="517.243"/><linearGradient id="SVGID_216_" gradientUnits="userSpaceOnUse" x1="44.316" x2="95.457" xlink:href="#lg9" y1="453.695" y2="504.836"/><linearGradient id="SVGID_217_" gradientUnits="userSpaceOnUse" x1="97.5" x2="-63.833" xlink:href="#lg10" y1="473.579" y2="410.912"/><linearGradient id="SVGID_218_" gradientUnits="userSpaceOnUse" x1="431.971" x2="452.874" xlink:href="#lg9" y1="445.518" y2="475.861"/><linearGradient id="SVGID_219_" gradientUnits="userSpaceOnUse" x1="418.827" x2="470.444" xlink:href="#lg10" y1="456.678" y2="489.259"/><linearGradient id="SVGID_220_" gradientTransform="matrix(-1 0 0 1 283.18 0)" gradientUnits="userSpaceOnUse" x1="-106.161" x2="-78.916" xlink:href="#lg9" y1="491.869" y2="519.114"/><linearGradient id="SVGID_221_" gradientTransform="matrix(-1 0 0 1 283.18 0)" gradientUnits="userSpaceOnUse" x1="-87.337" x2="-97.587" xlink:href="#lg10" y1="495.258" y2="517.955"/><linearGradient id="SVGID_222_" gradientUnits="userSpaceOnUse" x1="414.994" x2="418.813" xlink:href="#lg9" y1="478.294" y2="511.901"/><linearGradient id="SVGID_223_" gradientTransform="matrix(-1 0 0 1 735 0)" gradientUnits="userSpaceOnUse" x1="334.266" x2="324.846" xlink:href="#lg10" y1="488.792" y2="513.742"/><linearGradient id="SVGID_224_" gradientUnits="userSpaceOnUse" x1="37.241" x2="72.391" xlink:href="#lg9" y1="485.647" y2="520.797"/><linearGradient id="SVGID_225_" gradientUnits="userSpaceOnUse" x1="74.394" x2="59.164" xlink:href="#lg10" y1="482.862" y2="501.806"/><g><path d="m485.638 510h-461.276c-13.455 0-24.362-10.907-24.362-24.362v-461.276c0-13.455 10.907-24.362 24.362-24.362h461.275c13.456 0 24.363 10.907 24.363 24.362v461.275c0 13.456-10.907 24.363-24.362 24.363z" fill="url(#SVGID_1_)"/><g><circle cx="20.75" cy="20" fill="url(#SVGID_2_)" r="4.5"/><circle cx="22.083" cy="86.667" fill="url(#SVGID_3_)" r="4.5"/><circle cx="137.417" cy="217.333" fill="url(#SVGID_4_)" r="4.5"/><circle cx="186.583" cy="59.333" fill="url(#SVGID_5_)" r="4.5"/><circle cx="150.75" cy="106.5" fill="url(#SVGID_6_)" r="4.5"/><circle cx="335.417" cy="174.667" fill="url(#SVGID_7_)" r="4.5"/><circle cx="408.083" cy="228.5" fill="url(#SVGID_8_)" r="4.5"/><circle cx="14.75" cy="169.333" fill="url(#SVGID_9_)" r="4.5"/><circle cx="16.083" cy="237.333" fill="url(#SVGID_10_)" r="4.5"/><circle cx="350.75" cy="263.333" fill="url(#SVGID_11_)" r="4.5"/><circle cx="414.75" cy="76" fill="url(#SVGID_12_)" r="4.5"/><circle cx="198.083" cy="235.333" fill="url(#SVGID_13_)" r="4.5"/><circle cx="221.417" cy="181.167" fill="url(#SVGID_14_)" r="4.5"/><circle cx="240.083" cy="258" fill="url(#SVGID_15_)" r="4.5"/><circle cx="324.75" cy="26" fill="url(#SVGID_16_)" r="4.5"/><circle cx="478.75" cy="164.667" fill="url(#SVGID_17_)" r="4.5"/><circle cx="490.583" cy="88" fill="url(#SVGID_18_)" r="4.5"/><circle cx="167.417" cy="161.333" fill="url(#SVGID_19_)" r="4.5"/><circle cx="495.25" cy="229.333" fill="url(#SVGID_20_)" r="4.5"/><circle cx="289.417" cy="226.667" fill="url(#SVGID_21_)" r="4.5"/><circle cx="480.75" cy="18.667" fill="url(#SVGID_22_)" r="4.5"/><circle cx="454.75" cy="277.333" fill="url(#SVGID_23_)" r="4.5"/><circle cx="214.75" cy="120.833" fill="url(#SVGID_24_)" r="4.5"/><circle cx="244.75" cy="90.667" fill="url(#SVGID_25_)" r="4.5"/><circle cx="223.25" cy="20.667" fill="url(#SVGID_26_)" r="4.5"/><circle cx="140.083" cy="32.5" fill="url(#SVGID_27_)" r="4.5"/></g><path d="m283.124 35.258c-7.274-.276-14.298.614-20.906 2.494-5.379 1.53-6.8 8.533-2.424 12.016 15.403 12.262 25.279 31.166 25.279 52.384 0 21.221-9.88 40.128-25.286 52.389-4.345 3.458-2.995 10.459 2.345 11.986 5.844 1.671 12.014 2.568 18.395 2.568 37.995 0 68.597-31.653 66.874-70.028-1.553-34.549-29.719-62.495-64.277-63.809z" fill="url(#SVGID_28_)"/><g><g><g><path d="m426.366 341.046c-2.663 0-4.554 2.621-3.677 5.136 3.694 10.595 5.985 25.346 5.985 41.66s-2.291 31.065-5.985 41.66c-.877 2.515 1.014 5.136 3.677 5.136h41.416c2.663 0 4.554-2.621 3.677-5.136-3.694-10.595-5.985-25.346-5.985-41.66s2.291-31.065 5.985-41.66c.877-2.515-1.014-5.136-3.677-5.136z" fill="url(#SVGID_29_)"/><path d="m422.689 429.503c-.877 2.515 1.014 5.136 3.677 5.136h41.416c2.663 0 4.554-2.621 3.677-5.136-1.931-5.539-3.474-12.222-4.511-19.662h-39.748c-1.037 7.44-2.58 14.123-4.511 19.662z" fill="url(#SVGID_30_)"/><path d="m467.782 341.046h-41.416c-1.835 0-3.302 1.244-3.751 2.84l42.869 42.866c.1-15.878 2.364-30.212 5.976-40.57.876-2.514-1.015-5.136-3.678-5.136z" fill="url(#SVGID_31_)"/><path d="m467.782 341.046h-27.775v93.593h27.775c2.663 0 4.554-2.621 3.677-5.136-3.694-10.595-5.985-25.346-5.985-41.66s2.291-31.065 5.985-41.66c.877-2.515-1.014-5.137-3.677-5.137z" fill="url(#SVGID_32_)"/><path d="m467.782 341.046h-19.641v93.593h19.641c2.663 0 4.554-2.621 3.677-5.136-3.694-10.595-5.985-25.346-5.985-41.66s2.291-31.065 5.985-41.66c.877-2.515-1.014-5.137-3.677-5.137z" fill="url(#SVGID_33_)"/><g><path d="m470.087 344.293h-46.026c-1.425 0-2.58-1.155-2.58-2.58 0-1.425 1.155-2.58 2.58-2.58h46.026c1.425 0 2.58 1.155 2.58 2.58 0 1.425-1.155 2.58-2.58 2.58z" fill="url(#SVGID_34_)"/><path d="m470.087 436.552h-46.026c-1.425 0-2.58-1.155-2.58-2.58 0-1.425 1.155-2.58 2.58-2.58h46.026c1.425 0 2.58 1.155 2.58 2.58 0 1.425-1.155 2.58-2.58 2.58z" fill="url(#SVGID_35_)"/></g></g><g><path d="m426.366 243.627c-2.663 0-4.554 2.621-3.677 5.136 3.694 10.595 5.985 25.346 5.985 41.66s-2.291 31.065-5.985 41.66c-.877 2.515 1.014 5.136 3.677 5.136h41.416c2.663 0 4.554-2.621 3.677-5.136-3.694-10.595-5.985-25.346-5.985-41.66s2.291-31.065 5.985-41.66c.877-2.515-1.014-5.136-3.677-5.136z" fill="url(#SVGID_36_)"/><path d="m422.689 332.084c-.877 2.515 1.014 5.136 3.677 5.136h41.416c2.663 0 4.554-2.621 3.677-5.136-1.931-5.539-3.474-12.222-4.511-19.662h-39.748c-1.037 7.44-2.58 14.123-4.511 19.662z" fill="url(#SVGID_37_)"/><path d="m467.782 243.627h-41.416c-1.835 0-3.302 1.244-3.751 2.84l42.869 42.866c.1-15.878 2.364-30.212 5.976-40.57.876-2.514-1.015-5.136-3.678-5.136z" fill="url(#SVGID_38_)"/><path d="m467.782 243.627h-27.775v93.593h27.775c2.663 0 4.554-2.621 3.677-5.136-3.694-10.595-5.985-25.346-5.985-41.66s2.291-31.065 5.985-41.66c.877-2.515-1.014-5.137-3.677-5.137z" fill="url(#SVGID_39_)"/><path d="m467.782 243.627h-19.641v93.593h19.641c2.663 0 4.554-2.621 3.677-5.136-3.694-10.595-5.985-25.346-5.985-41.66s2.291-31.065 5.985-41.66c.877-2.515-1.014-5.137-3.677-5.137z" fill="url(#SVGID_40_)"/><g><path d="m470.087 246.874h-46.026c-1.425 0-2.58-1.155-2.58-2.58 0-1.425 1.155-2.58 2.58-2.58h46.026c1.425 0 2.58 1.155 2.58 2.58 0 1.425-1.155 2.58-2.58 2.58z" fill="url(#SVGID_41_)"/><path d="m470.087 339.133h-46.026c-1.425 0-2.58-1.155-2.58-2.58 0-1.425 1.155-2.58 2.58-2.58h46.026c1.425 0 2.58 1.155 2.58 2.58 0 1.425-1.155 2.58-2.58 2.58z" fill="url(#SVGID_42_)"/></g></g><g><path d="m426.366 146.209c-2.663 0-4.554 2.621-3.677 5.136 3.694 10.595 5.985 25.346 5.985 41.66s-2.291 31.065-5.985 41.66c-.877 2.515 1.014 5.136 3.677 5.136h41.416c2.663 0 4.554-2.621 3.677-5.136-3.694-10.595-5.985-25.346-5.985-41.66s2.291-31.065 5.985-41.66c.877-2.515-1.014-5.136-3.677-5.136z" fill="url(#SVGID_43_)"/><path d="m422.689 234.665c-.877 2.515 1.014 5.136 3.677 5.136h41.416c2.663 0 4.554-2.621 3.677-5.136-1.931-5.539-3.474-12.222-4.511-19.662h-39.748c-1.037 7.44-2.58 14.123-4.511 19.662z" fill="url(#SVGID_44_)"/><path d="m467.782 146.209h-41.416c-1.835 0-3.302 1.244-3.751 2.84l42.869 42.866c.1-15.878 2.364-30.212 5.976-40.57.876-2.515-1.015-5.136-3.678-5.136z" fill="url(#SVGID_45_)"/><path d="m467.782 146.209h-27.775v93.593h27.775c2.663 0 4.554-2.621 3.677-5.136-3.694-10.595-5.985-25.346-5.985-41.66s2.291-31.065 5.985-41.66c.877-2.516-1.014-5.137-3.677-5.137z" fill="url(#SVGID_46_)"/><path d="m467.782 146.209h-19.641v93.593h19.641c2.663 0 4.554-2.621 3.677-5.136-3.694-10.595-5.985-25.346-5.985-41.66s2.291-31.065 5.985-41.66c.877-2.516-1.014-5.137-3.677-5.137z" fill="url(#SVGID_47_)"/><g><path d="m470.087 149.455h-46.026c-1.425 0-2.58-1.155-2.58-2.58 0-1.425 1.155-2.58 2.58-2.58h46.026c1.425 0 2.58 1.155 2.58 2.58 0 1.425-1.155 2.58-2.58 2.58z" fill="url(#SVGID_48_)"/><path d="m470.087 241.714h-46.026c-1.425 0-2.58-1.155-2.58-2.58 0-1.425 1.155-2.58 2.58-2.58h46.026c1.425 0 2.58 1.155 2.58 2.58 0 1.425-1.155 2.58-2.58 2.58z" fill="url(#SVGID_49_)"/></g></g><g><path d="m426.366 48.79c-2.663 0-4.554 2.621-3.677 5.136 3.694 10.595 5.985 25.346 5.985 41.66s-2.291 31.065-5.985 41.66c-.877 2.515 1.014 5.136 3.677 5.136h41.416c2.663 0 4.554-2.621 3.677-5.136-3.694-10.595-5.985-25.346-5.985-41.66s2.291-31.065 5.985-41.66c.877-2.515-1.014-5.136-3.677-5.136z" fill="url(#SVGID_50_)"/><path d="m422.689 137.246c-.877 2.515 1.014 5.136 3.677 5.136h41.416c2.663 0 4.554-2.621 3.677-5.136-1.931-5.539-3.474-12.222-4.511-19.662h-39.748c-1.037 7.441-2.58 14.123-4.511 19.662z" fill="url(#SVGID_51_)"/><path d="m467.782 48.79h-41.416c-1.835 0-3.302 1.244-3.751 2.84l42.869 42.866c.1-15.878 2.364-30.212 5.976-40.57.876-2.515-1.015-5.136-3.678-5.136z" fill="url(#SVGID_52_)"/><path d="m467.782 48.79h-27.775v93.593h27.775c2.663 0 4.554-2.621 3.677-5.136-3.694-10.595-5.985-25.346-5.985-41.66s2.291-31.065 5.985-41.66c.877-2.516-1.014-5.137-3.677-5.137z" fill="url(#SVGID_53_)"/><path d="m467.782 48.79h-19.641v93.593h19.641c2.663 0 4.554-2.621 3.677-5.136-3.694-10.595-5.985-25.346-5.985-41.66s2.291-31.065 5.985-41.66c.877-2.516-1.014-5.137-3.677-5.137z" fill="url(#SVGID_54_)"/><g><path d="m470.087 52.036h-46.026c-1.425 0-2.58-1.155-2.58-2.58 0-1.425 1.155-2.58 2.58-2.58h46.026c1.425 0 2.58 1.155 2.58 2.58 0 1.425-1.155 2.58-2.58 2.58z" fill="url(#SVGID_55_)"/><path d="m470.087 144.296h-46.026c-1.425 0-2.58-1.155-2.58-2.58 0-1.425 1.155-2.58 2.58-2.58h46.026c1.425 0 2.58 1.155 2.58 2.58 0 1.425-1.155 2.58-2.58 2.58z" fill="url(#SVGID_56_)"/></g></g><g><path d="m467.786 44.967h-41.42c-2.66 0-4.55-2.62-3.68-5.14 3.303-9.455 5.488-22.234 5.905-36.483.055-1.862 1.584-3.344 3.447-3.344h30.075c1.864 0 3.393 1.482 3.447 3.345.417 14.249 2.601 27.027 5.895 36.483.881 2.519-1.009 5.139-3.669 5.139z" fill="url(#SVGID_57_)"/><path d="m422.689 39.827c-.877 2.515 1.014 5.136 3.677 5.136h41.416c2.663 0 4.554-2.621 3.677-5.136-1.931-5.539-3.474-12.222-4.511-19.662h-39.748c-1.037 7.441-2.58 14.123-4.511 19.662z" fill="url(#SVGID_58_)"/><path d="m467.786 44.967h-19.65v-44.967h13.978c1.864 0 3.393 1.482 3.447 3.345.417 14.249 2.601 27.027 5.895 36.483.88 2.519-1.01 5.139-3.67 5.139z" fill="url(#SVGID_59_)"/><g><path d="m470.087 46.877h-46.026c-1.425 0-2.58-1.155-2.58-2.58 0-1.425 1.155-2.58 2.58-2.58h46.026c1.425 0 2.58 1.155 2.58 2.58 0 1.425-1.155 2.58-2.58 2.58z" fill="url(#SVGID_60_)"/></g></g></g><g><g><path d="m373.517 274.547c8.431 19.334 11.384 38.948 9.381 55.271-.352 2.866-3.615 4.289-5.955 2.597-13.326-9.64-25.689-25.15-34.12-44.484s-11.384-38.948-9.381-55.271c.352-2.866 3.615-4.289 5.955-2.597 13.325 9.639 25.688 25.149 34.12 44.484z" fill="url(#SVGID_61_)"/><path d="m335.998 229.533 44.976 103.135c-1.204.66-2.753.67-4.03-.254-13.326-9.64-25.689-25.15-34.12-44.484s-11.384-38.948-9.381-55.271c.19-1.564 1.252-2.693 2.555-3.126z" fill="url(#SVGID_62_)"/></g><g><path d="m354.528 299.098c12.918 7.222 22.146 18.262 26.739 30.408.806 2.133-.931 5.24-3.17 5.67-12.754 2.449-26.992.369-39.91-6.853s-22.146-18.262-26.739-30.408c-.806-2.133.931-5.24 3.17-5.67 12.754-2.449 26.992-.369 39.91 6.853z" fill="url(#SVGID_63_)"/><path d="m312.072 294.148 68.907 38.524c-.591 1.236-1.66 2.27-2.882 2.504-12.754 2.449-26.992.369-39.91-6.853s-22.146-18.262-26.739-30.408c-.44-1.164-.119-2.616.624-3.767z" fill="url(#SVGID_64_)"/></g><g><path d="m349.861 69.781c12.918 7.222 22.146 18.262 26.739 30.408.806 2.133-.931 5.24-3.17 5.67-12.754 2.449-26.992.369-39.91-6.853s-22.146-18.262-26.739-30.408c-.806-2.133.931-5.24 3.17-5.67 12.754-2.449 26.993-.369 39.91 6.853z" fill="url(#SVGID_65_)"/><path d="m307.405 64.831 68.907 38.524c-.591 1.236-1.66 2.27-2.882 2.504-12.754 2.449-26.992.369-39.91-6.853s-22.146-18.262-26.739-30.408c-.44-1.164-.119-2.616.624-3.767z" fill="url(#SVGID_66_)"/></g></g><g><g><path d="m361.877 294.17c-2.663 0-4.554 2.621-3.677 5.136 3.694 10.595 5.985 25.346 5.985 41.66s-2.291 31.065-5.985 41.66c-.877 2.515 1.014 5.136 3.677 5.136h41.416c2.663 0 4.554-2.621 3.677-5.136-3.694-10.595-5.985-25.346-5.985-41.66s2.291-31.065 5.985-41.66c.877-2.515-1.014-5.136-3.677-5.136z" fill="url(#SVGID_67_)"/><path d="m358.2 382.626c-.877 2.515 1.014 5.136 3.677 5.136h41.416c2.663 0 4.554-2.621 3.677-5.136-1.931-5.539-3.474-12.222-4.511-19.662h-39.747c-1.038 7.44-2.581 14.123-4.512 19.662z" fill="url(#SVGID_68_)"/><path d="m403.293 294.17h-41.416c-1.835 0-3.302 1.244-3.751 2.84l42.869 42.866c.1-15.878 2.364-30.212 5.976-40.57.876-2.515-1.015-5.136-3.678-5.136z" fill="url(#SVGID_69_)"/><path d="m403.293 294.17h-27.775v93.593h27.775c2.663 0 4.554-2.621 3.677-5.136-3.694-10.595-5.985-25.346-5.985-41.66s2.291-31.065 5.985-41.66c.877-2.516-1.014-5.137-3.677-5.137z" fill="url(#SVGID_70_)"/><path d="m403.293 294.17h-19.641v93.593h19.641c2.663 0 4.554-2.621 3.677-5.136-3.694-10.595-5.985-25.346-5.985-41.66s2.291-31.065 5.985-41.66c.877-2.516-1.014-5.137-3.677-5.137z" fill="url(#SVGID_71_)"/><g><path d="m405.598 297.416h-46.026c-1.425 0-2.58-1.155-2.58-2.58 0-1.425 1.155-2.58 2.58-2.58h46.026c1.425 0 2.58 1.155 2.58 2.58 0 1.425-1.155 2.58-2.58 2.58z" fill="url(#SVGID_72_)"/><path d="m405.598 389.675h-46.026c-1.425 0-2.58-1.155-2.58-2.58 0-1.425 1.155-2.58 2.58-2.58h46.026c1.425 0 2.58 1.155 2.58 2.58 0 1.425-1.155 2.58-2.58 2.58z" fill="url(#SVGID_73_)"/></g></g><g><path d="m361.877 196.751c-2.663 0-4.554 2.621-3.677 5.136 3.694 10.595 5.985 25.346 5.985 41.66s-2.291 31.065-5.985 41.66c-.877 2.515 1.014 5.136 3.677 5.136h41.416c2.663 0 4.554-2.621 3.677-5.136-3.694-10.595-5.985-25.346-5.985-41.66s2.291-31.065 5.985-41.66c.877-2.515-1.014-5.136-3.677-5.136z" fill="url(#SVGID_74_)"/><path d="m358.2 285.207c-.877 2.515 1.014 5.136 3.677 5.136h41.416c2.663 0 4.554-2.621 3.677-5.136-1.931-5.539-3.474-12.222-4.511-19.662h-39.747c-1.038 7.441-2.581 14.123-4.512 19.662z" fill="url(#SVGID_75_)"/><path d="m403.293 196.751h-41.416c-1.835 0-3.302 1.244-3.751 2.84l42.869 42.866c.1-15.878 2.364-30.212 5.976-40.57.876-2.515-1.015-5.136-3.678-5.136z" fill="url(#SVGID_76_)"/><path d="m403.293 196.751h-27.775v93.593h27.775c2.663 0 4.554-2.621 3.677-5.136-3.694-10.595-5.985-25.346-5.985-41.66s2.291-31.065 5.985-41.66c.877-2.516-1.014-5.137-3.677-5.137z" fill="url(#SVGID_77_)"/><path d="m403.293 196.751h-19.641v93.593h19.641c2.663 0 4.554-2.621 3.677-5.136-3.694-10.595-5.985-25.346-5.985-41.66s2.291-31.065 5.985-41.66c.877-2.516-1.014-5.137-3.677-5.137z" fill="url(#SVGID_78_)"/><g><path d="m405.598 199.997h-46.026c-1.425 0-2.58-1.155-2.58-2.58 0-1.425 1.155-2.58 2.58-2.58h46.026c1.425 0 2.58 1.155 2.58 2.58 0 1.425-1.155 2.58-2.58 2.58z" fill="url(#SVGID_79_)"/><path d="m405.598 292.256h-46.026c-1.425 0-2.58-1.155-2.58-2.58 0-1.425 1.155-2.58 2.58-2.58h46.026c1.425 0 2.58 1.155 2.58 2.58 0 1.426-1.155 2.58-2.58 2.58z" fill="url(#SVGID_80_)"/></g></g><g><path d="m361.877 99.332c-2.663 0-4.554 2.621-3.677 5.136 3.694 10.595 5.985 25.346 5.985 41.66s-2.291 31.065-5.985 41.66c-.877 2.515 1.014 5.136 3.677 5.136h41.416c2.663 0 4.554-2.621 3.677-5.136-3.694-10.595-5.985-25.346-5.985-41.66s2.291-31.065 5.985-41.66c.877-2.515-1.014-5.136-3.677-5.136z" fill="url(#SVGID_81_)"/><path d="m358.2 187.788c-.877 2.515 1.014 5.136 3.677 5.136h41.416c2.663 0 4.554-2.621 3.677-5.136-1.931-5.539-3.474-12.222-4.511-19.662h-39.747c-1.038 7.441-2.581 14.123-4.512 19.662z" fill="url(#SVGID_82_)"/><path d="m403.293 99.332h-41.416c-1.835 0-3.302 1.244-3.751 2.84l42.869 42.866c.1-15.878 2.364-30.212 5.976-40.57.876-2.515-1.015-5.136-3.678-5.136z" fill="url(#SVGID_83_)"/><path d="m403.293 99.332h-27.775v93.593h27.775c2.663 0 4.554-2.621 3.677-5.136-3.694-10.595-5.985-25.346-5.985-41.66s2.291-31.065 5.985-41.66c.877-2.516-1.014-5.137-3.677-5.137z" fill="url(#SVGID_84_)"/><path d="m403.293 99.332h-19.641v93.593h19.641c2.663 0 4.554-2.621 3.677-5.136-3.694-10.595-5.985-25.346-5.985-41.66s2.291-31.065 5.985-41.66c.877-2.516-1.014-5.137-3.677-5.137z" fill="url(#SVGID_85_)"/><g><path d="m405.598 102.578h-46.026c-1.425 0-2.58-1.155-2.58-2.58 0-1.425 1.155-2.58 2.58-2.58h46.026c1.425 0 2.58 1.155 2.58 2.58 0 1.425-1.155 2.58-2.58 2.58z" fill="url(#SVGID_86_)"/><path d="m405.598 194.838h-46.026c-1.425 0-2.58-1.155-2.58-2.58 0-1.425 1.155-2.58 2.58-2.58h46.026c1.425 0 2.58 1.155 2.58 2.58 0 1.425-1.155 2.58-2.58 2.58z" fill="url(#SVGID_87_)"/></g></g><g><path d="m361.877 1.913c-2.663 0-4.554 2.621-3.677 5.136 3.694 10.595 5.985 25.346 5.985 41.66s-2.291 31.065-5.985 41.66c-.877 2.515 1.014 5.136 3.677 5.136h41.416c2.663 0 4.554-2.621 3.677-5.136-3.694-10.595-5.985-25.346-5.985-41.66s2.291-31.065 5.985-41.66c.877-2.515-1.014-5.136-3.677-5.136h-41.416z" fill="url(#SVGID_88_)"/><path d="m358.2 90.37c-.877 2.515 1.014 5.136 3.677 5.136h41.416c2.663 0 4.554-2.621 3.677-5.136-1.931-5.539-3.474-12.222-4.511-19.662h-39.747c-1.038 7.44-2.581 14.123-4.512 19.662z" fill="url(#SVGID_89_)"/><path d="m403.293 1.913h-41.416c-1.835 0-3.302 1.244-3.751 2.84l42.869 42.866c.1-15.878 2.364-30.212 5.976-40.57.876-2.514-1.015-5.136-3.678-5.136z" fill="url(#SVGID_90_)"/><path d="m403.293 1.913h-27.775v93.593h27.775c2.663 0 4.554-2.621 3.677-5.136-3.694-10.595-5.985-25.346-5.985-41.66s2.291-31.065 5.985-41.66c.877-2.515-1.014-5.137-3.677-5.137z" fill="url(#SVGID_91_)"/><path d="m403.293 1.913h-19.641v93.593h19.641c2.663 0 4.554-2.621 3.677-5.136-3.694-10.595-5.985-25.346-5.985-41.66s2.291-31.065 5.985-41.66c.877-2.515-1.014-5.137-3.677-5.137z" fill="url(#SVGID_92_)"/><g><path d="m405.598 5.159h-46.026c-1.425 0-2.58-1.155-2.58-2.58 0-1.425 1.155-2.58 2.58-2.58h46.026c1.425 0 2.58 1.155 2.58 2.58 0 1.425-1.155 2.58-2.58 2.58z" fill="url(#SVGID_93_)"/><path d="m405.598 97.419h-46.026c-1.425 0-2.58-1.155-2.58-2.58 0-1.425 1.155-2.58 2.58-2.58h46.026c1.425 0 2.58 1.155 2.58 2.58 0 1.425-1.155 2.58-2.58 2.58z" fill="url(#SVGID_94_)"/></g></g></g></g><g><g><g><path d="m103.932 148.034c-5.717 20.303-5.969 40.136-1.759 56.034.739 2.792 4.166 3.756 6.253 1.761 11.887-11.366 22.021-28.416 27.738-48.719s5.969-40.136 1.759-56.034c-.739-2.792-4.166-3.756-6.253-1.761-11.887 11.365-22.021 28.416-27.738 48.719z" fill="url(#SVGID_95_)"/><path d="m134.965 98.327-30.497 108.303c1.283.49 2.819.288 3.958-.801 11.887-11.366 22.021-28.416 27.738-48.719s5.969-40.136 1.759-56.034c-.403-1.525-1.608-2.498-2.958-2.749z" fill="url(#SVGID_96_)"/></g></g><g><g><path d="m114.691 257.165c-11.683 12.051-18.609 26.57-20.45 40.481-.323 2.443 2.233 4.92 4.665 4.521 13.848-2.272 28.145-9.646 39.828-21.697s18.609-26.57 20.45-40.481c.323-2.443-2.233-4.92-4.665-4.521-13.848 2.272-28.145 9.646-39.828 21.697z" fill="url(#SVGID_97_)"/><path d="m157.626 236.435-62.321 64.285c.913 1.023 2.274 1.665 3.601 1.447 13.848-2.272 28.145-9.646 39.828-21.697s18.609-26.57 20.45-40.481c.176-1.333-.508-2.673-1.558-3.554z" fill="url(#SVGID_98_)"/></g></g><g><g><path d="m69.418 294.17c-2.663 0-4.554 2.621-3.677 5.136 3.694 10.595 5.985 25.346 5.985 41.66s-2.291 31.065-5.985 41.66c-.877 2.515 1.014 5.136 3.677 5.136h41.416c2.663 0 4.554-2.621 3.677-5.136-3.694-10.595-5.985-25.346-5.985-41.66s2.291-31.065 5.985-41.66c.877-2.515-1.014-5.136-3.677-5.136z" fill="url(#SVGID_99_)"/><path d="m65.741 382.626c-.877 2.515 1.014 5.136 3.677 5.136h41.416c2.663 0 4.554-2.621 3.677-5.136-1.931-5.539-3.474-12.222-4.511-19.662h-39.747c-1.038 7.44-2.581 14.123-4.512 19.662z" fill="url(#SVGID_100_)"/><path d="m110.834 294.17h-41.416c-1.835 0-3.302 1.244-3.751 2.84l42.869 42.866c.1-15.878 2.364-30.212 5.976-40.57.876-2.515-1.015-5.136-3.678-5.136z" fill="url(#SVGID_101_)"/><path d="m110.834 294.17h-27.774v93.593h27.775c2.663 0 4.554-2.621 3.677-5.136-3.694-10.595-5.985-25.346-5.985-41.66s2.291-31.065 5.985-41.66c.876-2.516-1.015-5.137-3.678-5.137z" fill="url(#SVGID_102_)"/><path d="m110.834 294.17h-19.641v93.593h19.641c2.663 0 4.554-2.621 3.677-5.136-3.694-10.595-5.985-25.346-5.985-41.66s2.291-31.065 5.985-41.66c.877-2.516-1.014-5.137-3.677-5.137z" fill="url(#SVGID_103_)"/><g><path d="m113.139 297.416h-46.026c-1.425 0-2.58-1.155-2.58-2.58 0-1.425 1.155-2.58 2.58-2.58h46.026c1.425 0 2.58 1.155 2.58 2.58 0 1.425-1.155 2.58-2.58 2.58z" fill="url(#SVGID_104_)"/><path d="m113.139 389.675h-46.026c-1.425 0-2.58-1.155-2.58-2.58 0-1.425 1.155-2.58 2.58-2.58h46.026c1.425 0 2.58 1.155 2.58 2.58 0 1.425-1.155 2.58-2.58 2.58z" fill="url(#SVGID_105_)"/></g></g><g><path d="m69.418 196.751c-2.663 0-4.554 2.621-3.677 5.136 3.694 10.595 5.985 25.346 5.985 41.66s-2.291 31.065-5.985 41.66c-.877 2.515 1.014 5.136 3.677 5.136h41.416c2.663 0 4.554-2.621 3.677-5.136-3.694-10.595-5.985-25.346-5.985-41.66s2.291-31.065 5.985-41.66c.877-2.515-1.014-5.136-3.677-5.136z" fill="url(#SVGID_106_)"/><path d="m65.741 285.207c-.877 2.515 1.014 5.136 3.677 5.136h41.416c2.663 0 4.554-2.621 3.677-5.136-1.931-5.539-3.474-12.222-4.511-19.662h-39.747c-1.038 7.441-2.581 14.123-4.512 19.662z" fill="url(#SVGID_107_)"/><path d="m110.834 196.751h-41.416c-1.835 0-3.302 1.244-3.751 2.84l42.869 42.866c.1-15.878 2.364-30.212 5.976-40.57.876-2.515-1.015-5.136-3.678-5.136z" fill="url(#SVGID_108_)"/><path d="m110.834 196.751h-27.774v93.593h27.775c2.663 0 4.554-2.621 3.677-5.136-3.694-10.595-5.985-25.346-5.985-41.66s2.291-31.065 5.985-41.66c.876-2.516-1.015-5.137-3.678-5.137z" fill="url(#SVGID_109_)"/><path d="m110.834 196.751h-19.641v93.593h19.641c2.663 0 4.554-2.621 3.677-5.136-3.694-10.595-5.985-25.346-5.985-41.66s2.291-31.065 5.985-41.66c.877-2.516-1.014-5.137-3.677-5.137z" fill="url(#SVGID_110_)"/><g><path d="m113.139 199.997h-46.026c-1.425 0-2.58-1.155-2.58-2.58 0-1.425 1.155-2.58 2.58-2.58h46.026c1.425 0 2.58 1.155 2.58 2.58 0 1.425-1.155 2.58-2.58 2.58z" fill="url(#SVGID_111_)"/><path d="m113.139 292.256h-46.026c-1.425 0-2.58-1.155-2.58-2.58 0-1.425 1.155-2.58 2.58-2.58h46.026c1.425 0 2.58 1.155 2.58 2.58 0 1.426-1.155 2.58-2.58 2.58z" fill="url(#SVGID_112_)"/></g></g><g><path d="m69.418 99.332c-2.663 0-4.554 2.621-3.677 5.136 3.694 10.595 5.985 25.346 5.985 41.66s-2.291 31.065-5.985 41.66c-.877 2.515 1.014 5.136 3.677 5.136h41.416c2.663 0 4.554-2.621 3.677-5.136-3.694-10.595-5.985-25.346-5.985-41.66s2.291-31.065 5.985-41.66c.877-2.515-1.014-5.136-3.677-5.136z" fill="url(#SVGID_113_)"/><path d="m65.741 187.788c-.877 2.515 1.014 5.136 3.677 5.136h41.416c2.663 0 4.554-2.621 3.677-5.136-1.931-5.539-3.474-12.222-4.511-19.662h-39.747c-1.038 7.441-2.581 14.123-4.512 19.662z" fill="url(#SVGID_114_)"/><path d="m110.834 99.332h-41.416c-1.835 0-3.302 1.244-3.751 2.84l42.869 42.866c.1-15.878 2.364-30.212 5.976-40.57.876-2.515-1.015-5.136-3.678-5.136z" fill="url(#SVGID_115_)"/><path d="m110.834 99.332h-27.774v93.593h27.775c2.663 0 4.554-2.621 3.677-5.136-3.694-10.595-5.985-25.346-5.985-41.66s2.291-31.065 5.985-41.66c.876-2.516-1.015-5.137-3.678-5.137z" fill="url(#SVGID_116_)"/><path d="m110.834 99.332h-19.641v93.593h19.641c2.663 0 4.554-2.621 3.677-5.136-3.694-10.595-5.985-25.346-5.985-41.66s2.291-31.065 5.985-41.66c.877-2.516-1.014-5.137-3.677-5.137z" fill="url(#SVGID_117_)"/><g><path d="m113.139 102.578h-46.026c-1.425 0-2.58-1.155-2.58-2.58 0-1.425 1.155-2.58 2.58-2.58h46.026c1.425 0 2.58 1.155 2.58 2.58 0 1.425-1.155 2.58-2.58 2.58z" fill="url(#SVGID_118_)"/><path d="m113.139 194.838h-46.026c-1.425 0-2.58-1.155-2.58-2.58 0-1.425 1.155-2.58 2.58-2.58h46.026c1.425 0 2.58 1.155 2.58 2.58 0 1.425-1.155 2.58-2.58 2.58z" fill="url(#SVGID_119_)"/></g></g><g><path d="m69.418 1.913c-2.663 0-4.554 2.621-3.677 5.136 3.694 10.595 5.985 25.346 5.985 41.66s-2.291 31.065-5.985 41.66c-.877 2.515 1.014 5.136 3.677 5.136h41.416c2.663 0 4.554-2.621 3.677-5.136-3.694-10.595-5.985-25.346-5.985-41.66s2.291-31.065 5.985-41.66c.877-2.515-1.014-5.136-3.677-5.136h-41.416z" fill="url(#SVGID_120_)"/><path d="m65.741 90.37c-.877 2.515 1.014 5.136 3.677 5.136h41.416c2.663 0 4.554-2.621 3.677-5.136-1.931-5.539-3.474-12.222-4.511-19.662h-39.747c-1.038 7.44-2.581 14.123-4.512 19.662z" fill="url(#SVGID_121_)"/><path d="m110.834 1.913h-41.416c-1.835 0-3.302 1.244-3.751 2.84l42.869 42.866c.1-15.878 2.364-30.212 5.976-40.57.876-2.514-1.015-5.136-3.678-5.136z" fill="url(#SVGID_122_)"/><path d="m110.834 1.913h-27.774v93.593h27.775c2.663 0 4.554-2.621 3.677-5.136-3.694-10.595-5.985-25.346-5.985-41.66s2.291-31.065 5.985-41.66c.876-2.515-1.015-5.137-3.678-5.137z" fill="url(#SVGID_123_)"/><path d="m110.834 1.913h-19.641v93.593h19.641c2.663 0 4.554-2.621 3.677-5.136-3.694-10.595-5.985-25.346-5.985-41.66s2.291-31.065 5.985-41.66c.877-2.515-1.014-5.137-3.677-5.137z" fill="url(#SVGID_124_)"/><g><path d="m113.139 5.159h-46.026c-1.425 0-2.58-1.155-2.58-2.58 0-1.425 1.155-2.58 2.58-2.58h46.026c1.425 0 2.58 1.155 2.58 2.58 0 1.425-1.155 2.58-2.58 2.58z" fill="url(#SVGID_125_)"/><path d="m113.139 97.419h-46.026c-1.425 0-2.58-1.155-2.58-2.58 0-1.425 1.155-2.58 2.58-2.58h46.026c1.425 0 2.58 1.155 2.58 2.58 0 1.425-1.155 2.58-2.58 2.58z" fill="url(#SVGID_126_)"/></g></g></g><g><g><path d="m40.496 341.046c-2.663 0-4.554 2.621-3.677 5.136 3.694 10.595 5.985 25.346 5.985 41.66s-2.291 31.065-5.985 41.66c-.877 2.515 1.014 5.136 3.677 5.136h41.416c2.663 0 4.554-2.621 3.677-5.136-3.694-10.595-5.985-25.346-5.985-41.66s2.291-31.065 5.985-41.66c.877-2.515-1.014-5.136-3.677-5.136z" fill="url(#SVGID_127_)"/><path d="m36.819 429.503c-.877 2.515 1.014 5.136 3.677 5.136h41.416c2.663 0 4.554-2.621 3.677-5.136-1.931-5.539-3.474-12.222-4.511-19.662h-39.748c-1.037 7.44-2.58 14.123-4.511 19.662z" fill="url(#SVGID_128_)"/><path d="m81.912 341.046h-41.416c-1.835 0-3.302 1.244-3.751 2.84l42.869 42.866c.1-15.878 2.364-30.212 5.976-40.57.875-2.514-1.015-5.136-3.678-5.136z" fill="url(#SVGID_129_)"/><path d="m81.912 341.046h-27.775v93.593h27.775c2.663 0 4.554-2.621 3.677-5.136-3.694-10.595-5.985-25.346-5.985-41.66s2.291-31.065 5.985-41.66c.876-2.515-1.014-5.137-3.677-5.137z" fill="url(#SVGID_130_)"/><path d="m81.912 341.046h-19.642v93.593h19.641c2.663 0 4.554-2.621 3.677-5.136-3.694-10.595-5.985-25.346-5.985-41.66s2.291-31.065 5.985-41.66c.877-2.515-1.013-5.137-3.676-5.137z" fill="url(#SVGID_131_)"/><g><path d="m84.217 344.293h-46.026c-1.425 0-2.58-1.155-2.58-2.58 0-1.425 1.155-2.58 2.58-2.58h46.026c1.425 0 2.58 1.155 2.58 2.58-.001 1.425-1.156 2.58-2.58 2.58z" fill="url(#SVGID_132_)"/><path d="m84.217 436.552h-46.026c-1.425 0-2.58-1.155-2.58-2.58 0-1.425 1.155-2.58 2.58-2.58h46.026c1.425 0 2.58 1.155 2.58 2.58-.001 1.425-1.156 2.58-2.58 2.58z" fill="url(#SVGID_133_)"/></g></g><g><path d="m40.496 243.627c-2.663 0-4.554 2.621-3.677 5.136 3.694 10.595 5.985 25.346 5.985 41.66s-2.291 31.065-5.985 41.66c-.877 2.515 1.014 5.136 3.677 5.136h41.416c2.663 0 4.554-2.621 3.677-5.136-3.694-10.595-5.985-25.346-5.985-41.66s2.291-31.065 5.985-41.66c.877-2.515-1.014-5.136-3.677-5.136z" fill="url(#SVGID_134_)"/><path d="m36.819 332.084c-.877 2.515 1.014 5.136 3.677 5.136h41.416c2.663 0 4.554-2.621 3.677-5.136-1.931-5.539-3.474-12.222-4.511-19.662h-39.748c-1.037 7.44-2.58 14.123-4.511 19.662z" fill="url(#SVGID_135_)"/><path d="m81.912 243.627h-41.416c-1.835 0-3.302 1.244-3.751 2.84l42.869 42.866c.1-15.878 2.364-30.212 5.976-40.57.875-2.514-1.015-5.136-3.678-5.136z" fill="url(#SVGID_136_)"/><path d="m81.912 243.627h-27.775v93.593h27.775c2.663 0 4.554-2.621 3.677-5.136-3.694-10.595-5.985-25.346-5.985-41.66s2.291-31.065 5.985-41.66c.876-2.515-1.014-5.137-3.677-5.137z" fill="url(#SVGID_137_)"/><path d="m81.912 243.627h-19.642v93.593h19.641c2.663 0 4.554-2.621 3.677-5.136-3.694-10.595-5.985-25.346-5.985-41.66s2.291-31.065 5.985-41.66c.877-2.515-1.013-5.137-3.676-5.137z" fill="url(#SVGID_138_)"/><g><path d="m84.217 246.874h-46.026c-1.425 0-2.58-1.155-2.58-2.58 0-1.425 1.155-2.58 2.58-2.58h46.026c1.425 0 2.58 1.155 2.58 2.58-.001 1.425-1.156 2.58-2.58 2.58z" fill="url(#SVGID_139_)"/><path d="m84.217 339.133h-46.026c-1.425 0-2.58-1.155-2.58-2.58 0-1.425 1.155-2.58 2.58-2.58h46.026c1.425 0 2.58 1.155 2.58 2.58-.001 1.425-1.156 2.58-2.58 2.58z" fill="url(#SVGID_140_)"/></g></g><g><path d="m40.496 146.209c-2.663 0-4.554 2.621-3.677 5.136 3.694 10.595 5.985 25.346 5.985 41.66s-2.291 31.065-5.985 41.66c-.877 2.515 1.014 5.136 3.677 5.136h41.416c2.663 0 4.554-2.621 3.677-5.136-3.694-10.595-5.985-25.346-5.985-41.66s2.291-31.065 5.985-41.66c.877-2.515-1.014-5.136-3.677-5.136z" fill="url(#SVGID_141_)"/><path d="m36.819 234.665c-.877 2.515 1.014 5.136 3.677 5.136h41.416c2.663 0 4.554-2.621 3.677-5.136-1.931-5.539-3.474-12.222-4.511-19.662h-39.748c-1.037 7.44-2.58 14.123-4.511 19.662z" fill="url(#SVGID_142_)"/><path d="m81.912 146.209h-41.416c-1.835 0-3.302 1.244-3.751 2.84l42.869 42.866c.1-15.878 2.364-30.212 5.976-40.57.875-2.515-1.015-5.136-3.678-5.136z" fill="url(#SVGID_143_)"/><path d="m81.912 146.209h-27.775v93.593h27.775c2.663 0 4.554-2.621 3.677-5.136-3.694-10.595-5.985-25.346-5.985-41.66s2.291-31.065 5.985-41.66c.876-2.516-1.014-5.137-3.677-5.137z" fill="url(#SVGID_144_)"/><path d="m81.912 146.209h-19.642v93.593h19.641c2.663 0 4.554-2.621 3.677-5.136-3.694-10.595-5.985-25.346-5.985-41.66s2.291-31.065 5.985-41.66c.877-2.516-1.013-5.137-3.676-5.137z" fill="url(#SVGID_145_)"/><g><path d="m84.217 149.455h-46.026c-1.425 0-2.58-1.155-2.58-2.58 0-1.425 1.155-2.58 2.58-2.58h46.026c1.425 0 2.58 1.155 2.58 2.58-.001 1.425-1.156 2.58-2.58 2.58z" fill="url(#SVGID_146_)"/><path d="m84.217 241.714h-46.026c-1.425 0-2.58-1.155-2.58-2.58 0-1.425 1.155-2.58 2.58-2.58h46.026c1.425 0 2.58 1.155 2.58 2.58-.001 1.425-1.156 2.58-2.58 2.58z" fill="url(#SVGID_147_)"/></g></g><g><path d="m40.496 48.79c-2.663 0-4.554 2.621-3.677 5.136 3.694 10.595 5.985 25.346 5.985 41.66s-2.291 31.065-5.985 41.66c-.877 2.515 1.014 5.136 3.677 5.136h41.416c2.663 0 4.554-2.621 3.677-5.136-3.694-10.595-5.985-25.346-5.985-41.66s2.291-31.065 5.985-41.66c.877-2.515-1.014-5.136-3.677-5.136z" fill="url(#SVGID_148_)"/><path d="m36.819 137.246c-.877 2.515 1.014 5.136 3.677 5.136h41.416c2.663 0 4.554-2.621 3.677-5.136-1.931-5.539-3.474-12.222-4.511-19.662h-39.748c-1.037 7.441-2.58 14.123-4.511 19.662z" fill="url(#SVGID_149_)"/><path d="m81.912 48.79h-41.416c-1.835 0-3.302 1.244-3.751 2.84l42.869 42.866c.1-15.878 2.364-30.212 5.976-40.57.875-2.515-1.015-5.136-3.678-5.136z" fill="url(#SVGID_150_)"/><path d="m81.912 48.79h-27.775v93.593h27.775c2.663 0 4.554-2.621 3.677-5.136-3.694-10.595-5.985-25.346-5.985-41.66s2.291-31.065 5.985-41.66c.876-2.516-1.014-5.137-3.677-5.137z" fill="url(#SVGID_151_)"/><path d="m81.912 48.79h-19.642v93.593h19.641c2.663 0 4.554-2.621 3.677-5.136-3.694-10.595-5.985-25.346-5.985-41.66s2.291-31.065 5.985-41.66c.877-2.516-1.013-5.137-3.676-5.137z" fill="url(#SVGID_152_)"/><g><path d="m84.217 52.036h-46.026c-1.425 0-2.58-1.155-2.58-2.58 0-1.425 1.155-2.58 2.58-2.58h46.026c1.425 0 2.58 1.155 2.58 2.58-.001 1.425-1.156 2.58-2.58 2.58z" fill="url(#SVGID_153_)"/><path d="m84.217 144.296h-46.026c-1.425 0-2.58-1.155-2.58-2.58 0-1.425 1.155-2.58 2.58-2.58h46.026c1.425 0 2.58 1.155 2.58 2.58-.001 1.425-1.156 2.58-2.58 2.58z" fill="url(#SVGID_154_)"/></g></g><g><path d="m81.916 44.967h-41.42c-2.66 0-4.55-2.62-3.68-5.14 3.304-9.455 5.488-22.234 5.905-36.483.054-1.862 1.583-3.344 3.447-3.344h30.075c1.864 0 3.393 1.482 3.447 3.345.417 14.249 2.601 27.027 5.895 36.483.881 2.519-1.009 5.139-3.669 5.139z" fill="url(#SVGID_155_)"/><path d="m36.819 39.827c-.877 2.515 1.014 5.136 3.677 5.136h41.416c2.663 0 4.554-2.621 3.677-5.136-1.931-5.539-3.474-12.222-4.511-19.662h-39.748c-1.037 7.441-2.58 14.123-4.511 19.662z" fill="url(#SVGID_156_)"/><path d="m81.916 44.967h-19.65v-44.967h13.978c1.864 0 3.393 1.482 3.447 3.345.417 14.249 2.601 27.027 5.895 36.483.88 2.519-1.01 5.139-3.67 5.139z" fill="url(#SVGID_157_)"/><g><path d="m84.217 46.877h-46.026c-1.425 0-2.58-1.155-2.58-2.58 0-1.425 1.155-2.58 2.58-2.58h46.026c1.425 0 2.58 1.155 2.58 2.58-.001 1.425-1.156 2.58-2.58 2.58z" fill="url(#SVGID_158_)"/></g></g></g></g><g><path d="m370.497 269.274c-4.973 0-9.761.795-14.245 2.258-4.797-15.65-19.359-27.03-36.581-27.03-21.128 0-38.256 17.128-38.256 38.256 0 3.053.36 6.021 1.035 8.867-18.031 1.271-32.264 16.299-32.264 34.654 0 19.188 15.555 34.743 34.743 34.743h85.569c25.336 0 45.874-20.539 45.874-45.874s-20.54-45.874-45.875-45.874z" fill="url(#SVGID_159_)"/><path d="m273.131 297.969c-3.418 0-6.708.546-9.79 1.552-3.297-10.755-13.304-18.576-25.14-18.576-14.52 0-26.291 11.771-26.291 26.291 0 2.098.247 4.138.711 6.094-12.392.874-22.173 11.201-22.173 23.815 0 13.187 10.69 23.876 23.876 23.876h58.806c17.412 0 31.526-14.115 31.526-31.526.002-17.411-14.113-31.526-31.525-31.526z" fill="url(#SVGID_160_)"/><path d="m195.345 277.849c-4.509 0-8.848.72-12.914 2.047-4.349-14.187-17.55-24.504-33.162-24.504-19.154 0-34.68 15.527-34.68 34.681 0 2.767.326 5.458.938 8.039-16.346 1.152-29.249 14.776-29.249 31.415 0 17.394 14.101 31.495 31.495 31.495h77.571c22.968 0 41.586-18.619 41.586-41.586s-18.618-41.587-41.585-41.587z" fill="url(#SVGID_161_)"/><path d="m112.683 297.969c-3.418 0-6.708.546-9.79 1.552-3.297-10.755-13.304-18.576-25.14-18.576-14.52 0-26.291 11.771-26.291 26.291 0 2.098.247 4.138.711 6.094-12.391.874-22.173 11.201-22.173 23.816 0 13.187 10.69 23.876 23.876 23.876h58.806c17.412 0 31.526-14.115 31.526-31.526.001-17.412-14.114-31.527-31.525-31.527z" fill="url(#SVGID_162_)"/><path d="m448.474 297.969c-3.418 0-6.708.546-9.79 1.552-3.297-10.755-13.304-18.576-25.14-18.576-14.52 0-26.291 11.771-26.291 26.291 0 2.098.247 4.138.711 6.094-12.392.874-22.173 11.201-22.173 23.815 0 13.187 10.69 23.876 23.876 23.876h58.806c17.412 0 31.526-14.115 31.526-31.526.001-17.411-14.114-31.526-31.525-31.526z" fill="url(#SVGID_163_)"/></g><g><g><g><path d="m414.971 266.5c4.015 14.258 4.192 28.185 1.236 39.35-.519 1.96-2.926 2.638-4.391 1.236-8.348-7.982-15.464-19.955-19.479-34.213s-4.192-28.185-1.236-39.35c.519-1.96 2.926-2.638 4.391-1.236 8.348 7.982 15.464 19.955 19.479 34.213z" fill="url(#SVGID_164_)"/><path d="m393.178 231.593 21.417 76.056c-.901.344-1.98.202-2.78-.563-8.348-7.982-15.464-19.955-19.479-34.213s-4.192-28.185-1.236-39.35c.284-1.07 1.13-1.753 2.078-1.93z" fill="url(#SVGID_165_)"/></g><g><path d="m399.411 281.763c8.296 6.261 13.659 14.824 15.691 23.714.357 1.561-1.149 3.556-2.748 3.641-9.107.483-18.814-2.327-27.109-8.587-8.296-6.261-13.659-14.824-15.691-23.714-.357-1.561 1.149-3.556 2.748-3.641 9.107-.483 18.813 2.326 27.109 8.587z" fill="url(#SVGID_166_)"/><path d="m370.348 274.256 44.251 33.396c-.53.803-1.372 1.42-2.245 1.466-9.107.483-18.814-2.327-27.109-8.587-8.296-6.261-13.659-14.824-15.691-23.714-.196-.852.166-1.832.794-2.561z" fill="url(#SVGID_167_)"/></g></g><g><path d="m338.399 353.209h-40.809l1.489-5.444c2.467-9.02 10.663-15.276 20.014-15.276h20.163z" fill="url(#SVGID_168_)"/><path d="m299.079 347.765c2.467-9.02 10.663-15.276 20.014-15.276h13c-9.352 0-17.547 6.256-20.014 15.276l-1.489 5.444h-13z" fill="url(#SVGID_169_)"/></g><g><path d="m327.198 311.29 25.879-19.101c6.121-4.518 14.137-5.565 21.213-2.772l20.411 8.057c5.324 2.102 8.822 7.244 8.822 12.967v50.892h-67.323l-13.758-32.776c-2.587-6.163-.622-13.297 4.756-17.267z" fill="url(#SVGID_170_)"/><path d="m327.198 311.29 25.879-19.101c6.121-4.518 14.137-5.565 21.213-2.772l6.283 2.48c-.895.482-1.765 1.023-2.596 1.637l-25.375 18.729c-5.274 3.892-7.2 10.887-4.663 16.931l13.49 32.139h-25.229l-13.758-32.776c-2.587-6.163-.622-13.297 4.756-17.267z" fill="url(#SVGID_171_)"/></g><g><g><g><path d="m428.399 361.333h-72.749c-12.52 0-18.79-15.136-9.937-23.989l11.744-11.743c7.311-7.31 17.226-11.417 27.565-11.417h12.565c21.529 0 38.982 17.452 38.982 38.98 0 4.512-3.658 8.169-8.17 8.169z" fill="url(#SVGID_172_)"/><path d="m357.457 325.601c7.311-7.31 17.226-11.417 27.565-11.417 5.005 0 9.063 4.057 9.063 9.062v1.016c0 5.005-4.058 9.062-9.063 9.062-5.556 0-10.885 2.207-14.813 6.135l-20.564 20.563c-8.255-3.857-11.218-15.392-3.931-22.678z" fill="url(#SVGID_173_)"/></g></g><g><g><path d="m426.455 361.333h-40.809l1.489-5.444c2.467-9.02 10.663-15.276 20.014-15.276h20.163z" fill="url(#SVGID_174_)"/><path d="m387.134 355.89c2.467-9.02 10.663-15.276 20.014-15.276h13c-9.352 0-17.547 6.256-20.014 15.276l-1.489 5.444h-13z" fill="url(#SVGID_175_)"/></g><g><path d="m415.284 299.231 32.115-23.704c7.596-5.606 17.543-6.906 26.324-3.44l25.329 9.998c6.607 2.608 10.948 8.989 10.948 16.092v63.155h-83.545l-17.073-40.674c-3.211-7.648-.773-16.5 5.902-21.427z" fill="url(#SVGID_176_)"/><path d="m415.284 299.231 32.115-23.704c7.596-5.606 17.543-6.906 26.324-3.44l7.797 3.078c-1.111.598-2.19 1.27-3.221 2.031l-31.49 23.243c-6.544 4.83-8.935 13.511-5.787 21.011l16.741 39.883h-31.307l-17.073-40.674c-3.212-7.649-.774-16.501 5.901-21.428z" fill="url(#SVGID_177_)"/></g></g></g><path d="m433.333 292.542 65.667 65.667h-65.667z" fill="url(#SVGID_178_)"/><g><path d="m436.667 353.209h-37.336v-52.553c0-7.36 5.966-13.326 13.326-13.326h10.684c7.36 0 13.326 5.966 13.326 13.326z" fill="url(#SVGID_179_)"/><path d="m423.341 287.33h-10.684v65.879h24.01v-52.553c0-7.36-5.967-13.326-13.326-13.326z" fill="url(#SVGID_180_)"/><path d="m423.341 287.33h-6.34v65.879h19.665v-52.553c.001-7.36-5.966-13.326-13.325-13.326z" fill="url(#SVGID_181_)"/><path d="m423.341 287.33v65.879h13.326v-52.553c0-7.36-5.967-13.326-13.326-13.326z" fill="url(#SVGID_182_)"/></g><g><g><g><g><path d="m440.168 334.89c-1.786 0-3.504.285-5.114.811-1.722-5.619-6.951-9.705-13.134-9.705-7.586 0-13.735 6.149-13.735 13.735 0 1.096.129 2.162.372 3.184-6.474.456-11.584 5.852-11.584 12.442 0 6.889 5.585 12.474 12.474 12.474h30.722c9.096 0 16.47-7.374 16.47-16.47-.001-9.097-7.375-16.471-16.471-16.471z" fill="url(#SVGID_183_)"/><path d="m423.697 351.361c0 .668.04 1.326.118 1.974-.62.087-1.253.132-1.896.132-7.586 0-13.734-6.15-13.734-13.735 0-7.584 6.148-13.734 13.734-13.734 6.183 0 11.412 4.086 13.134 9.705-6.592 2.148-11.356 8.346-11.356 15.658z" fill="url(#SVGID_184_)"/><path d="m397.069 356.909c.764 6.156 6.014 10.921 12.377 10.921h30.722c7.149 0 13.233-4.555 15.511-10.921z" fill="url(#SVGID_185_)"/></g></g></g><g><g><g><path d="m407.43 342.858c-1.354 0-2.657.216-3.877.615-1.306-4.26-5.269-7.357-9.956-7.357-5.751 0-10.412 4.662-10.412 10.412 0 .831.098 1.639.282 2.414-4.908.346-8.782 4.436-8.782 9.432 0 5.222 4.234 9.456 9.456 9.456h23.29c6.896 0 12.486-5.59 12.486-12.486s-5.592-12.486-12.487-12.486z" fill="url(#SVGID_186_)"/><path d="m394.944 355.345c0 .506.03 1.006.089 1.496-.47.066-.95.1-1.437.1-5.751 0-10.412-4.662-10.412-10.413 0-5.75 4.661-10.412 10.412-10.412 4.687 0 8.652 3.098 9.957 7.357-4.998 1.63-8.609 6.329-8.609 11.872z" fill="url(#SVGID_187_)"/><path d="m374.757 359.551c.579 4.667 4.559 8.279 9.383 8.279h23.29c5.42 0 10.032-3.453 11.759-8.279z" fill="url(#SVGID_188_)"/></g></g></g></g></g><g><g><path d="m96.826 296.515-32.83-24.232c-7.765-5.731-17.934-7.06-26.911-3.517l-25.893 10.221c-6.754 2.667-11.192 9.19-11.192 16.451v64.562h85.406l17.453-41.58c3.283-7.819.79-16.869-6.033-21.905z" fill="url(#SVGID_189_)"/><path d="m96.826 296.515-32.83-24.232c-7.765-5.731-17.934-7.06-26.911-3.517l-7.97 3.146c1.135.611 2.239 1.298 3.293 2.076l32.192 23.76c6.69 4.938 9.134 13.812 5.916 21.479l-17.114 40.773h32.005l17.453-41.58c3.282-7.819.789-16.869-6.034-21.905z" fill="url(#SVGID_190_)"/></g><g><path d="m109.229 360h51.771l-1.889-6.906c-3.13-11.443-13.527-19.379-25.391-19.379h-25.58z" fill="url(#SVGID_191_)"/><path d="m159.111 353.094c-3.13-11.443-13.527-19.379-25.391-19.379h-16.492c11.863 0 22.261 7.936 25.391 19.379l1.889 6.906h16.492z" fill="url(#SVGID_192_)"/></g><g><g><path d="m51.821 360h64.185c11.047 0 16.579-13.355 8.768-21.165l-10.362-10.361c-6.45-6.45-15.198-10.073-24.32-10.073h-11.085c-18.995 0-34.394 15.398-34.394 34.391 0 3.981 3.227 7.208 7.208 7.208z" fill="url(#SVGID_193_)"/><path d="m114.413 328.474c-6.45-6.45-15.198-10.073-24.32-10.073-4.416 0-7.996 3.58-7.996 7.995v.896c0 4.416 3.58 7.995 7.996 7.995 4.902 0 9.603 1.947 13.07 5.413l18.144 18.142c7.283-3.403 9.897-13.58 3.468-20.009z" fill="url(#SVGID_194_)"/></g></g></g><g><path d="m510 485.638v-132.429h-510v132.429c0 13.455 10.907 24.362 24.362 24.362h461.276c13.455 0 24.362-10.907 24.362-24.362z" fill="url(#SVGID_195_)"/><ellipse cx="255" cy="415.209" fill="url(#SVGID_196_)" rx="169" ry="59.333"/><ellipse cx="255" cy="414.312" fill="url(#SVGID_197_)" rx="142.095" ry="49.847"/><ellipse cx="255" cy="402.796" fill="url(#SVGID_198_)" rx="122.756" ry="38.331"/></g><g><path d="m387.022 442.71c-3.648 0-7.159.583-10.448 1.656-3.518-11.478-14.198-19.824-26.829-19.824-15.496 0-28.058 12.562-28.058 28.058 0 2.239.264 4.416.759 6.504-13.224.932-23.663 11.954-23.663 25.416 0 14.073 11.408 25.481 25.481 25.481h62.758c18.582 0 33.645-15.063 33.645-33.645s-15.064-33.646-33.645-33.646z" fill="url(#SVGID_199_)"/><path d="m332.612 463.756c-2.507 0-4.92.401-7.18 1.138-2.418-7.888-9.758-13.624-18.438-13.624-10.649 0-19.282 8.633-19.282 19.282 0 1.539.181 3.035.522 4.469-9.088.641-16.262 8.215-16.262 17.467 0 9.671 7.84 17.511 17.511 17.511h43.13c12.77 0 23.122-10.352 23.122-23.122-.001-12.769-10.353-23.121-23.123-23.121z" fill="url(#SVGID_200_)"/><path d="m267.896 449c-3.307 0-6.49.528-9.471 1.502-3.189-10.405-12.871-17.972-24.321-17.972-14.048 0-25.435 11.388-25.435 25.435 0 2.03.239 4.003.688 5.896-11.988.845-21.451 10.837-21.451 23.04 0 12.757 10.342 23.099 23.099 23.099h56.892c16.845 0 30.5-13.655 30.5-30.5-.001-16.845-13.657-30.5-30.501-30.5z" fill="url(#SVGID_201_)"/><path d="m201.603 463.756c-2.507 0-4.92.401-7.18 1.138-2.418-7.888-9.758-13.624-18.438-13.624-10.649 0-19.282 8.633-19.282 19.282 0 1.539.181 3.035.522 4.469-9.088.641-16.262 8.215-16.262 17.467 0 9.671 7.84 17.511 17.511 17.511h43.13c12.77 0 23.122-10.352 23.122-23.122-.001-12.769-10.353-23.121-23.123-23.121z" fill="url(#SVGID_202_)"/><path d="m424.878 463.756c-2.507 0-4.92.401-7.18 1.138-2.418-7.888-9.758-13.624-18.438-13.624-10.649 0-19.282 8.633-19.282 19.282 0 1.539.181 3.035.522 4.469-9.088.641-16.262 8.215-16.262 17.467 0 9.671 7.84 17.511 17.511 17.511h43.13c12.77 0 23.122-10.352 23.122-23.122-.001-12.769-10.353-23.121-23.123-23.121z" fill="url(#SVGID_203_)"/></g><g><g><path d="m103.67 510h72.748c12.52 0 18.79-15.136 9.937-23.989l-11.744-11.743c-7.311-7.31-17.226-11.417-27.565-11.417h-12.565c-21.529 0-38.982 17.452-38.982 38.98.001 4.511 3.659 8.169 8.171 8.169z" fill="url(#SVGID_204_)"/><path d="m174.612 474.268c-7.311-7.31-17.226-11.417-27.565-11.417-5.005 0-9.063 4.057-9.063 9.062v1.016c0 5.005 4.058 9.062 9.063 9.062 5.556 0 10.885 2.207 14.813 6.135l20.564 20.563c8.255-3.857 11.218-15.392 3.931-22.678z" fill="url(#SVGID_205_)"/></g></g><g><g><path d="m45.471 435.5c4.015 14.258 4.192 28.185 1.236 39.35-.519 1.96-2.926 2.638-4.391 1.236-8.348-7.982-15.464-19.955-19.479-34.213s-4.192-28.185-1.236-39.35c.519-1.96 2.926-2.638 4.391-1.236 8.348 7.982 15.464 19.955 19.479 34.213z" fill="url(#SVGID_206_)"/><path d="m23.678 400.593 21.417 76.056c-.901.344-1.98.202-2.78-.563-8.348-7.982-15.464-19.955-19.479-34.213s-4.192-28.185-1.236-39.35c.284-1.07 1.13-1.753 2.078-1.93z" fill="url(#SVGID_207_)"/></g><g><path d="m29.911 450.763c8.296 6.261 13.659 14.824 15.691 23.714.357 1.561-1.149 3.556-2.748 3.641-9.107.483-18.814-2.327-27.109-8.587-8.296-6.261-13.659-14.824-15.691-23.714-.357-1.561 1.149-3.556 2.748-3.641 9.107-.483 18.813 2.326 27.109 8.587z" fill="url(#SVGID_208_)"/><path d="m.848 443.256 44.251 33.396c-.53.803-1.372 1.42-2.245 1.466-9.107.483-18.814-2.327-27.109-8.587-8.296-6.261-13.659-14.824-15.691-23.714-.196-.852.166-1.832.794-2.561z" fill="url(#SVGID_209_)"/></g></g><g><g><path d="m456.897 419.717c.708 16.252 5.306 30.842 12.223 41.473 1.215 1.867 3.958 1.747 5.006-.218 5.967-11.193 9.28-26.127 8.572-42.379s-5.306-30.842-12.223-41.473c-1.215-1.867-3.958-1.747-5.006.218-5.967 11.192-9.28 26.127-8.572 42.379z" fill="url(#SVGID_210_)"/><path d="m467.645 375.819 3.775 86.694c1.058.05 2.134-.469 2.706-1.541 5.967-11.193 9.28-26.127 8.572-42.38-.708-16.252-5.306-30.842-12.223-41.473-.663-1.019-1.781-1.442-2.83-1.3z" fill="url(#SVGID_211_)"/></g><g><path d="m478.37 430.295c-6.504 9.38-9.158 20.155-8.226 30.126.164 1.751 2.42 3.315 4.117 2.855 9.666-2.624 18.827-8.887 25.331-18.267s9.158-20.155 8.226-30.126c-.164-1.751-2.42-3.315-4.117-2.855-9.666 2.624-18.827 8.888-25.331 18.267z" fill="url(#SVGID_212_)"/><path d="m506.11 412.484-34.694 50.033c.828.656 1.919 1.01 2.846.759 9.666-2.624 18.827-8.888 25.331-18.267 6.504-9.38 9.158-20.155 8.226-30.126-.09-.956-.804-1.853-1.709-2.399z" fill="url(#SVGID_213_)"/></g></g><g><g><path d="m105.614 510h40.809l-1.489-5.444c-2.467-9.02-10.663-15.276-20.014-15.276h-20.163z" fill="url(#SVGID_214_)"/><path d="m144.934 504.556c-2.467-9.02-10.663-15.276-20.014-15.276h-13c9.352 0 17.547 6.256 20.014 15.276l1.489 5.444h13z" fill="url(#SVGID_215_)"/></g><g><path d="m116.785 447.898-32.115-23.704c-7.596-5.606-17.543-6.906-26.324-3.44l-25.329 9.998c-6.607 2.608-10.948 8.989-10.948 16.092v63.156h83.545l17.073-40.674c3.211-7.649.772-16.502-5.902-21.428z" fill="url(#SVGID_216_)"/><path d="m116.785 447.898-32.115-23.704c-7.596-5.606-17.543-6.906-26.324-3.44l-7.797 3.078c1.111.598 2.19 1.27 3.221 2.031l31.49 23.243c6.544 4.83 8.935 13.511 5.787 21.011l-16.74 39.883h31.307l17.073-40.674c3.211-7.649.772-16.502-5.902-21.428z" fill="url(#SVGID_217_)"/></g></g><g><path d="m408.645 455.041 28.421-20.977c6.722-4.962 15.525-6.112 23.297-3.044l22.416 8.848c5.847 2.308 9.689 7.955 9.689 14.241v36.884c0 10.497-8.51 19.007-19.007 19.007h-54.929l-15.109-35.996c-2.842-6.769-.684-14.604 5.222-18.963z" fill="url(#SVGID_218_)"/><path d="m408.645 455.041 28.421-20.977c6.722-4.962 15.525-6.112 23.297-3.044l6.9 2.724c-.983.529-1.938 1.124-2.851 1.798l-27.868 20.569c-5.792 4.275-7.908 11.957-5.121 18.594l14.815 35.295h-27.706l-15.109-35.996c-2.842-6.769-.684-14.604 5.222-18.963z" fill="url(#SVGID_219_)"/></g><g><path d="m397.908 510h-44.818l1.635-5.978c2.709-9.906 11.711-16.776 21.981-16.776h22.144z" fill="url(#SVGID_220_)"/><path d="m354.725 504.022c2.709-9.906 11.711-16.777 21.981-16.777h14.277c-10.27 0-19.271 6.87-21.981 16.777l-1.635 5.978h-14.277z" fill="url(#SVGID_221_)"/></g><g><g><path d="m447.606 510h-55.565c-9.563 0-14.352-11.561-7.59-18.323l8.97-8.969c5.584-5.583 13.157-8.72 21.054-8.72h9.597c16.444 0 29.775 13.33 29.775 29.773-.001 3.445-2.795 6.239-6.241 6.239z" fill="url(#SVGID_222_)"/><path d="m393.421 482.708c5.584-5.583 13.157-8.72 21.054-8.72 3.823 0 6.922 3.099 6.922 6.922v.776c0 3.823-3.099 6.922-6.922 6.922-4.244 0-8.314 1.686-11.315 4.686l-15.707 15.706c-6.305-2.946-8.568-11.757-3.003-17.321z" fill="url(#SVGID_223_)"/></g></g><g><g><path d="m20.501 510h57.885c9.962 0 14.951-12.044 7.907-19.088l-9.345-9.344c-5.817-5.817-13.706-9.084-21.933-9.084h-9.997c-17.131 0-31.018 13.886-31.018 31.016 0 3.59 2.91 6.5 6.501 6.5z" fill="url(#SVGID_224_)"/><path d="m76.948 481.569c-5.817-5.817-13.707-9.084-21.933-9.084-3.983 0-7.211 3.228-7.211 7.211v.808c0 3.982 3.229 7.211 7.211 7.211 4.421 0 8.661 1.756 11.787 4.882l16.363 16.361c6.568-3.069 8.926-12.247 3.128-18.044z" fill="url(#SVGID_225_)"/></g></g></g></svg>