<!--
  - Copyright (c) 2023. Selldone® Business OS™
  -
  - Author: M.Pajuhaan
  - Web: https://selldone.com
  - ━━━━━━━━━━━━━━━━━━━━━━━━━━━━━━━━━━━━━━━━━━━━━━━━━━━━━━
  -
  - All rights reserved. In the weave of time, where traditions and innovations intermingle, this content was crafted.
  - From the essence of thought, through the corridors of creativity, each word, and sentiment has been molded.
  - Not just to exist, but to inspire. Like an artist's stroke or a sculptor's chisel, every nuance is deliberate.
  - Our journey is not just about reaching a destination, but about creating a masterpiece.
  - Tread carefully, for you're treading on dreams.
  -->

<svg id="Capa_1" enable-background="new 0 0 510 510" height="512" viewBox="0 0 510 510" width="512" xmlns="http://www.w3.org/2000/svg" xmlns:xlink="http://www.w3.org/1999/xlink"><linearGradient id="lg1"><stop offset="0" stop-color="#c7e9ff"/><stop offset=".3556" stop-color="#a3e6f2"/><stop offset="1" stop-color="#65e0db"/></linearGradient><linearGradient id="SVGID_1_" gradientUnits="userSpaceOnUse" x1="255" x2="255" xlink:href="#lg1" y1="34.721" y2="483.763"/><linearGradient id="lg2"><stop offset="0" stop-color="#ffd945"/><stop offset=".3043" stop-color="#ffcd3e"/><stop offset=".8558" stop-color="#ffad2b"/><stop offset="1" stop-color="#ffa325"/></linearGradient><linearGradient id="SVGID_2_" gradientUnits="userSpaceOnUse" x1="143.789" x2="228.675" xlink:href="#lg2" y1="77.23" y2="162.116"/><linearGradient id="lg3"><stop offset="0" stop-color="#edf5ff"/><stop offset="1" stop-color="#c7e9ff"/></linearGradient><linearGradient id="SVGID_3_" gradientUnits="userSpaceOnUse" x1="368.181" x2="454.633" xlink:href="#lg3" y1="54.559" y2="141.011"/><linearGradient id="lg4"><stop offset="0" stop-color="#18cefb" stop-opacity="0"/><stop offset="1" stop-color="#0469bb"/></linearGradient><linearGradient id="SVGID_4_" gradientUnits="userSpaceOnUse" x1="453.685" x2="453.685" xlink:href="#lg4" y1="412.703" y2="303.514"/><linearGradient id="SVGID_5_" gradientUnits="userSpaceOnUse" x1="75.013" x2="39.013" xlink:href="#lg4" y1="345.952" y2="253.952"/><linearGradient id="SVGID_6_" gradientUnits="userSpaceOnUse" x1="110.089" x2="128.756" xlink:href="#lg1" y1="280.638" y2="339.305"/><linearGradient id="SVGID_7_" gradientUnits="userSpaceOnUse" x1="158.185" x2="185.518" xlink:href="#lg1" y1="279.934" y2="336.601"/><linearGradient id="SVGID_8_" gradientUnits="userSpaceOnUse" x1="399.658" x2="394.324" y1="390.441" y2="431.108"><stop offset="0" stop-color="#798c00"/><stop offset="1" stop-color="#1b444f"/></linearGradient><linearGradient id="lg5"><stop offset="0" stop-color="#bada00"/><stop offset=".2187" stop-color="#b6d600"/><stop offset=".4501" stop-color="#acc900"/><stop offset=".6873" stop-color="#9ab400"/><stop offset=".9271" stop-color="#829700"/><stop offset="1" stop-color="#798c00"/></linearGradient><linearGradient id="SVGID_9_" gradientUnits="userSpaceOnUse" x1="108.706" x2="131.927" xlink:href="#lg5" y1="319.199" y2="387.569"/><linearGradient id="SVGID_10_" gradientUnits="userSpaceOnUse" x1="45.669" x2="85.457" xlink:href="#lg5" y1="392.049" y2="431.838"/><linearGradient id="lg6"><stop offset="0" stop-color="#43765a" stop-opacity="0"/><stop offset="1" stop-color="#43765a"/></linearGradient><linearGradient id="SVGID_11_" gradientUnits="userSpaceOnUse" x1="59.937" x2="96.687" xlink:href="#lg6" y1="397.349" y2="397.599"/><linearGradient id="lg7"><stop offset="0" stop-color="#ff4181" stop-opacity="0"/><stop offset="1" stop-color="#ff4181"/></linearGradient><linearGradient id="SVGID_12_" gradientUnits="userSpaceOnUse" x1="66.202" x2="66.202" xlink:href="#lg7" y1="421.896" y2="433.764"/><linearGradient id="SVGID_13_" gradientUnits="userSpaceOnUse" x1="142.685" x2="186.96" xlink:href="#lg5" y1="387.551" y2="431.825"/><linearGradient id="SVGID_14_" gradientUnits="userSpaceOnUse" x1="155.002" x2="190.502" xlink:href="#lg6" y1="393.578" y2="392.578"/><linearGradient id="SVGID_15_" gradientUnits="userSpaceOnUse" x1="165.534" x2="165.534" xlink:href="#lg6" y1="420.763" y2="433.968"/><linearGradient id="SVGID_16_" gradientUnits="userSpaceOnUse" x1="99.927" x2="129.578" xlink:href="#lg5" y1="402.216" y2="431.867"/><linearGradient id="SVGID_17_" gradientUnits="userSpaceOnUse" x1="107.445" x2="131.945" xlink:href="#lg6" y1="405.943" y2="407.443"/><linearGradient id="SVGID_18_" gradientUnits="userSpaceOnUse" x1="115.229" x2="115.229" xlink:href="#lg7" y1="424.458" y2="433.302"/><linearGradient id="SVGID_19_" gradientUnits="userSpaceOnUse" x1="166.76" x2="215.659" xlink:href="#lg3" y1="347.805" y2="393.827"/><linearGradient id="lg8"><stop offset="0" stop-color="#2f73a0" stop-opacity="0"/><stop offset="1" stop-color="#2f73a0"/></linearGradient><linearGradient id="SVGID_20_" gradientUnits="userSpaceOnUse" x1="220.248" x2="198.248" xlink:href="#lg8" y1="364.616" y2="337.949"/><linearGradient id="lg9"><stop offset="0" stop-color="#18cefb"/><stop offset="1" stop-color="#4a97f6"/></linearGradient><linearGradient id="SVGID_21_" gradientUnits="userSpaceOnUse" x1="180.925" x2="205.628" xlink:href="#lg9" y1="317.342" y2="355.768"/><linearGradient id="lg10"><stop offset="0" stop-color="#3a2f4d" stop-opacity="0"/><stop offset="1" stop-color="#3a2f4d"/></linearGradient><linearGradient id="SVGID_22_" gradientUnits="userSpaceOnUse" x1="194.651" x2="194.651" xlink:href="#lg10" y1="351.988" y2="249.045"/><linearGradient id="lg11"><stop offset="0" stop-color="#c59b6d"/><stop offset="1" stop-color="#8b6239"/></linearGradient><linearGradient id="SVGID_23_" gradientUnits="userSpaceOnUse" x1="190.862" x2="196.536" xlink:href="#lg11" y1="420.928" y2="443.624"/><linearGradient id="lg12"><stop offset="0" stop-color="#9da6ac"/><stop offset="1" stop-color="#5a7587"/></linearGradient><linearGradient id="SVGID_24_" gradientUnits="userSpaceOnUse" x1="216.877" x2="175.062" xlink:href="#lg12" y1="415.698" y2="373.883"/><linearGradient id="SVGID_25_" gradientUnits="userSpaceOnUse" x1="209.916" x2="181.2" xlink:href="#lg1" y1="408.737" y2="380.02"/><linearGradient id="SVGID_26_" gradientUnits="userSpaceOnUse" x1="259.709" x2="376.047" xlink:href="#lg3" y1="297.912" y2="414.249"/><linearGradient id="SVGID_27_" gradientUnits="userSpaceOnUse" x1="340.046" x2="258.046" xlink:href="#lg8" y1="419.056" y2="262.389"/><linearGradient id="SVGID_28_" gradientUnits="userSpaceOnUse" x1="311.143" x2="209.143" xlink:href="#lg8" y1="280.518" y2="196.518"/><linearGradient id="lg13"><stop offset="0" stop-color="#dfdfdf"/><stop offset="1" stop-color="#9da6ac"/></linearGradient><linearGradient id="SVGID_29_" gradientUnits="userSpaceOnUse" x1="240.466" x2="265.92" xlink:href="#lg13" y1="164.553" y2="190.006"/><linearGradient id="lg14"><stop offset="0" stop-color="#9da6ac" stop-opacity="0"/><stop offset=".2144" stop-color="#86959f" stop-opacity=".214"/><stop offset=".5076" stop-color="#6e8492" stop-opacity=".508"/><stop offset=".7775" stop-color="#5f798a" stop-opacity=".778"/><stop offset="1" stop-color="#5a7587"/></linearGradient><linearGradient id="SVGID_30_" gradientUnits="userSpaceOnUse" x1="249.434" x2="215.661" xlink:href="#lg14" y1="147.72" y2="156.579"/><linearGradient id="SVGID_31_" gradientUnits="userSpaceOnUse" x1="235.83" x2="259.361" xlink:href="#lg14" y1="180.779" y2="206.524"/><linearGradient id="SVGID_32_" gradientUnits="userSpaceOnUse" x1="244.778" x2="231.352" xlink:href="#lg14" y1="156.925" y2="203.433"/><linearGradient id="SVGID_33_" gradientUnits="userSpaceOnUse" x1="255.301" x2="265.451" xlink:href="#lg14" y1="166.555" y2="176.152"/><linearGradient id="SVGID_34_" gradientUnits="userSpaceOnUse" x1="264.884" x2="274.389" xlink:href="#lg13" y1="150.49" y2="159.996"/><linearGradient id="SVGID_35_" gradientUnits="userSpaceOnUse" x1="252.155" x2="261.66" xlink:href="#lg13" y1="117.276" y2="126.782"/><linearGradient id="SVGID_36_" gradientUnits="userSpaceOnUse" x1="264.057" x2="276.352" xlink:href="#lg13" y1="129.704" y2="141.998"/><linearGradient id="SVGID_37_" gradientUnits="userSpaceOnUse" x1="232.125" x2="248.589" xlink:href="#lg12" y1="194.892" y2="222.978"/><linearGradient id="SVGID_38_" gradientUnits="userSpaceOnUse" x1="246.485" x2="246.485" xlink:href="#lg10" y1="225.636" y2="191.043"/><linearGradient id="SVGID_39_" gradientUnits="userSpaceOnUse" x1="239.598" x2="249.452" xlink:href="#lg3" y1="170.295" y2="187.105"/><linearGradient id="SVGID_40_" gradientUnits="userSpaceOnUse" x1="325.501" x2="325.501" xlink:href="#lg9" y1="166.285" y2="325.949"/><linearGradient id="lg15"><stop offset="0" stop-color="#4a97f6" stop-opacity="0"/><stop offset="1" stop-color="#0469bb"/></linearGradient><linearGradient id="SVGID_41_" gradientUnits="userSpaceOnUse" x1="346.83" x2="296.645" xlink:href="#lg15" y1="196.82" y2="162.117"/><linearGradient id="SVGID_42_" gradientUnits="userSpaceOnUse" x1="303.005" x2="303.005" xlink:href="#lg11" y1="439.907" y2="463.287"/><linearGradient id="SVGID_43_" gradientTransform="matrix(.707 .707 -.707 .707 -2326.126 -1036.022)" gradientUnits="userSpaceOnUse" x1="2788.855" x2="2800.742" xlink:href="#lg9" y1="-783.051" y2="-783.051"/><linearGradient id="lg16"><stop offset="0" stop-color="#ff7044"/><stop offset="1" stop-color="#f82814"/></linearGradient><linearGradient id="SVGID_44_" gradientUnits="userSpaceOnUse" x1="240.897" x2="246.592" xlink:href="#lg16" y1="364.802" y2="370.498"/><linearGradient id="SVGID_46_" gradientUnits="userSpaceOnUse" x1="255" x2="255" y1="411.206" y2="467.602"><stop offset="0" stop-color="#c6b198"/><stop offset="1" stop-color="#988575"/></linearGradient><linearGradient id="lg17"><stop offset="0" stop-color="#754c24" stop-opacity="0"/><stop offset="1" stop-color="#754c24"/></linearGradient><linearGradient id="SVGID_47_" gradientUnits="userSpaceOnUse" x1="350.365" x2="344.365" xlink:href="#lg17" y1="444.913" y2="410.579"/><linearGradient id="SVGID_48_" gradientUnits="userSpaceOnUse" x1="477.01" x2="424.987" xlink:href="#lg17" y1="445.191" y2="405.381"/><linearGradient id="SVGID_49_" gradientUnits="userSpaceOnUse" x1="255" x2="255" xlink:href="#lg9" y1="462.209" y2="514.219"/><linearGradient id="SVGID_50_" gradientUnits="userSpaceOnUse" x1="212.653" x2="241.634" xlink:href="#lg9" y1="431.009" y2="431.009"/><linearGradient id="SVGID_51_" gradientUnits="userSpaceOnUse" x1="222.941" x2="205.059" xlink:href="#lg15" y1="428.54" y2="415.941"/><linearGradient id="SVGID_52_" gradientUnits="userSpaceOnUse" x1="231.722" x2="210.429" xlink:href="#lg15" y1="430.491" y2="439.714"/><linearGradient id="SVGID_53_" gradientTransform="matrix(.863 .506 -.506 .863 230.612 -113.553)" gradientUnits="userSpaceOnUse" x1="333.792" x2="372.477" xlink:href="#lg16" y1="392.927" y2="392.927"/><linearGradient id="SVGID_54_" gradientTransform="matrix(-.863 .506 .506 .863 428.608 -113.553)" gradientUnits="userSpaceOnUse" x1="342.769" x2="381.455" xlink:href="#lg16" y1="387.662" y2="387.662"/><linearGradient id="SVGID_55_" gradientTransform="matrix(-.014 1 -1 -.014 317.178 -482.214)" gradientUnits="userSpaceOnUse" x1="880.064" x2="918.75" xlink:href="#lg16" y1="-18.962" y2="-18.962"/><linearGradient id="SVGID_56_" gradientUnits="userSpaceOnUse" x1="282.613" x2="368.02" xlink:href="#lg16" y1="369.72" y2="455.127"/><linearGradient id="SVGID_57_" gradientUnits="userSpaceOnUse" x1="312.674" x2="351.359" xlink:href="#lg16" y1="400.276" y2="400.276"/><linearGradient id="SVGID_58_" gradientUnits="userSpaceOnUse" x1="331.008" x2="319.89" y1="455.096" y2="427.154"><stop offset="0" stop-color="#843561" stop-opacity="0"/><stop offset="1" stop-color="#3a2f4d"/></linearGradient><linearGradient id="SVGID_59_" gradientTransform="matrix(.494 .869 -.869 .494 -111.828 -361.8)" gradientUnits="userSpaceOnUse" x1="876.017" x2="914.702" xlink:href="#lg16" y1="3.029" y2="3.029"/><linearGradient id="SVGID_60_" gradientTransform="matrix(-.494 .869 .869 .494 621.828 -361.8)" gradientUnits="userSpaceOnUse" x1="807.734" x2="846.419" xlink:href="#lg16" y1="123.152" y2="123.152"/><linearGradient id="SVGID_61_" gradientTransform="matrix(-1 0 0 -1 2638 -3804.79)" gradientUnits="userSpaceOnUse" x1="2278.4" x2="2351.533" xlink:href="#lg16" y1="-4251.493" y2="-4178.36"/><linearGradient id="SVGID_62_" gradientUnits="userSpaceOnUse" x1="311.572" x2="337.345" xlink:href="#lg2" y1="398.678" y2="424.451"/><linearGradient id="SVGID_63_" gradientTransform="matrix(-1 0 0 -1 510 -554)" gradientUnits="userSpaceOnUse" x1="175.849" x2="196.574" xlink:href="#lg2" y1="-975.257" y2="-954.533"/><linearGradient id="SVGID_64_" gradientUnits="userSpaceOnUse" x1="316.539" x2="332.083" xlink:href="#lg2" y1="403.646" y2="419.189"/><linearGradient id="SVGID_65_" gradientUnits="userSpaceOnUse" x1="255" x2="255" y1="424.209" y2="494.852"><stop offset="0" stop-color="#174461" stop-opacity="0"/><stop offset=".1675" stop-color="#225b80" stop-opacity=".168"/><stop offset=".4245" stop-color="#317aa9" stop-opacity=".425"/><stop offset=".658" stop-color="#3c90c7" stop-opacity=".658"/><stop offset=".8576" stop-color="#439dd9" stop-opacity=".858"/><stop offset="1" stop-color="#45a2e0"/></linearGradient><linearGradient id="SVGID_66_" gradientUnits="userSpaceOnUse" x1="209.187" x2="225.276" xlink:href="#lg9" y1="391.322" y2="407.412"/><linearGradient id="SVGID_67_" gradientUnits="userSpaceOnUse" x1="220.047" x2="210.633" xlink:href="#lg15" y1="397.214" y2="401.137"/><linearGradient id="SVGID_68_" gradientUnits="userSpaceOnUse" x1="225.455" x2="217.302" xlink:href="#lg15" y1="398.003" y2="392.835"/><linearGradient id="SVGID_69_" gradientUnits="userSpaceOnUse" x1="222.188" x2="251.499" xlink:href="#lg9" y1="341.981" y2="371.291"/><linearGradient id="SVGID_70_" gradientUnits="userSpaceOnUse" x1="237.612" x2="223.552" xlink:href="#lg15" y1="357.147" y2="363.005"/><linearGradient id="SVGID_71_" gradientUnits="userSpaceOnUse" x1="243.798" x2="227.388" xlink:href="#lg15" y1="359.043" y2="348.64"/><linearGradient id="SVGID_72_" gradientTransform="matrix(-1 0 0 1 436.477 0)" gradientUnits="userSpaceOnUse" x1="233.592" x2="238.419" xlink:href="#lg9" y1="345.382" y2="350.208"/><linearGradient id="SVGID_73_" gradientTransform="matrix(.707 .707 -.707 .707 -2326.126 -1036.022)" gradientUnits="userSpaceOnUse" x1="2758.98" x2="2770.867" xlink:href="#lg9" y1="-822.295" y2="-822.295"/><linearGradient id="SVGID_74_" gradientUnits="userSpaceOnUse" x1="204.708" x2="208.119" xlink:href="#lg9" y1="423.912" y2="427.323"/><linearGradient id="SVGID_75_" gradientUnits="userSpaceOnUse" x1="195.104" x2="200.311" xlink:href="#lg9" y1="417.474" y2="422.681"/><linearGradient id="SVGID_76_" gradientUnits="userSpaceOnUse" x1="311.479" x2="259.275" xlink:href="#lg12" y1="297.933" y2="245.729"/><linearGradient id="SVGID_77_" gradientUnits="userSpaceOnUse" x1="302.788" x2="266.937" xlink:href="#lg1" y1="289.242" y2="253.391"/><linearGradient id="SVGID_78_" gradientUnits="userSpaceOnUse" x1="387.229" x2="335.025" xlink:href="#lg12" y1="297.933" y2="245.729"/><linearGradient id="SVGID_79_" gradientUnits="userSpaceOnUse" x1="378.538" x2="342.687" xlink:href="#lg1" y1="289.242" y2="253.391"/><linearGradient id="SVGID_80_" gradientUnits="userSpaceOnUse" x1="55.273" x2="113.873" xlink:href="#lg3" y1="79.309" y2="137.909"/><linearGradient id="SVGID_81_" gradientUnits="userSpaceOnUse" x1="326.135" x2="349.472" xlink:href="#lg3" y1="25.468" y2="48.806"/><g><path d="m485.638 510h-461.276c-13.455 0-24.362-10.907-24.362-24.362v-461.276c0-13.455 10.907-24.362 24.362-24.362h461.275c13.456 0 24.363 10.907 24.363 24.362v461.275c0 13.456-10.907 24.363-24.362 24.363z" fill="url(#SVGID_1_)"/><circle cx="165.123" cy="98.563" fill="url(#SVGID_2_)" r="66.943"/><path d="m442.028 34.578h-54.588c-12.445 0-22.97 8.215-26.452 19.517h-34.279c-14.706 0-26.628 11.922-26.628 26.627s11.922 26.627 26.628 26.627h11.748c0 14.706 11.922 26.627 26.627 26.627h52.521c14.706 0 26.627-11.922 26.627-26.627 0-6.664-2.454-12.751-6.5-17.421h4.294c15.285 0 27.675-12.391 27.675-27.675.002-15.284-12.388-27.675-27.673-27.675z" fill="url(#SVGID_3_)"/><g><g><g><path d="m510 349.06v51.42h-112.63l54.15-61.87c15.21-17.39 33.86-17.45 49.11-.17z" fill="url(#SVGID_4_)"/><path d="m192.7 400.48h-192.7v-66.48l16.04-14.02c25.89-22.63 57.61-22.72 83.54-.23z" fill="url(#SVGID_5_)"/><g><path d="m201.044 322.57h-31.214c-9.87 0-19.336-5.037-26.315-14.003-14.533-18.67-38.097-18.67-52.63 0l-71.552 91.918h257.778l-49.751-63.913c-6.98-8.965-16.445-14.002-26.316-14.002z" fill="url(#SVGID_6_)"/></g><g><path d="m266.742 302.539h-29.787c-9.419 0-18.453-6.332-25.113-17.603-13.869-23.47-36.356-23.47-50.226 0l-68.283 115.549h246l-47.478-80.344c-6.66-11.27-15.694-17.602-25.113-17.602z" fill="url(#SVGID_7_)"/></g></g><path d="m282 418.331s88.761-53.617 228-32.791v32.791z" fill="url(#SVGID_8_)"/><path d="m284.748 418.331s-110.853-93.802-284.748-57.366v57.366z" fill="url(#SVGID_9_)"/></g><g><g><g><path d="m83.187 391.393c-2.199 0-4.315.351-6.298.998-2.121-6.919-8.558-11.949-16.172-11.949-9.34 0-16.912 7.572-16.912 16.912 0 1.35.159 2.662.458 3.92-7.971.562-14.263 7.206-14.263 15.32 0 8.483 6.876 15.359 15.359 15.359h37.828c11.2 0 20.28-9.08 20.28-20.28s-9.08-20.28-20.28-20.28z" fill="url(#SVGID_10_)"/><path d="m62.907 411.674c0 .823.049 1.633.145 2.43-.763.108-1.543.162-2.335.162-9.34 0-16.911-7.572-16.911-16.913 0-9.339 7.571-16.911 16.911-16.911 7.613 0 14.052 5.031 16.172 11.95-8.117 2.647-13.982 10.279-13.982 19.282z" fill="url(#SVGID_11_)"/><path d="m30.118 418.506c.941 7.58 7.406 13.447 15.241 13.447h37.828c8.803 0 16.294-5.609 19.099-13.447z" fill="url(#SVGID_12_)"/></g></g></g><g><g><g><path d="m184.434 386.82c-2.447 0-4.801.391-7.008 1.111-2.36-7.699-9.523-13.297-17.995-13.297-10.393 0-18.819 8.426-18.819 18.819 0 1.502.177 2.962.509 4.362-8.87.625-15.871 8.018-15.871 17.047 0 9.439 7.652 17.091 17.091 17.091h42.093c12.463 0 22.566-10.103 22.566-22.566s-10.103-22.567-22.566-22.567z" fill="url(#SVGID_13_)"/><path d="m161.867 409.387c0 .915.055 1.817.161 2.704-.849.12-1.717.18-2.598.18-10.393 0-18.818-8.426-18.818-18.82 0-10.392 8.424-18.818 18.818-18.818 8.472 0 15.637 5.598 17.995 13.297-9.031 2.947-15.558 11.44-15.558 21.457z" fill="url(#SVGID_14_)"/><path d="m125.382 416.99c1.047 8.435 8.24 14.963 16.959 14.963h42.093c9.795 0 18.131-6.241 21.252-14.963z" fill="url(#SVGID_15_)"/></g></g></g><g><g><g><path d="m127.887 401.726c-1.639 0-3.216.262-4.693.744-1.58-5.156-6.378-8.905-12.052-8.905-6.961 0-12.604 5.643-12.604 12.604 0 1.006.118 1.984.341 2.921-5.94.419-10.63 5.37-10.63 11.417 0 6.321 5.125 11.446 11.446 11.446h28.191c8.347 0 15.113-6.766 15.113-15.113s-6.765-15.114-15.112-15.114z" fill="url(#SVGID_16_)"/><path d="m112.773 416.84c0 .613.037 1.217.108 1.811-.569.08-1.15.121-1.74.121-6.961 0-12.603-5.643-12.603-12.604 0-6.96 5.642-12.603 12.603-12.603 5.674 0 10.472 3.749 12.052 8.905-6.048 1.974-10.42 7.661-10.42 14.37z" fill="url(#SVGID_17_)"/><path d="m88.338 421.932c.701 5.649 5.519 10.021 11.358 10.021h28.191c6.56 0 12.143-4.18 14.233-10.021z" fill="url(#SVGID_18_)"/></g></g></g></g><g><g><g><path d="m169.282 447.205h53.979v-143.249l-53.979 53.979z" fill="url(#SVGID_19_)"/><path d="m169.282 367.151 53.979 53.98v-117.175l-53.979 53.979z" fill="url(#SVGID_20_)"/><path d="m223.261 284.541-74.616 74.616c-2.865 2.865-.836 7.765 3.216 7.765h26.237c6.57 0 12.871-2.61 17.517-7.256l27.645-27.645v-47.48z" fill="url(#SVGID_21_)"/><path d="m223.261 309.699v22.321l-27.646 27.646c-4.645 4.645-10.944 7.253-17.518 7.253h-12.056z" fill="url(#SVGID_22_)"/></g><path d="m223.261 447.205h-54.905c-2.558 0-4.632-2.074-4.632-4.632v-18.183c0-2.558 2.074-4.632 4.632-4.632h54.905z" fill="url(#SVGID_23_)"/><g><path d="m199.068 411.442h-8.826c-5.571 0-10.087-4.516-10.087-10.087v-15.76c0-5.571 4.516-10.087 10.087-10.087h8.826c5.571 0 10.087 4.516 10.087 10.087v15.76c-.001 5.572-4.516 10.087-10.087 10.087z" fill="url(#SVGID_24_)"/><path d="m197.686 405.814h-6.061c-3.826 0-6.927-3.101-6.927-6.927v-10.823c0-3.826 3.101-6.927 6.927-6.927h6.061c3.826 0 6.927 3.101 6.927 6.927v10.823c0 3.826-3.102 6.927-6.927 6.927z" fill="url(#SVGID_25_)"/></g></g><path d="m438.418 283.206-112.917-114.254-112.918 114.254h1.668v163.999h222.5v-163.999z" fill="url(#SVGID_26_)"/><path d="m436.751 362.448-47.716-47.716-9.865-5.786c-2.302-1.35-5.262-.578-6.612 1.724l-8.757 14.932-27.44-23.266c-.141-2.542-2.227-4.566-4.805-4.566h-11.437c-2.668 0-4.832 2.163-4.832 4.832v15.709c-7.795.859-15.299 2.671-22.411 5.296l-13.12-12.936c-1.35-2.302-4.31-3.073-6.612-1.724l-9.865 5.786c-2.302 1.35-3.073 4.31-1.724 6.612l8.474 14.45c-8.151 5.907-15.328 13.072-21.248 21.213l-13.658-7.764c-2.32-1.319-5.269-.507-6.588 1.813l-5.652 9.942c-1.319 2.32-.507 5.27 1.813 6.588l11.948 12.001c-2.358 6.304-4.078 12.919-5.057 19.775l-15.94-.216c-.488-.007-.951.081-1.397.21v20.726c.295.074.6.123.914.14l20.62 26.983h200.966v-84.758z" fill="url(#SVGID_27_)"/><path d="m215.2 288.353 158.735 158.735h54.087v-167.085l-102.514-102.514z" fill="url(#SVGID_28_)"/><g><g><path d="m264.991 169.864c.261-.871.405-1.793.405-2.749 0-5.238-4.208-9.488-9.428-9.567-.195-.532-.425-1.047-.683-1.545 2.702-1.73 4.497-4.75 4.497-8.196 0-5.376-4.358-9.734-9.734-9.734s-9.734 4.358-9.734 9.734c0 .396.031.783.076 1.167-6.099 1.314-10.671 6.736-10.671 13.228 0 2.598.734 5.024 2.003 7.086-4.961 2.007-8.462 6.868-8.462 12.548 0 7.475 6.06 13.534 13.534 13.534 4.497 0 8.48-2.195 10.941-5.571 2.461 3.375 6.444 5.571 10.941 5.571 7.475 0 13.534-6.06 13.534-13.534.002-5.195-2.925-9.703-7.219-11.972z" fill="url(#SVGID_29_)"/><path d="m250.049 138.073c-5.376 0-9.734 4.358-9.734 9.734 0 .396.031.783.076 1.167.923-.199 1.881-.306 2.864-.306 5.24 0 9.781 2.98 12.03 7.336 2.702-1.73 4.497-4.75 4.497-8.196.001-5.377-4.357-9.735-9.733-9.735z" fill="url(#SVGID_30_)"/><circle cx="236.796" cy="181.836" fill="url(#SVGID_31_)" r="13.534"/><path d="m243.255 148.667c-7.475 0-13.534 6.06-13.534 13.534 0 2.598.734 5.024 2.003 7.086 1.567-.634 3.278-.986 5.072-.986 4.877 0 9.15 2.58 11.532 6.449 4.961-2.007 8.462-6.868 8.462-12.548 0-7.475-6.06-13.535-13.535-13.535z" fill="url(#SVGID_32_)"/><path d="m258.678 168.301c2.281 0 4.428.567 6.313 1.563.261-.871.405-1.793.405-2.749 0-5.288-4.286-9.574-9.574-9.574s-9.574 4.286-9.574 9.574c0 2.263.789 4.339 2.102 5.977 2.483-2.929 6.187-4.791 10.328-4.791z" fill="url(#SVGID_33_)"/></g><circle cx="269.007" cy="154.614" fill="url(#SVGID_34_)" r="5.946"/><circle cx="256.278" cy="121.4" fill="url(#SVGID_35_)" r="5.946"/><circle cx="269.39" cy="135.037" fill="url(#SVGID_36_)" r="7.691"/></g><g><path d="m238.993 252.34h-15.659v-65.904h46.302v35.26c0 16.925-13.719 30.644-30.643 30.644z" fill="url(#SVGID_37_)"/><path d="m223.334 191.824 46.302 42.288v-47.675h-46.302z" fill="url(#SVGID_38_)"/><path d="m268.727 191.929h-44.483c-3.491 0-6.321-2.83-6.321-6.321v-7.128c0-3.491 2.83-6.321 6.321-6.321h44.483c3.491 0 6.321 2.83 6.321 6.321v7.128c0 3.49-2.83 6.321-6.321 6.321z" fill="url(#SVGID_39_)"/></g><path d="m313.853 158.316-110.338 110.338c-2.858 2.858-2.858 7.491 0 10.349l7.244 7.244c2.858 2.858 7.491 2.858 10.349 0l99.378-99.378c2.769-2.769 7.258-2.769 10.027 0l99.378 99.378c2.858 2.858 7.491 2.858 10.349 0l7.244-7.244c2.858-2.858 2.858-7.491 0-10.349l-110.336-110.338c-6.433-6.433-16.862-6.433-23.295 0z" fill="url(#SVGID_40_)"/><path d="m337.148 158.316c-3.216-3.216-7.432-4.825-11.647-4.825v31.302c1.815 0 3.629.692 5.014 2.077l99.378 99.378c2.858 2.858 7.491 2.858 10.349 0l7.244-7.244c2.858-2.858 2.858-7.491 0-10.349z" fill="url(#SVGID_41_)"/><path d="m450.697 457.787h-295.385c-4.423 0-8.008-3.585-8.008-8.008v-3.737c0-4.423 3.585-8.008 8.008-8.008h295.385c4.423 0 8.008 3.585 8.008 8.008v3.737c.001 4.423-3.585 8.008-8.008 8.008z" fill="url(#SVGID_42_)"/></g><g><path d="m198.3 391.188c2.046 1.305 4.567.966 6.068-1.342 3.054-4.694 7.509-1.554 8.13-3.9.62-2.347-9.081-9.426-15.541-.826-1.261 1.679-.832 4.043.594 5.469.223.221.473.423.749.599z" fill="url(#SVGID_43_)"/></g><path d="m235.75 375.61c1.18 1.04 2.72 1.68 4.41 1.68 1.84 0 3.5-.75 4.71-1.95s1.95-2.87 1.95-4.71v-14.08c0-.52.12-1.01.33-1.45-4.6 6.3-8.45 13.18-11.4 20.51z" fill="url(#SVGID_44_)"/><path d="m235.75 375.61c1.18 1.04 2.72 1.68 4.41 1.68 1.84 0 3.5-.75 4.71-1.95s1.95-2.87 1.95-4.71v-14.08c0-.52.12-1.01.33-1.45-4.6 6.3-8.45 13.18-11.4 20.51z" fill="url(#SVGID_44_)"/><path d="m510 485.638v-67.805h-510v67.805c0 13.455 10.907 24.362 24.362 24.362h461.275c13.456 0 24.363-10.907 24.363-24.362z" fill="url(#SVGID_46_)"/><g fill="#c6b198"><g><path d="m44.984 443.277h10.551c1.15 0 2.082-.932 2.082-2.082v-6.958c0-1.15-.932-2.082-2.082-2.082h-10.551c-1.15 0-2.082.932-2.082 2.082v6.958c0 1.15.932 2.082 2.082 2.082z"/><path d="m59.7 433.182h25.267c1.15 0 2.082-.932 2.082-2.082v-6.958c0-1.15-.932-2.082-2.082-2.082h-25.267c-1.15 0-2.082.932-2.082 2.082v6.958c0 1.149.932 2.082 2.082 2.082z"/></g><path d="m143.274 435.277h25.267c1.15 0 2.082-.932 2.082-2.082v-6.958c0-1.15-.932-2.082-2.082-2.082h-25.267c-1.15 0-2.082.932-2.082 2.082v6.958c0 1.15.932 2.082 2.082 2.082z"/><path d="m410.7 435.277h25.267c1.15 0 2.082-.932 2.082-2.082v-6.958c0-1.15-.932-2.082-2.082-2.082h-25.267c-1.15 0-2.082.932-2.082 2.082v6.958c0 1.15.932 2.082 2.082 2.082z"/><path d="m205.415 446.399h10.551c1.15 0 2.082-.932 2.082-2.082v-6.958c0-1.15-.932-2.082-2.082-2.082h-10.551c-1.15 0-2.082.932-2.082 2.082v6.958c0 1.15.933 2.082 2.082 2.082z"/><path d="m455.391 446.399h10.551c1.15 0 2.082-.932 2.082-2.082v-6.958c0-1.15-.932-2.082-2.082-2.082h-10.551c-1.15 0-2.082.932-2.082 2.082v6.958c0 1.15.932 2.082 2.082 2.082z"/></g><path d="m215.165 420.223 23.173 30.323-13.641 7.754c-2.32 1.319-3.131 4.268-1.813 6.588l5.652 9.942 35.676 35.17h197.788c9.941 0 18-8.059 18-18v-74.167h-268.736c.796 1.357 2.228 2.298 3.901 2.39z" fill="url(#SVGID_47_)"/><path d="m419.07 417.83c-.08 1.15-.18 2.3-.3 3.44-.986 9.379-3.351 18.343-6.86 26.709h98.09v-30.149z" fill="url(#SVGID_48_)"/><path d="m510 485.638v-37.658h-510v37.658c0 13.455 10.907 24.362 24.362 24.362h461.275c13.456 0 24.363-10.907 24.363-24.362z" fill="url(#SVGID_49_)"/><g><path d="m210.365 414.037h28.219v33.943h-28.219z" fill="url(#SVGID_50_)"/><path d="m216.308 414.037h20.274v33.943h-20.274z" fill="url(#SVGID_51_)"/><path d="m224.474 414.037h12.108v33.943h-12.108z" fill="url(#SVGID_52_)"/></g><g><path d="m281.801 492.844-9.865-5.786c-2.302-1.35-3.073-4.31-1.724-6.612l100.595-171.526c1.35-2.302 4.31-3.073 6.612-1.724l9.865 5.786c2.302 1.35 3.073 4.31 1.724 6.612l-100.595 171.527c-1.349 2.301-4.31 3.073-6.612 1.723z" fill="url(#SVGID_53_)"/><path d="m367.011 492.844 9.865-5.786c2.302-1.35 3.073-4.31 1.724-6.612l-100.594-171.526c-1.35-2.302-4.31-3.073-6.612-1.724l-9.865 5.786c-2.302 1.35-3.073 4.31-1.724 6.612l100.594 171.527c1.35 2.301 4.311 3.073 6.612 1.723z" fill="url(#SVGID_54_)"/><path d="m208.847 413.599.155-11.436c.036-2.668 2.228-4.802 4.896-4.766l220.664 2.983c2.668.036 4.802 2.228 4.766 4.896l-.155 11.436c-.036 2.668-2.228 4.802-4.896 4.766l-220.664-2.983c-2.669-.036-4.802-2.228-4.766-4.896z" fill="url(#SVGID_55_)"/></g><g><path d="m324.087 315.975c-52.587 0-95.218 42.631-95.218 95.218s42.631 95.218 95.218 95.218 95.218-42.631 95.218-95.218-42.631-95.218-95.218-95.218zm0 163.052c-37.463 0-67.834-30.371-67.834-67.834 0-37.469 30.371-67.84 67.834-67.84s67.834 30.371 67.834 67.84c0 37.463-30.371 67.834-67.834 67.834z" fill="url(#SVGID_56_)"/><g><g><path d="m329.805 504.531h-11.437c-2.668 0-4.832-2.163-4.832-4.832v-198.847c0-2.668 2.163-4.832 4.832-4.832h11.437c2.668 0 4.832 2.163 4.832 4.832v198.848c0 2.668-2.163 4.831-4.832 4.831z" fill="url(#SVGID_57_)"/><path d="m334.637 437.701h-21.1l21.1 21.1z" fill="url(#SVGID_58_)"/><path d="m226.786 473.081-5.652-9.943c-1.319-2.32-.507-5.269 1.813-6.588l191.853-109.057c2.32-1.319 5.269-.507 6.588 1.813l5.652 9.943c1.319 2.32.507 5.269-1.813 6.588l-191.853 109.057c-2.32 1.318-5.27.507-6.588-1.813z" fill="url(#SVGID_59_)"/><path d="m421.388 473.081 5.652-9.943c1.319-2.32.507-5.269-1.813-6.588l-191.853-109.057c-2.32-1.319-5.269-.507-6.588 1.813l-5.652 9.943c-1.319 2.32-.507 5.269 1.813 6.588l191.853 109.057c2.32 1.318 5.27.507 6.588-1.813z" fill="url(#SVGID_60_)"/></g><g><g><path d="m324.087 492.722c45.031 0 81.535-36.503 81.535-81.535 0-45.025-36.503-81.529-81.535-81.529s-81.535 36.503-81.535 81.529c0 45.032 36.504 81.535 81.535 81.535zm0-149.369c37.463 0 67.834 30.371 67.834 67.834 0 37.469-30.371 67.84-67.834 67.84s-67.834-30.371-67.834-67.84c0-37.463 30.371-67.834 67.834-67.834z" fill="url(#SVGID_61_)"/></g><circle cx="324.087" cy="411.193" fill="url(#SVGID_62_)" r="28.734"/><circle cx="324.087" cy="411.193" fill="url(#SVGID_63_)" r="23.105"/><path d="m341.416 411.193c0 9.571-7.758 17.329-17.329 17.329s-17.329-7.758-17.329-17.329 7.758-17.329 17.329-17.329c.852 0 1.689.061 2.508.18 8.382 1.216 14.821 8.431 14.821 17.149z" fill="url(#SVGID_64_)"/></g></g></g><path d="m510 485.638v-37.658h-510v37.658c0 13.455 10.907 24.362 24.362 24.362h461.275c13.456 0 24.363-10.907 24.363-24.362z" fill="url(#SVGID_65_)"/><g><g><path d="m226.142 389.127c-4.995-.613-10.046-.613-15.04 0-3.416.419-5.983 3.32-5.983 6.762v10.664c0 2.525 2.047 4.572 4.572 4.572 2.525 0 4.572-2.047 4.572-4.572v-6.305c0-1.145.928-2.073 2.073-2.073 1.145 0 2.073.928 2.073 2.073v1.578c0 2.525 2.047 4.572 4.572 4.572 2.525 0 4.572-2.047 4.572-4.572v-1.364c0-1.263 1.024-2.286 2.286-2.286 1.263 0 2.286-1.024 2.286-2.286 0-3.443-2.567-6.344-5.983-6.763z" fill="url(#SVGID_66_)"/><path d="m226.142 389.127c-3.934-.483-7.903-.579-11.852-.301v11.103c.154-.993 1.01-1.754 2.046-1.754 1.145 0 2.073.928 2.073 2.073v1.578c0 2.525 2.047 4.572 4.572 4.572 2.525 0 4.572-2.047 4.572-4.572v-1.364c0-1.263 1.024-2.286 2.286-2.286 1.263 0 2.286-1.024 2.286-2.286 0-3.443-2.567-6.344-5.983-6.763z" fill="url(#SVGID_67_)"/><path d="m226.142 389.127c-.011-.001-.022-.003-.034-.004-1.781-.217-3.346 1.189-3.346 2.984v14.28c.073.003.144.011.218.011 2.525 0 4.572-2.047 4.572-4.572v-1.364c0-1.263 1.024-2.286 2.286-2.286 1.238 0 2.275-.985 2.286-2.223.032-3.471-2.545-6.404-5.982-6.826z" fill="url(#SVGID_68_)"/></g></g><g><g><g><path d="m253.21 347.63c-1.89 2.09-3.68 4.27-5.37 6.53-.29.27-.52.58-.69.94-.21.44-.33.93-.33 1.45v14.08c0 1.84-.74 3.51-1.95 4.71s-2.87 1.95-4.71 1.95c-1.69 0-3.23-.64-4.41-1.68-1.38-1.21-2.25-2.99-2.25-4.98v-14.39c0-.84-.34-1.59-.88-2.14-.55-.54-1.3-.88-2.14-.88-1.66 0-3.01 1.35-3.01 3.02v2.43c0 1.84-.75 3.51-1.95 4.71-1.21 1.2-2.88 1.95-4.71 1.95-3.68 0-6.66-2.98-6.66-6.66v-8.78c0-2.51.93-4.81 2.49-6.57s3.74-2.98 6.22-3.28c7.28-.89 14.63-.89 21.91 0 2.49.3 4.66 1.52 6.22 3.28 1.07 1.22 1.85 2.691 2.22 4.31z" fill="url(#SVGID_69_)"/><path d="m253.21 347.63c-1.89 2.09-3.68 4.27-5.37 6.53-.29.27-.52.58-.69.94-.21.44-.33.93-.33 1.45v14.08c0 1.84-.74 3.51-1.95 4.71s-2.87 1.95-4.71 1.95c-1.69 0-3.23-.64-4.41-1.68-1.38-1.21-2.25-2.99-2.25-4.98v-14.39c0-.84-.34-1.59-.88-2.14-.55-.54-1.3-.88-2.14-.88-1.51 0-2.75 1.11-2.98 2.55v-16.17c5.76-.4 11.54-.26 17.27.44 4.2.52 7.52 3.62 8.44 7.59z" fill="url(#SVGID_70_)"/><path d="m253.22 347.62c-1.9 2.1-3.69 4.28-5.38 6.54-.29.27-.52.58-.69.94-.21.44-.33.93-.33 1.45v14.08c0 1.84-.74 3.51-1.95 4.71s-2.87 1.95-4.71 1.95c-.11 0-.21-.01-.32-.01v-32.9c0-2.61 2.28-4.66 4.88-4.34h.05c4.19.52 7.51 3.61 8.45 7.58z" fill="url(#SVGID_71_)"/></g></g><g><circle cx="200.102" cy="348.165" fill="url(#SVGID_72_)" r="2.734"/><g><path d="m204.925 342.313c2.046 1.305 4.567.966 6.068-1.342 3.054-4.694 7.509-1.554 8.13-3.9.62-2.347-9.081-9.426-15.541-.826-1.261 1.679-.832 4.043.594 5.469.223.221.473.423.749.599z" fill="url(#SVGID_73_)"/></g></g></g><circle cx="205.896" cy="425.1" fill="url(#SVGID_74_)" r="3.313"/><circle cx="196.917" cy="419.287" fill="url(#SVGID_75_)" r="5.057"/><g><g><path d="m289.245 292.62h-11.019c-6.955 0-12.593-5.638-12.593-12.593v-19.676c0-6.955 5.638-12.593 12.593-12.593h11.019c6.955 0 12.593 5.638 12.593 12.593v19.676c0 6.956-5.638 12.593-12.593 12.593z" fill="url(#SVGID_76_)"/><path d="m287.519 285.594h-7.567c-4.776 0-8.648-3.872-8.648-8.648v-13.512c0-4.776 3.872-8.648 8.648-8.648h7.567c4.776 0 8.648 3.872 8.648 8.648v13.512c0 4.776-3.872 8.648-8.648 8.648z" fill="url(#SVGID_77_)"/></g><g><path d="m364.995 292.62h-11.019c-6.955 0-12.593-5.638-12.593-12.593v-19.676c0-6.955 5.638-12.593 12.593-12.593h11.019c6.955 0 12.593 5.638 12.593 12.593v19.676c0 6.956-5.638 12.593-12.593 12.593z" fill="url(#SVGID_78_)"/><path d="m363.269 285.594h-7.567c-4.776 0-8.648-3.872-8.648-8.648v-13.512c0-4.776 3.872-8.648 8.648-8.648h7.567c4.776 0 8.648 3.872 8.648 8.648v13.512c0 4.776-3.872 8.648-8.648 8.648z" fill="url(#SVGID_79_)"/></g></g><path d="m100.806 85.012h-7.964c0-9.968-8.081-18.049-18.049-18.049h-35.6c-9.968 0-18.049 8.081-18.049 18.049s8.081 18.049 18.049 18.049h7.963c0 9.968 8.081 18.049 18.049 18.049h35.6c9.968 0 18.049-8.081 18.049-18.049.001-9.968-8.08-18.049-18.048-18.049z" fill="url(#SVGID_80_)"/></g><path d="m342 42.667h-20c-6.259 0-11.333-5.074-11.333-11.333 0-6.26 5.074-11.334 11.333-11.334h20c6.259 0 11.333 5.074 11.333 11.333 0 6.26-5.074 11.334-11.333 11.334z" fill="url(#SVGID_81_)"/></svg>