<!--
  - Copyright (c) 2023. Selldone® Business OS™
  -
  - Author: M.Pajuhaan
  - Web: https://selldone.com
  - ━━━━━━━━━━━━━━━━━━━━━━━━━━━━━━━━━━━━━━━━━━━━━━━━━━━━━━
  -
  - All rights reserved. In the weave of time, where traditions and innovations intermingle, this content was crafted.
  - From the essence of thought, through the corridors of creativity, each word, and sentiment has been molded.
  - Not just to exist, but to inspire. Like an artist's stroke or a sculptor's chisel, every nuance is deliberate.
  - Our journey is not just about reaching a destination, but about creating a masterpiece.
  - Tread carefully, for you're treading on dreams.
  -->

<svg id="Capa_1" enable-background="new 0 0 510 510" height="512" viewBox="0 0 510 510" width="512" xmlns="http://www.w3.org/2000/svg" xmlns:xlink="http://www.w3.org/1999/xlink"><linearGradient id="lg1"><stop offset="0" stop-color="#c7e9ff"/><stop offset=".3556" stop-color="#a3e6f2"/><stop offset="1" stop-color="#65e0db"/></linearGradient><linearGradient id="SVGID_1_" gradientUnits="userSpaceOnUse" x1="255" x2="255" xlink:href="#lg1" y1="34.721" y2="483.763"/><linearGradient id="lg2"><stop offset="0" stop-color="#edf5ff"/><stop offset="1" stop-color="#c7e9ff"/></linearGradient><linearGradient id="SVGID_2_" gradientUnits="userSpaceOnUse" x1="86.153" x2="116.607" xlink:href="#lg2" y1="12.575" y2="83.633"/><linearGradient id="lg3"><stop offset="0" stop-color="#18cefb" stop-opacity="0"/><stop offset="1" stop-color="#0469bb"/></linearGradient><linearGradient id="SVGID_3_" gradientUnits="userSpaceOnUse" x1="451.75" x2="451.75" xlink:href="#lg3" y1="397.643" y2="288.449"/><linearGradient id="SVGID_4_" gradientUnits="userSpaceOnUse" x1="284.032" x2="370.484" xlink:href="#lg2" y1="80.899" y2="167.351"/><linearGradient id="SVGID_5_" gradientUnits="userSpaceOnUse" x1="398.885" x2="483.771" y1="80.819" y2="165.704"><stop offset="0" stop-color="#ffd945"/><stop offset=".3043" stop-color="#ffcd3e"/><stop offset=".8558" stop-color="#ffad2b"/><stop offset="1" stop-color="#ffa325"/></linearGradient><linearGradient id="SVGID_6_" gradientUnits="userSpaceOnUse" x1="173.408" x2="207.357" xlink:href="#lg2" y1="266.424" y2="300.373"/><linearGradient id="SVGID_7_" gradientUnits="userSpaceOnUse" x1="257.715" x2="298.715" y1="400.841" y2="531.841"><stop offset="0" stop-color="#c6b198"/><stop offset="1" stop-color="#988575"/></linearGradient><linearGradient id="SVGID_8_" gradientUnits="userSpaceOnUse" x1="150.917" x2="150.917" xlink:href="#lg3" y1="402.986" y2="246.066"/><linearGradient id="SVGID_9_" gradientUnits="userSpaceOnUse" x1="257.392" x2="278.184" xlink:href="#lg1" y1="276.719" y2="339.896"/><linearGradient id="SVGID_10_" gradientUnits="userSpaceOnUse" x1="277.464" x2="291.822" xlink:href="#lg1" y1="315.93" y2="359.558"/><linearGradient id="lg4"><stop offset="0" stop-color="#798c00"/><stop offset="1" stop-color="#1b444f"/></linearGradient><linearGradient id="SVGID_11_" gradientUnits="userSpaceOnUse" x1="399.658" x2="394.324" xlink:href="#lg4" y1="357.529" y2="398.196"/><linearGradient id="lg5"><stop offset="0" stop-color="#bada00"/><stop offset=".2187" stop-color="#b6d600"/><stop offset=".4501" stop-color="#acc900"/><stop offset=".6873" stop-color="#9ab400"/><stop offset=".9271" stop-color="#829700"/><stop offset="1" stop-color="#798c00"/></linearGradient><linearGradient id="SVGID_12_" gradientUnits="userSpaceOnUse" x1="116.914" x2="141.888" xlink:href="#lg5" y1="278.802" y2="352.335"/><linearGradient id="SVGID_13_" gradientUnits="userSpaceOnUse" x1="324.664" x2="362.973" xlink:href="#lg5" y1="368.122" y2="406.432"/><linearGradient id="lg6"><stop offset="0" stop-color="#43765a" stop-opacity="0"/><stop offset="1" stop-color="#43765a"/></linearGradient><linearGradient id="SVGID_14_" gradientUnits="userSpaceOnUse" x1="328.913" x2="361.913" xlink:href="#lg6" y1="373.126" y2="373.459"/><linearGradient id="lg7"><stop offset="0" stop-color="#ff4181" stop-opacity="0"/><stop offset="1" stop-color="#ff4181"/></linearGradient><linearGradient id="SVGID_15_" gradientUnits="userSpaceOnUse" x1="344.434" x2="344.434" xlink:href="#lg7" y1="396.86" y2="408.286"/><linearGradient id="SVGID_16_" gradientUnits="userSpaceOnUse" x1="418.075" x2="460.704" xlink:href="#lg5" y1="363.79" y2="406.419"/><linearGradient id="SVGID_17_" gradientUnits="userSpaceOnUse" x1="424.558" x2="463.892" xlink:href="#lg6" y1="369.719" y2="368.719"/><linearGradient id="SVGID_18_" gradientUnits="userSpaceOnUse" x1="440.075" x2="440.075" xlink:href="#lg7" y1="395.768" y2="408.483"/><linearGradient id="SVGID_19_" gradientUnits="userSpaceOnUse" x1="376.906" x2="405.455" xlink:href="#lg5" y1="377.91" y2="406.46"/><linearGradient id="SVGID_20_" gradientUnits="userSpaceOnUse" x1="381.422" x2="407.755" xlink:href="#lg6" y1="381.16" y2="383.493"/><linearGradient id="SVGID_21_" gradientUnits="userSpaceOnUse" x1="391.639" x2="391.639" xlink:href="#lg7" y1="399.326" y2="407.842"/><linearGradient id="SVGID_22_" gradientUnits="userSpaceOnUse" x1="342.594" x2="342.594" xlink:href="#lg5" y1="375.928" y2="481.079"/><linearGradient id="SVGID_23_" gradientUnits="userSpaceOnUse" x1="75.215" x2="115.316" xlink:href="#lg5" y1="361.364" y2="423.875"/><linearGradient id="SVGID_24_" gradientUnits="userSpaceOnUse" x1="82.764" x2="134.605" xlink:href="#lg6" y1="364.381" y2="353.84"/><linearGradient id="SVGID_25_" gradientUnits="userSpaceOnUse" x1="90.291" x2="127.327" xlink:href="#lg4" y1="259.15" y2="296.186"/><linearGradient id="SVGID_26_" gradientUnits="userSpaceOnUse" x1="155.069" x2="192.105" xlink:href="#lg4" y1="259.15" y2="296.186"/><linearGradient id="SVGID_27_" gradientUnits="userSpaceOnUse" x1="192.221" x2="229.258" xlink:href="#lg4" y1="251.476" y2="288.513"/><linearGradient id="SVGID_28_" gradientUnits="userSpaceOnUse" x1="222.488" x2="259.525" xlink:href="#lg4" y1="235.979" y2="273.015"/><linearGradient id="SVGID_29_" gradientUnits="userSpaceOnUse" x1="52.214" x2="82.282" xlink:href="#lg4" y1="255.292" y2="285.36"/><linearGradient id="lg8"><stop offset="0" stop-color="#c59b6d"/><stop offset="1" stop-color="#8b6239"/></linearGradient><linearGradient id="SVGID_30_" gradientUnits="userSpaceOnUse" x1="106.589" x2="219.308" xlink:href="#lg8" y1="323.346" y2="359.548"/><linearGradient id="lg9"><stop offset="0" stop-color="#754c24" stop-opacity="0"/><stop offset="1" stop-color="#754c24"/></linearGradient><linearGradient id="SVGID_31_" gradientUnits="userSpaceOnUse" x1="171.686" x2="103.396" xlink:href="#lg9" y1="337.812" y2="318.477"/><linearGradient id="SVGID_32_" gradientUnits="userSpaceOnUse" x1="180.411" x2="152.672" xlink:href="#lg9" y1="292.917" y2="217.76"/><linearGradient id="SVGID_33_" gradientUnits="userSpaceOnUse" x1="185.159" x2="157.185" xlink:href="#lg8" y1="310.045" y2="310.045"/><linearGradient id="SVGID_34_" gradientUnits="userSpaceOnUse" x1="156.362" x2="111.363" xlink:href="#lg8" y1="370.919" y2="370.919"/><linearGradient id="SVGID_35_" gradientUnits="userSpaceOnUse" x1="164.321" x2="120.714" xlink:href="#lg9" y1="405.922" y2="359.436"/><linearGradient id="SVGID_36_" gradientUnits="userSpaceOnUse" x1="227.706" x2="249.014" xlink:href="#lg5" y1="137.689" y2="193.298"/><linearGradient id="SVGID_37_" gradientUnits="userSpaceOnUse" x1="125.814" x2="216.244" xlink:href="#lg5" y1="151.525" y2="231.041"/><linearGradient id="SVGID_38_" gradientUnits="userSpaceOnUse" x1="132.173" x2="192.701" xlink:href="#lg6" y1="131.778" y2="119.471"/><linearGradient id="SVGID_39_" gradientUnits="userSpaceOnUse" x1="39.701" x2="92.712" xlink:href="#lg5" y1="182.565" y2="265.2"/><linearGradient id="SVGID_40_" gradientUnits="userSpaceOnUse" x1="49.681" x2="90.687" xlink:href="#lg6" y1="186.553" y2="178.215"/><linearGradient id="SVGID_41_" gradientUnits="userSpaceOnUse" x1="203.238" x2="236.399" xlink:href="#lg5" y1="137.718" y2="260.16"/><linearGradient id="SVGID_42_" gradientUnits="userSpaceOnUse" x1="215.214" x2="261.92" xlink:href="#lg6" y1="190.302" y2="180.805"/><linearGradient id="SVGID_43_" gradientUnits="userSpaceOnUse" x1="141.408" x2="203.427" xlink:href="#lg5" y1="159.791" y2="280.017"/><linearGradient id="SVGID_44_" gradientUnits="userSpaceOnUse" x1="28.281" x2="85.103" xlink:href="#lg5" y1="221.198" y2="341.771"/><linearGradient id="SVGID_45_" gradientUnits="userSpaceOnUse" x1="61.089" x2="125.124" xlink:href="#lg5" y1="196.229" y2="332.107"/><linearGradient id="SVGID_46_" gradientUnits="userSpaceOnUse" x1="156.116" x2="182.874" y1="380.568" y2="527.391"><stop offset="0" stop-color="#bada00"/><stop offset="1" stop-color="#798c00"/></linearGradient><linearGradient id="SVGID_47_" gradientUnits="userSpaceOnUse" x1="144.751" x2="159.069" xlink:href="#lg6" y1="513.943" y2="256.737"/><linearGradient id="SVGID_48_" gradientUnits="userSpaceOnUse" x1="227.172" x2="148.506" xlink:href="#lg6" y1="453.374" y2="322.707"/><linearGradient id="SVGID_49_" gradientUnits="userSpaceOnUse" x1="370.344" x2="406.548" xlink:href="#lg2" y1="42.931" y2="79.135"/><linearGradient id="SVGID_50_" gradientUnits="userSpaceOnUse" x1="76.479" x2="39.479" xlink:href="#lg6" y1="245.648" y2="222.273"/><linearGradient id="lg10"><stop offset="0" stop-color="#ff7044"/><stop offset="1" stop-color="#f82814"/></linearGradient><linearGradient id="SVGID_51_" gradientUnits="userSpaceOnUse" x1="50.13" x2="59.668" xlink:href="#lg10" y1="222.641" y2="238.902"/><linearGradient id="SVGID_52_" gradientTransform="matrix(1 .008 -.008 1 -226.886 -577.806)" gradientUnits="userSpaceOnUse" x1="287.682" x2="289.553" xlink:href="#lg8" y1="786.637" y2="789.584"/><linearGradient id="lg11"><stop offset="0" stop-color="#843561" stop-opacity="0"/><stop offset="1" stop-color="#3a2f4d"/></linearGradient><linearGradient id="SVGID_53_" gradientUnits="userSpaceOnUse" x1="53.149" x2="53.149" xlink:href="#lg11" y1="217.202" y2="220.944"/><linearGradient id="SVGID_54_" gradientUnits="userSpaceOnUse" x1="116.479" x2="79.479" xlink:href="#lg6" y1="192.648" y2="169.273"/><linearGradient id="SVGID_55_" gradientUnits="userSpaceOnUse" x1="90.13" x2="99.668" xlink:href="#lg10" y1="169.641" y2="185.902"/><linearGradient id="SVGID_56_" gradientTransform="matrix(1 .008 -.008 1 -226.886 -577.806)" gradientUnits="userSpaceOnUse" x1="327.239" x2="329.111" xlink:href="#lg8" y1="733.309" y2="736.255"/><linearGradient id="SVGID_57_" gradientUnits="userSpaceOnUse" x1="93.149" x2="93.149" xlink:href="#lg11" y1="164.202" y2="167.944"/><linearGradient id="SVGID_58_" gradientUnits="userSpaceOnUse" x1="174.479" x2="137.479" xlink:href="#lg6" y1="162.648" y2="139.273"/><linearGradient id="SVGID_59_" gradientUnits="userSpaceOnUse" x1="148.13" x2="157.668" xlink:href="#lg10" y1="139.641" y2="155.902"/><linearGradient id="SVGID_60_" gradientTransform="matrix(1 .008 -.008 1 -226.886 -577.806)" gradientUnits="userSpaceOnUse" x1="384.986" x2="386.858" xlink:href="#lg8" y1="702.829" y2="705.776"/><linearGradient id="SVGID_61_" gradientUnits="userSpaceOnUse" x1="151.149" x2="151.149" xlink:href="#lg11" y1="134.202" y2="137.944"/><linearGradient id="SVGID_62_" gradientUnits="userSpaceOnUse" x1="153.479" x2="116.479" xlink:href="#lg6" y1="239.648" y2="216.273"/><linearGradient id="SVGID_63_" gradientUnits="userSpaceOnUse" x1="127.13" x2="136.668" xlink:href="#lg10" y1="216.641" y2="232.902"/><linearGradient id="SVGID_64_" gradientTransform="matrix(1 .008 -.008 1 -226.886 -577.806)" gradientUnits="userSpaceOnUse" x1="364.627" x2="366.498" xlink:href="#lg8" y1="779.998" y2="782.945"/><linearGradient id="SVGID_65_" gradientUnits="userSpaceOnUse" x1="130.149" x2="130.149" xlink:href="#lg11" y1="211.202" y2="214.944"/><linearGradient id="SVGID_66_" gradientUnits="userSpaceOnUse" x1="206.979" x2="169.979" xlink:href="#lg6" y1="210.148" y2="186.773"/><linearGradient id="SVGID_67_" gradientUnits="userSpaceOnUse" x1="180.63" x2="190.168" xlink:href="#lg10" y1="187.141" y2="203.402"/><linearGradient id="SVGID_68_" gradientTransform="matrix(1 .008 -.008 1 -226.886 -577.806)" gradientUnits="userSpaceOnUse" x1="417.878" x2="419.75" xlink:href="#lg8" y1="750.056" y2="753.003"/><linearGradient id="SVGID_69_" gradientUnits="userSpaceOnUse" x1="183.649" x2="183.649" xlink:href="#lg11" y1="181.702" y2="185.444"/><linearGradient id="SVGID_70_" gradientUnits="userSpaceOnUse" x1="257.979" x2="220.979" xlink:href="#lg6" y1="189.648" y2="166.273"/><linearGradient id="SVGID_71_" gradientUnits="userSpaceOnUse" x1="231.63" x2="241.168" xlink:href="#lg10" y1="166.641" y2="182.902"/><linearGradient id="SVGID_72_" gradientTransform="matrix(1 .008 -.008 1 -226.886 -577.806)" gradientUnits="userSpaceOnUse" x1="468.705" x2="470.576" xlink:href="#lg8" y1="729.135" y2="732.081"/><linearGradient id="SVGID_73_" gradientUnits="userSpaceOnUse" x1="234.649" x2="234.649" xlink:href="#lg11" y1="161.202" y2="164.944"/><linearGradient id="SVGID_74_" gradientUnits="userSpaceOnUse" x1="238.979" x2="201.979" xlink:href="#lg6" y1="259.148" y2="235.773"/><linearGradient id="SVGID_75_" gradientUnits="userSpaceOnUse" x1="212.63" x2="222.168" xlink:href="#lg10" y1="236.141" y2="252.402"/><linearGradient id="SVGID_76_" gradientTransform="matrix(1 .008 -.008 1 -226.886 -577.806)" gradientUnits="userSpaceOnUse" x1="450.283" x2="452.154" xlink:href="#lg8" y1="798.787" y2="801.734"/><linearGradient id="SVGID_77_" gradientUnits="userSpaceOnUse" x1="215.649" x2="215.649" xlink:href="#lg11" y1="230.702" y2="234.444"/><linearGradient id="SVGID_78_" gradientTransform="matrix(.853 -.522 .522 .853 -166.217 113.326)" gradientUnits="userSpaceOnUse" x1="88.719" x2="98.257" xlink:href="#lg10" y1="378.882" y2="395.143"/><linearGradient id="SVGID_79_" gradientTransform="matrix(.857 -.515 .515 .857 -661.235 -261.233)" gradientUnits="userSpaceOnUse" x1="327.565" x2="329.436" xlink:href="#lg8" y1="942.547" y2="945.494"/><linearGradient id="SVGID_80_" gradientTransform="matrix(.853 -.522 .522 .853 -166.217 113.326)" gradientUnits="userSpaceOnUse" x1="91.738" x2="91.738" xlink:href="#lg11" y1="373.443" y2="377.185"/><linearGradient id="SVGID_81_" gradientTransform="matrix(.91 .414 -.414 .91 183.729 -22.077)" gradientUnits="userSpaceOnUse" x1="126.094" x2="135.632" xlink:href="#lg10" y1="396.435" y2="412.696"/><linearGradient id="SVGID_82_" gradientTransform="matrix(.907 .422 -.422 .907 216.549 -641.963)" gradientUnits="userSpaceOnUse" x1="365.083" x2="366.954" xlink:href="#lg8" y1="959.789" y2="962.735"/><linearGradient id="SVGID_83_" gradientTransform="matrix(.91 .414 -.414 .91 183.729 -22.077)" gradientUnits="userSpaceOnUse" x1="129.113" x2="129.113" xlink:href="#lg11" y1="390.996" y2="394.738"/><linearGradient id="SVGID_84_" gradientUnits="userSpaceOnUse" x1="233.142" x2="170.309" xlink:href="#lg6" y1="464.822" y2="415.988"/><linearGradient id="SVGID_85_" gradientTransform="matrix(.91 .414 -.414 .91 183.729 -22.077)" gradientUnits="userSpaceOnUse" x1="183.13" x2="192.668" xlink:href="#lg10" y1="397.393" y2="413.654"/><linearGradient id="SVGID_86_" gradientTransform="matrix(.907 .422 -.422 .907 216.549 -641.963)" gradientUnits="userSpaceOnUse" x1="422.123" x2="423.995" xlink:href="#lg8" y1="960.273" y2="963.22"/><linearGradient id="SVGID_87_" gradientTransform="matrix(.91 .414 -.414 .91 183.729 -22.077)" gradientUnits="userSpaceOnUse" x1="186.15" x2="186.15" xlink:href="#lg11" y1="391.954" y2="395.696"/><linearGradient id="SVGID_88_" gradientUnits="userSpaceOnUse" x1="321.529" x2="338.792" xlink:href="#lg4" y1="321.994" y2="339.257"/><linearGradient id="SVGID_89_" gradientUnits="userSpaceOnUse" x1="351.722" x2="368.985" xlink:href="#lg4" y1="321.994" y2="339.257"/><linearGradient id="SVGID_90_" gradientUnits="userSpaceOnUse" x1="369.04" x2="386.303" xlink:href="#lg4" y1="318.417" y2="335.68"/><linearGradient id="SVGID_91_" gradientUnits="userSpaceOnUse" x1="383.148" x2="400.411" xlink:href="#lg4" y1="311.194" y2="328.457"/><linearGradient id="SVGID_92_" gradientUnits="userSpaceOnUse" x1="303.781" x2="317.796" xlink:href="#lg4" y1="320.196" y2="334.211"/><linearGradient id="SVGID_93_" gradientUnits="userSpaceOnUse" x1="329.126" x2="381.665" xlink:href="#lg8" y1="351.916" y2="368.79"/><linearGradient id="SVGID_94_" gradientUnits="userSpaceOnUse" x1="359.468" x2="327.637" xlink:href="#lg9" y1="358.659" y2="349.647"/><linearGradient id="SVGID_95_" gradientUnits="userSpaceOnUse" x1="363.535" x2="350.605" xlink:href="#lg9" y1="337.733" y2="302.702"/><linearGradient id="SVGID_96_" gradientUnits="userSpaceOnUse" x1="365.748" x2="352.709" xlink:href="#lg8" y1="345.717" y2="345.717"/><linearGradient id="SVGID_97_" gradientUnits="userSpaceOnUse" x1="352.325" x2="331.351" xlink:href="#lg8" y1="374.09" y2="374.09"/><linearGradient id="SVGID_98_" gradientUnits="userSpaceOnUse" x1="356.035" x2="335.709" xlink:href="#lg9" y1="390.406" y2="368.738"/><linearGradient id="SVGID_99_" gradientUnits="userSpaceOnUse" x1="385.58" x2="395.511" xlink:href="#lg5" y1="265.379" y2="291.299"/><linearGradient id="SVGID_100_" gradientUnits="userSpaceOnUse" x1="338.086" x2="380.237" xlink:href="#lg5" y1="271.829" y2="308.892"/><linearGradient id="SVGID_101_" gradientUnits="userSpaceOnUse" x1="341.051" x2="369.263" xlink:href="#lg6" y1="262.625" y2="256.888"/><linearGradient id="SVGID_102_" gradientUnits="userSpaceOnUse" x1="297.949" x2="322.657" xlink:href="#lg5" y1="286.297" y2="324.814"/><linearGradient id="SVGID_103_" gradientUnits="userSpaceOnUse" x1="302.6" x2="321.714" xlink:href="#lg6" y1="288.156" y2="284.27"/><linearGradient id="SVGID_104_" gradientUnits="userSpaceOnUse" x1="374.175" x2="389.632" xlink:href="#lg5" y1="265.393" y2="322.465"/><linearGradient id="SVGID_105_" gradientUnits="userSpaceOnUse" x1="379.757" x2="401.527" xlink:href="#lg6" y1="289.903" y2="285.477"/><linearGradient id="SVGID_106_" gradientUnits="userSpaceOnUse" x1="345.355" x2="374.263" xlink:href="#lg5" y1="275.681" y2="331.72"/><linearGradient id="SVGID_107_" gradientUnits="userSpaceOnUse" x1="292.625" x2="319.11" xlink:href="#lg5" y1="304.304" y2="360.504"/><linearGradient id="SVGID_108_" gradientUnits="userSpaceOnUse" x1="307.917" x2="337.765" xlink:href="#lg5" y1="292.666" y2="356"/><linearGradient id="SVGID_109_" gradientUnits="userSpaceOnUse" x1="315.091" x2="297.845" xlink:href="#lg6" y1="315.7" y2="304.805"/><linearGradient id="SVGID_110_" gradientUnits="userSpaceOnUse" x1="302.81" x2="307.255" xlink:href="#lg10" y1="304.977" y2="312.556"/><linearGradient id="SVGID_111_" gradientTransform="matrix(1 .008 -.008 1 -226.886 -577.806)" gradientUnits="userSpaceOnUse" x1="538.869" x2="539.742" xlink:href="#lg8" y1="872.986" y2="874.359"/><linearGradient id="SVGID_112_" gradientUnits="userSpaceOnUse" x1="304.217" x2="304.217" xlink:href="#lg11" y1="302.441" y2="304.186"/><linearGradient id="SVGID_113_" gradientUnits="userSpaceOnUse" x1="333.735" x2="316.489" xlink:href="#lg6" y1="290.997" y2="280.101"/><linearGradient id="SVGID_114_" gradientUnits="userSpaceOnUse" x1="321.454" x2="325.9" xlink:href="#lg10" y1="280.273" y2="287.852"/><linearGradient id="SVGID_115_" gradientTransform="matrix(1 .008 -.008 1 -226.886 -577.806)" gradientUnits="userSpaceOnUse" x1="557.308" x2="558.18" xlink:href="#lg8" y1="848.129" y2="849.502"/><linearGradient id="SVGID_116_" gradientUnits="userSpaceOnUse" x1="322.861" x2="322.861" xlink:href="#lg11" y1="277.738" y2="279.482"/><linearGradient id="SVGID_117_" gradientUnits="userSpaceOnUse" x1="360.77" x2="343.524" xlink:href="#lg6" y1="277.013" y2="266.118"/><linearGradient id="SVGID_118_" gradientUnits="userSpaceOnUse" x1="348.488" x2="352.934" xlink:href="#lg10" y1="266.289" y2="273.869"/><linearGradient id="SVGID_119_" gradientTransform="matrix(1 .008 -.008 1 -226.886 -577.806)" gradientUnits="userSpaceOnUse" x1="584.224" x2="585.096" xlink:href="#lg8" y1="833.922" y2="835.296"/><linearGradient id="SVGID_120_" gradientUnits="userSpaceOnUse" x1="349.896" x2="349.896" xlink:href="#lg11" y1="263.754" y2="265.498"/><linearGradient id="SVGID_121_" gradientUnits="userSpaceOnUse" x1="350.982" x2="333.735" xlink:href="#lg6" y1="312.904" y2="302.008"/><linearGradient id="SVGID_122_" gradientUnits="userSpaceOnUse" x1="338.7" x2="343.146" xlink:href="#lg10" y1="302.18" y2="309.76"/><linearGradient id="SVGID_123_" gradientTransform="matrix(1 .008 -.008 1 -226.886 -577.806)" gradientUnits="userSpaceOnUse" x1="574.734" x2="575.607" xlink:href="#lg8" y1="869.891" y2="871.265"/><linearGradient id="SVGID_124_" gradientUnits="userSpaceOnUse" x1="340.107" x2="340.107" xlink:href="#lg11" y1="299.645" y2="301.389"/><linearGradient id="SVGID_125_" gradientUnits="userSpaceOnUse" x1="375.919" x2="358.672" xlink:href="#lg6" y1="299.153" y2="288.258"/><linearGradient id="SVGID_126_" gradientUnits="userSpaceOnUse" x1="363.637" x2="368.083" xlink:href="#lg10" y1="288.43" y2="296.009"/><linearGradient id="SVGID_127_" gradientTransform="matrix(1 .008 -.008 1 -226.886 -577.806)" gradientUnits="userSpaceOnUse" x1="599.555" x2="600.428" xlink:href="#lg8" y1="855.935" y2="857.309"/><linearGradient id="SVGID_128_" gradientUnits="userSpaceOnUse" x1="365.044" x2="365.044" xlink:href="#lg11" y1="285.895" y2="287.639"/><linearGradient id="SVGID_129_" gradientUnits="userSpaceOnUse" x1="399.69" x2="382.444" xlink:href="#lg6" y1="289.598" y2="278.703"/><linearGradient id="SVGID_130_" gradientUnits="userSpaceOnUse" x1="387.409" x2="391.854" xlink:href="#lg10" y1="278.874" y2="286.454"/><linearGradient id="SVGID_131_" gradientTransform="matrix(1 .008 -.008 1 -226.886 -577.806)" gradientUnits="userSpaceOnUse" x1="623.246" x2="624.119" xlink:href="#lg8" y1="846.183" y2="847.557"/><linearGradient id="SVGID_132_" gradientUnits="userSpaceOnUse" x1="388.816" x2="388.816" xlink:href="#lg11" y1="276.339" y2="278.084"/><linearGradient id="SVGID_133_" gradientUnits="userSpaceOnUse" x1="390.834" x2="373.588" xlink:href="#lg6" y1="321.993" y2="311.098"/><linearGradient id="SVGID_134_" gradientUnits="userSpaceOnUse" x1="378.553" x2="382.998" xlink:href="#lg10" y1="311.269" y2="318.849"/><linearGradient id="SVGID_135_" gradientTransform="matrix(1 .008 -.008 1 -226.886 -577.806)" gradientUnits="userSpaceOnUse" x1="614.66" x2="615.532" xlink:href="#lg8" y1="878.649" y2="880.023"/><linearGradient id="SVGID_136_" gradientUnits="userSpaceOnUse" x1="379.96" x2="379.96" xlink:href="#lg11" y1="308.734" y2="310.478"/><linearGradient id="SVGID_137_" gradientUnits="userSpaceOnUse" x1="382.94" x2="406.193" xlink:href="#lg4" y1="314.834" y2="338.087"/><linearGradient id="SVGID_138_" gradientUnits="userSpaceOnUse" x1="423.61" x2="446.863" xlink:href="#lg4" y1="314.834" y2="338.087"/><linearGradient id="SVGID_139_" gradientUnits="userSpaceOnUse" x1="446.936" x2="470.189" xlink:href="#lg4" y1="310.016" y2="333.269"/><linearGradient id="SVGID_140_" gradientUnits="userSpaceOnUse" x1="465.939" x2="489.192" xlink:href="#lg4" y1="300.286" y2="323.539"/><linearGradient id="SVGID_141_" gradientUnits="userSpaceOnUse" x1="359.034" x2="377.912" xlink:href="#lg4" y1="312.412" y2="331.29"/><linearGradient id="SVGID_142_" gradientUnits="userSpaceOnUse" x1="393.173" x2="463.942" xlink:href="#lg8" y1="355.139" y2="377.868"/><linearGradient id="SVGID_143_" gradientUnits="userSpaceOnUse" x1="434.043" x2="391.168" xlink:href="#lg9" y1="364.221" y2="352.082"/><linearGradient id="SVGID_144_" gradientUnits="userSpaceOnUse" x1="439.521" x2="422.106" xlink:href="#lg9" y1="336.034" y2="288.848"/><linearGradient id="SVGID_145_" gradientUnits="userSpaceOnUse" x1="442.502" x2="424.939" xlink:href="#lg8" y1="346.788" y2="346.788"/><linearGradient id="SVGID_146_" gradientUnits="userSpaceOnUse" x1="424.422" x2="396.17" xlink:href="#lg8" y1="385.007" y2="385.007"/><linearGradient id="SVGID_147_" gradientUnits="userSpaceOnUse" x1="429.419" x2="402.041" xlink:href="#lg9" y1="406.983" y2="377.797"/><linearGradient id="SVGID_148_" gradientUnits="userSpaceOnUse" x1="469.215" x2="482.593" xlink:href="#lg5" y1="238.575" y2="273.489"/><linearGradient id="SVGID_149_" gradientUnits="userSpaceOnUse" x1="405.243" x2="462.018" xlink:href="#lg5" y1="247.263" y2="297.186"/><linearGradient id="SVGID_150_" gradientUnits="userSpaceOnUse" x1="409.236" x2="447.237" xlink:href="#lg6" y1="234.865" y2="227.137"/><linearGradient id="SVGID_151_" gradientUnits="userSpaceOnUse" x1="351.178" x2="384.46" xlink:href="#lg5" y1="266.751" y2="318.632"/><linearGradient id="SVGID_152_" gradientUnits="userSpaceOnUse" x1="357.444" x2="383.189" xlink:href="#lg6" y1="269.255" y2="264.02"/><linearGradient id="SVGID_153_" gradientUnits="userSpaceOnUse" x1="453.853" x2="474.673" xlink:href="#lg5" y1="238.593" y2="315.468"/><linearGradient id="SVGID_154_" gradientUnits="userSpaceOnUse" x1="461.372" x2="490.696" xlink:href="#lg6" y1="271.608" y2="265.646"/><linearGradient id="SVGID_155_" gradientUnits="userSpaceOnUse" x1="415.034" x2="453.972" xlink:href="#lg5" y1="252.452" y2="327.935"/><linearGradient id="SVGID_156_" gradientUnits="userSpaceOnUse" x1="344.007" x2="379.682" xlink:href="#lg5" y1="291.006" y2="366.707"/><linearGradient id="SVGID_157_" gradientUnits="userSpaceOnUse" x1="364.606" x2="404.809" xlink:href="#lg5" y1="275.329" y2="360.639"/><linearGradient id="SVGID_158_" gradientUnits="userSpaceOnUse" x1="374.268" x2="351.038" xlink:href="#lg6" y1="306.357" y2="291.681"/><linearGradient id="SVGID_159_" gradientUnits="userSpaceOnUse" x1="357.725" x2="363.714" xlink:href="#lg10" y1="291.912" y2="302.121"/><linearGradient id="SVGID_160_" gradientTransform="matrix(1 .008 -.008 1 -226.886 -577.806)" gradientUnits="userSpaceOnUse" x1="594.327" x2="595.502" xlink:href="#lg8" y1="857.614" y2="859.464"/><linearGradient id="SVGID_161_" gradientUnits="userSpaceOnUse" x1="359.621" x2="359.621" xlink:href="#lg11" y1="288.497" y2="290.847"/><linearGradient id="SVGID_162_" gradientUnits="userSpaceOnUse" x1="399.382" x2="376.152" xlink:href="#lg6" y1="273.081" y2="258.405"/><linearGradient id="SVGID_163_" gradientUnits="userSpaceOnUse" x1="382.839" x2="388.827" xlink:href="#lg10" y1="258.636" y2="268.846"/><linearGradient id="SVGID_164_" gradientTransform="matrix(1 .008 -.008 1 -226.886 -577.806)" gradientUnits="userSpaceOnUse" x1="619.162" x2="620.338" xlink:href="#lg8" y1="824.132" y2="825.982"/><linearGradient id="SVGID_165_" gradientUnits="userSpaceOnUse" x1="384.735" x2="384.735" xlink:href="#lg11" y1="255.222" y2="257.571"/><linearGradient id="SVGID_166_" gradientUnits="userSpaceOnUse" x1="435.797" x2="412.567" xlink:href="#lg6" y1="254.246" y2="239.57"/><linearGradient id="SVGID_167_" gradientUnits="userSpaceOnUse" x1="419.254" x2="425.242" xlink:href="#lg10" y1="239.801" y2="250.011"/><linearGradient id="SVGID_168_" gradientTransform="matrix(1 .008 -.008 1 -226.886 -577.806)" gradientUnits="userSpaceOnUse" x1="655.419" x2="656.594" xlink:href="#lg8" y1="804.996" y2="806.846"/><linearGradient id="SVGID_169_" gradientUnits="userSpaceOnUse" x1="421.149" x2="421.149" xlink:href="#lg11" y1="236.386" y2="238.736"/><linearGradient id="SVGID_170_" gradientUnits="userSpaceOnUse" x1="422.612" x2="399.382" xlink:href="#lg6" y1="302.59" y2="287.914"/><linearGradient id="SVGID_171_" gradientUnits="userSpaceOnUse" x1="406.069" x2="412.058" xlink:href="#lg10" y1="288.145" y2="298.354"/><linearGradient id="SVGID_172_" gradientTransform="matrix(1 .008 -.008 1 -226.886 -577.806)" gradientUnits="userSpaceOnUse" x1="642.636" x2="643.811" xlink:href="#lg8" y1="853.445" y2="855.296"/><linearGradient id="SVGID_173_" gradientUnits="userSpaceOnUse" x1="407.965" x2="407.965" xlink:href="#lg11" y1="284.73" y2="287.08"/><linearGradient id="SVGID_174_" gradientUnits="userSpaceOnUse" x1="456.202" x2="432.972" xlink:href="#lg6" y1="284.068" y2="269.392"/><linearGradient id="SVGID_175_" gradientUnits="userSpaceOnUse" x1="439.659" x2="445.647" xlink:href="#lg10" y1="269.623" y2="279.833"/><linearGradient id="SVGID_176_" gradientTransform="matrix(1 .008 -.008 1 -226.886 -577.806)" gradientUnits="userSpaceOnUse" x1="676.07" x2="677.245" xlink:href="#lg8" y1="834.647" y2="836.497"/><linearGradient id="SVGID_177_" gradientUnits="userSpaceOnUse" x1="441.554" x2="441.554" xlink:href="#lg11" y1="266.209" y2="268.558"/><linearGradient id="SVGID_178_" gradientUnits="userSpaceOnUse" x1="488.222" x2="464.992" xlink:href="#lg6" y1="271.197" y2="256.522"/><linearGradient id="SVGID_179_" gradientUnits="userSpaceOnUse" x1="471.679" x2="477.667" xlink:href="#lg10" y1="256.753" y2="266.962"/><linearGradient id="SVGID_180_" gradientTransform="matrix(1 .008 -.008 1 -226.886 -577.806)" gradientUnits="userSpaceOnUse" x1="707.98" x2="709.156" xlink:href="#lg8" y1="821.511" y2="823.361"/><linearGradient id="SVGID_181_" gradientUnits="userSpaceOnUse" x1="473.574" x2="473.574" xlink:href="#lg11" y1="253.338" y2="255.687"/><linearGradient id="SVGID_182_" gradientUnits="userSpaceOnUse" x1="476.293" x2="453.063" xlink:href="#lg6" y1="314.833" y2="300.157"/><linearGradient id="SVGID_183_" gradientUnits="userSpaceOnUse" x1="459.75" x2="465.738" xlink:href="#lg10" y1="300.388" y2="310.597"/><linearGradient id="SVGID_184_" gradientTransform="matrix(1 .008 -.008 1 -226.886 -577.806)" gradientUnits="userSpaceOnUse" x1="696.414" x2="697.589" xlink:href="#lg8" y1="865.242" y2="867.092"/><linearGradient id="SVGID_185_" gradientUnits="userSpaceOnUse" x1="461.645" x2="461.645" xlink:href="#lg11" y1="296.973" y2="299.322"/><linearGradient id="SVGID_186_" gradientUnits="userSpaceOnUse" x1="436.876" x2="466.563" xlink:href="#lg5" y1="404.273" y2="433.959"/><linearGradient id="SVGID_187_" gradientUnits="userSpaceOnUse" x1="446.62" x2="470.642" xlink:href="#lg6" y1="408.495" y2="404.104"/><linearGradient id="SVGID_188_" gradientUnits="userSpaceOnUse" x1="452.196" x2="452.196" xlink:href="#lg6" y1="426.542" y2="435.396"/><linearGradient id="SVGID_189_" gradientUnits="userSpaceOnUse" x1="374.53" x2="398.259" xlink:href="#lg5" y1="400.201" y2="423.93"/><linearGradient id="SVGID_190_" gradientUnits="userSpaceOnUse" x1="382.319" x2="401.52" xlink:href="#lg6" y1="403.576" y2="400.066"/><linearGradient id="SVGID_191_" gradientUnits="userSpaceOnUse" x1="386.776" x2="386.776" xlink:href="#lg6" y1="418.001" y2="425.079"/><linearGradient id="SVGID_192_" gradientUnits="userSpaceOnUse" x1="301.933" x2="322.24" xlink:href="#lg5" y1="379.883" y2="400.19"/><linearGradient id="SVGID_193_" gradientUnits="userSpaceOnUse" x1="308.598" x2="325.03" xlink:href="#lg6" y1="382.771" y2="379.768"/><linearGradient id="SVGID_194_" gradientUnits="userSpaceOnUse" x1="312.412" x2="312.412" xlink:href="#lg6" y1="395.116" y2="401.173"/><g><path d="m485.638 510h-461.276c-13.455 0-24.362-10.907-24.362-24.362v-461.276c0-13.455 10.907-24.362 24.362-24.362h461.275c13.456 0 24.363 10.907 24.363 24.362v461.275c0 13.456-10.907 24.363-24.362 24.363z" fill="url(#SVGID_1_)"/><path d="m178 31.333h-13.361c-.176-9.876-8.264-17.796-18.166-17.725l-35.599.253c-9.395.067-17.056 7.303-17.846 16.48l-6.893.049c-14.325.102-25.855 11.797-25.753 26.123l-11.444.082c-14.325.102-25.855 11.798-25.753 26.123s11.798 25.855 26.123 25.753l51.161-.365c14.325-.102 25.855-11.797 25.753-26.123l11.445-.082c10.701-.076 19.841-6.624 23.739-15.903h16.594c9.573 0 17.333-7.76 17.333-17.333 0-9.571-7.76-17.332-17.333-17.332z" fill="url(#SVGID_2_)"/><path d="m510 338.382-13.24-15.007c-15.248-17.282-33.894-17.217-49.111.171l-54.149 61.874h116.5z" fill="url(#SVGID_3_)"/><g><path d="m351.207 89.312h-11.749c0-14.706-11.922-26.627-26.627-26.627h-52.52c-14.706 0-26.627 11.922-26.627 26.627s11.922 26.627 26.627 26.627h11.748c0 14.706 11.922 26.627 26.627 26.627h52.52c14.706 0 26.627-11.922 26.627-26.627.002-14.705-11.92-26.627-26.626-26.627z" fill="url(#SVGID_4_)"/></g><circle cx="420.218" cy="102.152" fill="url(#SVGID_5_)" r="66.943"/><path d="m151.6 266.398h7.964c0-9.968 8.081-18.049 18.049-18.049h35.6c9.968 0 18.049 8.081 18.049 18.049s-8.081 18.049-18.049 18.049h-7.963c0 9.968-8.081 18.049-18.049 18.049h-35.6c-9.968 0-18.049-8.081-18.049-18.049-.001-9.968 8.08-18.049 18.048-18.049z" fill="url(#SVGID_6_)"/><path d="m510 485.638v-100.218h-480v106.58c0 9.941 8.059 18 18 18h437.638c13.455 0 24.362-10.907 24.362-24.362z" fill="url(#SVGID_7_)"/><g><path d="m2.5 385.42 101.729-88.916c28.589-24.988 63.619-25.082 92.265-.246l102.84 89.162z" fill="url(#SVGID_8_)"/><g><path d="m346.953 306.082h-31.783c-10.05 0-19.689-5.129-26.796-14.258-14.799-19.011-38.793-19.011-53.591 0l-72.858 93.597h262.484l-50.66-65.08c-7.106-9.13-16.745-14.259-26.796-14.259z" fill="url(#SVGID_9_)"/></g><g><path d="m345.173 336.768h-26.496c-8.378 0-16.414-3.145-22.338-8.744-12.337-11.658-32.339-11.658-44.676 0l-60.738 57.396h218.818l-42.232-39.909c-5.925-5.598-13.96-8.743-22.338-8.743z" fill="url(#SVGID_10_)"/></g></g><path d="m282 385.42s88.761-53.617 228-32.791v32.791z" fill="url(#SVGID_11_)"/><path d="m306.248 385.42s-119.222-100.885-306.248-61.698v61.698z" fill="url(#SVGID_12_)"/><g><g><g><g><path d="m360.788 367.49c-2.117 0-4.155.338-6.064.961-2.042-6.661-8.24-11.505-15.571-11.505-8.993 0-16.284 7.29-16.284 16.284 0 1.299.153 2.563.441 3.774-7.675.541-13.733 6.938-13.733 14.75 0 8.167 6.621 14.788 14.788 14.788h36.422c10.784 0 19.526-8.742 19.526-19.526.001-10.784-8.741-19.526-19.525-19.526z" fill="url(#SVGID_13_)"/><path d="m341.261 387.017c0 .792.048 1.573.14 2.34-.734.104-1.485.156-2.248.156-8.993 0-16.283-7.291-16.283-16.284 0-8.992 7.289-16.283 16.283-16.283 7.33 0 13.53 4.844 15.571 11.506-7.815 2.548-13.463 9.897-13.463 18.565z" fill="url(#SVGID_14_)"/><path d="m309.691 393.595c.906 7.299 7.13 12.947 14.674 12.947h36.422c8.475 0 15.689-5.4 18.389-12.947z" fill="url(#SVGID_15_)"/></g></g></g><g><g><g><path d="m458.272 363.087c-2.356 0-4.623.376-6.747 1.07-2.272-7.413-9.169-12.803-17.326-12.803-10.007 0-18.12 8.112-18.12 18.12 0 1.446.17 2.852.49 4.2-8.54.602-15.282 7.72-15.282 16.413 0 9.088 7.367 16.456 16.455 16.456h40.529c12 0 21.728-9.728 21.728-21.728.001-12-9.727-21.728-21.727-21.728z" fill="url(#SVGID_16_)"/><path d="m436.544 384.815c0 .881.053 1.75.155 2.604-.817.115-1.653.174-2.501.174-10.007 0-18.118-8.113-18.118-18.12 0-10.005 8.111-18.118 18.118-18.118 8.157 0 15.056 5.39 17.327 12.803-8.697 2.835-14.981 11.012-14.981 20.657z" fill="url(#SVGID_17_)"/><path d="m401.415 392.135c1.008 8.121 7.934 14.407 16.329 14.407h40.529c9.431 0 17.457-6.009 20.462-14.407z" fill="url(#SVGID_18_)"/></g></g></g><g><g><g><path d="m403.827 377.439c-1.578 0-3.096.252-4.519.716-1.522-4.964-6.141-8.574-11.604-8.574-6.702 0-12.135 5.433-12.135 12.135 0 .968.114 1.91.328 2.813-5.72.403-10.235 5.17-10.235 10.992 0 6.087 4.934 11.021 11.021 11.021h27.143c8.037 0 14.552-6.515 14.552-14.552 0-8.036-6.515-14.551-14.551-14.551z" fill="url(#SVGID_19_)"/><path d="m389.275 391.991c0 .59.035 1.172.104 1.744-.547.077-1.107.116-1.675.116-6.702 0-12.134-5.433-12.134-12.136 0-6.701 5.432-12.134 12.134-12.134 5.463 0 10.083 3.61 11.604 8.575-5.825 1.899-10.033 7.376-10.033 13.835z" fill="url(#SVGID_20_)"/><path d="m365.748 396.893c.675 5.439 5.314 9.649 10.936 9.649h27.143c6.316 0 11.692-4.025 13.704-9.649z" fill="url(#SVGID_21_)"/></g></g></g></g><path d="m175.188 385.42c161.511 0 278.927 83.629 325.281 119.541 5.794-4.454 9.532-11.45 9.532-19.323v-100.218z" fill="url(#SVGID_22_)"/><g><g><g><path d="m109.631 357.253c-2.664 0-5.229.426-7.631 1.21-2.57-8.384-10.371-14.48-19.596-14.48-11.318 0-20.494 9.175-20.494 20.493 0 1.635.193 3.226.555 4.75-9.659.681-17.284 8.731-17.284 18.564 0 10.279 8.333 18.611 18.611 18.611h54.88c13.572 0 15.533-11.002 15.533-24.574s-11.002-24.574-24.574-24.574z" fill="url(#SVGID_23_)"/><path d="m85.056 381.828c0 .997.06 1.979.176 2.945-.924.13-1.869.196-2.829.196-11.318 0-20.492-9.176-20.492-20.494 0-11.316 9.174-20.492 20.492-20.492 9.225 0 17.028 6.097 19.597 14.48-9.836 3.208-16.944 12.456-16.944 23.365z" fill="url(#SVGID_24_)"/></g></g></g><g><g><circle cx="110.573" cy="279.432" fill="url(#SVGID_25_)" r="30.267"/><circle cx="175.351" cy="279.432" fill="url(#SVGID_26_)" r="30.267"/><circle cx="212.503" cy="271.758" fill="url(#SVGID_27_)" r="30.267"/><circle cx="242.77" cy="256.261" fill="url(#SVGID_28_)" r="30.267"/><circle cx="68.68" cy="271.758" fill="url(#SVGID_29_)" r="24.572"/></g><g><path d="m216.921 410.583c-21.886-5.783-36.911-69.953-36.911-92.59v-14.083c0-6.009 2.387-11.771 6.636-16.02l24.916-24.916-9.9-9.9-21.652 21.652v-38.673h-52.84v53.986l-36.965-36.965-9.9 9.9 40.229 40.229c4.249 4.249 6.636 10.011 6.636 16.02 0 21.623-13.743 85.051-34.291 91.784-2.735.896-4.333 2.033-4.333 3.473v3.963c0 6.155 3.29 11.398 7.79 12.458 17.463 4.114 37.704 6.468 59.287 6.468 21.584 0 41.824-2.354 59.287-6.468 4.499-1.06 7.79-6.303 7.79-12.458v-3.963c-.001-1.678-2.171-2.943-5.779-3.897z" fill="url(#SVGID_30_)"/><path d="m216.921 410.583c-21.886-5.783-36.911-69.953-36.911-92.59v-14.083c0-6.008 2.387-11.771 6.635-16.02l24.916-24.916-9.9-9.9-21.652 21.652v-38.673h-38.457v76.512c0 7.033 2.486 13.84 7.018 19.218 4.532 5.378 7.018 12.185 7.018 19.218v86.368c21.596.002 41.848-2.352 59.321-6.468 4.499-1.06 7.79-6.303 7.79-12.458v-3.963c0-1.678-2.17-2.943-5.778-3.897z" fill="url(#SVGID_31_)"/><path d="m180.01 274.727v-38.673h-52.84v26.952l52.839 52.839v-11.935c0-6.009 2.387-11.771 6.636-16.02l24.916-24.916-9.9-9.9z" fill="url(#SVGID_32_)"/><path d="m175.327 335.343c-1.478-15.427-2.162-33.585-.828-47.636.512-5.394-4.412-9.702-9.693-8.491-3.795.869-6.407 4.354-6.163 8.239.849 13.565 3.53 32.805 6.294 49.252.5 2.976 3.401 4.912 6.342 4.238 2.564-.587 4.299-2.982 4.048-5.602z" fill="url(#SVGID_33_)"/><path d="m132.734 344.667c-2.005 15.368-5.394 33.219-9.832 46.618-1.704 5.144 2.133 10.442 7.552 10.442 3.893 0 7.217-2.813 7.848-6.655 2.202-13.412 3.885-32.765 4.865-49.413.177-3.012-2.218-5.548-5.235-5.548-2.632-.001-4.857 1.946-5.198 4.556z" fill="url(#SVGID_34_)"/><path d="m216.921 410.583c-11.226-2.966-20.645-21.293-27.158-41.497-1.327-4.117-5.135-6.924-9.46-6.924-8.45 0-15.301 6.85-15.301 15.301v6.519c0 5.483-4.445 9.928-9.928 9.928-5.084 0-9.353 3.845-9.871 8.902-1.828 17.841-8.912 28.374-13.638 33.557 7.771.654 15.815.999 24.058.999 21.584 0 41.824-2.354 59.287-6.468 4.499-1.06 7.79-6.303 7.79-12.458v-3.963c-.001-1.677-2.171-2.942-5.779-3.896z" fill="url(#SVGID_35_)"/><circle cx="239.99" cy="169.748" fill="url(#SVGID_36_)" r="35.597"/><g><g><g><path d="m184.596 117.87c-5.199 0-10.202.831-14.89 2.361-5.014-16.358-20.235-28.253-38.236-28.253-22.084 0-39.987 17.903-39.987 39.987 0 3.191.376 6.294 1.082 9.269-18.847 1.329-33.724 17.037-33.724 36.222 0 20.056 16.259 36.315 36.315 36.315h109.142c26.482 0 28.249-21.468 28.249-47.95-.001-26.483-21.469-47.951-47.951-47.951z" fill="url(#SVGID_37_)"/><path d="m136.646 165.822c0 1.945.117 3.862.343 5.746-1.804.254-3.648.383-5.52.383-22.084 0-39.985-17.904-39.985-39.988 0-22.08 17.9-39.984 39.985-39.984 18.001 0 33.226 11.896 38.237 28.254-19.192 6.258-33.06 24.303-33.06 45.589z" fill="url(#SVGID_38_)"/></g></g></g><g><g><g><path d="m85.197 177.131c-3.522 0-6.912.563-10.088 1.599-3.397-11.082-13.709-19.141-25.904-19.141-14.962 0-27.091 12.129-27.091 27.09 0 2.162.255 4.264.733 6.279-12.768.901-22.847 11.543-22.847 24.54 0 13.588 11.015 24.602 24.602 24.602h72.546c17.941 0 20.533-14.544 20.533-32.485s-14.543-32.484-32.484-32.484z" fill="url(#SVGID_39_)"/><path d="m52.711 209.617c0 1.318.079 2.616.232 3.893-1.222.172-2.471.26-3.74.26-14.962 0-27.089-12.13-27.089-27.091 0-14.959 12.127-27.089 27.089-27.089 12.195 0 22.51 8.059 25.905 19.142-13.001 4.239-22.397 16.464-22.397 30.885z" fill="url(#SVGID_40_)"/></g></g></g><g><g><g><path d="m255.666 179.57c-4.011 0-7.872.641-11.49 1.821-3.869-12.623-15.615-21.802-29.505-21.802-17.041 0-30.856 13.815-30.856 30.856 0 2.462.29 4.857.835 7.152-14.543 1.025-26.023 13.147-26.023 27.951 0 15.476 12.546 28.022 28.022 28.022h69.017c20.435 0 37.001-16.566 37.001-37s-16.566-37-37.001-37z" fill="url(#SVGID_41_)"/><path d="m218.665 216.572c0 1.501.09 2.98.265 4.434-1.392.196-2.815.296-4.26.296-17.042 0-30.854-13.816-30.854-30.857 0-17.038 13.813-30.854 30.854-30.854 13.89 0 25.639 9.179 29.506 21.802-14.809 4.829-25.511 18.754-25.511 35.179z" fill="url(#SVGID_42_)"/></g></g></g><path d="m222.699 214.442c-.052 0-.104 0-.156.001-7.535.05-14.238-4.86-16.195-12.137-6.293-23.395-28.075-40.443-53.674-39.471-27.688 1.051-50.249 23.613-51.301 51.301-1.157 30.452 23.187 55.503 53.382 55.503 11.717 0 22.546-3.782 31.352-10.179 3.714 17.875 20.193 31.072 39.476 29.626 18.334-1.376 33.134-16.273 34.399-34.616 1.508-21.842-15.764-40.028-37.283-40.028z" fill="url(#SVGID_43_)"/><circle cx="38.131" cy="242.1" fill="url(#SVGID_44_)" r="25.635"/><circle cx="85.05" cy="247.073" fill="url(#SVGID_45_)" r="42.12"/></g></g><path d="m30 381.603h-30v104.035c0 13.455 10.907 24.362 24.362 24.362h331.012c-17.196-29.497-92.234-128.397-325.374-128.397z" fill="url(#SVGID_46_)"/><path d="m0 389.166v96.471c0 13.456 10.907 24.363 24.362 24.363h272.304c-20.2-33.354-138.603-117.073-296.666-120.834z" fill="url(#SVGID_47_)"/><path d="m103.75 385.217v19.492l104.847 105.291h146.777c-15.235-26.133-75.875-106.735-251.624-124.783z" fill="url(#SVGID_48_)"/><path d="m396.032 68.851h-33.178c-9.29 0-16.821-7.531-16.821-16.821 0-9.29 7.531-16.821 16.821-16.821h33.178c9.29 0 16.821 7.531 16.821 16.821 0 9.29-7.531 16.821-16.821 16.821z" fill="url(#SVGID_49_)"/><g><path d="m82.505 236.155c-.005-.005-.009-.01-.014-.016.196-.021.392-.048.594-.046.55.005.999-.437 1.004-.987.003-.4-.234-.742-.573-.903l-23.202-23.203c-.161-.328-.488-.561-.878-.564-3.499-.029-6.427 2.496-7.03 5.828-.821-.05-1.62-.142-2.359-.313-.054-.012-.107-.022-.161-.033-.001.001-.002.002-.003.003-3.862-.812-7.826 1.127-9.519 4.706-.883 1.866-1.377 4.125-1.377 6.802 0 5.475 2.067 10.362 5.301 13.567l23.667 23.667c1.963 1.945 4.612 2.588 7.015 1.621.627-.252 1.314-.391 2.034-.391s1.408.139 2.034.391c2.403.967 5.052.324 7.015-1.621 3.235-3.205 5.302-8.092 5.302-13.567 0-2.591-.463-4.791-1.294-6.622-.484-1.066-1.168-1.989-1.987-2.749z" fill="url(#SVGID_50_)"/><g><path d="m66.206 220.619c-1.69-3.725-5.783-5.774-9.769-4.855-1.017.235-2.127.363-3.288.363-1.162 0-2.273-.129-3.291-.364-3.913-.903-7.966 1.046-9.683 4.676-.883 1.866-1.377 4.125-1.377 6.801 0 5.475 2.067 10.362 5.301 13.567 1.963 1.945 4.612 2.588 7.015 1.621.627-.252 1.314-.391 2.034-.391.721 0 1.408.139 2.034.391 2.403.967 5.052.324 7.015-1.621 3.235-3.205 5.301-8.092 5.301-13.567.002-2.591-.461-4.79-1.292-6.621z" fill="url(#SVGID_51_)"/><path d="m53.085 218.284c-.55-.005-.992-.454-.987-1.004.033-3.91 3.24-7.065 7.15-7.032.55.005.992.454.987 1.004s-.454.992-1.004.987c-2.812-.023-5.119 2.245-5.143 5.058-.004.549-.454.991-1.003.987z" fill="url(#SVGID_52_)"/><path d="m53.149 216.127c-1.162 0-2.273-.129-3.291-.364-.054-.012-.107-.022-.161-.033-.412.336-.653.735-.653 1.165 0 1.19 1.838 2.154 4.104 2.154 2.267 0 4.104-.964 4.104-2.154 0-.429-.24-.829-.652-1.165-.055.011-.109.021-.164.034-1.015.234-2.125.363-3.287.363z" fill="url(#SVGID_53_)"/></g></g><g><path d="m122.505 183.155c-.005-.005-.009-.01-.014-.016.196-.021.392-.048.594-.046.55.005.999-.437 1.004-.987.003-.4-.234-.742-.573-.903l-23.202-23.203c-.161-.328-.488-.561-.878-.564-3.499-.029-6.427 2.496-7.03 5.828-.821-.05-1.62-.142-2.359-.313-.054-.012-.107-.022-.161-.033-.001.001-.002.002-.003.003-3.862-.812-7.826 1.127-9.519 4.706-.883 1.866-1.377 4.125-1.377 6.802 0 5.475 2.067 10.362 5.301 13.567l23.667 23.667c1.963 1.945 4.612 2.588 7.015 1.621.627-.252 1.314-.391 2.034-.391s1.408.139 2.034.391c2.403.967 5.052.324 7.015-1.621 3.235-3.205 5.302-8.092 5.302-13.567 0-2.591-.463-4.791-1.294-6.622-.484-1.066-1.168-1.989-1.987-2.749z" fill="url(#SVGID_54_)"/><g><path d="m106.206 167.619c-1.69-3.725-5.783-5.774-9.769-4.855-1.017.235-2.127.363-3.288.363-1.162 0-2.273-.129-3.291-.364-3.913-.903-7.966 1.046-9.683 4.676-.883 1.866-1.377 4.125-1.377 6.801 0 5.475 2.067 10.362 5.301 13.567 1.963 1.945 4.612 2.588 7.015 1.621.627-.252 1.314-.391 2.034-.391s1.408.139 2.034.391c2.403.967 5.052.324 7.015-1.621 3.235-3.205 5.301-8.092 5.301-13.567.002-2.591-.461-4.79-1.292-6.621z" fill="url(#SVGID_55_)"/><path d="m93.085 165.284c-.55-.005-.992-.454-.987-1.004.033-3.91 3.24-7.065 7.15-7.032.55.005.992.454.987 1.004s-.454.992-1.004.987c-2.812-.023-5.119 2.245-5.143 5.058-.004.549-.454.991-1.003.987z" fill="url(#SVGID_56_)"/><path d="m93.149 163.127c-1.162 0-2.273-.129-3.291-.364-.054-.012-.107-.022-.161-.033-.412.336-.653.735-.653 1.165 0 1.19 1.838 2.154 4.104 2.154 2.267 0 4.104-.964 4.104-2.154 0-.429-.24-.829-.652-1.165-.055.011-.109.021-.164.034-1.015.234-2.125.363-3.287.363z" fill="url(#SVGID_57_)"/></g></g><g><path d="m180.505 153.155c-.005-.005-.009-.01-.014-.016.196-.021.392-.048.594-.046.55.005.999-.437 1.004-.987.003-.4-.234-.742-.573-.903l-23.202-23.203c-.161-.328-.488-.561-.878-.564-3.499-.029-6.427 2.496-7.03 5.828-.821-.05-1.62-.142-2.359-.313-.054-.012-.107-.022-.161-.033-.001.001-.002.002-.003.003-3.862-.812-7.826 1.127-9.519 4.706-.883 1.866-1.377 4.125-1.377 6.802 0 5.475 2.067 10.362 5.301 13.567l23.667 23.667c1.963 1.945 4.612 2.588 7.015 1.621.627-.252 1.314-.391 2.034-.391s1.408.139 2.034.391c2.403.967 5.052.324 7.015-1.621 3.235-3.205 5.302-8.092 5.302-13.567 0-2.591-.463-4.791-1.294-6.622-.484-1.066-1.168-1.989-1.987-2.749z" fill="url(#SVGID_58_)"/><g><path d="m164.206 137.619c-1.69-3.725-5.783-5.774-9.769-4.855-1.017.235-2.127.363-3.288.363-1.162 0-2.273-.129-3.291-.364-3.913-.903-7.966 1.046-9.683 4.676-.883 1.866-1.377 4.125-1.377 6.801 0 5.475 2.067 10.362 5.301 13.567 1.963 1.945 4.612 2.588 7.015 1.621.627-.252 1.314-.391 2.034-.391s1.408.139 2.034.391c2.403.967 5.052.324 7.015-1.621 3.235-3.205 5.301-8.092 5.301-13.567.002-2.591-.461-4.79-1.292-6.621z" fill="url(#SVGID_59_)"/><path d="m151.085 135.284c-.55-.005-.992-.454-.987-1.004.033-3.91 3.24-7.065 7.15-7.032.55.005.992.454.987 1.004s-.454.992-1.004.987c-2.812-.023-5.119 2.245-5.143 5.058-.004.549-.454.991-1.003.987z" fill="url(#SVGID_60_)"/><path d="m151.149 133.127c-1.162 0-2.273-.129-3.291-.364-.054-.012-.107-.022-.161-.033-.412.336-.653.735-.653 1.165 0 1.19 1.838 2.154 4.104 2.154 2.267 0 4.104-.964 4.104-2.154 0-.429-.24-.829-.652-1.165-.055.011-.109.021-.163.034-1.016.234-2.126.363-3.288.363z" fill="url(#SVGID_61_)"/></g></g><g><path d="m159.505 230.155c-.005-.005-.009-.01-.014-.016.196-.021.392-.048.594-.046.55.005.999-.437 1.004-.987.003-.4-.234-.742-.573-.903l-23.202-23.203c-.161-.328-.488-.561-.878-.564-3.499-.029-6.427 2.496-7.03 5.828-.821-.05-1.62-.142-2.359-.313-.054-.012-.107-.022-.161-.033-.001.001-.002.002-.003.003-3.862-.812-7.826 1.127-9.519 4.706-.883 1.866-1.377 4.125-1.377 6.802 0 5.475 2.067 10.362 5.301 13.567l23.667 23.667c1.963 1.945 4.612 2.588 7.015 1.621.627-.252 1.314-.391 2.034-.391s1.408.139 2.034.391c2.403.967 5.052.324 7.015-1.621 3.235-3.205 5.302-8.092 5.302-13.567 0-2.591-.463-4.791-1.294-6.622-.484-1.066-1.168-1.989-1.987-2.749z" fill="url(#SVGID_62_)"/><g><path d="m143.206 214.619c-1.69-3.725-5.783-5.774-9.769-4.855-1.017.235-2.127.363-3.288.363-1.162 0-2.273-.129-3.291-.364-3.913-.903-7.966 1.046-9.683 4.676-.883 1.866-1.377 4.125-1.377 6.801 0 5.475 2.067 10.362 5.301 13.567 1.963 1.945 4.612 2.588 7.015 1.621.627-.252 1.314-.391 2.034-.391s1.408.139 2.034.391c2.403.967 5.052.324 7.015-1.621 3.235-3.205 5.301-8.092 5.301-13.567.002-2.591-.461-4.79-1.292-6.621z" fill="url(#SVGID_63_)"/><path d="m130.085 212.284c-.55-.005-.992-.454-.987-1.004.033-3.91 3.24-7.065 7.15-7.032.55.005.992.454.987 1.004s-.454.992-1.004.987c-2.812-.023-5.119 2.245-5.143 5.058-.004.549-.454.991-1.003.987z" fill="url(#SVGID_64_)"/><path d="m130.149 210.127c-1.162 0-2.273-.129-3.291-.364-.054-.012-.107-.022-.161-.033-.412.336-.653.735-.653 1.165 0 1.19 1.838 2.154 4.104 2.154 2.267 0 4.104-.964 4.104-2.154 0-.429-.24-.829-.652-1.165-.055.011-.109.021-.163.034-1.016.234-2.126.363-3.288.363z" fill="url(#SVGID_65_)"/></g></g><g><path d="m213.005 200.655c-.005-.005-.009-.01-.014-.016.196-.021.392-.048.594-.046.55.005.999-.437 1.004-.987.003-.4-.234-.742-.573-.903l-23.202-23.203c-.161-.328-.488-.561-.878-.564-3.499-.029-6.427 2.496-7.03 5.828-.821-.05-1.62-.142-2.359-.313-.054-.012-.107-.022-.161-.033-.001.001-.002.002-.003.003-3.862-.812-7.826 1.127-9.519 4.706-.883 1.866-1.377 4.125-1.377 6.802 0 5.475 2.067 10.362 5.301 13.567l23.667 23.667c1.963 1.945 4.612 2.588 7.015 1.621.627-.252 1.314-.391 2.034-.391s1.408.139 2.034.391c2.403.967 5.052.324 7.015-1.621 3.235-3.205 5.302-8.092 5.302-13.567 0-2.591-.463-4.791-1.294-6.622-.484-1.066-1.168-1.989-1.987-2.749z" fill="url(#SVGID_66_)"/><g><path d="m196.706 185.119c-1.69-3.725-5.783-5.774-9.769-4.855-1.017.235-2.127.363-3.288.363-1.162 0-2.273-.129-3.291-.364-3.913-.903-7.966 1.046-9.683 4.676-.883 1.866-1.377 4.125-1.377 6.801 0 5.475 2.067 10.362 5.301 13.567 1.963 1.945 4.612 2.588 7.015 1.621.627-.252 1.314-.391 2.034-.391s1.408.139 2.034.391c2.403.967 5.052.324 7.015-1.621 3.235-3.205 5.301-8.092 5.301-13.567.002-2.591-.461-4.79-1.292-6.621z" fill="url(#SVGID_67_)"/><path d="m183.585 182.784c-.55-.005-.992-.454-.987-1.004.033-3.91 3.24-7.065 7.15-7.032.55.005.992.454.987 1.004s-.454.992-1.004.987c-2.812-.023-5.119 2.245-5.143 5.058-.004.549-.454.991-1.003.987z" fill="url(#SVGID_68_)"/><path d="m183.649 180.627c-1.162 0-2.273-.129-3.291-.364-.054-.012-.107-.022-.161-.033-.412.336-.653.735-.653 1.165 0 1.19 1.838 2.154 4.104 2.154 2.267 0 4.104-.964 4.104-2.154 0-.429-.24-.829-.652-1.165-.055.011-.109.021-.163.034-1.016.234-2.126.363-3.288.363z" fill="url(#SVGID_69_)"/></g></g><g><path d="m264.005 180.155c-.005-.005-.009-.01-.014-.016.196-.021.392-.048.594-.046.55.005.999-.437 1.004-.987.003-.4-.234-.742-.573-.903l-23.202-23.203c-.161-.328-.488-.561-.878-.564-3.499-.029-6.427 2.496-7.03 5.828-.821-.05-1.62-.142-2.359-.313-.054-.012-.107-.022-.161-.033-.001.001-.002.002-.003.003-3.862-.812-7.826 1.127-9.519 4.706-.883 1.866-1.377 4.125-1.377 6.802 0 5.475 2.067 10.362 5.301 13.567l23.667 23.667c1.963 1.945 4.612 2.588 7.015 1.621.627-.252 1.314-.391 2.034-.391s1.408.139 2.034.391c2.403.967 5.052.324 7.015-1.621 3.235-3.205 5.302-8.092 5.302-13.567 0-2.591-.463-4.791-1.294-6.622-.484-1.066-1.168-1.989-1.987-2.749z" fill="url(#SVGID_70_)"/><g><path d="m247.706 164.619c-1.69-3.725-5.783-5.774-9.769-4.855-1.017.235-2.127.363-3.288.363-1.162 0-2.273-.129-3.291-.364-3.913-.903-7.966 1.046-9.683 4.676-.883 1.866-1.377 4.125-1.377 6.801 0 5.475 2.067 10.362 5.301 13.567 1.963 1.945 4.612 2.588 7.015 1.621.627-.252 1.314-.391 2.034-.391s1.408.139 2.034.391c2.403.967 5.052.324 7.015-1.621 3.235-3.205 5.301-8.092 5.301-13.567.002-2.591-.461-4.79-1.292-6.621z" fill="url(#SVGID_71_)"/><path d="m234.585 162.284c-.55-.005-.992-.454-.987-1.004.033-3.91 3.24-7.065 7.15-7.032.55.005.992.454.987 1.004s-.454.992-1.004.987c-2.812-.023-5.119 2.245-5.143 5.058-.004.549-.454.991-1.003.987z" fill="url(#SVGID_72_)"/><path d="m234.649 160.127c-1.162 0-2.273-.129-3.291-.364-.054-.012-.107-.022-.161-.033-.412.336-.653.735-.653 1.165 0 1.19 1.838 2.154 4.104 2.154 2.267 0 4.104-.964 4.104-2.154 0-.429-.24-.829-.652-1.165-.055.011-.109.021-.163.034-1.016.234-2.126.363-3.288.363z" fill="url(#SVGID_73_)"/></g></g><g><path d="m245.005 249.655c-.005-.005-.009-.01-.014-.016.196-.021.392-.048.594-.046.55.005.999-.437 1.004-.987.003-.4-.234-.742-.573-.903l-23.202-23.203c-.161-.328-.488-.561-.878-.564-3.499-.029-6.427 2.496-7.03 5.828-.821-.05-1.62-.142-2.359-.313-.054-.012-.107-.022-.161-.033-.001.001-.002.002-.003.003-3.862-.812-7.826 1.127-9.519 4.706-.883 1.866-1.377 4.125-1.377 6.802 0 5.475 2.067 10.362 5.301 13.567l23.667 23.667c1.963 1.945 4.612 2.588 7.015 1.621.627-.252 1.314-.391 2.034-.391s1.408.139 2.034.391c2.403.967 5.052.324 7.015-1.621 3.235-3.205 5.302-8.092 5.302-13.567 0-2.591-.463-4.791-1.294-6.622-.484-1.066-1.168-1.989-1.987-2.749z" fill="url(#SVGID_74_)"/><g><path d="m228.706 234.119c-1.69-3.725-5.783-5.774-9.769-4.855-1.017.235-2.127.363-3.288.363-1.162 0-2.273-.129-3.291-.364-3.913-.903-7.966 1.046-9.683 4.676-.883 1.866-1.377 4.125-1.377 6.801 0 5.475 2.067 10.362 5.301 13.567 1.963 1.945 4.612 2.588 7.015 1.621.627-.252 1.314-.391 2.034-.391s1.408.139 2.034.391c2.403.967 5.052.324 7.015-1.621 3.235-3.205 5.301-8.092 5.301-13.567.002-2.591-.461-4.79-1.292-6.621z" fill="url(#SVGID_75_)"/><path d="m215.585 231.784c-.55-.005-.992-.454-.987-1.004.033-3.91 3.24-7.065 7.15-7.032.55.005.992.454.987 1.004s-.454.992-1.004.987c-2.812-.023-5.119 2.245-5.143 5.058-.004.549-.454.991-1.003.987z" fill="url(#SVGID_76_)"/><path d="m215.649 229.627c-1.162 0-2.273-.129-3.291-.364-.054-.012-.107-.022-.161-.033-.412.336-.653.735-.653 1.165 0 1.19 1.838 2.154 4.104 2.154 2.267 0 4.104-.964 4.104-2.154 0-.429-.24-.829-.652-1.165-.055.011-.109.021-.163.034-1.016.234-2.126.363-3.288.363z" fill="url(#SVGID_77_)"/></g></g><g><path d="m119.804 380.153c-3.385-2.296-7.946-1.908-10.867.955-.745.731-1.625 1.42-2.616 2.026-.992.607-2.006 1.076-2.997 1.406-3.809 1.271-6.25 5.048-5.821 9.041.221 2.053.977 4.237 2.374 6.521 2.857 4.671 7.169 7.762 11.601 8.809 2.69.635 5.285-.198 6.83-2.277.403-.542.916-1.019 1.531-1.395s1.274-.616 1.94-.728c2.554-.429 4.479-2.359 5.139-5.043 1.087-4.422.301-9.669-2.556-14.34-1.351-2.211-2.894-3.846-4.558-4.975z" fill="url(#SVGID_78_)"/><path d="m107.392 385.008c-.471.283-1.083.13-1.366-.341-2.012-3.353-.922-7.718 2.431-9.73.471-.283 1.083-.13 1.366.341s.13 1.083-.341 1.366c-2.411 1.447-3.196 4.586-1.748 6.998.282.471.129 1.083-.342 1.366z" fill="url(#SVGID_79_)"/><path d="m106.322 383.134c-.992.607-2.006 1.076-2.997 1.406-.052.017-.103.037-.155.056-.177.502-.173.968.051 1.334.621 1.015 2.691.879 4.625-.304s2.998-2.964 2.378-3.979c-.224-.366-.637-.582-1.164-.653-.041.038-.082.075-.122.114-.746.731-1.625 1.42-2.616 2.026z" fill="url(#SVGID_80_)"/></g><g><path d="m149.764 395.799c.005-4.09-2.872-7.651-6.88-8.465-1.023-.208-2.086-.55-3.144-1.031-1.058-.482-2.015-1.059-2.844-1.694-3.188-2.443-7.684-2.348-10.75.245-1.577 1.333-2.962 3.184-4.07 5.62-2.268 4.984-2.411 10.288-.794 14.545.981 2.584 3.126 4.266 5.713 4.381.675.03 1.358.188 2.014.486.656.299 1.224.71 1.689 1.199 1.787 1.875 4.464 2.387 7.056 1.43 4.272-1.577 8.177-5.169 10.445-10.153 1.073-2.359 1.563-4.552 1.565-6.563z" fill="url(#SVGID_81_)"/><path d="m138.788 388.239c-.499-.232-.715-.824-.483-1.323 1.649-3.546 5.876-5.088 9.421-3.439.499.232.715.824.483 1.323s-.824.715-1.323.483c-2.55-1.186-5.589-.077-6.776 2.473-.231.499-.823.715-1.322.483z" fill="url(#SVGID_82_)"/><path d="m139.74 386.303c-1.058-.482-2.015-1.059-2.844-1.694-.044-.034-.089-.065-.133-.097-.514.135-.899.399-1.076.79-.493 1.083.78 2.722 2.844 3.66s4.135.822 4.628-.26c.178-.391.125-.854-.111-1.33-.054-.012-.108-.026-.163-.037-1.024-.209-2.087-.551-3.145-1.032z" fill="url(#SVGID_83_)"/></g><path d="m301.066 510c-36.919-36.981-101.031-101.174-101.386-101.339-3.172-1.476-6.884-.391-8.813 2.393-.726-.386-1.416-.8-2.018-1.262-.044-.033-.089-.064-.133-.097-.001 0-.003.001-.004.001-3.178-2.338-7.59-2.216-10.613.341-1.577 1.333-2.962 3.184-4.07 5.62-2.268 4.984-2.411 10.288-.794 14.545.624 1.643 1.721 2.916 3.101 3.659l76.138 76.139z" fill="url(#SVGID_84_)"/><g><path d="m201.281 420.296c.005-4.09-2.872-7.651-6.88-8.465-1.023-.208-2.086-.55-3.144-1.031-1.058-.482-2.015-1.059-2.844-1.694-3.188-2.443-7.684-2.348-10.75.245-1.577 1.333-2.962 3.184-4.07 5.62-2.268 4.984-2.411 10.288-.794 14.545.981 2.584 3.126 4.266 5.713 4.381.675.03 1.358.188 2.014.486.656.299 1.224.71 1.689 1.199 1.787 1.875 4.464 2.387 7.056 1.43 4.272-1.577 8.177-5.169 10.445-10.153 1.073-2.359 1.563-4.553 1.565-6.563z" fill="url(#SVGID_85_)"/><path d="m190.305 412.736c-.499-.232-.715-.824-.483-1.323 1.649-3.546 5.876-5.088 9.421-3.439.499.232.715.824.483 1.323s-.824.715-1.323.483c-2.55-1.186-5.589-.077-6.776 2.473-.231.498-.824.714-1.322.483z" fill="url(#SVGID_86_)"/><path d="m191.257 410.799c-1.058-.482-2.015-1.059-2.844-1.694-.044-.034-.089-.065-.133-.097-.514.135-.899.399-1.076.79-.493 1.083.78 2.722 2.844 3.66 2.063.939 4.135.822 4.628-.26.178-.391.125-.854-.111-1.33-.054-.012-.108-.026-.163-.037-1.024-.208-2.088-.55-3.145-1.032z" fill="url(#SVGID_87_)"/></g><g><g><g><circle cx="330.982" cy="331.448" fill="url(#SVGID_88_)" r="14.108"/><circle cx="361.176" cy="331.448" fill="url(#SVGID_89_)" r="14.108"/><circle cx="378.493" cy="327.871" fill="url(#SVGID_90_)" r="14.108"/><circle cx="392.601" cy="320.647" fill="url(#SVGID_91_)" r="14.108"/><circle cx="311.456" cy="327.871" fill="url(#SVGID_92_)" r="11.453"/></g><g><path d="m380.552 392.579c-10.201-2.696-17.205-32.606-17.205-43.157v-6.564c0-2.801 1.113-5.487 3.093-7.467l11.614-11.614-4.614-4.614-10.092 10.092v-18.026h-24.629v25.164l-17.23-17.23-4.614 4.614 18.751 18.751c1.98 1.98 3.093 4.666 3.093 7.467 0 10.079-6.406 39.643-15.984 42.782-1.275.418-2.02.947-2.02 1.619v1.847c0 2.869 1.534 5.313 3.631 5.807 8.14 1.918 17.574 3.015 27.634 3.015s19.495-1.097 27.634-3.015c2.097-.494 3.631-2.938 3.631-5.807v-1.847c.001-.783-1.011-1.373-2.693-1.817z" fill="url(#SVGID_93_)"/><path d="m380.552 392.579c-10.201-2.696-17.205-32.606-17.205-43.157v-6.564c0-2.801 1.113-5.487 3.093-7.467l11.614-11.614-4.614-4.614-10.092 10.092v-18.026h-17.925v35.663c0 3.278 1.159 6.451 3.271 8.958 2.113 2.507 3.271 5.679 3.271 8.958v40.257c10.066.001 19.506-1.096 27.65-3.015 2.097-.494 3.631-2.938 3.631-5.807v-1.847c0-.783-1.012-1.373-2.694-1.817z" fill="url(#SVGID_94_)"/><path d="m363.348 329.254v-18.026h-24.629v12.563l24.629 24.629v-5.563c0-2.801 1.113-5.487 3.093-7.467l11.614-11.614-4.614-4.614z" fill="url(#SVGID_95_)"/><path d="m361.165 357.508c-.689-7.191-1.008-15.654-.386-22.204.239-2.514-2.056-4.522-4.518-3.958-1.769.405-2.986 2.029-2.873 3.841.396 6.323 1.646 15.291 2.934 22.957.233 1.387 1.585 2.29 2.956 1.976 1.196-.274 2.004-1.391 1.887-2.612z" fill="url(#SVGID_96_)"/><path d="m341.312 361.854c-.934 7.163-2.514 15.484-4.583 21.729-.794 2.398.994 4.867 3.52 4.867 1.815 0 3.364-1.311 3.658-3.102 1.026-6.252 1.811-15.272 2.268-23.032.083-1.404-1.034-2.586-2.44-2.586-1.227 0-2.264.908-2.423 2.124z" fill="url(#SVGID_97_)"/><path d="m380.552 392.579c-5.232-1.383-9.623-9.925-12.659-19.342-.619-1.919-2.393-3.227-4.409-3.227-3.939 0-7.132 3.193-7.132 7.132v3.039c0 2.556-2.072 4.627-4.627 4.627-2.37 0-4.359 1.792-4.601 4.149-.852 8.316-4.154 13.225-6.357 15.641 3.622.305 7.372.466 11.214.466 10.06 0 19.495-1.097 27.634-3.015 2.097-.494 3.631-2.938 3.631-5.807v-1.847c0-.782-1.012-1.372-2.694-1.816z" fill="url(#SVGID_98_)"/><circle cx="391.305" cy="280.323" fill="url(#SVGID_99_)" r="16.592"/><g><g><g><path d="m365.486 256.142c-2.423 0-4.755.387-6.94 1.1-2.337-7.625-9.432-13.169-17.822-13.169-10.294 0-18.638 8.345-18.638 18.638 0 1.487.175 2.934.504 4.32-8.785.619-15.719 7.941-15.719 16.883 0 9.348 7.578 16.927 16.927 16.927h50.872c12.344 0 13.167-10.006 13.167-22.35-.001-12.343-10.008-22.349-22.351-22.349z" fill="url(#SVGID_100_)"/><path d="m343.135 278.492c0 .907.055 1.8.16 2.678-.841.118-1.7.179-2.573.179-10.294 0-18.637-8.345-18.637-18.639 0-10.292 8.343-18.637 18.637-18.637 8.39 0 15.487 5.545 17.823 13.17-8.945 2.917-15.41 11.328-15.41 21.249z" fill="url(#SVGID_101_)"/></g></g></g><g><g><g><path d="m319.154 283.764c-1.642 0-3.222.262-4.702.745-1.583-5.166-6.39-8.922-12.074-8.922-6.974 0-12.627 5.653-12.627 12.627 0 1.008.119 1.987.342 2.927-5.951.42-10.649 5.38-10.649 11.438 0 6.333 5.134 11.467 11.467 11.467h33.814c8.362 0 9.571-6.779 9.571-15.142s-6.779-15.14-15.142-15.14z" fill="url(#SVGID_102_)"/><path d="m304.012 298.906c0 .614.037 1.219.108 1.814-.57.08-1.152.121-1.743.121-6.974 0-12.626-5.654-12.626-12.628 0-6.973 5.652-12.626 12.626-12.626 5.684 0 10.492 3.756 12.075 8.922-6.06 1.977-10.44 7.675-10.44 14.397z" fill="url(#SVGID_103_)"/></g></g></g><g><g><g><path d="m398.612 284.901c-1.87 0-3.669.299-5.355.849-1.803-5.884-7.278-10.162-13.753-10.162-7.943 0-14.382 6.439-14.382 14.382 0 1.148.135 2.264.389 3.334-6.779.478-12.13 6.128-12.13 13.028 0 7.214 5.848 13.062 13.062 13.062h32.17c9.525 0 17.246-7.721 17.246-17.246s-7.722-17.247-17.247-17.247z" fill="url(#SVGID_104_)"/><path d="m381.365 302.148c0 .7.042 1.389.123 2.067-.649.091-1.312.138-1.985.138-7.943 0-14.381-6.44-14.381-14.383 0-7.942 6.438-14.381 14.381-14.381 6.474 0 11.95 4.279 13.753 10.162-6.902 2.25-11.891 8.741-11.891 16.397z" fill="url(#SVGID_105_)"/></g></g></g><path d="m383.246 301.155c-.024 0-.048 0-.073 0-3.512.024-6.636-2.265-7.549-5.657-2.933-10.905-13.086-18.851-25.018-18.398-12.906.49-23.422 11.006-23.912 23.912-.539 14.194 10.808 25.871 24.882 25.871 5.461 0 10.509-1.763 14.614-4.744 1.731 8.332 9.412 14.483 18.4 13.809 8.546-.641 15.444-7.585 16.034-16.135.703-10.181-7.348-18.658-17.378-18.658z" fill="url(#SVGID_106_)"/><circle cx="297.217" cy="314.047" fill="url(#SVGID_107_)" r="11.949"/><circle cx="319.086" cy="316.365" fill="url(#SVGID_108_)" r="19.633"/></g></g><g><path d="m317.9 311.276c-.002-.002-.004-.005-.007-.007.092-.01.183-.022.277-.022.256.002.466-.204.468-.46.001-.187-.109-.346-.267-.421l-10.815-10.815c-.075-.153-.228-.262-.409-.263-1.631-.014-2.996 1.163-3.277 2.716-.383-.023-.755-.066-1.1-.146-.025-.006-.05-.01-.075-.016l-.001.001c-1.8-.378-3.648.525-4.437 2.194-.412.87-.642 1.923-.642 3.17 0 2.552.963 4.83 2.471 6.324l11.031 11.031c.915.907 2.15 1.206 3.27.756.292-.117.612-.182.948-.182s.656.065.948.182c1.12.451 2.355.151 3.27-.756 1.508-1.494 2.471-3.772 2.471-6.324 0-1.208-.216-2.233-.603-3.087-.225-.497-.545-.927-.926-1.281z" fill="url(#SVGID_109_)"/><g><path d="m310.303 304.034c-.788-1.736-2.696-2.691-4.553-2.263-.474.109-.991.169-1.533.169s-1.059-.06-1.534-.17c-1.824-.421-3.713.487-4.513 2.18-.411.87-.642 1.923-.642 3.17 0 2.552.963 4.83 2.471 6.324.915.907 2.15 1.206 3.27.756.292-.117.612-.182.948-.182s.656.065.948.182c1.12.451 2.355.151 3.27-.756 1.508-1.494 2.471-3.772 2.471-6.324 0-1.207-.216-2.233-.603-3.086z" fill="url(#SVGID_110_)"/><path d="m304.187 302.946c-.256-.002-.462-.212-.46-.468.015-1.823 1.51-3.293 3.333-3.278.256.002.462.212.46.468s-.212.462-.468.46c-1.311-.011-2.386 1.047-2.397 2.357-.003.257-.212.463-.468.461z" fill="url(#SVGID_111_)"/><path d="m304.217 301.94c-.542 0-1.059-.06-1.534-.17-.025-.006-.05-.01-.075-.016-.192.157-.304.343-.304.543 0 .554.857 1.004 1.913 1.004s1.913-.449 1.913-1.004c0-.2-.112-.386-.304-.543-.025.005-.051.01-.076.016-.475.11-.992.17-1.533.17z" fill="url(#SVGID_112_)"/></g></g><g><path d="m336.544 286.572c-.002-.002-.004-.005-.006-.007.092-.01.183-.022.277-.022.256.002.466-.204.468-.46.001-.187-.109-.346-.267-.421l-10.815-10.815c-.075-.153-.228-.262-.409-.263-1.631-.014-2.996 1.163-3.277 2.716-.383-.023-.755-.066-1.1-.146-.025-.006-.05-.01-.075-.016-.001 0-.001.001-.001.001-1.8-.378-3.648.525-4.437 2.194-.412.87-.642 1.923-.642 3.17 0 2.552.963 4.83 2.471 6.324l11.031 11.031c.915.907 2.15 1.206 3.27.756.292-.117.612-.182.948-.182s.656.065.948.182c1.12.451 2.355.151 3.27-.756 1.508-1.494 2.471-3.772 2.471-6.324 0-1.208-.216-2.233-.603-3.087-.225-.497-.545-.927-.926-1.281z" fill="url(#SVGID_113_)"/><g><path d="m328.947 279.33c-.788-1.736-2.696-2.691-4.553-2.263-.474.109-.991.169-1.533.169s-1.059-.06-1.534-.17c-1.824-.421-3.713.487-4.513 2.18-.411.87-.642 1.923-.642 3.17 0 2.552.963 4.83 2.471 6.324.915.907 2.15 1.206 3.27.756.292-.117.612-.182.948-.182s.656.065.948.182c1.12.451 2.355.151 3.27-.756 1.508-1.494 2.471-3.772 2.471-6.324 0-1.207-.216-2.232-.603-3.086z" fill="url(#SVGID_114_)"/><path d="m322.831 278.242c-.256-.002-.462-.212-.46-.468.015-1.823 1.51-3.293 3.333-3.278.256.002.462.212.46.468s-.212.462-.468.46c-1.311-.011-2.386 1.047-2.397 2.357-.002.257-.212.463-.468.461z" fill="url(#SVGID_115_)"/><path d="m322.861 277.237c-.542 0-1.059-.06-1.534-.17-.025-.006-.05-.01-.075-.016-.192.157-.304.343-.304.543 0 .554.857 1.004 1.913 1.004s1.913-.449 1.913-1.004c0-.2-.112-.386-.304-.543-.025.005-.051.01-.076.016-.474.109-.991.17-1.533.17z" fill="url(#SVGID_116_)"/></g></g><g><path d="m363.579 272.588c-.002-.002-.004-.005-.007-.007.092-.01.183-.022.277-.022.256.002.466-.204.468-.46.001-.187-.109-.346-.267-.421l-10.815-10.815c-.075-.153-.228-.262-.409-.263-1.631-.014-2.996 1.163-3.277 2.716-.383-.023-.755-.066-1.1-.146-.025-.006-.05-.01-.075-.016-.001 0-.001.001-.001.001-1.801-.378-3.648.526-4.437 2.194-.412.87-.642 1.923-.642 3.17 0 2.552.963 4.83 2.471 6.324l11.031 11.031c.915.907 2.15 1.206 3.27.756.292-.117.612-.182.948-.182s.656.065.948.182c1.12.451 2.355.151 3.27-.756 1.508-1.494 2.471-3.772 2.471-6.324 0-1.208-.216-2.233-.603-3.087-.225-.497-.545-.927-.926-1.281z" fill="url(#SVGID_117_)"/><g><path d="m355.982 265.347c-.788-1.736-2.696-2.691-4.553-2.263-.474.109-.991.169-1.533.169s-1.059-.06-1.534-.17c-1.824-.421-3.713.487-4.513 2.18-.412.87-.642 1.923-.642 3.17 0 2.552.963 4.83 2.471 6.324.915.907 2.15 1.206 3.27.756.292-.118.612-.182.948-.182s.656.065.948.182c1.12.451 2.355.151 3.27-.756 1.508-1.494 2.471-3.772 2.471-6.324 0-1.208-.216-2.233-.603-3.086z" fill="url(#SVGID_118_)"/><path d="m349.865 264.258c-.256-.002-.462-.212-.46-.468.015-1.823 1.51-3.293 3.333-3.278.256.002.462.212.46.468s-.212.462-.468.46c-1.311-.011-2.386 1.047-2.397 2.357-.002.258-.211.464-.468.461z" fill="url(#SVGID_119_)"/><path d="m349.896 263.253c-.542 0-1.059-.06-1.534-.17-.025-.006-.05-.01-.075-.016-.192.157-.304.343-.304.543 0 .554.857 1.004 1.913 1.004 1.057 0 1.913-.449 1.913-1.004 0-.2-.112-.386-.304-.543-.025.005-.051.01-.076.016-.475.11-.992.17-1.533.17z" fill="url(#SVGID_120_)"/></g></g><g><path d="m353.79 308.479c-.002-.002-.004-.005-.007-.007.092-.01.183-.022.277-.022.256.002.466-.204.468-.46.001-.187-.109-.346-.267-.421l-10.815-10.815c-.075-.153-.228-.262-.409-.263-1.631-.014-2.996 1.163-3.277 2.716-.383-.023-.755-.066-1.1-.146-.025-.006-.05-.01-.075-.016-.001 0-.001.001-.001.001-1.8-.378-3.648.525-4.437 2.194-.412.87-.642 1.923-.642 3.17 0 2.552.963 4.83 2.471 6.324l11.031 11.031c.915.907 2.15 1.206 3.27.756.292-.117.612-.182.948-.182s.656.065.948.182c1.12.451 2.355.151 3.27-.756 1.508-1.494 2.471-3.772 2.471-6.324 0-1.208-.216-2.233-.603-3.087-.225-.497-.545-.927-.926-1.281z" fill="url(#SVGID_121_)"/><g><path d="m346.193 301.237c-.788-1.736-2.696-2.691-4.553-2.263-.474.109-.991.169-1.533.169s-1.059-.06-1.534-.17c-1.824-.421-3.713.487-4.513 2.18-.411.87-.642 1.923-.642 3.17 0 2.552.963 4.83 2.471 6.324.915.907 2.15 1.206 3.27.756.292-.117.612-.182.948-.182s.656.065.948.182c1.12.451 2.355.151 3.27-.756 1.508-1.494 2.471-3.772 2.471-6.324 0-1.207-.216-2.232-.603-3.086z" fill="url(#SVGID_122_)"/><path d="m340.077 300.149c-.256-.002-.462-.212-.46-.468.015-1.823 1.51-3.293 3.333-3.278.256.002.462.212.46.468s-.212.462-.468.46c-1.311-.011-2.386 1.047-2.397 2.357-.002.257-.212.463-.468.461z" fill="url(#SVGID_123_)"/><path d="m340.107 299.144c-.542 0-1.059-.06-1.534-.17-.025-.006-.05-.01-.075-.016-.192.157-.304.343-.304.543 0 .554.857 1.004 1.913 1.004 1.057 0 1.913-.449 1.913-1.004 0-.2-.112-.386-.304-.543-.025.005-.051.01-.076.016-.474.11-.991.17-1.533.17z" fill="url(#SVGID_124_)"/></g></g><g><path d="m378.727 294.729c-.002-.002-.004-.005-.006-.007.092-.01.183-.022.277-.022.256.002.466-.204.468-.46.001-.187-.109-.346-.267-.421l-10.815-10.815c-.075-.153-.228-.262-.409-.263-1.631-.014-2.996 1.163-3.277 2.716-.383-.023-.755-.066-1.1-.146-.025-.006-.05-.01-.075-.016-.001 0-.001.001-.001.001-1.8-.379-3.648.525-4.437 2.194-.412.87-.642 1.923-.642 3.17 0 2.552.963 4.83 2.471 6.324l11.031 11.031c.915.907 2.15 1.206 3.27.756.292-.117.612-.182.948-.182s.656.065.948.182c1.12.451 2.355.151 3.27-.756 1.508-1.494 2.471-3.772 2.471-6.324 0-1.208-.216-2.233-.603-3.087-.225-.497-.545-.927-.926-1.281z" fill="url(#SVGID_125_)"/><g><path d="m371.13 287.487c-.788-1.736-2.696-2.691-4.553-2.263-.474.109-.991.169-1.533.169s-1.059-.06-1.534-.17c-1.824-.421-3.713.487-4.513 2.18-.411.87-.642 1.923-.642 3.17 0 2.552.963 4.83 2.471 6.324.915.907 2.15 1.206 3.27.756.292-.117.612-.182.948-.182s.656.065.948.182c1.12.451 2.355.151 3.27-.756 1.508-1.494 2.471-3.772 2.471-6.324 0-1.207-.216-2.233-.603-3.086z" fill="url(#SVGID_126_)"/><path d="m365.014 286.399c-.256-.002-.462-.212-.46-.468.015-1.823 1.51-3.293 3.333-3.278.256.002.462.212.46.468s-.212.462-.468.46c-1.311-.011-2.386 1.047-2.397 2.357-.002.257-.212.463-.468.461z" fill="url(#SVGID_127_)"/><path d="m365.044 285.394c-.542 0-1.059-.06-1.534-.17-.025-.006-.05-.01-.075-.016-.192.157-.304.343-.304.543 0 .554.857 1.004 1.913 1.004s1.913-.449 1.913-1.004c0-.2-.112-.386-.304-.543-.025.005-.051.01-.076.016-.474.109-.991.17-1.533.17z" fill="url(#SVGID_128_)"/></g></g><g><path d="m402.499 285.173c-.002-.002-.004-.005-.006-.007.092-.01.183-.022.277-.022.256.002.466-.204.468-.46.001-.187-.109-.346-.267-.421l-10.815-10.815c-.075-.153-.228-.262-.409-.263-1.631-.014-2.996 1.163-3.277 2.716-.383-.023-.755-.066-1.1-.146-.025-.006-.05-.01-.075-.016l-.001.001c-1.8-.378-3.648.525-4.437 2.194-.412.87-.642 1.923-.642 3.17 0 2.552.963 4.83 2.471 6.324l11.031 11.031c.915.907 2.15 1.206 3.27.756.292-.117.612-.182.948-.182s.656.065.948.182c1.12.451 2.355.151 3.27-.756 1.508-1.494 2.471-3.772 2.471-6.324 0-1.208-.216-2.233-.603-3.087-.225-.497-.545-.927-.926-1.281z" fill="url(#SVGID_129_)"/><g><path d="m394.902 277.932c-.788-1.736-2.696-2.691-4.553-2.263-.474.109-.991.169-1.533.169s-1.059-.06-1.534-.17c-1.824-.421-3.713.487-4.513 2.18-.411.87-.642 1.923-.642 3.17 0 2.552.963 4.83 2.471 6.324.915.907 2.15 1.206 3.27.756.292-.118.612-.182.948-.182s.656.065.948.182c1.12.451 2.355.151 3.27-.756 1.508-1.494 2.471-3.772 2.471-6.324 0-1.208-.216-2.233-.603-3.086z" fill="url(#SVGID_130_)"/><path d="m388.786 276.843c-.256-.002-.462-.212-.46-.468.015-1.823 1.51-3.293 3.333-3.278.256.002.462.212.46.468s-.212.462-.468.46c-1.311-.011-2.386 1.047-2.397 2.357-.002.258-.212.464-.468.461z" fill="url(#SVGID_131_)"/><path d="m388.816 275.838c-.542 0-1.059-.06-1.534-.17-.025-.006-.05-.01-.075-.016-.192.157-.304.343-.304.543 0 .554.857 1.004 1.913 1.004s1.913-.449 1.913-1.004c0-.2-.112-.386-.304-.543-.025.005-.051.01-.076.016-.474.11-.992.17-1.533.17z" fill="url(#SVGID_132_)"/></g></g><g><path d="m393.643 317.568c-.002-.002-.004-.005-.006-.007.092-.01.183-.022.277-.022.256.002.466-.204.468-.46.001-.187-.109-.346-.267-.421l-10.815-10.815c-.075-.153-.228-.262-.409-.263-1.631-.014-2.996 1.163-3.277 2.716-.383-.023-.755-.066-1.1-.146-.025-.006-.05-.01-.075-.016l-.001.001c-1.8-.379-3.648.525-4.437 2.194-.412.87-.642 1.923-.642 3.17 0 2.552.963 4.83 2.471 6.324l11.031 11.031c.915.907 2.15 1.206 3.27.756.292-.117.612-.182.948-.182s.656.065.948.182c1.12.451 2.355.151 3.27-.756 1.508-1.494 2.471-3.772 2.471-6.324 0-1.208-.216-2.233-.603-3.087-.225-.497-.545-.927-.926-1.281z" fill="url(#SVGID_133_)"/><g><path d="m386.046 310.326c-.788-1.736-2.696-2.691-4.553-2.263-.474.109-.991.169-1.533.169s-1.059-.06-1.534-.17c-1.824-.421-3.713.487-4.513 2.18-.411.87-.642 1.923-.642 3.17 0 2.552.963 4.83 2.471 6.324.915.907 2.15 1.206 3.27.756.292-.117.612-.182.948-.182s.656.065.948.182c1.12.451 2.355.151 3.27-.756 1.508-1.494 2.471-3.772 2.471-6.324 0-1.207-.216-2.232-.603-3.086z" fill="url(#SVGID_134_)"/><path d="m379.93 309.238c-.256-.002-.462-.212-.46-.468.015-1.823 1.51-3.293 3.333-3.278.256.002.462.212.46.468s-.212.462-.468.46c-1.311-.011-2.386 1.047-2.397 2.357-.003.257-.212.463-.468.461z" fill="url(#SVGID_135_)"/><path d="m379.96 308.233c-.542 0-1.059-.06-1.534-.17-.025-.006-.05-.01-.075-.016-.192.157-.304.343-.304.543 0 .554.857 1.004 1.913 1.004s1.913-.449 1.913-1.004c0-.2-.112-.386-.304-.543-.025.005-.051.01-.076.016-.475.11-.992.17-1.533.17z" fill="url(#SVGID_136_)"/></g></g></g><g><g><g><circle cx="395.674" cy="327.568" fill="url(#SVGID_137_)" r="19.003"/><circle cx="436.344" cy="327.568" fill="url(#SVGID_138_)" r="19.003"/><circle cx="459.67" cy="322.75" fill="url(#SVGID_139_)" r="19.003"/><circle cx="478.673" cy="313.02" fill="url(#SVGID_140_)" r="19.003"/><circle cx="369.372" cy="322.75" fill="url(#SVGID_141_)" r="15.427"/></g><g><path d="m462.444 409.91c-13.741-3.631-23.174-43.919-23.174-58.132v-8.842c0-3.772 1.499-7.39 4.166-10.058l15.643-15.643-6.215-6.215-13.594 13.594v-24.281h-33.175v33.895l-23.208-23.208-6.215 6.215 25.258 25.258c2.668 2.667 4.166 6.285 4.166 10.058 0 13.576-8.629 53.399-21.53 57.626-1.717.563-2.721 1.276-2.721 2.18v2.488c0 3.864 2.066 7.156 4.891 7.822 10.964 2.583 23.672 4.061 37.223 4.061s26.259-1.478 37.223-4.061c2.825-.666 4.891-3.957 4.891-7.822v-2.488c-.002-1.054-1.364-1.848-3.629-2.447z" fill="url(#SVGID_142_)"/><path d="m462.444 409.91c-13.741-3.631-23.174-43.919-23.174-58.132v-8.842c0-3.772 1.499-7.39 4.166-10.058l15.643-15.643-6.215-6.215-13.594 13.594v-24.281h-24.145v48.037c0 4.416 1.561 8.689 4.406 12.066 2.846 3.376 4.406 7.65 4.406 12.066v54.226c13.559.002 26.274-1.477 37.244-4.061 2.825-.666 4.891-3.957 4.891-7.822v-2.488c-.001-1.054-1.363-1.848-3.628-2.447z" fill="url(#SVGID_143_)"/><path d="m439.269 324.613v-24.281h-33.175v16.922l33.175 33.175v-7.493c0-3.772 1.499-7.39 4.166-10.058l15.643-15.643-6.215-6.215z" fill="url(#SVGID_144_)"/><path d="m436.329 362.671c-.928-9.686-1.357-21.086-.52-29.908.322-3.387-2.77-6.091-6.086-5.331-2.383.546-4.022 2.734-3.87 5.173.533 8.517 2.217 20.596 3.952 30.922.314 1.868 2.135 3.084 3.982 2.661 1.611-.369 2.699-1.872 2.542-3.517z" fill="url(#SVGID_145_)"/><path d="m409.588 368.525c-1.259 9.649-3.387 20.857-6.173 29.269-1.07 3.229 1.34 6.556 4.741 6.556 2.444 0 4.531-1.766 4.927-4.178 1.383-8.421 2.439-20.571 3.054-31.024.111-1.891-1.393-3.483-3.287-3.483-1.651-.001-3.049 1.222-3.262 2.86z" fill="url(#SVGID_146_)"/><path d="m462.444 409.91c-7.048-1.862-12.962-13.369-17.051-26.054-.833-2.585-3.224-4.347-5.94-4.347-5.306 0-9.607 4.301-9.607 9.607v4.093c0 3.442-2.791 6.233-6.233 6.233-3.192 0-5.872 2.414-6.197 5.589-1.148 11.201-5.595 17.814-8.563 21.069 4.879.41 9.93.627 15.105.627 13.551 0 26.259-1.478 37.223-4.061 2.825-.666 4.891-3.957 4.891-7.822v-2.488c-.001-1.053-1.363-1.847-3.628-2.446z" fill="url(#SVGID_147_)"/><circle cx="476.928" cy="258.704" fill="url(#SVGID_148_)" r="22.349"/><g><g><g><path d="m442.149 226.132c-3.264 0-6.405.522-9.348 1.482-3.148-10.27-12.705-17.739-24.006-17.739-13.865 0-25.106 11.24-25.106 25.106 0 2.003.236 3.951.679 5.819-11.833.834-21.173 10.697-21.173 22.742 0 12.592 10.208 22.8 22.8 22.8h68.524c16.627 0 17.736-13.478 17.736-30.105-.001-16.626-13.48-30.105-30.106-30.105z" fill="url(#SVGID_149_)"/><path d="m412.043 256.238c0 1.221.073 2.425.215 3.608-1.132.16-2.29.241-3.466.241-13.866 0-25.104-11.241-25.104-25.106 0-13.863 11.238-25.104 25.104-25.104 11.302 0 20.86 7.469 24.007 17.739-12.048 3.929-20.756 15.258-20.756 28.622z" fill="url(#SVGID_150_)"/></g></g></g><g><g><g><path d="m379.742 263.339c-2.211 0-4.34.353-6.333 1.004-2.133-6.958-8.607-12.017-16.264-12.017-9.394 0-17.009 7.615-17.009 17.009 0 1.357.16 2.677.46 3.942-8.016.565-14.345 7.247-14.345 15.407 0 8.531 6.916 15.446 15.446 15.446h45.547c11.264 0 12.892-9.131 12.892-20.395s-9.13-20.396-20.394-20.396z" fill="url(#SVGID_151_)"/><path d="m359.346 283.735c0 .827.05 1.643.146 2.444-.767.108-1.552.163-2.348.163-9.394 0-17.007-7.615-17.007-17.009 0-9.392 7.614-17.007 17.007-17.007 7.657 0 14.132 5.06 16.264 12.018-8.163 2.661-14.062 10.337-14.062 19.391z" fill="url(#SVGID_152_)"/></g></g></g><g><g><g><path d="m486.769 264.87c-2.518 0-4.943.402-7.214 1.144-2.429-7.925-9.804-13.688-18.524-13.688-10.699 0-19.373 8.674-19.373 19.373 0 1.546.182 3.049.524 4.49-9.131.644-16.339 8.254-16.339 17.549 0 9.717 7.877 17.594 17.594 17.594h43.332c12.83 0 23.231-10.401 23.231-23.23s-10.401-23.232-23.231-23.232z" fill="url(#SVGID_153_)"/><path d="m463.538 288.101c0 .942.057 1.871.166 2.784-.874.123-1.767.186-2.674.186-10.699 0-19.372-8.674-19.372-19.373 0-10.697 8.672-19.372 19.372-19.372 8.721 0 16.097 5.763 18.525 13.688-9.297 3.032-16.017 11.775-16.017 22.087z" fill="url(#SVGID_154_)"/></g></g></g><path d="m466.071 286.764c-.032 0-.065 0-.098 0-4.731.032-8.939-3.051-10.168-7.62-3.951-14.689-17.626-25.392-33.699-24.782-17.384.66-31.549 14.825-32.209 32.209-.726 19.119 14.558 34.847 33.516 34.847 7.357 0 14.155-2.375 19.684-6.391 2.332 11.223 12.678 19.509 24.785 18.6 11.511-.864 20.803-10.217 21.597-21.733.947-13.712-9.897-25.13-23.408-25.13z" fill="url(#SVGID_155_)"/><circle cx="350.192" cy="304.129" fill="url(#SVGID_156_)" r="16.095"/><circle cx="379.65" cy="307.252" fill="url(#SVGID_157_)" r="26.445"/></g></g><g><path d="m378.052 300.396c-.003-.003-.006-.007-.009-.01.123-.013.246-.03.373-.029.345.003.627-.274.63-.62.002-.251-.147-.466-.36-.567l-14.568-14.567c-.101-.206-.306-.352-.552-.354-2.197-.018-4.035 1.567-4.414 3.659-.515-.031-1.017-.089-1.481-.196-.034-.008-.067-.014-.101-.021 0 0-.001.001-.002.002-2.424-.51-4.913.708-5.976 2.955-.554 1.172-.864 2.59-.864 4.27 0 3.438 1.298 6.506 3.328 8.518l14.859 14.859c1.233 1.221 2.896 1.625 4.404 1.018.393-.158.825-.246 1.277-.246.453 0 .884.087 1.277.246 1.509.607 3.172.204 4.404-1.018 2.031-2.012 3.329-5.08 3.329-8.518 0-1.627-.291-3.008-.812-4.158-.304-.669-.734-1.249-1.247-1.726z" fill="url(#SVGID_158_)"/><g><path d="m367.819 290.642c-1.061-2.339-3.631-3.625-6.133-3.048-.639.147-1.335.228-2.065.228s-1.427-.081-2.066-.229c-2.457-.567-5.001.657-6.08 2.936-.554 1.172-.864 2.59-.864 4.27 0 3.438 1.298 6.506 3.328 8.518 1.233 1.221 2.896 1.625 4.404 1.018.393-.158.825-.246 1.277-.246s.884.087 1.277.246c1.509.607 3.172.203 4.404-1.018 2.031-2.012 3.328-5.08 3.328-8.518.002-1.626-.289-3.007-.81-4.157z" fill="url(#SVGID_159_)"/><path d="m359.58 289.176c-.345-.003-.623-.285-.62-.63.02-2.455 2.034-4.436 4.489-4.415.345.003.623.285.62.63s-.285.623-.63.62c-1.766-.015-3.214 1.41-3.229 3.175-.002.346-.285.623-.63.62z" fill="url(#SVGID_160_)"/><path d="m359.621 287.822c-.73 0-1.427-.081-2.066-.229-.034-.008-.067-.014-.101-.021-.259.211-.41.462-.41.731 0 .747 1.154 1.352 2.577 1.352s2.577-.605 2.577-1.352c0-.269-.151-.52-.41-.731-.034.007-.068.013-.103.021-.638.148-1.335.229-2.064.229z" fill="url(#SVGID_161_)"/></g></g><g><path d="m403.165 267.121c-.003-.003-.006-.007-.009-.01.123-.013.246-.03.373-.029.345.003.627-.274.63-.62.002-.251-.147-.466-.36-.567l-14.568-14.567c-.101-.206-.306-.352-.551-.354-2.197-.018-4.035 1.567-4.414 3.659-.516-.031-1.017-.089-1.481-.196-.034-.008-.067-.014-.101-.021-.001.001-.001.001-.002.002-2.424-.51-4.913.708-5.976 2.955-.554 1.172-.864 2.59-.864 4.27 0 3.438 1.298 6.506 3.328 8.518l14.859 14.859c1.233 1.221 2.896 1.625 4.404 1.018.393-.158.825-.246 1.277-.246s.884.087 1.277.246c1.509.607 3.172.204 4.404-1.018 2.031-2.012 3.328-5.08 3.328-8.518 0-1.627-.291-3.008-.812-4.158-.304-.669-.734-1.249-1.247-1.726z" fill="url(#SVGID_162_)"/><g><path d="m392.932 257.367c-1.061-2.339-3.631-3.625-6.133-3.048-.639.147-1.335.228-2.065.228s-1.427-.081-2.066-.229c-2.457-.567-5.001.657-6.08 2.936-.554 1.172-.864 2.59-.864 4.27 0 3.438 1.298 6.506 3.328 8.518 1.233 1.221 2.896 1.625 4.404 1.018.393-.158.825-.246 1.277-.246s.884.087 1.277.246c1.509.607 3.172.203 4.404-1.018 2.031-2.012 3.328-5.08 3.328-8.518.003-1.627-.288-3.008-.81-4.157z" fill="url(#SVGID_163_)"/><path d="m384.694 255.901c-.345-.003-.623-.285-.62-.63.02-2.455 2.034-4.436 4.489-4.415.345.003.623.285.62.63s-.285.623-.63.62c-1.766-.015-3.214 1.41-3.229 3.175-.003.345-.285.623-.63.62z" fill="url(#SVGID_164_)"/><path d="m384.735 254.547c-.73 0-1.427-.081-2.066-.229-.034-.008-.067-.014-.101-.021-.259.211-.41.462-.41.731 0 .747 1.154 1.352 2.577 1.352s2.577-.605 2.577-1.352c0-.269-.151-.52-.41-.731-.034.007-.068.013-.103.021-.638.148-1.335.229-2.064.229z" fill="url(#SVGID_165_)"/></g></g><g><path d="m439.58 248.286c-.003-.003-.006-.007-.009-.01.123-.013.246-.03.373-.029.345.003.627-.274.63-.62.002-.251-.147-.466-.36-.567l-14.568-14.567c-.101-.206-.306-.352-.551-.354-2.197-.018-4.035 1.567-4.414 3.659-.516-.031-1.017-.089-1.481-.196-.034-.008-.067-.014-.101-.021-.001.001-.001.001-.002.002-2.424-.51-4.913.708-5.976 2.955-.554 1.172-.864 2.59-.864 4.27 0 3.438 1.298 6.506 3.328 8.518l14.859 14.859c1.233 1.221 2.896 1.625 4.404 1.018.393-.158.825-.246 1.277-.246s.884.087 1.277.246c1.509.607 3.172.204 4.404-1.018 2.031-2.012 3.328-5.08 3.328-8.518 0-1.627-.291-3.008-.812-4.158-.304-.669-.734-1.249-1.247-1.726z" fill="url(#SVGID_166_)"/><g><path d="m429.347 238.531c-1.061-2.339-3.631-3.625-6.133-3.048-.639.147-1.335.228-2.065.228s-1.427-.081-2.066-.229c-2.457-.567-5.001.657-6.08 2.936-.554 1.172-.864 2.59-.864 4.27 0 3.438 1.298 6.506 3.328 8.518 1.233 1.221 2.896 1.625 4.404 1.018.393-.158.825-.246 1.277-.246s.884.087 1.277.246c1.509.607 3.172.203 4.404-1.018 2.031-2.012 3.328-5.08 3.328-8.518.002-1.626-.288-3.007-.81-4.157z" fill="url(#SVGID_167_)"/><path d="m421.109 237.065c-.345-.003-.623-.285-.62-.63.02-2.455 2.034-4.436 4.489-4.415.345.003.623.285.62.63s-.285.623-.63.62c-1.766-.015-3.214 1.41-3.229 3.175-.003.346-.285.623-.63.62z" fill="url(#SVGID_168_)"/><path d="m421.149 235.711c-.73 0-1.427-.081-2.066-.229-.034-.008-.067-.014-.101-.021-.259.211-.41.462-.41.731 0 .747 1.154 1.352 2.577 1.352s2.577-.605 2.577-1.352c0-.269-.151-.52-.41-.731-.034.007-.068.013-.103.021-.638.148-1.334.229-2.064.229z" fill="url(#SVGID_169_)"/></g></g><g><path d="m426.396 296.629c-.003-.003-.006-.007-.009-.01.123-.013.246-.03.373-.029.345.003.627-.274.63-.62.002-.251-.147-.466-.36-.567l-14.568-14.567c-.101-.206-.306-.352-.552-.354-2.197-.018-4.035 1.567-4.414 3.659-.516-.031-1.017-.089-1.481-.196-.034-.008-.067-.014-.101-.021-.001.001-.001.001-.002.002-2.424-.51-4.913.708-5.976 2.955-.554 1.172-.864 2.59-.864 4.27 0 3.438 1.298 6.506 3.328 8.518l14.859 14.859c1.233 1.221 2.896 1.625 4.404 1.018.393-.158.825-.246 1.277-.246s.884.087 1.277.246c1.509.607 3.172.204 4.404-1.018 2.031-2.012 3.329-5.08 3.329-8.518 0-1.627-.291-3.008-.812-4.158-.304-.669-.734-1.249-1.247-1.726z" fill="url(#SVGID_170_)"/><g><path d="m416.163 286.875c-1.061-2.339-3.631-3.625-6.133-3.048-.639.147-1.335.228-2.065.228s-1.427-.081-2.066-.229c-2.457-.567-5.001.657-6.08 2.936-.554 1.172-.864 2.59-.864 4.27 0 3.438 1.298 6.506 3.328 8.518 1.233 1.221 2.896 1.625 4.404 1.018.393-.158.825-.246 1.277-.246s.884.087 1.277.246c1.509.607 3.172.203 4.404-1.018 2.031-2.012 3.328-5.081 3.328-8.518.002-1.626-.289-3.007-.81-4.157z" fill="url(#SVGID_171_)"/><path d="m407.924 285.409c-.345-.003-.623-.285-.62-.63.02-2.455 2.034-4.436 4.489-4.415.345.003.623.285.62.63s-.285.623-.63.62c-1.766-.015-3.214 1.41-3.229 3.175-.002.346-.285.623-.63.62z" fill="url(#SVGID_172_)"/><path d="m407.965 284.055c-.73 0-1.427-.081-2.066-.229-.034-.008-.067-.014-.101-.021-.259.211-.41.462-.41.731 0 .747 1.154 1.352 2.577 1.352s2.577-.605 2.577-1.352c0-.269-.151-.52-.41-.731-.034.007-.068.013-.103.021-.638.148-1.335.229-2.064.229z" fill="url(#SVGID_173_)"/></g></g><g><path d="m459.985 278.108c-.003-.003-.006-.007-.009-.01.123-.013.246-.03.373-.029.345.003.627-.274.63-.62.002-.251-.147-.466-.36-.567l-14.568-14.567c-.101-.206-.306-.352-.551-.354-2.197-.018-4.035 1.567-4.414 3.659-.516-.031-1.017-.089-1.481-.196-.034-.008-.067-.014-.101-.021-.001.001-.001.001-.002.002-2.424-.51-4.913.708-5.976 2.955-.554 1.172-.864 2.59-.864 4.27 0 3.438 1.298 6.506 3.328 8.518l14.859 14.859c1.233 1.221 2.896 1.625 4.404 1.018.393-.158.825-.246 1.277-.246s.884.087 1.277.246c1.509.607 3.172.204 4.404-1.018 2.031-2.012 3.328-5.08 3.328-8.518 0-1.627-.291-3.008-.812-4.158-.304-.669-.734-1.249-1.247-1.726z" fill="url(#SVGID_174_)"/><g><path d="m449.752 268.354c-1.061-2.339-3.631-3.625-6.133-3.048-.639.147-1.335.228-2.065.228s-1.427-.081-2.066-.229c-2.457-.567-5.001.657-6.08 2.936-.554 1.172-.864 2.59-.864 4.27 0 3.438 1.298 6.506 3.328 8.518 1.233 1.221 2.896 1.625 4.404 1.018.393-.158.825-.246 1.277-.246s.884.087 1.277.246c1.509.607 3.172.203 4.404-1.018 2.031-2.012 3.328-5.08 3.328-8.518.002-1.627-.288-3.008-.81-4.157z" fill="url(#SVGID_175_)"/><path d="m441.514 266.888c-.345-.003-.623-.285-.62-.63.02-2.455 2.034-4.436 4.489-4.415.345.003.623.285.62.63s-.285.623-.63.62c-1.766-.015-3.214 1.41-3.229 3.175-.003.345-.285.623-.63.62z" fill="url(#SVGID_176_)"/><path d="m441.554 265.534c-.73 0-1.427-.081-2.066-.229-.034-.008-.067-.014-.101-.021-.259.211-.41.462-.41.731 0 .747 1.154 1.352 2.577 1.352s2.577-.605 2.577-1.352c0-.269-.151-.52-.41-.731-.034.007-.068.013-.103.021-.638.148-1.334.229-2.064.229z" fill="url(#SVGID_177_)"/></g></g><g><path d="m492.005 265.237c-.003-.003-.006-.007-.009-.01.123-.013.246-.03.373-.029.345.003.627-.274.63-.62.002-.251-.147-.466-.36-.567l-14.568-14.567c-.101-.206-.306-.352-.551-.354-2.197-.018-4.035 1.567-4.414 3.659-.516-.031-1.017-.089-1.481-.196-.034-.008-.067-.014-.101-.021-.001.001-.001.001-.002.002-2.424-.51-4.913.708-5.976 2.955-.554 1.172-.864 2.59-.864 4.27 0 3.438 1.298 6.506 3.328 8.518l14.859 14.859c1.233 1.221 2.896 1.625 4.404 1.018.393-.158.825-.246 1.277-.246s.884.087 1.277.246c1.509.607 3.172.204 4.404-1.018 2.031-2.012 3.328-5.08 3.328-8.518 0-1.627-.291-3.008-.812-4.158-.304-.669-.734-1.249-1.247-1.726z" fill="url(#SVGID_178_)"/><g><path d="m481.772 255.483c-1.061-2.339-3.631-3.625-6.133-3.048-.639.147-1.335.228-2.065.228s-1.427-.081-2.066-.229c-2.457-.567-5.001.657-6.08 2.936-.554 1.172-.864 2.59-.864 4.27 0 3.438 1.298 6.506 3.328 8.518 1.233 1.221 2.896 1.625 4.404 1.018.393-.158.825-.246 1.277-.246s.884.087 1.277.246c1.509.607 3.172.203 4.404-1.018 2.031-2.012 3.328-5.081 3.328-8.518.002-1.626-.288-3.007-.81-4.157z" fill="url(#SVGID_179_)"/><path d="m473.534 254.017c-.345-.003-.623-.285-.62-.63.02-2.455 2.034-4.436 4.489-4.415.345.003.623.285.62.63s-.285.623-.63.62c-1.766-.015-3.214 1.41-3.229 3.175-.003.345-.285.623-.63.62z" fill="url(#SVGID_180_)"/><path d="m473.574 252.663c-.73 0-1.427-.081-2.066-.229-.034-.008-.067-.014-.101-.021-.259.211-.41.462-.41.731 0 .747 1.154 1.352 2.577 1.352s2.577-.605 2.577-1.352c0-.269-.151-.52-.41-.731-.034.007-.068.013-.103.021-.638.148-1.334.229-2.064.229z" fill="url(#SVGID_181_)"/></g></g><g><path d="m480.076 308.872c-.003-.003-.006-.007-.009-.01.123-.013.246-.03.373-.029.345.003.627-.274.63-.62.002-.251-.147-.466-.36-.567l-14.568-14.567c-.101-.206-.306-.352-.552-.354-2.197-.018-4.035 1.567-4.414 3.659-.515-.031-1.017-.089-1.481-.196-.034-.008-.067-.014-.101-.021-.001.001-.001.001-.002.002-2.424-.51-4.913.708-5.976 2.955-.554 1.172-.864 2.59-.864 4.27 0 3.438 1.298 6.506 3.328 8.518l14.859 14.859c1.233 1.221 2.896 1.625 4.404 1.018.393-.158.825-.246 1.277-.246s.884.087 1.277.246c1.509.607 3.172.204 4.404-1.018 2.031-2.012 3.329-5.08 3.329-8.518 0-1.627-.291-3.008-.812-4.158-.304-.669-.734-1.249-1.247-1.726z" fill="url(#SVGID_182_)"/><g><path d="m469.843 299.118c-1.061-2.339-3.631-3.625-6.133-3.048-.639.147-1.335.228-2.065.228s-1.427-.081-2.066-.229c-2.457-.567-5.001.657-6.08 2.936-.554 1.172-.864 2.59-.864 4.27 0 3.438 1.298 6.506 3.328 8.518 1.233 1.221 2.896 1.625 4.404 1.018.393-.158.825-.246 1.277-.246s.884.087 1.277.246c1.509.607 3.172.203 4.404-1.018 2.031-2.012 3.328-5.08 3.328-8.518.002-1.626-.288-3.007-.81-4.157z" fill="url(#SVGID_183_)"/><path d="m461.605 297.652c-.345-.003-.623-.285-.62-.63.02-2.455 2.034-4.436 4.489-4.415.345.003.623.285.62.63s-.285.623-.63.62c-1.766-.015-3.214 1.41-3.229 3.175-.003.346-.285.623-.63.62z" fill="url(#SVGID_184_)"/><path d="m461.645 296.298c-.73 0-1.427-.081-2.066-.229-.034-.008-.067-.014-.101-.021-.259.211-.41.462-.41.731 0 .747 1.154 1.352 2.577 1.352s2.577-.605 2.577-1.352c0-.269-.151-.52-.41-.731-.034.007-.068.013-.103.021-.638.148-1.334.229-2.064.229z" fill="url(#SVGID_185_)"/></g></g></g><g><g><g><path d="m464.869 403.783c-1.64 0-3.219.262-4.699.745-1.582-5.162-6.385-8.916-12.066-8.916-6.969 0-12.618 5.649-12.618 12.618 0 1.007.119 1.986.341 2.925-5.947.419-10.642 5.376-10.642 11.43 0 6.329 5.131 11.459 11.459 11.459h28.224c8.357 0 15.131-6.774 15.131-15.131.001-8.356-6.773-15.13-15.13-15.13z" fill="url(#SVGID_186_)"/><path d="m449.738 418.914c0 .614.037 1.219.108 1.813-.569.08-1.151.121-1.742.121-6.969 0-12.617-5.65-12.617-12.619 0-6.968 5.649-12.617 12.617-12.617 5.68 0 10.485 3.754 12.066 8.916-6.056 1.975-10.432 7.67-10.432 14.386z" fill="url(#SVGID_187_)"/><path d="m425.274 424.012c.702 5.656 5.525 10.033 11.371 10.033h28.224c6.568 0 12.157-4.185 14.25-10.033z" fill="url(#SVGID_188_)"/></g></g></g><g><g><g><path d="m396.905 399.81c-1.311 0-2.573.21-3.756.595-1.265-4.126-5.104-7.126-9.644-7.126-5.57 0-10.086 4.516-10.086 10.086 0 .805.095 1.587.273 2.338-4.754.335-8.506 4.297-8.506 9.136 0 5.059 4.101 9.16 9.16 9.16h22.56c6.68 0 12.095-5.415 12.095-12.095s-5.416-12.094-12.096-12.094z" fill="url(#SVGID_189_)"/><path d="m384.811 411.905c0 .491.029.974.086 1.449-.455.064-.92.097-1.392.097-5.57 0-10.085-4.516-10.085-10.086 0-5.569 4.515-10.085 10.085-10.085 4.54 0 8.381 3 9.645 7.127-4.841 1.577-8.339 6.129-8.339 11.498z" fill="url(#SVGID_190_)"/><path d="m365.256 415.979c.561 4.521 4.417 8.02 9.089 8.02h22.56c5.25 0 9.717-3.345 11.39-8.02z" fill="url(#SVGID_191_)"/></g></g></g><g><g><g><path d="m321.081 379.548c-1.122 0-2.202.179-3.214.51-1.082-3.531-4.368-6.099-8.254-6.099-4.767 0-8.632 3.864-8.632 8.632 0 .689.081 1.359.234 2.001-4.068.287-7.28 3.678-7.28 7.819 0 4.329 3.51 7.839 7.839 7.839h19.307c5.716 0 10.35-4.634 10.35-10.35s-4.633-10.352-10.35-10.352z" fill="url(#SVGID_192_)"/><path d="m310.731 389.899c0 .42.025.834.074 1.24-.389.055-.787.083-1.192.083-4.767 0-8.631-3.865-8.631-8.632 0-4.766 3.864-8.631 8.631-8.631 3.886 0 7.172 2.568 8.254 6.099-4.143 1.351-7.136 5.246-7.136 9.841z" fill="url(#SVGID_193_)"/><path d="m293.996 393.386c.48 3.869 3.78 6.863 7.778 6.863h19.307c4.493 0 8.316-2.863 9.747-6.863z" fill="url(#SVGID_194_)"/></g></g></g></g></svg>