<svg id="Capa_1" enable-background="new 0 0 510 510" height="512" viewBox="0 0 510 510" width="512" xmlns="http://www.w3.org/2000/svg" xmlns:xlink="http://www.w3.org/1999/xlink"><linearGradient id="SVGID_1_" gradientUnits="userSpaceOnUse" x1="255" x2="255" y1="220" y2="356.015"><stop offset="0" stop-color="#ff7044"/><stop offset="1" stop-color="#f82814"/></linearGradient><linearGradient id="SVGID_2_" gradientUnits="userSpaceOnUse" x1="255" x2="255" y1="90.218" y2="544.795"><stop offset="0" stop-color="#ff9356" stop-opacity="0"/><stop offset="1" stop-color="#ff755c"/></linearGradient><linearGradient id="SVGID_3_" gradientUnits="userSpaceOnUse" x1="207.702" x2="301.152" y1="174.918" y2="326.774"><stop offset="0" stop-color="#ffce47"/><stop offset="1" stop-color="#f6921e"/></linearGradient><linearGradient id="SVGID_4_" gradientUnits="userSpaceOnUse" x1="234.667" x2="266.685" y1="48.537" y2="48.537"><stop offset="0" stop-color="#ff755c"/><stop offset="1" stop-color="#ff4181"/></linearGradient><linearGradient id="lg1"><stop offset="0" stop-color="#ff4181"/><stop offset="1" stop-color="#843561"/></linearGradient><linearGradient id="SVGID_5_" gradientTransform="matrix(0 1 -1 0 -557.223 1060.777)" gradientUnits="userSpaceOnUse" x1="-829.333" x2="-797.315" xlink:href="#lg1" y1="-1015.463" y2="-1015.463"/><linearGradient id="SVGID_6_" gradientTransform="matrix(0 1 -1 0 -557.223 1060.777)" gradientUnits="userSpaceOnUse" x1="-829.333" x2="-797.315" y1="-608.983" y2="-608.983"><stop offset="0" stop-color="#ffce47"/><stop offset="1" stop-color="#ff9356"/></linearGradient><linearGradient id="SVGID_7_" gradientTransform="matrix(.707 .707 -.707 .707 -58.917 645.793)" gradientUnits="userSpaceOnUse" x1="-76.972" x2="-44.953" xlink:href="#lg1" y1="-703.824" y2="-703.824"/><linearGradient id="SVGID_8_" gradientUnits="userSpaceOnUse" x1="107.13" x2="125.894" y1="112.223" y2="93.459"><stop offset="0" stop-color="#ff9356"/><stop offset="1" stop-color="#ff755c"/></linearGradient><linearGradient id="SVGID_9_" gradientUnits="userSpaceOnUse" x1="255" x2="255" y1="309.918" y2="485.992"><stop offset="0" stop-color="#ff755c"/><stop offset="1" stop-color="#45a2e0"/></linearGradient><linearGradient id="SVGID_10_" gradientUnits="userSpaceOnUse" x1="255" x2="255" y1="426.209" y2="309.209"><stop offset="0" stop-color="#45a2e0" stop-opacity="0"/><stop offset="1" stop-color="#ff755c"/></linearGradient><linearGradient id="lg2"><stop offset="0" stop-color="#45a2e0" stop-opacity="0"/><stop offset="1" stop-color="#843561"/></linearGradient><linearGradient id="SVGID_11_" gradientUnits="userSpaceOnUse" x1="273.24" x2="273.24" xlink:href="#lg2" y1="424.209" y2="306.103"/><linearGradient id="SVGID_12_" gradientUnits="userSpaceOnUse" x1="366.635" x2="366.635" xlink:href="#lg2" y1="424.209" y2="306.103"/><linearGradient id="SVGID_13_" gradientUnits="userSpaceOnUse" x1="173.635" x2="173.635" xlink:href="#lg2" y1="424.209" y2="306.103"/><linearGradient id="SVGID_14_" gradientUnits="userSpaceOnUse" x1="311.635" x2="311.635" xlink:href="#lg2" y1="424.209" y2="306.103"/><linearGradient id="SVGID_15_" gradientUnits="userSpaceOnUse" x1="255" x2="255" y1="449.411" y2="514.186"><stop offset="0" stop-color="#45a2e0" stop-opacity="0"/><stop offset="1" stop-color="#2f73a0"/></linearGradient><linearGradient id="lg3"><stop offset="0" stop-color="#843561" stop-opacity="0"/><stop offset=".2209" stop-color="#7a345e" stop-opacity=".221"/><stop offset=".6019" stop-color="#5e3257" stop-opacity=".602"/><stop offset="1" stop-color="#3a2f4d"/></linearGradient><linearGradient id="SVGID_16_" gradientUnits="userSpaceOnUse" x1="320.882" x2="279.411" xlink:href="#lg3" y1="223.386" y2="132.814"/><linearGradient id="SVGID_17_" gradientUnits="userSpaceOnUse" x1="332.195" x2="276.528" xlink:href="#lg3" y1="272.537" y2="148.537"/><linearGradient id="SVGID_18_" gradientUnits="userSpaceOnUse" x1="369.056" x2="325.056" xlink:href="#lg3" y1="238.482" y2="147.482"/><linearGradient id="lg4"><stop offset="0" stop-color="#2f73a0"/><stop offset="1" stop-color="#174461"/></linearGradient><linearGradient id="SVGID_19_" gradientUnits="userSpaceOnUse" x1="282.265" x2="282.265" xlink:href="#lg4" y1="184.858" y2="208.826"/><linearGradient id="SVGID_20_" gradientUnits="userSpaceOnUse" x1="296.075" x2="296.075" xlink:href="#lg4" y1="227.717" y2="251.686"/><linearGradient id="SVGID_21_" gradientUnits="userSpaceOnUse" x1="349.537" x2="349.537" xlink:href="#lg4" y1="201.786" y2="225.755"/><g><path d="m485.638 510h-461.276c-13.455 0-24.362-10.907-24.362-24.362v-461.276c0-13.455 10.907-24.362 24.362-24.362h461.275c13.456 0 24.363 10.907 24.363 24.362v461.275c0 13.456-10.907 24.363-24.362 24.363z" fill="url(#SVGID_1_)"/><circle cx="255" cy="251.777" fill="url(#SVGID_2_)" r="185.558"/><circle cx="255" cy="251.777" fill="url(#SVGID_3_)" r="141.451"/><g><g><path d="m255 18.782c6.976 0 12.632 5.656 12.632 12.632v34.246c0 6.976-5.656 12.632-12.632 12.632-6.976 0-12.632-5.656-12.632-12.632v-34.246c0-6.976 5.656-12.632 12.632-12.632z" fill="url(#SVGID_4_)"/></g><g><path d="m487.995 251.777c0 6.977-5.656 12.632-12.632 12.632h-34.246c-6.976 0-12.632-5.656-12.632-12.632 0-6.976 5.656-12.632 12.632-12.632h34.246c6.976 0 12.632 5.656 12.632 12.632z" fill="url(#SVGID_5_)"/><path d="m81.515 251.777c0 6.977-5.656 12.632-12.632 12.632h-34.246c-6.976 0-12.632-5.656-12.632-12.632 0-6.976 5.656-12.632 12.632-12.632h34.246c6.977 0 12.632 5.656 12.632 12.632z" fill="url(#SVGID_6_)"/></g><g><path d="m419.752 87.025c4.933 4.933 4.933 12.931 0 17.864l-24.216 24.216c-4.933 4.933-12.931 4.933-17.864 0-4.933-4.933-4.933-12.931 0-17.864l24.216-24.216c4.933-4.933 12.931-4.933 17.864 0z" fill="url(#SVGID_7_)"/></g><path d="m132.328 111.24-24.216-24.215c-4.933-4.933-12.931-4.933-17.864 0s-4.933 12.931 0 17.864l24.216 24.216c4.933 4.933 12.931 4.933 17.864 0s4.933-12.931 0-17.865z" fill="url(#SVGID_8_)"/></g><path d="m510 485.638v-152.944h-510v152.944c0 13.455 10.907 24.362 24.362 24.362h461.275c13.456 0 24.363-10.907 24.363-24.362z" fill="url(#SVGID_9_)"/><path d="m90.443 332.694c29.893 60.677 92.344 102.43 164.557 102.43s134.664-41.754 164.557-102.43z" fill="url(#SVGID_10_)"/><g><path d="m403.5 336.689c-2.48-2.47-5.9-4-9.67-4h-254.85c1.863 2.664 3.806 5.258 5.84 7.782 3.461 4.295 8.724 6.738 14.24 6.738h46.905c7.23 0 13.488 5.464 14 12.676.295 4.16-1.279 7.969-3.965 10.654-2.48 2.47-5.9 4-9.67 4-3.1 0-4.88 2.46-4.88 4.93 0 1.85.99 3.69 3.16 4.52 15.65 5.97 32.64 9.24 50.39 9.24 10.995 0 21.686-1.255 31.953-3.625 1.384-.319 2.227-1.647 2.104-3.063-.025-.281-.037-.565-.037-.853 0-2.68 1.08-5.1 2.83-6.85s4.17-2.83 6.85-2.83h17.692c4.33 0 8.574-1.203 12.268-3.461 3.813-2.33 7.506-4.837 11.069-7.509 4.32-3.24 9.55-5.02 14.94-5.02h39.16c7.55 0 13.67-6.12 13.67-13.66.001-3.769-1.529-7.189-3.999-9.669z" fill="url(#SVGID_11_)"/><path d="m377.323 366.333h-21.376c-5.344 0-9.677 4.333-9.677 9.677s4.332 9.677 9.677 9.677h21.376c5.344 0 9.677-4.333 9.677-9.677s-4.332-9.677-9.677-9.677z" fill="url(#SVGID_12_)"/><path d="m184.323 366.333h-21.377c-5.344 0-9.677 4.333-9.677 9.677s4.332 9.677 9.677 9.677h21.377c5.344 0 9.677-4.333 9.677-9.677s-4.332-9.677-9.677-9.677z" fill="url(#SVGID_13_)"/><path d="m322.323 385.687h-21.377c-5.344 0-9.677 4.333-9.677 9.677 0 5.344 4.332 9.677 9.677 9.677h21.377c5.344 0 9.677-4.332 9.677-9.677 0-5.345-4.332-9.677-9.677-9.677z" fill="url(#SVGID_14_)"/></g><path d="m510 485.638v-64.292h-510v64.292c0 13.455 10.907 24.362 24.362 24.362h461.275c13.456 0 24.363-10.907 24.363-24.362z" fill="url(#SVGID_15_)"/><path d="m394.871 272.96-84.789-84.789c-.694-1.927-2.521-2.313-4.688-2.313-8.253 0-15.012 3.704-21.439 12.602-.083.115-1.188.199-1.299.26-.377-.366-3.119-3.146-4.142-4.056-5.774-6.426-12.401-8.806-19.38-8.806-2.761 0-3.999 1.238-3.999 3.999 0 2.166.386 3.993 2.313 4.688l122.872 122.872c7.168-13.657 12.174-28.625 14.551-44.457z" fill="url(#SVGID_16_)"/><path d="m389.24 296.459c-4.67 14.08-11.51 27.17-20.11 38.89l-97.93-97.93c-1.93-.69-2.31-2.52-2.31-4.69 0-2.76 1.23-4 3.99-4 6.98 0 13.61 2.38 19.38 8.81 1.03.91 3.77 3.69 4.15 4.06.11-.06 1.21-.15 1.3-.26 6.42-8.9 13.18-12.61 21.43-12.61 2.17 0 4 .39 4.69 2.32z" fill="url(#SVGID_17_)"/><path d="m396.45 251.779c0 9.84-1 19.44-2.91 28.71l-68.97-68.97c-1.93-.69-2.32-2.52-2.32-4.69 0-2.76 1.24-4 4-4 6.98 0 13.61 2.38 19.38 8.81 1.03.91 3.77 3.69 4.14 4.06.12-.06 1.22-.15 1.3-.26 6.43-8.9 13.19-12.61 21.44-12.61 2.17 0 4 .39 4.69 2.32l15.9 15.9c2.19 9.89 3.35 20.18 3.35 30.73z" fill="url(#SVGID_18_)"/><g><path d="m282.268 208.826c-3.464 0-6.75-1.684-8.79-4.505-3.122-4.317-8.145-9.463-14.343-9.463-2.761 0-5-2.239-5-5s2.239-5 5-5c8.249 0 16.01 4.704 22.446 13.603.352.486 1.023.484 1.374 0 6.427-8.899 14.187-13.603 22.44-13.603 2.761 0 5 2.239 5 5s-2.239 5-5 5c-6.201 0-11.217 5.144-14.333 9.458-2.039 2.823-5.325 4.509-8.79 4.51-.002 0-.003 0-.004 0z" fill="url(#SVGID_19_)"/><path d="m296.078 251.686c-3.464 0-6.749-1.684-8.79-4.504-3.123-4.318-8.145-9.464-14.343-9.464-2.761 0-5-2.239-5-5s2.239-5 5-5c8.249 0 16.01 4.704 22.446 13.604.349.484 1.023.485 1.374 0 6.428-8.899 14.187-13.603 22.44-13.603 2.761 0 5 2.239 5 5s-2.239 5-5 5c-6.2 0-11.217 5.144-14.333 9.458-2.039 2.823-5.325 4.509-8.79 4.51-.001-.001-.003-.001-.004-.001z" fill="url(#SVGID_20_)"/><path d="m349.541 225.755c-3.464 0-6.75-1.684-8.79-4.505-3.123-4.317-8.145-9.463-14.344-9.463-2.761 0-5-2.239-5-5s2.239-5 5-5c8.249 0 16.011 4.704 22.446 13.603.352.485 1.023.486 1.374 0 6.428-8.899 14.187-13.603 22.44-13.603 2.761 0 5 2.239 5 5s-2.239 5-5 5c-6.2 0-11.217 5.144-14.333 9.458-2.039 2.823-5.325 4.509-8.79 4.51-.001 0-.002 0-.003 0z" fill="url(#SVGID_21_)"/></g></g></svg>