

<svg id="Capa_1" enable-background="new 0 0 510.002 510.002" height="512" viewBox="0 0 510.002 510.002" width="512" xmlns="http://www.w3.org/2000/svg" xmlns:xlink="http://www.w3.org/1999/xlink"><linearGradient id="SVGID_1_" gradientUnits="userSpaceOnUse" x1="255" x2="255" y1="198.001" y2="382.069"><stop offset="0" stop-color="#fff5d9"/><stop offset="1" stop-color="#ffce47"/></linearGradient><linearGradient id="SVGID_2_" gradientUnits="userSpaceOnUse" x1="116.791" x2="201.676" y1="67.317" y2="152.203"><stop offset="0" stop-color="#ffd945"/><stop offset=".3043" stop-color="#ffcd3e"/><stop offset=".8558" stop-color="#ffad2b"/><stop offset="1" stop-color="#ffa325"/></linearGradient><linearGradient id="lg1"><stop offset="0" stop-color="#ff9356" stop-opacity="0"/><stop offset="1" stop-color="#ff755c"/></linearGradient><linearGradient id="SVGID_3_" gradientUnits="userSpaceOnUse" x1="401" x2="401" xlink:href="#lg1" y1="460.202" y2="351.007"/><linearGradient id="SVGID_4_" gradientUnits="userSpaceOnUse" x1="164.948" x2="164.948" xlink:href="#lg1" y1="463.883" y2="321.799"/><linearGradient id="SVGID_5_" gradientUnits="userSpaceOnUse" x1="255.879" x2="307.009" xlink:href="#lg1" y1="381.337" y2="484.732"/><linearGradient id="SVGID_6_" gradientUnits="userSpaceOnUse" x1="327.028" x2="264.304" xlink:href="#lg1" y1="404.032" y2="444.889"/><linearGradient id="SVGID_7_" gradientUnits="userSpaceOnUse" x1="403.782" x2="394.512" y1="388.656" y2="459.337"><stop offset="0" stop-color="#798c00"/><stop offset="1" stop-color="#1b444f"/></linearGradient><linearGradient id="lg2"><stop offset="0" stop-color="#bada00"/><stop offset=".2187" stop-color="#b6d600"/><stop offset=".4501" stop-color="#acc900"/><stop offset=".6873" stop-color="#9ab400"/><stop offset=".9271" stop-color="#829700"/><stop offset="1" stop-color="#798c00"/></linearGradient><linearGradient id="SVGID_8_" gradientUnits="userSpaceOnUse" x1="108.706" x2="131.927" xlink:href="#lg2" y1="348.845" y2="417.216"/><linearGradient id="lg3"><stop offset="0" stop-color="#9da6ac"/><stop offset="1" stop-color="#5a7587"/></linearGradient><linearGradient id="SVGID_9_" gradientUnits="userSpaceOnUse" x1="222.449" x2="317.242" xlink:href="#lg3" y1="272.749" y2="272.749"/><linearGradient id="SVGID_10_" gradientTransform="matrix(-1 0 0 1 -4060 0)" gradientUnits="userSpaceOnUse" x1="-4362.371" x2="-4297.319" xlink:href="#lg3" y1="272.749" y2="272.749"/><linearGradient id="SVGID_11_" gradientUnits="userSpaceOnUse" x1="256.258" x2="283.432" xlink:href="#lg3" y1="272.749" y2="272.749"/><linearGradient id="lg4"><stop offset="0" stop-color="#2f73a0" stop-opacity="0"/><stop offset=".5026" stop-color="#345278" stop-opacity=".503"/><stop offset="1" stop-color="#3a2f4d"/></linearGradient><linearGradient id="SVGID_12_" gradientUnits="userSpaceOnUse" x1="269.845" x2="269.845" xlink:href="#lg4" y1="226.317" y2="108.823"/><linearGradient id="SVGID_13_" gradientUnits="userSpaceOnUse" x1="269.845" x2="269.845" xlink:href="#lg3" y1="124.066" y2="149.049"/><linearGradient id="lg5"><stop offset="0" stop-color="#f8f6fb"/><stop offset="1" stop-color="#efdcfb"/></linearGradient><linearGradient id="SVGID_14_" gradientUnits="userSpaceOnUse" x1="269.845" x2="269.845" xlink:href="#lg5" y1="409.235" y2="434.218"/><linearGradient id="SVGID_15_" gradientUnits="userSpaceOnUse" x1="269.845" x2="269.845" xlink:href="#lg3" y1="409.235" y2="434.218"/><linearGradient id="SVGID_16_" gradientUnits="userSpaceOnUse" x1="269.845" x2="269.845" xlink:href="#lg3" y1="99.795" y2="128.879"/><linearGradient id="SVGID_17_" gradientUnits="userSpaceOnUse" x1="269.845" x2="269.845" xlink:href="#lg3" y1="427.359" y2="456.443"/><linearGradient id="SVGID_18_" gradientUnits="userSpaceOnUse" x1="419.75" x2="461.226" xlink:href="#lg2" y1="426.055" y2="467.531"/><linearGradient id="lg6"><stop offset="0" stop-color="#43765a" stop-opacity="0"/><stop offset="1" stop-color="#43765a"/></linearGradient><linearGradient id="SVGID_19_" gradientUnits="userSpaceOnUse" x1="433.364" x2="466.926" xlink:href="#lg6" y1="431.954" y2="425.819"/><linearGradient id="SVGID_20_" gradientUnits="userSpaceOnUse" x1="441.155" x2="441.155" xlink:href="#lg6" y1="457.168" y2="469.539"/><linearGradient id="SVGID_21_" gradientUnits="userSpaceOnUse" x1="255" x2="255" xlink:href="#lg2" y1="449.059" y2="522.009"/><linearGradient id="SVGID_22_" gradientUnits="userSpaceOnUse" x1="244.263" x2="283.929" xlink:href="#lg6" y1="446.061" y2="606.778"/><linearGradient id="SVGID_23_" gradientUnits="userSpaceOnUse" x1="289.685" x2="258.972" xlink:href="#lg6" y1="489.817" y2="398.197"/><linearGradient id="SVGID_24_" gradientUnits="userSpaceOnUse" x1="425.846" x2="405.175" xlink:href="#lg6" y1="520.513" y2="436.239"/><linearGradient id="SVGID_25_" gradientUnits="userSpaceOnUse" x1="276.251" x2="260.783" xlink:href="#lg6" y1="497.769" y2="446.603"/><linearGradient id="lg7"><stop offset="0" stop-color="#dfdfdf"/><stop offset="1" stop-color="#9da6ac"/></linearGradient><linearGradient id="SVGID_26_" gradientUnits="userSpaceOnUse" x1="233.8" x2="256.32" xlink:href="#lg7" y1="444.787" y2="467.308"/><linearGradient id="SVGID_27_" gradientUnits="userSpaceOnUse" x1="257.603" x2="247.845" xlink:href="#lg4" y1="443.003" y2="455.14"/><linearGradient id="SVGID_28_" gradientUnits="userSpaceOnUse" x1="258.503" x2="269.763" xlink:href="#lg7" y1="456.509" y2="467.769"/><linearGradient id="SVGID_29_" gradientUnits="userSpaceOnUse" x1="328.112" x2="439.356" xlink:href="#lg7" y1="253.423" y2="253.423"/><linearGradient id="SVGID_30_" gradientTransform="matrix(-1 0 0 1 -4060 0)" gradientUnits="userSpaceOnUse" x1="-4481.905" x2="-4405.564" xlink:href="#lg7" y1="253.423" y2="253.423"/><linearGradient id="SVGID_31_" gradientUnits="userSpaceOnUse" x1="367.789" x2="399.679" xlink:href="#lg7" y1="253.423" y2="253.423"/><linearGradient id="SVGID_32_" gradientUnits="userSpaceOnUse" x1="383.734" x2="383.734" xlink:href="#lg4" y1="174.307" y2="36.423"/><linearGradient id="SVGID_33_" gradientUnits="userSpaceOnUse" x1="383.734" x2="383.734" xlink:href="#lg7" y1="72.312" y2="101.63"/><linearGradient id="SVGID_34_" gradientUnits="userSpaceOnUse" x1="383.734" x2="383.734" xlink:href="#lg5" y1="420.222" y2="449.54"/><linearGradient id="SVGID_35_" gradientUnits="userSpaceOnUse" x1="383.734" x2="383.734" xlink:href="#lg7" y1="420.222" y2="449.54"/><linearGradient id="SVGID_36_" gradientUnits="userSpaceOnUse" x1="383.734" x2="383.734" xlink:href="#lg7" y1="43.828" y2="77.96"/><linearGradient id="SVGID_37_" gradientUnits="userSpaceOnUse" x1="383.734" x2="383.734" xlink:href="#lg7" y1="441.49" y2="475.622"/><linearGradient id="SVGID_38_" gradientUnits="userSpaceOnUse" x1="152.549" x2="194.025" xlink:href="#lg2" y1="421.388" y2="462.864"/><linearGradient id="SVGID_39_" gradientUnits="userSpaceOnUse" x1="166.163" x2="199.725" xlink:href="#lg6" y1="427.287" y2="421.152"/><linearGradient id="SVGID_40_" gradientUnits="userSpaceOnUse" x1="173.953" x2="173.953" xlink:href="#lg6" y1="452.501" y2="464.872"/><linearGradient id="SVGID_41_" gradientUnits="userSpaceOnUse" x1="61.88" x2="147.71" xlink:href="#lg7" y1="364.337" y2="364.337"/><linearGradient id="SVGID_42_" gradientUnits="userSpaceOnUse" x1="136" x2="59.974" xlink:href="#lg7" y1="364.687" y2="364.687"/><linearGradient id="SVGID_43_" gradientUnits="userSpaceOnUse" x1="92.49" x2="117.1" xlink:href="#lg7" y1="367.452" y2="367.452"/><linearGradient id="SVGID_44_" gradientUnits="userSpaceOnUse" x1="104.795" x2="104.795" xlink:href="#lg5" y1="433.778" y2="456.398"/><linearGradient id="SVGID_45_" gradientUnits="userSpaceOnUse" x1="104.795" x2="104.795" xlink:href="#lg7" y1="433.778" y2="456.398"/><linearGradient id="SVGID_46_" gradientUnits="userSpaceOnUse" x1="104.795" x2="104.795" xlink:href="#lg7" y1="450.187" y2="476.521"/><linearGradient id="SVGID_47_" gradientUnits="userSpaceOnUse" x1="86.316" x2="120.316" xlink:href="#lg3" y1="294.897" y2="342.397"/><linearGradient id="SVGID_48_" gradientUnits="userSpaceOnUse" x1="163.505" x2="141.506" xlink:href="#lg6" y1="511.282" y2="471.284"/><linearGradient id="SVGID_49_" gradientUnits="userSpaceOnUse" x1="137.058" x2="152.829" xlink:href="#lg7" y1="475.054" y2="490.825"/><g><path d="m485.638 510.001h-461.276c-13.455 0-24.362-10.908-24.362-24.362v-461.276c0-13.455 10.907-24.362 24.362-24.362h461.275c13.456 0 24.363 10.907 24.363 24.362v461.275c0 13.455-10.907 24.363-24.362 24.363z" fill="url(#SVGID_1_)"/><path d="m194.667 242.001h-12.667c-8.1 0-14.667-6.566-14.667-14.667 0-8.1 6.566-14.667 14.667-14.667h12.667c8.1 0 14.667 6.566 14.667 14.667-.001 8.1-6.567 14.667-14.667 14.667z" fill="#fff"/><circle cx="138.124" cy="88.651" fill="url(#SVGID_2_)" r="66.943"/><g fill="#fff"><path d="m225.922 72.822h-33.178c-9.29 0-16.821-7.531-16.821-16.821 0-9.29 7.531-16.821 16.821-16.821h33.178c9.29 0 16.821 7.531 16.821 16.821 0 9.29-7.531 16.821-16.821 16.821z"/><path d="m145.634 210.196c2.492-4.052 3.932-8.821 3.932-13.928 0-14.706-11.922-26.627-26.627-26.627h-11.749c0-14.706-11.922-26.627-26.627-26.627h-52.52c-14.706 0-26.627 11.922-26.627 26.627s11.922 26.627 26.627 26.627h11.748c0 14.706 11.922 26.627 26.627 26.627h19.803c-.188 1.008-.298 2.043-.298 3.105 0 9.29 7.531 16.821 16.821 16.821h33.178c9.29 0 16.821-7.531 16.821-16.821 0-7.281-4.635-13.463-11.109-15.804z"/></g><path d="m480.165 121.081h-7.964c0-9.968-8.081-18.049-18.049-18.049h-35.6c-9.968 0-18.049 8.081-18.049 18.049s8.081 18.049 18.049 18.049h7.963c0 9.968 8.081 18.049 18.049 18.049h35.6c9.968 0 18.049-8.081 18.049-18.049.001-9.968-8.08-18.049-18.048-18.049z" fill="#fff"/><g><path d="m322 447.978 54.149-61.873c15.218-17.388 33.864-17.453 49.111-.171l54.74 62.044z" fill="url(#SVGID_3_)"/><path d="m30.562 447.978 92.111-80.51c25.886-22.626 57.605-22.71 83.542-.223l93.117 80.733z" fill="url(#SVGID_4_)"/><g><path d="m333.673 381.839h-26.496c-8.378 0-16.414-4.276-22.338-11.886-12.337-15.849-32.339-15.849-44.676 0l-60.738 78.026h218.818l-42.232-54.253c-5.925-7.612-13.96-11.887-22.338-11.887z" fill="url(#SVGID_5_)"/><path d="m356.011 393.725c-5.924-7.611-13.96-11.886-22.338-11.886h-26.496c-8.292 0-16.344-4.068-22.162-11.659-7.237-9.443-17.17-13.356-26.646-11.759l35.672 45.826c6.252 8.032 14.732 12.544 23.575 12.544 8.842 0 17.322 4.512 23.575 12.544l14.512 18.642h42.542z" fill="url(#SVGID_6_)"/></g></g><path d="m282.002 447.979s88.761-122.618 228-74.99v74.99z" fill="url(#SVGID_7_)"/><path d="m284.748 447.978s-110.853-93.802-284.748-57.366v57.366z" fill="url(#SVGID_8_)"/><g><g><path d="m222.449 127.494h94.793v290.51h-94.793z" fill="url(#SVGID_9_)"/><path d="m237.319 418.004h65.052v-290.51h-65.052z" fill="url(#SVGID_10_)"/><path d="m256.258 127.494h27.174v290.51h-27.174z" fill="url(#SVGID_11_)"/></g><path d="m222.449 149.244 94.793 94.793v-116.543h-94.793z" fill="url(#SVGID_12_)"/><path d="m215.576 124.119v18.283c0 3.099 2.662 5.738 6.302 6.272 14.129 2.071 30.504 3.256 47.967 3.256 17.462 0 33.838-1.185 47.967-3.256 3.64-.534 6.302-3.173 6.302-6.272v-18.283c0-3.92-4.185-6.91-8.799-6.279-13.547 1.853-29.024 2.906-45.47 2.906s-31.923-1.053-45.47-2.906c-4.614-.631-8.799 2.359-8.799 6.279z" fill="url(#SVGID_13_)"/><path d="m215.576 409.289v18.283c0 3.099 2.662 5.738 6.302 6.272 14.129 2.071 30.504 3.256 47.967 3.256 17.462 0 33.838-1.185 47.967-3.256 3.64-.534 6.302-3.173 6.302-6.272v-18.283c0-3.92-4.185-6.91-8.799-6.279-13.547 1.853-29.024 2.906-45.47 2.906s-31.923-1.053-45.47-2.906c-4.614-.632-8.799 2.358-8.799 6.279z" fill="url(#SVGID_14_)"/><path d="m215.576 409.289v18.283c0 3.099 2.662 5.738 6.302 6.272 14.129 2.071 30.504 3.256 47.967 3.256 17.462 0 33.838-1.185 47.967-3.256 3.64-.534 6.302-3.173 6.302-6.272v-18.283c0-3.92-4.185-6.91-8.799-6.279-13.547 1.853-29.024 2.906-45.47 2.906s-31.923-1.053-45.47-2.906c-4.614-.632-8.799 2.358-8.799 6.279z" fill="url(#SVGID_15_)"/><path d="m206.667 99.857v21.284c0 3.607 3.099 6.68 7.337 7.301 16.448 2.411 35.512 3.791 55.842 3.791 20.329 0 39.393-1.38 55.842-3.791 4.238-.621 7.337-3.694 7.337-7.301v-21.284c0-4.564-4.871-8.045-10.244-7.31h-105.871c-5.372-.735-10.243 2.746-10.243 7.31z" fill="url(#SVGID_16_)"/><path d="m206.667 427.42v21.284c0 3.607 3.099 6.68 7.337 7.301 16.448 2.411 35.512 3.791 55.842 3.791 20.329 0 39.393-1.38 55.842-3.791 4.238-.621 7.337-3.694 7.337-7.301v-21.284c0-4.564-4.871-8.045-10.244-7.31-15.771 2.157-33.789 3.383-52.935 3.383s-37.164-1.226-52.935-3.383c-5.373-.734-10.244 2.747-10.244 7.31z" fill="url(#SVGID_17_)"/></g><g><g><path d="m458.86 425.371c-2.292 0-4.498.366-6.565 1.041-2.211-7.212-8.921-12.456-16.857-12.456-9.736 0-17.629 7.893-17.629 17.629 0 1.407.166 2.775.477 4.086-8.309.586-14.868 7.511-14.868 15.969 0 8.842 7.168 16.01 16.01 16.01h39.432c11.675 0 21.14-9.465 21.14-21.14s-9.465-21.139-21.14-21.139z" fill="url(#SVGID_18_)"/><path d="m437.72 446.512c0 .858.052 1.703.151 2.533-.795.112-1.608.169-2.434.169-9.737 0-17.628-7.893-17.628-17.63 0-9.735 7.892-17.628 17.628-17.628 7.936 0 14.648 5.245 16.858 12.457-8.461 2.759-14.575 10.714-14.575 20.099z" fill="url(#SVGID_19_)"/><path d="m403.541 453.633c.981 7.902 7.72 14.017 15.887 14.017h39.432c9.176 0 16.985-5.847 19.909-14.017z" fill="url(#SVGID_20_)"/></g></g><path d="m0 447.978v37.66c0 13.421 10.853 24.305 24.261 24.36h461.479c13.408-.055 24.261-10.939 24.261-24.36v-37.66z" fill="url(#SVGID_21_)"/><path d="m313 489.363c-1.885-5.698-7.053-9.902-13.273-10.341.294-1.239.451-2.532.451-3.861 0-9.199-7.458-16.657-16.657-16.657-7.499 0-13.839 4.955-15.928 11.77-1.953-.637-4.037-.983-6.203-.983-7.794 0-14.528 4.474-17.82 10.985-1.252-.579-2.641-.912-4.111-.912-4.416 0-8.149 2.918-9.379 6.93-1.15-.375-2.377-.579-3.652-.579-3.347 0-6.36 1.405-8.502 3.648h-217.643c1.788 11.654 11.835 20.585 23.977 20.635h461.479c12.143-.05 22.189-8.981 23.978-20.635z" fill="url(#SVGID_22_)"/><path d="m50 447.978v25.896l36.124 36.125h399.615c13.408-.055 24.261-10.939 24.261-24.36v-37.66h-460z" fill="url(#SVGID_23_)"/><path d="m310.5 447.978v15.413c0 5.235 1.995 10.274 5.58 14.09l30.545 32.518h139.115c13.408-.055 24.261-10.939 24.261-24.36v-37.66h-199.501z" fill="url(#SVGID_24_)"/><path d="m324.044 509.101-49.828-49.824h-53.969l50.728 50.724h48.367c1.661 0 3.244-.326 4.702-.9z" fill="url(#SVGID_25_)"/><g><g><path d="m223.075 460.39h37.085c6.382 0 9.579-7.716 5.066-12.229l-5.987-5.986c-3.727-3.727-8.781-5.82-14.052-5.82h-6.405c-10.975 0-19.872 8.896-19.872 19.871 0 2.299 1.865 4.164 4.165 4.164z" fill="url(#SVGID_26_)"/><path d="m259.239 442.175c-3.727-3.727-8.781-5.82-14.052-5.82-2.552 0-4.62 2.068-4.62 4.62v.518c0 2.551 2.068 4.62 4.62 4.62 2.832 0 5.549 1.125 7.551 3.128l10.483 10.482c4.208-1.966 5.718-7.846 2.004-11.561z" fill="url(#SVGID_27_)"/></g><path d="m253.141 464.31h18.543c3.191 0 4.789-3.858 2.533-6.114l-2.993-2.993c-1.863-1.863-4.391-2.91-7.026-2.91h-3.203c-5.488 0-9.936 4.448-9.936 9.935-.001 1.15.932 2.082 2.082 2.082z" fill="url(#SVGID_28_)"/></g><g><g><path d="m328.112 76.334h111.244v354.177h-111.244z" fill="url(#SVGID_29_)"/><path d="m345.563 430.512h76.342v-354.178h-76.342z" fill="url(#SVGID_30_)"/><path d="m367.789 76.334h31.89v354.177h-31.89z" fill="url(#SVGID_31_)"/></g><path d="m328.112 101.859 111.244 111.244v-136.769h-111.244z" fill="url(#SVGID_32_)"/><path d="m320.047 72.374v21.456c0 3.636 3.124 6.734 7.396 7.36 16.581 2.431 35.798 3.821 56.291 3.821s39.711-1.391 56.291-3.821c4.272-.626 7.396-3.724 7.396-7.36v-21.456c0-4.601-4.911-8.11-10.326-7.369-15.898 2.175-34.061 3.41-53.361 3.41s-37.463-1.236-53.361-3.41c-5.416-.74-10.326 2.769-10.326 7.369z" fill="url(#SVGID_33_)"/><path d="m320.047 420.284v21.456c0 3.636 3.124 6.734 7.396 7.36 16.581 2.431 35.798 3.821 56.291 3.821s39.711-1.391 56.291-3.821c4.272-.626 7.396-3.724 7.396-7.36v-21.456c0-4.601-4.911-8.11-10.326-7.369-15.898 2.175-34.061 3.41-53.361 3.41s-37.463-1.236-53.361-3.41c-5.416-.741-10.326 2.769-10.326 7.369z" fill="url(#SVGID_34_)"/><path d="m320.047 420.284v21.456c0 3.636 3.124 6.734 7.396 7.36 16.581 2.431 35.798 3.821 56.291 3.821s39.711-1.391 56.291-3.821c4.272-.626 7.396-3.724 7.396-7.36v-21.456c0-4.601-4.911-8.11-10.326-7.369-15.898 2.175-34.061 3.41-53.361 3.41s-37.463-1.236-53.361-3.41c-5.416-.741-10.326 2.769-10.326 7.369z" fill="url(#SVGID_35_)"/><path d="m309.591 43.901v24.978c0 4.233 3.637 7.839 8.61 8.568 19.303 2.83 41.676 4.449 65.533 4.449s46.23-1.619 65.533-4.449c4.973-.729 8.61-4.335 8.61-8.568v-24.978c0-5.356-5.717-9.441-12.021-8.579h-124.244c-6.304-.862-12.021 3.223-12.021 8.579z" fill="url(#SVGID_36_)"/><path d="m309.591 441.563v24.978c0 4.233 3.637 7.839 8.61 8.568 19.303 2.83 41.676 4.449 65.533 4.449s46.23-1.619 65.533-4.449c4.973-.729 8.61-4.335 8.61-8.568v-24.978c0-5.356-5.717-9.441-12.021-8.579-18.508 2.532-39.653 3.97-62.122 3.97s-43.614-1.438-62.122-3.97c-6.304-.862-12.021 3.223-12.021 8.579z" fill="url(#SVGID_37_)"/></g><g><g><path d="m191.659 420.704c-2.292 0-4.498.366-6.565 1.041-2.211-7.212-8.921-12.456-16.857-12.456-9.736 0-17.629 7.893-17.629 17.629 0 1.407.166 2.775.477 4.086-8.309.586-14.868 7.511-14.868 15.969 0 8.842 7.168 16.01 16.01 16.01h39.432c11.675 0 21.14-9.465 21.14-21.14 0-11.674-9.465-21.139-21.14-21.139z" fill="url(#SVGID_38_)"/><path d="m170.518 441.845c0 .857.052 1.703.151 2.533-.795.112-1.608.169-2.434.169-9.737 0-17.628-7.893-17.628-17.63 0-9.735 7.892-17.628 17.628-17.628 7.936 0 14.648 5.245 16.858 12.457-8.46 2.759-14.575 10.715-14.575 20.099z" fill="url(#SVGID_39_)"/><path d="m136.339 448.967c.981 7.902 7.72 14.017 15.887 14.017h39.432c9.176 0 16.985-5.847 19.909-14.017z" fill="url(#SVGID_40_)"/></g></g><g><g><g><path d="m147.71 291.487v150.23h-85.83v-101.23c0-5.13 4.15-9.28 9.28-9.28 1.23 0 2.44-.24 3.55-.71 1.11-.46 2.14-1.14 3.01-2.01l14.77-14.77 9.84-9.84c4.36-4.36 9.36-7.96 14.77-10.69 5.37-2.73 11.16-4.6 17.15-5.53 2.94-.47 5.92-.7 8.93-.7 1.25 0 2.38.51 3.2 1.33s1.33 1.95 1.33 3.2z" fill="url(#SVGID_41_)"/><path d="m134.25 287.657v154.06h-58.9v-107.508c0-2.146.853-4.204 2.37-5.721l14.77-14.77 9.84-9.84c4.36-4.36 9.36-7.96 14.77-10.69 5.37-2.731 11.16-4.601 17.15-5.531z" fill="url(#SVGID_42_)"/><path d="m117.1 293.187v148.53h-24.61v-128l9.84-9.84c4.36-4.36 9.36-7.96 14.77-10.69z" fill="url(#SVGID_43_)"/></g><path d="m55.658 433.826v16.554c0 2.806 2.41 5.195 5.706 5.679 12.793 1.875 27.62 2.948 43.431 2.948s30.638-1.073 43.431-2.948c3.296-.483 5.706-2.873 5.706-5.679v-16.554c0-3.55-3.789-6.257-7.967-5.685-12.266 1.678-26.28 2.631-41.171 2.631s-28.904-.953-41.171-2.631c-4.176-.572-7.965 2.135-7.965 5.685z" fill="url(#SVGID_44_)"/><path d="m55.658 433.826v16.554c0 2.806 2.41 5.195 5.706 5.679 12.793 1.875 27.62 2.948 43.431 2.948s30.638-1.073 43.431-2.948c3.296-.483 5.706-2.873 5.706-5.679v-16.554c0-3.55-3.789-6.257-7.967-5.685-12.266 1.678-26.28 2.631-41.171 2.631s-28.904-.953-41.171-2.631c-4.176-.572-7.965 2.135-7.965 5.685z" fill="url(#SVGID_45_)"/><path d="m47.591 450.243v19.272c0 3.266 2.806 6.048 6.643 6.611 14.893 2.183 32.154 3.432 50.561 3.432s35.668-1.249 50.561-3.432c3.837-.563 6.643-3.345 6.643-6.611v-19.272c0-4.132-4.411-7.284-9.275-6.619-14.28 1.953-30.594 3.063-47.93 3.063s-33.65-1.11-47.93-3.063c-4.862-.665-9.273 2.487-9.273 6.619z" fill="url(#SVGID_46_)"/></g></g><path d="m143.18 286.957c-3.01 0-5.99.23-8.93.7-5.99.93-11.78 2.8-17.15 5.53-5.41 2.73-10.41 6.33-14.77 10.69l-9.84 9.84-14.77 14.77c-.87.87-1.9 1.55-3.01 2.01-1.132.479-2.369.72-3.624.71-5.097-.04-9.206 4.183-9.206 9.28v10.901c2.609 1.627 5.674 2.569 8.932 2.569h6.627c2.582 0 4.511-2.138 4.563-4.719.05-2.511 2.101-4.531 4.624-4.531 9.044 0 16.375-7.331 16.375-16.375v-2.5c0-6.051 4.832-10.975 10.848-11.122 3.781-.092 7.171 3.054 7.152 6.836-.019 3.813 3.066 6.91 6.875 6.91 10.955 0 19.835-8.88 19.835-19.835v-17.135c0-1.25-.51-2.38-1.33-3.2-.821-.819-1.951-1.329-3.201-1.329z" fill="url(#SVGID_47_)"/><path d="m158.906 484.349h-31.974l25.654 25.652h31.974z" fill="url(#SVGID_48_)"/><path d="m129.547 485.98h25.971c4.47 0 6.708-5.404 3.548-8.564l-4.193-4.192c-2.61-2.61-6.15-4.076-9.841-4.076h-4.486c-7.686 0-13.917 6.23-13.917 13.916.002 1.611 1.307 2.916 2.918 2.916z" fill="url(#SVGID_49_)"/></g></svg>