<svg id="Capa_1" enable-background="new 0 0 510 510" height="512" viewBox="0 0 510 510" width="512" xmlns="http://www.w3.org/2000/svg" xmlns:xlink="http://www.w3.org/1999/xlink"><linearGradient id="SVGID_1_" gradientUnits="userSpaceOnUse" x1="255" x2="255" y1="34.721" y2="483.763"><stop offset="0" stop-color="#c7e9ff"/><stop offset=".3556" stop-color="#a3e6f2"/><stop offset="1" stop-color="#65e0db"/></linearGradient><linearGradient id="lg1"><stop offset="0" stop-color="#edf5ff"/><stop offset="1" stop-color="#c7e9ff"/></linearGradient><linearGradient id="SVGID_2_" gradientUnits="userSpaceOnUse" x1="417.899" x2="476.499" xlink:href="#lg1" y1="127.555" y2="186.155"/><linearGradient id="SVGID_3_" gradientUnits="userSpaceOnUse" x1="324.781" x2="409.667" y1="80.819" y2="165.704"><stop offset="0" stop-color="#ffd945"/><stop offset=".3043" stop-color="#ffcd3e"/><stop offset=".8558" stop-color="#ffad2b"/><stop offset="1" stop-color="#ffa325"/></linearGradient><linearGradient id="lg2"><stop offset="0" stop-color="#bada00"/><stop offset=".2187" stop-color="#b6d600"/><stop offset=".4501" stop-color="#acc900"/><stop offset=".6873" stop-color="#9ab400"/><stop offset=".9271" stop-color="#829700"/><stop offset="1" stop-color="#798c00"/></linearGradient><linearGradient id="SVGID_4_" gradientUnits="userSpaceOnUse" x1="215.225" x2="298.337" xlink:href="#lg2" y1="214.842" y2="326.917"/><linearGradient id="lg3"><stop offset="0" stop-color="#43765a" stop-opacity="0"/><stop offset="1" stop-color="#43765a"/></linearGradient><linearGradient id="SVGID_5_" gradientUnits="userSpaceOnUse" x1="330.897" x2="186.493" xlink:href="#lg3" y1="225.084" y2="184.785"/><linearGradient id="SVGID_6_" gradientUnits="userSpaceOnUse" x1="136.502" x2="234.002" xlink:href="#lg2" y1="239.901" y2="329.401"/><linearGradient id="SVGID_7_" gradientUnits="userSpaceOnUse" x1="229.101" x2="117.601" xlink:href="#lg3" y1="266.138" y2="203.138"/><linearGradient id="SVGID_8_" gradientUnits="userSpaceOnUse" x1="228.147" x2="284.542" xlink:href="#lg2" y1="292.247" y2="348.642"/><linearGradient id="SVGID_9_" gradientUnits="userSpaceOnUse" x1="311.939" x2="263.273" xlink:href="#lg3" y1="293.964" y2="342.63"/><linearGradient id="lg4"><stop offset="0" stop-color="#1b444f" stop-opacity="0"/><stop offset="1" stop-color="#1b444f"/></linearGradient><linearGradient id="SVGID_10_" gradientUnits="userSpaceOnUse" x1="255" x2="255" xlink:href="#lg4" y1="282.209" y2="337.291"/><linearGradient id="SVGID_11_" gradientUnits="userSpaceOnUse" x1="255" x2="255" xlink:href="#lg2" y1="309.918" y2="485.992"/><linearGradient id="SVGID_12_" gradientUnits="userSpaceOnUse" x1="197.071" x2="310.071" y1="378.048" y2="552.048"><stop offset="0" stop-color="#5a7587"/><stop offset="1" stop-color="#092a40"/></linearGradient><linearGradient id="SVGID_13_" gradientUnits="userSpaceOnUse" x1="211.106" x2="330.415" xlink:href="#lg1" y1="424.252" y2="424.252"/><linearGradient id="SVGID_14_" gradientUnits="userSpaceOnUse" x1="300.759" x2="400.046" xlink:href="#lg1" y1="347.111" y2="499.996"/><linearGradient id="SVGID_15_" gradientUnits="userSpaceOnUse" x1="247.381" x2="247.801" xlink:href="#lg1" y1="332.62" y2="333.267"/><linearGradient id="SVGID_16_" gradientUnits="userSpaceOnUse" x1="154.466" x2="205.22" xlink:href="#lg1" y1="380.046" y2="458.198"/><linearGradient id="lg5"><stop offset="0" stop-color="#c59b6d"/><stop offset="1" stop-color="#8b6239"/></linearGradient><linearGradient id="SVGID_17_" gradientUnits="userSpaceOnUse" x1="48.149" x2="94.311" xlink:href="#lg5" y1="348.921" y2="348.921"/><linearGradient id="SVGID_18_" gradientUnits="userSpaceOnUse" x1="59.428" x2="40.518" xlink:href="#lg5" y1="361.054" y2="361.054"/><linearGradient id="SVGID_19_" gradientUnits="userSpaceOnUse" x1="85.457" x2="53.882" xlink:href="#lg5" y1="342.511" y2="342.511"/><linearGradient id="lg6"><stop offset="0" stop-color="#754c24" stop-opacity="0"/><stop offset="1" stop-color="#754c24"/></linearGradient><linearGradient id="SVGID_20_" gradientUnits="userSpaceOnUse" x1="60.007" x2="60.007" xlink:href="#lg6" y1="354.499" y2="326.711"/><linearGradient id="lg7"><stop offset="0" stop-color="#798c00"/><stop offset="1" stop-color="#1b444f"/></linearGradient><linearGradient id="SVGID_21_" gradientUnits="userSpaceOnUse" x1="24.602" x2="105.131" xlink:href="#lg7" y1="270.341" y2="326.454"/><linearGradient id="SVGID_22_" gradientUnits="userSpaceOnUse" x1="67.508" x2="67.508" xlink:href="#lg4" y1="321.963" y2="280.282"/><linearGradient id="SVGID_23_" gradientUnits="userSpaceOnUse" x1="30.985" x2="96.996" xlink:href="#lg7" y1="240.844" y2="286.841"/><linearGradient id="SVGID_24_" gradientUnits="userSpaceOnUse" x1="68.273" x2="68.273" xlink:href="#lg4" y1="275.98" y2="238.799"/><linearGradient id="SVGID_25_" gradientUnits="userSpaceOnUse" x1="36.103" x2="90.473" xlink:href="#lg7" y1="208.026" y2="245.911"/><linearGradient id="SVGID_26_" gradientUnits="userSpaceOnUse" x1="430.648" x2="465.856" xlink:href="#lg5" y1="352.332" y2="352.332"/><linearGradient id="SVGID_27_" gradientUnits="userSpaceOnUse" x1="439.251" x2="424.827" xlink:href="#lg5" y1="361.585" y2="361.585"/><linearGradient id="SVGID_28_" gradientUnits="userSpaceOnUse" x1="459.103" x2="435.02" xlink:href="#lg5" y1="347.442" y2="347.442"/><linearGradient id="SVGID_29_" gradientUnits="userSpaceOnUse" x1="439.692" x2="439.692" xlink:href="#lg6" y1="356.586" y2="335.391"/><linearGradient id="SVGID_30_" gradientUnits="userSpaceOnUse" x1="412.688" x2="474.109" xlink:href="#lg7" y1="292.397" y2="335.196"/><linearGradient id="SVGID_31_" gradientUnits="userSpaceOnUse" x1="445.413" x2="445.413" xlink:href="#lg4" y1="331.77" y2="299.979"/><linearGradient id="SVGID_32_" gradientUnits="userSpaceOnUse" x1="417.556" x2="467.904" xlink:href="#lg7" y1="269.899" y2="304.982"/><linearGradient id="SVGID_33_" gradientUnits="userSpaceOnUse" x1="445.996" x2="445.996" xlink:href="#lg4" y1="296.698" y2="268.34"/><linearGradient id="SVGID_34_" gradientUnits="userSpaceOnUse" x1="421.46" x2="462.929" xlink:href="#lg7" y1="244.868" y2="273.764"/><linearGradient id="SVGID_35_" gradientUnits="userSpaceOnUse" x1="133.578" x2="178.184" xlink:href="#lg7" y1="412.088" y2="456.693"/><linearGradient id="SVGID_36_" gradientUnits="userSpaceOnUse" x1="150.783" x2="179.482" xlink:href="#lg4" y1="417.947" y2="412.111"/><linearGradient id="SVGID_37_" gradientUnits="userSpaceOnUse" x1="156.598" x2="156.598" xlink:href="#lg4" y1="445.548" y2="458.852"/><linearGradient id="SVGID_38_" gradientUnits="userSpaceOnUse" x1="117.698" x2="161.651" xlink:href="#lg5" y1="410.752" y2="410.752"/><linearGradient id="SVGID_39_" gradientUnits="userSpaceOnUse" x1="128.437" x2="110.432" xlink:href="#lg5" y1="422.304" y2="422.304"/><linearGradient id="SVGID_40_" gradientUnits="userSpaceOnUse" x1="153.221" x2="123.156" xlink:href="#lg5" y1="404.648" y2="404.648"/><linearGradient id="SVGID_41_" gradientUnits="userSpaceOnUse" x1="128.988" x2="128.988" xlink:href="#lg6" y1="416.062" y2="389.604"/><linearGradient id="SVGID_42_" gradientUnits="userSpaceOnUse" x1="86.701" x2="126.701" xlink:href="#lg7" y1="327.035" y2="360.368"/><linearGradient id="SVGID_43_" gradientUnits="userSpaceOnUse" x1="136.131" x2="136.131" xlink:href="#lg4" y1="385.083" y2="345.396"/><linearGradient id="SVGID_44_" gradientUnits="userSpaceOnUse" x1="97.673" x2="133.673" xlink:href="#lg7" y1="301.523" y2="336.19"/><linearGradient id="SVGID_45_" gradientUnits="userSpaceOnUse" x1="136.859" x2="136.859" xlink:href="#lg4" y1="341.299" y2="305.898"/><linearGradient id="SVGID_46_" gradientUnits="userSpaceOnUse" x1="86.898" x2="135.898" xlink:href="#lg7" y1="249.761" y2="307.427"/><linearGradient id="SVGID_47_" gradientUnits="userSpaceOnUse" x1="399.402" x2="430.279" xlink:href="#lg5" y1="406.777" y2="406.777"/><linearGradient id="SVGID_48_" gradientUnits="userSpaceOnUse" x1="406.946" x2="394.298" xlink:href="#lg5" y1="414.892" y2="414.892"/><linearGradient id="SVGID_49_" gradientUnits="userSpaceOnUse" x1="424.357" x2="403.236" xlink:href="#lg5" y1="402.489" y2="402.489"/><linearGradient id="SVGID_50_" gradientUnits="userSpaceOnUse" x1="407.333" x2="407.333" xlink:href="#lg6" y1="410.507" y2="391.92"/><linearGradient id="SVGID_51_" gradientUnits="userSpaceOnUse" x1="377.627" x2="405.727" xlink:href="#lg7" y1="347.966" y2="371.382"/><linearGradient id="SVGID_52_" gradientUnits="userSpaceOnUse" x1="412.351" x2="412.351" xlink:href="#lg4" y1="388.745" y2="360.864"/><linearGradient id="SVGID_53_" gradientUnits="userSpaceOnUse" x1="385.335" x2="410.625" xlink:href="#lg7" y1="330.044" y2="354.397"/><linearGradient id="SVGID_54_" gradientUnits="userSpaceOnUse" x1="412.862" x2="412.862" xlink:href="#lg4" y1="357.987" y2="333.117"/><linearGradient id="SVGID_55_" gradientUnits="userSpaceOnUse" x1="377.765" x2="412.187" xlink:href="#lg7" y1="293.681" y2="334.192"/><linearGradient id="SVGID_56_" gradientUnits="userSpaceOnUse" x1="60.698" x2="124.162" xlink:href="#lg5" y1="467.541" y2="467.541"/><linearGradient id="SVGID_57_" gradientUnits="userSpaceOnUse" x1="76.205" x2="50.206" xlink:href="#lg5" y1="484.222" y2="484.222"/><linearGradient id="SVGID_58_" gradientUnits="userSpaceOnUse" x1="111.99" x2="68.579" xlink:href="#lg5" y1="458.727" y2="458.727"/><linearGradient id="SVGID_59_" gradientUnits="userSpaceOnUse" x1="77" x2="77" xlink:href="#lg6" y1="500.203" y2="461.999"/><linearGradient id="SVGID_60_" gradientUnits="userSpaceOnUse" x1="28.324" x2="139.04" xlink:href="#lg2" y1="384.499" y2="461.646"/><linearGradient id="SVGID_61_" gradientUnits="userSpaceOnUse" x1="87.313" x2="87.313" xlink:href="#lg3" y1="455.472" y2="398.166"/><linearGradient id="SVGID_62_" gradientUnits="userSpaceOnUse" x1="37.1" x2="127.855" xlink:href="#lg2" y1="343.945" y2="407.184"/><linearGradient id="SVGID_63_" gradientUnits="userSpaceOnUse" x1="88.365" x2="88.365" xlink:href="#lg3" y1="392.251" y2="341.134"/><linearGradient id="SVGID_64_" gradientUnits="userSpaceOnUse" x1="44.136" x2="118.887" xlink:href="#lg2" y1="298.825" y2="350.912"/><linearGradient id="SVGID_65_" gradientUnits="userSpaceOnUse" x1="436.7" x2="486.559" xlink:href="#lg5" y1="447.581" y2="447.581"/><linearGradient id="SVGID_66_" gradientUnits="userSpaceOnUse" x1="448.882" x2="428.457" xlink:href="#lg5" y1="460.685" y2="460.685"/><linearGradient id="SVGID_67_" gradientUnits="userSpaceOnUse" x1="476.995" x2="442.891" xlink:href="#lg5" y1="440.657" y2="440.657"/><linearGradient id="SVGID_68_" gradientUnits="userSpaceOnUse" x1="449.507" x2="449.507" xlink:href="#lg6" y1="473.24" y2="443.227"/><linearGradient id="SVGID_69_" gradientUnits="userSpaceOnUse" x1="411.266" x2="498.246" xlink:href="#lg2" y1="382.341" y2="442.95"/><linearGradient id="SVGID_70_" gradientUnits="userSpaceOnUse" x1="457.609" x2="457.609" xlink:href="#lg3" y1="438.099" y2="393.078"/><linearGradient id="SVGID_71_" gradientUnits="userSpaceOnUse" x1="418.161" x2="489.459" xlink:href="#lg2" y1="350.482" y2="400.163"/><linearGradient id="SVGID_72_" gradientUnits="userSpaceOnUse" x1="458.435" x2="458.435" xlink:href="#lg3" y1="388.432" y2="348.273"/><linearGradient id="SVGID_73_" gradientUnits="userSpaceOnUse" x1="423.689" x2="482.414" xlink:href="#lg2" y1="315.035" y2="355.955"/><linearGradient id="SVGID_74_" gradientUnits="userSpaceOnUse" x1="411.447" x2="450.635" xlink:href="#lg7" y1="470.698" y2="509.887"/><linearGradient id="SVGID_75_" gradientUnits="userSpaceOnUse" x1="426.562" x2="451.776" xlink:href="#lg4" y1="475.845" y2="470.718"/><linearGradient id="SVGID_76_" gradientUnits="userSpaceOnUse" x1="431.671" x2="431.671" xlink:href="#lg4" y1="500.095" y2="511.784"/><linearGradient id="SVGID_77_" gradientUnits="userSpaceOnUse" x1="72.126" x2="147.642" xlink:href="#lg1" y1="106.711" y2="182.226"/><linearGradient id="SVGID_78_" gradientUnits="userSpaceOnUse" x1="147.52" x2="179.143" xlink:href="#lg1" y1="73.547" y2="105.17"/><g><path d="m485.638 510h-461.276c-13.455 0-24.362-10.907-24.362-24.362v-461.276c0-13.455 10.907-24.362 24.362-24.362h461.275c13.456 0 24.363 10.907 24.363 24.362v461.275c0 13.456-10.907 24.363-24.362 24.363z" fill="url(#SVGID_1_)"/><path d="m463.433 133.258h-7.964c0-9.968-8.081-18.049-18.049-18.049h-35.6c-9.968 0-18.049 8.081-18.049 18.049s8.081 18.049 18.049 18.049h7.963c0 9.968 8.081 18.049 18.049 18.049h35.6c9.968 0 18.049-8.081 18.049-18.049 0-9.968-8.08-18.049-18.048-18.049z" fill="url(#SVGID_2_)"/><circle cx="346.114" cy="102.152" fill="url(#SVGID_3_)" r="66.943"/><g><path d="m130.559 332.694 106.537-240.49c5.449-12.3 22.878-12.37 28.426-.115l10.559 23.323c3.648 8.059 14.856 8.681 19.374 1.074 4.401-7.411 15.244-7.059 19.156.621l109.794 215.587z" fill="url(#SVGID_4_)"/><path d="m314.611 117.107c-3.911-7.68-14.755-8.032-19.156-.621-4.517 7.606-15.725 6.985-19.374-1.074l-10.559-23.323c-2.883-6.368-8.974-9.4-14.925-9.125h-.001l20.752 57.75c1.897 5.278-2.015 10.841-7.624 10.841-6.027 0-9.944 6.347-7.241 11.734l37.508 74.765c5.526 11.014-2.482 23.991-14.805 23.991-11.915 0-19.933 12.204-15.202 23.14l20.553 47.51h139.867z" fill="url(#SVGID_5_)"/></g><g><path d="m212.982 172.34c-8.81-15.685-28.509-15.685-37.319 0l-90.068 160.354h217.456z" fill="url(#SVGID_6_)"/><path d="m212.982 172.34c-7.413-13.198-22.534-15.288-32.392-6.275l21.83 43.392c3.385 6.728-1.506 14.664-9.038 14.664-7.318 0-12.215 7.529-9.249 14.218l18.324 41.323c3.453 7.787-2.248 16.551-10.766 16.551-8.5 0-14.2 8.729-10.783 16.512l8.768 19.969h113.373z" fill="url(#SVGID_7_)"/></g><g><path d="m313.433 281.209h-26.496c-8.378 0-16.414-3.328-22.338-9.253-12.337-12.337-32.339-12.337-44.676 0l-60.738 60.738h218.818l-42.232-42.232c-5.925-5.925-13.96-9.253-22.338-9.253z" fill="url(#SVGID_8_)"/><path d="m335.771 290.462c-5.924-5.924-13.96-9.253-22.338-9.253h-26.496c-8.292 0-16.344-3.167-22.162-9.075-7.237-7.35-17.17-10.397-26.646-9.153l35.672 35.672c6.252 6.252 14.732 9.765 23.575 9.765 8.842 0 17.322 3.513 23.575 9.765l14.512 14.511h42.542z" fill="url(#SVGID_9_)"/></g><path d="m85.595 332.694h44.964 172.492 121.354l-44.273-86.932h-245.708z" fill="url(#SVGID_10_)"/><path d="m510 485.638v-152.944h-510v152.944c0 13.455 10.907 24.362 24.362 24.362h461.275c13.456 0 24.363-10.907 24.363-24.362z" fill="url(#SVGID_11_)"/><path d="m255.773 332.694c-151.56 27.573-78.1 48.515-37.117 68.06 40.983 19.546 23.971 39.44-32.477 61.08s-83.512 48.166-83.512 48.166h295.387c-109.804-44.327 9.279-38.044 9.279-80.276 0-39.44-133.341-47.859-143.125-70.329-8.435-19.371 51.107-26.701 51.107-26.701z" fill="url(#SVGID_12_)"/><path d="m236.818 497.511c-.685 0-1.379-.094-2.069-.292-3.982-1.141-6.285-5.293-5.145-9.276 2.575-8.987 8.481-16.833 17.554-23.321 3.372-2.411 8.055-1.629 10.463 1.739 2.409 3.37 1.631 8.054-1.738 10.463-6.25 4.468-10.239 9.599-11.858 15.25-.944 3.292-3.945 5.437-7.207 5.437zm45.949-34.021c-2.873 0-5.615-1.661-6.857-4.456-1.683-3.785.022-8.217 3.808-9.899 8.209-3.648 15.271-7.32 20.992-10.914 3.507-2.202 8.139-1.146 10.34 2.362 2.204 3.508 1.146 8.137-2.361 10.34-6.323 3.972-14.021 7.981-22.879 11.918-.992.441-2.026.649-3.043.649zm40.149-37.751c-2.922 0-5.699-1.718-6.909-4.578-.63-1.486-3.387-5.423-15.369-9.876-3.883-1.443-5.861-5.76-4.418-9.643 1.443-3.882 5.761-5.861 9.643-4.417 13.016 4.837 20.853 10.754 23.957 18.089 1.615 3.814-.168 8.216-3.982 9.831-.955.403-1.946.594-2.922.594zm-53.054-23.339c-.653 0-1.317-.086-1.978-.266-9.842-2.684-17.552-5.077-24.265-7.533-3.891-1.423-5.891-5.73-4.468-9.62 1.423-3.889 5.733-5.891 9.62-4.467 6.307 2.307 13.634 4.578 23.058 7.148 3.997 1.09 6.353 5.212 5.263 9.209-.908 3.336-3.932 5.529-7.23 5.529zm-51.213-26.469c-3.441 0-6.812-2.334-7.316-5.882-2.583-18.173 17.665-21.337 19.75-17.757 2.083 3.58-7.083 5.167-5.104 14.517.973 4.598-1.659 8.048-5.703 8.943-.546.121-1.09.179-1.627.179z" fill="url(#SVGID_13_)"/><path d="m414.337 429.724c0-39.44-133.341-47.859-143.125-70.329-8.435-19.371 51.107-26.701 51.107-26.701h-25.666s-59.542 7.33-51.107 26.701c9.784 22.47 143.125 30.889 143.125 70.329 0 42.232-119.083 35.95-9.279 80.276h25.667c-109.804-44.327 9.278-38.044 9.278-80.276z" fill="url(#SVGID_14_)"/><path d="m246.374 333.134c.795-.147 1.588-.293 2.395-.44z" fill="url(#SVGID_15_)"/><path d="m232.191 400.754c-40.765-19.441-113.652-40.704 34.722-68.06h-20.539c-148.374 27.356-75.486 48.619-34.722 68.06 40.983 19.545 23.971 39.44-32.477 61.08s-83.512 48.166-83.512 48.166h20.539s27.064-26.526 83.513-48.166c56.447-21.64 73.459-41.534 32.476-61.08z" fill="url(#SVGID_16_)"/><g><path d="m46.304 318.039h27.406v61.765h-27.406z" fill="url(#SVGID_17_)"/><path d="m58.271 379.804h-8.676v-33.162c0-2.396 1.942-4.338 4.338-4.338 2.396 0 4.338 1.942 4.338 4.338z" fill="url(#SVGID_18_)"/><path d="m62.031 339.026c2.076 0 3.76 1.683 3.76 3.76v20.437c0 2.076 1.683 3.76 3.76 3.76h.4c2.076 0 3.76-1.683 3.76-3.76v-45.184h-15.44v17.228c0 2.076 1.684 3.759 3.76 3.759z" fill="url(#SVGID_19_)"/></g><path d="m73.709 318.042v43.583l-27.226-27.226-.179 2.354v-18.711z" fill="url(#SVGID_20_)"/><g><path d="m111.872 302.696-43.592-66.492c-3.907-5.959-12.642-5.959-16.549 0l-42.403 64.68-2.463 3.563c-2.084 2.92-3.181 6.593-2.785 10.537.721 7.174 6.509 12.999 13.679 13.758 2.719.288 5.311-.133 7.617-1.1 3.466-1.452 7.465-.568 10.092 2.12 2.797 2.861 6.696 4.638 11.015 4.638 3.145 0 6.07-.941 8.509-2.558 3.03-2.008 6.998-2.008 10.028 0 2.439 1.616 5.364 2.558 8.509 2.558 4.319 0 8.218-1.777 11.015-4.638 2.627-2.687 6.626-3.572 10.092-2.12 2.307.966 4.898 1.388 7.617 1.1 7.17-.759 12.958-6.583 13.679-13.758.413-4.109-.795-7.922-3.051-10.898-.345-.457-.694-.911-1.009-1.39z" fill="url(#SVGID_21_)"/><path d="m115.933 314.982c-.723 7.178-6.507 13.003-13.679 13.76-2.718.289-5.31-.133-7.618-1.099-3.465-1.452-7.467-.567-10.093 2.117-2.794 2.863-6.692 4.639-11.013 4.639-3.147 0-6.067-.943-8.508-2.557-.243-.162-.497-.312-.752-.451l-45.266-45.266 32.726-49.922c3.91-5.958 12.644-5.958 16.554 0l43.589 66.494c.312.48.665.931 1.012 1.388 2.255 2.978 3.459 6.79 3.048 10.897z" fill="url(#SVGID_22_)"/><path d="m102.522 267.366-35.733-54.505c-3.202-4.885-10.363-4.885-13.565 0l-34.759 53.02-2.019 2.921c-1.709 2.394-2.608 5.404-2.283 8.637.591 5.881 5.335 10.655 11.213 11.277 2.229.236 4.353-.109 6.244-.901 2.841-1.19 6.119-.465 8.273 1.737 2.293 2.345 5.488 3.802 9.029 3.802 2.578 0 4.976-.772 6.975-2.096 2.484-1.646 5.737-1.646 8.22 0 1.999 1.325 4.397 2.096 6.975 2.096 3.541 0 6.736-1.456 9.029-3.802 2.153-2.203 5.432-2.928 8.273-1.737 1.891.792 4.015 1.137 6.244.901 5.877-.622 10.622-5.397 11.213-11.277.338-3.368-.651-6.494-2.501-8.933-.284-.375-.571-.747-.828-1.14z" fill="url(#SVGID_23_)"/><path d="m105.851 277.437c-.59 5.882-5.339 10.654-11.215 11.279-2.227.237-4.35-.11-6.241-.902-2.84-1.191-6.12-.463-8.277 1.735-1.226 1.255-2.707 2.256-4.361 2.909l-45.127-45.133 22.593-34.462c3.204-4.888 10.365-4.888 13.569 0l35.728 54.503c.26.393.544.763.827 1.14 1.851 2.436 2.84 5.565 2.504 8.931z" fill="url(#SVGID_24_)"/><path d="m95.024 229.871-29.431-44.893c-2.638-4.023-8.535-4.023-11.173 0l-28.629 43.67-1.663 2.405c-1.407 1.972-2.148 4.451-1.88 7.114.487 4.844 4.394 8.776 9.235 9.289 1.836.194 3.586-.09 5.143-.742 2.34-.98 5.04-.383 6.814 1.431 1.888 1.932 4.521 3.131 7.437 3.131 2.124 0 4.098-.636 5.745-1.727 2.046-1.355 4.725-1.355 6.771 0 1.647 1.091 3.621 1.727 5.745 1.727 2.916 0 5.549-1.199 7.437-3.131 1.774-1.814 4.474-2.411 6.814-1.431 1.557.653 3.307.937 5.143.742 4.841-.512 8.749-4.445 9.235-9.289.279-2.774-.537-5.349-2.06-7.358-.235-.308-.471-.615-.683-.938z" fill="url(#SVGID_25_)"/></g><g><path d="m429.24 328.777h20.903v47.109h-20.903z" fill="url(#SVGID_26_)"/><path d="m438.368 375.886h-6.617v-25.293c0-1.827 1.481-3.309 3.309-3.309 1.827 0 3.309 1.481 3.309 3.309v25.293z" fill="url(#SVGID_27_)"/><path d="m441.236 344.784c1.584 0 2.868 1.284 2.868 2.868v15.588c0 1.584 1.284 2.868 2.868 2.868h.305c1.584 0 2.868-1.284 2.868-2.868v-34.463h-11.775v13.14c-.002 1.584 1.282 2.867 2.866 2.867z" fill="url(#SVGID_28_)"/></g><path d="m450.143 328.779v33.242l-20.766-20.766-.136 1.796v-14.272z" fill="url(#SVGID_29_)"/><g><path d="m479.251 317.075-33.248-50.715c-2.98-4.545-9.642-4.545-12.622 0l-32.342 49.333-1.879 2.717c-1.59 2.227-2.426 5.028-2.124 8.037.55 5.472 4.964 9.914 10.433 10.493 2.074.219 4.051-.102 5.81-.839 2.644-1.108 5.694-.433 7.698 1.617 2.133 2.182 5.107 3.537 8.401 3.537 2.399 0 4.63-.718 6.49-1.951 2.311-1.531 5.338-1.531 7.649 0 1.86 1.233 4.091 1.951 6.49 1.951 3.294 0 6.268-1.355 8.401-3.537 2.004-2.05 5.054-2.724 7.698-1.617 1.759.737 3.736 1.058 5.81.839 5.469-.579 9.883-5.021 10.433-10.493.315-3.134-.606-6.042-2.327-8.312-.265-.348-.532-.695-.771-1.06z" fill="url(#SVGID_30_)"/><path d="m482.348 326.445c-.551 5.475-4.963 9.917-10.434 10.495-2.073.221-4.05-.101-5.81-.838-2.643-1.107-5.695-.432-7.698 1.615-2.131 2.184-5.104 3.538-8.4 3.538-2.4 0-4.628-.719-6.49-1.95-.185-.124-.379-.238-.573-.344l-34.525-34.525 24.961-38.077c2.982-4.544 9.644-4.544 12.626 0l33.246 50.716c.238.366.507.71.772 1.059 1.72 2.272 2.638 5.179 2.325 8.311z" fill="url(#SVGID_31_)"/><path d="m472.119 290.128-27.254-41.572c-2.443-3.726-7.904-3.726-10.346 0l-26.511 40.439-1.54 2.228c-1.303 1.826-1.989 4.122-1.741 6.588.451 4.485 4.069 8.127 8.552 8.601 1.7.18 3.32-.083 4.763-.688 2.167-.908 4.667-.355 6.31 1.325 1.749 1.789 4.186 2.9 6.887 2.9 1.967 0 3.795-.589 5.32-1.599 1.894-1.255 4.375-1.255 6.27 0 1.525 1.01 3.353 1.599 5.32 1.599 2.701 0 5.138-1.111 6.887-2.9 1.642-1.68 4.143-2.233 6.31-1.325 1.442.604 3.063.867 4.763.688 4.483-.474 8.101-4.116 8.552-8.601.258-2.569-.497-4.953-1.907-6.813-.22-.287-.439-.571-.635-.87z" fill="url(#SVGID_32_)"/><path d="m474.658 297.81c-.45 4.487-4.072 8.126-8.554 8.603-1.698.181-3.318-.084-4.76-.688-2.166-.909-4.667-.353-6.313 1.323-.935.957-2.065 1.721-3.326 2.219l-34.419-34.424 17.232-26.284c2.444-3.728 7.906-3.728 10.35 0l27.251 41.571c.199.3.415.582.631.869 1.41 1.856 2.164 4.243 1.908 6.811z" fill="url(#SVGID_33_)"/><path d="m466.4 261.53-22.448-34.241c-2.012-3.069-6.51-3.069-8.522 0l-21.836 33.308-1.268 1.835c-1.073 1.504-1.638 3.395-1.434 5.426.371 3.694 3.352 6.694 7.044 7.085 1.4.148 2.735-.069 3.923-.566 1.785-.748 3.844-.292 5.197 1.091 1.44 1.473 3.448 2.388 5.672 2.388 1.62 0 3.126-.485 4.382-1.317 1.56-1.034 3.604-1.034 5.164 0 1.256.832 2.762 1.317 4.382 1.317 2.224 0 4.232-.915 5.672-2.388 1.353-1.384 3.412-1.839 5.197-1.091 1.188.498 2.522.715 3.923.566 3.692-.391 6.673-3.39 7.044-7.085.213-2.116-.409-4.079-1.571-5.612-.179-.236-.359-.47-.521-.716z" fill="url(#SVGID_34_)"/></g><g><g><path d="m175.639 411.352c-2.465 0-4.837.394-7.06 1.119-2.377-7.756-9.594-13.396-18.129-13.396-10.471 0-18.96 8.488-18.96 18.96 0 1.513.178 2.984.513 4.395-8.936.63-15.99 8.078-15.99 17.174 0 9.509 7.709 17.218 17.218 17.218h42.408c12.556 0 22.735-10.179 22.735-22.735s-10.179-22.735-22.735-22.735z" fill="url(#SVGID_35_)"/><path d="m152.903 434.088c0 .922.055 1.831.163 2.724-.855.121-1.73.182-2.617.182-10.471 0-18.958-8.489-18.958-18.96 0-10.469 8.487-18.958 18.958-18.958 8.535 0 15.754 5.64 18.13 13.397-9.1 2.967-15.676 11.523-15.676 21.615z" fill="url(#SVGID_36_)"/><path d="m116.146 441.747c1.055 8.498 8.302 15.075 17.086 15.075h42.408c9.868 0 18.267-6.288 21.411-15.075z" fill="url(#SVGID_37_)"/></g></g><g><path d="m115.941 381.346h26.095v58.811h-26.095z" fill="url(#SVGID_38_)"/><path d="m127.336 440.157h-8.261v-31.576c0-2.281 1.849-4.131 4.131-4.131 2.281 0 4.131 1.849 4.131 4.131v31.576z" fill="url(#SVGID_39_)"/><path d="m130.916 401.33c1.977 0 3.58 1.603 3.58 3.58v19.459c0 1.977 1.603 3.58 3.58 3.58h.38c1.977 0 3.58-1.603 3.58-3.58v-43.023h-14.7v16.404c0 1.977 1.603 3.58 3.58 3.58z" fill="url(#SVGID_40_)"/></g><path d="m142.035 381.349v41.498l-25.923-25.923-.171 2.242v-17.817z" fill="url(#SVGID_41_)"/><g><path d="m178.373 366.738-41.506-63.312c-3.72-5.674-12.037-5.674-15.757 0l-40.375 61.587-2.345 3.392c-1.985 2.781-3.029 6.277-2.652 10.033.686 6.831 6.197 12.377 13.024 13.099 2.589.274 5.057-.127 7.253-1.047 3.3-1.383 7.108-.541 9.61 2.018 2.663 2.724 6.375 4.416 10.488 4.416 2.995 0 5.78-.896 8.102-2.435 2.885-1.912 6.664-1.912 9.548 0 2.322 1.539 5.107 2.435 8.102 2.435 4.113 0 7.825-1.692 10.488-4.416 2.501-2.559 6.309-3.401 9.61-2.018 2.196.92 4.664 1.321 7.253 1.047 6.827-.723 12.338-6.269 13.024-13.099.393-3.912-.757-7.543-2.905-10.376-.33-.436-.663-.868-.962-1.324z" fill="url(#SVGID_42_)"/><path d="m182.239 378.436c-.688 6.835-6.196 12.381-13.025 13.102-2.588.275-5.056-.127-7.253-1.046-3.299-1.382-7.11-.54-9.61 2.016-2.66 2.726-6.372 4.417-10.486 4.417-2.996 0-5.777-.898-8.101-2.434-.231-.154-.474-.297-.716-.43l-43.101-43.101 31.161-47.534c3.723-5.673 12.039-5.673 15.762 0l41.504 63.313c.297.457.633.887.964 1.322 2.147 2.835 3.292 6.464 2.901 10.375z" fill="url(#SVGID_43_)"/><path d="m169.469 333.098-34.023-51.898c-3.049-4.651-9.867-4.651-12.916 0l-33.096 50.483-1.923 2.781c-1.627 2.279-2.483 5.145-2.174 8.224.563 5.599 5.08 10.145 10.676 10.738 2.122.225 4.145-.104 5.945-.858 2.705-1.133 5.827-.443 7.877 1.654 2.183 2.233 5.226 3.62 8.597 3.62 2.455 0 4.738-.735 6.641-1.996 2.365-1.567 5.462-1.567 7.827 0 1.904 1.261 4.186 1.996 6.641 1.996 3.371 0 6.414-1.387 8.597-3.62 2.05-2.098 5.172-2.788 7.877-1.654 1.8.754 3.823 1.083 5.945.858 5.596-.592 10.114-5.138 10.676-10.738.322-3.207-.62-6.183-2.381-8.506-.268-.356-.54-.71-.786-1.084z" fill="url(#SVGID_44_)"/><path d="m172.64 342.687c-.562 5.601-5.083 10.145-10.679 10.739-2.12.226-4.142-.105-5.942-.859-2.704-1.134-5.827-.441-7.881 1.652-1.168 1.195-2.577 2.148-4.153 2.77l-42.969-42.974 21.512-32.813c3.051-4.654 9.869-4.654 12.92 0l34.019 51.896c.248.375.518.727.788 1.085 1.762 2.319 2.704 5.299 2.385 8.504z" fill="url(#SVGID_45_)"/><path d="m162.331 297.396-28.023-42.746c-2.512-3.831-8.127-3.831-10.639 0l-27.26 41.581-1.583 2.29c-1.34 1.877-2.045 4.238-1.79 6.774.463 4.612 4.184 8.356 8.793 8.844 1.748.185 3.414-.086 4.897-.707 2.228-.934 4.799-.365 6.488 1.363 1.798 1.839 4.304 2.981 7.081 2.981 2.022 0 3.902-.605 5.47-1.644 1.948-1.291 4.499-1.291 6.447 0 1.568 1.039 3.448 1.644 5.47 1.644 2.777 0 5.283-1.142 7.081-2.981 1.689-1.728 4.26-2.296 6.488-1.363 1.483.621 3.149.892 4.897.707 4.609-.488 8.33-4.232 8.793-8.844.265-2.641-.511-5.093-1.961-7.006-.223-.293-.447-.585-.649-.893z" fill="url(#SVGID_46_)"/></g><g><path d="m398.168 386.119h18.332v41.314h-18.332z" fill="url(#SVGID_47_)"/><path d="m406.173 427.434h-5.803v-22.182c0-1.603 1.299-2.902 2.902-2.902 1.603 0 2.902 1.299 2.902 2.902v22.182z" fill="url(#SVGID_48_)"/><path d="m408.687 400.158c1.389 0 2.515 1.126 2.515 2.515v13.67c0 1.389 1.126 2.515 2.515 2.515h.267c1.389 0 2.515-1.126 2.515-2.515v-30.223h-10.326v11.523c0 1.389 1.126 2.515 2.514 2.515z" fill="url(#SVGID_49_)"/></g><path d="m416.499 386.121v29.153l-18.211-18.211-.12 1.574v-12.516z" fill="url(#SVGID_50_)"/><g><path d="m442.026 375.857-29.158-44.476c-2.613-3.986-8.456-3.986-11.069 0l-28.363 43.264-1.648 2.383c-1.394 1.953-2.128 4.41-1.863 7.048.482 4.799 4.353 8.695 9.149 9.202 1.819.193 3.552-.089 5.095-.736 2.318-.971 4.994-.38 6.751 1.418 1.871 1.914 4.479 3.102 7.368 3.102 2.104 0 4.06-.63 5.692-1.711 2.027-1.343 4.681-1.343 6.708 0 1.631 1.081 3.588 1.711 5.692 1.711 2.889 0 5.497-1.188 7.368-3.102 1.757-1.798 4.432-2.389 6.751-1.418 1.543.646 3.277.928 5.095.736 4.796-.508 8.667-4.404 9.149-9.202.276-2.748-.532-5.299-2.041-7.289-.232-.306-.466-.61-.676-.93z" fill="url(#SVGID_51_)"/><path d="m444.742 384.075c-.484 4.801-4.353 8.697-9.15 9.204-1.818.193-3.552-.089-5.095-.735-2.317-.971-4.995-.379-6.751 1.416-1.869 1.915-4.476 3.103-7.366 3.103-2.105 0-4.059-.631-5.691-1.71-.162-.108-.333-.209-.503-.302l-30.278-30.278 21.89-33.393c2.615-3.985 8.457-3.985 11.073 0l29.156 44.477c.209.321.445.623.677.929 1.508 1.992 2.312 4.542 2.038 7.289z" fill="url(#SVGID_52_)"/><path d="m435.771 352.225-23.901-36.458c-2.142-3.267-6.932-3.267-9.074 0l-23.25 35.464-1.351 1.953c-1.143 1.601-1.744 3.615-1.527 5.777.395 3.934 3.569 7.127 7.5 7.543 1.491.158 2.912-.073 4.177-.603 1.9-.796 4.093-.311 5.534 1.162 1.533 1.569 3.671 2.543 6.039 2.543 1.725 0 3.328-.516 4.665-1.402 1.661-1.101 3.837-1.101 5.498 0 1.337.886 2.941 1.402 4.665 1.402 2.368 0 4.506-.974 6.039-2.543 1.44-1.473 3.633-1.958 5.534-1.162 1.265.53 2.686.761 4.177.603 3.931-.416 7.105-3.61 7.5-7.543.226-2.253-.436-4.344-1.673-5.975-.188-.249-.38-.498-.552-.761z" fill="url(#SVGID_53_)"/><path d="m437.998 358.962c-.395 3.935-3.571 7.126-7.502 7.544-1.49.159-2.909-.073-4.175-.604-1.9-.797-4.093-.31-5.536 1.161-.82.84-1.811 1.509-2.917 1.946l-30.185-30.189 15.112-23.051c2.143-3.269 6.933-3.269 9.076 0l23.898 36.457c.174.263.364.511.553.762 1.239 1.629 1.901 3.722 1.676 5.974z" fill="url(#SVGID_54_)"/><path d="m430.756 327.145-19.686-30.028c-1.764-2.691-5.709-2.691-7.474 0l-19.15 29.21-1.112 1.609c-.941 1.319-1.437 2.977-1.258 4.758.325 3.24 2.939 5.87 6.177 6.213 1.228.13 2.398-.06 3.44-.497 1.565-.656 3.371-.256 4.558.957 1.263 1.292 3.024 2.094 4.974 2.094 1.421 0 2.741-.425 3.843-1.155 1.368-.907 3.161-.907 4.529 0 1.101.73 2.422 1.155 3.843 1.155 1.951 0 3.711-.802 4.974-2.094 1.186-1.214 2.992-1.613 4.558-.957 1.042.436 2.212.627 3.44.497 3.238-.343 5.852-2.973 6.177-6.213.186-1.855-.359-3.578-1.378-4.922-.155-.206-.313-.411-.455-.627z" fill="url(#SVGID_55_)"/></g><g><path d="m58.16 425.082h37.679v84.918h-37.679z" fill="url(#SVGID_56_)"/><path d="m74.614 510h-11.928v-45.593c0-3.294 2.67-5.964 5.964-5.964 3.294 0 5.964 2.67 5.964 5.964z" fill="url(#SVGID_57_)"/><path d="m79.783 453.937c2.855 0 5.169 2.314 5.169 5.169v28.098c0 2.855 2.314 5.169 5.169 5.169h.549c2.855 0 5.169-2.314 5.169-5.169v-62.121h-21.225v23.686c0 2.854 2.314 5.168 5.169 5.168z" fill="url(#SVGID_58_)"/></g><path d="m95.839 450.08v59.92l-37.431-37.431-.246 3.236v-25.725z" fill="url(#SVGID_59_)"/><g><path d="m148.308 428.982-59.932-91.417c-5.371-8.193-17.381-8.193-22.752 0l-58.298 88.926-3.387 4.898c-2.866 4.015-4.374 9.064-3.829 14.486.991 9.863 8.948 17.871 18.806 18.914 3.738.396 7.301-.183 10.473-1.512 4.765-1.996 10.264-.781 13.875 2.914 3.845 3.934 9.205 6.376 15.144 6.376 4.324 0 8.345-1.294 11.699-3.516 4.165-2.76 9.622-2.76 13.787 0 3.353 2.222 7.374 3.516 11.699 3.516 5.938 0 11.299-2.443 15.144-6.376 3.612-3.695 9.11-4.911 13.875-2.914 3.172 1.329 6.735 1.908 10.473 1.512 9.858-1.043 17.815-9.051 18.806-18.914.567-5.649-1.093-10.892-4.194-14.983-.477-.627-.957-1.251-1.389-1.91z" fill="url(#SVGID_60_)"/><path d="m153.89 445.873c-.994 9.869-8.946 17.877-18.807 18.918-3.738.398-7.3-.183-10.473-1.511-4.763-1.996-10.266-.779-13.877 2.91-3.841 3.936-9.201 6.378-15.141 6.378-4.326 0-8.342-1.296-11.698-3.515-.334-.223-.684-.429-1.034-.62l-62.233-62.233 44.994-68.636c5.376-8.191 17.384-8.191 22.759 0l59.928 91.419c.429.66.915 1.28 1.392 1.909 3.101 4.095 4.755 9.335 4.19 14.981z" fill="url(#SVGID_61_)"/><path d="m135.452 380.409-49.127-74.936c-4.403-6.716-14.247-6.716-18.65 0l-47.788 72.894-2.776 4.015c-2.349 3.291-3.585 7.43-3.139 11.875.812 8.085 7.335 14.649 15.416 15.504 3.064.324 5.985-.15 8.585-1.239 3.906-1.637 8.413-.64 11.374 2.389 3.152 3.224 7.546 5.227 12.414 5.227 3.545 0 6.841-1.061 9.589-2.882 3.414-2.262 7.887-2.262 11.302 0 2.749 1.821 6.045 2.882 9.589 2.882 4.868 0 9.262-2.002 12.414-5.227 2.961-3.029 7.468-4.025 11.374-2.389 2.6 1.089 5.52 1.564 8.585 1.239 8.081-.855 14.603-7.419 15.416-15.504.465-4.63-.896-8.928-3.438-12.282-.392-.514-.786-1.026-1.14-1.566z" fill="url(#SVGID_62_)"/><path d="m140.03 394.255c-.811 8.087-7.34 14.648-15.419 15.507-3.062.326-5.98-.151-8.58-1.241-3.905-1.638-8.413-.636-11.38 2.386-1.686 1.726-3.722 3.101-5.996 4l-62.043-62.051 31.061-47.379c4.406-6.72 14.25-6.72 18.656 0l49.121 74.934c.358.541.748 1.05 1.137 1.567 2.544 3.347 3.904 7.649 3.443 12.277z" fill="url(#SVGID_63_)"/><path d="m125.145 328.858-40.464-61.721c-3.626-5.532-11.735-5.532-15.361 0l-39.361 60.039-2.286 3.307c-1.935 2.711-2.953 6.119-2.585 9.781.669 6.659 6.041 12.066 12.697 12.77 2.524.267 4.93-.124 7.071-1.021 3.217-1.348 6.93-.527 9.368 1.967 2.596 2.656 6.215 4.305 10.225 4.305 2.92 0 5.634-.874 7.898-2.374 2.812-1.863 6.496-1.863 9.309 0 2.264 1.5 4.979 2.374 7.898 2.374 4.009 0 7.628-1.649 10.225-4.305 2.438-2.495 6.151-3.315 9.368-1.967 2.141.897 4.547 1.288 7.071 1.021 6.656-.704 12.028-6.111 12.697-12.77.383-3.814-.738-7.354-2.832-10.116-.322-.423-.647-.845-.938-1.29z" fill="url(#SVGID_64_)"/></g><g><path d="m434.706 414.224h29.601v66.713h-29.601z" fill="url(#SVGID_65_)"/><path d="m447.633 480.937h-9.371v-35.818c0-2.588 2.098-4.686 4.686-4.686 2.588 0 4.686 2.098 4.686 4.686v35.818z" fill="url(#SVGID_66_)"/><path d="m451.693 436.893c2.243 0 4.061 1.818 4.061 4.061v22.074c0 2.243 1.818 4.061 4.061 4.061h.432c2.243 0 4.061-1.818 4.061-4.061v-48.804h-16.675v18.608c0 2.243 1.818 4.061 4.06 4.061z" fill="url(#SVGID_67_)"/></g><path d="m464.307 433.863v47.074l-29.406-29.406-.194 2.542v-20.21z" fill="url(#SVGID_68_)"/><g><path d="m505.528 417.288-47.083-71.818c-4.22-6.437-13.655-6.437-17.874 0l-45.8 69.862-2.66 3.848c-2.251 3.154-3.436 7.121-3.008 11.381.778 7.749 7.03 14.04 14.774 14.859 2.937.311 5.736-.144 8.228-1.188 3.744-1.568 8.063-.613 10.901 2.289 3.021 3.09 7.232 5.009 11.897 5.009 3.397 0 6.556-1.017 9.191-2.762 3.272-2.168 7.559-2.168 10.831 0 2.634 1.746 5.793 2.762 9.191 2.762 4.665 0 8.876-1.919 11.897-5.009 2.837-2.903 7.157-3.858 10.901-2.289 2.492 1.044 5.291 1.499 8.228 1.188 7.744-.82 13.996-7.111 14.774-14.859.446-4.438-.858-8.557-3.295-11.771-.376-.494-.754-.984-1.093-1.502z" fill="url(#SVGID_69_)"/><path d="m509.913 430.558c-.781 7.753-7.028 14.044-14.775 14.863-2.936.312-5.735-.144-8.228-1.187-3.742-1.568-8.065-.612-10.902 2.286-3.017 3.092-7.228 5.01-11.895 5.01-3.399 0-6.554-1.018-9.19-2.761-.262-.175-.537-.337-.812-.487l-48.891-48.892 35.348-53.921c4.223-6.435 13.657-6.435 17.88 0l47.08 71.82c.337.519.718 1.006 1.093 1.499 2.436 3.217 3.736 7.334 3.292 11.77z" fill="url(#SVGID_70_)"/><path d="m495.428 379.128-38.595-58.871c-3.459-5.276-11.193-5.276-14.652 0l-37.543 57.267-2.181 3.154c-1.845 2.586-2.817 5.837-2.466 9.329.638 6.352 5.762 11.509 12.111 12.181 2.407.255 4.702-.118 6.744-.974 3.069-1.286 6.61-.503 8.935 1.877 2.476 2.533 5.928 4.106 9.752 4.106 2.785 0 5.374-.834 7.534-2.264 2.682-1.777 6.196-1.777 8.879 0 2.159 1.431 4.749 2.264 7.534 2.264 3.824 0 7.276-1.573 9.752-4.106 2.326-2.379 5.867-3.162 8.936-1.877 2.042.856 4.337 1.228 6.744.974 6.348-.672 11.473-5.829 12.111-12.181.365-3.638-.704-7.014-2.701-9.649-.306-.404-.616-.806-.894-1.23z" fill="url(#SVGID_71_)"/><path d="m499.024 390.006c-.637 6.354-5.766 11.508-12.114 12.182-2.405.256-4.698-.119-6.741-.975-3.068-1.287-6.61-.5-8.94 1.874-1.324 1.356-2.924 2.436-4.711 3.142l-48.742-48.748 24.402-37.222c3.461-5.279 11.195-5.279 14.656 0l38.59 58.869c.281.425.587.825.893 1.231 2.001 2.631 3.07 6.011 2.707 9.647z" fill="url(#SVGID_72_)"/><path d="m487.33 338.629-31.789-48.489c-2.849-4.346-9.219-4.346-12.068 0l-30.923 47.168-1.796 2.598c-1.52 2.13-2.32 4.808-2.031 7.684.526 5.232 4.746 9.479 9.975 10.033 1.983.21 3.873-.097 5.555-.802 2.528-1.059 5.444-.414 7.36 1.546 2.04 2.086 4.883 3.382 8.033 3.382 2.294 0 4.427-.687 6.205-1.865 2.209-1.464 5.104-1.464 7.313 0 1.779 1.179 3.911 1.865 6.205 1.865 3.15 0 5.993-1.296 8.033-3.382 1.916-1.96 4.832-2.605 7.36-1.546 1.682.705 3.572 1.012 5.555.802 5.229-.553 9.449-4.801 9.975-10.033.301-2.996-.579-5.777-2.225-7.947-.253-.333-.508-.664-.737-1.014z" fill="url(#SVGID_73_)"/></g><g><g><path d="m448.4 470.052c-2.166 0-4.25.346-6.203.983-2.089-6.814-8.429-11.769-15.928-11.769-9.2 0-16.657 7.458-16.657 16.657 0 1.329.157 2.622.451 3.861-7.851.553-14.048 7.097-14.048 15.089 0 8.355 6.773 15.127 15.127 15.127h37.258c11.031 0 19.974-8.943 19.974-19.974 0-11.032-8.943-19.974-19.974-19.974z" fill="url(#SVGID_74_)"/><path d="m428.425 490.027c0 .81.049 1.609.143 2.394-.751.106-1.52.16-2.299.16-9.2 0-16.656-7.458-16.656-16.658 0-9.198 7.457-16.656 16.656-16.656 7.499 0 13.841 4.955 15.928 11.77-7.995 2.606-13.772 10.123-13.772 18.99z" fill="url(#SVGID_75_)"/><path d="m396.131 496.756c.927 7.466 7.294 13.244 15.011 13.244h37.258c8.67 0 16.048-5.524 18.811-13.244z" fill="url(#SVGID_76_)"/></g></g><path d="m130.803 114.06h-10.262c0-12.845-10.413-23.259-23.259-23.259h-45.876c-12.845 0-23.259 10.413-23.259 23.259s10.413 23.259 23.259 23.259h10.262c0 12.845 10.413 23.259 23.259 23.259h45.876c12.845 0 23.259-10.413 23.259-23.259 0-12.846-10.413-23.259-23.259-23.259z" fill="url(#SVGID_77_)"/><path d="m169.957 96.187h-28.981c-8.115 0-14.693-6.578-14.693-14.693 0-8.115 6.578-14.693 14.693-14.693h28.981c8.115 0 14.693 6.578 14.693 14.693 0 8.115-6.578 14.693-14.693 14.693z" fill="url(#SVGID_78_)"/></g></svg>