<svg id="Capa_1" enable-background="new 0 0 510 510" height="512" viewBox="0 0 510 510" width="512" xmlns="http://www.w3.org/2000/svg" xmlns:xlink="http://www.w3.org/1999/xlink"><linearGradient id="SVGID_1_" gradientUnits="userSpaceOnUse" x1="255" x2="255" y1="34.721" y2="483.763"><stop offset="0" stop-color="#c7e9ff"/><stop offset=".3556" stop-color="#a3e6f2"/><stop offset="1" stop-color="#65e0db"/></linearGradient><linearGradient id="lg1"><stop offset="0" stop-color="#18cefb" stop-opacity="0"/><stop offset="1" stop-color="#0469bb"/></linearGradient><linearGradient id="SVGID_2_" gradientUnits="userSpaceOnUse" x1="512" x2="413" xlink:href="#lg1" y1="382.235" y2="382.235"/><linearGradient id="SVGID_3_" gradientUnits="userSpaceOnUse" x1="36.958" x2="-37.042" xlink:href="#lg1" y1="398.664" y2="334.664"/><linearGradient id="SVGID_4_" gradientUnits="userSpaceOnUse" x1="96.667" x2="181.552" y1="80.819" y2="165.704"><stop offset="0" stop-color="#ffd945"/><stop offset=".3043" stop-color="#ffcd3e"/><stop offset=".8558" stop-color="#ffad2b"/><stop offset="1" stop-color="#ffa325"/></linearGradient><linearGradient id="lg2"><stop offset="0" stop-color="#c6b198"/><stop offset="1" stop-color="#988575"/></linearGradient><linearGradient id="SVGID_5_" gradientUnits="userSpaceOnUse" x1="191.421" x2="314.777" xlink:href="#lg2" y1="318.85" y2="485.194"/><linearGradient id="lg3"><stop offset="0" stop-color="#754c24" stop-opacity="0"/><stop offset="1" stop-color="#754c24"/></linearGradient><linearGradient id="SVGID_6_" gradientUnits="userSpaceOnUse" x1="355.595" x2="153.43" xlink:href="#lg3" y1="336.03" y2="279.612"/><linearGradient id="SVGID_7_" gradientUnits="userSpaceOnUse" x1="85.138" x2="229.887" xlink:href="#lg2" y1="365.64" y2="498.511"/><linearGradient id="SVGID_8_" gradientUnits="userSpaceOnUse" x1="216.551" x2="51.019" xlink:href="#lg3" y1="411.191" y2="317.662"/><linearGradient id="SVGID_9_" gradientUnits="userSpaceOnUse" x1="215.134" x2="298.858" xlink:href="#lg2" y1="449.953" y2="533.677"/><linearGradient id="SVGID_10_" gradientUnits="userSpaceOnUse" x1="339.532" x2="267.281" xlink:href="#lg3" y1="452.501" y2="524.752"/><linearGradient id="SVGID_11_" gradientUnits="userSpaceOnUse" x1="216.634" x2="284.634" y1="147.746" y2="223.08"><stop offset="0" stop-color="#edf5ff"/><stop offset="1" stop-color="#c7e9ff"/></linearGradient><linearGradient id="SVGID_12_" gradientUnits="userSpaceOnUse" x1="294.33" x2="204.33" y1="177.678" y2="170.678"><stop offset="0" stop-color="#7acbff" stop-opacity="0"/><stop offset="1" stop-color="#2f73a0"/></linearGradient><linearGradient id="SVGID_13_" gradientUnits="userSpaceOnUse" x1="255" x2="255" xlink:href="#lg3" y1="421.896" y2="527.854"/><g><path d="m485.638 510h-461.276c-13.455 0-24.362-10.907-24.362-24.362v-461.276c0-13.455 10.907-24.362 24.362-24.362h461.275c13.456 0 24.363 10.907 24.363 24.362v461.275c0 13.456-10.907 24.363-24.362 24.363z" fill="url(#SVGID_1_)"/><path d="m499.926 286.697c-4.342 7.305-15.109 6.71-18.609-1.035l-10.146-22.401c-5.332-11.77-22.071-11.705-27.306.11l-19.981 45.1-82.357 201.529h144.149c13.437-.022 24.324-10.92 24.324-24.362v-204.017c-.349-.034-.698-.068-1.048-.068-3.487 0-6.981 1.702-9.026 5.144z" fill="url(#SVGID_2_)"/><path d="m24.324 509.999h164.392l-117.447-209.088c-11.488-20.456-37.17-20.456-48.658 0l-22.611 40.255v144.472c0 13.442 10.887 24.34 24.324 24.361z" fill="url(#SVGID_3_)"/><circle cx="118" cy="102.152" fill="url(#SVGID_4_)" r="66.943"/><g><g><path d="m480 509.999h-409.74l112.823-276.079 17.457-35.378 30.88-66.7c8.09-18.26 27.96-18.36 36.2-.17l15.68 34.62c5.41 11.97 25.05 14.89 31.76 3.6 3.16-5.32 8.56-9.95 13.95-9.95 5.75 0 8.49-.01 11.49 5.87l34.1 63.957 83.582 180.965c14.374 31.119 21.818 64.987 21.818 99.265z" fill="url(#SVGID_5_)"/><path d="m480 509.999h-181.15l-30.51-70.53c-1.4-3.24-2.05-6.55-2.05-9.78 0-12.97 10.46-24.58 24.62-24.58 18.29 0 30.18-19.26 21.98-35.61l-55.69-135.127c-.89-1.77-1.29-3.6-1.29-5.39 0-6.31 5.07-12.03 12.04-12.03 8.33 0 14.14-8.26 11.32-16.09l-.83-2.32-29.98-80.42c8.84-.41 14.88 1.1 19.16 10.55l15.68 37.62c5.41 11.97 25.05 15.89 31.76 4.6 6.53-11 19.63-12.48 25.44-1.08l34.1 59.957 83.582 180.965c14.374 31.119 21.818 64.987 21.818 99.265z" fill="url(#SVGID_6_)"/></g><g><path d="m326.34 509.999h-296.34c0-30.933 7.957-61.345 23.106-88.315l84.114-149.745c13.08-23.29 42.32-23.29 55.4 0z" fill="url(#SVGID_7_)"/><path d="m192.621 271.939c-11.005-19.594-33.454-22.696-48.089-9.316l32.409 64.42c5.025 9.989-2.236 21.77-13.418 21.77-10.864 0-18.134 11.177-13.73 21.108l27.204 61.348c5.126 11.56-3.337 24.571-15.983 24.571-12.619 0-21.082 12.959-16.009 24.513l13.018 29.647h168.313z" fill="url(#SVGID_8_)"/></g><g><path d="m341.749 433.566h-39.336c-12.439 0-24.368-4.941-33.163-13.737-18.315-18.315-48.011-18.315-66.326 0l-90.171 90.171h324.856l-62.698-62.698c-8.795-8.795-20.724-13.736-33.162-13.736z" fill="url(#SVGID_9_)"/><path d="m374.912 447.302c-8.795-8.795-20.724-13.736-33.163-13.736h-39.336c-12.31 0-24.265-4.701-32.902-13.473-10.745-10.912-25.49-15.435-39.559-13.589l52.958 52.959c9.282 9.282 21.872 14.497 34.999 14.497 13.127 0 25.716 5.215 34.999 14.497l21.544 21.543h63.157z" fill="url(#SVGID_10_)"/></g></g><g><path d="m360.17 198.539 14.43 31.23c-5.84 3.59-12.45 5.39-19.06 5.39-7.11 0-14.22-2.08-20.38-6.24-12.31-8.33-28.44-8.33-40.75-.01l-.01.01c-6.15 4.16-13.26 6.24-20.37 6.24s-14.22-2.08-20.38-6.24c-6.15-4.17-13.27-6.25-20.37-6.25-7.12 0-14.22 2.08-20.38 6.25-8.91 6.02-19.81 7.69-29.82 5l14.46-35.38 30.88-69.7c8.09-18.26 33.96-18.36 42.2-.17l15.68 34.62c5.41 11.97 22.05 12.89 28.76 1.6 3.16-5.32 8.56-7.95 13.95-7.95 5.75 0 11.49 2.99 14.49 8.87z" fill="url(#SVGID_11_)"/><path d="m360.17 198.542v-.002-.001l-16.67-32.73c-3-5.88-8.74-8.87-14.49-8.87-5.39 0-10.79 2.63-13.95 7.95-6.71 11.29-23.35 10.37-28.76-1.6l-15.68-34.62c-4.282-9.453-13.325-13.954-22.16-13.546l29.98 83.419.83 2.32c2.82 7.83-2.99 16.09-11.32 16.09-6.97 0-12.04 5.72-12.04 12.03 0 .462.029.928.084 1.394 5.587 3.188 11.811 4.783 18.036 4.783 7.11 0 14.22-2.08 20.37-6.24l.01-.01c12.31-8.32 28.44-8.32 40.75.01 6.16 4.16 13.27 6.24 20.38 6.24 6.608 0 13.216-1.799 19.055-5.387z" fill="url(#SVGID_12_)"/></g><path d="m53.106 421.684c-15.149 26.97-23.106 57.382-23.106 88.315h40.26 256.08 153.66c0-34.278-7.444-68.146-21.818-99.265l-13.733-29.734h-368.49z" fill="url(#SVGID_13_)"/></g></svg>