

<svg id="Capa_1" enable-background="new 0 0 510 510" height="512" viewBox="0 0 510 510" width="512" xmlns="http://www.w3.org/2000/svg" xmlns:xlink="http://www.w3.org/1999/xlink"><linearGradient id="lg1"><stop offset="0" stop-color="#c7e9ff"/><stop offset=".3556" stop-color="#a3e6f2"/><stop offset="1" stop-color="#65e0db"/></linearGradient><linearGradient id="SVGID_1_" gradientUnits="userSpaceOnUse" x1="255" x2="255" xlink:href="#lg1" y1="34.721" y2="483.763"/><linearGradient id="lg2"><stop offset="0" stop-color="#edf5ff"/><stop offset="1" stop-color="#c7e9ff"/></linearGradient><linearGradient id="SVGID_2_" gradientUnits="userSpaceOnUse" x1="90.037" x2="148.637" xlink:href="#lg2" y1="127.555" y2="186.155"/><linearGradient id="SVGID_3_" gradientUnits="userSpaceOnUse" x1="350.431" x2="436.883" xlink:href="#lg2" y1="80.899" y2="167.351"/><linearGradient id="SVGID_4_" gradientUnits="userSpaceOnUse" x1="426.699" x2="451.278" xlink:href="#lg2" y1="45.853" y2="70.431"/><linearGradient id="SVGID_5_" gradientUnits="userSpaceOnUse" x1="467.699" x2="492.278" xlink:href="#lg2" y1="81.853" y2="106.431"/><linearGradient id="SVGID_6_" gradientUnits="userSpaceOnUse" x1="282.838" x2="367.724" y1="147.761" y2="232.647"><stop offset="0" stop-color="#ffd945"/><stop offset=".3043" stop-color="#ffcd3e"/><stop offset=".8558" stop-color="#ffad2b"/><stop offset="1" stop-color="#ffa325"/></linearGradient><linearGradient id="lg3"><stop offset="0" stop-color="#18cefb" stop-opacity="0"/><stop offset="1" stop-color="#0469bb"/></linearGradient><linearGradient id="SVGID_7_" gradientUnits="userSpaceOnUse" x1="420.467" x2="420.467" xlink:href="#lg3" y1="346.547" y2="222.793"/><linearGradient id="SVGID_8_" gradientUnits="userSpaceOnUse" x1="152.941" x2="152.941" xlink:href="#lg3" y1="350.72" y2="189.69"/><linearGradient id="SVGID_9_" gradientUnits="userSpaceOnUse" x1="255.997" x2="313.943" xlink:href="#lg1" y1="257.167" y2="374.348"/><linearGradient id="SVGID_10_" gradientUnits="userSpaceOnUse" x1="336.632" x2="265.545" y1="282.888" y2="329.192"><stop offset="0" stop-color="#2f73a0" stop-opacity="0"/><stop offset="1" stop-color="#2f73a0"/></linearGradient><linearGradient id="lg4"><stop offset="0" stop-color="#798c00"/><stop offset="1" stop-color="#1b444f"/></linearGradient><linearGradient id="SVGID_11_" gradientUnits="userSpaceOnUse" x1="384.946" x2="378.901" xlink:href="#lg4" y1="301.085" y2="347.174"/><linearGradient id="lg5"><stop offset="0" stop-color="#bada00"/><stop offset=".2187" stop-color="#b6d600"/><stop offset=".4501" stop-color="#acc900"/><stop offset=".6873" stop-color="#9ab400"/><stop offset=".9271" stop-color="#829700"/><stop offset="1" stop-color="#798c00"/></linearGradient><linearGradient id="SVGID_12_" gradientUnits="userSpaceOnUse" x1="123.2" x2="149.517" xlink:href="#lg5" y1="220.343" y2="297.83"/><linearGradient id="SVGID_13_" gradientUnits="userSpaceOnUse" x1="255" x2="255" xlink:href="#lg5" y1="309.918" y2="485.992"/><linearGradient id="SVGID_14_" gradientUnits="userSpaceOnUse" x1="159.807" x2="313.807" y1="381.909" y2="502.909"><stop offset="0" stop-color="#18cefb"/><stop offset="1" stop-color="#4a97f6"/></linearGradient><linearGradient id="lg6"><stop offset="0" stop-color="#4a97f6" stop-opacity="0"/><stop offset="1" stop-color="#0469bb"/></linearGradient><linearGradient id="SVGID_15_" gradientUnits="userSpaceOnUse" x1="270.494" x2="88.36" xlink:href="#lg6" y1="441.335" y2="316.243"/><linearGradient id="SVGID_16_" gradientUnits="userSpaceOnUse" x1="328.689" x2="185.689" xlink:href="#lg6" y1="423.541" y2="539.541"/><linearGradient id="SVGID_17_" gradientUnits="userSpaceOnUse" x1="399.676" x2="430.283" xlink:href="#lg4" y1="347.717" y2="378.324"/><linearGradient id="lg7"><stop offset="0" stop-color="#1b444f" stop-opacity="0"/><stop offset="1" stop-color="#1b444f"/></linearGradient><linearGradient id="SVGID_18_" gradientUnits="userSpaceOnUse" x1="411.481" x2="431.174" xlink:href="#lg7" y1="351.737" y2="347.733"/><linearGradient id="SVGID_19_" gradientUnits="userSpaceOnUse" x1="415.471" x2="415.471" xlink:href="#lg7" y1="370.677" y2="379.806"/><linearGradient id="SVGID_20_" gradientUnits="userSpaceOnUse" x1="433.596" x2="466.101" xlink:href="#lg5" y1="361.28" y2="393.785"/><linearGradient id="lg8"><stop offset="0" stop-color="#43765a" stop-opacity="0"/><stop offset="1" stop-color="#43765a"/></linearGradient><linearGradient id="SVGID_21_" gradientUnits="userSpaceOnUse" x1="446.134" x2="467.047" xlink:href="#lg8" y1="365.549" y2="361.297"/><linearGradient id="SVGID_22_" gradientUnits="userSpaceOnUse" x1="450.371" x2="450.371" xlink:href="#lg8" y1="385.663" y2="395.358"/><linearGradient id="SVGID_23_" gradientUnits="userSpaceOnUse" x1="462.494" x2="505.154" xlink:href="#lg4" y1="466.607" y2="496.333"/><linearGradient id="SVGID_24_" gradientUnits="userSpaceOnUse" x1="483.73" x2="483.73" xlink:href="#lg7" y1="500.826" y2="470.682"/><linearGradient id="SVGID_25_" gradientUnits="userSpaceOnUse" x1="467.196" x2="511.307" xlink:href="#lg4" y1="442.961" y2="473.698"/><linearGradient id="SVGID_26_" gradientUnits="userSpaceOnUse" x1="488.34" x2="488.34" xlink:href="#lg7" y1="470.676" y2="441.18"/><linearGradient id="SVGID_27_" gradientUnits="userSpaceOnUse" x1="471.141" x2="510.19" xlink:href="#lg4" y1="416.845" y2="444.055"/><linearGradient id="lg9"><stop offset="0" stop-color="#c59b6d"/><stop offset="1" stop-color="#8b6239"/></linearGradient><linearGradient id="SVGID_28_" gradientUnits="userSpaceOnUse" x1="31.378" x2="64.185" xlink:href="#lg9" y1="413.76" y2="413.76"/><linearGradient id="SVGID_29_" gradientUnits="userSpaceOnUse" x1="39.394" x2="25.954" xlink:href="#lg9" y1="422.383" y2="422.383"/><linearGradient id="SVGID_30_" gradientUnits="userSpaceOnUse" x1="57.893" x2="35.452" xlink:href="#lg9" y1="409.204" y2="409.204"/><linearGradient id="lg10"><stop offset="0" stop-color="#754c24" stop-opacity="0"/><stop offset="1" stop-color="#754c24"/></linearGradient><linearGradient id="SVGID_31_" gradientUnits="userSpaceOnUse" x1="39.805" x2="39.805" xlink:href="#lg10" y1="417.724" y2="397.975"/><linearGradient id="SVGID_32_" gradientUnits="userSpaceOnUse" x1="8.241" x2="38.098" xlink:href="#lg4" y1="351.272" y2="376.153"/><linearGradient id="SVGID_33_" gradientUnits="userSpaceOnUse" x1="45.136" x2="45.136" xlink:href="#lg7" y1="394.601" y2="364.977"/><linearGradient id="SVGID_34_" gradientUnits="userSpaceOnUse" x1="16.431" x2="43.302" xlink:href="#lg4" y1="332.229" y2="358.105"/><linearGradient id="SVGID_35_" gradientUnits="userSpaceOnUse" x1="45.68" x2="45.68" xlink:href="#lg7" y1="361.919" y2="335.495"/><linearGradient id="SVGID_36_" gradientUnits="userSpaceOnUse" x1="8.387" x2="44.962" xlink:href="#lg4" y1="293.593" y2="336.636"/><linearGradient id="SVGID_37_" gradientUnits="userSpaceOnUse" x1="72.788" x2="122.647" xlink:href="#lg9" y1="447.581" y2="447.581"/><linearGradient id="SVGID_38_" gradientUnits="userSpaceOnUse" x1="84.97" x2="64.545" xlink:href="#lg9" y1="460.685" y2="460.685"/><linearGradient id="SVGID_39_" gradientUnits="userSpaceOnUse" x1="113.084" x2="78.979" xlink:href="#lg9" y1="440.657" y2="440.657"/><linearGradient id="SVGID_40_" gradientUnits="userSpaceOnUse" x1="85.596" x2="85.596" xlink:href="#lg10" y1="473.24" y2="443.227"/><linearGradient id="SVGID_41_" gradientUnits="userSpaceOnUse" x1="47.355" x2="134.335" xlink:href="#lg5" y1="382.341" y2="442.95"/><linearGradient id="SVGID_42_" gradientUnits="userSpaceOnUse" x1="93.698" x2="93.698" xlink:href="#lg8" y1="438.099" y2="393.078"/><linearGradient id="SVGID_43_" gradientUnits="userSpaceOnUse" x1="54.249" x2="125.548" xlink:href="#lg5" y1="350.482" y2="400.163"/><linearGradient id="SVGID_44_" gradientUnits="userSpaceOnUse" x1="94.524" x2="94.524" xlink:href="#lg8" y1="388.432" y2="348.273"/><linearGradient id="SVGID_45_" gradientUnits="userSpaceOnUse" x1="59.777" x2="118.502" xlink:href="#lg5" y1="315.035" y2="355.955"/><linearGradient id="SVGID_46_" gradientUnits="userSpaceOnUse" x1="47.838" x2="87.026" xlink:href="#lg4" y1="470.698" y2="509.887"/><linearGradient id="SVGID_47_" gradientUnits="userSpaceOnUse" x1="62.953" x2="88.167" xlink:href="#lg7" y1="475.845" y2="470.718"/><linearGradient id="SVGID_48_" gradientUnits="userSpaceOnUse" x1="68.061" x2="68.061" xlink:href="#lg7" y1="500.095" y2="511.784"/><linearGradient id="lg11"><stop offset="0" stop-color="#2f73a0"/><stop offset="1" stop-color="#174461"/></linearGradient><linearGradient id="SVGID_49_" gradientUnits="userSpaceOnUse" x1="133.834" x2="133.834" xlink:href="#lg11" y1="85.641" y2="109.609"/><linearGradient id="SVGID_50_" gradientUnits="userSpaceOnUse" x1="147.644" x2="147.644" xlink:href="#lg11" y1="128.5" y2="152.469"/><linearGradient id="SVGID_51_" gradientUnits="userSpaceOnUse" x1="201.106" x2="201.106" xlink:href="#lg11" y1="102.569" y2="126.538"/><g><path d="m485.638 510h-461.276c-13.455 0-24.362-10.907-24.362-24.362v-461.276c0-13.455 10.907-24.362 24.362-24.362h461.275c13.456 0 24.363 10.907 24.363 24.362v461.275c0 13.456-10.907 24.363-24.362 24.363z" fill="url(#SVGID_1_)"/><path d="m135.571 133.258h-7.964c0-9.968-8.081-18.049-18.049-18.049h-35.6c-9.968 0-18.049 8.081-18.049 18.049s8.081 18.049 18.049 18.049h7.963c0 9.968 8.081 18.049 18.049 18.049h35.6c9.968 0 18.049-8.081 18.049-18.049.001-9.968-8.08-18.049-18.048-18.049z" fill="url(#SVGID_2_)"/><g><path d="m417.606 89.312h-11.749c0-14.706-11.922-26.627-26.627-26.627h-52.52c-14.706 0-26.627 11.922-26.627 26.627s11.922 26.627 26.627 26.627h11.748c0 14.706 11.922 26.627 26.627 26.627h52.52c14.706 0 26.627-11.922 26.627-26.627.001-14.705-11.92-26.627-26.626-26.627z" fill="url(#SVGID_3_)"/><path d="m436.5 68.851h-7.247c-9.29 0-16.821-7.531-16.821-16.821 0-9.29 7.531-16.821 16.821-16.821h7.247c9.29 0 16.821 7.531 16.821 16.821 0 9.29-7.531 16.821-16.821 16.821z" fill="url(#SVGID_4_)"/><path d="m477.5 104.851h-7.247c-9.29 0-16.821-7.531-16.821-16.821 0-9.29 7.531-16.821 16.821-16.821h7.247c9.29 0 16.821 7.531 16.821 16.821 0 9.29-7.531 16.821-16.821 16.821z" fill="url(#SVGID_5_)"/></g><circle cx="304.171" cy="169.095" fill="url(#SVGID_6_)" r="66.943"/><g><g><path d="m330.933 332.694 61.369-70.123c17.247-19.707 38.379-19.781 55.659-.194l62.039 70.317z" fill="url(#SVGID_7_)"/><path d="m.637 332.694 104.393-91.244c29.338-25.643 65.286-25.739 94.681-.253l105.533 91.497z" fill="url(#SVGID_8_)"/><g><path d="m344.162 257.736h-30.029c-9.496 0-18.602-4.846-25.316-13.471-13.982-17.962-36.651-17.962-50.633 0l-68.836 88.43h247.994l-47.863-61.487c-6.715-8.627-15.821-13.472-25.317-13.472z" fill="url(#SVGID_9_)"/><path d="m369.479 271.207c-6.714-8.626-15.821-13.471-25.316-13.471h-30.029c-9.398 0-18.524-4.611-25.117-13.213-8.202-10.702-19.459-15.137-30.199-13.326l40.428 51.936c7.086 9.103 16.697 14.217 26.718 14.217 10.021 0 19.632 5.114 26.718 14.217l16.446 21.128h48.214z" fill="url(#SVGID_10_)"/></g></g><path d="m251.6 332.694s100.595-60.766 258.4-37.163v37.163z" fill="url(#SVGID_11_)"/><path d="m322.714 332.694s-125.633-106.309-322.714-65.015v65.015z" fill="url(#SVGID_12_)"/></g><path d="m510 485.638v-152.944h-510v152.944c0 13.455 10.907 24.362 24.362 24.362h78.304l152.334-10 143.054 10h87.584c13.455 0 24.362-10.907 24.362-24.362z" fill="url(#SVGID_13_)"/><g><path d="m255.773 332.694c-151.56 27.573-78.1 48.515-37.117 68.06 40.983 19.546 23.971 39.44-32.477 61.08s-83.512 48.166-83.512 48.166h295.387c-109.804-44.327 9.279-38.044 9.279-80.276 0-39.44-133.341-47.859-143.125-70.329-8.435-19.371 53.125-26.701 53.125-26.701z" fill="url(#SVGID_14_)"/></g><g><path d="m407.33 429.719c0-22.26-42.49-34.64-81.25-45.23-29.92-8.19-57.61-15.31-61.87-25.09-8.44-19.38 51.1-26.705 51.1-26.705h-40.84c-105.35 27.36-53.6 48.615-24.65 68.065 29.09 19.54 17.02 39.44-23.06 61.08-40.08 21.63-59.29 48.16-59.29 48.16h230.58c-109.8-44.33 9.28-38.04 9.28-80.28z" fill="url(#SVGID_15_)"/><path d="m407.33 429.719c0-39.44-133.34-47.85-143.12-70.32-8.44-19.38 51.1-26.705 51.1-26.705h-40.98s-33.28 7.325-28.56 26.705c5.46 22.47 80 30.88 80 70.32 0 42.24-66.57 35.95-5.19 80.28h77.47c-109.8-44.33 9.28-38.04 9.28-80.28z" fill="url(#SVGID_16_)"/></g><g><g><g><path d="m428.537 347.212c-1.691 0-3.319.27-4.844.768-1.631-5.322-6.583-9.192-12.44-9.192-7.185 0-13.01 5.825-13.01 13.01 0 1.038.122 2.048.352 3.016-6.132.432-10.972 5.543-10.972 11.785 0 6.525 5.29 11.815 11.815 11.815h29.099c8.616 0 15.6-6.984 15.6-15.6s-6.985-15.602-15.6-15.602z" fill="url(#SVGID_17_)"/><path d="m412.936 362.813c0 .633.038 1.256.112 1.869-.587.083-1.187.125-1.796.125-7.185 0-13.009-5.825-13.009-13.01 0-7.184 5.824-13.009 13.009-13.009 5.857 0 10.81 3.87 12.44 9.192-6.244 2.037-10.756 7.908-10.756 14.833z" fill="url(#SVGID_18_)"/><path d="m387.714 368.069c.724 5.831 5.697 10.344 11.724 10.344h29.099c6.771 0 12.534-4.315 14.692-10.344z" fill="url(#SVGID_19_)"/></g></g></g><g><g><g><path d="m464.246 360.744c-1.796 0-3.525.287-5.145.816-1.732-5.652-6.992-9.762-13.211-9.762-7.63 0-13.816 6.186-13.816 13.816 0 1.103.13 2.175.374 3.202-6.512.459-11.652 5.886-11.652 12.515 0 6.93 5.618 12.547 12.547 12.547h30.903c9.15 0 16.567-7.417 16.567-16.567s-7.417-16.567-16.567-16.567z" fill="url(#SVGID_20_)"/><path d="m447.679 377.312c0 .672.04 1.334.118 1.985-.623.088-1.26.132-1.907.132-7.63 0-13.815-6.186-13.815-13.817 0-7.629 6.185-13.815 13.815-13.815 6.22 0 11.48 4.11 13.211 9.762-6.63 2.164-11.422 8.399-11.422 15.753z" fill="url(#SVGID_21_)"/><path d="m420.893 382.893c.769 6.193 6.05 10.985 12.451 10.985h30.903c7.191 0 13.311-4.582 15.602-10.985z" fill="url(#SVGID_22_)"/></g></g></g><g><g><path d="m510 459.64v26c0 12.46-9.36 22.74-21.44 24.18-.96.12-1.93.18-2.92.18h-35.38c-2.55-2.01-4.3-5.01-4.64-8.38-.31-3.13.56-6.05 2.21-8.36l1.95-2.83 33.64-51.31c3.1-4.73 10.03-4.73 13.13 0z" fill="url(#SVGID_23_)"/><path d="m510 459.64v26c0 12.46-9.36 22.74-21.44 24.18l-31.1-31.1 25.96-39.6c3.1-4.73 10.03-4.73 13.13 0z" fill="url(#SVGID_24_)"/><path d="m510 442.909v36.71c-1.51.06-2.96.69-4.06 1.82-1.81 1.86-4.35 3.02-7.16 3.02-2.04 0-3.95-.62-5.53-1.67-1.97-1.3-4.55-1.3-6.52 0-1.59 1.05-3.49 1.67-5.54 1.67-2.8 0-5.34-1.16-7.16-3.02-1.71-1.75-4.31-2.32-6.56-1.38-1.5.63-3.19.91-4.96.72-4.66-.5-8.42-4.28-8.89-8.95-.26-2.56.46-4.95 1.81-6.85l1.6-2.32 27.58-42.06c2.54-3.87 8.22-3.87 10.76 0z" fill="url(#SVGID_25_)"/><path d="m510 442.919v36.7c-1.5.07-2.97.71-4.06 1.82-.97 1-2.15 1.79-3.46 2.31l-35.8-35.81 17.93-27.34c2.54-3.87 8.22-3.87 10.76 0z" fill="url(#SVGID_26_)"/><path d="m510 422.249v25.66c-.51-.1-.99-.26-1.46-.45-1.86-.78-4-.31-5.41 1.13-1.5 1.53-3.59 2.49-5.9 2.49-1.68 0-3.25-.51-4.56-1.37-1.62-1.08-3.74-1.08-5.37 0-1.3.86-2.87 1.37-4.56 1.37-2.31 0-4.4-.96-5.9-2.49-1.4-1.44-3.54-1.91-5.4-1.13-1.24.51-2.62.74-4.08.59-3.84-.41-6.94-3.53-7.33-7.37-.21-2.12.38-4.08 1.49-5.65l1.32-1.9 22.72-34.65c2.09-3.19 6.77-3.19 8.86 0z" fill="url(#SVGID_27_)"/></g></g><g><g><path d="m30.066 391.811h19.478v43.898h-19.478z" fill="url(#SVGID_28_)"/><path d="m38.572 435.709h-6.166v-23.569c0-1.703 1.38-3.083 3.083-3.083 1.703 0 3.083 1.38 3.083 3.083z" fill="url(#SVGID_29_)"/><path d="m41.244 406.728c1.476 0 2.672 1.196 2.672 2.672v14.525c0 1.476 1.196 2.672 2.672 2.672h.284c1.476 0 2.672-1.196 2.672-2.672v-32.113h-10.972v12.244c0 1.475 1.196 2.672 2.672 2.672z" fill="url(#SVGID_30_)"/></g><path d="m49.543 391.813v30.976l-19.349-19.35-.128 1.673v-13.299z" fill="url(#SVGID_31_)"/><g><path d="m76.667 380.907-30.982-47.257c-2.777-4.235-8.985-4.235-11.761 0l-30.137 45.97-1.751 2.532c-1.481 2.075-2.261 4.685-1.979 7.489.512 5.099 4.626 9.238 9.722 9.778 1.932.205 3.774-.095 5.414-.782 2.463-1.032 5.306-.404 7.173 1.506 1.988 2.033 4.759 3.296 7.828 3.296 2.235 0 4.314-.669 6.047-1.818 2.153-1.427 4.974-1.427 7.127 0 1.733 1.149 3.812 1.818 6.047 1.818 3.07 0 5.841-1.263 7.828-3.296 1.867-1.91 4.709-2.538 7.173-1.506 1.639.687 3.481.986 5.414.782 5.096-.539 9.209-4.679 9.722-9.778.293-2.92-.565-5.63-2.168-7.745-.246-.326-.494-.648-.717-.989z" fill="url(#SVGID_32_)"/><path d="m79.552 389.639c-.514 5.102-4.625 9.241-9.722 9.78-1.932.206-3.774-.095-5.414-.781-2.462-1.032-5.307-.403-7.173 1.505-1.986 2.035-4.756 3.297-7.827 3.297-2.236 0-4.312-.67-6.047-1.817-.173-.115-.354-.222-.534-.321l-32.172-32.172 23.259-35.481c2.779-4.234 8.986-4.234 11.765 0l30.979 47.258c.222.341.473.662.719.987 1.604 2.117 2.459 4.826 2.167 7.745z" fill="url(#SVGID_33_)"/><path d="m70.021 355.797-25.396-38.737c-2.276-3.472-7.365-3.472-9.641 0l-24.704 37.682-1.435 2.076c-1.214 1.701-1.853 3.841-1.623 6.139.42 4.179 3.792 7.573 7.969 8.015 1.584.168 3.094-.078 4.438-.641 2.019-.846 4.349-.331 5.88 1.235 1.629 1.667 3.901 2.702 6.417 2.702 1.832 0 3.536-.548 4.957-1.49 1.765-1.17 4.077-1.17 5.842 0 1.421.941 3.125 1.49 4.957 1.49 2.516 0 4.788-1.035 6.417-2.702 1.53-1.566 3.86-2.081 5.88-1.235 1.344.563 2.854.808 4.438.641 4.177-.442 7.549-3.835 7.969-8.015.24-2.394-.463-4.615-1.777-6.349-.201-.267-.405-.531-.588-.811z" fill="url(#SVGID_34_)"/><path d="m72.387 362.955c-.419 4.181-3.794 7.572-7.971 8.016-1.583.169-3.091-.078-4.436-.641-2.018-.847-4.349-.329-5.883 1.233-.871.892-1.924 1.603-3.1 2.068l-32.073-32.077 16.057-24.492c2.277-3.474 7.367-3.474 9.644 0l25.393 38.736c.185.28.386.543.588.81 1.317 1.731 2.02 3.955 1.781 6.347z" fill="url(#SVGID_35_)"/><path d="m64.693 329.149-20.917-31.906c-1.875-2.86-6.066-2.86-7.941 0l-20.348 31.037-1.182 1.71c-1 1.401-1.527 3.163-1.336 5.056.346 3.442 3.123 6.237 6.564 6.602 1.305.138 2.548-.064 3.655-.528 1.663-.697 3.582-.272 4.843 1.017 1.342 1.373 3.213 2.225 5.285 2.225 1.509 0 2.913-.452 4.083-1.227 1.454-.963 3.358-.963 4.812 0 1.17.775 2.574 1.227 4.083 1.227 2.073 0 3.943-.852 5.285-2.225 1.261-1.29 3.18-1.714 4.843-1.017 1.107.464 2.351.666 3.655.528 3.441-.364 6.218-3.159 6.564-6.602.198-1.972-.381-3.801-1.464-5.229-.166-.22-.334-.438-.484-.668z" fill="url(#SVGID_36_)"/></g></g><g><g><path d="m70.794 414.224h29.601v66.713h-29.601z" fill="url(#SVGID_37_)"/><path d="m83.721 480.937h-9.371v-35.818c0-2.588 2.098-4.686 4.686-4.686 2.588 0 4.686 2.098 4.686 4.686v35.818z" fill="url(#SVGID_38_)"/><path d="m87.782 436.893c2.243 0 4.061 1.818 4.061 4.061v22.074c0 2.243 1.818 4.061 4.061 4.061h.432c2.243 0 4.061-1.818 4.061-4.061v-48.804h-16.676v18.608c0 2.243 1.818 4.061 4.061 4.061z" fill="url(#SVGID_39_)"/></g><path d="m100.396 433.863v47.074l-29.407-29.406-.194 2.542v-20.21z" fill="url(#SVGID_40_)"/><g><path d="m141.616 417.288-47.083-71.818c-4.22-6.437-13.655-6.437-17.874 0l-45.8 69.862-2.66 3.848c-2.251 3.154-3.436 7.121-3.008 11.381.778 7.749 7.03 14.04 14.774 14.859 2.937.311 5.736-.144 8.228-1.188 3.744-1.568 8.063-.613 10.901 2.289 3.021 3.09 7.232 5.009 11.897 5.009 3.397 0 6.556-1.017 9.191-2.762 3.272-2.168 7.559-2.168 10.831 0 2.634 1.746 5.793 2.762 9.191 2.762 4.665 0 8.876-1.919 11.897-5.009 2.837-2.903 7.157-3.858 10.901-2.289 2.492 1.044 5.291 1.499 8.228 1.188 7.744-.82 13.996-7.111 14.774-14.859.446-4.438-.858-8.557-3.295-11.771-.376-.494-.754-.984-1.093-1.502z" fill="url(#SVGID_41_)"/><path d="m146.002 430.558c-.781 7.753-7.028 14.044-14.775 14.863-2.936.312-5.735-.144-8.228-1.187-3.742-1.568-8.065-.612-10.902 2.286-3.017 3.092-7.228 5.01-11.895 5.01-3.399 0-6.554-1.018-9.19-2.761-.262-.175-.537-.337-.812-.487l-48.892-48.892 35.348-53.921c4.223-6.435 13.657-6.435 17.88 0l47.08 71.82c.337.519.718 1.006 1.093 1.499 2.437 3.217 3.736 7.334 3.293 11.77z" fill="url(#SVGID_42_)"/><path d="m131.516 379.128-38.595-58.871c-3.459-5.276-11.193-5.276-14.652 0l-37.543 57.267-2.181 3.154c-1.845 2.586-2.817 5.837-2.466 9.329.638 6.352 5.762 11.509 12.111 12.181 2.407.255 4.702-.118 6.744-.974 3.069-1.286 6.61-.503 8.936 1.877 2.476 2.533 5.928 4.106 9.752 4.106 2.785 0 5.374-.834 7.534-2.264 2.682-1.777 6.196-1.777 8.879 0 2.159 1.431 4.749 2.264 7.534 2.264 3.824 0 7.276-1.573 9.752-4.106 2.326-2.379 5.867-3.162 8.936-1.877 2.042.856 4.337 1.228 6.744.974 6.348-.672 11.473-5.829 12.111-12.181.365-3.638-.704-7.014-2.701-9.649-.307-.404-.617-.806-.895-1.23z" fill="url(#SVGID_43_)"/><path d="m135.112 390.006c-.637 6.354-5.766 11.508-12.114 12.182-2.405.256-4.698-.119-6.741-.975-3.067-1.287-6.61-.5-8.94 1.874-1.324 1.356-2.924 2.436-4.711 3.142l-48.742-48.748 24.402-37.222c3.461-5.279 11.195-5.279 14.656 0l38.59 58.869c.281.425.587.825.893 1.231 2.001 2.631 3.07 6.011 2.707 9.647z" fill="url(#SVGID_44_)"/><path d="m123.418 338.629-31.789-48.489c-2.849-4.346-9.219-4.346-12.068 0l-30.923 47.168-1.796 2.598c-1.52 2.13-2.32 4.808-2.031 7.684.526 5.232 4.746 9.479 9.975 10.033 1.983.21 3.873-.097 5.555-.802 2.528-1.059 5.444-.414 7.36 1.546 2.04 2.086 4.883 3.382 8.033 3.382 2.294 0 4.426-.687 6.205-1.865 2.209-1.464 5.104-1.464 7.313 0 1.779 1.179 3.911 1.865 6.205 1.865 3.15 0 5.993-1.296 8.033-3.382 1.916-1.96 4.832-2.605 7.36-1.546 1.682.705 3.572 1.012 5.555.802 5.229-.553 9.449-4.801 9.975-10.033.301-2.996-.58-5.777-2.225-7.947-.253-.333-.508-.664-.737-1.014z" fill="url(#SVGID_45_)"/></g></g><g><g><g><path d="m84.79 470.052c-2.166 0-4.25.346-6.203.983-2.089-6.814-8.429-11.769-15.928-11.769-9.2 0-16.657 7.458-16.657 16.657 0 1.329.157 2.622.451 3.861-7.851.553-14.048 7.097-14.048 15.089 0 8.355 6.773 15.127 15.127 15.127h37.258c11.031 0 19.974-8.943 19.974-19.974 0-11.032-8.942-19.974-19.974-19.974z" fill="url(#SVGID_46_)"/><path d="m64.816 490.027c0 .81.049 1.609.143 2.394-.751.106-1.52.16-2.299.16-9.2 0-16.656-7.458-16.656-16.658 0-9.198 7.457-16.656 16.656-16.656 7.498 0 13.841 4.955 15.928 11.77-7.995 2.606-13.772 10.123-13.772 18.99z" fill="url(#SVGID_47_)"/><path d="m32.522 496.756c.927 7.466 7.294 13.244 15.011 13.244h37.257c8.67 0 16.048-5.524 18.811-13.244z" fill="url(#SVGID_48_)"/></g></g></g><g><path d="m133.837 109.609c-3.464 0-6.75-1.684-8.79-4.505-3.122-4.317-8.145-9.463-14.343-9.463-2.761 0-5-2.239-5-5s2.239-5 5-5c8.249 0 16.01 4.704 22.446 13.603.352.486 1.023.484 1.374 0 6.427-8.899 14.187-13.603 22.44-13.603 2.761 0 5 2.239 5 5s-2.239 5-5 5c-6.201 0-11.217 5.144-14.333 9.458-2.039 2.823-5.325 4.509-8.79 4.51-.002 0-.003 0-.004 0z" fill="url(#SVGID_49_)"/><path d="m147.646 152.469c-3.464 0-6.749-1.684-8.79-4.504-3.123-4.318-8.145-9.464-14.343-9.464-2.761 0-5-2.239-5-5s2.239-5 5-5c8.249 0 16.01 4.704 22.446 13.604.349.484 1.023.485 1.374 0 6.428-8.899 14.187-13.603 22.44-13.603 2.761 0 5 2.239 5 5s-2.239 5-5 5c-6.2 0-11.217 5.144-14.333 9.458-2.039 2.823-5.325 4.509-8.79 4.51-.001-.001-.003-.001-.004-.001z" fill="url(#SVGID_50_)"/><path d="m201.11 126.538c-3.464 0-6.75-1.684-8.79-4.505-3.123-4.317-8.145-9.463-14.344-9.463-2.761 0-5-2.239-5-5s2.239-5 5-5c8.249 0 16.011 4.704 22.446 13.603.352.485 1.023.486 1.374 0 6.428-8.899 14.187-13.603 22.44-13.603 2.761 0 5 2.239 5 5s-2.239 5-5 5c-6.2 0-11.217 5.144-14.333 9.458-2.039 2.823-5.325 4.509-8.79 4.51-.001 0-.002 0-.003 0z" fill="url(#SVGID_51_)"/></g></g></svg>