<svg id="Capa_1" enable-background="new 0 0 510 510" height="512" viewBox="0 0 510 510" width="512" xmlns="http://www.w3.org/2000/svg" xmlns:xlink="http://www.w3.org/1999/xlink"><linearGradient id="SVGID_1_" gradientUnits="userSpaceOnUse" x1="255" x2="255" y1="220" y2="356.015"><stop offset="0" stop-color="#ff7044"/><stop offset="1" stop-color="#f82814"/></linearGradient><linearGradient id="lg1"><stop offset="0" stop-color="#edf5ff"/><stop offset="1" stop-color="#c7e9ff"/></linearGradient><linearGradient id="SVGID_2_" gradientUnits="userSpaceOnUse" x1="350.431" x2="436.883" xlink:href="#lg1" y1="80.899" y2="167.351"/><linearGradient id="SVGID_3_" gradientUnits="userSpaceOnUse" x1="436.743" x2="472.947" xlink:href="#lg1" y1="42.931" y2="79.135"/><linearGradient id="SVGID_4_" gradientUnits="userSpaceOnUse" x1="282.838" x2="367.724" y1="147.761" y2="232.647"><stop offset="0" stop-color="#ffd945"/><stop offset=".3043" stop-color="#ffcd3e"/><stop offset=".8558" stop-color="#ffad2b"/><stop offset="1" stop-color="#ffa325"/></linearGradient><linearGradient id="SVGID_5_" gradientUnits="userSpaceOnUse" x1="256.558" x2="164.558" y1="330.401" y2="267.401"><stop offset="0" stop-color="#843561" stop-opacity="0"/><stop offset="1" stop-color="#3a2f4d"/></linearGradient><linearGradient id="lg2"><stop offset="0" stop-color="#ffce47"/><stop offset="1" stop-color="#f6921e"/></linearGradient><linearGradient id="SVGID_6_" gradientUnits="userSpaceOnUse" x1="135.476" x2="150.53" xlink:href="#lg2" y1="296.974" y2="360.201"/><linearGradient id="SVGID_7_" gradientUnits="userSpaceOnUse" x1="216.882" x2="325.24" xlink:href="#lg2" y1="296.026" y2="559.643"/><linearGradient id="lg3"><stop offset="0" stop-color="#ff9356" stop-opacity="0"/><stop offset="1" stop-color="#ff755c"/></linearGradient><linearGradient id="SVGID_8_" gradientUnits="userSpaceOnUse" x1="271.38" x2="109.827" xlink:href="#lg3" y1="357.533" y2="262.294"/><linearGradient id="SVGID_9_" gradientUnits="userSpaceOnUse" x1="477.201" x2="272.758" xlink:href="#lg3" y1="458.637" y2="336.922"/><linearGradient id="lg4"><stop offset="0" stop-color="#798c00"/><stop offset="1" stop-color="#1b444f"/></linearGradient><linearGradient id="SVGID_10_" gradientUnits="userSpaceOnUse" x1="199.641" x2="268.66" xlink:href="#lg4" y1="204.681" y2="246.834"/><linearGradient id="SVGID_11_" gradientUnits="userSpaceOnUse" x1="181.826" x2="239.032" xlink:href="#lg4" y1="196.191" y2="217.389"/><linearGradient id="SVGID_12_" gradientUnits="userSpaceOnUse" x1="228.17" x2="133.614" y1="268.921" y2="226.815"><stop offset="0" stop-color="#1b444f" stop-opacity="0"/><stop offset="1" stop-color="#1b444f"/></linearGradient><linearGradient id="lg5"><stop offset="0" stop-color="#bada00"/><stop offset=".2187" stop-color="#b6d600"/><stop offset=".4501" stop-color="#acc900"/><stop offset=".6873" stop-color="#9ab400"/><stop offset=".9271" stop-color="#829700"/><stop offset="1" stop-color="#798c00"/></linearGradient><linearGradient id="SVGID_13_" gradientUnits="userSpaceOnUse" x1="69.998" x2="186.282" xlink:href="#lg5" y1="260.935" y2="260.935"/><linearGradient id="SVGID_14_" gradientUnits="userSpaceOnUse" x1="205.805" x2="6.655" xlink:href="#lg5" y1="260.935" y2="260.935"/><linearGradient id="SVGID_15_" gradientUnits="userSpaceOnUse" x1="95.991" x2="159.785" xlink:href="#lg5" y1="260.935" y2="260.935"/><linearGradient id="lg6"><stop offset="0" stop-color="#43765a" stop-opacity="0"/><stop offset="1" stop-color="#43765a"/></linearGradient><linearGradient id="SVGID_16_" gradientUnits="userSpaceOnUse" x1="129.94" x2="53.273" xlink:href="#lg6" y1="327.841" y2="257.174"/><linearGradient id="SVGID_17_" gradientUnits="userSpaceOnUse" x1="20.78" x2="118.85" xlink:href="#lg5" y1="216.285" y2="314"/><linearGradient id="SVGID_18_" gradientUnits="userSpaceOnUse" x1="60.829" x2="-4.284" xlink:href="#lg5" y1="228.088" y2="270.977"/><linearGradient id="SVGID_19_" gradientUnits="userSpaceOnUse" x1="4.53" x2="254.502" xlink:href="#lg6" y1="208.031" y2="264.585"/><linearGradient id="SVGID_20_" gradientUnits="userSpaceOnUse" x1="150.517" x2="134.85" xlink:href="#lg6" y1="154.847" y2="85.847"/><linearGradient id="lg7"><stop offset="0" stop-color="#ffc0d5"/><stop offset="1" stop-color="#ff80ab"/></linearGradient><linearGradient id="SVGID_21_" gradientUnits="userSpaceOnUse" x1="108.902" x2="119.1" xlink:href="#lg7" y1="76.689" y2="86.887"/><linearGradient id="SVGID_22_" gradientUnits="userSpaceOnUse" x1="124.435" x2="139.18" xlink:href="#lg7" y1="75.906" y2="90.651"/><linearGradient id="lg8"><stop offset="0" stop-color="#ffe0ea"/><stop offset="1" stop-color="#ff80ab"/></linearGradient><linearGradient id="SVGID_23_" gradientTransform="matrix(-1 0 0 1 302.372 0)" gradientUnits="userSpaceOnUse" x1="150.214" x2="184.033" xlink:href="#lg8" y1="85.688" y2="119.507"/><linearGradient id="SVGID_24_" gradientUnits="userSpaceOnUse" x1="104.122" x2="137.941" xlink:href="#lg8" y1="85.688" y2="119.507"/><linearGradient id="SVGID_25_" gradientUnits="userSpaceOnUse" x1="350.185" x2="384.9" xlink:href="#lg2" y1="431.627" y2="529.987"/><g><path d="m485.638 510h-461.276c-13.455 0-24.362-10.907-24.362-24.362v-461.276c0-13.455 10.907-24.362 24.362-24.362h461.275c13.456 0 24.363 10.907 24.363 24.362v461.275c0 13.456-10.907 24.363-24.362 24.363z" fill="url(#SVGID_1_)"/><g><path d="m417.606 89.312h-11.749c0-14.706-11.922-26.627-26.627-26.627h-52.52c-14.706 0-26.627 11.922-26.627 26.627s11.922 26.627 26.627 26.627h11.748c0 14.706 11.922 26.627 26.627 26.627h52.52c14.706 0 26.627-11.922 26.627-26.627.001-14.705-11.92-26.627-26.626-26.627z" fill="url(#SVGID_2_)"/><path d="m462.43 68.851h-33.178c-9.29 0-16.821-7.531-16.821-16.821 0-9.29 7.531-16.821 16.821-16.821h33.178c9.29 0 16.821 7.531 16.821 16.821 0 9.29-7.531 16.821-16.821 16.821z" fill="url(#SVGID_3_)"/></g><circle cx="304.171" cy="169.095" fill="url(#SVGID_4_)" r="66.943"/><path d="m206.259 273.963c4.914 0 8.898 3.984 8.898 8.898v12.689c0 3.177 2.118 5.866 5.015 6.737v-20.647c0-11.059 8.965-20.024 20.024-20.024 11.059 0 20.024 8.965 20.024 20.024v31.061c3.541-.364 6.312-3.364 6.312-6.999v-12.689c0-4.914 3.984-8.898 8.898-8.898s8.898 3.984 8.898 8.898v12.689c0 13.449-10.749 24.427-24.107 24.813v36.119c0 2.402-8.965 4.35-20.024 4.35s-20.024-1.948-20.024-4.35v-46.343c-12.749-1.033-22.81-11.731-22.81-24.742v-12.689c-.001-4.913 3.982-8.897 8.896-8.897z" fill="url(#SVGID_5_)"/><path d="m0 310.685v97.542h323.93s-125.945-154.881-323.93-97.542z" fill="url(#SVGID_6_)"/><path d="m510 485.638v-198.582c-62.152-27.319-133.983-25.695-194.823 4.635l-87.737 43.739c-60.73 30.275-128.104 46.076-196.475 46.076h-30.965v104.131c0 13.456 10.907 24.363 24.362 24.363h461.275c13.456 0 24.363-10.907 24.363-24.362z" fill="url(#SVGID_7_)"/><path d="m510 287.05v198.59c0 13.45-10.91 24.36-24.36 24.36h-313.81l-100.5-100.5v-29.84c13.68-1.25 27.28-3.13 40.75-5.64 40.04-7.45 78.89-20.41 115.36-38.59l87.74-43.74c32.07-15.99 67.21-24.01 102.37-24.01 31.53 0 63.07 6.46 92.45 19.37z" fill="url(#SVGID_8_)"/><path d="m242.453 510h243.185c13.455 0 24.362-10.907 24.362-24.362v-198.594c-19.687-8.65-40.346-14.386-61.319-17.236-3.198.072-90.92 2.458-86.389 46.556 6.389 62.185 102.677 45.559 110.753 96.116 4.784 29.952-124.45 69.917-230.592 97.52z" fill="url(#SVGID_9_)"/><g><g><g><path d="m174.934 272.783h5.479c39.757 0 72.102-32.345 72.102-72.101v-36.844c0-14.269-11.567-25.835-25.835-25.835-14.269 0-25.835 11.567-25.835 25.835v36.844c0 11.266-9.165 20.431-20.431 20.431h-5.479c-14.269 0-25.835 11.567-25.835 25.835s11.565 25.835 25.834 25.835z" fill="url(#SVGID_10_)"/><path d="m180.413 265.893c35.958 0 65.212-29.254 65.212-65.212v-43.733c0-10.447-8.499-18.946-18.946-18.946s-10.776 8.499-10.776 18.946v43.733c0 15.064-12.256 27.32-27.32 27.32h-20.538c-10.447 0-18.946 8.499-18.946 18.946s8.499 18.946 18.946 18.946z" fill="url(#SVGID_11_)"/></g><path d="m186.285 220.248c-1.861.56-3.831.864-5.872.864h-5.479c-14.269 0-25.835 11.567-25.835 25.835s11.567 25.835 25.835 25.835h5.479c16.395 0 31.526-5.504 43.651-14.756z" fill="url(#SVGID_12_)"/><g><g><path d="m128.14 102.152c-32.111 0-58.142 26.031-58.142 58.142v246.793c0 6.976 26.031 12.631 58.142 12.631s58.142-5.655 58.142-12.631v-246.793c0-32.111-26.031-58.142-58.142-58.142z" fill="url(#SVGID_13_)"/><path d="m167.699 160.294v256.048c-10.377 2.094-24.278 3.375-39.559 3.375s-29.182-1.281-39.559-3.375v-256.048c0-32.111 17.711-58.142 39.559-58.142 21.848 0 39.559 26.031 39.559 58.142z" fill="url(#SVGID_14_)"/><path d="m128.14 419.718c-5.507 0-10.83-.169-15.878-.48v-258.944c0-32.111 7.109-58.142 15.879-58.142 8.769 0 15.879 26.031 15.879 58.142v258.944c-5.05.311-10.373.48-15.88.48z" fill="url(#SVGID_15_)"/></g></g><path d="m186.282 407.087v-58.414l-89.328-89.328c-4.734-5.365-11.656-8.753-19.374-8.753h-5.479c-.71 0-1.412-.037-2.104-.108v51.746l110.398 110.398c3.767-1.673 5.887-3.553 5.887-5.541z" fill="url(#SVGID_16_)"/><g><g><path d="m77.581 302.263h-5.479c-39.757 0-72.102-32.345-72.102-72.101v-36.844c0-14.269 11.567-25.835 25.835-25.835 14.269 0 25.835 11.567 25.835 25.835v36.844c0 11.266 9.165 20.431 20.431 20.431h5.479c14.269 0 25.835 11.567 25.835 25.835.001 14.268-11.565 25.835-25.834 25.835z" fill="url(#SVGID_17_)"/><path d="m72.102 295.373c-35.958 0-60.447-29.254-60.447-65.212v-43.733c0-10.447 3.734-18.946 14.18-18.946 10.447 0 18.946 8.499 18.946 18.946v43.733c0 15.064 12.256 27.32 27.32 27.32h12.369c10.447 0 18.946 8.499 18.946 18.946s-8.499 18.946-18.946 18.946z" fill="url(#SVGID_18_)"/><path d="m103.417 276.427c0-10.444-8.502-18.946-18.946-18.946h-12.366c-15.067 0-27.323-12.256-27.323-27.323v-43.727c0-10.451-8.502-18.946-18.946-18.946 14.268 0 25.835 11.567 25.835 25.835v36.838c0 11.271 9.163 20.434 20.434 20.434h5.477c14.268 0 25.835 11.568 25.835 25.835z" fill="url(#SVGID_19_)"/></g></g></g><path d="m128.14 102.152c-8.714 0-16.972 1.93-24.392 5.365l82.534 82.534v-29.757c0-32.111-26.031-58.142-58.142-58.142z" fill="url(#SVGID_20_)"/><g><g><path d="m130.859 111.185h-9.407c-7.361 0-13.328-5.967-13.328-13.328v-30.65c0-2.497 2.024-4.522 4.522-4.522h3.71c8.009 0 14.502 6.493 14.502 14.502v33.998z" fill="url(#SVGID_21_)"/><path d="m125.421 111.185h9.407c7.361 0 13.328-5.967 13.328-13.328v-30.65c0-2.497-2.024-4.522-4.522-4.522h-3.71c-8.009 0-14.502 6.493-14.502 14.502v33.998z" fill="url(#SVGID_22_)"/></g><g><path d="m122.938 111.185h15.5c15.464 0 28-12.536 28-28 0-5.247-4.253-9.5-9.5-9.5h-3.532c-16.827 0-30.468 13.641-30.468 30.468z" fill="url(#SVGID_23_)"/><path d="m133.342 111.185h-15.5c-15.464 0-28-12.536-28-28 0-5.247 4.253-9.5 9.5-9.5h3.532c16.827 0 30.468 13.641 30.468 30.468z" fill="url(#SVGID_24_)"/></g></g></g><path d="m510 439.328c-177.299-30.976-289.251 70.672-289.251 70.672h264.894c13.452-.003 24.357-10.909 24.357-24.362z" fill="url(#SVGID_25_)"/></g></svg>