<!--
  - Copyright (c) 2023. Selldone® Business OS™
  -
  - Author: M.Pajuhaan
  - Web: https://selldone.com
  - ━━━━━━━━━━━━━━━━━━━━━━━━━━━━━━━━━━━━━━━━━━━━━━━━━━━━━━
  -
  - All rights reserved. In the weave of time, where traditions and innovations intermingle, this content was crafted.
  - From the essence of thought, through the corridors of creativity, each word, and sentiment has been molded.
  - Not just to exist, but to inspire. Like an artist's stroke or a sculptor's chisel, every nuance is deliberate.
  - Our journey is not just about reaching a destination, but about creating a masterpiece.
  - Tread carefully, for you're treading on dreams.
  -->

<svg id="Capa_1" enable-background="new 0 0 510 510" height="512" viewBox="0 0 510 510" width="512" xmlns="http://www.w3.org/2000/svg" xmlns:xlink="http://www.w3.org/1999/xlink"><linearGradient id="SVGID_1_" gradientUnits="userSpaceOnUse" x1="255" x2="255" y1="34.721" y2="483.763"><stop offset="0" stop-color="#c7e9ff"/><stop offset=".3556" stop-color="#a3e6f2"/><stop offset="1" stop-color="#65e0db"/></linearGradient><linearGradient id="lg1"><stop offset="0" stop-color="#edf5ff"/><stop offset="1" stop-color="#c7e9ff"/></linearGradient><linearGradient id="SVGID_2_" gradientUnits="userSpaceOnUse" x1="77.08" x2="163.532" xlink:href="#lg1" y1="76.933" y2="163.385"/><linearGradient id="SVGID_3_" gradientUnits="userSpaceOnUse" x1="157.456" x2="180.383" xlink:href="#lg1" y1="53.768" y2="76.695"/><linearGradient id="SVGID_4_" gradientUnits="userSpaceOnUse" x1="141.838" x2="268.443" y1="165.372" y2="291.977"><stop offset="0" stop-color="#ff7044"/><stop offset="1" stop-color="#f82814"/></linearGradient><linearGradient id="SVGID_5_" gradientUnits="userSpaceOnUse" x1="150.558" x2="274.599" y1="179.651" y2="303.691"><stop offset="0" stop-color="#ffce47"/><stop offset="1" stop-color="#ff9356"/></linearGradient><linearGradient id="lg2"><stop offset="0" stop-color="#bada00"/><stop offset=".2187" stop-color="#b6d600"/><stop offset=".4501" stop-color="#acc900"/><stop offset=".6873" stop-color="#9ab400"/><stop offset=".9271" stop-color="#829700"/><stop offset="1" stop-color="#798c00"/></linearGradient><linearGradient id="SVGID_6_" gradientUnits="userSpaceOnUse" x1="147.302" x2="237.405" xlink:href="#lg2" y1="181.907" y2="272.01"/><linearGradient id="SVGID_7_" gradientUnits="userSpaceOnUse" x1="191.414" x2="232.285" y1="231.795" y2="272.667"><stop offset="0" stop-color="#18cefb"/><stop offset="1" stop-color="#4a97f6"/></linearGradient><linearGradient id="SVGID_8_" gradientUnits="userSpaceOnUse" x1="255" x2="255" xlink:href="#lg2" y1="321.209" y2="514.212"/><linearGradient id="lg3"><stop offset="0" stop-color="#43765a" stop-opacity="0"/><stop offset="1" stop-color="#43765a"/></linearGradient><linearGradient id="SVGID_9_" gradientUnits="userSpaceOnUse" x1="252.98" x2="275.053" xlink:href="#lg3" y1="452.628" y2="331.757"/><linearGradient id="SVGID_10_" gradientUnits="userSpaceOnUse" x1="253.075" x2="270.195" xlink:href="#lg3" y1="474.975" y2="381.222"/><linearGradient id="lg4"><stop offset="0" stop-color="#798c00"/><stop offset="1" stop-color="#1b444f"/></linearGradient><linearGradient id="SVGID_11_" gradientUnits="userSpaceOnUse" x1="314.768" x2="305.131" xlink:href="#lg4" y1="307.316" y2="382.267"/><linearGradient id="SVGID_12_" gradientUnits="userSpaceOnUse" x1="94.703" x2="116.636" xlink:href="#lg2" y1="269.953" y2="334.531"/><linearGradient id="SVGID_13_" gradientUnits="userSpaceOnUse" x1="353.941" x2="461.372" xlink:href="#lg1" y1="162.193" y2="269.624"/><linearGradient id="lg5"><stop offset="0" stop-color="#7acbff" stop-opacity="0"/><stop offset="1" stop-color="#2f73a0"/></linearGradient><linearGradient id="SVGID_14_" gradientUnits="userSpaceOnUse" x1="395.378" x2="464.498" xlink:href="#lg5" y1="176.303" y2="162.249"/><linearGradient id="SVGID_15_" gradientUnits="userSpaceOnUse" x1="409.383" x2="409.383" xlink:href="#lg5" y1="248.768" y2="285.267"/><linearGradient id="SVGID_16_" gradientUnits="userSpaceOnUse" x1="51.858" x2="82.465" xlink:href="#lg4" y1="420.488" y2="451.096"/><linearGradient id="lg6"><stop offset="0" stop-color="#1b444f" stop-opacity="0"/><stop offset="1" stop-color="#1b444f"/></linearGradient><linearGradient id="SVGID_17_" gradientUnits="userSpaceOnUse" x1="63.663" x2="83.356" xlink:href="#lg6" y1="424.508" y2="420.504"/><linearGradient id="SVGID_18_" gradientUnits="userSpaceOnUse" x1="67.653" x2="67.653" xlink:href="#lg6" y1="443.448" y2="452.577"/><linearGradient id="SVGID_19_" gradientUnits="userSpaceOnUse" x1="82.464" x2="124.033" xlink:href="#lg2" y1="420.79" y2="462.359"/><linearGradient id="SVGID_20_" gradientUnits="userSpaceOnUse" x1="98.497" x2="125.242" xlink:href="#lg3" y1="426.25" y2="420.812"/><linearGradient id="SVGID_21_" gradientUnits="userSpaceOnUse" x1="103.916" x2="103.916" xlink:href="#lg3" y1="451.973" y2="464.371"/><linearGradient id="lg7"><stop offset="0" stop-color="#c59b6d"/><stop offset="1" stop-color="#8b6239"/></linearGradient><linearGradient id="SVGID_22_" gradientUnits="userSpaceOnUse" x1="394.832" x2="430.04" xlink:href="#lg7" y1="414.085" y2="414.085"/><linearGradient id="SVGID_23_" gradientUnits="userSpaceOnUse" x1="403.435" x2="389.012" xlink:href="#lg7" y1="423.339" y2="423.339"/><linearGradient id="SVGID_24_" gradientUnits="userSpaceOnUse" x1="423.287" x2="399.205" xlink:href="#lg7" y1="409.195" y2="409.195"/><linearGradient id="lg8"><stop offset="0" stop-color="#754c24" stop-opacity="0"/><stop offset="1" stop-color="#754c24"/></linearGradient><linearGradient id="SVGID_25_" gradientUnits="userSpaceOnUse" x1="403.876" x2="403.876" xlink:href="#lg8" y1="418.339" y2="397.145"/><linearGradient id="SVGID_26_" gradientUnits="userSpaceOnUse" x1="376.872" x2="438.293" xlink:href="#lg4" y1="354.15" y2="396.949"/><linearGradient id="SVGID_27_" gradientUnits="userSpaceOnUse" x1="409.598" x2="409.598" xlink:href="#lg6" y1="393.523" y2="361.732"/><linearGradient id="SVGID_28_" gradientUnits="userSpaceOnUse" x1="381.741" x2="432.088" xlink:href="#lg4" y1="331.652" y2="366.735"/><linearGradient id="SVGID_29_" gradientUnits="userSpaceOnUse" x1="410.181" x2="410.181" xlink:href="#lg6" y1="358.451" y2="330.093"/><linearGradient id="SVGID_30_" gradientUnits="userSpaceOnUse" x1="385.644" x2="427.113" xlink:href="#lg4" y1="306.621" y2="335.518"/><linearGradient id="SVGID_31_" gradientUnits="userSpaceOnUse" x1="358.943" x2="389.819" xlink:href="#lg7" y1="455.649" y2="455.649"/><linearGradient id="SVGID_32_" gradientUnits="userSpaceOnUse" x1="366.487" x2="353.838" xlink:href="#lg7" y1="463.765" y2="463.765"/><linearGradient id="SVGID_33_" gradientUnits="userSpaceOnUse" x1="383.897" x2="362.777" xlink:href="#lg7" y1="451.361" y2="451.361"/><linearGradient id="SVGID_34_" gradientUnits="userSpaceOnUse" x1="366.874" x2="366.874" xlink:href="#lg8" y1="459.38" y2="440.793"/><linearGradient id="SVGID_35_" gradientUnits="userSpaceOnUse" x1="337.167" x2="365.267" xlink:href="#lg4" y1="396.839" y2="420.255"/><linearGradient id="SVGID_36_" gradientUnits="userSpaceOnUse" x1="371.891" x2="371.891" xlink:href="#lg6" y1="437.617" y2="409.737"/><linearGradient id="SVGID_37_" gradientUnits="userSpaceOnUse" x1="344.875" x2="370.165" xlink:href="#lg4" y1="378.917" y2="403.27"/><linearGradient id="SVGID_38_" gradientUnits="userSpaceOnUse" x1="372.403" x2="372.403" xlink:href="#lg6" y1="406.86" y2="381.99"/><linearGradient id="SVGID_39_" gradientUnits="userSpaceOnUse" x1="337.305" x2="371.728" xlink:href="#lg4" y1="342.554" y2="383.065"/><linearGradient id="SVGID_40_" gradientUnits="userSpaceOnUse" x1="436.7" x2="486.559" xlink:href="#lg7" y1="447.581" y2="447.581"/><linearGradient id="SVGID_41_" gradientUnits="userSpaceOnUse" x1="448.882" x2="428.457" xlink:href="#lg7" y1="460.685" y2="460.685"/><linearGradient id="SVGID_42_" gradientUnits="userSpaceOnUse" x1="476.995" x2="442.891" xlink:href="#lg7" y1="440.657" y2="440.657"/><linearGradient id="SVGID_43_" gradientUnits="userSpaceOnUse" x1="449.507" x2="449.507" xlink:href="#lg8" y1="473.24" y2="443.227"/><linearGradient id="SVGID_44_" gradientUnits="userSpaceOnUse" x1="411.266" x2="498.246" xlink:href="#lg2" y1="382.341" y2="442.95"/><linearGradient id="SVGID_45_" gradientUnits="userSpaceOnUse" x1="457.609" x2="457.609" xlink:href="#lg3" y1="438.099" y2="393.078"/><linearGradient id="SVGID_46_" gradientUnits="userSpaceOnUse" x1="418.161" x2="489.459" xlink:href="#lg2" y1="350.482" y2="400.163"/><linearGradient id="SVGID_47_" gradientUnits="userSpaceOnUse" x1="458.435" x2="458.435" xlink:href="#lg3" y1="388.432" y2="348.273"/><linearGradient id="SVGID_48_" gradientUnits="userSpaceOnUse" x1="423.689" x2="482.414" xlink:href="#lg2" y1="315.035" y2="355.955"/><linearGradient id="SVGID_49_" gradientUnits="userSpaceOnUse" x1="411.447" x2="450.635" xlink:href="#lg4" y1="470.698" y2="509.887"/><linearGradient id="SVGID_50_" gradientUnits="userSpaceOnUse" x1="426.562" x2="451.776" xlink:href="#lg6" y1="475.845" y2="470.718"/><linearGradient id="SVGID_51_" gradientUnits="userSpaceOnUse" x1="431.671" x2="431.671" xlink:href="#lg6" y1="500.095" y2="511.784"/><linearGradient id="SVGID_52_" gradientUnits="userSpaceOnUse" x1="332.93" x2="365.434" xlink:href="#lg2" y1="464.749" y2="497.253"/><linearGradient id="SVGID_53_" gradientUnits="userSpaceOnUse" x1="345.467" x2="366.38" xlink:href="#lg3" y1="469.018" y2="464.765"/><linearGradient id="SVGID_54_" gradientUnits="userSpaceOnUse" x1="349.704" x2="349.704" xlink:href="#lg3" y1="489.131" y2="498.826"/><linearGradient id="SVGID_55_" gradientUnits="userSpaceOnUse" x1="410.905" x2="452.192" xlink:href="#lg1" y1="70.595" y2="111.882"/><g><path d="m485.638 510h-461.276c-13.455 0-24.362-10.907-24.362-24.362v-461.276c0-13.455 10.907-24.362 24.362-24.362h461.275c13.456 0 24.363 10.907 24.363 24.362v461.275c0 13.456-10.907 24.363-24.362 24.363z" fill="url(#SVGID_1_)"/><g><path d="m140.289 89.312h-11.749c0-5.996-1.983-11.529-5.328-15.98 4.362-3.039 7.222-8.084 7.222-13.803 0-9.29-7.531-16.821-16.821-16.821h-33.177c-9.29 0-16.821 7.531-16.821 16.821 0 1.079.111 2.132.306 3.155h-14.529c-14.706 0-26.627 11.922-26.627 26.627s11.922 26.627 26.627 26.627h11.748c0 14.706 11.921 26.627 26.627 26.627h52.52c14.706 0 26.627-11.921 26.627-26.627s-11.919-26.626-26.625-26.626z" fill="url(#SVGID_2_)"/><path d="m165 76.351h-3.564c-9.29 0-16.821-7.531-16.821-16.821 0-9.29 7.531-16.821 16.821-16.821h3.564c9.29 0 16.821 7.531 16.821 16.821 0 9.29-7.531 16.821-16.821 16.821z" fill="url(#SVGID_3_)"/></g><g><path d="m415.12 154.189-19.05 19.06-18.92 18.92-19.87 19.86-18.39 18.4c-18.68-26.16-49.29-45.22-83.89-45.22-56.89 0-105 48.11-105 105v63.67h-105.1v-63.67c0-116.04 94.06-210.1 210.1-210.1 64.16 0 121.6 28.75 160.12 74.08z" fill="url(#SVGID_4_)"/><path d="m396.07 173.249-18.92 18.92-19.87 19.86-18.39 18.4c-18.68-26.16-49.29-45.22-83.89-45.22-56.89 0-105 48.11-105 105v63.67h-78.24v-63.67c0-101.2 82.04-183.24 183.24-183.24 56.74 0 107.45 25.79 141.07 66.28z" fill="url(#SVGID_5_)"/><path d="m377.15 192.169-19.87 19.86-18.39 18.4c-18.68-26.16-49.29-45.22-83.89-45.22-56.89 0-105 48.11-105 105v63.67h-51.62v-63.67c0-86.5 70.12-156.62 156.62-156.62 49.39 0 93.44 22.86 122.15 58.58z" fill="url(#SVGID_6_)"/><path d="m357.28 212.029-18.39 18.4c-18.68-26.16-49.29-43.22-83.89-43.22-56.89 0-103 46.11-103 103v63.67h-25.73v-63.67c0-71.1 57.63-128.73 128.73-128.73 41.7 0 78.76 19.82 102.28 50.55z" fill="url(#SVGID_7_)"/></g><g><path d="m510 485.638v-152.944h-510v152.944c0 13.455 10.907 24.362 24.362 24.362h461.275c13.456 0 24.363-10.907 24.363-24.362z" fill="url(#SVGID_8_)"/><path d="m510 485.638v-90.369h-510v90.369c0 13.455 10.907 24.362 24.362 24.362h461.275c13.456 0 24.363-10.907 24.363-24.362z" fill="url(#SVGID_9_)"/><path d="m510 485.638v-44.64h-510v44.64c0 13.455 10.907 24.362 24.362 24.362h461.275c13.456 0 24.363-10.907 24.363-24.362z" fill="url(#SVGID_10_)"/><path d="m510 307.302c-247.918-33.322-405.5 58.483-405.5 58.483h405.5z" fill="url(#SVGID_11_)"/><path d="m0 365.786h254.501s-98.8-90.662-254.501-59.091z" fill="url(#SVGID_12_)"/></g><g><g><g><path d="m455.243 160.421c-5.937 0-11.651.948-17.004 2.696-5.726-18.68-23.108-32.264-43.664-32.264-25.219 0-45.664 20.444-45.664 45.664 0 3.644.429 7.187 1.236 10.584-21.522 1.517-38.512 19.455-38.512 41.364 0 22.903 18.567 41.47 41.47 41.47h102.138c30.241 0 54.757-24.515 54.757-54.757s-24.515-54.757-54.757-54.757z" fill="url(#SVGID_13_)"/><path d="m400.485 215.18c0 2.221.134 4.41.392 6.562-2.06.29-4.166.438-6.304.438-25.22 0-45.661-20.446-45.661-45.665 0-25.215 20.441-45.661 45.661-45.661 20.556 0 37.942 13.584 43.666 32.265-21.916 7.147-37.754 27.754-37.754 52.061z" fill="url(#SVGID_14_)"/><path d="m311.955 233.627c2.541 20.467 19.995 36.308 41.15 36.308h102.138c23.767 0 43.995-15.144 51.568-36.308z" fill="url(#SVGID_15_)"/></g></g></g><g><g><g><g><path d="m80.719 419.983c-1.691 0-3.319.27-4.844.768-1.631-5.322-6.583-9.192-12.44-9.192-7.185 0-13.01 5.825-13.01 13.01 0 1.038.122 2.048.352 3.016-6.132.432-10.972 5.543-10.972 11.785 0 6.525 5.29 11.815 11.815 11.815h29.099c8.616 0 15.6-6.984 15.6-15.6 0-8.617-6.984-15.602-15.6-15.602z" fill="url(#SVGID_16_)"/><path d="m65.118 435.584c0 .633.038 1.256.112 1.869-.587.083-1.187.125-1.796.125-7.185 0-13.009-5.825-13.009-13.01 0-7.184 5.824-13.009 13.009-13.009 5.857 0 10.81 3.87 12.44 9.192-6.244 2.037-10.756 7.908-10.756 14.833z" fill="url(#SVGID_17_)"/><path d="m39.896 440.84c.724 5.831 5.697 10.344 11.724 10.344h29.099c6.771 0 12.534-4.315 14.692-10.344z" fill="url(#SVGID_18_)"/></g></g></g><g><g><g><path d="m121.661 420.105c-2.297 0-4.508.367-6.579 1.043-2.216-7.228-8.941-12.484-16.895-12.484-9.758 0-17.669 7.911-17.669 17.669 0 1.41.166 2.781.478 4.096-8.328.587-14.902 7.528-14.902 16.005 0 8.862 7.184 16.046 16.046 16.046h39.521c11.702 0 21.187-9.486 21.187-21.187s-9.485-21.188-21.187-21.188z" fill="url(#SVGID_19_)"/><path d="m100.473 441.293c0 .859.052 1.706.152 2.539-.797.112-1.612.169-2.439.169-9.758 0-17.668-7.911-17.668-17.67 0-9.757 7.909-17.668 17.668-17.668 7.954 0 14.681 5.256 16.896 12.485-8.48 2.766-14.609 10.739-14.609 20.145z" fill="url(#SVGID_20_)"/><path d="m66.218 448.431c.983 7.919 7.737 14.049 15.923 14.049h39.521c9.197 0 17.023-5.86 19.953-14.049z" fill="url(#SVGID_21_)"/></g></g></g></g><g><g><path d="m393.425 390.53h20.903v47.109h-20.903z" fill="url(#SVGID_22_)"/><path d="m402.553 437.64h-6.617v-25.293c0-1.827 1.481-3.309 3.309-3.309 1.827 0 3.309 1.481 3.309 3.309v25.293z" fill="url(#SVGID_23_)"/><path d="m405.42 406.538c1.584 0 2.868 1.284 2.868 2.868v15.588c0 1.584 1.284 2.868 2.868 2.868h.305c1.584 0 2.868-1.284 2.868-2.868v-34.464h-11.775v13.14c-.001 1.584 1.282 2.868 2.866 2.868z" fill="url(#SVGID_24_)"/></g><path d="m414.327 390.532v33.242l-20.765-20.766-.137 1.796v-14.272z" fill="url(#SVGID_25_)"/><g><path d="m443.435 378.828-33.248-50.715c-2.98-4.545-9.642-4.545-12.622 0l-32.342 49.333-1.879 2.717c-1.59 2.227-2.426 5.028-2.124 8.037.55 5.472 4.964 9.914 10.433 10.493 2.074.22 4.051-.102 5.81-.839 2.644-1.108 5.694-.433 7.698 1.617 2.133 2.182 5.107 3.537 8.401 3.537 2.399 0 4.63-.718 6.49-1.951 2.311-1.531 5.338-1.531 7.649 0 1.86 1.233 4.091 1.951 6.49 1.951 3.294 0 6.268-1.355 8.401-3.537 2.004-2.05 5.054-2.724 7.698-1.617 1.759.737 3.736 1.058 5.81.839 5.469-.579 9.883-5.021 10.433-10.493.315-3.134-.606-6.042-2.327-8.312-.265-.348-.531-.694-.771-1.06z" fill="url(#SVGID_26_)"/><path d="m446.532 388.199c-.551 5.475-4.963 9.917-10.433 10.495-2.073.221-4.05-.101-5.81-.838-2.643-1.107-5.695-.432-7.698 1.615-2.131 2.184-5.104 3.538-8.4 3.538-2.4 0-4.628-.719-6.49-1.95-.185-.124-.379-.238-.574-.344l-34.525-34.525 24.961-38.077c2.982-4.544 9.644-4.544 12.626 0l33.246 50.716c.238.366.507.71.772 1.059 1.721 2.271 2.638 5.178 2.325 8.311z" fill="url(#SVGID_27_)"/><path d="m436.303 351.881-27.254-41.572c-2.443-3.726-7.904-3.726-10.346 0l-26.511 40.439-1.54 2.228c-1.303 1.826-1.989 4.122-1.741 6.588.451 4.485 4.069 8.127 8.552 8.601 1.7.18 3.32-.083 4.762-.688 2.167-.908 4.667-.355 6.31 1.325 1.749 1.789 4.186 2.9 6.887 2.9 1.967 0 3.795-.589 5.32-1.599 1.894-1.255 4.375-1.255 6.27 0 1.525 1.01 3.353 1.599 5.32 1.599 2.701 0 5.138-1.111 6.887-2.9 1.642-1.68 4.143-2.233 6.31-1.325 1.442.604 3.063.867 4.762.688 4.483-.474 8.101-4.116 8.552-8.601.258-2.569-.497-4.953-1.907-6.813-.218-.286-.436-.57-.633-.87z" fill="url(#SVGID_28_)"/><path d="m438.843 359.563c-.45 4.487-4.072 8.126-8.554 8.603-1.698.181-3.318-.084-4.76-.688-2.166-.909-4.668-.353-6.313 1.323-.935.957-2.065 1.721-3.326 2.219l-34.419-34.424 17.232-26.284c2.444-3.728 7.906-3.728 10.35 0l27.251 41.571c.199.3.415.582.631.869 1.409 1.857 2.164 4.243 1.908 6.811z" fill="url(#SVGID_29_)"/><path d="m430.585 323.283-22.448-34.241c-2.012-3.069-6.51-3.069-8.522 0l-21.836 33.308-1.268 1.835c-1.073 1.504-1.638 3.395-1.434 5.426.371 3.694 3.352 6.694 7.044 7.085 1.4.148 2.735-.069 3.923-.566 1.785-.748 3.844-.292 5.197 1.091 1.44 1.473 3.448 2.388 5.672 2.388 1.62 0 3.126-.485 4.382-1.317 1.56-1.034 3.604-1.034 5.164 0 1.256.832 2.762 1.317 4.382 1.317 2.224 0 4.232-.915 5.672-2.388 1.353-1.384 3.412-1.839 5.197-1.091 1.188.498 2.522.715 3.923.566 3.692-.391 6.673-3.39 7.044-7.085.213-2.116-.409-4.079-1.571-5.612-.179-.235-.359-.469-.521-.716z" fill="url(#SVGID_30_)"/></g></g><g><g><path d="m357.708 434.992h18.332v41.314h-18.332z" fill="url(#SVGID_31_)"/><path d="m365.713 476.306h-5.803v-22.182c0-1.603 1.299-2.902 2.902-2.902 1.603 0 2.902 1.299 2.902 2.902v22.182z" fill="url(#SVGID_32_)"/><path d="m368.228 449.031c1.389 0 2.515 1.126 2.515 2.515v13.67c0 1.389 1.126 2.515 2.515 2.515h.267c1.389 0 2.515-1.126 2.515-2.515v-30.223h-10.326v11.523c-.001 1.389 1.125 2.515 2.514 2.515z" fill="url(#SVGID_33_)"/></g><path d="m376.039 434.994v29.152l-18.211-18.21-.12 1.574v-12.516z" fill="url(#SVGID_34_)"/><g><path d="m401.566 424.73-29.158-44.476c-2.613-3.986-8.456-3.986-11.069 0l-28.363 43.264-1.648 2.383c-1.394 1.953-2.128 4.41-1.863 7.048.482 4.799 4.353 8.695 9.149 9.202 1.819.193 3.552-.089 5.095-.736 2.318-.971 4.993-.38 6.751 1.418 1.871 1.914 4.479 3.102 7.368 3.102 2.104 0 4.06-.63 5.692-1.711 2.027-1.343 4.681-1.343 6.708 0 1.631 1.081 3.588 1.711 5.692 1.711 2.889 0 5.497-1.188 7.368-3.102 1.757-1.798 4.432-2.389 6.751-1.418 1.543.646 3.277.928 5.095.736 4.796-.508 8.667-4.404 9.149-9.202.276-2.748-.532-5.299-2.041-7.289-.232-.306-.466-.61-.676-.93z" fill="url(#SVGID_35_)"/><path d="m404.282 432.948c-.484 4.801-4.353 8.697-9.15 9.204-1.818.193-3.552-.089-5.095-.735-2.317-.971-4.995-.379-6.751 1.416-1.869 1.915-4.476 3.103-7.366 3.103-2.105 0-4.058-.631-5.691-1.71-.163-.108-.333-.209-.503-.302l-30.278-30.278 21.89-33.393c2.615-3.985 8.457-3.985 11.073 0l29.156 44.477c.209.321.445.623.677.929 1.508 1.992 2.313 4.542 2.038 7.289z" fill="url(#SVGID_36_)"/><path d="m395.312 401.098-23.902-36.458c-2.142-3.267-6.932-3.267-9.074 0l-23.25 35.464-1.351 1.953c-1.143 1.601-1.744 3.615-1.527 5.777.395 3.934 3.569 7.127 7.5 7.543 1.491.158 2.912-.073 4.177-.603 1.9-.796 4.093-.311 5.534 1.162 1.534 1.569 3.671 2.543 6.039 2.543 1.725 0 3.328-.516 4.665-1.402 1.661-1.101 3.837-1.101 5.498 0 1.337.886 2.941 1.402 4.665 1.402 2.368 0 4.506-.974 6.039-2.543 1.44-1.473 3.633-1.958 5.534-1.162 1.265.53 2.686.761 4.177.603 3.931-.416 7.105-3.61 7.5-7.543.226-2.253-.436-4.344-1.673-5.975-.188-.249-.379-.498-.551-.761z" fill="url(#SVGID_37_)"/><path d="m397.539 407.835c-.395 3.935-3.571 7.126-7.502 7.544-1.49.159-2.909-.073-4.175-.604-1.9-.797-4.093-.31-5.536 1.161-.82.84-1.811 1.509-2.917 1.946l-30.185-30.189 15.112-23.051c2.143-3.269 6.933-3.269 9.076 0l23.898 36.457c.174.263.364.511.553.762 1.238 1.629 1.9 3.722 1.676 5.974z" fill="url(#SVGID_38_)"/><path d="m390.297 376.018-19.686-30.028c-1.764-2.691-5.709-2.691-7.474 0l-19.15 29.21-1.112 1.609c-.941 1.319-1.437 2.977-1.258 4.758.325 3.24 2.939 5.87 6.177 6.213 1.228.13 2.398-.06 3.44-.497 1.565-.656 3.371-.256 4.558.957 1.263 1.292 3.024 2.094 4.974 2.094 1.42 0 2.741-.425 3.843-1.155 1.368-.907 3.161-.907 4.529 0 1.101.73 2.422 1.155 3.843 1.155 1.951 0 3.711-.802 4.974-2.094 1.186-1.214 2.992-1.613 4.558-.957 1.042.436 2.212.627 3.44.497 3.238-.343 5.852-2.973 6.177-6.213.186-1.855-.359-3.578-1.378-4.922-.156-.206-.313-.411-.455-.627z" fill="url(#SVGID_39_)"/></g></g><g><g><path d="m434.706 414.224h29.601v66.713h-29.601z" fill="url(#SVGID_40_)"/><path d="m447.633 480.937h-9.371v-35.818c0-2.588 2.098-4.686 4.686-4.686 2.588 0 4.686 2.098 4.686 4.686v35.818z" fill="url(#SVGID_41_)"/><path d="m451.693 436.893c2.243 0 4.061 1.818 4.061 4.061v22.074c0 2.243 1.818 4.061 4.061 4.061h.432c2.243 0 4.061-1.818 4.061-4.061v-48.804h-16.675v18.608c0 2.243 1.818 4.061 4.06 4.061z" fill="url(#SVGID_42_)"/></g><path d="m464.307 433.863v47.074l-29.406-29.406-.194 2.542v-20.21z" fill="url(#SVGID_43_)"/><g><path d="m505.528 417.288-47.083-71.818c-4.22-6.437-13.655-6.437-17.874 0l-45.8 69.862-2.66 3.848c-2.251 3.154-3.436 7.121-3.008 11.381.778 7.749 7.03 14.04 14.774 14.859 2.937.311 5.736-.144 8.228-1.188 3.744-1.568 8.063-.613 10.901 2.289 3.021 3.09 7.232 5.009 11.897 5.009 3.397 0 6.556-1.017 9.191-2.762 3.272-2.168 7.559-2.168 10.831 0 2.634 1.746 5.793 2.762 9.191 2.762 4.665 0 8.876-1.919 11.897-5.009 2.837-2.903 7.157-3.858 10.901-2.289 2.492 1.044 5.291 1.499 8.228 1.188 7.744-.82 13.996-7.111 14.774-14.859.446-4.438-.858-8.557-3.295-11.771-.376-.494-.754-.984-1.093-1.502z" fill="url(#SVGID_44_)"/><path d="m509.913 430.558c-.781 7.753-7.028 14.044-14.775 14.863-2.936.312-5.735-.144-8.228-1.187-3.742-1.568-8.065-.612-10.902 2.286-3.017 3.092-7.228 5.01-11.895 5.01-3.399 0-6.554-1.018-9.19-2.761-.262-.175-.537-.337-.812-.487l-48.891-48.892 35.348-53.921c4.223-6.435 13.657-6.435 17.88 0l47.08 71.82c.337.519.718 1.006 1.093 1.499 2.436 3.217 3.736 7.334 3.292 11.77z" fill="url(#SVGID_45_)"/><path d="m495.428 379.128-38.595-58.871c-3.459-5.276-11.193-5.276-14.652 0l-37.543 57.267-2.181 3.154c-1.845 2.586-2.817 5.837-2.466 9.329.638 6.352 5.762 11.509 12.111 12.181 2.407.255 4.702-.118 6.744-.974 3.069-1.286 6.61-.503 8.935 1.877 2.476 2.533 5.928 4.106 9.752 4.106 2.785 0 5.374-.834 7.534-2.264 2.682-1.777 6.196-1.777 8.879 0 2.159 1.431 4.749 2.264 7.534 2.264 3.824 0 7.276-1.573 9.752-4.106 2.326-2.379 5.867-3.162 8.936-1.877 2.042.856 4.337 1.228 6.744.974 6.348-.672 11.473-5.829 12.111-12.181.365-3.638-.704-7.014-2.701-9.649-.306-.404-.616-.806-.894-1.23z" fill="url(#SVGID_46_)"/><path d="m499.024 390.006c-.637 6.354-5.766 11.508-12.114 12.182-2.405.256-4.698-.119-6.741-.975-3.068-1.287-6.61-.5-8.94 1.874-1.324 1.356-2.924 2.436-4.711 3.142l-48.742-48.748 24.402-37.222c3.461-5.279 11.195-5.279 14.656 0l38.59 58.869c.281.425.587.825.893 1.231 2.001 2.631 3.07 6.011 2.707 9.647z" fill="url(#SVGID_47_)"/><path d="m487.33 338.629-31.789-48.489c-2.849-4.346-9.219-4.346-12.068 0l-30.923 47.168-1.796 2.598c-1.52 2.13-2.32 4.808-2.031 7.684.526 5.232 4.746 9.479 9.975 10.033 1.983.21 3.873-.097 5.555-.802 2.528-1.059 5.444-.414 7.36 1.546 2.04 2.086 4.883 3.382 8.033 3.382 2.294 0 4.427-.687 6.205-1.865 2.209-1.464 5.104-1.464 7.313 0 1.779 1.179 3.911 1.865 6.205 1.865 3.15 0 5.993-1.296 8.033-3.382 1.916-1.96 4.832-2.605 7.36-1.546 1.682.705 3.572 1.012 5.555.802 5.229-.553 9.449-4.801 9.975-10.033.301-2.996-.579-5.777-2.225-7.947-.253-.333-.508-.664-.737-1.014z" fill="url(#SVGID_48_)"/></g></g><g><g><g><path d="m448.4 470.052c-2.166 0-4.25.346-6.203.983-2.089-6.814-8.429-11.769-15.928-11.769-9.2 0-16.657 7.458-16.657 16.657 0 1.329.157 2.622.451 3.861-7.851.553-14.048 7.097-14.048 15.089 0 8.355 6.773 15.127 15.127 15.127h37.258c11.031 0 19.974-8.943 19.974-19.974 0-11.032-8.943-19.974-19.974-19.974z" fill="url(#SVGID_49_)"/><path d="m428.425 490.027c0 .81.049 1.609.143 2.394-.751.106-1.52.16-2.299.16-9.2 0-16.656-7.458-16.656-16.658 0-9.198 7.457-16.656 16.656-16.656 7.499 0 13.841 4.955 15.928 11.77-7.995 2.606-13.772 10.123-13.772 18.99z" fill="url(#SVGID_50_)"/><path d="m396.131 496.756c.927 7.466 7.294 13.244 15.011 13.244h37.258c8.67 0 16.048-5.524 18.811-13.244z" fill="url(#SVGID_51_)"/></g></g></g><g><g><g><path d="m363.58 464.212c-1.796 0-3.525.287-5.145.816-1.732-5.652-6.992-9.762-13.211-9.762-7.63 0-13.816 6.186-13.816 13.816 0 1.103.13 2.175.374 3.202-6.512.459-11.652 5.886-11.652 12.515 0 6.93 5.618 12.547 12.547 12.547h30.903c9.15 0 16.567-7.417 16.567-16.567s-7.417-16.567-16.567-16.567z" fill="url(#SVGID_52_)"/><path d="m347.012 480.78c0 .672.04 1.334.118 1.985-.623.088-1.26.132-1.907.132-7.63 0-13.815-6.186-13.815-13.817 0-7.629 6.185-13.815 13.815-13.815 6.22 0 11.48 4.11 13.211 9.762-6.63 2.164-11.422 8.399-11.422 15.753z" fill="url(#SVGID_53_)"/><path d="m320.226 486.361c.769 6.193 6.05 10.985 12.451 10.985h30.903c7.191 0 13.311-4.582 15.602-10.985z" fill="url(#SVGID_54_)"/></g></g></g><path d="m456.711 94.619h-7.964c0 9.968-8.081 18.049-18.049 18.049h-35.6c-9.968 0-18.049-8.081-18.049-18.049s8.081-18.049 18.049-18.049h7.963c0-9.968 8.081-18.049 18.049-18.049h35.6c9.968 0 18.049 8.081 18.049 18.049.001 9.968-8.08 18.049-18.048 18.049z" fill="url(#SVGID_55_)"/></g></svg>