<svg height="512" viewBox="0 0 64 64" width="512" xmlns="http://www.w3.org/2000/svg" xmlns:xlink="http://www.w3.org/1999/xlink"><linearGradient id="linear-gradient" gradientUnits="userSpaceOnUse" x1="42.5" x2="42.5" y1="26" y2="15"><stop offset="0" stop-color="#fe9661"/><stop offset="1" stop-color="#ffb369"/></linearGradient><linearGradient id="linear-gradient-2" gradientUnits="userSpaceOnUse" x1="22" x2="22" y1="22" y2="8"><stop offset="0" stop-color="#d3e6f5"/><stop offset="1" stop-color="#f0f7fc"/></linearGradient><linearGradient id="linear-gradient-3" x1="11.5" x2="11.5" xlink:href="#linear-gradient-2" y1="38.52" y2="32.52"/><linearGradient id="linear-gradient-4" xlink:href="#linear-gradient-2" y1="38.52" y2="32.52"/><linearGradient id="linear-gradient-5" x1="32.5" x2="32.5" xlink:href="#linear-gradient-2" y1="38.52" y2="32.52"/><linearGradient id="linear-gradient-6" x1="11.5" x2="11.5" xlink:href="#linear-gradient-2" y1="46.52" y2="40.52"/><linearGradient id="linear-gradient-7" xlink:href="#linear-gradient-2" y1="46.52" y2="40.52"/><linearGradient id="linear-gradient-8" x1="32.5" x2="32.5" xlink:href="#linear-gradient-2" y1="46.52" y2="40.52"/><linearGradient id="linear-gradient-9" x1="11.5" x2="11.5" xlink:href="#linear-gradient-2" y1="54.52" y2="48.52"/><linearGradient id="linear-gradient-10" xlink:href="#linear-gradient-2" y1="54.52" y2="48.52"/><linearGradient id="linear-gradient-11" x1="32.5" x2="32.5" xlink:href="#linear-gradient-2" y1="54.52" y2="48.52"/><linearGradient id="linear-gradient-12" x1="11" x2="33" xlink:href="#linear-gradient-2" y1="38" y2="16"/><g id="Point_Of_Service" data-name="Point Of Service"><path d="m61 15v34a5 5 0 0 1 -5 5h-16a1 1 0 0 1 -1-1v-42a1 1 0 0 1 1-1h16a5 5 0 0 1 5 5z" fill="#d7e9f7"/><path d="m43 15h-3a1 1 0 0 0 -1 1v9a1 1 0 0 0 1 1h3a3 3 0 0 0 3-3v-5a3 3 0 0 0 -3-3z" fill="url(#linear-gradient)"/><path d="m41 8v43.15a10.42 10.42 0 0 1 -10 9.85h-18.29c-5 0-9.54-4.59-9.71-9.81v-43.19a5 5 0 0 1 5-5h28a5 5 0 0 1 5 5z" fill="#54a5ff"/><rect fill="url(#linear-gradient-2)" height="14" rx="3" width="24" x="10" y="8"/><path d="m40 30h-36a1 1 0 0 1 -1-1v-4a1 1 0 0 1 1-1h36a1 1 0 0 1 1 1v4a1 1 0 0 1 -1 1zm-35-2h34v-2h-34z"/><path d="m12.5 32.52h-2a3 3 0 0 0 0 6h2a3 3 0 0 0 0-6z" fill="url(#linear-gradient-3)"/><path d="m23 32.52h-2a3 3 0 0 0 0 6h2a3 3 0 0 0 0-6z" fill="url(#linear-gradient-4)"/><path d="m31.5 38.52h2a3 3 0 0 0 0-6h-2a3 3 0 0 0 0 6z" fill="url(#linear-gradient-5)"/><path d="m12.5 40.52h-2a3 3 0 0 0 0 6h2a3 3 0 0 0 0-6z" fill="url(#linear-gradient-6)"/><path d="m23 40.52h-2a3 3 0 0 0 0 6h2a3 3 0 1 0 0-6z" fill="url(#linear-gradient-7)"/><path d="m33.5 40.52h-2a3 3 0 0 0 0 6h2a3 3 0 0 0 0-6z" fill="url(#linear-gradient-8)"/><path d="m12.5 48.52h-2a3 3 0 0 0 0 6h2a3 3 0 1 0 0-6z" fill="url(#linear-gradient-9)"/><path d="m23 48.52h-2a3 3 0 0 0 0 6h2a3 3 0 1 0 0-6z" fill="url(#linear-gradient-10)"/><path d="m33.5 48.52h-2a3 3 0 0 0 0 6h2a3 3 0 0 0 0-6z" fill="url(#linear-gradient-11)"/><path d="m56 18a1 1 0 0 1 -1-1v-2a1 1 0 0 1 2 0v2a1 1 0 0 1 -1 1z" fill="#4795ea"/><path d="m56 24a1 1 0 0 1 -1-1v-2a1 1 0 0 1 2 0v2a1 1 0 0 1 -1 1z" fill="#54a5ff"/><path d="m56 30a1 1 0 0 1 -1-1v-2a1 1 0 0 1 2 0v2a1 1 0 0 1 -1 1z" fill="#8ad3fe"/><path d="m51 10h2v44h-2z" fill="#b4cde1"/><path d="m3 24h38v6h-38z" fill="url(#linear-gradient-12)"/></g></svg>