

<svg height="512pt" viewBox="-59 0 512 512.00038" width="512pt" xmlns="http://www.w3.org/2000/svg"><path d="m338.175781 138.410156c-16.03125 15.792969-35.054687 28.265625-56.003906 36.460938-33.425781 13.070312-66.703125 33.558594-78.414063 64.972656.679688-.394531 32.210938-18.46875 71.171876-28.882812-.15625.285156-.304688.578124-.460938.859374-42.570312 83.277344-113.089844 97.488282-128.527344 89.160157-.375-.199219-.773437-.398438-1.214844-.597657-16.167968-7.378906-73.375-14.523437-16.660156-146.179687 11.125-25.816406 25.011719-48.179687 40.574219-67.246094-1.277344 19.085938.105469 40.132813 7.324219 59.847657 0 0 .828125-9.679688 4.113281-24.257813 14.367187-63.65625 66.261719-112.589844 130.941406-121.273437 33.539063-4.511719 61.230469 3.054687 73.410157 21.261718 3.183593 4.753906 5.496093 9.472656 7.03125 14.171875 1.332031 4.027344 2.085937 8.035157 2.34375 12.023438 1.957031 30.566406-25.65625 60.160156-55.628907 89.679687zm0 0" fill="#5eb3dd"/><path d="m391.460938 36.707031c-11.332032-24.101562-62-5.421875-106.171876 31.183594-43.785156 36.28125-113.257812 141.964844-140.5625 232.492187-16.167968-7.378906-73.375-14.523437-16.660156-146.179687 11.125-25.816406 25.011719-48.179687 40.574219-67.246094-1.277344 19.085938.105469 40.132813 7.324219 59.847657 0 0 .828125-9.679688 4.113281-24.257813 14.367187-63.65625 66.261719-112.589844 130.941406-121.273437 33.539063-4.511719 61.230469 3.054687 73.410157 21.261718 3.183593 4.753906 5.496093 9.472656 7.03125 14.171875zm0 0" fill="#369ac1"/><path d="m137.398438 338.445312c-.542969 0-1.09375-.054687-1.648438-.175781-4.238281-.902343-6.941406-5.074219-6.035156-9.3125 7.535156-35.289062 28.019531-94.734375 62.90625-155.742187 27.011718-47.230469 71.753906-110.589844 131.527344-144.183594 3.78125-2.125 8.566406-.785156 10.6875 2.996094 2.125 3.777344.785156 8.5625-2.996094 10.6875-56.648438 31.839844-99.5625 92.777344-125.589844 138.292968-33.992188 59.441407-53.894531 117.09375-61.183594 151.226563-.789062 3.6875-4.046875 6.210937-7.667968 6.210937zm0 0" fill="#f9c84e"/><path d="m186.371094 357.636719h-132.726563c-29.628906 0-53.644531 24.015625-53.644531 53.640625v47.082031c0 29.625 24.015625 53.640625 53.644531 53.640625h132.726563c29.625 0 53.640625-24.015625 53.640625-53.640625v-47.082031c0-29.625-24.015625-53.640625-53.640625-53.640625zm0 0" fill="#3e4c56"/><path d="m109.554688 512h-55.914063c-29.625 0-53.640625-24.015625-53.640625-53.640625v-47.082031c0-29.625 24.015625-53.640625 53.640625-53.640625h55.914063c-29.625 0-53.640626 24.015625-53.640626 53.640625v47.082031c0 29.625 24.015626 53.640625 53.640626 53.640625zm0 0" fill="#212c33"/><path d="m197.738281 462.640625c-8.285156 0-15-6.714844-15-15v-36.820313c0-8.285156 6.714844-15 15-15 8.285157 0 15 6.714844 15 15v36.820313c0 8.285156-6.714843 15-15 15zm0 0" fill="#66747c"/><path d="m223.878906 358.683594h-207.742187c-8.914063 0-16.136719-7.226563-16.136719-16.136719s7.222656-16.136719 16.136719-16.136719h207.742187c8.910156 0 16.132813 7.226563 16.132813 16.136719s-7.222657 16.136719-16.132813 16.136719zm0 0" fill="#aae3f9"/><path d="m72.332031 358.683594h-56.195312c-8.90625 0-16.136719-7.222656-16.136719-16.136719 0-4.457031 1.8125-8.488281 4.730469-11.40625s6.949219-4.730469 11.40625-4.730469h56.195312c-4.457031 0-8.488281 1.8125-11.40625 4.730469-2.921875 2.917969-4.730469 6.949219-4.730469 11.40625 0 8.914063 7.230469 16.136719 16.136719 16.136719zm0 0" fill="#8fd0e5"/><path d="m213.214844 342.433594c0 4.171875-3.382813 7.554687-7.554688 7.554687-4.175781 0-7.558594-3.382812-7.558594-7.554687 0-4.175782 3.382813-7.558594 7.558594-7.558594 4.171875 0 7.554688 3.382812 7.554688 7.558594zm0 0" fill="#fff"/></svg>