<!--
  - Copyright (c) 2023. Selldone® Business OS™
  -
  - Author: M.Pajuhaan
  - Web: https://selldone.com
  - ━━━━━━━━━━━━━━━━━━━━━━━━━━━━━━━━━━━━━━━━━━━━━━━━━━━━━━
  -
  - All rights reserved. In the weave of time, where traditions and innovations intermingle, this content was crafted.
  - From the essence of thought, through the corridors of creativity, each word, and sentiment has been molded.
  - Not just to exist, but to inspire. Like an artist's stroke or a sculptor's chisel, every nuance is deliberate.
  - Our journey is not just about reaching a destination, but about creating a masterpiece.
  - Tread carefully, for you're treading on dreams.
  -->

<svg height="512" viewBox="0 0 512 512" width="512" xmlns="http://www.w3.org/2000/svg"><g id="flat"><g fill="#cbcbcb"><circle cx="256" cy="464" r="18"/><circle cx="160" cy="464" r="18"/><circle cx="352" cy="464" r="18"/></g><path d="m144 448v-40.192a10 10 0 0 1 7.575-9.7l88.425-22.108v40l-64 8v24z" fill="#a8a8a8"/><path d="m368 448v-40.192a10 10 0 0 0 -7.575-9.7l-88.425-22.108v40l64 8v24z" fill="#a8a8a8"/><path d="m240 376h32v72h-32z" fill="#cbcbcb"/><path d="m240 328h32v48h-32z" fill="#a8a8a8"/><path d="m320 312h-128v-24l-23.331-64.16a58.973 58.973 0 0 1 2.676-46.529l4.655-9.311v-81a31 31 0 0 1 31-31h98a31 31 0 0 1 31 31v81a58.978 58.978 0 0 1 6.879 51.364l-22.879 68.636z" fill="#026ca2"/><path d="m339.97 174.94a6.968 6.968 0 0 1 -.82.41l-56 24a7.932 7.932 0 0 1 -3.15.65h-49a8.018 8.018 0 0 1 -3.2-.67l-55-24c-.13-.06-.26-.12-.38-.18l3.58-7.15v-8a7.891 7.891 0 0 1 3.2.67l53.47 23.33h45.69l54.49-23.35a8.007 8.007 0 0 1 3.15-.65v8a56.957 56.957 0 0 1 3.97 6.94z" fill="#026ca2"/><path d="m232 304a8 8 0 0 1 -8-8v-79.529a313.1 313.1 0 0 0 -3.628-47.442l-.015-.1-12.279-87.355a8 8 0 0 1 15.844-2.228l12.272 87.3a329.049 329.049 0 0 1 3.806 49.825v79.529a8 8 0 0 1 -8 8z" fill="#025b89"/><path d="m281.229 305.272a8 8 0 0 1 -8-7.906l-.922-78.92a328.832 328.832 0 0 1 3.782-53.656l11.985-85.441a8 8 0 0 1 15.846 2.222l-11.99 85.493c0 .035-.011.07-.016.105a312.861 312.861 0 0 0 -3.606 51.089l.922 78.921a8 8 0 0 1 -7.905 8.093z" fill="#025b89"/><path d="m339.97 174.94a6.968 6.968 0 0 1 -.82.41l-56 24a7.932 7.932 0 0 1 -3.15.65h-49a8.018 8.018 0 0 1 -3.2-.67l-55-24c-.13-.06-.26-.12-.38-.18l3.58-7.15v-8a7.891 7.891 0 0 1 3.2.67l53.47 23.33h45.69l54.49-23.35a8.007 8.007 0 0 1 3.15-.65v8a56.957 56.957 0 0 1 3.97 6.94z" fill="#025b89"/><path d="m175.994 304a7.967 7.967 0 0 1 -4.794-1.6l-32-24a8 8 0 0 1 -3.2-6.4v-40a8 8 0 0 1 16 0v36l28.8 21.6a8 8 0 0 1 -4.806 14.4z" fill="#a8a8a8"/><path d="m336.006 304a8 8 0 0 1 -4.806-14.4l28.8-21.6v-36a8 8 0 0 1 16 0v40a8 8 0 0 1 -3.2 6.4l-32 24a7.965 7.965 0 0 1 -4.794 1.6z" fill="#a8a8a8"/><path d="m329.33 316.89a216.487 216.487 0 0 1 -68.463 11.11h-24.6a146.775 146.775 0 0 1 -54.511-10.5 21.882 21.882 0 0 1 -13.756-20.315 21.883 21.883 0 0 1 30.5-20.113 135.152 135.152 0 0 0 53.241 10.928h7.869a138.317 138.317 0 0 0 54.484-11.183 21.454 21.454 0 0 1 29.906 19.719 21.454 21.454 0 0 1 -14.67 20.354z" fill="#025b89"/><rect fill="#027ebd" height="64" rx="18" width="96" x="208" y="24"/><path d="m344 232h48v-24a8 8 0 0 0 -8-8h-32a8 8 0 0 0 -8 8z" fill="#027ebd"/><path d="m168 232h-48v-24a8 8 0 0 1 8-8h32a8 8 0 0 1 8 8z" fill="#027ebd"/><path d="m256 488a24 24 0 1 1 24-24 24.027 24.027 0 0 1 -24 24zm0-36a12 12 0 1 0 12 12 12.013 12.013 0 0 0 -12-12z" fill="#025b89"/><path d="m160 488a24 24 0 1 1 24-24 24.027 24.027 0 0 1 -24 24zm0-36a12 12 0 1 0 12 12 12.013 12.013 0 0 0 -12-12z" fill="#025b89"/><path d="m352 488a24 24 0 1 1 24-24 24.027 24.027 0 0 1 -24 24zm0-36a12 12 0 1 0 12 12 12.013 12.013 0 0 0 -12-12z" fill="#025b89"/></g></svg>