<svg height="512pt" viewBox="0 0 512 512" width="512pt" xmlns="http://www.w3.org/2000/svg"><path d="m482 75v91c0 35.699219-6.300781 70.601562-17.101562 102.699219-1.5 4.5-33.296876 9.300781-35.097657 13.800781-1.800781 4.800781 26.101563 9.597656 24 14.101562-21 46.199219-52.5 86.398438-91.800781 117.296876-6.898438 5.699218-14.097656 10.800781-21.300781 15.601562-5.699219 3.898438-41.699219-22.5-47.699219-19.199219-3.300781 2.097657 23.398438 33.898438 20.101562 35.699219-43.800781 22.800781-93.300781 36-146.101562 36h-91c-2.402344 0-4.5-.601562-6.597656-1.5l-61-30c-5.101563-2.699219-8.402344-7.800781-8.402344-13.5v-30c0-5.699219 3.300781-10.800781 8.402344-13.5l61.296875-30c2.101562-1.199219 4.5-1.800781 6.601562-1.800781 34.796875 0 68.199219-10.800781 94.898438-29.398438 3.601562-2.699219 37.5 24.597657 41.101562 21.597657 4.199219-3.597657-21.601562-37.199219-17.703125-41.398438 20.101563-20.398438 35.101563-46.5 42.300782-75.601562.902343-4.199219 31.800781-8.398438 32.699218-12.597657.902344-5.699219-28.5-11.402343-28.199218-17.101562.300781-3.601563.601562-6.898438.601562-10.199219v-122c0-8.402344 6.597656-15 15-15h210c8.402344 0 15 6.597656 15 15zm0 0" fill="#7c8388"/><path d="m482 75v91c0 35.699219-6.300781 70.601562-17.101562 102.699219-1.5 4.5-33.296876 9.300781-35.097657 13.800781-1.800781 4.800781 26.101563 9.597656 24 14.101562-21 46.199219-52.5 86.398438-91.800781 117.296876v-353.898438h105c8.402344 0 15 6.597656 15 15zm0 0" fill="#575f64"/><path d="m497 0h-270c-8.402344 0-15 6.597656-15 15v120c0 8.398438 6.597656 15 15 15h270c8.402344 0 15-6.601562 15-15v-120c0-8.402344-6.597656-15-15-15zm0 0" fill="#ffda2d"/><path d="m512 15v120c0 8.398438-6.597656 15-15 15h-135v-150h135c8.402344 0 15 6.597656 15 15zm0 0" fill="#eebf00"/><path d="m242 30h240v90h-240zm0 0" fill="#eebf00"/><path d="m362 30h120v90h-120zm0 0" fill="#dc9e00"/><path d="m106 512h-30c-8.285156 0-15-6.714844-15-15v-150c0-8.285156 6.714844-15 15-15h30c8.285156 0 15 6.714844 15 15v150c0 8.285156-6.714844 15-15 15zm0 0" fill="#eebf00"/><path d="m171.078125 332.316406 141.933594 113.542969c9.503906-5 18.753906-10.402344 27.652343-16.3125l-146.164062-116.933594c-7.164062 7.277344-15.019531 13.855469-23.421875 19.703125zm0 0" fill="#575f64"/><path d="m506.902344 26.101562-19.804688-22.203124-57.597656 51-57.597656-51c-2.703125-2.699219-6.300782-3.898438-9.902344-3.898438s-7.199219 1.199219-9.902344 3.898438l-57.597656 51-57.597656-51-19.800782 22.203124 54.898438 48.898438-54.902344 48.898438 19.800782 22.203124 57.601562-51 57.597656 51c2.703125 2.699219 6.300782 3.898438 9.902344 3.898438 3.597656 0 7.199219-1.199219 9.898438-3.898438l57.601562-51 57.597656 51 19.800782-22.203124-54.898438-48.898438zm-144.902344 88.796876-45-39.898438 45-39.902344 45 39.902344zm0 0" fill="#ffda2d"/><path d="m452 75 54.902344 48.898438-19.800782 22.203124-57.601562-51-57.597656 51c-2.703125 2.699219-6.300782 3.898438-9.902344 3.898438v-35.101562l45-39.898438-45-39.902344v-35.097656c3.601562 0 7.199219 1.199219 9.902344 3.898438l57.597656 51 57.597656-51 19.800782 22.203124zm0 0" fill="#eebf00"/><path d="m464.898438 268.699219c-3.296876 9.597656-6.898438 18.898437-11.097657 27.902343l-91.800781-25.203124-125.097656-34.5c2.398437-9.597657 3.898437-19.5 4.496094-29.699219l120.601562 33.300781zm0 0" fill="#575f64"/><path d="m464.898438 268.699219c-3.296876 9.597656-6.898438 18.898437-11.097657 27.902343l-91.800781-25.203124v-30.898438zm0 0" fill="#32393f"/></svg>