<?xml version="1.0" encoding="iso-8859-1"?>
<!--
  - Copyright (c) 2023. Selldone® Business OS?
  -
  - Author: M.Pajuhaan
  - Web: https://selldone.com
  - ??????????????????????????????????????????????????????
  -
  - All rights reserved. In the weave of time, where traditions and innovations intermingle, this content was crafted.
  - From the essence of thought, through the corridors of creativity, each word, and sentiment has been molded.
  - Not just to exist, but to inspire. Like an artist's stroke or a sculptor's chisel, every nuance is deliberate.
  - Our journey is not just about reaching a destination, but about creating a masterpiece.
  - Tread carefully, for you're treading on dreams.
  -->

<!-- Generator: Adobe Illustrator 19.0.0, SVG Export Plug-In . SVG Version: 6.00 Build 0)  -->
<svg version="1.1" id="Capa_1" xmlns="http://www.w3.org/2000/svg" xmlns:xlink="http://www.w3.org/1999/xlink" x="0px" y="0px"
	 viewBox="0 0 512 512" style="enable-background:new 0 0 512 512;" xml:space="preserve">
<linearGradient id="SVGID_1_" gradientUnits="userSpaceOnUse" x1="-330.6443" y1="263.2332" x2="-330.6443" y2="264.2032" gradientTransform="matrix(512 0 0 430.08 169545.875 -113157.875)">
	<stop  offset="0" style="stop-color:#C544FC"/>
	<stop  offset="1" style="stop-color:#5B56D7"/>
</linearGradient>
<path style="fill:url(#SVGID_1_);" d="M419.84,409.6H92.16c-16.937,0-30.72,13.783-30.72,30.72c0,16.937,13.783,30.72,30.72,30.72
	h327.68c16.937,0,30.72-13.783,30.72-30.72C450.56,423.383,436.777,409.6,419.84,409.6 M512,143.36
	c0,21.012-15.974,38.175-36.372,40.509L436.183,389.12H75.817L36.372,183.869C15.974,181.535,0,164.372,0,143.36
	c0-22.589,18.371-40.96,40.96-40.96s40.96,18.371,40.96,40.96c0,15.176-8.397,28.303-20.705,35.389
	c23.675,56.115,60.805,90.542,95.212,87.429c38.42-3.133,69.755-48.558,87.04-124.559c-22.159-5.612-38.666-25.58-38.666-49.459
	c0-28.242,22.958-51.2,51.2-51.2s51.2,22.958,51.2,51.2c0,23.88-16.507,43.848-38.666,49.459
	c17.285,76.001,48.62,121.426,87.04,124.559c34.55,3.113,71.516-31.314,95.212-87.429c-12.309-7.086-20.705-20.214-20.705-35.389
	c0-22.589,18.371-40.96,40.96-40.96C493.629,102.4,512,120.771,512,143.36"/>
<g>
</g>
<g>
</g>
<g>
</g>
<g>
</g>
<g>
</g>
<g>
</g>
<g>
</g>
<g>
</g>
<g>
</g>
<g>
</g>
<g>
</g>
<g>
</g>
<g>
</g>
<g>
</g>
<g>
</g>
</svg>
