<svg id="Icons" height="512" viewBox="0 0 60 60" width="512" xmlns="http://www.w3.org/2000/svg"><path d="m42.86 22.21a.952.952 0 0 0 -.39-.38l-11.96-6.7a1.084 1.084 0 0 0 -1.02 0l-11.96 6.7a.952.952 0 0 0 -.39.38 1.076 1.076 0 0 0 -.14.53v14.52a1.03 1.03 0 0 0 .53.91l11.96 6.7a1.065 1.065 0 0 0 1.02 0l11.96-6.7a1.03 1.03 0 0 0 .53-.91v-14.52a1.076 1.076 0 0 0 -.14-.53z" fill="#42838e"/><path d="m43 22.74v14.52a1.03 1.03 0 0 1 -.53.91l-11.96 6.7a1.019 1.019 0 0 1 -.51.13v-15.59l12.86-7.2a1.076 1.076 0 0 1 .14.53z" fill="#266677"/><path d="m42.86 22.21-12.86 7.2-12.86-7.2a.952.952 0 0 1 .39-.38l11.96-6.7a1.084 1.084 0 0 1 1.02 0l11.96 6.7a.952.952 0 0 1 .39.38z" fill="#347584"/><path d="m16.838 49.838a3.007 3.007 0 0 1 -4.461.62 27 27 0 0 1 17.623-47.458v-.95a1.1 1.1 0 0 1 1.74-.85l5.8 3.95a1.018 1.018 0 0 1 0 1.7l-5.8 3.95a1.1 1.1 0 0 1 -1.74-.851v-.949a21 21 0 0 0 -13.677 36.936 2.976 2.976 0 0 1 .515 3.9z" fill="#37cba1"/><path d="m43.216 10.153a3.008 3.008 0 0 1 4.444-.579 27 27 0 0 1 -17.66 47.426v.95a1.1 1.1 0 0 1 -1.74.85l-5.8-3.95a1.018 1.018 0 0 1 0-1.7l5.8-3.95a1.1 1.1 0 0 1 1.74.85v.95a21 21 0 0 0 13.708-36.91 2.977 2.977 0 0 1 -.492-3.937z" fill="#37cba1"/><path d="m25 23.231a1 1 0 0 1 -.489-1.872l5-2.8a1 1 0 1 1 .976 1.744l-5 2.8a1 1 0 0 1 -.487.128z" fill="#42838e"/><path d="m21 36.528a1 1 0 0 1 -1-1v-6.528a1 1 0 0 1 2 0v6.528a1 1 0 0 1 -1 1z" fill="#51949b"/></svg>