<?xml version="1.0" encoding="iso-8859-1"?>
<!-- Generator: Adobe Illustrator 19.0.0, SVG Export Plug-In . SVG Version: 6.00 Build 0)  -->
<svg version="1.1" id="Capa_1" xmlns="http://www.w3.org/2000/svg" xmlns:xlink="http://www.w3.org/1999/xlink" x="0px" y="0px"
	 viewBox="0 0 512 512" style="enable-background:new 0 0 512 512;" xml:space="preserve">
<linearGradient id="SVGID_1_" gradientUnits="userSpaceOnUse" x1="-330.6443" y1="268.2192" x2="-330.6443" y2="269.2192" gradientTransform="matrix(512 0 0 348.16 169545.875 -93302.5156)">
	<stop  offset="0" style="stop-color:#5CEECA"/>
	<stop  offset="1" style="stop-color:#64CCFA"/>
</linearGradient>
<path style="fill:url(#SVGID_1_);" d="M256,81.92c140.82,0,256,131.42,256,174.08S396.82,430.08,256,430.08S0,298.66,0,256
	S115.18,81.92,256,81.92z M256,368.64c62.116,0,112.64-50.524,112.64-112.64S318.116,143.36,256,143.36S143.36,193.884,143.36,256
	S193.884,368.64,256,368.64z M256,163.84c50.811,0,92.16,41.349,92.16,92.16s-41.349,92.16-92.16,92.16s-92.16-41.349-92.16-92.16
	S205.189,163.84,256,163.84z M256,307.2c28.242,0,51.2-22.979,51.2-51.2s-22.958-51.2-51.2-51.2s-51.2,22.979-51.2,51.2
	S227.758,307.2,256,307.2z"/>
<g>
</g>
<g>
</g>
<g>
</g>
<g>
</g>
<g>
</g>
<g>
</g>
<g>
</g>
<g>
</g>
<g>
</g>
<g>
</g>
<g>
</g>
<g>
</g>
<g>
</g>
<g>
</g>
<g>
</g>
</svg>
