<?xml version="1.0" encoding="iso-8859-1"?>



<svg version="1.1" id="Capa_1" xmlns="http://www.w3.org/2000/svg" xmlns:xlink="http://www.w3.org/1999/xlink" x="0px" y="0px"
	 viewBox="0 0 512.001 512.001" style="enable-background:new 0 0 512.001 512.001;" xml:space="preserve">
<g>
	<g>
		<path d="M114.021,320.402c-7.265-7.264-19.087-7.264-26.354,0.001c-7.265,7.265-7.265,19.087,0,26.353
			c7.266,7.266,19.088,7.266,26.354,0S121.287,327.668,114.021,320.402z"/>
	</g>
</g>
<g>
	<g>
		<path d="M188.654,290.538c-34.486-20.698-57.17-55.351-62.373-95.186c-6.781,7.643-14.706,14.239-23.529,19.534l-53.817,32.3
			C-7.288,280.93-16.835,358.524,29.532,404.89c19.934,19.934,45.634,29.532,71.146,29.532
			c33.829,0.001,67.323-16.884,86.559-48.935l32.3-53.817c3.359-5.597,7.25-10.828,11.591-15.64L188.654,290.538z M135.234,367.969
			c-9.481,9.481-21.936,14.222-34.39,14.222s-24.909-4.741-34.39-14.222c-18.961-18.962-18.961-49.817,0-68.779
			c18.963-18.962,49.817-18.962,68.78,0C154.197,318.152,154.197,349.006,135.234,367.969z"/>
	</g>
</g>
<g>
	<g>
		<path d="M424.334,320.402c-3.632-3.632-8.405-5.449-13.176-5.449c-4.772,0-9.543,1.816-13.177,5.449
			c-7.266,7.265-7.266,19.087,0,26.353s19.088,7.266,26.353,0.001C431.599,339.49,431.599,327.668,424.334,320.402z"/>
	</g>
</g>
<g>
	<g>
		<path d="M269.178,165.246c-3.633-3.633-8.405-5.449-13.177-5.449c-4.772,0-9.544,1.816-13.177,5.449
			c-7.265,7.266-7.265,19.087,0,26.353c7.266,7.266,19.088,7.266,26.354,0C276.443,184.333,276.443,172.512,269.178,165.246z"/>
	</g>
</g>
<g>
	<g>
		<path d="M463.065,247.186l-53.817-32.3c-14.178-8.51-26.046-20.377-34.555-34.555l-32.3-53.817
			c-19.238-32.054-52.726-48.937-86.558-48.935c-25.508,0.001-51.214,9.601-71.145,29.532
			c-46.366,46.366-36.819,123.96,19.403,157.704l53.817,32.3c14.178,8.51,26.046,20.377,34.555,34.555l32.3,53.817
			c19.238,32.054,52.726,48.935,86.558,48.935c25.509,0,51.215-9.6,71.146-29.532C528.835,358.524,519.288,280.93,463.065,247.186z
			 M290.391,212.812c-9.481,9.481-21.936,14.222-34.39,14.222c-12.454,0-24.909-4.741-34.39-14.222
			c-18.962-18.962-18.962-49.816,0-68.779c18.962-18.963,49.818-18.963,68.78,0C309.353,162.995,309.353,193.849,290.391,212.812z
			 M445.547,367.969c-9.481,9.481-21.936,14.222-34.39,14.222s-24.909-4.741-34.39-14.222c-18.962-18.963-18.962-49.817,0.001-68.78
			c18.962-18.962,49.816-18.962,68.779,0C464.509,318.152,464.509,349.006,445.547,367.969z"/>
	</g>
</g>
<g>
</g>
<g>
</g>
<g>
</g>
<g>
</g>
<g>
</g>
<g>
</g>
<g>
</g>
<g>
</g>
<g>
</g>
<g>
</g>
<g>
</g>
<g>
</g>
<g>
</g>
<g>
</g>
<g>
</g>
</svg>
