<svg xmlns="http://www.w3.org/2000/svg" width="512" height="512"><linearGradient id="a" x1="206.919" x2="264.513" y1="314.199" y2="314.199" gradientUnits="userSpaceOnUse"><stop offset="0" stop-color="#cc8241"/><stop offset="1" stop-color="#dea861"/></linearGradient><linearGradient id="b" x1="139.275" x2="354.964" y1="57.996" y2="182.524" gradientUnits="userSpaceOnUse"><stop offset="0" stop-color="#dea861"/><stop offset="1" stop-color="#ebcba0"/></linearGradient><path fill="url(#a)" d="M465.636 377.621V116.398L46.364 134.377v261.224c-.001 5.986 2.961 11.971 8.885 15.392l166.091 95.893a38.18 38.18 0 0 0 38.179 0l197.232-113.872c5.924-3.421 8.886-9.407 8.885-15.393"/><path fill="url(#b)" d="M55.25 118.987 252.481 5.115a38.18 38.18 0 0 1 38.178 0l166.091 95.893c11.847 6.84 11.847 23.94 0 30.78L259.519 245.659a38.18 38.18 0 0 1-38.178 0L55.25 149.767c-11.848-6.84-11.848-23.94 0-30.78"/><path fill="#dea861" d="m119.201 82.064 211.836 122.304 56.193-32.443L175.393 49.622z"/><path fill="#cc8241" d="m152.786 62.657 211.836 122.304-11.007 6.355L141.779 69.012z"/><g fill="#5d3645"><path d="m451.604 199.238-18.631-27.947-18.631 49.46 9.81-5.664v16.754l17.642-10.185v-16.754zM451.604 220.199l-37.262 21.513v9.062l37.262-21.513z"/></g><path fill="#cc8241" d="M331.037 204.368v46.406l56.193-32.443v-46.406z"/></svg>